<svg xmlns="http://www.w3.org/2000/svg" xmlns:xlink="http://www.w3.org/1999/xlink" width="1080" height="1080" viewBox="0 0 1080 1080"><defs><style>.a{fill:none;}.b{fill:#f15a29;}.c{fill:#f0dfd2;}.d{fill:#33ae90;}.e{clip-path:url(#a);}.f{fill:#1c6655;}.g{clip-path:url(#b);}</style><clipPath id="a"><ellipse class="a" cx="541.43" cy="429.9" rx="13.75" ry="10" transform="translate(-10.23 846.6) rotate(-75.52)"/></clipPath><clipPath id="b"><path class="a" d="M525.48,432c-10.17-2.38-13.59-9.18-13-16.23C520.5,416.32,524.86,422.06,525.48,432Z"/></clipPath></defs><title>Croissant 4</title><path class="b" d="M523.5,388.5c-9.87.79-12.5,21.5-23,36C487.07,443.05,493,454,493,454s20.5,15.5,46.5,10.5c19.66-3.78,35,12,35,12l15-16S573.5,384.5,523.5,388.5Z"/><path class="c" d="M546,519s3,34,1.5,65.5c-.77,16.11-2,34-2,34-6,7-13,25-7,27s30-18,28-23,1-35,3-55S546,519,546,519Z"/><path class="c" d="M361.5,673.5c19.89-8.62,61.5,3.5,80.89,7.37,13.61-14.87,46.7-26.27,67-32.32C528,643,547.1,635,557.26,635c2-8.15,8.5-15.31,17.24-20.47,53.09-31.37,71.5-63.5,86.39-68.78,10.65-16.92,20.43-33.78,32.61-48.22,18.47-21.89,32.7-47.71,51.11-55.44,3-13.37,2.84-26.58,3.89-40.56,3-40,25.38-90.74,61-82,26.5,6.5,46,45,60,90,4.61,14.83,5.87,31.92,6.89,47.37,15,3.15,24.11,9.11,28.11,24.63,8,31,17.5,73.5,6,131C903.07,649.65,893,668,878.84,685.2c10.36,15.56,9.19,36.91.66,57.3-18,43-53.5,84.5-131,112-40,14.19-85.5,26.5-107.71,7.48-15.83,5.57-38,10.85-69.14,11.5-51,1.06-89.63-19.31-115-36.86-9.11-6.3-18.83-16.41-23.63-24.34-12.48-6.71-22.4-8.6-30.47-12.78-29-15-63.09-50.27-68-65C327.5,713.5,331.5,686.5,361.5,673.5Z"/><path class="d" d="M551.5,479.5c10.88-5.54,22.36-16.82,42-7,24,12,46,43,55,57s23,50,23,50l-77.55,27L582,618l-2.5-5.5s-18.5-44.5-24-60C548.3,532.2,525,493,551.5,479.5Z"/><path class="c" d="M511.5,401.5a136.51,136.51,0,0,0-1,23c.8,21.54.5,31.5,7,39,7.54,8.7,22,7,22,7s1-1,5,4c3.53,4.42,6,12,6,12s5,1,9-1a8.74,8.74,0,0,0,5-6s-3-11-2-20c.78-7,16.49-12.47,16.5-28.5s-14.27-40.18-34.81-44.7C522.86,381.61,512,393.45,511.5,401.5Z"/><path class="c" d="M602.5,529.5s2.08,20-1,57c-1,12-5,18-4,30s-7,14-8,19c-1,5.22-1.53,9.26-3,10-2,1-3-5-3-5s-1,4-3,4-3-5-3-5-1,5-3,4-2-3-2-8c0-10,12-11,11-27-2-31.94-7-77-7-77Z"/><polygon points="629 594.5 660 583.5 661 589 643 691 644 696 633 724 603 714 618 708 620.25 683.25 623 678 629 594.5"/><circle class="d" cx="371" cy="429" r="11"/><g class="e"><path class="f" d="M562.29,427.76c-4.56,7.3-12.42,9.79-21.59,7.35C542.14,426,554.93,422.2,562.29,427.76Z"/></g><g class="g"><ellipse class="f" cx="510.05" cy="424.83" rx="13.75" ry="10" transform="translate(0.07 849.74) rotate(-79.59)"/><path class="f" d="M508.92,439a7.79,7.79,0,0,1-1.44-.13c-5.7-1-9.17-8.18-7.75-15.92h0a17.08,17.08,0,0,1,4.78-9.3,8.71,8.71,0,0,1,14.71,2.7A18.13,18.13,0,0,1,515.6,436,9.76,9.76,0,0,1,508.92,439Zm-8.21-15.87c-1.32,7.19,1.8,13.81,7,14.76a8.36,8.36,0,0,0,7.25-2.56,17.09,17.09,0,0,0,3.4-18.55,7.72,7.72,0,0,0-13.11-2.41,16.06,16.06,0,0,0-4.49,8.76Z"/></g><path class="b" d="M533,395s5.5,4.5,11.5,8.5S561,415,561,415s-1,12,2,18,9.5,17.5,13.5,24.5A29.55,29.55,0,0,1,580,469s12,3,17,1c4.55-1.82,10-7,10-7,11,0,13-9,13-9a26.29,26.29,0,0,1-6-17c0-12-3-21.88-9-26-13-8.92-21.87-10.85-37-28-6.1-6.91-27.28-4.67-33.5-3.5-16,3-23.5,15.5-23.75,24.25S523.5,395.5,533,395Z"/><path d="M803.68,316c3.06-.9,6.6,1.2,10.34,1,.63,0,.79.51,1.21.72,4.06,2.09,8.07,4.23,11.43,7.41.79.75,1.3,1.78,2.69,2,.68.11-.57,2.14.9,2.6,1.14.36,2.11.7,1.75,2.2-.41,1.72,2.35.42,2,2.09-.3,1.41.73,1.6,1.64,2.3,2,1.56,4.36,3.28,4.89,5.88.35,1.77,2.6,1.44,2.58,3.42a4.33,4.33,0,0,0,2.25,3.58c1,.7,2,2.35,2.91,3.65,1.39,2.05,2.51,4.29,3.73,6.45.68,1.21,1.1,2.69,2.06,3.6s0,2.93,2.26,3.23c1.51.2-.09,2.9,1.68,3.6-.22,2.21,2.53,1.68,3,3.18s-.19,2.78.57,4.27c1,1.92,1.11,4.25,2.91,5.79.23.2.57.57.52.76-.47,1.53,1,2.85.45,4.35a1.16,1.16,0,0,0,1.22,1.64c.85-.45,1.2-1,1.39.44.22,1.77.9,3.51.89,5.26,0,1.41.79,2.4,1,3.6.18,1-1.37,1.77-.94,3.08.22.68-.41,2,.88,1.85,1.86-.16,2.52.5,2.12,2.22-.67,2.84.73,5.42,1.21,8a26.19,26.19,0,0,1,.79,4.63c0,.8.31,1.12,1.14,1.18,1.15.09.73.57.23,1.14-.65.75-.7,1.6.45,1.8s1.25.38.48,1.36a2.94,2.94,0,0,0-.24,2.34c.53,1.68,1.37,3.31.92,5.09-.37,1.44,1.5,2.61.16,4.29-.42.52,1.89,2.28-.06,3.53,1.52.71.39,2.53,1.42,3.41.78.66.48,1.51.5,2.29,0,1.67-.58,3.71.17,4.9s-.81,2.61.8,3.43c.28.14.17,1.32-.78,1.39-.49,0-.94.06-1.06.6a1.22,1.22,0,0,0,.79.39c1.25-.1,2.23,0,2.27,1.66a.32.32,0,1,0,.64,0c.1-2.82,1.57-.68,2.34-.62a16.83,16.83,0,0,1,7.21,1.88c2.16,1.28,5,1.7,6.19,4.24.56,1.2,1.87.51,2.58,1.83,1.49,2.73,3.8,5,3.94,8.41,0,1,1,1.94,1.64,2.78.81,1,2.23,1.79.49,3.17,0,0,.22.64.32.63,1-.09,1.68.25,1.45,1.35-.8,3.88,1.47,7,2.38,10.53,0,.13.33.24.33.35-.13,4.35,1.5,8.37,2.33,12.54.65,3.23.57,6.6,1.88,9.72a6.91,6.91,0,0,1,.1,2.46c0,1.83,0,3.66,0,5.5,2.6.88-.18,2.76.81,4.37,1.15,1.87-.62,4.57-.08,7,.08.33-1,.36-.43,1.06,2.21,2.93.9,6.81,2.68,9.89.48.83-1.13,1.64-.74,1.91,1.75,1.23-.48,1.8-.41,2.84.08,1.3,1.65,1.7,1.21,3.09a2.79,2.79,0,0,0,.88,3c-1.29.69-.52,2.18-1.11,3-.91,1.32-1.66,2.18.73,2.51.72.1.18.81-.16,1-1.71.85-.69,1.87-.45,3,.38,1.83-.89,3.73,0,5.67.3.64-.16,1.22-1.05,1.21-.4,0-1,0-.65.75.79,2,1,2.13.29,3.07s0,1,.22,1.48c1,2.23-.88,4.93,1.07,7.06,0,0-.33.61-.43.59-1.92-.42-1.12,1.64-2,2.19s1.23,1.21-.07,2.19c-.81.61-.62,2.11.49,3-.73.8.18,2-.17,2.4-.89.9-.2,2.13-.71,2.71-.8.91,0,1.81-.16,2.14-2,4.25-1.6,9-2.93,13.3-1.27,4.06-.64,8.66-3.46,12.21-.55.69.09.76.28,1.08a2.93,2.93,0,0,1,0,2.73c-1.17,3.21-2.9,6.29-2.67,9.89l-4.08,9.81c-1.31.63-.29,1.4-.12,2.12l-1.18,3.18c-1.51,1.69-1.79,4-2.49,6-1,2.87-1.91,5.71-4.27,7.71a5.42,5.42,0,0,0-1.55,2.85,7,7,0,0,1-2.28,4.1c-.46.39-1,.74-1,1.56-.09,2.84-2,4.68-3.94,6.33-1.07.9-.87,3.46-3.33,2.65-.26-.08-1.1.52-.29.82,3.1,1.16,2.52,4.74,4.52,6.58-.39,2.28,1.24,3.87,2.16,5.59.72,1.34-.52,3.26,1.48,4.1.82.34,0,.77-.25,1-.62.57-.09,1.31-.35,1.86-.85,1.8,1.79,3.18.58,4.91s-.61,3.57-.48,5.27c.33,4.28-2.19,8-2.08,12.17-3.06,3-2.92,7.14-4,10.86-.34,1.22-1.68.35-1.84,1.15s1,1.06.82,2,0,1.44-1.17,1.71-2.45,1-.89,2.58c.24.24-.14.84-.37,1.3-2,4-4.56,7.81-4.77,12.57a4,4,0,0,1-1.31,2.37c-.38.29-.6-1.38-1.35-.51-.47.53.06,1.1.35,1.7.62,1.31-.25,3.12-1.8,3.89-1.76.88-3.36,1.7-2.74,4.17.39,1.55-.46,2.08-1.92,1.85a.83.83,0,0,0-1,.73c-.51,3.45-3.72,5.37-4.8,8.52-.89,2.59-3.36,4.12-4.67,6.54-1,1.92-3.09,3.2-4.2,5.27-.93,1.7-2.77,2.85-4.21,4.11-4.49,3.91-8.55,8.34-13.51,11.7-1.68,1.14-3.12,2.67-5.18,3.19-.26,2.3-2.8,2.48-3.71,3.91-1,1.61-3.58,0-4.06,2.66-.26,1.48-2.32,2.54-4,3.2-1,.4-1,2.4-2.85,1.56-1.29-.59-1.42,1.51-2.51,1.59-1.93.14-1.35,2.62-3.15,3.1a18.08,18.08,0,0,0-6.31,2.75C800,833.29,798,834.67,796,836a82.54,82.54,0,0,1-10,5.9c-1.23.56-.54,2.89-2.51,2.18a4.53,4.53,0,0,1-4.69,2c-2.21-.28-3.14,2.85-5.55,2.26-4,2.37-8.91,3-12.34,6.38a1.41,1.41,0,0,1-1.37.31c-2.41-.36-4.29.77-6.18,2-3,2-7,1.62-9.84,4-2.57-1.28-4.16.3-5.94,1.83-.72.62-2.3-.14-3,1.13-5.66-.3-10.52,3.65-16.24,3-1.15-.12-1.4.5-1.34,1.49,0,.16-.6.55-.72.48-2.51-1.47-3.94.27-5.49,1.75a1.37,1.37,0,0,1-.87.27c-2.89,0-5.85-.36-8.23,1.86-1.45-1.94-2.74.38-4.11.14-3.63-.62-7,1.45-10.59,1-1.8-.2-3.94,1.87-5.31-.9-1,2.05-2.49-.29-3.89.45-1.78.93-3.82,2.86-6.06.6-2.58,1.8-5.05.09-7.6-.15-5.1-.48-7.65-1.55-13.19-4.43-2-1.05-3.68-2.43-5.57-3.46-1.08-.59-2.4-2.36-2.89-1.85-1.47,1.5-3.51,0-5,1.55-1,1.11-3.26,1-4.6,1.95s-1.89-1.24-3.29-.1c-.91.75-2.07,1.4-3,2.25-.09.08-.35,0-.46.06-1.19.84-1.93-1.5-3.37-.38-.59.46-1.64,1.61-2.66.83s-1.08.14-1.43.46c-.87.78-1.62,1.87-2.79.41-.09-.12-.31-.31-.34-.29-4,2.92-8.92,1.74-13.13,3.33-1.4.53-2.75-1.72-4.07.53-.53.91-3-.54-4.61.74-.34.28-1.83-.62-2.66-1.18-1-.68-.94,0-1,.64-.13,1.1-.59.9-1.13.27-.74-.87-1.2-1.37-2.6-.5a5.72,5.72,0,0,1-4.38,0c-1.52-.56-2-1.06-2,1.13,0,1.87-.88.26-1.34,0s-1.19-2.2-1.64.21c-.25,1.33-1.38,1.94-2.68.73-4.09.44-7.94-1.67-12.08-1-2.74.42-5.22-1.43-8.09-1a65,65,0,0,1-8.49.08c-.34,0-.74.12-1,0-1.09-.62-2.08-1.42-3.2-2s-2.1,1.76-3.15,0c-1.39.54-2.78-1.7-4.17,0-2.22-1-4.8-.51-6.9-1.44-3.37-1.5-6.74-2.67-10.44-2.53-1.51.06-2.53-1.07-4.08-1.2s-3.3-2.44-4.87-2.35c-2,.12-3.17-.82-4.65-1.48a84.13,84.13,0,0,0-10.33-4c-1.6-.47-3.64-1.08-4.44-2.3-1.3-2-3.7-1.1-5-2.71-1.14-1.41-3.37-1.24-4.56-2.09-3.47-2.47-7.58-3.79-10.86-6.46-1.38-1.11-3.39-1.54-4.33-2.59a12.53,12.53,0,0,0-3.85-2.82c-2.26-1.15-2.9-4-5.33-5,.06-1.9-1.76-2.17-2.81-2.68-3.43-1.65-5.53-4.83-8.55-7-2.58-1.83-4.11-5.17-6.08-7.86-1.19-1.63-1.17-1.64-3.54-1.43-.65.06-1.31.12-1.47-.82-.3-1.83-1-1.81-2.83-1.39-1.2.28-3.25-1.27-4.25-2.54-1.21-1.54-1.82-2.75-3.32-.41-.11.19-.95.13-1.28-.08-.55-.35-.9-1-1.46-1.35-1-.54-.54-1.81-1.39-2.36-.86,1.42-1.64.59-2.09-.22-.76-1.37-1.8.42-2.08-.14-.53-1-2.42-.08-2.38-2,0-1-1.07-1-1.81-.31-.34.29-1.08.69-1,.14.45-2.9-1.76.08-2.27-1.11A2.45,2.45,0,0,0,403,803c-1,.19-.77-.7-1-1.25-.35-.7-2.81-1-4.58-2.14-1.14-.76-3.82.58-3.53-2.25-1.47-.47-2.95-.9-4.41-1.42-1.28-.46,1.75-1.69-.21-1.87-2.78-.25-3.23-.74-5.3-2.26-1.5-1.1-2.35-3.88-5.13-2.83-.19.07-.72,0-.56-.83.22-1.08-.33-1.37-1-.82-1.11,1-1.46.47-1.21-.54s1.61-1.89-.66-1.88a5.35,5.35,0,0,1-1.69-2.1c-.16-1.32-1.79-.65-2.23-1.75-.55-1.36-1.31-.64-2.16-.09-.47.3-1.09,0-1.38-.86a4.43,4.43,0,0,0-3.33-3.13c-2.09-.53-2.93-2.62-4.17-4.11-.87-1.06-.48-2.79-2.42-3.5-1.42-.51-2.25-2.47-3.64-3.29a20.64,20.64,0,0,1-7.42-7.43,3.41,3.41,0,0,0-1.75-1.57c-2.68-.68-3.56-3.32-5-5-1.25-1.45-2.1-3.47-3.59-4.93a1.43,1.43,0,0,1-.61-1.25,4,4,0,0,0-1.48-3.91c-1-.84,1.29-2,.45-2.23-2.12-.66-1.69-2.69-2.66-3.92-2.21-2.82-1.83-6.54-3.27-9.64-.2-.41-.24-1.24,0-1.44,2.17-1.77,0-3.11-.43-4.56-.3-1-1.62-2.36-1.36-2.69,1.13-1.46,1.24-2.6-.11-3.88a5.78,5.78,0,0,1,.47-.68c.77-1.19,2.48-1.63,2.46-3.5,0-1.06-1.77-2-.25-3.09-1.32-1-1-2,.16-2.75,1.67-1.08,1.88-2.85,2.5-4.48s.57-3.58,2.44-4.49c-2.44-2,1.64-1.27,1.13-2.65-.58-1.58,1.49-2.22,1.63-3.26.27-2,2.28-1.49,2.93-2.73.29-.57,1.37-1,1.31-1.42-.45-3.19,2.1-3.92,4.06-4.38,1.52-.36.38-2.5,2-2.15,1.57-2.33,4.43-3.11,6.2-5.43,1.12-1.48,3.76-2,5.84-2.47,1.39-.29,2.83-1,4.05-.94,1.48.08,2.75-2.63,4.24-.31,1.33-1.22,3-.67,4.52-.88,1.88-.25,3.95.87,5.65-.9.42-.45,1.11.29,1.69.55,1.05.46,2.56,1.42,2.82-1,0-.43.44-.85.92-.21.81,1.08,1.52,1.61,3,.65.79-.51,2.78,2.62,3.25-.79.06-.41.36-.06.7,0a89.38,89.38,0,0,0,9.43,2.55c.91.17,1.73,1.3,2.4.76,2.07-1.65.82.89,1.45,1.06,1,.27,1.41-1.16,2.84-.38a19.91,19.91,0,0,0,9.38,2.51c2,0,1,2.35,2.59,2.17,1.25-.15,2.63.34,3.56-1,1.87,3.26,5.87,1.05,8.19,3.17.34.31.79.75,1.17.73,1.39-.09,3,.94,3.86.52,1.29-.63,1.28.4,1.85.65s1,1.39,1.29.29c.59-2.52,1.6-1.6,2.5-.44s1.47.93,2.15-.06c.18-.25.22-.62.44-.81,1.28-1.09.31-3.11,2.17-4.27a21.54,21.54,0,0,0,3.65-3.15c.78-.8,1.48-2.18,2.92-.73.13.13,1-.17,1.23-.48,1.79-2.1,5.08-2.35,6.38-5.16a3,3,0,0,1,2.67-.9c1.15.27,2.61.17,3-1.6.25-1.16,1-1,1.82-.49.31.2.38.87,1.08.3,4-3.26,4-3.09,7.39-3.68,2.11-.38,4.59-.76,6.06-2.08,1.92-1.72,4.39-1.76,6.26-3.11.92-.66,1.19-.46,1.84.14.27.26,1.26.27,1.27-.19,0-2.77,3.2-.93,3.84-2.71,4.38.12,8.05-2.35,12.12-3.41,1.72-.45,3.81-.1,5.33-1.57s3.67-1.1,5.56-1c1.16.08,1.51-1.2,2.59-1.09.68.07,1.88-2.11,1.93.57,0,.66.79.21,1-.15,1.31-2.59,4.59-2.09,6.38-4.13.59-.68,2.51-.28,3.82-.24s2-.17,1.72-1.59c-.34-2,1.48-3.55,1.07-5.6-.08-.41.74-1,1.09-1.51.23-.33,1.05-.6.58-1-2.36-2.09,1.1-3.82.29-5.81a1,1,0,0,1,.32-1.34c3.35-1.81,2.57-5,2.65-7.9,0-1.07.27-1.69,1.24-.51a.36.36,0,0,0,.68-.19c.16-1.1-.16-2.34,1.07-3.06-1.74-1.22.46-2.38.07-3.69-.43-1.48,1.11-2.49,1.53-3.83.1-.33.44-.5.16-.71-1.41-1.06-.69-1.92.23-2.78-.66-.52-.73-1.45-1.14-2-.9-1.21-1-1.45.64-1.56.62,0,.85-1.23.29-1.58-2.07-1.33-1.68-3.33-1.82-5.29-.12-1.74.84-3.66-.64-5.22-.31-.33-.37-.45.06-.72,2.83-1.77.79-5.28,2.63-7.41-2.38-1.35,1-3.42-.39-4.45-1.78-1.36,1.29-2.85-.46-3.91,1.71-1.32-.89-2.26-.31-3.8.42-1.09.61-2.38,1.13-3.54.09-.19-.13-.61-.31-.84-2.35-2.79-1.55-6.13-1.66-9.31-.09-2.47,2.19,1.74,2-.67-.12-1.17,1.16-3.19-1.52-3.29-.43,0-.39-.38-.16-.69,1.61-2.25.34-4.81.73-7.19s-1.76-4.57-1-7.09c-1.92-2.2-2.57-4.93-3.25-7.65-.11-.43-.77-.85-.7-1.18.37-1.72-1-3-1-4.59,0-1.83.21-3.7-1.78-4.77.76-2.42-2.79-4.55-.39-7.16,1-1.14-1.74-2.24-.78-2.9,2.35-1.63.28-3.63.68-5.41s1.45-3.58,1.25-5.53c-.13-1.17.17-1.68,1.53-1.86s-1.59-1.72.2-1.79.89-1.85,2-2.37c.85-.41,2.09-1.44,2-2-.14-1.05-.87-1.86.91-1.79-.29-1.06-.39-2.25-1.45-2.85-.36-.2-1.1-.13-1-.61s.82-.31,1.26-.46.68-.65.09-.94c-.4-.2-1.23.2-1.3-.38-.47-4.16-3.52-4-6.34-3.59-4.51.64-8.3-2-12.58-2.35a5,5,0,0,1-2.4-1.38c-1.7-1.42-3-3.13-5.51-3.71-1.65-.38-2.87-2.63-4.29-4.05,1.56-.92-.13-1.75-.07-2.64a3,3,0,0,0-.71-2.22,7,7,0,0,1-1.28-6.12c.31-1.16-1.21-1.45-.66-2.44.92-1.67-1.57-2.87-1-3.74.9-1.48,1.08-3,.35-4.07-1-1.36-.45-1.86.28-2.89s-1-1.49-1-2.54a35.25,35.25,0,0,1,.08-4.49c.22-1.15.36-2.3.54-3.45a10.48,10.48,0,0,1,.43-1.31c.54-1.61-1.49-2.92-.91-4,.77-1.44,1.32-2.43.19-3.87-.59-.76.9-1,.74-2-.22-1.27-.27-2.68,1.15-3.48.44-.25.49-.22,1.86,3.27.37.93,3,1.05,1,2.82,1.85,1.26.59,2.54-.13,3.61-1.28,1.9-1.43,3.51.54,5,.6.45.82,1.42.26,1.63-1.73.66-2.62,1.26-.81,2.88a1,1,0,0,1-.28,1.31c-1.09.7-.83,1.87-.61,2.71a29.78,29.78,0,0,0,1.78,4.12c-1.57,1.32-.62,3.09-.8,4.65,0,.35.4,1,.87.25.29-.44-.17-1.53.71-1.35s.42,1.18.33,1.76.72,1.73-.65,1.79c-.39,0-.81-1.29-1.26-.09-.22.58-.07,1.38.9,1.32a.93.93,0,0,1,1.06.75c.35,1.15-.79,2-.67,3,.08.57,1.92.05,1.72,1.7s-.33,3.64,1.63,4.82c.88.53-1.3.93-.23,1.76a8.72,8.72,0,0,1,1.54,1.86c.16.23.1.81.26.85,1.47.42,3.25.25,3.76,2.3.39,1.6,2.59,1.12,3.14,2.61.08.21.53.33.82.38,1,.17,1.44-1.61,2.55-.92a26.39,26.39,0,0,1,2.22,1.91c.21.16.66,0,1,0,1.21.17,1.73-1.34,3.11-1.09.81.14,1.76,1.95,2.66.09,4.91-.79,8.42,2,9.58,7.09a52.66,52.66,0,0,0,3.23,8.64,2.15,2.15,0,0,0,2.91,1.19c2.29-1.4,5.12-.95,7.38-2.82s2.37-1.44,1.14-4c-2.28-4.72-4-9.48-1.86-15,1.14-3,2.15-6.1,3.53-9a20.21,20.21,0,0,1,2.41-2.42c.61-.51,1.18-1.06,1.77-1.6.89,1,.74,2.91.34,3.22-3,2.23-1.29,6.72-4.45,8.73-.64.41-.08.68.1,1.07.59,1.36.88,2.76-.22,4s.08,1.73.72,2.41,1.37.47,2.07-.17a14.09,14.09,0,0,1,5.17-2.4,15.9,15.9,0,0,1,6.09-1c2.22.19,4.59-.3,6.41,1.41.73.69,1.47.52,2.25.65,4.58.72,12.89,4.63,16.22,7.85.86.84,1.93,1.05,2.84,1.68,1.64,1.15,4,1.22,4.25,4.15a2.14,2.14,0,0,0,3.52,1.37c.72-.53,1.37.7,1.86,1.28.15.18-.34.9-.53,1.37l1.88.28c2.19.34-.94,1.53.25,1.8,1.55.35,3.18.16,3.71,2.34.35,1.44,2.84,1,3.12,3.16.09.7,1.75,1.65,2.59,2.64.37.45,1.69-.31,2.18.58.19.36-1.37.53-.53,1.38,1,1.06,2,2.42,3.24,3a9.58,9.58,0,0,1,5.24,6.86c.37,1.56,1.72,2.19,2.33,3.54.52,1.15,2.76,1.42.82,3.32-.34.33-.09,1.18.83,1.4.55.13,2.94,3.69,3.12,4.22.6,1.89,2.28,3,3.42,4.46,2.35,3,3.81,6.75,7,9.16.25.19.64.55.59.73-1,3.63,3.14,5.45,3.07,8.76,0,.36.57.78,1,1.09.88.74,1.75,1.07,2-.53.14-1,1.2-1.4,1.06-2.59-.23-1.94.17-3.69,2.45-4.4.74-.23.51-1.13.49-1.76a5.92,5.92,0,0,1,2-4.68c4.84-4.54,7.27-11,12.38-15.36a1.73,1.73,0,0,0,.62-1.74,2.06,2.06,0,0,1,1.5-2.29c2.56-.3,2.82-2.52,3.38-4.1a6.29,6.29,0,0,1,1.49-2.9c1.54-1.41,3.31-2.84,3.56-5,.2-1.77,2.06-.67,2.44-1.93a22.62,22.62,0,0,1,1.35-2.44c1-2.35,3.54-3.68,4.29-6.22,2.82-.4,2-4.43,4.8-4.84a10.32,10.32,0,0,1,3.55-5.51c1.78-1.29,2.26-3.64,3.92-4.84s2.1-4,4.49-4.61A23.31,23.31,0,0,1,721,458.33c-.19-3.39,3.09-5,4.14-7.79a3.75,3.75,0,0,1,4.34-2.55,1.7,1.7,0,0,0,1.72-.66c1.38-1.46,2.59-3.4,4.29-4.11s3.41-1.43,5.13-2.1c1.94-.74,2.49-1.77,2.38-3.57a6.68,6.68,0,0,1,0-1c.38-3.52-.88-7.18,1-10.6.72-1.31-1.71-2.42-.8-3.46a3.69,3.69,0,0,0,.74-3.67c-.43-1.5,2.35-2.38.53-3.88s.87-2,.68-3.42c-.22-1.63-.7-3.47.76-5.16.55-.63.44-2.4-.55-3.65-.77-1,1.65-1.06,1.26-2.81-.44-2,1.49-4.4-.55-6.44,2.2-.88-.25-2.45.5-3.46.9-1.23-.06-2.7.51-3.79,1.8-3.39,1.69-7.34,3.18-10.68.85-1.93.75-3.95,1.53-5.86.69-1.7,2.88-2.66,2.34-5.1-.37-1.73,1.39-3,2.21-4.53,1-1.72,1-3.9,1.73-5.77.64-1.68.84-3.8,3.17-4.27.52-.11.69-.43.83-1,.68-2.76,3.75-9.3,5.68-11.1,1.7-1.59,2.41-3.81,4.15-5.34s3.12-2.95,4.67-4.39a45.18,45.18,0,0,1,10.73-7.76c2.8-1.36,5.88-2.05,8.23-4.32.35-.34,1.28-.09,1.94-.09ZM627,600.64c0-1.15,0-1.82,0-2.49-.06-1.49-.49-.72-1.33-.42-2,.71-4.32.8-6.08,2.22-.91.73-1.4,1.5-2.86.47-1.1-.78-2.25,2.16-4.16.79-.54-.39-.33,1-.67,1.35-.67.73-1.27,2.05-2.53.49-.27-.33-1.35-.14-1.36.82s-.5,1.43-1.14,1.07a2.41,2.41,0,0,0-2.73,0c-.62.36-1.15-.22-1.16-1.06,0-.37-.63-1.09-.65-.58-.06,1.33-1.33,2.39-.76,3.76.87,2.06.54,4.26.28,6.3a13.47,13.47,0,0,1-1,3.06c-.52,1.21,1.93,1.59.41,2.87-1,.87.35,2.59-.75,3.65-.39.37-.38.56-.08,1.09,1.3,2.24.24,3.81-1.39,5.51s-3.8,2.25-4.6,4.47a8.09,8.09,0,0,1-2.58,2c-.55.28-1.32.64-1.48,1.13-.79,2.4-3.14,3.8-3.54,6.57s-2.54,3.11-4.87.86c-.39-.38-1-.61-1-.09.06,2.17-2.23,1.36-2.94,2.5-.92,1.47-2.53-.19-3.84.9-1.1.94-2.69-.21-3.22-1.42-1-2.33-1.89-4.88-.57-7.35.46-.87.06-1-.32-1.45-.6-.69-1.9-1.38-.87-2.35.76-.71.23-2.22,1.42-2.28,2.16-.1.8-1.77,1.33-2.52.77-1.11,2.63.05,3.4-1.43a1.27,1.27,0,0,0,.15-1.09c-.21-1,0-1,1.71-1.17.67,0,.67-.37.7-.85a.79.79,0,0,0-.83-1c-.78,0-1.23-.27-1.18-1.13s.75-.84,1.4-.9c.8-.08,1.76.41,2.36-.3.93-1.09-.72-1.62-.73-2.47,0-2.28,1.48-.23,1.51-.35a32.21,32.21,0,0,0,1-4.76c0-.16-.88-1.82-1.65-.44-1.45,2.58-5.31,2.15-6.28,5.22-2.74-.54-3.43,2.45-5.55,3.28-2.45,1-3.71,3.91-6.06,5.39.6,2-1.52,2.76-1.91,4.19s-.05,3.31-.1,5c-.07,2.39.73,5-1.89,6.75-.24.16-.28,1.07-.07,1.4,1.12,1.76.94,3.68,1,5.61,0,1.72-1.07,3.39-.09,5.2a2.18,2.18,0,0,1-.36,2.3,3.93,3.93,0,0,0-.24,4.56c.7.9,1.76,1.11.67,2.36,1.4,1.49.24,2.79-.45,4a2.22,2.22,0,0,0-.17,2.11c.65,2.41,2.45,4.38,2.59,6.92.06,1,0,2,1,2.59-1.71,1.18-.14,1.77.49,2.46.41.44.44.71,0,1.07a1.87,1.87,0,0,0-.39,2.27c.39.86,1.12,1.54.93,2.63-.15.87,1.66,1.71.06,2.64,1.48.78-.19,1.61,0,2.17,1,3.06,3.21,5.71,3.3,9.13,2.63,0,1.63,2,1.57,3.23-.09,2,1,3.78.92,5.58s2.53.71,2.22,2.61a5.13,5.13,0,0,0,.39,3.8c.4.65-.67,2.07,1.19,2.13.55,0,.16.9.36,1.3.91,1.79.92,3.87,2.4,5.54,1.28,1.46.9,4,2.55,5.41-2.11,1.23-.41,2.51.08,3.63s1.82,1.8,1.83,2.7c0,1.56.92,2.31,1.7,3.35.56.76,1.26,2.16.93,2.68-1.31,2.12,2.43.61,1.59,2.44-.24.53.69,1.63,1.12,2.44a7.13,7.13,0,0,0,1.45,2.36c.8.59-2,2.14.69,2,.45,0,.95,1.44,1.45,2.2,1,1.57.55,4,2.17,5s.49,2.79,1.6,4c.38.4-1.1,2.11-.43,3.28s2,1.56,1.92,3.24,2.85,2.43,1.93,4.67c1.69,1.43,1,3.85,2.42,5.52,1.15,1.41.71,3.85,2.22,5,1.84,1.39.85,4.15,3.08,5.34.73.39,1,1.87,1.26,2.9a16.73,16.73,0,0,0,3.36,6.61c.61.69,1.56,2,1.34,2.33-1,1.55.19,2.1.93,2.89a16.42,16.42,0,0,0,1.78,1.76c.81.64.24.95-.16,1.44s-.36,1.51.28,1.62c.92.17,1.61.2,1.49,1.36-.17,1.58,1.18,2.51,1.63,3.83s.31,3.17,2.37,3.43c1.11,3.87,4.55,6.35,6,10,.17.42-.17,1.17.42,1.3,2.13.48,2.3,2.12,2.65,3.85.25,1.17,1.14,2.2,1.48,3.37a6.39,6.39,0,0,0,2.91,3.74c1.9,1.1,1.55,3.12,2.31,4.61,1.58,3.12,4.37,5.12,6.42,7.77s5.09,4.29,7.5,6.67c1.19,1.17,3.4,1.51,4.69,3,2.32-.74,2.54,2.25,4.4,2.49.49.07,1.35,1,1.65.61,1.21-1.75,2.48-.15,3.18.16,2.19,1,4.4.77,6.64.9,1.31.08,2.86-1.52,3.93.6.44.86.72-.15,1-.33,1.37-.78,3.28.43,4.42-1.18,1.36,2.69,3.48.79,5.29.94,5.07.42,9.83-1.15,14.66-2.12,3.37-.67,6.71-1.54,10.09-2.21a93.67,93.67,0,0,0,14.22-4.26c1.34-.5,1.77,1.52,2.81.37a6.57,6.57,0,0,1,1.8-1.7c.36-.16.81.49,1.76.33,2.69-.43,4.65-2.67,7.53-2.51,2.69.15,4.62-3.16,7.66-2,2.42-1.91,5.7-1.18,8.32-2.9,2.4-1.58,5.45-2.13,8-3.46a49.87,49.87,0,0,1,9-3.69c2.2-.64,4.73-1.25,6.31-2.73,3.09-2.89,7-4.18,10.4-6.33,3.71-2.33,8.09-3.56,11.17-6.89,1.76.34,1.19-2.07,3-2.33a9.23,9.23,0,0,0,5.66-3.28,4.17,4.17,0,0,1,3.36-1.4c.49.06,1.25,0,1.26-.45.05-2.08,2.26-2.06,3-3.22.93-1.5,2.83-1.48,3.46-2.41,1.82-2.63,5.25-2.5,7.1-4.85,2.13-2.72,5.09-4.67,7.81-6.56,5.18-3.6,9.36-8.32,14.54-11.84,2-1.39,2.74-4.25,4.69-5.44,2.46-1.5,2.31-4.15,3.8-5.92.58-.68.37-1.77,1-2,1.21-.5,3-1,2.55-2.31-.89-2.46,1.93-1.53,2.3-3.09s.85-3.91,3.43-4a9.23,9.23,0,0,1,4.15-5.22c.26-.17.29-.92.22-1.36-.22-1.24.6-2.09,1-3.11s-.09-2.42.82-3.71c.47-.68,1.63-1.66,1.24-2.94,1.68-.55.12-1.86.69-2.9,1.82-3.38,3.17-7,4.7-10.54,1.15-2.69,1.46-5.76,3.61-8-.3-2,.93-3.58,1.62-5.32s.86-4,1.41-5.92c.3-1,1.11-1.84,1-3.1a15.47,15.47,0,0,1,.21-5.4c.42-1.46-.84-3.13.71-4.39a1.49,1.49,0,0,0,0-1.42c-1.77-1.46-.11-3.89-1.14-5-1.37-1.48-.11-3.27-1.28-4.54a9.91,9.91,0,0,1-2.31-4.5c-.86-4.64-4-7.13-7.46-9.51-.42-.28-.84-.39-.79-1,.23-2.66-2.27-3.41-3.6-5-.27-.32-1.41.06-1.37-.89.12-2.34-1-3.1-3.23-3.31-.68-.06-1.54-1.86-1.71-3-.32-2-3,.34-3.21-2.06-.13-1.21-.83-3-2.77-3.23.28-2.6-2.73-.86-3-2.07-.49-2.52-3.34-1.59-4.14-3.14a9.83,9.83,0,0,0-4.31-4c-2-1-3.12-2.85-4.86-4-1-.66-.22-2.9-2.41-2.46s-1.2-2.23-2.7-2.86c-2.94-1.24-5.22-3.58-7.78-5.46-1.39-1-2.12-2.81-4-3.29a14,14,0,0,1-3.76-1.75c-.91-.55-1.45-2.06-2.84-.79.08-1.93-2-1.72-2.78-2.76a2.53,2.53,0,0,0-2.06-1.1c-2-.09-2.12-.34-4.6-1.92-1.82-1.17-3.21-3.2-5.74-3-.84.06-.83-.79-1.19-1.09-1.48-1.21-2.28-3.75-5-2.92-.6.18-.79-.5-1.2-.71a56.46,56.46,0,0,0-7.1-3.39c-3-1.06-5.46-3.53-8.66-4.4.36-2.74-2.56-.6-3.07-2.06-2,.39-1.46-2.5-2.9-2.37-2.13.2-2.65-1.71-4-2.48s-3.49-.68-4.47-2.5c-.82-1.51-2.45-2.09-3.85-2.77-1.08-.53-1.64-.84-1.81-2.24-.23-1.81-1.22-2.18-3-1.45-1.16.5-2.22.82-3-.28-2.12-2.77-6.06-3.06-8-6A1.3,1.3,0,0,0,743,592c-5.4-.69-8.67-5.43-13.56-7.08-.13-2.91-3.74-1.35-4.48-3.48-6.58-4.1-13.27-8-20.24-11.46-4.57-2.25-9-4.84-13.57-7-2.84-1.37-5.43-3.2-8.79-2.94-.49,0-1,.06-1.3-.46-1.71-3.5-7.38-1.77-8.32-6.29,0-.07-.3-.16-.33-.13-2.41,2.69-2.13-.82-3.13-1.35a19.06,19.06,0,0,0-3.29-1.71c-.8-.24-2.2-.47-2,1.23s-1.19,4.32,1.88,5.16a1.1,1.1,0,0,1,.08.9c-1.29,1.22-.65,1.39.64,1.95.74.31,1.25,1.83,1.31,2.83.09,1.64,1,3,1.37,4.49.31,1.37,1.25,2.5,1.16,4.22-.07,1.39,1.36,2.63,1.71,4.26.24,1.12,1.64,2.36,2.74,3.2,1.58,1.21.29,2.87,0,3.07-2.75,2-5.68,3.7-8.56,5.49-1.83-1.9-2.42.61-2.69,1.17a8.47,8.47,0,0,0-.59,3.39c0,2.65,0,3.58-1.22,5.19-.37.52-1.27,1.12-.81,1.6,1.58,1.68-.19,3.18-.23,4.71s-1.59,3.08.11,4.65a4.48,4.48,0,0,0-.93,5.78c-1.87,1.78-.87,4-1,6.09-.08,2.26-1.43,4.2-1.16,6.59.19,1.65.53,3.42-.48,5.26-.69,1.28.66,3.39-1,4.75-.61.51-.13.78.17,1.06a2,2,0,0,1,.33,2.31c-2.16,4-1.78,8.57-2.8,12.82-.3,1.24-1.36,2.07-1.22,3.56.24,2.52.52,5.23-1.55,7.31-.34.34-.26.38-.08.74,1.49,2.83-.16,5.57-.9,8-1.07,3.52-1.08,7.44-3.36,10.58.3,2.77-1.65,5.24-1,8.07.13.62-.1,1.36.85,1.46,1.54.16,1.49.94.73,1.94-1,1.24-.37,3.28-2.12,4.12.14,2.25-2.46,3.41-2.35,5.48.07,1.46-.77,2.39-1.07,3.6-.26,1.05.53,2.51-.84,3.12-1.57.71-.12,2-.78,2.88-2.31,3.15-3.39,6.94-5.16,10.37a3.21,3.21,0,0,1-2.25,1.85,8.59,8.59,0,0,1-3.17,0c-2.93-.57-5.13-3.45-8.46-2.55-.54-1.19-2.25-.55-2.77-1.77-.88.57-1.39,1.08-2.84.37a67.81,67.81,0,0,0-8.08-3.39c-1.2-.4-1.62,1.1-2.41.62a9.42,9.42,0,0,1-2.14-2.09c-.79-1-1.84-.42-2.76-.61-2.41-.51-4.21-3.43-3.23-5.53.36-.75,1.6-2.18,2.24-1.38,1.55,1.92,2.82.51,3.72-.16a5.05,5.05,0,0,1,4.13-.87c3.28.58,5.59-2,8.55-2.42a2,2,0,0,0,1.24-2.41c-.25-1.08.38-2.22-.52-3.3s.88-1.68.58-2.89c-.42-1.62.36-3.29.45-4.91.08-1.36-1-9.27-.45-10.37.32-.66.45-2.09,2.33-1.06,2.12,1.15,3.17,0,2.5-2.2a2.81,2.81,0,0,1-.28-1.82c.26-1.27,1.85-2.61.46-4.09,1.66-1.57.76-3.06,0-4.66a1.45,1.45,0,0,1,.34-1.81c.59-.44,1-1.21.47-1.67-1.08-1-1.08-1.75-.08-2.88.31-.34-1.64-1.65-.46-2.24,1.72-.86-1.49-2.09.43-2.57.46-2.78.82-5.76-.06-8.28-.56-1.61-.64-2.34.55-3.18,1.73-1.22-.3-3.73,1.75-4.78a5.83,5.83,0,0,1-1.66-.74,1.81,1.81,0,0,1-.21-2.25c1.07-.95.53-2.19.94-3.15.92-2.11-.5-4.73,1.58-6.52.8-.69-.12-.68-.44-.84s-1.13.3-.86-.94c.6-2.74,2-5.41.76-8.45a4.92,4.92,0,0,1,.39-3.76,11.09,11.09,0,0,0,1.37-5.85A23,23,0,0,1,627,600.64Zm283.65-84.86c.51-.65-.42-.7-.41-1.06,0-1.34-1.48-2-1.28-3.51s-.61-2.85-.5-3.95c.16-1.57-1-2.78-.5-4.31s-.94-2.87-.83-4.06c.41-4.63-1.8-8.73-2.28-13.16-.09-.83.22-2.06-.24-2.49a4.42,4.42,0,0,1-1.6-4.37c.23-1.15-.65-1.71-1.11-2.55-1.09-2-3.43-3.5-2.91-6.29.17-.93-.54-1-1.25-1s-1.41.19-1.72-.56c-1.13-2.71-3.91-3.09-6-4.52-4-2.73-9.22-1.83-13-4.91-.1-.08-.32,0-.49,0-2.94.34-5.6-1.2-8.58-1.22-1.73,0-3.44.69-5.17.23-.86-.22-1.78-1.87-2.4-.76-.91,1.65-1.81-1.09-2.68.36-.44.74-1.28-1.14-2.35-.63a4.65,4.65,0,0,1-3.7.12c-1.08-.34-2.37-.17-3.44-.84-1.85,2.05-2.42-.33-3.47-1-.3-.2-.43-.17-.72.19-.64.76-1.45.88-2,0-.74-1.08-1.14.62-2.22,0a13.79,13.79,0,0,0-6.84-1.28,23.29,23.29,0,0,1-5.58-.6c-1.15-.2-1.92-.9-2.8.27-.93-1.54-1.81-.07-2.63.13-1.47.34-2.22-1.36-3.6-1.05-1,.22-1.54-.56-2-1.18a2.05,2.05,0,0,0-2.63-.74c-1.22.69-1.84,1.18-3.32.06-1.21-.91-3.53.59-5-1.09-2.37,2.2-4.46.52-6.45-.62-1.42-.81-2.25-.19-3.51.35-.73.32-1.49-1.7-3-1.92-1.08-.15-1.79,2.22-2.75.31s-2.17.31-3.1-.2c-2.28-1.24-4.31-3.23-7.28-2.16-2.46-1.73-5-2.89-7.84-.83a1.14,1.14,0,0,1-1,0c-4.81-2.62-10-2-15.18-1.91a12,12,0,0,1-4.59-1.06c-.93,1.64-2.94.68-4.32,1.79-.81.66-2.75.87-4.35.75-1.07-.07-2.2,1-3.35,1.44s-1.52,2.39-3.16,2c-2.2-.53-1.13,2.09-2.42,2.42-.29.07-.47.48-.76.58-1.54.55-2.42,1.94-3.28,3.08s-1.42,2.93-3.09,3.61c.85,2.21-2.15,2.82-2,4.66.19,2.06-2.81,2.07-2.52,4.49.14,1.08-2.88,1.36-2.75,3.75,0,.74-2.3.87-2.94,2.62-.41,1.12-2.07,1.91-2.06,3.55-3,1.63-3.57,5.3-6.19,7.45-1.72,1.41-2.42,4.07-5,4.83a1,1,0,0,0-.57.68c0,1.79-.29,3.7-2.13,4.22-2.59.72-1.23,3.47-2.88,4.68a5.86,5.86,0,0,0-1.94,3.13c-.26,1.06-.59,1.37-1.58,1.29-.46,0-1.39-.15-1.3.33.48,2.41-1.91,2.52-2.81,3.79-2.94,4.15-6.16,8.15-9,12.31-3.55,5.18-7.84,9.9-10.66,15.53-.67,1.34-3.5,2.14-1.77,4.47-.93,1.47-2.89,2.16-3.12,4.18,0,.15-.52.25-.81.37l-.86.34c.14.22.26.62.41.63,1.92.12,4.2-.73,5.1,2a.56.56,0,0,0,.46,0c1.87-2.17,1.84,1.59,3.19,1,.62,1.57,2.15,1.7,3.39,2.41,1.07.62,2.31-.94,2.95.59,1.9-.68.75,2.58,2.58,2,1.79,2.77,4.42,3.87,7.59,4.47a11.47,11.47,0,0,1,4.64,2.16c1.41,1,2.87,3.4,5.46,2.4.76-.3,1.1.57,1.57,1,.74.64,1.53,2,2.16,1.87a5.51,5.51,0,0,1,3.94,1.43c1.34,1,3.41.07,4.23,2,.59,1.4,2.2.79,3.1,1.29,3.12,1.74,6.56,2.93,9.29,5.38,1.28,1.15,2.93,1.81,4.31,2.92,2.31,1.87,5.2,3,7.35,5.11,2.25-.31,3.14,1.38,4.07,2.87.23.36.18,1,.69,1.11a26.16,26.16,0,0,1,12,6c2.57-.22,4.36,1.75,6.32,2.78s4.77,1.55,5.69,4.22c3.27.88,5.5,3.51,8.41,5,3.44,1.79,6.84,3.66,10.09,5.76a26.55,26.55,0,0,1,2.81,1.7c.86.7,2.17.66,2.78,1.75s2.13.32,2.6.84c.78.86,2.57.46,2.59,1.73,0,2.67,1.3-.18,2.15.56,1.58,1.36,3.78,2,5.72,2.94.46,2.74,4.06,1.47,4.87,3.82a1.5,1.5,0,0,0,1.1.83c3-.06,4.69,2.43,7,3.6s5,2,6.92,3.77c1.26,1.22,3.17,1.13,4.08,2.15a15.17,15.17,0,0,0,5.27,4.12,2.57,2.57,0,0,1,1.37,1.4c.46,2,3.15,2,3.4,3.48.46,2.69,3.2.77,4.11,2.46.17.32,1.75.87,1.75,1.35,0,2,2.1,1.62,2.91,2.73a15.88,15.88,0,0,0,3.51,3.53c4.7,3.33,9.71,6.25,13.58,10.64.22.25.46.67.71.67,2.08,0,2.38,1.82,3.11,3.16s2.57,1.6,3.54,2.93c1.77,2.42,3,5.53,6.53,6.16.55.1.32,1.21.43,1.24,1.5.33,1.79,1.87,2.8,2.63,1.42,1.07,3.1.72,3.06-.73,0-1.75,1.52-1.91,1.83-2.71.54-1.32,1.24-2.5,1.82-3.75.79-1.74,2.83-1.83,3.49-3.46s1.46-3.4,2.25-5.07c.42-.91,2.51-1.31.81-2.83,1.73-.09,1-1.87,1.56-2.38,1.17-1,1.22-2.63,2.35-3.57-2.08-1.84,1.19-2,1-3.26a2,2,0,0,1,0-1c1-2.43,2.09-4.8,2.94-7.27.48-1.41,2.31-1.85,2.24-3.6,0-.41.93-.58.29-1.45-1-1.32-1.28-2.5.08-4.28a10.17,10.17,0,0,0,1.51-5.34,42.69,42.69,0,0,1,2.9-12.76c.19-.49,1.4-.51.63-1.42-1.5-1.76-.39-3,.9-4.12.78-.7.65-1.39-.08-2.06a1.22,1.22,0,0,1-.17-1.71c.66-1.21,2.32-2.62,1.57-3.67-1.26-1.74,1-2.79.24-4.31a2.14,2.14,0,0,1,.78-2.63c.71-.55,1.92-1.37.82-2.34-1.42-1.26,1.38-1.84.26-2.8s-.86-1.54-.22-2.84c1.34-2.68,1.6-11,1.34-14.13a44.49,44.49,0,0,1,0-8.48c.16-1.5,3-2.86,0-4.4.16-.23.34-.46.48-.71.78-1.38.47-2.9.36-4.32a9.57,9.57,0,0,1,1.61-6.61c.25-.34.47-.66.19-.69-2.64-.3-2-2.49-1.6-3.66s.77-1.46-.2-2.22c-.34-.27-1.23-.49-.49-1.41,1.14-1.42.85-3.33.44-4.73-1-3.36-.85-6.73-.9-10.12,0-.16.07-.41,0-.49-1.86-1.78-1.17-4.15-.85-6.07C911.49,519.5,909.25,517.78,910.65,515.78ZM432,803.56c0,.67-.09,1.33.86,1.45a2.1,2.1,0,0,1,2.1,2.23,5.25,5.25,0,0,0,1.55,3.9c.94,1.15.7,3,2.17,4.09s1.93,3.17,3.85,3.8c.31,2.48,2.85,2.72,4.19,4.18a23.08,23.08,0,0,0,7.59,5.8c1.5.66-.51,1.09-.16,1.62.47.7,1.4.6,2.1,1,2.32,1.27,2.55,1.1,3.68,3.37.36.72.59,1,1.31,1,1.27,0,.22,2.41,2.1,2,2.38-.49,1.35,1.56,1.77,2.54.1.22.52.31.81.43,1,.43,2.72-1.12,3.11,1.2.31,1.84,2.18.38,3.29,1.4,1.76,1.63,4.34,2.28,6.49,3.48a58.7,58.7,0,0,1,6.74,4.17c1.16.88,2.9,0,3.38,1.34a3.61,3.61,0,0,0,3.52,2.33c1.48.11,2.4,1.62,4.1,1.14s2.23,2.32,4.09,2.08c.47,1.79,2.81-.22,3.45,1.92.86,2.9,2.07-.73,3.41-.15s2.91.76,3.4,2,.65,1,1.42.34c.55-.49,1.19-.27,1.69.29,2,2.22,4.92,2.13,7.48,2.36,2.25.2,4.79.09,6.47,1.27,2.08,1.48,4.56-.13,6.4,1.62.47.45,1.58.15,2.29.44,1.16.46,2.52,1,2.74.79,1.1-1.2,2.12-1.43,3.18,0a5.14,5.14,0,0,0,1,.85c1.63-2.17,3.54.58,4.62,0,1.45-.85,2.21.23,3.27.21,1.44,0,3.22-.72,4.29.37,1.56,1.59,2.24-.61,3.38-.42.54.09.89.35.83,1s.24,1.16.65.81c2.14-1.92,5.08.16,7.38-1.65.74-.58,2.74,0,4.17.3a14.32,14.32,0,0,0,4.5.64c.93-.12,1.36-.77,2.06-1.1,1-.46,1.24,1.63,2.38.46.59-.6,1.55.71,2.57-.33.75-.75,1.78.89,2.89,1.19a1.88,1.88,0,0,0,1.85-.13c1.19-.67,3,.49,4-1.13,1.07,1.79,2.43.17,3.09-.16,1.5-.76,2.4,1.89,3.87.34.29-.3,1.51,1.62,2.29.48,1.41-2.08,3.4-1.7,5.34-1.68,2.42,0,4.58-1,6.89-1.5a21.43,21.43,0,0,1,5.95-.52c.33,0,.67,0,1,0,1.59.17,1-2.16,1.53-1.88,1.05.56,1.77,1.51,2.83.12.6-.79,1.62-1,2.34-1.51.93-.66,1.3-.53,1.84.2,1,1.41,2,1.35,3.14,0,.94-1.08,1.82-2.2,3.68-2.08.84,0,2.53-1.6,1.54-2.33-1.55-1.15-2.07-3.32-3.76-3.87s-1.84-2.17-3.28-2.74c-1.64-.65-2.56-1.91-.94-3.62a2.13,2.13,0,0,0-.34-.33c-2.54-1.73-2.58-5-4.47-7.16-1.06-1.2-2.57-2.38-2.85-3.78a5.5,5.5,0,0,0-1.89-3.24c-.88-.78.82-2.79-1.64-3-.71-.05-1.22-2-2.09-3-.46-.49.71-2.15-1.2-2-.76-2.68-3.25-4.37-4.22-6.75-1.57-3.87-4-7.32-5.19-11.36-.43-1.42-1.61-2.51-2.16-4.11-.67-1.94-1.1-4.14-2.47-6-1.25-1.68-2-3.84-3-5.69s-1.63-3.71-2.52-5.45-2.09-3.46-3.09-5.23A3.34,3.34,0,0,1,592,780c.28-1.88-.74-3.34-1.41-4.93-.84-2-2.64-3.67-2.55-5.92.12-2.93-1.46-5.08-2.78-7.37-1.71-3-4.13-5.68-5.15-8.86-2-6.33-6.42-11.73-7.21-18.52-2.88-.24-1.51-2.64-2.07-4.06-.05-.14-.28-.21-.34-.36-1.76-4.11-3-8.41-4.49-12.63-1-2.81-2.09-5.61-2-8.67-2.82-1.9-1.41-5.78-3.71-8a2.4,2.4,0,0,1-.26-1.85c.82-4.79-2.37-8.91-2.25-13.58-1.79-1.14.18-3.57-1.74-4.81-2.14-1.37-.69-3.06,0-4.63a.48.48,0,0,0-.1-.43c-1.2-.55-.57-2.25-1.77-2.79,1-1.07,1.18-1.9,0-3.21-.6-.67,1.13-2.29-.06-3.62-.29-.33-.15-1.2.4-1.78,1.42-1.5.52-2.69-.69-3.74-.54-.47-.55-.69-.18-1.46,1.2-2.46-.32-5.41,1.31-8,.4-.61-1.62-1.76-.16-3.28.68-.7.42-2.55.22-3.82-.23-1.45,1.49-2.12,1.09-3.6-.27-1-.86-2-1.69-1.89-1.61.19-2.92,2.24-4.84.76-1.18,2.25-3.66,1.61-5.46,2.49-.45.22-1,.52-1,0,0-1.73-.36-1.23-1.55-.65a15.25,15.25,0,0,0-2.37,1.53c-.74.55-1.6.95-2.4,1.43a1.11,1.11,0,0,1-1.68-.26c-.25-.37-.15-1.18-.4-1.28-.58-.22-.5.41-.68.81-.89,2-2.83,3.16-4.29,4.7-.45.47-.7-.26-.67-.72,0-1-.85-1.32-1.23-1-1.57,1.42-3.4.82-5.14.94-.63,0-1.58-.14-1.59.66,0,2.15-1.57,1.1-2.49,1.35s-1.5-.41-2.08-1a2.3,2.3,0,0,1-2.59,1c-1.53-.22-2,.41-1.93,1.92,0,1.69-1.07.22-1.26.33-2.87,1.66-6.82-.28-9.27,2.74a1,1,0,0,1-.93,0c-1.49-1.66-2.72.82-4.18.28-.22-.09-.83.86-1.26,1.33,1.11,1,1.19,1.47-.53,1.45-2.75,0-5.7-.61-7.51,2.42a1.41,1.41,0,0,1-1.23.53c-1.91-.52-3.32,1-5.08,1.19-1.16.14-2.13,1.55-3.2-.14a2,2,0,0,1-1.78.44c-1.6-.12-.58,1.07-.06,1.72s-.21.84-.49.8c-4.3-.53-7,2.55-10.12,4.55a22.4,22.4,0,0,1-3.33,1.65c-2.11.91-5.27.81-5.78,4.21-.16,1-1.59.85-2.09.56-1.67-1-2.68-.66-2.81,1.21-.11,1.51-.61,2.43-2.07,2.86a2.33,2.33,0,0,0-2,2.39c0,1.09-2.34.09-1.57,1.4,1.32,2.26-1.68.39-1.49,1.87.59,4.55-3,8.25-2.93,12.75-1.72.67.81,3.05-1.47,3.6-.72.17-.41,1.12-.55,1.73-.48,2.13-.7,4.41-1.67,6.3a12.56,12.56,0,0,0-1.32,6.46,29.19,29.19,0,0,1,0,3.5c-.07.88-1.29,1.69-.11,2.62-1.26.78-.82,2-.86,3.14s.45,2.67-.1,3.44c-1.55,2.15-.19,4.63-1,6.6-1,2.4-.67,4.75-.92,7.13a80.19,80.19,0,0,1-1.44,9.91c-.32,1.36,1.26,2.3.43,3.32-1.43,1.75-.79,3.72-1,5.61-.11,1.25.53,2.7-.9,3.63,1.22,1.14.84,2.64.92,4a10.85,10.85,0,0,1-.91,4.63c-.62,1.62,1.48,3.15.92,5-.36,1.23.54,2.67-.47,3.8s1.67,2-.08,3.18c-1.11.72.75,1,.59,1.87s-1.49,1.4-1.07,2.58c.1.29-.1.79.07,1,1.1,1.09.55,2.6.77,3.82.3,1.71,1.27,3.54,1,5S434,802.18,432,803.56ZM747,437.14a18.87,18.87,0,0,0,0,2c0,.36.19,1.22.75.54,1.22-1.5,3.22.12,4.5-1.34a1.7,1.7,0,0,1,2.59.12c1.19,2.14,2.75.69,4,.44a11.87,11.87,0,0,1,3.2-.06c1.66.09,3.21,1.74,4.49,1,3.79-2.16,7,.6,10.52.69,1.05,1.47,2.22-.85,2.69-.18,1.3,1.86,3.31,1.11,4.81,1.78,2.37,1.05,5.05.05,7,1.13,2.23,1.24,4.92-.2,6.79,1.74,2.5-.66,4.58,1.6,7.08,1,1.21-.28,2.44,1.6,3.66,0,1.32,1.31,3,1.08,4.61,1.44s2.84.66,4.5,0c1.46-.58,2,2.48,4,1.56,1.29-.6,2.32,1.56,3,.91,2-1.86,3.51-.15,5.25.05,2.21.26,4.37.12,6.64.81,1.72.53,4.05,2,6.1.22,2.53,2.15,6-.05,8.57,1.78.68-1.25,2.23.84,2.83-.73,1.07,1.59,2.71.73,4.1.95s2.69-.59,3.66.81c1.17-1.1,2.62-.81,4-.8.8,0,1.92-.17,2.35.27,1.16,1.2,2.49.52,3.73.72s1.73-.44,1.62-1.68c-.32-3.53.53-7.09-.9-10.62-.64-1.57,0-3.64-.16-5.45-.17-1.58-2.15-3.1,0-4.69-.22-.19-.44-.55-.65-.53-1.71.11-1.3-1.13-1.28-2,.11-3.55.09-7-1.9-10.23-.44-.7-.49-1.81-1.29-2.43a2,2,0,0,1-.52-3c1.13-1.27.7-2-.29-2.83-.62-.54-1.58-1.41-.89-2,1.24-1,.2-1.53-.11-2.27-.61-1.46-1.3-2.87-1-4.58.16-1.09.37-2.36-.9-3.11.61-1.74-.85-3-1.25-4.5s-1.15-3.05-1.35-4.35a13.41,13.41,0,0,0-1.3-4.2,24.23,24.23,0,0,0-2.14-4.1c-.16-.22.08-.7,0-1-1.45-3.41-1.47-7.54-5-9.93.2-2.33-2.6-2.63-3.11-4.72-.47-1.88-2.45-3.43-2.77-5.3-.59-3.5-3.8-5.32-4.74-8.48-1.92-.09-1.43-2.78-3.17-3-2.4-.28-.18-3.2-2.17-3.81-.11,0-.73-1.26-1.21-1.89-2.29-3-4.68-6-6.76-9.2-.64-1-1.6-1.49-2.16-2.21-1.56-2-4-2.92-5.26-5.5s-4.49-3.24-7.11-4.21c-.58-.21-1.82,1.7-2.68.1-1-1.93-3.22-1-4.67-2.18-1.06-.87-3.23.59-4.54-1-1.5,1.33-3.87.11-4.88,1-1.25,1.1-3.95-.26-4,2.51,0,.53-.85.33-1.32.32a6.71,6.71,0,0,0-5.42,2.54,9.39,9.39,0,0,1-3.17,2.07c-1.27.63-2.63.63-3.58,2.33-.68,1.22-2.62,2-3.23,3.59a4.69,4.69,0,0,1-.74,1.71c-.87,1-2.87.81-2.79,2.74-2.86-.32-.77,2.64-2.36,3.5-1.95,1-1.53,4.38-4.17,5.11.26,1.36-1.44,2-1.13,3.61.19,1-2.06,1-2.07,3.05,0,2.31-1.71,4.62-3.22,6.55-.94,1.21,0,2.93-1.66,3.87-2.11,1.21-2.55,3.7-2.78,5.77S754.51,373,755,375c.55,2.3-2.22,3-2.55,5a11.26,11.26,0,0,0-.06,2.07c0,1,.38,2,0,3.21-1.07,3.41-2.35,6.85-1.45,10.61a5.83,5.83,0,0,1-.25,3.84c-1.39,2.49,0,5.46-1.69,7.81-.94,1.31,2.34,1.85.62,3.43-1.26,1.17-.42,2.81-.61,4.23-.1.81.25,1.94-.17,2.4-2.05,2.26-.56,5-1.13,7.51a20.5,20.5,0,0,0-.77,7.42,3.8,3.8,0,0,0,1,2.06C747,435.15,746.94,436.13,747,437.14ZM333,717.48c-.43,3.6,1.78,6.95,1,10.59,1.25,1,.5,2.86,1.49,3.86,2.22,2.27,2.82,5.17,3.5,8.07.25,1.06,1.18,1.77,1.11,3.08a5,5,0,0,0,1.41,2.86,8.6,8.6,0,0,1,1.78,2.78c.36,1.17,1.86,1.08,2.7,1.79-2.07,1.61.22,1.26.76,1.78a10.56,10.56,0,0,1,2.21,2.58,8.83,8.83,0,0,0,4,4.08c2.35,1.15,3.41,3.91,6.07,4.59,2.4,4.46,6.72,7.16,9.93,10.88,1.17,1.34,2.63,3,4,3.37a7.1,7.1,0,0,1,3.9,2.63c1.11,1.49,3.7,1,4,2.12,1.06,3.65,6.17,2.67,6.79,6.46,2.51-.53,3.24,1.86,4.82,2.87.6.39,1.31.17,1.63,1.29.57,2,1.11-.78,2-.2,1.3.85,2.95,1.19,3.85,2.59.08.11-.87.89-.8,1a1,1,0,0,0,1.64.16c.86-.94,1.51-.91,2.46,0s1.47,2.33,3,2.31c2.38,0,3.75,1.57,5.29,3,.32.31.54,1.47,1.37.6a1.34,1.34,0,0,1,2.39.28c.74,1.29,2.26.18,2.4.5.48,1.07.55,2.18,1.88.72,2.4,2.9,6,3.14,9.24,4.24.35.12.53,1.12,1,.29a1.86,1.86,0,0,0-.08-1.32c-4.1-12.22-4-10.67-3.7-18.94.17-4.55-1.1-9.2.74-13.67.07-.16-.15-.59-.34-.68-2.51-1.28-.56-3.27-.29-4.46,1-4.29,1.2-4.24-.65-7.51-.13-.23-.38-.61-.31-.69.55-.62,1.64-1.21,1.62-1.78,0-.74-1.57-1.38-.44-2.4a2.62,2.62,0,0,0,.51-3.17c-1.5-1.75,1.62-4-.8-5.38.18-.2.38-.58.56-.57,1.11.07,1.4-.45,1.36-1.48a26.65,26.65,0,0,0-.09-4.48c-.3-1.31,1.76-2.41.16-3.66,1.54-1.09.35-2.91,1-4.07.94-1.73-.78-3.47,0-4.65,1.49-2.2,1.17-4.6.71-6.61-.39-1.71-.57-2.62,1.13-3,1.18-.29,1.17-.83.9-1.71a12.05,12.05,0,0,1,1.45-10.21c.74-1.19,2.63-2.67.19-4.15-.39-.23-.47-.68-.25-.68,2.72,0,1.08-3.06,2.75-3.82a1.81,1.81,0,0,0,.95-2.51c-.95-1.4-.56-2.17.59-3a13.39,13.39,0,0,0,1.42-1.4c-1.45-.63.17-1.73-.37-2.47-.28-.38-.52-.53-.14-1.1s2.21-.84.95-2.07c-1.5-1.44.78-1.87.65-2.95-.08-.6-.37-1.06-.83-.93-1.42.41-2.8-1.67-4.19,0-2.66-.82-5.6-1.19-7.88-2.62-1.62-1-2.28-1.12-3.27.27-.3.43-.67.47-.68,0,0-1.62-1-1.81-2.27-1.64-2.28.33-4.27-.1-5.59-2.19-.67-1.06-1.72-.91-2.66-.79-3.33.46-6.34-.83-9.11-2.16a16.56,16.56,0,0,0-7.74-1.88c-1.48,0-3.78.5-4.28-.22-1.34-1.94-2.41.31-3.68-.28-2.6-1.21-5.52-.23-8.29-.48-1.2,2-3.9,0-5.14,1.92-1.78-2.42-3.46.23-5.21.1-3.31-.23-6.68-.49-8.77,3,0,.07-.32,0-.48,0-2.6.57-4,2.94-6.3,4.08-2.09,1-4.45,1.83-5.74,4.31-.59,1.14-2.64,1.19-3.12,3.16-.34,1.39-1.91,2.44-2.78,3.74a27.52,27.52,0,0,0-4.13,8.29c-.6,2.31-4,3.84-1.95,6.92a1.72,1.72,0,0,1-.7.48c-1.46.14-1.73.9-.82,1.88.72.76-.2,1.11-.14,1.43.2,1.12-2.07,1.94-.36,3.13C332.6,714.54,333.09,716.08,333,717.48Zm270-122.2v1.77c0,1.7,0,1.7,2.42,2,2.67.28,3.85,0,5.22-1.11.85-.69,1.25-2,2.71-1.91a4.14,4.14,0,0,0,3.2-.81c.47-.39,1.92-1.83,3-.24,1.79-2.4,3.76-2.36,6.34-1,1.18.59.69-.41.37-1.23-.38-1,.91-.78,1.2-.59.64.41,1,1.28,1.81.15.57-.83,1.67-1,2.35-1.49,1.55-1.22,2.2-1.14,2.51.87.08.58.87.5,1.29.37s.51-.64,0-1-.35-.88.14-1a48.92,48.92,0,0,0,13.19-4.36c.42-.2.6-.74,1.23-.68,4.41.36,7.72-3.79,12.25-3,.22,0,.6-.29.75-.54.94-1.51,2.41-1.54,3.91-1.41.63.05.87-.38,1.22-.7.67-.6,1.3-1.22-.3-1.32-1-.06-1.15-1.08-.82-1.36,1.75-1.52.45-2.32-.38-3.61a9.56,9.56,0,0,1-1.57-4.79,10.26,10.26,0,0,0-2.26-5.55c-1.3-1.89,0-4.28-1.8-5.83-.29-.25-.35-.82-.92-.86-1.63-.11-.31-1.18-.38-1.27-1.06-1.43-.72-3-.73-4.57,0-.55-.21-1.19-.64-1.11-1.92.32-1.08-1.68-2-2.25a2.32,2.32,0,0,1-1.39-2.4c.42-2.63-1.51.07-1.79-.75s0-1.93-.43-2.27c-1.46-1.1-1.3-2.94-2.17-4.11-1.07-1.42-1.64-3.07-2.65-4.42a32.82,32.82,0,0,1-2.61-4.93c-.87-1.67-2.7-2.6-3.62-4.49-.74-1.49-.94-3.49-2.84-4.49-1.7-.89-1.79-3.1-2.74-4.64a10.8,10.8,0,0,0-1.65-2.28c-2.37-2.2-3.77-5.08-5.44-7.76-.31-.5-.12-1.51-1-1.22-2.06.65-1.88-1.21-2.56-2.11s-.7-2.62-2.21-2.91a6.73,6.73,0,0,1-5-3.44c-1-2.13-3.33-2.58-4.36-4.59-.64-1.26-2.19-2.1-3.43-3-1.51-1.08-1.58-3.18-3.15-4.22a10.77,10.77,0,0,0-1.66-.84c-2.81-1.25-5.31-3.05-8.2-4.31-3.62-1.58-7-3.86-10.76-5.4a45.41,45.41,0,0,0-6.59-2.18,4.65,4.65,0,0,0-4.1.92c-.44.36-.82-.35-1.19-.65-.82-.65-.93.85-1.38.55-.67-.44-1.41-1.44-2-.67-1.14,1.4-2.63,1.65-4.16,2.14-.67.22-1.79,1-.4,2.1.38.29.52,1.14.68,1.68.72,2.51,1,4.81-1.17,7.17-3,3.28-7.44,4-10.79,6.64-1.39-1.8-3.34,1.46-4.89-.64-.87-1.19-1.81-2.59-3.47-3-.16,1.85-2.13,2.46-2.74,3.86-.69,1.59-1,3.33-2.45,4.5a.94.94,0,0,0,.09.91c1.61,1.32-.69,2.34-.22,3.77s.19,3.3.07,5c-.05.74-1.39,1.18-.92,2.06a12.32,12.32,0,0,0,1.93,2.18c-1.08.86-1.33,1.6-.23,2.82.78.86.76,2.44,1.53,3.3s.31,1.26-.24,1.84-1.46.79-.33,1.8c.92.82,2.28,1.45,2.3,3a5.77,5.77,0,0,0,2,4.17c-1.9,2.23.93,2.49,1.63,3.47s-.72,1-.38,1.86c1.46,3.56,2.33,7.35,3.57,11a45.43,45.43,0,0,1,1.52,5.9c.35,1.77,1.64,3.38,1.65,5.28,0,2.31,2.26,3,3.27,4.54,1.88,2.9,1.72,6.83,4.75,9.07.08,0,.08.39,0,.47-1.68,1.65.06,2.36.89,3.31,1.4,1.62,2.52,3.4,2.08,5.62-.34,1.75,1,3,1.11,4.56s3.36,2.64,1.06,4.85c0,0,.31.54.51.56.65.08,1.44,0,1.35.95-.48,4.89,4.13,8.07,4.21,12.76,0,.11.22.28.36.31,1.91.38,2.35,2.07,2.34,3.44,0,2,3,2.45,2.13,4.68-.07.19.31.79.38.77.54-.12.4-.8.63-1,1.41-1.46-.13-2.81-.1-4.2.14-6.83-.31-13.69.25-20.48.21-2.65-3-5.12-.2-7.68-.26-.16-.52-.45-.79-.47-.76,0-1.57-.43-1.14-1.08,1.29-2-.64-3.76-.15-5.72.25-1,1.59-1.52,1-2.54-.45-.85-1-1.26,0-2.27.66-.66-1.35-1.91-.12-3.1.11-.1-.84-.2-1.28-.34a.75.75,0,0,1-.31-.65c.81-1.64-.69-3.09-.28-4.77s-.27-3.63-.41-5.43c-.06-.75-1-2,.27-2.82-1.29-.79-.67-2.07-.79-3.16-.15-1.25.44-2.66-.94-3.64a1,1,0,0,1,.24-1.32c.71-.58,1.06-1.2.33-2.06a3,3,0,0,1-.13-4c1.26-1.32,3-2.86,4.66-3,3.06-.21,5.91-1.81,9.08-1.2a3.84,3.84,0,0,0,3.21-.73c.78-.58,2.27-.32,3.33-.94,1,1.55,2.6-1.82,3.47.47a5.09,5.09,0,0,1,3.49-.77c.51,0,1.17.07,1.21.55.19,1.94,2.16,3.11,2.06,5.17a37.25,37.25,0,0,0,0,5.49c.17,1.72-.87,3.67.81,5.15-1,1.54-1.5,3.16-.22,4.75,1.53,1.92-1,3.17-.68,4.95a3.39,3.39,0,0,1-.86,3.54c2.68,4.75-.84,9.46-.09,14.2-1.4,2.21-1,4.68-1,7.08a3.28,3.28,0,0,1-1.36,3c-1,.82-.9,1.6,0,2.43a9.61,9.61,0,0,1,1.13,1.4c-1.83.5.54,1.56-.39,2.56-1.13,1.22.12,3.35-.56,4.7A9.2,9.2,0,0,0,603,595.28Zm23,86.83c-.28,1.5.39,2.28,1.86,1.84.94-.28,1.19,1.82,2.36.41.66-.8,1,.83,1.92.72s1.64.78,2.45,1.18c1.25.62,2.5,1.2,3.78,1.77,2.45,1.08,3,.83,2.92-2.13,0-.57.25-.71.35-1.06.8-2.67,1.06-5.67,2.5-7.93,1.29-2,.14-4.14,1.33-6,.6-.92,2.06-2,.53-3.43,1.69-.91.37-3.24,2-4.18-.47-4.88,1.83-9.35,2.11-14.15.14-2.51,1.18-5,.89-7.59,1.77-1.41.66-3.39,1-5.07s1.29-3.23,1-5.1c-.74-4.75,1.6-9.32,1-14.06-.15-1.15.84-1.65,1.14-2.55.43-1.25-1.12-1.55-.64-2.92a61.17,61.17,0,0,0,2.31-9c.76-4.2,1.42-8.31,3-12.29.6-1.47.6-3.29-1.13-4.36a1.51,1.51,0,0,0-1.31-.05c-.84.55.18.7.34,1,1.6,3.27-3.91.55-2.9,3.44.13.38-.82.41-1.27.32a.94.94,0,0,1-.52-.71c-.07-.71-.13-1.28-1.07-1.26s-.69,1.08-1,1.28c-2.06,1.32-4.23,2.45-6.38,3.63-.07,0-.23-.16-.35-.16-4.07.06-6.22.71-7.93,2.48-.48.49-1.18,1.18-1.64.73-1.67-1.6-3.08.6-4.74.14-1.1-.31-1.28,1.17-.64,1.59,2.13,1.37,1.42,3.44,1.79,5.32.41,2.11-2.52,4.62.76,6.34a.41.41,0,0,1,0,.34c-2.15,1.85.47,4.87-1.69,6.85-.45.41-.16,1.69.44,2.68.73,1.19-1.38,1.4-1.55,2.47-.07.49-.23,1.23,0,1.46,2.48,2.36-.46,5.35,1,7.79a6.2,6.2,0,0,0-.93,5.07c.32,1.62-2.41,3-.2,4.63-2.09,2.59.25,6.09-1.81,8.76-.4.52-.18,1.64,0,2.45.22,1.21,1.79,2.36.9,3.53s-1.27,2.12,0,3.2c-2.75,3.38-.2,7.22-.92,10.78-.28,1.37.34,2.78-.84,4.19-.66.79-.71,3.1-.06,3.77C627.64,679.88,625.3,680.87,626,682.11ZM603,534.7v-1c0-2.79-.49-3.45-3.08-2.5-1.38.5-2.57-.51-3.15-.06-1.67,1.28-3.49,1.08-5.14.81-2-.32-3.17,1.45-5.11,1.19-1.5-.2-3.4-.9-4.68.61a3.25,3.25,0,0,0,.11,4.74c-2.83,2.47,2.19,5.73-.82,8.18a2.38,2.38,0,0,0,.36.35c.42.27,2.11-.49.94,1-.83,1.08,1.15,1.31.54,1.88-2.22,2.07,1.68,4.79-.83,6.74,1.4,1,.87,2.4.81,3.64s1.71,2.44,0,3.67c1.61,2.18.62,4.74,1.07,7.07.34,1.76-1.67,4.38,1.65,5.23.35.09.2.38-.14.7-1.14,1.08-.5,2.5-.53,3.75,0,1.08-.69,2.51.47,3.25,1.79,1.13-.67,1.91,0,3.22,1.27,2.55,0,5.71,1.47,8.38.68,1.21-1.68,1.79-1,3.05,1,1.62-.68,3.51.1,4.6,1.33,1.87-.37,3.15-.24,4.77.32,3.8.67,7.75-1.85,11.18-.32.44-.18,1.18-.39,1.82-.44,1.33.3,3.48-1.34,3.92-2.36.63-.59,3.51-2.68,4-1.65.39-.93,3.23-3.13,3.11-.28,1.85-1.61,3.41-1.48,5.37,0,.14.16.28.27.39a.38.38,0,0,0,.66-.25c0-.92.15-1.7,1.32-1.5.67.11,1.09-1.84,1.64-.34.29.78.86,1.31,1.09,2.05,0,.15,0,.35,0,.49a7.21,7.21,0,0,0,.5.77c.16-.27.45-.52.47-.8.06-.83-.05-1.67,0-2.5.25-2.62,3-3.94,4.86-2.09.67.66.31,1.75,1.55.52,1.56-1.57,2.38-4,5.15-4.24.84-.06.42-2.16,1-1.65,2.58,2.33,2.52-.72,3.14-1.54,1.64-2.16,2-4.71.25-7-.91-1.19-.7-2.4-1-3.62-.6-2.55,1.47-4.64,1-7.09-.31-1.73.33-3.43-.5-5.29-.46-1,1.29-2.77,1.86-4.33a6,6,0,0,0,.15-4.5c-.49-1.45,1.25-2.53,1.49-4,0-.15,0-.39-.06-.47-1.85-1.62-.69-3.74-.88-5.62s-.83-4.61.14-5.84c1.3-1.65-.31-3,.61-4.52s.07-3.66,1.08-5.53c.63-1.16.22-3,.09-4.44-.1-1.06,1.44-2,.15-3.12,1.31-.83-.22-2.19.74-3.42.72-.93,0-2.89.17-4.38.13-1.25-.19-2.43.51-3.79a8.6,8.6,0,0,0,0-6.63c-.19-.57-1-1.32-.48-1.67,1.55-1.12,0-2.77.21-3.06C603.42,537.2,602.8,535.89,603,534.7ZM550.47,552c-.48.32-.69,1-.43,1.26,1.16,1,1,2.35,1,3.63,0,1.5-.61,3.53.13,4.38,1.41,1.62-.68,2.51-.18,3.8.39,1-.43,2.34.82,3.17-1.11,1.42,1,2.93.16,4-1.42,1.83-.83,3.76-.9,5.64-.12,3.16.05,6.33-.07,9.49-.05,1.24.69,2.69-.61,3.73-1.72,1.38,1.91,2.26.29,3.82-1,.95.84,2.06.39,3.3-.31.88-.18,1.84-.45,2.8-.62,2.25-1.85,4.46-1.54,6.85.5,3.81-1.25,6.92-3.86,13.42-.11.29-.28.77-.16.9,1.56,1.64-.44,2.63-.66,3.93a7.62,7.62,0,0,1-2.23,4.47c1.92.48-.45,1.55.37,2.55,1,1.22-2.46.53-1.53,2.34,0,.05-.2.25-.34.34-.85.57-.29.93.13,1.44s.86.2,1.45.12c1.6-.24,2.73-2.58,3.36-2.12,2.8,2.08,3.94-.26,5.22-1.69,1.14-1.27,2.05-1.27,3.48-.67,1,.42,1.35-.27,1.85-1.42,1.36-3.12,1.64-7.07,5.5-8.64.27-2.06,3-3,2.42-5.52-.21-.89.57-2,.59-2.66.06-2.2,1.32-4.08.61-6.65-.76-2.73-1-6.14.76-9,.06-.11,0-3,0-3.17.21-1.31-1.77-2.93.55-3.94a1.16,1.16,0,0,0,.34-.34,5.5,5.5,0,0,1-1-6.2s-.21-.24-.33-.34c-1.88-1.54-2.11-3.82-2.49-5.95-.21-1.17,0-2.23-1.69-2.28-.56,0-.5-1.16-.34-1.25,1.77-1-.25-1.83,0-2.72a2.2,2.2,0,0,0-1.18-2.49c-1.1-.66-.69-2.06-1.7-2.85s1.13-1.41.52-2.34c-.45-.67-1.49-1.18-1.55-1.83a3.41,3.41,0,0,0-1.64-2.33c-1-.87,1.1-1.43.23-1.72-1.25-.43-1.43-1-1.81-2.24-.55-1.73-2-3.17-3-4.72A1.72,1.72,0,0,0,550.47,552Zm76.59,167c1.16-.7,2.37-1.8,3.64,0a1,1,0,0,0,.89-.12c.77-1,2.41-1.49,2.38-3-.07-3,2.36-5,3.1-7.74a31.55,31.55,0,0,1,3.13-7.68c.85-1.45,1.27-3.09.52-4-1.13-1.41-2.09-3.51-4.5-3.43-1.41,0-1.77-1.34-2.68-2-1.11,1.73-2.45.19-3.06-.22-3.09-2.05-3-2.08-6.24-2.17-.46,0-.78-.63-1.45,0a2.21,2.21,0,0,0-.49,3.05,2,2,0,0,1,.15,2.49c-.85,2-.4,4.35-1.39,6.37,2.13,1-.44,2.84.8,4.39,1,1.32-1.13,3.07-1,5a1.68,1.68,0,0,1-2.87,1.38c-2-1.74-3.93,2.49-5.57-.27-.5.7-1.3.81-2,1.14-.41.19-1.74.59-1.05,1.67.56.88,1.28,1.49,2.14.17.09-.16.9-.1.92,0,.93,3.4,3.68,1.58,5.63,2,.92.18,2.07-.27,2,1.4,0,.42.4.65,1,.19.78-.65,1.43-2.44,2.66-1.24.74.73,2.57.06,2.38,1.89C626,718.7,626.36,719.12,627.06,719ZM570,613.24c0,1.6,1.16,2.53,2.46,1.66a19.67,19.67,0,0,0,2.45-1.32c.85-.78,1.87-1.59.43-2.74-.65-.52-.09-1.3-.36-1.84-1.22-2.48-1.4-5.46-3.81-7.38-1.42-1.13-.83.44-1.21.66-1.48.87.68,2.58-.91,3.27,1.62,1,.28,3,1.12,4C571.5,611.05,569,612,570,613.24Z"/><path d="M519.92,441.17c1.09-.85.25-3.07,2.24-3.14,1.75-.06,3.1-1.7,5-1.07,1,.3,1.72.09,1.92-1.4.14-1,1.66-.7,2.52-.37s.45,2.64-.41,2.69c-1.66.07-.9,1.51-1.6,2-1.4,1-1.86,2-.11,3.15.27.18.44.51.71.69,1.14.74.32,1.2-.2,1.77s-1.72.58-2.46,1.32c-.56.56-1.56.32-1.57-.89,0-1-.7-.95-1.36-.92-2.88.13-2.84.13-3.66-2.25A7.8,7.8,0,0,0,519.92,441.17Z"/><path class="c" d="M325,402c-.87-.13-1.69-1.37-2.62-.12-.67-.59-.28-2.9-2-1.64-2,1.47-1.86-1.2-2.87-1.19-1.43,0-1.84-1.26-2.79-1.79a3.66,3.66,0,0,0-1.88-.24c-.87,0-1.79,0-2.12-.87-.71-1.84-2.1-2.87-3.6-4-.49-.36-.66-1.22-1.62-1.15-.47,0-1.05.21-1.34-.36-1.75-3.41-5-5-8.22-6.53-1.19-.55-.57-2.71-2.52-2.24-.41.1-.49-.82-.37-1.26a.91.91,0,0,1,1.17-.59c1.51.37,3.46.34,4.4,1.29,1.66,1.67,3.78,2.29,5.58,3.51a33.56,33.56,0,0,1,5,3.72,5.81,5.81,0,0,0,4.84,1.5c1-.14,1.21-1.06.89-1.31-1.08-.85-2-1.33-2.13-3.14-.06-1.2-2.43-.69-3.73-1.38s-2.39-.38-2.14-2.3c.14-1.06-.49-.84-1.09-.28s-1.39.67-1.87-.38-.24-2.95-2.33-1.47c-.49.35-.61-.32-.68-.79-.13-1,.56-2.23-.39-2.77-.77-.43-1.92-.16-2.91-.21-.58,0-1.41.25-1.55-.58-.08-.44,1.77-1.11-.12-1.39-1-.14-1.26-1-1.91-1.44-1.8-1.26-2.58-4-5.52-3.62-.15,0-.58-.48-.55-.67.49-2.66-2.15-3-3.41-3.9a43,43,0,0,1-3.71-3c-.61-.54-1.38-1.19-.72-2s1.46-.36,2,.35c.89,1.15,2.28,1.46,3.48,2.09,1.54-1.67,1.06.21,1.43.78.64,1,2.22-.21,2.58.75.24.63-1.27,2,.91,1.67,1.63-.2,2.21,1.33,3,2.23s2.11.63,2.88,1.68a5.69,5.69,0,0,0,2.57,2.15c2.54,1,3.22,4.15,5.74,5.24,4.49,1.95,7.71,5.93,12.32,7.67,1.15.43.83,2,2.47,2.35,1.29.27,2,2.33,3,3.54.75.92,2.8.78,3.38,2.48.17.5.62.57,1.13.68,3.38.69,5.9,2.81,8.46,5,1,.88,1.29,2.91,3.5,2.47,1.81-.36,2.16,2,3.58,2.51a1.49,1.49,0,0,0,.94-.11c.47-.19.43-.41.06-.71-2.22-1.71-3.51-4.21-5.33-6.27-.89-1-2.7.21-3.59-1.51a6.34,6.34,0,0,0-3.14-3.1c-2-.61-1.88-2.79-3.42-3.62s-3.33-1.3-3.49-3.45a17.39,17.39,0,0,1-5.91-5c-3.52-4.27-8-7.6-11.23-12.16-4.93-2.62-7.75-7.55-12-10.92-2.52-2-3.61-5.67-7.28-6.34-.58-3.28-4.05-4.06-5.71-6.51a13.09,13.09,0,0,0-5.05-4.47c-2-.95-3.34-3.18-5-4.79s-2.8-4-5.16-5.37a3.25,3.25,0,0,1,.22-5.62c.24-.14,1.18-.51,1.22.69.06,2.13.16,2.16,2.1,2.24.56,0,1.14.26,1.06.7-.42,2.4,2.15,2.6,2.73,3.82.81,1.69,2.07,2.17,3.3,3.06.77.55,2.1.29,2.22,2,.08,1.18.93-1.23,1.62-.22.34.5,0,1.44.75,1.63,1.93.46,2.66,1.89,3.59,3.46.45.77,1.17,3.52,3.4,1.64,0,0,.34.24.33.33-.5,3.09,2.58,3.16,4,4.49.63.58,1.45,1,.91,1.65-1.08,1.26-.83,1.53.66,1.45a5.57,5.57,0,0,1,1,0c.84.11,0,3.2,2.21,1.22.2-.17,1.17,1.88,2.63,1.81.48,0,.69.55.66,1.11-.06,1-.15,1.79,1.41,2a2.2,2.2,0,0,1,1.59,2.7c-.12.52.1,1.11.6,1.15,3.49.3,3.86,3.57,5.51,5.63.63.78,1.33,2,2.46.48a12.78,12.78,0,0,0,1.78,1.75c2.27,1.49,3,4.49,5.58,5.61-.72,3.18,1.56,2.47,3.27,2.59.3,0,1.21.12.42.82a2,2,0,0,0-.58,1.62c2-.24,1.49,2.59,2.91,2.46a3.63,3.63,0,0,1,3.82,2.56c.6,2.9,3,3.89,4.74,5.45,4.58,4,9.85,7.35,12.86,12.94,1.73-.11,1.68,1,1.63,2.24a.76.76,0,0,0,.9.87c3.44-.46,2.92,3.51,5.06,4.48-.73,2.23,1.55,2.33,2.42,3.41,1.2,1.48-.3.87-.81,1.14-1.28.68.8,1.26.17,1.64s-1.61.13-2.3.45-.68,1.08-.17,1.66c1.37,1.57,1,2.13-1,2.3a15.35,15.35,0,0,1-3.2.12c-1.91-.23-2.25-.81-2.07-2.42,0-.23-.31-.5-.48-.76-.17.27-.45.53-.47.8-.09,1.36-.38,1.05-1.34.47-1.57-.95-2.65-2.59-4.71-2.93-.85-.14-1.45-.47-2.08.26s-.83,0-.86-.35c-.15-1.44-.77-1.66-1.9-.88-.25.17-.48.36-.71.54-.24-.57-.33-1.29-.75-1.67s-.66.57-1,.57c-1,0-.55-.87-.65-1.4,0-.16,0-.34,0-.5-.08-.41,0-.77-.77-.7a11.61,11.61,0,0,1-8.53-2c-1.79-1.12-4.27-.2-5.88-1.9-3.06.55-5-2.95-8-2.32-1-2.46-3.69-2.21-5.56-3.26-2-1.13-4.34-1.85-6.13-3.26-3.39-2.66-7.35-4-11.27-5.43-.72-.27-1.63-.06-2.13-.87-1.11-1.81-3.29-1.83-4.78-2.89s-3.5-1.57-5-2.49c-2-1.28-3.7-2.89-6.3-2.81a.73.73,0,0,1-.39-.23,8.93,8.93,0,0,1-1.52-2.35c-.54-.85-1.62,1.66-2.67.17-.59-.84-1.67-.91-2.47-1.3a5.31,5.31,0,0,1-2.84-2.81c-.67-1.42-.7-1.36.74-1.52a7.24,7.24,0,0,1,5,1.19c1.64,1.18,3.64,1.22,5.16,2,2.59,1.39,5.7,1.81,7.89,3.92a9.38,9.38,0,0,0,5.29,3c3.28.47,5.36,3.49,8.81,4.12,2.94.54,5.63,2.45,8.29,4.1,1.64,1,3.71,2.86,5.28,2.48s2.42.43,3.59.58c-.17,2,2.16,1.51,2.79,2.76.46.9,1,.87,1.79.08.47-.49,1.19-.16,1.67.4a3.54,3.54,0,0,0,2.9,1.5c1.85,0,0,1,.18,1.3.49.92,1.37,2.39,2.42,1.37s1.58.43,2.19-.05-.14-1.8,1.23-1.69c-.47,1.43,1.16,2.21,1.09,3.56,0,.39.43.46.67.18,1.71-2,2.69.69,4.11.67.32,0,.53.82,1.07.17.9-1.09,1.73-.62,2.39.27.78,1.06,1.81,1.16,3,1.19s5.87,2.59,6.64,3.44c.51.56,1.2.81,1.64.3s1.64-.54.95-1.74c-.87-1.48-1.26-3.1-3.66-3.15-1.79-.05-7.67-4-8.67-5.2-.52-.64-.14-2-1.73-1.72a7.05,7.05,0,0,1-6.47-2.41c-.71-.74-1-.46-1.05.45S325,401,325,402Z"/><path class="c" d="M225,383c0-2,.2-2.18,2.26-2.06.88,0,1.48.64,2.15.81,1.22.32,2.15,1.83,3.49,1.17s2.08,1.67,3.31.34a1.07,1.07,0,0,1,.34-.22c.79,1.06,2.85.84,2.78,2.76,1.35-1.32,2.43-.91,3.48.46,1.25,1.61,3.31,1.23,5,1.59s3.2.12,4.34,1.69c.68.93,1.86.35,2.8.41,1.46.08,3-.23,4,1.37.81,1.34,1.22-.48,1.79-.32a6.92,6.92,0,0,1,4,2.24c.61.85.69,3.64,1.47.08.11-.49.34-.34.71,0,1.87,1.71,5,1.19,6.51,3.55,1.08-.8,1.56,1.89,2.77.46.63-.75,1.16,1.13,2.21,0s2.27-.12,3.38.78c.5.4-.67,2.66,1.35,1.31,1-.65,1.34,1,2.43.65a2.44,2.44,0,0,1,3,1c1.21,2,3.17,2.05,5.19,1.94,1-.05,2,0,3,0,.52,0,1.26.15,1.19.55-.36,2.12,1.87,1.33,2.62,2.31.5.66,2.13.27,3-.83.21-.28.29-.07,1.76,1.72,1,1.22,2,2.6,4.05,2.33,1.19-.15,2.66-.64,3.73.53.61.66.66,0,.93-.31.83-1,1.06-.87.95-.5-.52,1.8.69,2.27,2,2.61,1.95.51,3.68,1.8,5.83,1.62a3,3,0,0,1,1.9.19c4.12,3.25,9.17,3.74,14,4.71,1,.2,1.49,1.08,2.56,1.15,1.35.08,2.08,2,3.93,1.34,1.42-.5,1.76,2.13,3.5,1.61s3.07.74,4.59.89c1.93.2,3.55.23,3.86,2.67.1.85,2,0,1.63,1s-1.48,1.63-2.39,2.23c-.51.34-.17.07-.25-.32-.22-1.2-.26-2-1.56-.71a15.11,15.11,0,0,0-1.71-1.42c-.75-.4-1.83.9-2.51-.39-1.86,1-3.3.33-4.81-.9-.76-.61-1.46.31-2,.9-.55-1.08-.69-2.69-2.58-2-2.12.79-1.72-1.38-2.53-2.13a3.53,3.53,0,0,0-3.39.34c-.22.29-.63,1.26-.76.42-.31-2-1.94-2.2-2.71-1.47-1.62,1.52-2.24-.17-2.42-.74-.28-.89-.34-1.46-1.45-1.45-.81,0-1.24-.59-2.21-1.94-.18-.25-.91-2.06-1.41-.14-.4,1.52-1.14,1.46-2,.61-1.28-1.27-2.89-1.81-4.42-2.6-1-.5-1.48-.86-2.24.09-.1.13-5-1-5.23-1-1.7.13-2.46-3.8-4.73-1.09a8.25,8.25,0,0,0-3.16-2.05A102.06,102.06,0,0,1,291.91,407c-.54-.21-1.41-.9-1.48-.82-1.37,1.62-2.37-1.08-3.81-.24-1.19.69-2.53-.16-3.53-.95-2.77-2.19-6.34-2.36-9.39-3.89-1.46-.73-3.15-1.66-5-1.1a1.86,1.86,0,0,1-2.1-.94A2.48,2.48,0,0,0,264,398c-.81.08-1.69.2-2.2-.7-.79-1.41-2.12-1.29-3.46-1.32-1,0-2.5.69-2.38-1.43,0-.53-.62-.45-1,0s-1,.5-1.71.27c-.86-.29-.75-2.5-2.5-1.14-.71.55-1.33-1-2.43-.71-1.39.35-2.15-2-2.65-1.72-2.82,1.39-3.68-1.27-5.35-2.23-2.41,1.75-4.24-.63-6.2-1.16-2.63-.71-5.56-.81-7.83-2.8C225.2,384.09,225,384.3,225,383Z"/><path class="c" d="M332.16,338c1.49-.22,2.28.61,2.86,2a51,51,0,0,0,3.17,6.67c2.07,3.31,3.27,7,5,10.4,1.49,2.89,3.44,5.53,4.11,8.8,2.82.21,2.23,3.05,3.39,4.54s1.59,3.32,2.85,4.81a13.06,13.06,0,0,1,2.38,4.48c.52,1.67-.84,4.4.6,5.09,1.85.89,1.73,3,3.37,3.67-.3,3.66,3.36,6,3.1,9.71-.09,1.32,1.72.55,1.7,1.17,0,1.06,1.47,1.49.78,2.79s1.69,1.78,1.4,2.41c-.56,1.18,2.13,1.68.35,2.85-.41.27.37.69.62,1,.5.61,1.45,1,1.11,2-.25.72-1.09,1.1-1,2.1,0,.52-.64.47-1,0a5.91,5.91,0,0,0-2.75-1.81c-.52-.23-1.2-1-1.16-1.45.31-3.28-2.1-5.49-3.05-8.26-.35-1-1.43-1.8-1-3.08.69-2.13-2.23-2.54-2.17-4.67,0-1-.1-3.2-2.44-3.41-.91-.09,1.27-1.15-.07-2.1s-.76-3-2.73-3.88c-1.09-.52-.88-3.36-2-4.47s.82-1.53,0-2.23c-.64-.54-1.09-1.44-1.8-1.71-1.71-.63.3-3-1.89-3.49-1.37-.32-1.48-2.1-2-3.36s-1.78-2.42-1.85-3.68c-.14-2.23-2.38-3.21-2.52-5.56a7.85,7.85,0,0,0-2.47-5,7.94,7.94,0,0,1-2-4.06c-.24-1.66-.79-3.38-1.79-4.21-1.5-1.23-.69-3.22-2-4.22-1.57-1.17-1.21-1.68.47-2.18C332.49,339.45,329.6,338.16,332.16,338Z"/><path class="c" d="M118.87,278c.79,0,1.66-.24,2.24.61.74,1.09,1-1.27,1.77-.25.49.63,1,1.84,1.17,1.91a28.53,28.53,0,0,1,4.72,2.45s.45-.44.68-.67c1.64,2.45,5.06,1.74,6.83,3.81.81.94,1.91,1.11,2.84,1.67,1.3.79,2.62,1.87,4.37,1.47.34,2,2.26,2.48,3.54,3.35a24.86,24.86,0,0,1,3.75,2.93c.23.23.48.69.7.67,2.61-.16,4.25,1.1,6.26,2.78,2.46,2.06,2.72,1.64,3.73,3.13.84,1.24-.3,1.6-.67,1.74a4.28,4.28,0,0,1-4.06-.25c-3.36-2-7.55-2.52-10-6.06-2.55.94-3.29-1.46-4.53-2.65A3.58,3.58,0,0,0,139,293.5c-1.59.16-2.24-2.44-2.67-2.14-2.11,1.45-2.08-1.33-3.39-1.58-.77-.14-3.13,0-3-2.22,0-.5-.56-.5-1-.05-.67.72-1.57.84-1.92-.13-.63-1.74-2.1-1.94-3.52-2.39a11.37,11.37,0,0,1-5.88-4.84C116.64,278.19,116.77,278,118.87,278Z"/><path class="c" d="M182.67,344c-.32-.23-1-1-1.31-.89-2.51.86-3.14-2.75-5.69-2.17-2,.46-3.26-1.75-4.91-2.46-2.86-1.23-5.87-2-8.2-4.3-.36-.34-1.29-.22-1.91-.12-1.67.28-2.78-.5-3.83-1.66-.51-.56-.9-1.39-1.91-1.37-5.12.12-9.1-2.77-13.44-4.86-1.91-.92-3-2.43-4.42-3.69a.91.91,0,0,1,.74-1.42,3.48,3.48,0,0,1,1.89.23c.69.41,1.11,1.3,1.82,1.64.35.16.86-1.26,1.5-.85,1.75,1.11,3.38,2.39,5.63,2.09,3.19,3.08,7.85,2.58,11.53,4.71a41.67,41.67,0,0,0,5.85,2.67c1.43.56,2.65,1.72,4.37,1.51.44,0,1.15,0,1.35.27,2.49,3.43,6.72,3.1,10.07,4.63a8.66,8.66,0,0,1,2.94,2.43,1.94,1.94,0,0,1-.25,2.64C184,343.42,183.74,344.13,182.67,344Z"/><path class="c" d="M239.87,347.82a33.32,33.32,0,0,1,4.83,3.5c1.23,1.26,2.78,1.41,4.15,2.1s1.92,2,3.37,2.7c1,.46,1.92-.11,2.55.26,1.1.65,1.87,1.85,2.94,2.58.87.59,2.06.7,3,1.26a29.7,29.7,0,0,1,2.15,2.06c1,.8,1.68,2.93,3.46,1,.22-.25.38-.05.72.21,1.33,1,2,2.82,3.86,3.2l4.17,1.87,1.06,1.06c.59.56,1.42,1.23.74,2s-1.27,2.34-2.7,1c-1.1-1-2.61,1.79-3.48-.45-1.75.2-2.39-1.48-3.55-2.22-3.7-2.36-7.89-4-11-7.29-.22-.23-.6-.65-.72-.6-2.85,1.34-4.2-1.87-6.64-2.24-2.09-.32-3.75-2.9-5.9-3.65-1.8-.63-1.17-3.16-3.11-3.11-1.56,0-2.48-1.25-3.82-1.66-.29-.09-1.3-.52-.47-1.36A8.4,8.4,0,0,1,239.87,347.82Z"/><path class="c" d="M167.37,274c2.12-.05,4,.36,4.8,2.67,5.2,2.77,8.74,7.78,14.09,10.39,1.27.62,2.22,1.93,3.26,3,1.49,1.49,2.86,3.57,4.9,3.73,1.85.14,1.09,2.17,2.53,2.27,1.7.11,1.85,1.83,2.64,2.88,2-2.32,2.77.13,3.79,1a17.16,17.16,0,0,0,3.67,2c2.32,1.2,3.36,3.24,3.93,5.61.11.45.16,1.1-.4,1.29-.39.12-1.13.08-1.3-.17-1-1.49-2.68-1.59-4.16-2.09.28-2.12-2.25-1.43-2.77-2.76a.79.79,0,0,0-.35-.35c-1.89-1.05-4.74-.59-5.47-3.48-2-.75-3.95-1.61-4.82-3.82-5.51-1.46-7.75-7.6-13.17-9.21a14.29,14.29,0,0,0-4-4.3,104.16,104.16,0,0,0-8.84-6.56,1.31,1.31,0,0,1-.57-1.69c.22-.54.81-.45,1.29-.45Z"/><path class="c" d="M317.89,441c-1.44.76-2.5-2.25-4.32-.23-1.09,1.2-2.56-.66-3.94-.77a3.26,3.26,0,0,1-1,0c-1.35-.57-2,1.76-3,.95a3.7,3.7,0,0,0-3.14-.9c-1,.16-1.39-.6-2.06-.94l-.7,1.7c-.81-.61-2.18.13-2.39-.13-1.25-1.53-2,1.45-2.81.28s-1.51,0-2.23,0c-1.55,0-3.13.53-4.69-.72-2.27-1.84-2.91-1.65-5.43.13-.3.21-.83,1.08-1,.26-.33-1.7-1.3-2.32-2.81-2.82-.83-.28.21-.67.38-1,.47-.85,1.32-.81,2.16-.79,1.17,0,2.34.06,3.5,0,.94-.05,1.89.3,2.79-.57.56-.55,1.56.67,2.54-.34s2.11.44,3.29.51c1.58.08,3-.61,4.48-.65s3.05,1.31,4.69.1c1.33-1,2.55,1.08,4.26.21,1.33-.67,3.28,0,4.88-.31,1.39-.28,1.82,1.17,3.1,1.17s1.6-1,2.57-1.15,1.19,1.82,2.35.33a1.81,1.81,0,0,1,2.61.22c.72.84,2.54,1.61,1.91,2.56-.86,1.29-2.56,2.07-4,2.89C319.36,441.24,318.56,441,317.89,441Z"/><path class="c" d="M169.64,364a107.86,107.86,0,0,1,11,2.35c1.09.33,2.14.42,3.2.67s2.27,1.69,3.55.92,1.72,1.94,2.82.33c2.05.88,4,2.1,6.19,2.52A5.78,5.78,0,0,1,200.5,373c.89,1.31,1.45.6,2.15-.15.34-.37.65-1.21,1.41-.35.88,1,2.42.12,3.51,1.32.63.71,2.48.49,1.83,2.21-1.09,2.88-2.39,3.86-4,2.67-3-2.19-6.62-1.75-9.89-2.65-1.44-.39-1.74-.39-.62-1.54.18-.18-.53-.58-1-.54-.82.07-1.28,1.52-2.05,1-3.08-2.29-6.91-1.83-10.22-3.09a8.25,8.25,0,0,0-3.13-.88c-.66,0-1.73.22-1.91-.08-.93-1.58-2.71-1.71-4-1.7-1.74,0-2.83-1.56-4.55-1.24-1,.19-1.44-.8-1.87-1.39a1.69,1.69,0,0,1,1.49-2.58C168.14,364,168.64,364,169.64,364Z"/><path class="c" d="M235.84,363.47c-.35.58-.76,1-.8,1.39-.07.61-.1,1.55.25,1.82.69.52,1-.5,1.34-.86.8-.75,1.42-1.23,2.45-.28s1.33,1.76.12,2.8c-.44.39,0,1.5-.74,1.6a4,4,0,0,1-2.35-.26c-6.56-3-13.22-5.8-19.74-8.89-2.21-1.05-5-1.14-6.55-3.45-.46-.68-1.23-.21-1.85-.34-2.72-.56-5.12-1.45-6.05-4.52-.41-1.37-.22-2.35,1.08-2.46,1.48-.13,2.86-.08,3.95,1.35.79,1,1.78,2.79,3.43.77,0,0,.22.08.34.07.84-.06-.68,2.52,1.44,1.23.86-.53,1.81.6,2.71,1s1.57,1.06,2.43,1.34a3.62,3.62,0,0,1,2.37,1.46c.73,1.44,1.46-.42,2.15.1a4,4,0,0,1,1.42,2.4c.09.37.4.24.69-.13,1.16-1.45,1.89.24,2.84.38,3,.46,5.4,2.24,8.22,3C235.44,363.1,235.9,363,235.84,363.47Z"/><path class="c" d="M233.76,440.05c-1,1.24-2.51,1.11-3.9.89-1.1-.18-2.08-1.86-3.22-.08a8.23,8.23,0,0,1-1-.79c-.84-.82-1.59-1.83-2.79-.4a1,1,0,0,1-1.65-.07c-.49-.94-2.17-.06-2.14-1.51,0-1.12.92-1.64,1.78-2.08,1.28-.65,2.59-1.27,4-.32,1-1.47,2,1.35,3.14-.09,1-1.23,2.5-.63,3.71-.54,2.07.17,4.1,1,6.16-.06,1.48-.78,2.54,1.61,3.5.91a7.11,7.11,0,0,1,6.55-.68c1.59.52,2.53-.24,3.73-.3s2.35,2.34,3.82.31a5.39,5.39,0,0,1,2.29,1,.93.93,0,0,1-.17,1.61c-.86.33-2.12,0-.75,1.51a1.8,1.8,0,0,1-.34,2.55c-.48-1-1.79-.69-2.37-1.43-.31-.39,1.95-.89.1-1.49-.7-.23-1.13.2-1.21,1.06-.11,1.22-1,1.13-1.73.63-1.91-1.25-3.59-1.11-5.12.65-1.15,1.32-1.68-1.18-2.75-.5-1.16-1.92-2.75-1.56-4.14-.53s-2.7.76-4.07.28C234.74,440.48,234.52,439.86,233.76,440.05Z"/><path class="c" d="M259.29,345.19c-.4.46-.71,1-1.41.22-1.11-1.24-2.33-2.38-3.51-3.54-1.48-1.45-2.76-3-5.15-3.32-1.17-.18-3.31-.6-3.35-2.93,0-.32-2.19.17-2.25-1.5-2,2.23-1.44-2.5-3.11-1.12-.69-1.79-2.59-.81-3.85-1.61s-2.39-2.45-3.77-2.83c-1.91-.52-3.22-2-5-2.49-2.38-.68-3.08-2.88-4.64-4.27a1.14,1.14,0,0,1-.21-1.35c.21-.53.8-.48,1.29-.45,1.17.08,2.83-.65,2.74,1.61,2.1-.12,3.32,1.61,5,2.4,3.07,1.44,5.67,3.7,9,4.72a7.45,7.45,0,0,1,4.94,3.69c.27.55,1.29.74,2,1.1l2,1.67c.2.3.62,1.24.74.46.5-3.3,2.09.39,2.86-.55,1.05,1,1.86,2.44,3.7,1.9.74,2.46,3.77,3,4.58,5.38C262.55,344.36,261.88,345.11,259.29,345.19Z"/><path class="c" d="M258,314c-.15,1.37-2.9,3.27-4.12,3.07-.57-.1-.88-.33-.9-.91a3.88,3.88,0,0,0-.57-2.28c-.9-1.37-3-.12-3.33-1.42s-.9-2.23-2-2.34-1.83-.33-2.35-1.68a5.91,5.91,0,0,0-2.84-2.5c-1.4-.72-3.26-1.52-3.77-3.08-.61-1.84-3.16-1.34-3.45-3.52-.12-.86-1.47-1.78-2.46-2.23a5,5,0,0,1-3.19-3.31c-.22-.89-.9-.77-1.54-.75s-1.23.08-1.49-.83a4.34,4.34,0,0,0-3.26-3.19c-1.16-.3-.65-1.34-.69-2.07-.06-1,.76-1.08,1.35-.87s1.34.74,2,1.06c1.56.71,2.23,2.74,4.23,3.08,1.85.32,2.41,2.39,4.08,3.2,1.51.73,2.46,2.43,4.2,3.14,1.38.56.94,2.94,2.52,3.35,1.41.38,3.24.95,3.61,1.88,1,2.7,3.81,3.27,5.38,5.19,2.38-.61,2.42,2.12,3.8,2.68,1.77.73,2.84,2.09,4.14,3.27C257.74,313.22,258.19,313.53,258,314Z"/><path class="c" d="M322.24,316.26c-.38,1.12-.53,2.17.56,3.06.76.64,1.36,1.47,2.14,2.09,1,.75.67,1.16.18,2.2-.67,1.44,1.22,2.11,2.08,3s.52,1.13-.09,1.83a4,4,0,0,1-3.86,1.58c-.69-.09-1.13-.15-1.3-1-.25-1.38-1.73-2.38-1.45-4,.38-2.08-1.73-2.31-2.54-3.5s2.05-1.65.28-2.81c-.81-.54-2.14-1.84-2-2,1.83-2.88-2.34-2.24-2-3.18.41-1.16,1-1.32-.66-1.59-1.14-.18-.33-1.71-.71-2.59a25.16,25.16,0,0,0-4.92-7.94c-1.57-1.59-1.22-3.7.68-4.3.66-.22,1.83-.66,2.44.77.9,2.13,2.73,3.8,3.36,6.08.54,1.95,3.59,2.59,2.68,5.36-.13.39.93,1.23,1.51,1.79.85.81,1.62,1.53,1.44,2.92s1,.94,1.74,1C323,315.07,323.31,315.39,322.24,316.26Z"/><path class="c" d="M62.46,247c1.54-.48,2.88.69,4.24,1.34,1.72.81,3.23,1.78,5.3,1.76,2.25,0-.56,1.61.26,1.64,4,.11,6.14,4.54,10.24,4.3,1,1.73,4,.92,4.54,3.45.16.75,1.08.5,1.7.56,1.25.12,2.5-.34,3.69.81s1.69,2.67,2.52,4a1.93,1.93,0,0,1-.2,1.83c-.68.7-.85-.52-1.4-.68-1.48-.42-2.92-1-4.38-1.49-1.63-.57-3.45-.74-4.49-2.46a1.91,1.91,0,0,0-2.06-1c-.46.08-.93-.23-1.34-.32-1.27-.26-.16-2.55-2.12-2.18-1.32.24-2.36-.93-3.51-1.34s-2.09-1.59-3.54-1.19c-.31.08-.92-.37-1.15-.73-2.45-3.75-7-3.36-10.36-5.18-.51-.27-1.31.05-1.41-.91s.6-1.1,1-1.6C60.59,246.71,61.47,247.1,62.46,247Z"/><path class="c" d="M368.86,364.46c.46,2.09-.44,2.52-1.6,2.86-.16,0-.3.95-.11,1.27.45.8.67-.22,1-.23s1,1,1.45,1.68.1.84-.31.94c-.77.17-2.08.26-.59,1.14,1.77,1,.87,3,2,4.22s-.73,2.59-.7,3.93c0,2.34-2.16,1.78-3.21,2.69-.12.11-1.11-.06-.51-.74s1.14-1.27.32-2.07c-2-1.93-1.69-4.41-1.62-6.79.09-2.6-1.18-4.87-1.53-7.35-.21-1.49-1.82-2.8-.53-4.47-1.62-1.24-.75-3-1-4.55-.15-1.08.27-2.18-.65-3.24a2.05,2.05,0,0,1,.4-3c.55-.47-.15-1.76,1.19-1.75s.75,1.13,1.1,1.7a39,39,0,0,1,3.37,8.09C368.13,360.87,367.82,363.16,368.86,364.46Z"/><path class="c" d="M269,287.33c0,1.74-1.61,3.3-2.84,2.55-1.05-.64-3.27.13-3.16-2.17-2.32-2.22-3.51-5.24-5.85-7.57-2.06-2.05-2.9-5.37-4.1-8.2a4.37,4.37,0,0,0-1.53-1.83c-.6-.47-2.1.3-2.22-.42-.32-2.08-1.45-3.74-2.26-5.58-.31-.72.32-1.13,1.12-1.12s1.11-1.43,2.28-.17A36.29,36.29,0,0,1,256,270c1.28,2.33,3.3,4.19,4.26,6.72,3.7,1.91,4.57,6.31,7.7,8.73C268.58,286,269.43,286.47,269,287.33Z"/><path class="c" d="M325.82,452.92c-1.21-1.34-2.38-.11-3.5.32s-1.73,2.85-3,1.35c-1.09-1.28-2,1.49-2.66-.35-.2-.55-1.38-.4-1.59.26-.72,2.28-2.44,2.47-4.4,2.52a14.43,14.43,0,0,0-6.48,2.38c-.74.61-1,.38-1.45-.16a5.15,5.15,0,0,0-2.38-1.49,1.9,1.9,0,0,1-1.35-1.87c.15-1.32,1.29-1,1.89-.82.92.31,1.05-1.67,2.4-.47.95.85.48-1.5.93-1.28,2.47,1.19,3.9-2.05,6.18-1.31,1.45-2.21,4-.12,5.85-1.61a6.28,6.28,0,0,1,5.38-1.37c1.15.26,1.5-1.27,2.58-1,.73.17,1.06,1.11,2.3.22s2.07.44,1.62,2.15C327.8,451.65,328.52,453.74,325.82,452.92Z"/><path class="c" d="M180,313c2,1.46,4.73.81,6.61,2.24,1.63,1.24,2.85,2.74,5.14,3.29,1.6.39,2.68,2.57,4.52,3.39.83.37,1.38,1.13,2.51,1.21s1.91,2.07,1.4,3.23c-.83,1.89-1.38,2.26-3,1.26-.7-.44-1.49-.39-2.12-.95-1.41-1.25-.87.28-1.1.8s-.85.63-.94.07c-.25-1.75-1.14-2.59-2.9-2.48a1.07,1.07,0,0,1-1.14-.65c-1.71-3.5-4.61-5.38-8.27-6.42-.84-.24-1.46-1.26-2.19-1.9-.56-.48-.81-1.12-.35-1.67S179.13,313,180,313Z"/><path class="c" d="M177.94,399.36c.16-1.4,1-2,1.3-2.92s.87.83,1.78.61c1.64-.39,3.3.54,4.87.44s2.78.81,4.33.58,3.23,1.77,5,.88c1.52-.74,2.78,1.78,4.19.12,1.7.65,3.43,1.24,5.09,2,.56.26,1.34.92,1.33,1.37,0,.78-1,.62-1.54.55-1-.11-1.45.65-2,1.22-.78.82-1.53,1.27-2.41.21-.53-.64-1.21-.39-1.83-.4-5.87-.08-11.44-1.74-17-3.49-.79-.25-1,.17-1.44.21C178.55,400.85,178.58,399.54,177.94,399.36Z"/><path class="c" d="M82.65,300.15A12.42,12.42,0,0,1,79,298.79c-1.27-1.14-3.47-1.68-3.82-3.28-.47-2.18-1.82-1.81-2.77-1.28-1.36.76-2.22,1.62-2.52-.77,0-.29-1.21-.33-1.59-.74-.58-.61.92-.89.52-1.33-.64-.73-1.47-.72-1.78.4-.13.45-.12,1.15-.57,1.1s-.45-.75-.47-1.24a3.57,3.57,0,0,1,.55-1.76c1.7-3.38,2.31-3.74,5.16-1.59,1.8,1.35,3.41,2.83,5.84,2.74,1.14,3.23,4.71,3,6.92,4.74.76.61,2.58,1.22,2.27,1.78-.74,1.31-2.2,2.22-3.41,3.26C83.31,300.84,82.88,300.38,82.65,300.15Z"/><path class="c" d="M326.77,427a3.84,3.84,0,0,1-1.48,0,22.09,22.09,0,0,0-11.1-2,2.19,2.19,0,0,1-1.25-.55c-.76-.57-1.32-2.05-2.46-.44-.61-1-1.56-1-2.58-1-1.23,0-2.55.26-3.51-.87a1,1,0,0,1-2-.33,4,4,0,0,1,1.12-2.69c.78-.75,2.05,1.67,3.06-.15.7-1.28,2-.69,3.06-1,1.5-.42,2.57.51,3.53,1.11,3.2,2,7,2.25,10.34,3.86a30.28,30.28,0,0,1,4.1,2.07c.63.43,2.14-.8,2,.77a1.91,1.91,0,0,1-2.37,1.25A2,2,0,0,0,326.77,427Z"/><path class="c" d="M120.47,316c-2.79.11-5-1.62-7.38-2.62-3.3-1.39-6.25-3.56-10.06-3.37-1.56.08-.82-1.47-1.51-2.09-1-.93.4-1.38.81-1.66a6.06,6.06,0,0,1,7.34.07c2.63,2.15,6,2.5,8.73,4.35,1.19.8,2.92.89,4.08,2.18.39.45,1.78.09,1.48,1.3a2.29,2.29,0,0,1-2,1.83A12.51,12.51,0,0,1,120.47,316Z"/><path class="c" d="M124,244.42c0,1.43-.86,2.14-2.17,1.55-2.51-1.13-4.89-2.45-7.52-3.41-1.56-.56-2.56-2.83-4.2-4-.66-.45-1.17-1.13-1.83-1.58-3.53-2.41-3.45-2.31-.78-5.1,1.11-1.15,1.5-.46,2.15.24a10,10,0,0,0,2.13,2c.77.4.66,2.36,2.49,1.19,1-.63,1.49,1.26,2.39,1.77,1.06.61,1.2,1.8,1.75,2.75.91-1.39,1.83-.19,2.58.13C122.83,240.85,124.34,242,124,244.42Z"/><path class="c" d="M293.44,319.06c.23.19.48.38.7.58a46.94,46.94,0,0,1,8.54,9.79c1.23,2,3.55,3.22,4,5.75.24,1.29.91,2.46-1.21,1-.42-.29-.44,1.55-1.29,2.19-1.16.88-1.39.9-2.23-.67-.41-.77-1.4-1.43,0-2.17-2.35-.51-1.7-2.42-2.06-4-.29-1.23-1,.83-1.66.22-2.45-2.29-4.1-5.2-5.91-8a3.46,3.46,0,0,1,.06-3.64A5.84,5.84,0,0,1,293.44,319.06Z"/><path class="c" d="M292,417.05c-.91,1-1,2.59-2.11,3.58-.68.6-.72-.22-1.08-.28-1.49-.27-2.81-2.64-4.53-.37-.1.12-.7,0-.9-.12-.64-.53-1.13-1.55-1.8-1.65-1-.16-.22,1.42-1,1.72a1.33,1.33,0,0,1-1.69-.57,3.11,3.11,0,0,0-3.43-1.36c-1.84.29-2.81-.26-2.48-2.34.07-.44-.52-.68-1.08-.68-1,0-1-.78-.84-1.38a.94.94,0,0,1,1.55-.43c1.74,2.33,4.3-2.23,5.86.78a43.8,43.8,0,0,1,6.06.88c2.49.38,6,.37,7.12,1.33C291.84,416.34,291.88,416.71,292,417.05Z"/><path class="c" d="M276.48,302.05c.72-.86.21-1-.54-1.05-1,0-1.37-.88-1.83-1.47a.94.94,0,0,1,.58-1.51c1.35-.3,4.27,1.31,5.34,2.46a15.67,15.67,0,0,1,4.24,7.19c.22,1,1.23-1.43,1.57-.2.24.9,1.94,2,.19,3.13-.23.15-.06.94,0,1.44.11,1.46-.11,1.8-.76,2.25-1.65,1.13-2.23-.58-3.24-1.11-.07,0,.05-.35,0-.48-1.7-2.95-3.2-6-5.43-8.65C276.21,303.64,276.25,303.61,276.48,302.05Z"/><path class="c" d="M345.15,387.65a6.93,6.93,0,0,1-1.52,1.18c-1.19.46-4-1.33-4.68-2.56-.44-.79,2.57-2.19-.53-2.46-.63-.06-.49-2.05-2.06-2.08a4,4,0,0,1-1-2.64c.08-1.15,0-1.15-1.18-.78-.35.11-.88,1.13-1,.31-.38-2.89-2.27-5.08-3.16-7.69-.2-.59-.51-1.8.79-1.9.74,0,1.68-.41,2.15.6.06.14-.06.38,0,.49,1.19,1.67,2.83,3.18,3.48,5,.57,1.66,2.31,1.56,2.84,2.74a9.76,9.76,0,0,0,3.06,4.21c1.33,1,1,3.51,2.21,5C344.71,387.22,344.83,387.33,345.15,387.65Z"/><path class="c" d="M287,458a4.3,4.3,0,0,1,1.62.18c.75.35.46,1.38,1,2.08.73.94-.61.49-.92.78-2,1.87-5.26,1.33-6.95,3.74-.19.27-.49.17-.7-.23-1.15-2.22-2.79-.82-3.77-.15-1.73,1.17-4.48-.17-5.63,2.34a11,11,0,0,1-2.3-.93,1.35,1.35,0,0,1-.27-1.79c.82-1.1,2-2.92,2.84-2.83,2.57.28,4.65-1.63,7.1-1.15,1.73.35,2.81-1.7,4.56-1.08C284.31,457.68,285.55,458.05,287,458Z"/><path class="c" d="M197,265.43v-.5c0-1.83,1.43-2.79,2.68-1.64,1.79,1.64,4.2,2.43,5.64,4.49.71,1,.84,3,3,2.22,1.19,1.78,2.44,3.52,3.53,5.36.3.5-2.86,1.52-3.74,1.22a11,11,0,0,1-3.47-2.45c-2.33-2-3.9-4.88-6.89-6.12C196.31,267.43,197.32,266.26,197,265.43Z"/><path class="c" d="M229.57,411c-2-1-4.75.52-6.69-1.61a4,4,0,0,1-4-.36c-.22-.15-.65,0-1,0-1.44-.19-.66-2-1.83-2.54-.16-.08,2.39-2.19,3-1.78a1.85,1.85,0,0,0,1.82.28c1.8-1.19,3.1-1,4.41.77.49.66,2,1.43,2.34,1.18,1.76-1.2,3.73,1.07,5-.23s1.48.59,2.35.38.92.18.47,1C234.41,410.11,232.61,411.14,229.57,411Z"/><path class="c" d="M224.07,344c-1.82-.87-4.43-1.51-6.14-3.12s-4.09-2.29-5.92-3.8a18.87,18.87,0,0,1-1.83-1.46c-.36-.38-1.4-1.11-.88-1.25.91-.24,1.55-1.58,2.72-.85,3.16,2,7.36,1.81,10,4.55,1.3,1.33,4.2-.16,4.33,2.78,0,.51,2-.34,1.12,1-.49.74,0,2.66-2,2.16A8.19,8.19,0,0,0,224.07,344Z"/><path class="c" d="M140.94,256c2.86-.17,4.76,1.9,6.58,3.29,2.52,1.93,5.49,3.46,7.38,6.16.29.41,1.54.64.73,1.32s-1,2-2.78,1.73c-2.34-.35-3.24-2.35-5-3.28-1.39-.72-2.3-2.78-3.66-3.05-1.68-.33-.75-3.11-2.94-2.49-.27.07-1.25-.85-1.29-1.86,0-.5-.84-1.13-.71-1.46C139.54,255.62,140.41,256.14,140.94,256Z"/><path class="c" d="M243,410.22c0-.6,0-1.33,1-1.21,1.45.18,3.31-1.73,4.32.81.92-.5,1.81-1.12,1.82.77,0,.52.93.59,1.25.37.93-.64,1.61-1.66,2.86-.3.64.7.87-.54,1.36-.8.77-.39,0-2.3,1.64-1.84,1.41.39.28,1.86.82,2.47.91,1,1.15,1.56.21,2.86-1.3,1.8-1.83,2.29-3.44.89-1-.85-1.48-.65-2.62-.37a20.13,20.13,0,0,1-6,.1C244.76,413.88,243.09,411.85,243,410.22Z"/><path class="c" d="M320.87,354.87c-.19.51,1,2.1-1.12,2.16-.76,0-1.23,1.45-2,.92-1.16-.77-2.68-1.58-2.65-3.18a3.2,3.2,0,0,0-1.64-2.79c-2.32-1.67-2.82-4.49-4.41-6.61a1.07,1.07,0,0,1,.07-.93c.44-.72.78-.1,1,.19.53.67,2.18,0,1.9,1.6a.53.53,0,0,0,.15.42c1.28,1,3.53-.6,4.32,1.4.62,1.58,1.56,3.15,2.89,3.64C321.05,352.3,321.15,353.16,320.87,354.87Z"/><path class="c" d="M357,325.75a3,3,0,0,1,0-1c.33-.93-1-2.46,1-2.76.56,1.33,2.75.2,3.09,2.4.31,2,1,4,.91,6.1,0,1.44-.51,3,.33,4.34,1.13,1.83-1.85,1.89-1.4,3.42,0,.17-.32.47-.5.71-.23-.23-.48-.46-.7-.71-1.88-2-1.67-4.75-2.36-7.17,1.24-1-.79-1.37-.47-2.36A10.2,10.2,0,0,0,357,325.75Z"/><path class="c" d="M353.39,434c1,0,2,0,3,0,1.43,0,1.27.15.68,1.74-1,2.8-4.1,1.54-5.65,3.16-2.51-1.86-5.39-.46-8.06-.89-.48-.07-1.15,0-1.23-.48-.05-.29.6-.67.9-1,1.79-2.27,4.65-1.54,6.94-2.42C351,433.68,352.24,434,353.39,434Z"/><path d="M527.33,411.67c-.3,3.6-.2,3.31-3,2.4-3.6-1.18-5.93-4-8.8-6.11-.48-.35-2.22-.86-.92-2,.68-.58.69-2.41,2.87-1.24,1.85,1,4.14,1.28,5.7,3,2.66-.38,3,2.3,4.44,3.46C528.43,411.77,527.33,411.83,527.33,411.67Z"/><path d="M550.45,412c1.63,1.07,3.94-.1,5.92,1,1,.54.57,1.41.61,2.16a.76.76,0,0,1-.91.85c-3.24-.18-6,1.68-9.14,2s-3,.43-4.65-1.24c-.24-.24-.49-.46-.7-.71a7.54,7.54,0,0,1-.45-.7c.29-.13.59-.39.85-.35,2.16.32,3.94-.94,5.89-1.47.31-.09,0-1.32.76-1.53A8.76,8.76,0,0,1,550.45,412Z"/><path d="M533,452.81a5.43,5.43,0,0,1-3.77,4.15c-1,.32-2.2,1.83-3-.25a1.2,1.2,0,0,0-.7-.68,5.26,5.26,0,0,1-4.55-4.47c-.16-.69-1.18-1.14-1.65-1.81s.23-.75.63-.73c.62,0,1.56-.38,1.82.29.53,1.35.73,2.75,2.49,1,.62-.63.61.2.77.55.71,1.55,1.29,3.1,3.42,1.29,1.15-1,2.78,2.38,4.08-.16Z"/><path class="f" d="M640.24,620.52c2.79-15.22,2.51-13.89,3.66-12.92a9.19,9.19,0,0,0-2.22,3.08c-.37,1-.86,1.28.51,1.32a10.58,10.58,0,0,1,1.49,0c1.12.2,4-1.54,4.44-2.61.22-.57.88-.49,1.31-.37s.38.92.61,1.16c.84.86,0,2.24.32,2.5,1,.85,2.48,1.19,3.68,1.89s.81-.25,1-.74a4.41,4.41,0,0,1,.46-.81c.82,1,2.15,1.53,2.52,2.89.12.46-.42,1.14-.57.89-1.13-1.79-2.13,1.13-2.73.15-.87-1.42-2.19.51-3-.67a1.33,1.33,0,0,0-1.29-.15c-.65.4-.71,1.46-.11,1.59,1.57.33-1.55,2.61,1.08,2.32.43,0,.71.58.1.91-.25.14-.65,0-1,0-.79.14-2.27-.35-2.24.32.06,1.4,1.49.57,2.27.62,1.77.13,2.32,1.7,3.4,2.62.21.17.26,1.08-.34,1.27s-1.43-.11-1.91.2c-1.32.86-3.31,1.3-2.75,3.66a1.4,1.4,0,0,1-.47,1.24c-.65.31-1.19-.12-1.7-.62-1.18-1.13-1-2.24-.18-3.43s.55-2.08-.84-1.81-2.61-2.46-4.32-.23c-.43.57-2.07.67-2.37,1.67a2.4,2.4,0,0,0,.59,2.73c.8.7.58,2.07.24,2.79-.65,1.39-1.34,2.25.19,3.72s3.1,1.72,4.43,1,.92-.24,1.62.6c1.14,1.37,3.48.85,5.29,1.45,2.16.72,2.94.5,3.53,2.11.09.22-.18.57-.28.86-1.13-1.19-2.57.05-3.42-.24-2.66-.91-3.77-.92-4.82,1.57a18.16,18.16,0,0,0-1.54,3.37c-.39,1.81,1.24,3.4.23,5.13,1.07.68.6,3.13,3,2.41.85-.25,1.25.92,1.85,1.45.17.15.15.68,0,1-.27.58-.58.2-1,.07-1.72-.53-2.8,0-2.88,1.7s-.27,2.91-1.64,3.84c-.39.27-.49.52-.15.7a2.71,2.71,0,0,0,.9.23.6.6,0,0,0,.44-.12c.72-.74,1.69-1.58,2.3-.28s0,2.35-1.65,2.74c-.69.16-1.27,1.15-2.06.35-1.24-1.26-1.47,0-1.14.59.75,1.32,1.65,2.41.31,3.88-.81.87.4,1,.7,1.37.95,1.14,2,2.11-.52,2.51-.5.08-.6.69-.56,1.21a2.36,2.36,0,0,1-2.11,2.77c-.38.07-1.14.09-.57.75.35.42.61,1.19,1.38,1,.27-.07.45-.6.72-.65.77-.14,1.81-.52,2.29.18.66,1,.4,2.21.14,3.31-.14.58-.85.29-1.3.4-1.78.45-3-.85-4.43-1.4s-3.83-.13-4,1.08c-.16,1-1.36,1.47-1.11,2.57.32,1.38-1,2.74-1.51,2.49-1.09-.53-.54-2.11-.4-3.17.11-.79,1.58-1.28.56-2.45a9.36,9.36,0,0,0-3.64-2.08c-.79-.36-1.85,1.1-1.33,2a5,5,0,0,1,.29,2.38c0,.16-.43.49-.7.53-.73.1-3-1.89-3.12-2.62s-.06-.19.37-.27c.92-.16,1.66-.22,1.47-1.37-.14-.87-1-.53-1.51-.81-.87-.52-.64-1.62-.41-2.26.53-1.42,1.09.62,1.6.16a3,3,0,0,0,.15-4.42,6.58,6.58,0,0,1-1-2.1c-.36-.87-4-2,.45-2.45,2.44-.24,3.27-4.45,1.49-6.51-1.09-1.27-.78-2,.25-2.82.64-.53,1.34-1.13,1-2.07-.56-1.51-.64-2.76.87-3.84,1.27-.9-1.68-1.66-.22-2.75a3.63,3.63,0,0,0,1.46-2.92c.11-1.34-1.18-1.95-1.08-3.09A26.66,26.66,0,0,0,627.44,634c-.11-.33-.47-.65-.2-.7,3.17-.62.78-3.58,1.86-4.6,1.67-1.58,0-3.92,1.83-5.37.59-.46-.22-1.4-1.31-1.34-.54,0-1.66.2-1.4-.57a5.23,5.23,0,0,1,2-2.12c.71-.52.87.59,1.45.74a7.62,7.62,0,0,1,3,1.23c1.48,1.32,2.76-.26,3-.68.79-1.21-.12-3,1-4.33-1.45-1.18-.68-2.8-.69-4.19s1.4-1.92,2.66-2.3c.35-.11-.08-.44-.09-.69-.06-1.63-1-3.28,0-4.89-1.33-.68-.07-2.32-1.08-3-.76-.54-1.86.19-2.72-.69s-1.33.8-2.39.68c-.62-.07-1.48,1.64-1.52-.51,0-.18-.38-.34-.59-.51-1.31,2.14-2.47-.29-3.72-.15-.17,0-.38-.36-.57-.56a3.58,3.58,0,0,1,.84-.4c.85-.15,2,.47,2.13-1.22.1-1.13,1.2-1.17,1.76-.4,1,1.44,2,1.09,3.47.69s3.64.66,4.16-2a2.13,2.13,0,0,1,1.27.16,34.21,34.21,0,0,1,2.85,2.8c1,1.13,1.43,1.08,1.49-.56,0-.57.57-.27,1,0,.6.36.83,1.78,1.7,1.11a9.93,9.93,0,0,1,3.17-2.07c-.22-.18-.47-.57-.64-.53-1.71.36-.92-1.46-1.66-1.86s-2.18-1-2.31-.84c-1.13,1.55-1.5-.68-2.39-.38a1.56,1.56,0,0,1-1.83-.33c-.31-.39-1.06-.9-1-1,.28-.55.75-1.31,1.25-1.39,1.45-.22,3.23-.69,4.37-.09,2.3,1.23,4.09-.19,6.09-.46.35,0,.57-1,1-.24a1,1,0,0,1-.52,1.56c-.44.14-1.19,0-1.24.49s.61.56,1.12.55c.83,0,1.66,0,2.49,0s1.29,0,1.3,1-.73,1-1.1,1.55c-.5.69-.89.12-.88-.26,0-1.13-.65-1.7-1.49-1.24s-2,1.44-1.51,2.77,1.37,2.43,1.92,3.7a1,1,0,0,1-.77,1.49c-.94.28-1.26-1.36-1.91-.68-.45.46-.16,1.57-.47,2.27a4.53,4.53,0,0,1-1.37,1.43c-.61.51-.21.82.23.92s1,0,1.28.51c0,0-.16.24-.27.34-.6.52-1,1.41-2,1.16a.88.88,0,0,1-.67-1.11c.26-1.26-.3-2.53.38-3.84a1.46,1.46,0,0,0-1.91-1.9c-.71.34-1.22.92-2.14.9-2.35-.06-2.35,0-5.09,18.49-2.29,16.16-2,15.63-2.27,15.21-.57-1.1-1.79-2.13-1.79-3.2s1.27-2,1.77-3.17a2.16,2.16,0,0,0-.08-1.9c-1.1-1.18-.93-1.59.63-1.44.51.05.81-.2.47-.48-.77-.65-1.19-2.23-2.75-1.29-.31.19-.33,1-1.06.44s-1.32-2.27-2.73-1.55c-1.1.56.09,2.17-1,3.07-.9.71,1.24,1.12.59,1.86-1.28,1.48,1,4-1.56,5.07-.83.34.07.71.26,1a2,2,0,0,0,2.15.84c1.74-.25,3.27,0,4.32,1.64C637.23,636.77,637.37,636.87,640.24,620.52ZM639,657.59c0,3.66,0,3.72,3,3.4,1.82-.2.35-.82.19-1.38-.53-1.82-.13-2.11,2.15-1.83.22,0,.66-.17.67-.28,0-.46.27-1.09-.33-1.33-.43-.17-1,0-1.43-.18-1.67-.51-1.6-.48-.42-2.33.57-.89,1.43-2.54,1.11-2.9-2-2.24-.21-4.18,0-6.27.16-1.36,1.23-2.14,1.52-3.39s-.16-1.83-1.69-1.33c-1.31.44-2.61.05-3.89.23s-.66.54-.27,1.17-.77,1.66.35,2.55c.82.67-1.32,1.18-.47,2.35.71,1-.78,1.72-.8,2.73,0,.37-1.16.87-.32,1,3,.39,1.88,3.09,1.42,3.67C638.64,654.88,639.24,656.28,639,657.59ZM634.82,651c.33,0,.66,0,1,0,.5,0,1.13-.09,1.06-.56s-.81-.33-1.25-.47-.69-.51-.15-1c1.21-1,2.66-2.76,2.06-3.7-1-1.51.33-3.36-1.2-4.54-.29-.22-.21-.89-.33-1.34-.39-1.4-1.85-2.1-2.71-1.14-1.26,1.41-3.32,2.75-1.4,5.15.43.54-.27,1.13-.45,1.7C630.23,648.83,631.56,651,634.82,651ZM629,667.21c0,2.56,0,2.59,3.09,2.77.88,0,1.09,1.26,2.08,1,.47-.11,1.15.1,1.41-.16.86-.83-.34-1-.65-1.35-1-1-1.06-1.54-.26-2.87.67-1.12,2.11-2.15,2.07-3-.06-1.27-2.43.1-3.08-1.41a2.36,2.36,0,0,0-.7-.71c-1-.8-.9.11-1,.66-.1,1-.78.9-1.43.86-.9,0-1.65,0-1.59,1.22C629,665.21,629,666.21,629,667.21Z"/><path class="f" d="M385,426.42c0,1.16,0,2.33,0,3.49,0,.89-1.73,1.76,0,2.69.13.07.1.68,0,.94-2.34,4.41-6.17,7.17-10.44,9.46-2-1.43-4.55-.75-6.8-1.62-1.66-.64-3.39-1.75-5.41-1.4-.66.11-1.24,0-1.32-1-.1-1.27-1.34-1.78-2.09-2.61-1.83-2-2.12-2.73-2.63-5.58-.13-.75,1.21-1.23,0-2.23-.6-.51-.25-2.16-.28-3.3a11.49,11.49,0,0,1,.71-2.66c.67-3.79,3.33-5.75,6.18-7.61,1.15-.76,2.42-1.36,3.64-2,2.22-1.18,4.58-1.69,6.6.05,1.66,1.44,3.05-.88,4.63.15,1.23.8.75,3.51,3.23,2.82a1,1,0,0,1,.83.34c.57.9-.64,2.7,1.71,2.85.55,0,1.18,2.06,1.4,3.23A21.12,21.12,0,0,1,385,426.42ZM372,418c-2.13.07-3.57-.21-4.82,1-.45.43-1.67-.34-2.12.6-.17.37,1.92,1.21,0,1.36s-2.94.95-3.27,2.78c-2.83.44-1.46,1.75-.9,3.26a3,3,0,0,1-.86,3.6.91.91,0,0,0,.72,1.42,2.92,2.92,0,0,1,3.41,2.6A2.27,2.27,0,0,0,367,436a.75.75,0,0,1,1,.77c.1,1.16.24,1.35,1.33.54a3,3,0,0,1,2.76-.24c2.05,1.71,2.9-.06,4.4-.87a10.72,10.72,0,0,0,3.65-3.43c1.15-1.53.17-3.39,1.2-4.5,2.27-2.44-1.63-2.7-1.37-4.4.06-.34-.58-.74-.71-1.17-.73-2.31-3.32-2.66-4.64-4.42C374.15,417.68,372.44,418,372,418Z"/><path d="M563,427.77c0,.76-.17,1.27-1.07,1.24s-2,.05-3,0a20.81,20.81,0,0,0-8.88,1.38c-3,1.11-3.46.9-4,2.37a6.1,6.1,0,0,1-1.67,2.29,22.8,22.8,0,0,1-2.09,1.81,6.07,6.07,0,0,0-2.1-3.11c-.25-.21.2-.53.17-.69-.27-1.42,3.71,0,1.66-2.47a11.88,11.88,0,0,0,3.34-2.43,7.42,7.42,0,0,1,3.1-2c1.4-.26,2.39-1.62,4.07-1.17,1.08.3,2.52-1.46,3.44.56.26.58.82.46.94-.08s0-1.51.89-1.37c1.21.19,2.14,1.14,3.58,1.1A2.12,2.12,0,0,1,563,427.77Z"/><path d="M666,564.45c.24,1.49-1.35,2.38-1.14,4.06.12,1.08-1.2-1.21-2,.06-.47.74-1.86.43-2.35,1.43-1-1.57-2.71-.65-4-1.08a5.31,5.31,0,0,1-3.41-3.42c-.43-1.3.42-2.89-1-4.08-.44-.35.23-1.1.62-1.66.68-1,2.75-.44,2.47-2.37,0-.09.71-.42.76-.37,1.79,2.12,4.68.05,6.71,1.9C664.09,560.27,666.14,562.74,666,564.45Z"/><path d="M626,523.12c0,1.34,0,2,0,2.67a2.26,2.26,0,0,1-2.14,2.21c-2,.29-4.12,0-5.4-1.24a12.46,12.46,0,0,1-3.49-5.47c-.72-2.66,1.73-4,2.39-6,.18-.56,1.51-.75,2.31-1.11.66,1.54,2.82.1,3.28,1.45C623.89,518.37,627.28,520.23,626,523.12Z"/><path d="M559.7,521c-1.07-2-4.11.15-5.21-2.07-.59-1.2-1.78-2.23-1.51-3.84.41-2.45,4.18-6.31,6-6,3.9.56,7.49,4.15,7,7C565.59,518.47,562.22,521.26,559.7,521Z"/><path d="M633.8,514c3.48,0,6,1.23,7.42,4.67,1.14,2.82,0,5.77-3,6.3a8.39,8.39,0,0,1-4.4-.08c-1.18-.5-1.72-2.25-3.53-2.1-.51,0-.31-.83-.32-1.29,0-1.15,0-2.31,0-3.47C630,514.38,630.37,514,633.8,514Z"/><path d="M615.05,538c.67.11,1.32-.17,1.88.43,1.25,1.33,2.61,2.56,3.85,3.9.67.73-.11,1.83.67,2.72,1,1.17-.71,1.36-1.09,2.06s-1.31,1-1.29,1.43c.09,2.09-1.7,1.79-2.33,1.4-2.91-1.81-6.54-3.11-6.74-7.41-1.32-.78-.68-1.39.09-2.13A7,7,0,0,1,615.05,538Z"/><path d="M577,506.11c-.53-2.07,1.17-1.6,2.4-2.27,2.15-1.17,4-1.4,5.8,0a7.36,7.36,0,0,1,2.87,6.26c0,2.49-2.26,3.06-3.27,4.65-.23.37-.47.34-.7-.1-.86-1.69-2.83-1.23-4.1-2.11A8.25,8.25,0,0,1,577,506.11Z"/><path d="M645,547.45c-.44-1.73.49-2.57,2-3s2.72-2,4.77-1.21a9.39,9.39,0,0,1,5.09,5.31c.72,1.69-.64,3.32-1.69,4.68s-2.09.68-3.41.2a46.78,46.78,0,0,1-4.53-2.29C645.46,550.26,644.84,549.29,645,547.45Z"/><path d="M638,548.19a8.23,8.23,0,0,1-1.9,4.17c-.61.71-1.3,1-2,.22-.49-.54-1.25-.92-1.66-.44-1.68,1.93-2.67.35-3.44-.73-.91-1.26-2.73-2.44-1.46-4.38.4-.62.27-1.24.49-1.8,1.22-3.11,3.65-4.49,6.67-2.07C636.37,544.5,638.28,545.59,638,548.19Z"/><path d="M640.38,560.16c1.28,1.11,4,1.17,5.29,3.21.52.84,2,1.83,1.15,3.31s-1.72,3.58-3.59,4.23c-1.09.38-2.45-.66-3.43-1.1-1.83-.81-3.27-2.65-4.66-4.25-.79-.92,0-3.91,1.16-4.25S638.31,559.65,640.38,560.16Z"/><path d="M615,490.49a9.25,9.25,0,0,1,0,1.49c-.63,3.67-2.92,4.57-6.5,3.16a7.69,7.69,0,0,1-3-2.24c-.92-1-2.64-1.58-2.45-3.42,2.37-.13,2.05-3.46,4.91-3.65C611.48,485.59,615,487.32,615,490.49Z"/><path d="M567,534c.46,1.62-1.76,2.71-1,4.46a13.21,13.21,0,0,1-3.32,1.44c-1,.14-2.85.91-2.72-1.46-3.87-.79-2.14-4.69-3.73-6.77-.36-.48.33-.87.63-1,1.26-.52,2.19-1.7,3.74-1.72,1.95,0,3.57,1,5.32,1.53S566.91,532.7,567,534Z"/><path d="M614.94,571c-3.7.53-4.8-2.83-6.92-4.67-.16-.14-.07-.65,0-1,.42-2.11,2.14-3.34,3.71-4.25a3.07,3.07,0,0,1,3.94,1c.81,1.16,1.94,1.94,2.54,3.43C619.8,569.51,619.06,571,614.94,571Z"/><path d="M624.3,584c-3.38,0-5.54-2-5.3-4.75.17-1.87,3.49-4.31,5.79-4.25,1.65,0,5.46,3,4.87,3.63-1.38,1.4.09,3.23-1.26,4.56S625.59,583.72,624.3,584Z"/><path d="M565.82,559c-2.1.11-3.87.22-5.08-1.67a4,4,0,0,1-.09-4.43c.42-.51,1.07-.87,1.38-1.43.77-1.43,2.57-1.26,3.5-2.4.92,1.15,2.57,1.16,3.52,2.43,1.21,1.65,1.33,5.79-.18,7.14C567.9,559.48,566.65,558.83,565.82,559Z"/><path d="M547.63,522c-2.49.24-4.22-1.11-5.88-2.71a3.1,3.1,0,0,1-.37-4c.92-1.48,2.27-2.73,4.51-2.32,1.71.32,3.74-.31,4.13,2.31a1.12,1.12,0,0,0,.52.76c2.51,1.27.18,3,.28,4.5C550.89,521.5,549.17,522.44,547.63,522Z"/><path d="M591,498.65c0-3.16,1.85-5.49,4.35-5.66a4.61,4.61,0,0,1,3.35,1.4c1.32,1.24,1.11,3.42,2.1,5.06.41.67-3.52,3.47-4.66,3.58-.89.08-1.76-1.87-2.65,0-.7-.7-1.38-1.42-2.11-2.1S591.19,499.32,591,498.65Z"/><path d="M542,492.71a4.19,4.19,0,0,1,4.06-3.7c2.4.11,4.11,1.51,5.64,3.19a1,1,0,0,1-.1,1.69,2.07,2.07,0,0,0-.56,2.25,2.37,2.37,0,0,1-1.56,2.75c-1.3.3-2.79.49-4.09-.89s-1.53-3.21-3.08-4.26C542,493.54,542,492.87,542,492.71Z"/><path d="M573,569.5c0,2.65-1.61,4.48-4,4.5s-3.85-1.67-4-4.42c0-.66.07-1.34,0-2s-1.63-.92-.28-1.81c.92-.6,1.33-1.84,2.76-1.81C570.18,564,573,566.78,573,569.5Z"/><path d="M572,475c0-2.61,2.77-4.13,5.21-3.44,1.7.47,2.3,2.15,4,2.5s-.2,3,1.74,3.5c-.57.24-1.32.32-1.68.73-1.59,1.84-4.13-.3-5.91,1.56C574.75,480.48,572,476.9,572,475Z"/><path d="M592,485.48a10,10,0,0,1,0,2c-.39,1.78-2.6,3.22-4.21,2.49a33.38,33.38,0,0,0-4.14-2c-.5-.14-.59-.6-.65-1.13-.21-1.73,1.84-5.12,3.63-5.85,1.3-.53,3.39.4,4.73,1.77C592.18,483.63,591.92,484.55,592,485.48Z"/><path d="M568.85,490c1.38.09,2.88-.47,3.63,1.82.62,1.9,1,3.31-.57,4.79-1.13,1.09-4.06,1.9-5.4,1.39-1.66-.64-3.22-5.22-2.19-6.76a2.11,2.11,0,0,1,1.95-1.26C567.09,490.06,567.92,490,568.85,490Z"/><path d="M598,519.42c0,1.55-1.85,4.06-3.41,4.48-.31.09-.78.22-.94.08-1.46-1.35-2.87-2.75-4.3-4.13-.73-.7-.28-1.57-.33-2.35-.09-1.6.94-2.3,2.36-2.49a7.1,7.1,0,0,1,6.55,3.44A2.78,2.78,0,0,1,598,519.42Z"/><path d="M621,500.86c.53,1.7-.86,2.59-1.93,3.52s-2.09.4-3.41,0c-3.23-1.09-2.37-1.09-3.07-3.61-.87-3.1,2.67-1.42,2.48-3.22,0-.28,1.16-1.74,1.56-1.2,1,1.32,2.51.16,3.54,1.26S620.94,499.63,621,500.86Z"/><path d="M599,478.36c0,3.23-1.34,4.28-3.77,3.3-1.59-.63-3.46-.87-4.2-3.05s-1-2.18.73-3.83c.69-.64,1.19-2,2.23-1.7,1.29.39,2.81.83,3.6,2.06A18.92,18.92,0,0,1,599,478.36Z"/><path d="M562,420.85c1.48,2.3-.17,6,2.73,8.39.1,3.31,2.66,5.25,4.21,7.77.23.38.37,1,.75,1.14,1.9.59,2.1,2.26,2.83,3.77,1.37,2.84,2.44,5.51.57,8.52-.38.6,0,1.2.52,1.7a42.21,42.21,0,0,0,4.3,4.17c1.27.89,0,1.8.46,2.52.55.94,1.88,1.35,1.65,2.84a3.57,3.57,0,0,0,.69,2.72c.55.8.22,2.21.28,3.35a2.16,2.16,0,0,1-1.65,2.16c-.67.21-1.85.7-2.41-.79a10.6,10.6,0,0,1-.93-4.78,6.07,6.07,0,0,0-1.42-4.46c-.93-1.23-1-3.09-2.88-3.7-.67-.22-.73-1-.73-1.68,0-3.19-2-6-2-9.17a1.32,1.32,0,0,0-.48-1.3c-2.69-1.73-3-5.5-5.91-7-.48-.25-.5-.7-.64-1.18-.61-2.07-.75-4.33-2.55-5.95-1.18-1,.26-2.85-1-4.08-.75-.72,1.64-1.63.2-2.73-1.14-.87-.49-2.16-.54-3.25,0-.93-.38-1.94.43-2.81s1.07-2.52-.08-2.85-2-1.94-3.82-.48c-1.64,1.29-1.6-.13-.65-1.25-.28-.14-.56-.41-.83-.4-3.7.07-3.88.2-5.35-1.89a6.78,6.78,0,0,0-3.42-2.5c-1.22-.5-2.87-.8-3.47-2.88-.66-2.34-3.82-3-5-5.34-.48-1-2-1.28-1.91-2.72,0-.37-.38-1-.89-.26s-1.48.53-2.26.56c-1.31.06-.44,1.43-1.15,1.86-.28.16-.46.64-.72.67-3.05.33-4.81,2.59-6.52,4.67-1,1.24-3.16.13-3.31,1.39-.24,2.08-1.53,1.22-2.48,1.42-.47.09-1.08,0-1.37.29-.83.77-2,1.59-2.18,2.55-.42,2.22-1.29,0-1.71.33-.82.6-.35,1.55-.35,2.33,0,1.34.14,2.63-1.74,2.71.14,2.09-2.17,2.8-2.56,5s-3,3.89-4.63,5.79c-.18.19-.84.25-.83.27.24,1.1-1.93,1.91-.38,3.13-.78.74-2.47.72-1.92,2.55a2.14,2.14,0,0,1-1,2.57c-1.47.89-1.85,2.58-2.8,3.85-.75,1-1.14,4.05-1.21,6.17a4.33,4.33,0,0,1-.31,2.37c-1.46,2.48-1.41,3-.67,3,1.56.11.76,3.41,3.07,2.09,4.27,1.33,5.53.92,7.92-2.71.94-1.43,1.71-3,2.65-4.4.44-.68,1.19-1.37,2-.67.52.44,1.29.65.72,2.14a40.35,40.35,0,0,1-5.09,8.9c-.52.74-.56,1.75.66,1.7,2.61-.12,4.89,1.48,7.6,1.14a3,3,0,0,1,3.44,2.3c.31,1.72,2-1.89,2.08.66a2.06,2.06,0,0,0,1.89,1.91c1.68.22,1.07,1.47,1,2.26-.11,1.25-1.26.76-2,.74-1.09,0-2.21.33-3.24-.66-1.55-1.5-3.94-.86-5.71-1.83a12.11,12.11,0,0,0-5.89-1.56,10.06,10.06,0,0,1-3.94-1.27,8,8,0,0,1-3.49-2.44c-1.39,1.27-1.91-.31-2.85-.78-1.19-.6-2.43-.94-1.86-2.68a3.36,3.36,0,0,1-2-4.09c0-.17-.4-.64-.59-.63-2.15.11-1.64-2-1.29-2.36,1.31-1.29.28-3.16,1-4.08,1.14-1.41.46-2.86.93-4.15.9-2.46,1.68-5.16,3.31-7.08,1.76-2.08,2.3-5.08,5.08-6.43,1.29-.62,0-2.83,1.77-3.74a3.18,3.18,0,0,0,1.8-3.7c1.82-1.59,1.81-4.63,4.52-5.58,1.14-.39-1.31-1.34.11-2.12a8,8,0,0,0,2.12-2.1,1.51,1.51,0,0,0,.2-1.36c-2.16-3.26,1-6.47.06-9.7a1.7,1.7,0,0,1,.57-1.76c.86-.85,2.42-1.65.68-3.1-.3-.24-.25-.67.17-.68,2.81,0,2.31-3.29,4.18-4.21.57-3.16,3.87-3.58,5.62-5.57.61-.69.84.84,1.37.53a3.22,3.22,0,0,0,1.29-1.4c.16-.36-1.26-1.31-.45-1.26,3.09.2,5.5-3.57,8.84-1.42.55.36.79-.32,1-.61,1-1.22,2-1.74,3.17-.21a1.11,1.11,0,0,0,.92.05c.67-1.69,1.27-2.78,3.31-1.12.5.4,2.27-.62,3.58.1,1.48.8,2.88-1.13,4.74-.12a3.61,3.61,0,0,0,4.52-.83c.12-.15.64,0,1,0,1,.2.87,2.83,2.88,1.17,1.33-1.09,2.36,1.81,4,.8.93,1.27,2.3,1,3.58,1,1.55.06,2,1.76,3.63,2.17,2.3.59,4.37,2.23,6.79,2.83.66,2.61,3.42,3.06,5,4.79s2.81,3.49,4.64,4.49c1.62.88,2.19,2.81,4,3.28a1.89,1.89,0,0,1,1,1c1.89,4.43,6,5.77,10,7,3.81,1.12,6.76,3.77,10.22,5.49,1.27.64,1,1.92.22,2.89-.63.8-.44,1.14.47,1.05,3.89-.35,2.38,3.56,4,5-.15,3.39,0,6.68,1.93,9.71.42.66.09,1.76-.66,2.68-.92,1.12-1.5,2.59.32,3.83.62.42-.93,1.71.31,2.41-1.41,2.33-1.57,4.54.69,6.47.36.31.39.42.14.72-1.62,2-.62,2.86,1.28,3.83,1.43.74,1.18,3.19,2.25,3.92,1.62,1.08,2.58,1.79,1.13,3.53-.55.66-.07.87.32.9,2.42.21.75,1.23.21,1.54-1.1.63-2.33.8-2,2.67.2,1.13-.6.63-1.11.16A2.48,2.48,0,0,0,618,461l-4,2.56c-.93.72-1.61,2.51-3.12.75-.29-.35-.37-.24-.73.06-1.11.9-1.8,2.21-3.36,2.74-.91.3-1.52,1.53-2.41,2.28-3,2.51-6.39,4.48-9.55,4.6a39.73,39.73,0,0,1-4.5,0c-.81-.06-2.19.69-2.25-1,0-1.33-.57-2.8,1.67-3.35a12.59,12.59,0,0,1,2.71-.62,31.21,31.21,0,0,0,3.49,0c3.52-.49,4.57-2.61,3.12-5.92-1.11-2.54-2.13-5.11-3.14-7.69-1.53-3.9-5.11-5.7-8.43-7.23-4.72-2.19-5.16-2-7.23-5.44a1.28,1.28,0,0,1-.19-.9c.39-1.23,2-.72,2.63-1.76.12-.2.89-.08,1.28.38,1,1.12,5.93,4,7.67,4.61,1.35.48,3.11.46,3.43,2.46,0,.14.57.37.64.3,2.16-1.86,2.38-.44,2.32,1.37a2.37,2.37,0,0,0,.81,2.18,4.16,4.16,0,0,1,1.17,1.5c.48,1.12-1,3,1.59,3.35,1.12.16-.49,3,2.07,3.09.79,0-.69.74-.62,1.3.1.78-.46,1.95.43,2.24.68.23.43-.92.67-1.42s.41-.18.72-.12a11.28,11.28,0,0,0,8.51-2.13c.64-.53,1.09-1.46,1.8-1.7,2.24-.76,2.49-1.66.63-3.19-1.22-1-.36-3.59-2.77-3.76.21-1.88-1.19-3.2-1.68-4.79a9.34,9.34,0,0,1,.2-6.66c.23-.49.44-.78-.06-1.07-1.45-.81-1.41-1.86-.45-3,2-2.27-.73-4.4-.14-6.62-1.84-2-.82-4.47-.7-6.63.06-1,.54-1.73-.46-2.57-1.48-1.23-3.45-2.08-3.71-4.36-2.92-2-5.2-5.56-8.91-5.62-2.68,0-4-1.89-6-2.69-1.54-.61-2.17-3-4.46-2.5-.45-2.32-3.17-3-3.76-5.36-.14-.56-.88-2.55-2.3-.75a13.62,13.62,0,0,1-2.44-2.28c-1.65-2.55-2.4-3.94-4-4.54a9,9,0,0,1-3.66-3.14c-1.18-1.44-2.12-2.82-4.23-3s-3.87-2.44-6.27-1a.88.88,0,0,1-.82-.3c-.32-.87-.26-2-1.74-1.69-.74-1.7-2.73-.46-3.83-1.72s-2,1.38-2.89.68c-2.07-1.69-3.48-.93-5,.73a2,2,0,0,1-2.25.25c-.85-1.5-2.58-.39-3.5-1.37-.36-.38-1-.59-1-.05.09,1.56-.79,1.49-1.86,1.52-1.23,0-1.16-.77-1.3-1.58-.08-.44-.61-.49-.65-.17-.33,2.61-2.32,1.51-3.72,1.76-.15,0-.24.42-.36.65.29.11.58.2.87.32s.56.26.84.39c-.18.2-.38.6-.52.58-1.1-.15-2.49.64-3.25-.46-.4-.59-.17-1.8-1.32-1.45a2.71,2.71,0,0,0-1.71,1.55c-.2,1-.4,1.46-1.48,1.4-2-.1-3.18,2-5.15,2.06-.25,0-.43.53-.71.66-1.52.73-.15,2.5-1.36,3.49-.95.77-2.46,1.46-2.34,3s-1.29,1.95-1.47,2.89a13.62,13.62,0,0,1-.56,3c-.24.57.37.87.72,1.18,1.54,1.35,4.14,1.25,5-.62.65-1.42.83-1.7,1.95-.62.15.14.89-.06.89-.09-.07-2.56,2.88-1.21,3.34-2.46.67-1.82,2.41-1.62,3.41-2.53.67-.6.12-2.18.64-3.3.32-.69-.06-1.8.37-2.31a5,5,0,0,1,2.43-1.26c1.66-.46,1.19,1.23,1.56,1.89a14.17,14.17,0,0,0,2.89,3.8c2.42,2.11,3.84,5.38,7.3,6.32.21.06.34.5.49.77,1.5,2.82,3.66,4.75,6.94,5.2a1.43,1.43,0,0,1,.86.32c2.13,2.39,5.21,2.66,8,3.7,4.83,1.84,8.88,5.1,13.36,7.57,1.59.88.74,2.59,1.63,3.87,2.3,3.32,4.45,6.69,7.55,9.33.56.47,1.05,1.41.64,1.64-1.55.84-.36,2.64-1.41,3.45-.54.42-1.2,0-1.68-.52-1.16-1.32-2.78-2.28-3.17-4.18-2.56,0-2.59-2.55-3.77-3.88s-1.62-3-2.57-4.4c-.46-.67-.09-1.69-1-2.1a7.15,7.15,0,0,1-2.07-1.14c-.56-.85-1.45-.64-2.14-1C562.43,417.35,562,417.65,562,420.85Z"/><path d="M569,398.14c-.06,3.34,0,3.28,2.21,4.88a43.17,43.17,0,0,1,3.26,3,7.06,7.06,0,0,0,3.61,2.16c3,.56,2.86,3.81,3.86,6,.35.79-1.08,1.12-1.26.83-.79-1.32-1.84.13-2.54-.37-.9-.63-1.86-1.22-2.69-1.84a39.53,39.53,0,0,0-5.85-3.92C568,408,567.15,405.68,566,404c-.54-.81,1.55-1,.55-1.84-.41-.34-1.28,0-1.91-.17s-.94-.79-.61-1.08c1.29-1.14-.35-2.49.07-3.11.79-1.15.11-1.81-.07-2.73-.3-1.55,1.34-1,2-1.5,1.45-1.11.67.62,1,1C568,395.6,569.47,396.4,569,398.14Z"/><path d="M510.71,413.33c2,2,4.77.48,7.23,1.53,4.18,1.8,4.82,1.74,7,6.15.21.41.66.7.9,1.1C527.43,424.76,529,427,528,430c-.47.46-.4,1.29-1,2a3.54,3.54,0,0,1-2,0c-2-1,0-5-1.74-5.69-2.54-1-.26-1.31-2-3.69a23.78,23.78,0,0,0-3.3-3c-1.58-1.42-3.5-2-6.21-1.65-.27,0-.62.45-.68.06-.21-1.4-1.85-2.29-1.38-3.92A.88.88,0,0,1,510.71,413.33Z"/></svg>