<svg xmlns="http://www.w3.org/2000/svg" xmlns:xlink="http://www.w3.org/1999/xlink" width="1080" height="1080" viewBox="0 0 1080 1080"><defs><style>.a{fill:none;}.b{fill:#f15a29;}.c{fill:#f0dfd2;}.d{fill:#33ae90;}.e{clip-path:url(#a);}.f{fill:#1c6655;}.g{clip-path:url(#b);}</style><clipPath id="a"><ellipse class="a" cx="541.43" cy="429.9" rx="13.75" ry="10" transform="translate(-10.23 846.6) rotate(-75.52)"/></clipPath><clipPath id="b"><path class="a" d="M525.48,432c-10.17-2.38-13.59-9.18-13-16.23C520.5,416.32,524.86,422.06,525.48,432Z"/></clipPath></defs><title>Croissant 1C</title><path class="b" d="M523.5,388.5c-9.87.79-19,24-23,36s-14,26-14,26,27,19,53,14c19.66-3.78,35,12,35,12l15-16S573.5,384.5,523.5,388.5Z"/><path class="c" d="M546,519s3,34,1.5,65.5c-.77,16.11-2,34-2,34-6,7-13,25-7,27s30-18,28-23,1-35,3-55S546,519,546,519Z"/><path class="c" d="M361.5,673.5c19.89-8.62,61.5,3.5,80.89,7.37,13.61-14.87,46.7-26.27,67-32.32C528,643,547.1,635,557.26,635c2-8.15,8.5-15.31,17.24-20.47,53.09-31.37,71.5-63.5,86.39-68.78,10.65-16.92,20.43-33.78,32.61-48.22,18.47-21.89,32.7-47.71,51.11-55.44,3-13.37,2.84-26.58,3.89-40.56,3-40,25.38-90.74,61-82,26.5,6.5,46,45,60,90,4.61,14.83,5.87,31.92,6.89,47.37,15,3.15,24.11,9.11,28.11,24.63,8,31,17.5,73.5,6,131C903.07,649.65,893,668,878.84,685.2c10.36,15.56,9.19,36.91.66,57.3-18,43-53.5,84.5-131,112-40,14.19-85.5,26.5-107.71,7.48-15.83,5.57-38,10.85-69.14,11.5-51,1.06-89.63-19.31-115-36.86-9.11-6.3-18.83-16.41-23.63-24.34-12.48-6.71-22.4-8.6-30.47-12.78-29-15-63.09-50.27-68-65C327.5,713.5,331.5,686.5,361.5,673.5Z"/><path class="d" d="M551.5,479.5c10.88-5.54,22.36-16.82,42-7,24,12,46,43,55,57s23,50,23,50l-77.55,27L582,618l-2.5-5.5s-18.5-44.5-24-60C548.3,532.2,525,493,551.5,479.5Z"/><path class="c" d="M511.5,401.5a136.51,136.51,0,0,0-1,23c.8,21.54.5,31.5,7,39,7.54,8.7,22,7,22,7s1-1,5,4c3.53,4.42,6,12,6,12s5,1,9-1a8.74,8.74,0,0,0,5-6s-3-11-2-20c.78-7,16.49-12.47,16.5-28.5s-14.27-40.18-34.81-44.7C522.86,381.61,512,393.45,511.5,401.5Z"/><path class="c" d="M602.5,529.5s2.08,20-1,57c-1,12-5,18-4,30s-7,14-8,19c-1,5.22-1.53,9.26-3,10-2,1-3-5-3-5s-1,4-3,4-3-5-3-5-1,5-3,4-2-3-2-8c0-10,12-11,11-27-2-31.94-7-77-7-77Z"/><polygon points="629 594.5 660 583.5 661 589 643 691 644 696 633 724 603 714 618 708 620.25 683.25 623 678 629 594.5"/><circle class="d" cx="371" cy="429" r="11"/><g class="e"><path class="f" d="M562.29,427.76c-4.56,7.3-12.42,9.79-21.59,7.35C542.14,426,554.93,422.2,562.29,427.76Z"/></g><g class="g"><ellipse class="f" cx="510.05" cy="424.83" rx="13.75" ry="10" transform="translate(0.07 849.74) rotate(-79.59)"/><path class="f" d="M508.92,439a7.79,7.79,0,0,1-1.44-.13c-5.7-1-9.17-8.18-7.75-15.92h0a17.08,17.08,0,0,1,4.78-9.3,8.71,8.71,0,0,1,14.71,2.7A18.13,18.13,0,0,1,515.6,436,9.76,9.76,0,0,1,508.92,439Zm-8.21-15.87c-1.32,7.19,1.8,13.81,7,14.76a8.36,8.36,0,0,0,7.25-2.56,17.09,17.09,0,0,0,3.4-18.55,7.72,7.72,0,0,0-13.11-2.41,16.06,16.06,0,0,0-4.49,8.76Z"/></g><path class="b" d="M531.5,396.5a93.19,93.19,0,0,1,13,7c6,4,16.5,11.5,16.5,11.5s1.5,19.5,4.5,25.5,7,10,11,17c3.14,5.49,4,13,4,13S592,472,597,470c4.55-1.82,10-7,10-7,11,0,13.5-10.5,13.5-10.5s-1.15-10.77-9-16c-6-4-14.51-3.61-18-10-6-11,7.86-38-30.5-46.5-9-2-22.28-1.67-28.5-.5-16,3-23.5,15.5-23.75,24.25S522,397,531.5,396.5Z"/><path d="M803.68,316c3.06-.9,6.6,1.2,10.34,1,.63,0,.79.51,1.21.72,4.06,2.09,8.07,4.23,11.43,7.41.79.75,1.3,1.78,2.69,2,.68.11-.57,2.14.9,2.6,1.14.36,2.11.7,1.75,2.2-.41,1.72,2.35.42,2,2.09-.3,1.41.73,1.6,1.64,2.3,2,1.56,4.36,3.28,4.89,5.88.35,1.77,2.6,1.44,2.58,3.42a4.33,4.33,0,0,0,2.25,3.58c1,.7,2,2.35,2.91,3.65,1.39,2.05,2.51,4.29,3.73,6.45.68,1.21,1.1,2.69,2.06,3.6s0,2.93,2.26,3.23c1.51.2-.09,2.9,1.68,3.6-.22,2.21,2.53,1.68,3,3.18s-.19,2.78.57,4.27c1,1.92,1.11,4.25,2.91,5.79.23.2.57.57.52.76-.47,1.53,1,2.85.45,4.35a1.16,1.16,0,0,0,1.22,1.64c.85-.45,1.2-1,1.39.44.22,1.77.9,3.51.89,5.26,0,1.41.79,2.4,1,3.6.18,1-1.37,1.77-.94,3.08.22.68-.41,2,.88,1.85,1.86-.16,2.52.5,2.12,2.22-.67,2.84.73,5.42,1.21,8a26.19,26.19,0,0,1,.79,4.63c0,.8.31,1.12,1.14,1.18,1.15.09.73.57.23,1.14-.65.75-.7,1.6.45,1.8s1.25.38.48,1.36a2.94,2.94,0,0,0-.24,2.34c.53,1.68,1.37,3.31.92,5.09-.37,1.44,1.5,2.61.16,4.29-.42.52,1.89,2.28-.06,3.53,1.52.71.39,2.53,1.42,3.41.78.66.48,1.51.5,2.29,0,1.67-.58,3.71.17,4.9s-.81,2.61.8,3.43c.28.14.17,1.32-.78,1.39-.49,0-.94.06-1.06.6a1.22,1.22,0,0,0,.79.39c1.25-.1,2.23,0,2.27,1.66a.32.32,0,1,0,.64,0c.1-2.82,1.57-.68,2.34-.62a16.83,16.83,0,0,1,7.21,1.88c2.16,1.28,5,1.7,6.19,4.24.56,1.2,1.87.51,2.58,1.83,1.49,2.73,3.8,5,3.94,8.41,0,1,1,1.94,1.64,2.78.81,1,2.23,1.79.49,3.17,0,0,.22.64.32.63,1-.09,1.68.25,1.45,1.35-.8,3.88,1.47,7,2.38,10.53,0,.13.33.24.33.35-.13,4.35,1.5,8.37,2.33,12.54.65,3.23.57,6.6,1.88,9.72a6.91,6.91,0,0,1,.1,2.46c0,1.83,0,3.66,0,5.5,2.6.88-.18,2.76.81,4.37,1.15,1.87-.62,4.57-.08,7,.08.33-1,.36-.43,1.06,2.21,2.93.9,6.81,2.68,9.89.48.83-1.13,1.64-.74,1.91,1.75,1.23-.48,1.8-.41,2.84.08,1.3,1.65,1.7,1.21,3.09a2.79,2.79,0,0,0,.88,3c-1.29.69-.52,2.18-1.11,3-.91,1.32-1.66,2.18.73,2.51.72.1.18.81-.16,1-1.71.85-.69,1.87-.45,3,.38,1.83-.89,3.73,0,5.67.3.64-.16,1.22-1.05,1.21-.4,0-1,0-.65.75.79,2,1,2.13.29,3.07s0,1,.22,1.48c1,2.23-.88,4.93,1.07,7.06,0,0-.33.61-.43.59-1.92-.42-1.12,1.64-2,2.19s1.23,1.21-.07,2.19c-.81.61-.62,2.11.49,3-.73.8.18,2-.17,2.4-.89.9-.2,2.13-.71,2.71-.8.91,0,1.81-.16,2.14-2,4.25-1.6,9-2.93,13.3-1.27,4.06-.64,8.66-3.46,12.21-.55.69.09.76.28,1.08a2.93,2.93,0,0,1,0,2.73c-1.17,3.21-2.9,6.29-2.67,9.89l-4.08,9.81c-1.31.63-.29,1.4-.12,2.12l-1.18,3.18c-1.51,1.69-1.79,4-2.49,6-1,2.87-1.91,5.71-4.27,7.71a5.42,5.42,0,0,0-1.55,2.85,7,7,0,0,1-2.28,4.1c-.46.39-1,.74-1,1.56-.09,2.84-2,4.68-3.94,6.33-1.07.9-.87,3.46-3.33,2.65-.26-.08-1.1.52-.29.82,3.1,1.16,2.52,4.74,4.52,6.58-.39,2.28,1.24,3.87,2.16,5.59.72,1.34-.52,3.26,1.48,4.1.82.34,0,.77-.25,1-.62.57-.09,1.31-.35,1.86-.85,1.8,1.79,3.18.58,4.91s-.61,3.57-.48,5.27c.33,4.28-2.19,8-2.08,12.17-3.06,3-2.92,7.14-4,10.86-.34,1.22-1.68.35-1.84,1.15s1,1.06.82,2,0,1.44-1.17,1.71-2.45,1-.89,2.58c.24.24-.14.84-.37,1.3-2,4-4.56,7.81-4.77,12.57a4,4,0,0,1-1.31,2.37c-.38.29-.6-1.38-1.35-.51-.47.53.06,1.1.35,1.7.62,1.31-.25,3.12-1.8,3.89-1.76.88-3.36,1.7-2.74,4.17.39,1.55-.46,2.08-1.92,1.85a.83.83,0,0,0-1,.73c-.51,3.45-3.72,5.37-4.8,8.52-.89,2.59-3.36,4.12-4.67,6.54-1,1.92-3.09,3.2-4.2,5.27-.93,1.7-2.77,2.85-4.21,4.11-4.49,3.91-8.55,8.34-13.51,11.7-1.68,1.14-3.12,2.67-5.18,3.19-.26,2.3-2.8,2.48-3.71,3.91-1,1.61-3.58,0-4.06,2.66-.26,1.48-2.32,2.54-4,3.2-1,.4-1,2.4-2.85,1.56-1.29-.59-1.42,1.51-2.51,1.59-1.93.14-1.35,2.62-3.15,3.1a18.08,18.08,0,0,0-6.31,2.75C800,833.29,798,834.67,796,836a82.54,82.54,0,0,1-10,5.9c-1.23.56-.54,2.89-2.51,2.18a4.53,4.53,0,0,1-4.69,2c-2.21-.28-3.14,2.85-5.55,2.26-4,2.37-8.91,3-12.34,6.38a1.41,1.41,0,0,1-1.37.31c-2.41-.36-4.29.77-6.18,2-3,2-7,1.62-9.84,4-2.57-1.28-4.16.3-5.94,1.83-.72.62-2.3-.14-3,1.13-5.66-.3-10.52,3.65-16.24,3-1.15-.12-1.4.5-1.34,1.49,0,.16-.6.55-.72.48-2.51-1.47-3.94.27-5.49,1.75a1.37,1.37,0,0,1-.87.27c-2.89,0-5.85-.36-8.23,1.86-1.45-1.94-2.74.38-4.11.14-3.63-.62-7,1.45-10.59,1-1.8-.2-3.94,1.87-5.31-.9-1,2.05-2.49-.29-3.89.45-1.78.93-3.82,2.86-6.06.6-2.58,1.8-5.05.09-7.6-.15-5.1-.48-7.65-1.55-13.19-4.43-2-1.05-3.68-2.43-5.57-3.46-1.08-.59-2.4-2.36-2.89-1.85-1.47,1.5-3.51,0-5,1.55-1,1.11-3.26,1-4.6,1.95s-1.89-1.24-3.29-.1c-.91.75-2.07,1.4-3,2.25-.09.08-.35,0-.46.06-1.19.84-1.93-1.5-3.37-.38-.59.46-1.64,1.61-2.66.83s-1.08.14-1.43.46c-.87.78-1.62,1.87-2.79.41-.09-.12-.31-.31-.34-.29-4,2.92-8.92,1.74-13.13,3.33-1.4.53-2.75-1.72-4.07.53-.53.91-3-.54-4.61.74-.34.28-1.83-.62-2.66-1.18-1-.68-.94,0-1,.64-.13,1.1-.59.9-1.13.27-.74-.87-1.2-1.37-2.6-.5a5.72,5.72,0,0,1-4.38,0c-1.52-.56-2-1.06-2,1.13,0,1.87-.88.26-1.34,0s-1.19-2.2-1.64.21c-.25,1.33-1.38,1.94-2.68.73-4.09.44-7.94-1.67-12.08-1-2.74.42-5.22-1.43-8.09-1a65,65,0,0,1-8.49.08c-.34,0-.74.12-1,0-1.09-.62-2.08-1.42-3.2-2s-2.1,1.76-3.15,0c-1.39.54-2.78-1.7-4.17,0-2.22-1-4.8-.51-6.9-1.44-3.37-1.5-6.74-2.67-10.44-2.53-1.51.06-2.53-1.07-4.08-1.2s-3.3-2.44-4.87-2.35c-2,.12-3.17-.82-4.65-1.48a84.13,84.13,0,0,0-10.33-4c-1.6-.47-3.64-1.08-4.44-2.3-1.3-2-3.7-1.1-5-2.71-1.14-1.41-3.37-1.24-4.56-2.09-3.47-2.47-7.58-3.79-10.86-6.46-1.38-1.11-3.39-1.54-4.33-2.59a12.53,12.53,0,0,0-3.85-2.82c-2.26-1.15-2.9-4-5.33-5,.06-1.9-1.76-2.17-2.81-2.68-3.43-1.65-5.53-4.83-8.55-7-2.58-1.83-4.11-5.17-6.08-7.86-1.19-1.63-1.17-1.64-3.54-1.43-.65.06-1.31.12-1.47-.82-.3-1.83-1-1.81-2.83-1.39-1.2.28-3.25-1.27-4.25-2.54-1.21-1.54-1.82-2.75-3.32-.41-.11.19-.95.13-1.28-.08-.55-.35-.9-1-1.46-1.35-1-.54-.54-1.81-1.39-2.36-.86,1.42-1.64.59-2.09-.22-.76-1.37-1.8.42-2.08-.14-.53-1-2.42-.08-2.38-2,0-1-1.07-1-1.81-.31-.34.29-1.08.69-1,.14.45-2.9-1.76.08-2.27-1.11A2.45,2.45,0,0,0,403,803c-1,.19-.77-.7-1-1.25-.35-.7-2.81-1-4.58-2.14-1.14-.76-3.82.58-3.53-2.25-1.47-.47-2.95-.9-4.41-1.42-1.28-.46,1.75-1.69-.21-1.87-2.78-.25-3.23-.74-5.3-2.26-1.5-1.1-2.35-3.88-5.13-2.83-.19.07-.72,0-.56-.83.22-1.08-.33-1.37-1-.82-1.11,1-1.46.47-1.21-.54s1.61-1.89-.66-1.88a5.35,5.35,0,0,1-1.69-2.1c-.16-1.32-1.79-.65-2.23-1.75-.55-1.36-1.31-.64-2.16-.09-.47.3-1.09,0-1.38-.86a4.43,4.43,0,0,0-3.33-3.13c-2.09-.53-2.93-2.62-4.17-4.11-.87-1.06-.48-2.79-2.42-3.5-1.42-.51-2.25-2.47-3.64-3.29a20.64,20.64,0,0,1-7.42-7.43,3.41,3.41,0,0,0-1.75-1.57c-2.68-.68-3.56-3.32-5-5-1.25-1.45-2.1-3.47-3.59-4.93a1.43,1.43,0,0,1-.61-1.25,4,4,0,0,0-1.48-3.91c-1-.84,1.29-2,.45-2.23-2.12-.66-1.69-2.69-2.66-3.92-2.21-2.82-1.83-6.54-3.27-9.64-.2-.41-.24-1.24,0-1.44,2.17-1.77,0-3.11-.43-4.56-.3-1-1.62-2.36-1.36-2.69,1.13-1.46,1.24-2.6-.11-3.88a5.78,5.78,0,0,1,.47-.68c.77-1.19,2.48-1.63,2.46-3.5,0-1.06-1.77-2-.25-3.09-1.32-1-1-2,.16-2.75,1.67-1.08,1.88-2.85,2.5-4.48s.57-3.58,2.44-4.49c-2.44-2,1.64-1.27,1.13-2.65-.58-1.58,1.49-2.22,1.63-3.26.27-2,2.28-1.49,2.93-2.73.29-.57,1.37-1,1.31-1.42-.45-3.19,2.1-3.92,4.06-4.38,1.52-.36.38-2.5,2-2.15,1.57-2.33,4.43-3.11,6.2-5.43,1.12-1.48,3.76-2,5.84-2.47,1.39-.29,2.83-1,4.05-.94,1.48.08,2.75-2.63,4.24-.31,1.33-1.22,3-.67,4.52-.88,1.88-.25,3.95.87,5.65-.9.42-.45,1.11.29,1.69.55,1.05.46,2.56,1.42,2.82-1,0-.43.44-.85.92-.21.81,1.08,1.52,1.61,3,.65.79-.51,2.78,2.62,3.25-.79.06-.41.36-.06.7,0a89.38,89.38,0,0,0,9.43,2.55c.91.17,1.73,1.3,2.4.76,2.07-1.65.82.89,1.45,1.06,1,.27,1.41-1.16,2.84-.38a19.91,19.91,0,0,0,9.38,2.51c2,0,1,2.35,2.59,2.17,1.25-.15,2.63.34,3.56-1,1.87,3.26,5.87,1.05,8.19,3.17.34.31.79.75,1.17.73,1.39-.09,3,.94,3.86.52,1.29-.63,1.28.4,1.85.65s1,1.39,1.29.29c.59-2.52,1.6-1.6,2.5-.44s1.47.93,2.15-.06c.18-.25.22-.62.44-.81,1.28-1.09.31-3.11,2.17-4.27a21.54,21.54,0,0,0,3.65-3.15c.78-.8,1.48-2.18,2.92-.73.13.13,1-.17,1.23-.48,1.79-2.1,5.08-2.35,6.38-5.16a3,3,0,0,1,2.67-.9c1.15.27,2.61.17,3-1.6.25-1.16,1-1,1.82-.49.31.2.38.87,1.08.3,4-3.26,4-3.09,7.39-3.68,2.11-.38,4.59-.76,6.06-2.08,1.92-1.72,4.39-1.76,6.26-3.11.92-.66,1.19-.46,1.84.14.27.26,1.26.27,1.27-.19,0-2.77,3.2-.93,3.84-2.71,4.38.12,8.05-2.35,12.12-3.41,1.72-.45,3.81-.1,5.33-1.57s3.67-1.1,5.56-1c1.16.08,1.51-1.2,2.59-1.09.68.07,1.88-2.11,1.93.57,0,.66.79.21,1-.15,1.31-2.59,4.59-2.09,6.38-4.13.59-.68,2.51-.28,3.82-.24s2-.17,1.72-1.59c-.34-2,1.48-3.55,1.07-5.6-.08-.41.74-1,1.09-1.51.23-.33,1.05-.6.58-1-2.36-2.09,1.1-3.82.29-5.81a1,1,0,0,1,.32-1.34c3.35-1.81,2.57-5,2.65-7.9,0-1.07.27-1.69,1.24-.51a.36.36,0,0,0,.68-.19c.16-1.1-.16-2.34,1.07-3.06-1.74-1.22.46-2.38.07-3.69-.43-1.48,1.11-2.49,1.53-3.83.1-.33.44-.5.16-.71-1.41-1.06-.69-1.92.23-2.78-.66-.52-.73-1.45-1.14-2-.9-1.21-1-1.45.64-1.56.62,0,.85-1.23.29-1.58-2.07-1.33-1.68-3.33-1.82-5.29-.12-1.74.84-3.66-.64-5.22-.31-.33-.37-.45.06-.72,2.83-1.77.79-5.28,2.63-7.41-2.38-1.35,1-3.42-.39-4.45-1.78-1.36,1.29-2.85-.46-3.91,1.71-1.32-.89-2.26-.31-3.8.42-1.09.61-2.38,1.13-3.54.09-.19-.13-.61-.31-.84-2.35-2.79-1.55-6.13-1.66-9.31-.09-2.47,2.19,1.74,2-.67-.12-1.17,1.16-3.19-1.52-3.29-.43,0-.39-.38-.16-.69,1.61-2.25.34-4.81.73-7.19s-1.76-4.57-1-7.09c-1.92-2.2-2.57-4.93-3.25-7.65-.11-.43-.77-.85-.7-1.18.37-1.72-1-3-1-4.59,0-1.83.21-3.7-1.78-4.77.76-2.42-2.79-4.55-.39-7.16,1-1.14-1.74-2.24-.78-2.9,2.35-1.63.28-3.63.68-5.41s1.45-3.58,1.25-5.53c-.13-1.17.17-1.68,1.53-1.86s-1.59-1.72.2-1.79.89-1.85,2-2.37c.85-.41,2.09-1.44,2-2-.14-1.05-.87-1.86.91-1.79-.29-1.06-.39-2.25-1.45-2.85-.36-.2-1.1-.13-1-.61s.82-.31,1.26-.46.68-.65.09-.94c-.4-.2-1.23.2-1.3-.38-.47-4.16-3.52-4-6.34-3.59-4.51.64-8.3-2-12.58-2.35a5,5,0,0,1-2.4-1.38c-1.7-1.42-3-3.13-5.51-3.71-1.65-.38-2.87-2.63-4.29-4.05,1.56-.92-.13-1.75-.07-2.64a3,3,0,0,0-.71-2.22,7,7,0,0,1-1.28-6.12c.31-1.16-1.21-1.45-.66-2.44.92-1.67-1.57-2.87-1-3.74.9-1.48,1.08-3,.35-4.07-1-1.36-.45-1.86.28-2.89s-1-1.49-1-2.54a35.25,35.25,0,0,1,.08-4.49c.22-1.15.36-2.3.54-3.45a10.48,10.48,0,0,1,.43-1.31c.54-1.61-1.49-2.92-.91-4,.77-1.44,1.32-2.43.19-3.87-.59-.76.9-1,.74-2-.22-1.27-.27-2.68,1.15-3.48.44-.25.49-.22,1.86,3.27.37.93,3,1.05,1,2.82,1.85,1.26.59,2.54-.13,3.61-1.28,1.9-1.43,3.51.54,5,.6.45.82,1.42.26,1.63-1.73.66-2.62,1.26-.81,2.88a1,1,0,0,1-.28,1.31c-1.09.7-.83,1.87-.61,2.71a29.78,29.78,0,0,0,1.78,4.12c-1.57,1.32-.62,3.09-.8,4.65,0,.35.4,1,.87.25.29-.44-.17-1.53.71-1.35s.42,1.18.33,1.76.72,1.73-.65,1.79c-.39,0-.81-1.29-1.26-.09-.22.58-.07,1.38.9,1.32a.93.93,0,0,1,1.06.75c.35,1.15-.79,2-.67,3,.08.57,1.92.05,1.72,1.7s-.33,3.64,1.63,4.82c.88.53-1.3.93-.23,1.76a8.72,8.72,0,0,1,1.54,1.86c.16.23.1.81.26.85,1.47.42,3.25.25,3.76,2.3.39,1.6,2.59,1.12,3.14,2.61.08.21.53.33.82.38,1,.17,1.44-1.61,2.55-.92a26.39,26.39,0,0,1,2.22,1.91c.21.16.66,0,1,0,1.21.17,1.73-1.34,3.11-1.09.81.14,1.76,1.95,2.66.09,4.91-.79,8.42,2,9.58,7.09a52.66,52.66,0,0,0,3.23,8.64,2.15,2.15,0,0,0,2.91,1.19c2.29-1.4,5.12-.95,7.38-2.82s2.37-1.44,1.14-4c-2.28-4.72-4-9.48-1.86-15,1.14-3,2.15-6.1,3.53-9a20.21,20.21,0,0,1,2.41-2.42c.61-.51,1.18-1.06,1.77-1.6.89,1,.74,2.91.34,3.22-3,2.23-1.29,6.72-4.45,8.73-.64.41-.08.68.1,1.07.59,1.36.88,2.76-.22,4s.08,1.73.72,2.41,1.37.47,2.07-.17a14.09,14.09,0,0,1,5.17-2.4,15.9,15.9,0,0,1,6.09-1c2.22.19,4.59-.3,6.41,1.41.73.69,1.47.52,2.25.65,4.58.72,12.89,4.63,16.22,7.85.86.84,1.93,1.05,2.84,1.68,1.64,1.15,4,1.22,4.25,4.15a2.14,2.14,0,0,0,3.52,1.37c.72-.53,1.37.7,1.86,1.28.15.18-.34.9-.53,1.37l1.88.28c2.19.34-.94,1.53.25,1.8,1.55.35,3.18.16,3.71,2.34.35,1.44,2.84,1,3.12,3.16.09.7,1.75,1.65,2.59,2.64.37.45,1.69-.31,2.18.58.19.36-1.37.53-.53,1.38,1,1.06,2,2.42,3.24,3a9.58,9.58,0,0,1,5.24,6.86c.37,1.56,1.72,2.19,2.33,3.54.52,1.15,2.76,1.42.82,3.32-.34.33-.09,1.18.83,1.4.55.13,2.94,3.69,3.12,4.22.6,1.89,2.28,3,3.42,4.46,2.35,3,3.81,6.75,7,9.16.25.19.64.55.59.73-1,3.63,3.14,5.45,3.07,8.76,0,.36.57.78,1,1.09.88.74,1.75,1.07,2-.53.14-1,1.2-1.4,1.06-2.59-.23-1.94.17-3.69,2.45-4.4.74-.23.51-1.13.49-1.76a5.92,5.92,0,0,1,2-4.68c4.84-4.54,7.27-11,12.38-15.36a1.73,1.73,0,0,0,.62-1.74,2.06,2.06,0,0,1,1.5-2.29c2.56-.3,2.82-2.52,3.38-4.1a6.29,6.29,0,0,1,1.49-2.9c1.54-1.41,3.31-2.84,3.56-5,.2-1.77,2.06-.67,2.44-1.93a22.62,22.62,0,0,1,1.35-2.44c1-2.35,3.54-3.68,4.29-6.22,2.82-.4,2-4.43,4.8-4.84a10.32,10.32,0,0,1,3.55-5.51c1.78-1.29,2.26-3.64,3.92-4.84s2.1-4,4.49-4.61A23.31,23.31,0,0,1,721,458.33c-.19-3.39,3.09-5,4.14-7.79a3.75,3.75,0,0,1,4.34-2.55,1.7,1.7,0,0,0,1.72-.66c1.38-1.46,2.59-3.4,4.29-4.11s3.41-1.43,5.13-2.1c1.94-.74,2.49-1.77,2.38-3.57a6.68,6.68,0,0,1,0-1c.38-3.52-.88-7.18,1-10.6.72-1.31-1.71-2.42-.8-3.46a3.69,3.69,0,0,0,.74-3.67c-.43-1.5,2.35-2.38.53-3.88s.87-2,.68-3.42c-.22-1.63-.7-3.47.76-5.16.55-.63.44-2.4-.55-3.65-.77-1,1.65-1.06,1.26-2.81-.44-2,1.49-4.4-.55-6.44,2.2-.88-.25-2.45.5-3.46.9-1.23-.06-2.7.51-3.79,1.8-3.39,1.69-7.34,3.18-10.68.85-1.93.75-3.95,1.53-5.86.69-1.7,2.88-2.66,2.34-5.1-.37-1.73,1.39-3,2.21-4.53,1-1.72,1-3.9,1.73-5.77.64-1.68.84-3.8,3.17-4.27.52-.11.69-.43.83-1,.68-2.76,3.75-9.3,5.68-11.1,1.7-1.59,2.41-3.81,4.15-5.34s3.12-2.95,4.67-4.39a45.18,45.18,0,0,1,10.73-7.76c2.8-1.36,5.88-2.05,8.23-4.32.35-.34,1.28-.09,1.94-.09ZM627,600.64c0-1.15,0-1.82,0-2.49-.06-1.49-.49-.72-1.33-.42-2,.71-4.32.8-6.08,2.22-.91.73-1.4,1.5-2.86.47-1.1-.78-2.25,2.16-4.16.79-.54-.39-.33,1-.67,1.35-.67.73-1.27,2.05-2.53.49-.27-.33-1.35-.14-1.36.82s-.5,1.43-1.14,1.07a2.41,2.41,0,0,0-2.73,0c-.62.36-1.15-.22-1.16-1.06,0-.37-.63-1.09-.65-.58-.06,1.33-1.33,2.39-.76,3.76.87,2.06.54,4.26.28,6.3a13.47,13.47,0,0,1-1,3.06c-.52,1.21,1.93,1.59.41,2.87-1,.87.35,2.59-.75,3.65-.39.37-.38.56-.08,1.09,1.3,2.24.24,3.81-1.39,5.51s-3.8,2.25-4.6,4.47a8.09,8.09,0,0,1-2.58,2c-.55.28-1.32.64-1.48,1.13-.79,2.4-3.14,3.8-3.54,6.57s-2.54,3.11-4.87.86c-.39-.38-1-.61-1-.09.06,2.17-2.23,1.36-2.94,2.5-.92,1.47-2.53-.19-3.84.9-1.1.94-2.69-.21-3.22-1.42-1-2.33-1.89-4.88-.57-7.35.46-.87.06-1-.32-1.45-.6-.69-1.9-1.38-.87-2.35.76-.71.23-2.22,1.42-2.28,2.16-.1.8-1.77,1.33-2.52.77-1.11,2.63.05,3.4-1.43a1.27,1.27,0,0,0,.15-1.09c-.21-1,0-1,1.71-1.17.67,0,.67-.37.7-.85a.79.79,0,0,0-.83-1c-.78,0-1.23-.27-1.18-1.13s.75-.84,1.4-.9c.8-.08,1.76.41,2.36-.3.93-1.09-.72-1.62-.73-2.47,0-2.28,1.48-.23,1.51-.35a32.21,32.21,0,0,0,1-4.76c0-.16-.88-1.82-1.65-.44-1.45,2.58-5.31,2.15-6.28,5.22-2.74-.54-3.43,2.45-5.55,3.28-2.45,1-3.71,3.91-6.06,5.39.6,2-1.52,2.76-1.91,4.19s-.05,3.31-.1,5c-.07,2.39.73,5-1.89,6.75-.24.16-.28,1.07-.07,1.4,1.12,1.76.94,3.68,1,5.61,0,1.72-1.07,3.39-.09,5.2a2.18,2.18,0,0,1-.36,2.3,3.93,3.93,0,0,0-.24,4.56c.7.9,1.76,1.11.67,2.36,1.4,1.49.24,2.79-.45,4a2.22,2.22,0,0,0-.17,2.11c.65,2.41,2.45,4.38,2.59,6.92.06,1,0,2,1,2.59-1.71,1.18-.14,1.77.49,2.46.41.44.44.71,0,1.07a1.87,1.87,0,0,0-.39,2.27c.39.86,1.12,1.54.93,2.63-.15.87,1.66,1.71.06,2.64,1.48.78-.19,1.61,0,2.17,1,3.06,3.21,5.71,3.3,9.13,2.63,0,1.63,2,1.57,3.23-.09,2,1,3.78.92,5.58s2.53.71,2.22,2.61a5.13,5.13,0,0,0,.39,3.8c.4.65-.67,2.07,1.19,2.13.55,0,.16.9.36,1.3.91,1.79.92,3.87,2.4,5.54,1.28,1.46.9,4,2.55,5.41-2.11,1.23-.41,2.51.08,3.63s1.82,1.8,1.83,2.7c0,1.56.92,2.31,1.7,3.35.56.76,1.26,2.16.93,2.68-1.31,2.12,2.43.61,1.59,2.44-.24.53.69,1.63,1.12,2.44a7.13,7.13,0,0,0,1.45,2.36c.8.59-2,2.14.69,2,.45,0,.95,1.44,1.45,2.2,1,1.57.55,4,2.17,5s.49,2.79,1.6,4c.38.4-1.1,2.11-.43,3.28s2,1.56,1.92,3.24,2.85,2.43,1.93,4.67c1.69,1.43,1,3.85,2.42,5.52,1.15,1.41.71,3.85,2.22,5,1.84,1.39.85,4.15,3.08,5.34.73.39,1,1.87,1.26,2.9a16.73,16.73,0,0,0,3.36,6.61c.61.69,1.56,2,1.34,2.33-1,1.55.19,2.1.93,2.89a16.42,16.42,0,0,0,1.78,1.76c.81.64.24.95-.16,1.44s-.36,1.51.28,1.62c.92.17,1.61.2,1.49,1.36-.17,1.58,1.18,2.51,1.63,3.83s.31,3.17,2.37,3.43c1.11,3.87,4.55,6.35,6,10,.17.42-.17,1.17.42,1.3,2.13.48,2.3,2.12,2.65,3.85.25,1.17,1.14,2.2,1.48,3.37a6.39,6.39,0,0,0,2.91,3.74c1.9,1.1,1.55,3.12,2.31,4.61,1.58,3.12,4.37,5.12,6.42,7.77s5.09,4.29,7.5,6.67c1.19,1.17,3.4,1.51,4.69,3,2.32-.74,2.54,2.25,4.4,2.49.49.07,1.35,1,1.65.61,1.21-1.75,2.48-.15,3.18.16,2.19,1,4.4.77,6.64.9,1.31.08,2.86-1.52,3.93.6.44.86.72-.15,1-.33,1.37-.78,3.28.43,4.42-1.18,1.36,2.69,3.48.79,5.29.94,5.07.42,9.83-1.15,14.66-2.12,3.37-.67,6.71-1.54,10.09-2.21a93.67,93.67,0,0,0,14.22-4.26c1.34-.5,1.77,1.52,2.81.37a6.57,6.57,0,0,1,1.8-1.7c.36-.16.81.49,1.76.33,2.69-.43,4.65-2.67,7.53-2.51,2.69.15,4.62-3.16,7.66-2,2.42-1.91,5.7-1.18,8.32-2.9,2.4-1.58,5.45-2.13,8-3.46a49.87,49.87,0,0,1,9-3.69c2.2-.64,4.73-1.25,6.31-2.73,3.09-2.89,7-4.18,10.4-6.33,3.71-2.33,8.09-3.56,11.17-6.89,1.76.34,1.19-2.07,3-2.33a9.23,9.23,0,0,0,5.66-3.28,4.17,4.17,0,0,1,3.36-1.4c.49.06,1.25,0,1.26-.45.05-2.08,2.26-2.06,3-3.22.93-1.5,2.83-1.48,3.46-2.41,1.82-2.63,5.25-2.5,7.1-4.85,2.13-2.72,5.09-4.67,7.81-6.56,5.18-3.6,9.36-8.32,14.54-11.84,2-1.39,2.74-4.25,4.69-5.44,2.46-1.5,2.31-4.15,3.8-5.92.58-.68.37-1.77,1-2,1.21-.5,3-1,2.55-2.31-.89-2.46,1.93-1.53,2.3-3.09s.85-3.91,3.43-4a9.23,9.23,0,0,1,4.15-5.22c.26-.17.29-.92.22-1.36-.22-1.24.6-2.09,1-3.11s-.09-2.42.82-3.71c.47-.68,1.63-1.66,1.24-2.94,1.68-.55.12-1.86.69-2.9,1.82-3.38,3.17-7,4.7-10.54,1.15-2.69,1.46-5.76,3.61-8-.3-2,.93-3.58,1.62-5.32s.86-4,1.41-5.92c.3-1,1.11-1.84,1-3.1a15.47,15.47,0,0,1,.21-5.4c.42-1.46-.84-3.13.71-4.39a1.49,1.49,0,0,0,0-1.42c-1.77-1.46-.11-3.89-1.14-5-1.37-1.48-.11-3.27-1.28-4.54a9.91,9.91,0,0,1-2.31-4.5c-.86-4.64-4-7.13-7.46-9.51-.42-.28-.84-.39-.79-1,.23-2.66-2.27-3.41-3.6-5-.27-.32-1.41.06-1.37-.89.12-2.34-1-3.1-3.23-3.31-.68-.06-1.54-1.86-1.71-3-.32-2-3,.34-3.21-2.06-.13-1.21-.83-3-2.77-3.23.28-2.6-2.73-.86-3-2.07-.49-2.52-3.34-1.59-4.14-3.14a9.83,9.83,0,0,0-4.31-4c-2-1-3.12-2.85-4.86-4-1-.66-.22-2.9-2.41-2.46s-1.2-2.23-2.7-2.86c-2.94-1.24-5.22-3.58-7.78-5.46-1.39-1-2.12-2.81-4-3.29a14,14,0,0,1-3.76-1.75c-.91-.55-1.45-2.06-2.84-.79.08-1.93-2-1.72-2.78-2.76a2.53,2.53,0,0,0-2.06-1.1c-2-.09-2.12-.34-4.6-1.92-1.82-1.17-3.21-3.2-5.74-3-.84.06-.83-.79-1.19-1.09-1.48-1.21-2.28-3.75-5-2.92-.6.18-.79-.5-1.2-.71a56.46,56.46,0,0,0-7.1-3.39c-3-1.06-5.46-3.53-8.66-4.4.36-2.74-2.56-.6-3.07-2.06-2,.39-1.46-2.5-2.9-2.37-2.13.2-2.65-1.71-4-2.48s-3.49-.68-4.47-2.5c-.82-1.51-2.45-2.09-3.85-2.77-1.08-.53-1.64-.84-1.81-2.24-.23-1.81-1.22-2.18-3-1.45-1.16.5-2.22.82-3-.28-2.12-2.77-6.06-3.06-8-6A1.3,1.3,0,0,0,743,592c-5.4-.69-8.67-5.43-13.56-7.08-.13-2.91-3.74-1.35-4.48-3.48-6.58-4.1-13.27-8-20.24-11.46-4.57-2.25-9-4.84-13.57-7-2.84-1.37-5.43-3.2-8.79-2.94-.49,0-1,.06-1.3-.46-1.71-3.5-7.38-1.77-8.32-6.29,0-.07-.3-.16-.33-.13-2.41,2.69-2.13-.82-3.13-1.35a19.06,19.06,0,0,0-3.29-1.71c-.8-.24-2.2-.47-2,1.23s-1.19,4.32,1.88,5.16a1.1,1.1,0,0,1,.08.9c-1.29,1.22-.65,1.39.64,1.95.74.31,1.25,1.83,1.31,2.83.09,1.64,1,3,1.37,4.49.31,1.37,1.25,2.5,1.16,4.22-.07,1.39,1.36,2.63,1.71,4.26.24,1.12,1.64,2.36,2.74,3.2,1.58,1.21.29,2.87,0,3.07-2.75,2-5.68,3.7-8.56,5.49-1.83-1.9-2.42.61-2.69,1.17a8.47,8.47,0,0,0-.59,3.39c0,2.65,0,3.58-1.22,5.19-.37.52-1.27,1.12-.81,1.6,1.58,1.68-.19,3.18-.23,4.71s-1.59,3.08.11,4.65a4.48,4.48,0,0,0-.93,5.78c-1.87,1.78-.87,4-1,6.09-.08,2.26-1.43,4.2-1.16,6.59.19,1.65.53,3.42-.48,5.26-.69,1.28.66,3.39-1,4.75-.61.51-.13.78.17,1.06a2,2,0,0,1,.33,2.31c-2.16,4-1.78,8.57-2.8,12.82-.3,1.24-1.36,2.07-1.22,3.56.24,2.52.52,5.23-1.55,7.31-.34.34-.26.38-.08.74,1.49,2.83-.16,5.57-.9,8-1.07,3.52-1.08,7.44-3.36,10.58.3,2.77-1.65,5.24-1,8.07.13.62-.1,1.36.85,1.46,1.54.16,1.49.94.73,1.94-1,1.24-.37,3.28-2.12,4.12.14,2.25-2.46,3.41-2.35,5.48.07,1.46-.77,2.39-1.07,3.6-.26,1.05.53,2.51-.84,3.12-1.57.71-.12,2-.78,2.88-2.31,3.15-3.39,6.94-5.16,10.37a3.21,3.21,0,0,1-2.25,1.85,8.59,8.59,0,0,1-3.17,0c-2.93-.57-5.13-3.45-8.46-2.55-.54-1.19-2.25-.55-2.77-1.77-.88.57-1.39,1.08-2.84.37a67.81,67.81,0,0,0-8.08-3.39c-1.2-.4-1.62,1.1-2.41.62a9.42,9.42,0,0,1-2.14-2.09c-.79-1-1.84-.42-2.76-.61-2.41-.51-4.21-3.43-3.23-5.53.36-.75,1.6-2.18,2.24-1.38,1.55,1.92,2.82.51,3.72-.16a5.05,5.05,0,0,1,4.13-.87c3.28.58,5.59-2,8.55-2.42a2,2,0,0,0,1.24-2.41c-.25-1.08.38-2.22-.52-3.3s.88-1.68.58-2.89c-.42-1.62.36-3.29.45-4.91.08-1.36-1-9.27-.45-10.37.32-.66.45-2.09,2.33-1.06,2.12,1.15,3.17,0,2.5-2.2a2.81,2.81,0,0,1-.28-1.82c.26-1.27,1.85-2.61.46-4.09,1.66-1.57.76-3.06,0-4.66a1.45,1.45,0,0,1,.34-1.81c.59-.44,1-1.21.47-1.67-1.08-1-1.08-1.75-.08-2.88.31-.34-1.64-1.65-.46-2.24,1.72-.86-1.49-2.09.43-2.57.46-2.78.82-5.76-.06-8.28-.56-1.61-.64-2.34.55-3.18,1.73-1.22-.3-3.73,1.75-4.78a5.83,5.83,0,0,1-1.66-.74,1.81,1.81,0,0,1-.21-2.25c1.07-.95.53-2.19.94-3.15.92-2.11-.5-4.73,1.58-6.52.8-.69-.12-.68-.44-.84s-1.13.3-.86-.94c.6-2.74,2-5.41.76-8.45a4.92,4.92,0,0,1,.39-3.76,11.09,11.09,0,0,0,1.37-5.85A23,23,0,0,1,627,600.64Zm283.65-84.86c.51-.65-.42-.7-.41-1.06,0-1.34-1.48-2-1.28-3.51s-.61-2.85-.5-3.95c.16-1.57-1-2.78-.5-4.31s-.94-2.87-.83-4.06c.41-4.63-1.8-8.73-2.28-13.16-.09-.83.22-2.06-.24-2.49a4.42,4.42,0,0,1-1.6-4.37c.23-1.15-.65-1.71-1.11-2.55-1.09-2-3.43-3.5-2.91-6.29.17-.93-.54-1-1.25-1s-1.41.19-1.72-.56c-1.13-2.71-3.91-3.09-6-4.52-4-2.73-9.22-1.83-13-4.91-.1-.08-.32,0-.49,0-2.94.34-5.6-1.2-8.58-1.22-1.73,0-3.44.69-5.17.23-.86-.22-1.78-1.87-2.4-.76-.91,1.65-1.81-1.09-2.68.36-.44.74-1.28-1.14-2.35-.63a4.65,4.65,0,0,1-3.7.12c-1.08-.34-2.37-.17-3.44-.84-1.85,2.05-2.42-.33-3.47-1-.3-.2-.43-.17-.72.19-.64.76-1.45.88-2,0-.74-1.08-1.14.62-2.22,0a13.79,13.79,0,0,0-6.84-1.28,23.29,23.29,0,0,1-5.58-.6c-1.15-.2-1.92-.9-2.8.27-.93-1.54-1.81-.07-2.63.13-1.47.34-2.22-1.36-3.6-1.05-1,.22-1.54-.56-2-1.18a2.05,2.05,0,0,0-2.63-.74c-1.22.69-1.84,1.18-3.32.06-1.21-.91-3.53.59-5-1.09-2.37,2.2-4.46.52-6.45-.62-1.42-.81-2.25-.19-3.51.35-.73.32-1.49-1.7-3-1.92-1.08-.15-1.79,2.22-2.75.31s-2.17.31-3.1-.2c-2.28-1.24-4.31-3.23-7.28-2.16-2.46-1.73-5-2.89-7.84-.83a1.14,1.14,0,0,1-1,0c-4.81-2.62-10-2-15.18-1.91a12,12,0,0,1-4.59-1.06c-.93,1.64-2.94.68-4.32,1.79-.81.66-2.75.87-4.35.75-1.07-.07-2.2,1-3.35,1.44s-1.52,2.39-3.16,2c-2.2-.53-1.13,2.09-2.42,2.42-.29.07-.47.48-.76.58-1.54.55-2.42,1.94-3.28,3.08s-1.42,2.93-3.09,3.61c.85,2.21-2.15,2.82-2,4.66.19,2.06-2.81,2.07-2.52,4.49.14,1.08-2.88,1.36-2.75,3.75,0,.74-2.3.87-2.94,2.62-.41,1.12-2.07,1.91-2.06,3.55-3,1.63-3.57,5.3-6.19,7.45-1.72,1.41-2.42,4.07-5,4.83a1,1,0,0,0-.57.68c0,1.79-.29,3.7-2.13,4.22-2.59.72-1.23,3.47-2.88,4.68a5.86,5.86,0,0,0-1.94,3.13c-.26,1.06-.59,1.37-1.58,1.29-.46,0-1.39-.15-1.3.33.48,2.41-1.91,2.52-2.81,3.79-2.94,4.15-6.16,8.15-9,12.31-3.55,5.18-7.84,9.9-10.66,15.53-.67,1.34-3.5,2.14-1.77,4.47-.93,1.47-2.89,2.16-3.12,4.18,0,.15-.52.25-.81.37l-.86.34c.14.22.26.62.41.63,1.92.12,4.2-.73,5.1,2a.56.56,0,0,0,.46,0c1.87-2.17,1.84,1.59,3.19,1,.62,1.57,2.15,1.7,3.39,2.41,1.07.62,2.31-.94,2.95.59,1.9-.68.75,2.58,2.58,2,1.79,2.77,4.42,3.87,7.59,4.47a11.47,11.47,0,0,1,4.64,2.16c1.41,1,2.87,3.4,5.46,2.4.76-.3,1.1.57,1.57,1,.74.64,1.53,2,2.16,1.87a5.51,5.51,0,0,1,3.94,1.43c1.34,1,3.41.07,4.23,2,.59,1.4,2.2.79,3.1,1.29,3.12,1.74,6.56,2.93,9.29,5.38,1.28,1.15,2.93,1.81,4.31,2.92,2.31,1.87,5.2,3,7.35,5.11,2.25-.31,3.14,1.38,4.07,2.87.23.36.18,1,.69,1.11a26.16,26.16,0,0,1,12,6c2.57-.22,4.36,1.75,6.32,2.78s4.77,1.55,5.69,4.22c3.27.88,5.5,3.51,8.41,5,3.44,1.79,6.84,3.66,10.09,5.76a26.55,26.55,0,0,1,2.81,1.7c.86.7,2.17.66,2.78,1.75s2.13.32,2.6.84c.78.86,2.57.46,2.59,1.73,0,2.67,1.3-.18,2.15.56,1.58,1.36,3.78,2,5.72,2.94.46,2.74,4.06,1.47,4.87,3.82a1.5,1.5,0,0,0,1.1.83c3-.06,4.69,2.43,7,3.6s5,2,6.92,3.77c1.26,1.22,3.17,1.13,4.08,2.15a15.17,15.17,0,0,0,5.27,4.12,2.57,2.57,0,0,1,1.37,1.4c.46,2,3.15,2,3.4,3.48.46,2.69,3.2.77,4.11,2.46.17.32,1.75.87,1.75,1.35,0,2,2.1,1.62,2.91,2.73a15.88,15.88,0,0,0,3.51,3.53c4.7,3.33,9.71,6.25,13.58,10.64.22.25.46.67.71.67,2.08,0,2.38,1.82,3.11,3.16s2.57,1.6,3.54,2.93c1.77,2.42,3,5.53,6.53,6.16.55.1.32,1.21.43,1.24,1.5.33,1.79,1.87,2.8,2.63,1.42,1.07,3.1.72,3.06-.73,0-1.75,1.52-1.91,1.83-2.71.54-1.32,1.24-2.5,1.82-3.75.79-1.74,2.83-1.83,3.49-3.46s1.46-3.4,2.25-5.07c.42-.91,2.51-1.31.81-2.83,1.73-.09,1-1.87,1.56-2.38,1.17-1,1.22-2.63,2.35-3.57-2.08-1.84,1.19-2,1-3.26a2,2,0,0,1,0-1c1-2.43,2.09-4.8,2.94-7.27.48-1.41,2.31-1.85,2.24-3.6,0-.41.93-.58.29-1.45-1-1.32-1.28-2.5.08-4.28a10.17,10.17,0,0,0,1.51-5.34,42.69,42.69,0,0,1,2.9-12.76c.19-.49,1.4-.51.63-1.42-1.5-1.76-.39-3,.9-4.12.78-.7.65-1.39-.08-2.06a1.22,1.22,0,0,1-.17-1.71c.66-1.21,2.32-2.62,1.57-3.67-1.26-1.74,1-2.79.24-4.31a2.14,2.14,0,0,1,.78-2.63c.71-.55,1.92-1.37.82-2.34-1.42-1.26,1.38-1.84.26-2.8s-.86-1.54-.22-2.84c1.34-2.68,1.6-11,1.34-14.13a44.49,44.49,0,0,1,0-8.48c.16-1.5,3-2.86,0-4.4.16-.23.34-.46.48-.71.78-1.38.47-2.9.36-4.32a9.57,9.57,0,0,1,1.61-6.61c.25-.34.47-.66.19-.69-2.64-.3-2-2.49-1.6-3.66s.77-1.46-.2-2.22c-.34-.27-1.23-.49-.49-1.41,1.14-1.42.85-3.33.44-4.73-1-3.36-.85-6.73-.9-10.12,0-.16.07-.41,0-.49-1.86-1.78-1.17-4.15-.85-6.07C911.49,519.5,909.25,517.78,910.65,515.78ZM432,803.56c0,.67-.09,1.33.86,1.45a2.1,2.1,0,0,1,2.1,2.23,5.25,5.25,0,0,0,1.55,3.9c.94,1.15.7,3,2.17,4.09s1.93,3.17,3.85,3.8c.31,2.48,2.85,2.72,4.19,4.18a23.08,23.08,0,0,0,7.59,5.8c1.5.66-.51,1.09-.16,1.62.47.7,1.4.6,2.1,1,2.32,1.27,2.55,1.1,3.68,3.37.36.72.59,1,1.31,1,1.27,0,.22,2.41,2.1,2,2.38-.49,1.35,1.56,1.77,2.54.1.22.52.31.81.43,1,.43,2.72-1.12,3.11,1.2.31,1.84,2.18.38,3.29,1.4,1.76,1.63,4.34,2.28,6.49,3.48a58.7,58.7,0,0,1,6.74,4.17c1.16.88,2.9,0,3.38,1.34a3.61,3.61,0,0,0,3.52,2.33c1.48.11,2.4,1.62,4.1,1.14s2.23,2.32,4.09,2.08c.47,1.79,2.81-.22,3.45,1.92.86,2.9,2.07-.73,3.41-.15s2.91.76,3.4,2,.65,1,1.42.34c.55-.49,1.19-.27,1.69.29,2,2.22,4.92,2.13,7.48,2.36,2.25.2,4.79.09,6.47,1.27,2.08,1.48,4.56-.13,6.4,1.62.47.45,1.58.15,2.29.44,1.16.46,2.52,1,2.74.79,1.1-1.2,2.12-1.43,3.18,0a5.14,5.14,0,0,0,1,.85c1.63-2.17,3.54.58,4.62,0,1.45-.85,2.21.23,3.27.21,1.44,0,3.22-.72,4.29.37,1.56,1.59,2.24-.61,3.38-.42.54.09.89.35.83,1s.24,1.16.65.81c2.14-1.92,5.08.16,7.38-1.65.74-.58,2.74,0,4.17.3a14.32,14.32,0,0,0,4.5.64c.93-.12,1.36-.77,2.06-1.1,1-.46,1.24,1.63,2.38.46.59-.6,1.55.71,2.57-.33.75-.75,1.78.89,2.89,1.19a1.88,1.88,0,0,0,1.85-.13c1.19-.67,3,.49,4-1.13,1.07,1.79,2.43.17,3.09-.16,1.5-.76,2.4,1.89,3.87.34.29-.3,1.51,1.62,2.29.48,1.41-2.08,3.4-1.7,5.34-1.68,2.42,0,4.58-1,6.89-1.5a21.43,21.43,0,0,1,5.95-.52c.33,0,.67,0,1,0,1.59.17,1-2.16,1.53-1.88,1.05.56,1.77,1.51,2.83.12.6-.79,1.62-1,2.34-1.51.93-.66,1.3-.53,1.84.2,1,1.41,2,1.35,3.14,0,.94-1.08,1.82-2.2,3.68-2.08.84,0,2.53-1.6,1.54-2.33-1.55-1.15-2.07-3.32-3.76-3.87s-1.84-2.17-3.28-2.74c-1.64-.65-2.56-1.91-.94-3.62a2.13,2.13,0,0,0-.34-.33c-2.54-1.73-2.58-5-4.47-7.16-1.06-1.2-2.57-2.38-2.85-3.78a5.5,5.5,0,0,0-1.89-3.24c-.88-.78.82-2.79-1.64-3-.71-.05-1.22-2-2.09-3-.46-.49.71-2.15-1.2-2-.76-2.68-3.25-4.37-4.22-6.75-1.57-3.87-4-7.32-5.19-11.36-.43-1.42-1.61-2.51-2.16-4.11-.67-1.94-1.1-4.14-2.47-6-1.25-1.68-2-3.84-3-5.69s-1.63-3.71-2.52-5.45-2.09-3.46-3.09-5.23A3.34,3.34,0,0,1,592,780c.28-1.88-.74-3.34-1.41-4.93-.84-2-2.64-3.67-2.55-5.92.12-2.93-1.46-5.08-2.78-7.37-1.71-3-4.13-5.68-5.15-8.86-2-6.33-6.42-11.73-7.21-18.52-2.88-.24-1.51-2.64-2.07-4.06-.05-.14-.28-.21-.34-.36-1.76-4.11-3-8.41-4.49-12.63-1-2.81-2.09-5.61-2-8.67-2.82-1.9-1.41-5.78-3.71-8a2.4,2.4,0,0,1-.26-1.85c.82-4.79-2.37-8.91-2.25-13.58-1.79-1.14.18-3.57-1.74-4.81-2.14-1.37-.69-3.06,0-4.63a.48.48,0,0,0-.1-.43c-1.2-.55-.57-2.25-1.77-2.79,1-1.07,1.18-1.9,0-3.21-.6-.67,1.13-2.29-.06-3.62-.29-.33-.15-1.2.4-1.78,1.42-1.5.52-2.69-.69-3.74-.54-.47-.55-.69-.18-1.46,1.2-2.46-.32-5.41,1.31-8,.4-.61-1.62-1.76-.16-3.28.68-.7.42-2.55.22-3.82-.23-1.45,1.49-2.12,1.09-3.6-.27-1-.86-2-1.69-1.89-1.61.19-2.92,2.24-4.84.76-1.18,2.25-3.66,1.61-5.46,2.49-.45.22-1,.52-1,0,0-1.73-.36-1.23-1.55-.65a15.25,15.25,0,0,0-2.37,1.53c-.74.55-1.6.95-2.4,1.43a1.11,1.11,0,0,1-1.68-.26c-.25-.37-.15-1.18-.4-1.28-.58-.22-.5.41-.68.81-.89,2-2.83,3.16-4.29,4.7-.45.47-.7-.26-.67-.72,0-1-.85-1.32-1.23-1-1.57,1.42-3.4.82-5.14.94-.63,0-1.58-.14-1.59.66,0,2.15-1.57,1.1-2.49,1.35s-1.5-.41-2.08-1a2.3,2.3,0,0,1-2.59,1c-1.53-.22-2,.41-1.93,1.92,0,1.69-1.07.22-1.26.33-2.87,1.66-6.82-.28-9.27,2.74a1,1,0,0,1-.93,0c-1.49-1.66-2.72.82-4.18.28-.22-.09-.83.86-1.26,1.33,1.11,1,1.19,1.47-.53,1.45-2.75,0-5.7-.61-7.51,2.42a1.41,1.41,0,0,1-1.23.53c-1.91-.52-3.32,1-5.08,1.19-1.16.14-2.13,1.55-3.2-.14a2,2,0,0,1-1.78.44c-1.6-.12-.58,1.07-.06,1.72s-.21.84-.49.8c-4.3-.53-7,2.55-10.12,4.55a22.4,22.4,0,0,1-3.33,1.65c-2.11.91-5.27.81-5.78,4.21-.16,1-1.59.85-2.09.56-1.67-1-2.68-.66-2.81,1.21-.11,1.51-.61,2.43-2.07,2.86a2.33,2.33,0,0,0-2,2.39c0,1.09-2.34.09-1.57,1.4,1.32,2.26-1.68.39-1.49,1.87.59,4.55-3,8.25-2.93,12.75-1.72.67.81,3.05-1.47,3.6-.72.17-.41,1.12-.55,1.73-.48,2.13-.7,4.41-1.67,6.3a12.56,12.56,0,0,0-1.32,6.46,29.19,29.19,0,0,1,0,3.5c-.07.88-1.29,1.69-.11,2.62-1.26.78-.82,2-.86,3.14s.45,2.67-.1,3.44c-1.55,2.15-.19,4.63-1,6.6-1,2.4-.67,4.75-.92,7.13a80.19,80.19,0,0,1-1.44,9.91c-.32,1.36,1.26,2.3.43,3.32-1.43,1.75-.79,3.72-1,5.61-.11,1.25.53,2.7-.9,3.63,1.22,1.14.84,2.64.92,4a10.85,10.85,0,0,1-.91,4.63c-.62,1.62,1.48,3.15.92,5-.36,1.23.54,2.67-.47,3.8s1.67,2-.08,3.18c-1.11.72.75,1,.59,1.87s-1.49,1.4-1.07,2.58c.1.29-.1.79.07,1,1.1,1.09.55,2.6.77,3.82.3,1.71,1.27,3.54,1,5S434,802.18,432,803.56ZM747,437.14a18.87,18.87,0,0,0,0,2c0,.36.19,1.22.75.54,1.22-1.5,3.22.12,4.5-1.34a1.7,1.7,0,0,1,2.59.12c1.19,2.14,2.75.69,4,.44a11.87,11.87,0,0,1,3.2-.06c1.66.09,3.21,1.74,4.49,1,3.79-2.16,7,.6,10.52.69,1.05,1.47,2.22-.85,2.69-.18,1.3,1.86,3.31,1.11,4.81,1.78,2.37,1.05,5.05.05,7,1.13,2.23,1.24,4.92-.2,6.79,1.74,2.5-.66,4.58,1.6,7.08,1,1.21-.28,2.44,1.6,3.66,0,1.32,1.31,3,1.08,4.61,1.44s2.84.66,4.5,0c1.46-.58,2,2.48,4,1.56,1.29-.6,2.32,1.56,3,.91,2-1.86,3.51-.15,5.25.05,2.21.26,4.37.12,6.64.81,1.72.53,4.05,2,6.1.22,2.53,2.15,6-.05,8.57,1.78.68-1.25,2.23.84,2.83-.73,1.07,1.59,2.71.73,4.1.95s2.69-.59,3.66.81c1.17-1.1,2.62-.81,4-.8.8,0,1.92-.17,2.35.27,1.16,1.2,2.49.52,3.73.72s1.73-.44,1.62-1.68c-.32-3.53.53-7.09-.9-10.62-.64-1.57,0-3.64-.16-5.45-.17-1.58-2.15-3.1,0-4.69-.22-.19-.44-.55-.65-.53-1.71.11-1.3-1.13-1.28-2,.11-3.55.09-7-1.9-10.23-.44-.7-.49-1.81-1.29-2.43a2,2,0,0,1-.52-3c1.13-1.27.7-2-.29-2.83-.62-.54-1.58-1.41-.89-2,1.24-1,.2-1.53-.11-2.27-.61-1.46-1.3-2.87-1-4.58.16-1.09.37-2.36-.9-3.11.61-1.74-.85-3-1.25-4.5s-1.15-3.05-1.35-4.35a13.41,13.41,0,0,0-1.3-4.2,24.23,24.23,0,0,0-2.14-4.1c-.16-.22.08-.7,0-1-1.45-3.41-1.47-7.54-5-9.93.2-2.33-2.6-2.63-3.11-4.72-.47-1.88-2.45-3.43-2.77-5.3-.59-3.5-3.8-5.32-4.74-8.48-1.92-.09-1.43-2.78-3.17-3-2.4-.28-.18-3.2-2.17-3.81-.11,0-.73-1.26-1.21-1.89-2.29-3-4.68-6-6.76-9.2-.64-1-1.6-1.49-2.16-2.21-1.56-2-4-2.92-5.26-5.5s-4.49-3.24-7.11-4.21c-.58-.21-1.82,1.7-2.68.1-1-1.93-3.22-1-4.67-2.18-1.06-.87-3.23.59-4.54-1-1.5,1.33-3.87.11-4.88,1-1.25,1.1-3.95-.26-4,2.51,0,.53-.85.33-1.32.32a6.71,6.71,0,0,0-5.42,2.54,9.39,9.39,0,0,1-3.17,2.07c-1.27.63-2.63.63-3.58,2.33-.68,1.22-2.62,2-3.23,3.59a4.69,4.69,0,0,1-.74,1.71c-.87,1-2.87.81-2.79,2.74-2.86-.32-.77,2.64-2.36,3.5-1.95,1-1.53,4.38-4.17,5.11.26,1.36-1.44,2-1.13,3.61.19,1-2.06,1-2.07,3.05,0,2.31-1.71,4.62-3.22,6.55-.94,1.21,0,2.93-1.66,3.87-2.11,1.21-2.55,3.7-2.78,5.77S754.51,373,755,375c.55,2.3-2.22,3-2.55,5a11.26,11.26,0,0,0-.06,2.07c0,1,.38,2,0,3.21-1.07,3.41-2.35,6.85-1.45,10.61a5.83,5.83,0,0,1-.25,3.84c-1.39,2.49,0,5.46-1.69,7.81-.94,1.31,2.34,1.85.62,3.43-1.26,1.17-.42,2.81-.61,4.23-.1.81.25,1.94-.17,2.4-2.05,2.26-.56,5-1.13,7.51a20.5,20.5,0,0,0-.77,7.42,3.8,3.8,0,0,0,1,2.06C747,435.15,746.94,436.13,747,437.14ZM333,717.48c-.43,3.6,1.78,6.95,1,10.59,1.25,1,.5,2.86,1.49,3.86,2.22,2.27,2.82,5.17,3.5,8.07.25,1.06,1.18,1.77,1.11,3.08a5,5,0,0,0,1.41,2.86,8.6,8.6,0,0,1,1.78,2.78c.36,1.17,1.86,1.08,2.7,1.79-2.07,1.61.22,1.26.76,1.78a10.56,10.56,0,0,1,2.21,2.58,8.83,8.83,0,0,0,4,4.08c2.35,1.15,3.41,3.91,6.07,4.59,2.4,4.46,6.72,7.16,9.93,10.88,1.17,1.34,2.63,3,4,3.37a7.1,7.1,0,0,1,3.9,2.63c1.11,1.49,3.7,1,4,2.12,1.06,3.65,6.17,2.67,6.79,6.46,2.51-.53,3.24,1.86,4.82,2.87.6.39,1.31.17,1.63,1.29.57,2,1.11-.78,2-.2,1.3.85,2.95,1.19,3.85,2.59.08.11-.87.89-.8,1a1,1,0,0,0,1.64.16c.86-.94,1.51-.91,2.46,0s1.47,2.33,3,2.31c2.38,0,3.75,1.57,5.29,3,.32.31.54,1.47,1.37.6a1.34,1.34,0,0,1,2.39.28c.74,1.29,2.26.18,2.4.5.48,1.07.55,2.18,1.88.72,2.4,2.9,6,3.14,9.24,4.24.35.12.53,1.12,1,.29a1.86,1.86,0,0,0-.08-1.32c-4.1-12.22-4-10.67-3.7-18.94.17-4.55-1.1-9.2.74-13.67.07-.16-.15-.59-.34-.68-2.51-1.28-.56-3.27-.29-4.46,1-4.29,1.2-4.24-.65-7.51-.13-.23-.38-.61-.31-.69.55-.62,1.64-1.21,1.62-1.78,0-.74-1.57-1.38-.44-2.4a2.62,2.62,0,0,0,.51-3.17c-1.5-1.75,1.62-4-.8-5.38.18-.2.38-.58.56-.57,1.11.07,1.4-.45,1.36-1.48a26.65,26.65,0,0,0-.09-4.48c-.3-1.31,1.76-2.41.16-3.66,1.54-1.09.35-2.91,1-4.07.94-1.73-.78-3.47,0-4.65,1.49-2.2,1.17-4.6.71-6.61-.39-1.71-.57-2.62,1.13-3,1.18-.29,1.17-.83.9-1.71a12.05,12.05,0,0,1,1.45-10.21c.74-1.19,2.63-2.67.19-4.15-.39-.23-.47-.68-.25-.68,2.72,0,1.08-3.06,2.75-3.82a1.81,1.81,0,0,0,.95-2.51c-.95-1.4-.56-2.17.59-3a13.39,13.39,0,0,0,1.42-1.4c-1.45-.63.17-1.73-.37-2.47-.28-.38-.52-.53-.14-1.1s2.21-.84.95-2.07c-1.5-1.44.78-1.87.65-2.95-.08-.6-.37-1.06-.83-.93-1.42.41-2.8-1.67-4.19,0-2.66-.82-5.6-1.19-7.88-2.62-1.62-1-2.28-1.12-3.27.27-.3.43-.67.47-.68,0,0-1.62-1-1.81-2.27-1.64-2.28.33-4.27-.1-5.59-2.19-.67-1.06-1.72-.91-2.66-.79-3.33.46-6.34-.83-9.11-2.16a16.56,16.56,0,0,0-7.74-1.88c-1.48,0-3.78.5-4.28-.22-1.34-1.94-2.41.31-3.68-.28-2.6-1.21-5.52-.23-8.29-.48-1.2,2-3.9,0-5.14,1.92-1.78-2.42-3.46.23-5.21.1-3.31-.23-6.68-.49-8.77,3,0,.07-.32,0-.48,0-2.6.57-4,2.94-6.3,4.08-2.09,1-4.45,1.83-5.74,4.31-.59,1.14-2.64,1.19-3.12,3.16-.34,1.39-1.91,2.44-2.78,3.74a27.52,27.52,0,0,0-4.13,8.29c-.6,2.31-4,3.84-1.95,6.92a1.72,1.72,0,0,1-.7.48c-1.46.14-1.73.9-.82,1.88.72.76-.2,1.11-.14,1.43.2,1.12-2.07,1.94-.36,3.13C332.6,714.54,333.09,716.08,333,717.48Zm270-122.2v1.77c0,1.7,0,1.7,2.42,2,2.67.28,3.85,0,5.22-1.11.85-.69,1.25-2,2.71-1.91a4.14,4.14,0,0,0,3.2-.81c.47-.39,1.92-1.83,3-.24,1.79-2.4,3.76-2.36,6.34-1,1.18.59.69-.41.37-1.23-.38-1,.91-.78,1.2-.59.64.41,1,1.28,1.81.15.57-.83,1.67-1,2.35-1.49,1.55-1.22,2.2-1.14,2.51.87.08.58.87.5,1.29.37s.51-.64,0-1-.35-.88.14-1a48.92,48.92,0,0,0,13.19-4.36c.42-.2.6-.74,1.23-.68,4.41.36,7.72-3.79,12.25-3,.22,0,.6-.29.75-.54.94-1.51,2.41-1.54,3.91-1.41.63.05.87-.38,1.22-.7.67-.6,1.3-1.22-.3-1.32-1-.06-1.15-1.08-.82-1.36,1.75-1.52.45-2.32-.38-3.61a9.56,9.56,0,0,1-1.57-4.79,10.26,10.26,0,0,0-2.26-5.55c-1.3-1.89,0-4.28-1.8-5.83-.29-.25-.35-.82-.92-.86-1.63-.11-.31-1.18-.38-1.27-1.06-1.43-.72-3-.73-4.57,0-.55-.21-1.19-.64-1.11-1.92.32-1.08-1.68-2-2.25a2.32,2.32,0,0,1-1.39-2.4c.42-2.63-1.51.07-1.79-.75s0-1.93-.43-2.27c-1.46-1.1-1.3-2.94-2.17-4.11-1.07-1.42-1.64-3.07-2.65-4.42a32.82,32.82,0,0,1-2.61-4.93c-.87-1.67-2.7-2.6-3.62-4.49-.74-1.49-.94-3.49-2.84-4.49-1.7-.89-1.79-3.1-2.74-4.64a10.8,10.8,0,0,0-1.65-2.28c-2.37-2.2-3.77-5.08-5.44-7.76-.31-.5-.12-1.51-1-1.22-2.06.65-1.88-1.21-2.56-2.11s-.7-2.62-2.21-2.91a6.73,6.73,0,0,1-5-3.44c-1-2.13-3.33-2.58-4.36-4.59-.64-1.26-2.19-2.1-3.43-3-1.51-1.08-1.58-3.18-3.15-4.22a10.77,10.77,0,0,0-1.66-.84c-2.81-1.25-5.31-3.05-8.2-4.31-3.62-1.58-7-3.86-10.76-5.4a45.41,45.41,0,0,0-6.59-2.18,4.65,4.65,0,0,0-4.1.92c-.44.36-.82-.35-1.19-.65-.82-.65-.93.85-1.38.55-.67-.44-1.41-1.44-2-.67-1.14,1.4-2.63,1.65-4.16,2.14-.67.22-1.79,1-.4,2.1.38.29.52,1.14.68,1.68.72,2.51,1,4.81-1.17,7.17-3,3.28-7.44,4-10.79,6.64-1.39-1.8-3.34,1.46-4.89-.64-.87-1.19-1.81-2.59-3.47-3-.16,1.85-2.13,2.46-2.74,3.86-.69,1.59-1,3.33-2.45,4.5a.94.94,0,0,0,.09.91c1.61,1.32-.69,2.34-.22,3.77s.19,3.3.07,5c-.05.74-1.39,1.18-.92,2.06a12.32,12.32,0,0,0,1.93,2.18c-1.08.86-1.33,1.6-.23,2.82.78.86.76,2.44,1.53,3.3s.31,1.26-.24,1.84-1.46.79-.33,1.8c.92.82,2.28,1.45,2.3,3a5.77,5.77,0,0,0,2,4.17c-1.9,2.23.93,2.49,1.63,3.47s-.72,1-.38,1.86c1.46,3.56,2.33,7.35,3.57,11a45.43,45.43,0,0,1,1.52,5.9c.35,1.77,1.64,3.38,1.65,5.28,0,2.31,2.26,3,3.27,4.54,1.88,2.9,1.72,6.83,4.75,9.07.08,0,.08.39,0,.47-1.68,1.65.06,2.36.89,3.31,1.4,1.62,2.52,3.4,2.08,5.62-.34,1.75,1,3,1.11,4.56s3.36,2.64,1.06,4.85c0,0,.31.54.51.56.65.08,1.44,0,1.35.95-.48,4.89,4.13,8.07,4.21,12.76,0,.11.22.28.36.31,1.91.38,2.35,2.07,2.34,3.44,0,2,3,2.45,2.13,4.68-.07.19.31.79.38.77.54-.12.4-.8.63-1,1.41-1.46-.13-2.81-.1-4.2.14-6.83-.31-13.69.25-20.48.21-2.65-3-5.12-.2-7.68-.26-.16-.52-.45-.79-.47-.76,0-1.57-.43-1.14-1.08,1.29-2-.64-3.76-.15-5.72.25-1,1.59-1.52,1-2.54-.45-.85-1-1.26,0-2.27.66-.66-1.35-1.91-.12-3.1.11-.1-.84-.2-1.28-.34a.75.75,0,0,1-.31-.65c.81-1.64-.69-3.09-.28-4.77s-.27-3.63-.41-5.43c-.06-.75-1-2,.27-2.82-1.29-.79-.67-2.07-.79-3.16-.15-1.25.44-2.66-.94-3.64a1,1,0,0,1,.24-1.32c.71-.58,1.06-1.2.33-2.06a3,3,0,0,1-.13-4c1.26-1.32,3-2.86,4.66-3,3.06-.21,5.91-1.81,9.08-1.2a3.84,3.84,0,0,0,3.21-.73c.78-.58,2.27-.32,3.33-.94,1,1.55,2.6-1.82,3.47.47a5.09,5.09,0,0,1,3.49-.77c.51,0,1.17.07,1.21.55.19,1.94,2.16,3.11,2.06,5.17a37.25,37.25,0,0,0,0,5.49c.17,1.72-.87,3.67.81,5.15-1,1.54-1.5,3.16-.22,4.75,1.53,1.92-1,3.17-.68,4.95a3.39,3.39,0,0,1-.86,3.54c2.68,4.75-.84,9.46-.09,14.2-1.4,2.21-1,4.68-1,7.08a3.28,3.28,0,0,1-1.36,3c-1,.82-.9,1.6,0,2.43a9.61,9.61,0,0,1,1.13,1.4c-1.83.5.54,1.56-.39,2.56-1.13,1.22.12,3.35-.56,4.7A9.2,9.2,0,0,0,603,595.28Zm23,86.83c-.28,1.5.39,2.28,1.86,1.84.94-.28,1.19,1.82,2.36.41.66-.8,1,.83,1.92.72s1.64.78,2.45,1.18c1.25.62,2.5,1.2,3.78,1.77,2.45,1.08,3,.83,2.92-2.13,0-.57.25-.71.35-1.06.8-2.67,1.06-5.67,2.5-7.93,1.29-2,.14-4.14,1.33-6,.6-.92,2.06-2,.53-3.43,1.69-.91.37-3.24,2-4.18-.47-4.88,1.83-9.35,2.11-14.15.14-2.51,1.18-5,.89-7.59,1.77-1.41.66-3.39,1-5.07s1.29-3.23,1-5.1c-.74-4.75,1.6-9.32,1-14.06-.15-1.15.84-1.65,1.14-2.55.43-1.25-1.12-1.55-.64-2.92a61.17,61.17,0,0,0,2.31-9c.76-4.2,1.42-8.31,3-12.29.6-1.47.6-3.29-1.13-4.36a1.51,1.51,0,0,0-1.31-.05c-.84.55.18.7.34,1,1.6,3.27-3.91.55-2.9,3.44.13.38-.82.41-1.27.32a.94.94,0,0,1-.52-.71c-.07-.71-.13-1.28-1.07-1.26s-.69,1.08-1,1.28c-2.06,1.32-4.23,2.45-6.38,3.63-.07,0-.23-.16-.35-.16-4.07.06-6.22.71-7.93,2.48-.48.49-1.18,1.18-1.64.73-1.67-1.6-3.08.6-4.74.14-1.1-.31-1.28,1.17-.64,1.59,2.13,1.37,1.42,3.44,1.79,5.32.41,2.11-2.52,4.62.76,6.34a.41.41,0,0,1,0,.34c-2.15,1.85.47,4.87-1.69,6.85-.45.41-.16,1.69.44,2.68.73,1.19-1.38,1.4-1.55,2.47-.07.49-.23,1.23,0,1.46,2.48,2.36-.46,5.35,1,7.79a6.2,6.2,0,0,0-.93,5.07c.32,1.62-2.41,3-.2,4.63-2.09,2.59.25,6.09-1.81,8.76-.4.52-.18,1.64,0,2.45.22,1.21,1.79,2.36.9,3.53s-1.27,2.12,0,3.2c-2.75,3.38-.2,7.22-.92,10.78-.28,1.37.34,2.78-.84,4.19-.66.79-.71,3.1-.06,3.77C627.64,679.88,625.3,680.87,626,682.11ZM603,534.7v-1c0-2.79-.49-3.45-3.08-2.5-1.38.5-2.57-.51-3.15-.06-1.67,1.28-3.49,1.08-5.14.81-2-.32-3.17,1.45-5.11,1.19-1.5-.2-3.4-.9-4.68.61a3.25,3.25,0,0,0,.11,4.74c-2.83,2.47,2.19,5.73-.82,8.18a2.38,2.38,0,0,0,.36.35c.42.27,2.11-.49.94,1-.83,1.08,1.15,1.31.54,1.88-2.22,2.07,1.68,4.79-.83,6.74,1.4,1,.87,2.4.81,3.64s1.71,2.44,0,3.67c1.61,2.18.62,4.74,1.07,7.07.34,1.76-1.67,4.38,1.65,5.23.35.09.2.38-.14.7-1.14,1.08-.5,2.5-.53,3.75,0,1.08-.69,2.51.47,3.25,1.79,1.13-.67,1.91,0,3.22,1.27,2.55,0,5.71,1.47,8.38.68,1.21-1.68,1.79-1,3.05,1,1.62-.68,3.51.1,4.6,1.33,1.87-.37,3.15-.24,4.77.32,3.8.67,7.75-1.85,11.18-.32.44-.18,1.18-.39,1.82-.44,1.33.3,3.48-1.34,3.92-2.36.63-.59,3.51-2.68,4-1.65.39-.93,3.23-3.13,3.11-.28,1.85-1.61,3.41-1.48,5.37,0,.14.16.28.27.39a.38.38,0,0,0,.66-.25c0-.92.15-1.7,1.32-1.5.67.11,1.09-1.84,1.64-.34.29.78.86,1.31,1.09,2.05,0,.15,0,.35,0,.49a7.21,7.21,0,0,0,.5.77c.16-.27.45-.52.47-.8.06-.83-.05-1.67,0-2.5.25-2.62,3-3.94,4.86-2.09.67.66.31,1.75,1.55.52,1.56-1.57,2.38-4,5.15-4.24.84-.06.42-2.16,1-1.65,2.58,2.33,2.52-.72,3.14-1.54,1.64-2.16,2-4.71.25-7-.91-1.19-.7-2.4-1-3.62-.6-2.55,1.47-4.64,1-7.09-.31-1.73.33-3.43-.5-5.29-.46-1,1.29-2.77,1.86-4.33a6,6,0,0,0,.15-4.5c-.49-1.45,1.25-2.53,1.49-4,0-.15,0-.39-.06-.47-1.85-1.62-.69-3.74-.88-5.62s-.83-4.61.14-5.84c1.3-1.65-.31-3,.61-4.52s.07-3.66,1.08-5.53c.63-1.16.22-3,.09-4.44-.1-1.06,1.44-2,.15-3.12,1.31-.83-.22-2.19.74-3.42.72-.93,0-2.89.17-4.38.13-1.25-.19-2.43.51-3.79a8.6,8.6,0,0,0,0-6.63c-.19-.57-1-1.32-.48-1.67,1.55-1.12,0-2.77.21-3.06C603.42,537.2,602.8,535.89,603,534.7ZM550.47,552c-.48.32-.69,1-.43,1.26,1.16,1,1,2.35,1,3.63,0,1.5-.61,3.53.13,4.38,1.41,1.62-.68,2.51-.18,3.8.39,1-.43,2.34.82,3.17-1.11,1.42,1,2.93.16,4-1.42,1.83-.83,3.76-.9,5.64-.12,3.16.05,6.33-.07,9.49-.05,1.24.69,2.69-.61,3.73-1.72,1.38,1.91,2.26.29,3.82-1,.95.84,2.06.39,3.3-.31.88-.18,1.84-.45,2.8-.62,2.25-1.85,4.46-1.54,6.85.5,3.81-1.25,6.92-3.86,13.42-.11.29-.28.77-.16.9,1.56,1.64-.44,2.63-.66,3.93a7.62,7.62,0,0,1-2.23,4.47c1.92.48-.45,1.55.37,2.55,1,1.22-2.46.53-1.53,2.34,0,.05-.2.25-.34.34-.85.57-.29.93.13,1.44s.86.2,1.45.12c1.6-.24,2.73-2.58,3.36-2.12,2.8,2.08,3.94-.26,5.22-1.69,1.14-1.27,2.05-1.27,3.48-.67,1,.42,1.35-.27,1.85-1.42,1.36-3.12,1.64-7.07,5.5-8.64.27-2.06,3-3,2.42-5.52-.21-.89.57-2,.59-2.66.06-2.2,1.32-4.08.61-6.65-.76-2.73-1-6.14.76-9,.06-.11,0-3,0-3.17.21-1.31-1.77-2.93.55-3.94a1.16,1.16,0,0,0,.34-.34,5.5,5.5,0,0,1-1-6.2s-.21-.24-.33-.34c-1.88-1.54-2.11-3.82-2.49-5.95-.21-1.17,0-2.23-1.69-2.28-.56,0-.5-1.16-.34-1.25,1.77-1-.25-1.83,0-2.72a2.2,2.2,0,0,0-1.18-2.49c-1.1-.66-.69-2.06-1.7-2.85s1.13-1.41.52-2.34c-.45-.67-1.49-1.18-1.55-1.83a3.41,3.41,0,0,0-1.64-2.33c-1-.87,1.1-1.43.23-1.72-1.25-.43-1.43-1-1.81-2.24-.55-1.73-2-3.17-3-4.72A1.72,1.72,0,0,0,550.47,552Zm76.59,167c1.16-.7,2.37-1.8,3.64,0a1,1,0,0,0,.89-.12c.77-1,2.41-1.49,2.38-3-.07-3,2.36-5,3.1-7.74a31.55,31.55,0,0,1,3.13-7.68c.85-1.45,1.27-3.09.52-4-1.13-1.41-2.09-3.51-4.5-3.43-1.41,0-1.77-1.34-2.68-2-1.11,1.73-2.45.19-3.06-.22-3.09-2.05-3-2.08-6.24-2.17-.46,0-.78-.63-1.45,0a2.21,2.21,0,0,0-.49,3.05,2,2,0,0,1,.15,2.49c-.85,2-.4,4.35-1.39,6.37,2.13,1-.44,2.84.8,4.39,1,1.32-1.13,3.07-1,5a1.68,1.68,0,0,1-2.87,1.38c-2-1.74-3.93,2.49-5.57-.27-.5.7-1.3.81-2,1.14-.41.19-1.74.59-1.05,1.67.56.88,1.28,1.49,2.14.17.09-.16.9-.1.92,0,.93,3.4,3.68,1.58,5.63,2,.92.18,2.07-.27,2,1.4,0,.42.4.65,1,.19.78-.65,1.43-2.44,2.66-1.24.74.73,2.57.06,2.38,1.89C626,718.7,626.36,719.12,627.06,719ZM570,613.24c0,1.6,1.16,2.53,2.46,1.66a19.67,19.67,0,0,0,2.45-1.32c.85-.78,1.87-1.59.43-2.74-.65-.52-.09-1.3-.36-1.84-1.22-2.48-1.4-5.46-3.81-7.38-1.42-1.13-.83.44-1.21.66-1.48.87.68,2.58-.91,3.27,1.62,1,.28,3,1.12,4C571.5,611.05,569,612,570,613.24Z"/><path class="c" d="M356,430c-3.43-1.48-7.54-.93-11.59-1-.32,0-.75.1-1-.06-.78-.6-1.44-1.34-2.22-1.93s-1.15,1.38-2.38.48a7,7,0,0,0-4.37-1.61,2,2,0,0,1-1.5-2.24c.18-.93,1.79-1.5,3-1.12,2.63.84,3.74.25,4-2.23.07-.82-.05-1.92-1.18-.58s-2.21-1.61-3.68.18c-.83,1-2.15-.82-3.25-1.4-1.51-.8-3.06-2.65-5.1-.8-.64.58-.56-.26-.78-.57-1.43-2.05-1.44-2.05-4.38-1.22-.67.18-1.34.23-1.58-.55-.14-.45-.2-1.38-.45-1.25-3,1.57-4.4-3.41-7.55-1.75-1.44.76-7.32-1.62-7.93-3.13-.4-1-.7-1.19-1.63-1.25-1.42-.09-3.42.91-3.7-1.7-1.21.89-2.61.76-4,.7-.3,0-1.19-.07-.45-.82.21-.22.39-.47.59-.71-1.25-.37-2.62-1.25-3.74-1-1.85.41-5.41.95-7.13.07-1.32-.68-2.45-1.59-4-.54-.15.11-.62-.08-.85-.26-.82-.58-1-1.59-1.51-2.34s-1,1-1.88.65-1.44-1.34-2.58-1c-.76.21-1.21-.37-1.63-.86-.68-.79-1.24-1.44-2.19-.19-.26.34-1.34.21-1.43-.72,0-.51-.22-1.27-.58-1.17-2.33.7-2.33-1.63-3.39-2.54-.48-.41-1.6-.84-.34-1.77.68-.5,1.34-1.27,2.05-.42.82,1,1.81.52,2.74.69,1.37.25,3.44-1,3.74,1.69,0,.13.58.34.84.28,2.77-.63,5,.87,7.11,2.12,1.75,1,3.41.85,5.15.88,1.35,0,2.61-.05,3.48,1.31.7,1.08,1.45.82,2.44.06.7-.54,1.34.94,2.43.72.91-.18,2.55-.69,2.34,1.41,0,.09.58.37.64.31,1.93-1.88,3,0,4.56.72s3.47,2.56,5.49.51c.13-.13.87.05.88.12.19,3.22,3.19,1.1,4.48,2.37,1.54,1.52,3.86,1.15,5.71,1.88s3.28,1.83,5.33,1.65c.9-.09,1.25,1,1.87,1.46,1.13.91,2.61.82,3.75-.78.22-.32.3-1.16.11-1.29-.82-.59-2.12-.62-2.07-2.11,0-.1-.58-.37-.82-.3-1.74.54-3-1.14-4.59-1-3,.2-4.4-3-7.14-3.29-.09,0-.2-.25-.22-.39-.19-1,.61-2.35-1.48-2.39-1.53,0-1.39.91-1.74,1.75a.9.9,0,0,1-1.3.25c-1.25-1.31-3.22-1.28-4.48-2.48-.31-.29-1.33-.45-.6-1.39,1.15-1.49-.37-1-.9-1-.21,0-.49.4-.7.66-1.35,1.64-2,1.79-3.29-.42-1-1.72-3.32-2.77-5.35-3.68-.36-.17-1.34-.55-.87-1.34.28-.47,1.2-1.11,1.33-1,.73.56,1.23,1.2,1.38-.37.12-1.16.55-.43,1.16-.28,2.88.71,5.36,2.47,8.19,3.13.91.2,1.86,2.19,3.21.41.12-.15,1.29,1.55,2.52,1.94,1.9.6,3.43,2,5.68,2.08,1.1.05,3.32.12,3.39,2.46,0,.55.89.52,1.27.35a1,1,0,0,0,.38-1.62,7.24,7.24,0,0,0-1.41-1.41c-.37-.31-.47-.51-.1-.72.94-.56,2.39.32,3.05-1.06.47.37,1,.72,1.41,1.12s-.14,1.87,1.2,1.71,2.67.5,3.84-.35c.21-.15.12-1.22,0-1.26-4.08-1.13-5.89-5.9-10.33-6.51-.25,0-2.15-.69-.81-2,.7-.71-.32-.87-.46-.79-1.37.82-1.92.65-2.85-.94-.74-1.27-2.63-1.8-2.71-3.86,0-.57-1,1.48-1.6.2-.25-.53.08-1.39-.87-1.43-3.11-.11-5.06-2.22-7.29-4-1.42-1.12-.94-2-.27-3.17.88-1.55,1.64-.15,2.21.18,1.88,1.07,4.43,1.13,5.45,3.64.34.84,1-1.35,1.71-.2.54.83,2.55.2,2.06,2.05,1.07-.15,2.13-.46,2.86.82.55,1,1.83,1.39,2.11,2.63.32,1.46,1.71,1.63,2.69,2.36s1.83.47,2.75.67,0,2,1.59,2,1.78,2.23,3.68,2c1.56-.16,1.62,2.2,3.32,2.58,1.3.29,1.69,2.34,3.49,2.47a2,2,0,0,1,1.46,1.8c0,.91.49,1.06,1.23,1.08,1.39,0,3.07-.43,3.23,1.85a5.23,5.23,0,0,0,1.85.11c.4-.05.95-.82.28-.81-2.31,0-1.74-2.39-3-3.33s-2.91-1.47-3.88-2.73-3.48-1-3.59-2.89c-.12-2.17-2.17-2-3.17-3.07a33.32,33.32,0,0,1-5.91-7.52c-.57-1.12-.88,0-1.33.2-.84.32-1.56.37-1.67-.87s-.93-1.13-1.73-.69c-.45.25-.92,1.29-1.23,0-.38-1.55-2.49-1.59-2.67-3.34a2,2,0,0,0-1.35-1.35c-2.32-.23-3.28-2-4.47-3.54s-3.24-2.34-3.54-4.54c-3.12-.56-3.89-4.8-7.6-4.71-1.09,0,1.34-1,.21-1.61-.69-.34-1.48-.42-2.05-1.09a9.8,9.8,0,0,0-4.7-3.1c-1.89-.61.36-1.17.08-1.47s-1.19-.39-1.65-.77c-1.25-1-2-2.51-3.19-3.64-.41-.4-1.56-1.39-1.08-2.47.63-1.39,2.67.11,3.3-1.46.35.23.94.4,1,.71.79,3,4.16,3.33,5.65,5.58a1.41,1.41,0,0,0,.77.51c.74.18,1.73-.38,2.16.58.15.35-1.4.65-.44,1.35.61.45,1.69-.31,2.31.41.91,1.07,2.38,1.68,2.31,3.58,0,.84.32,3.15,2.3,1.2.71,1,2.88.39,2.68,2.64a2.12,2.12,0,0,0,2.53,2.25c.76-.07,1.14.51,1.7.75,1.57.68-.33,3.11,1.48,3.16a4.51,4.51,0,0,1,3.33,1.71c.11.13.25.23.34.36.82,1.17,2.23,1.75,2.64,3.43.32,1.33,2.46,0,3.3,1.43.74,1.27,2.82,1.28,3.12,3.14.06.4.68.7,1,1.07,1.11,1.23,3.05,1.21,4,2.22s.92,2.9,1.56,4.29c.56,1.22,1.12-1.23,1.69-.19.35.66.06,1.68.45,2.3.48.79,2-.06,2.22.42,1.35,3,4.64,3.49,6.69,5.54,1.19,1.2,2.55,2.23,3.84,3.34-.76,2.07,1.88,2.5,2,4.17.11,1.32,1.2.77,1.91.85.28,0,.58-.18.88-.28a2.76,2.76,0,0,0-.31-.7,45.43,45.43,0,0,1-3.95-5.85c-.67-1.12-.56-1.65.25-2.47,1-1,2.23-1.14,3-.26,1.23,1.39,3.11,2.16,3.34,4.63.18,1.91,2.75,2.94,3.5,4.94a1.35,1.35,0,0,0,.91-.1c.23-.14.48-.59.41-.79-.38-1-.85-2-1.32-3-1.29-2.63-2.19-5.61-4-7.75-1.07-1.23,1.43-1.86-.27-2.71a5.09,5.09,0,0,1-2.09-3.05,8.07,8.07,0,0,0-1.83-2.76c-.53-.7,1.05-1.8-.48-2.49-1.34-.6-.71-2-1-3.07a20.16,20.16,0,0,0-1.5-3.37,21,21,0,0,1-1.4-2.91c-.16-.54-.41-1.45.29-1.81a2.23,2.23,0,0,1,1.86-.18,10.76,10.76,0,0,1,3.85,4.22c1.18,2.7,1.79,5.66,3.12,8.19s2.4,5.39,4.34,7.77c1.16,1.43.52,4.08,2.49,5.41.64,3.57,3.36,6.23,4.11,9.82a16.28,16.28,0,0,0,3.14,6.15c1,1.28.64,2.47.71,3.72,0,.38-.32.8-.92.25-1.24-1.14-2.83-.56-4.24-.52s-.46.66-.11,1.16c.54.77.63,1.65-.57,1.75-1.65.13-3.36-.16-5,.1-.94.16-2.91.16-1.35,2.38.87,1.23-.66,3.07-1.56,3.42-2.6,1-1,1.72-.18,2.71.52.69,1.61.06,2,1.09C359.72,428.65,358.72,430,356,430Z"/><path class="c" d="M194,328.06c-1.09-.27-2.05.26-3-.5-4.15-3.34-10.52-3.47-13.09-9.11-.34-.73-1.28-.2-1.77-.48-1.78-1-4.38-1.07-4.27-4.28,0-1.29-1.22-1.43-2.7-.81-1.23.51-3.17.7-3.64-1.74-.18-.9-1.55-.89-2.4-1.25-1.57-.68-3.91-.67-4.19-3.23a.92.92,0,0,0-1.52-.53c-2.33,2.33-2.81-.08-4.24-1.21a54.74,54.74,0,0,1-4.42-3.64c-2.24,1-3.24-1.3-4.85-1.95-2.34-.94-2.2-1.23-1.47-3.34.62-1.8,1.11-2.21,2.54-.56,1.27,1.44,4.14-.44,5.07,2.14,1.71.29,2,2.33,3.74,2.82s2.88,2,4.8,1.61c1-.2,1.39.66,2,1.12a9.6,9.6,0,0,0,5.52,2.16c.19,0,.45-.38.7.08,1.38,2.61,3.9,3.6,6.44,4.68,1.94.83,3,2.86,4.77,4.06,4,2.67,8.35,4.88,12.36,7.61a10.52,10.52,0,0,1,4.08,4.3c.3.66,1.59.8,1.15,1.72C195.5,328.06,194.47,328,194,328.06Z"/><path class="c" d="M153.18,263.67c0,2.09-1.09,3-2.83,2.17-.81-.37-1.26-2.09-2.06-1.49-2.09,1.56-1-.75-1.44-1.08s-2,1.9-1.94-.71c0-.82-1.7-.49-2.31-1.41a11,11,0,0,1-1.84-2.75c-.35-1.06-2.21.2-3-1.09-1.16-1.93-3.92-1.05-5.27-3.12-1-1.52-3.11-1.8-5-2.36s-3.08-2.74-4.85-3.76-2.78-2.51-4.42-3.5c-.66-.4-.51-2.1-1.85-.64a12,12,0,0,0-2.14-2.08c-2.1-1.21-4-2.53-4.89-4.92-.52-1.37-1.73.09-2-.2a13.46,13.46,0,0,1-2.16-3.07c-.25-.43,1.66-2,1.88-1.63,1.6,2.46,4.94,1.2,6.7,3.23.31.35.56.82,1.19.75,1.86-.19.45,3.41,3,2.56,1.61-.54,2.6,1,4,1.41,2.36.63,2.6,3.1,4.08,4.46s4.56,1.18,4.85,3.29c.36,2.68,1.57-.35,2.13.65a6.93,6.93,0,0,0,2.47,2.43c.4.23,1.57-1.39,1.9-.76,1.34,2.57,4.61,3.18,5.72,6,.54,1.4.9,1.35,1.9-.22.48-.75.71-1.15,1-.08,1,3.32,3.81,4.81,6.49,6C154,262.45,153.66,262.77,153.18,263.67Z"/><path class="c" d="M221.5,362c-1.32,1.19-2.16-1.49-3.83-.43-.75.48-2.66-.57-3.33-1.82-.8-1.49-3,.05-3.26-1.44-.36-2.44-2.05-1.31-3-1.25-1.71.11-.52-2.82-2.59-2.11-1.39.47-2.3-.62-3.44-1.29-2.09-1.25-4.14-2.69-6.85-2.83-.91-.05-3,0-3.19-2.05,0-.52-.64-.59-.92-.86-1-.95-2,2.22-3.22-.22-.49-1-2.72-1.28-4-1.92s-2.79-.38-4-1.31a20,20,0,0,0-3.72-1.81c-1.11-.54-2.17-1.49-3.3-1.59-1.49-.12-1.75-.54-2-2-.3-1.94,1-2.08,2.07-2.6l.71-.33c1.06,2.5,3.9,1.1,5.44,2.48.46.42,1.23.14,1.32.35,1,2.39,2.07,2.09,4.28,1.14,2.4-1-.35,1.68.64,1.64,1.55-.06,2.62,1.17,4,1.17s2.64,0,3.45,1.36c.17.26.49.66.71.64,3.25-.34,5.31,1.79,7.49,3.61a2.38,2.38,0,0,0,1.83.41c1.17,0,2.24-.16,2.29,1.62,0,1.1,1.84-2,2,.7.06,1.22,1.86,1,2.75.23s1,0,1.45.27c2.58,1.28,3.22,1.89,4.81,4.84a1,1,0,0,0,1.33.31c.62-.24.39-.71,0-1s-.5-.57-.17-.69a3,3,0,0,1,1.29-.13c.52,1.95,2.23,2.28,3.76,2.87a1.6,1.6,0,0,1,.4.23,2.78,2.78,0,0,1,1.27,2.95C223.64,362.81,222.32,361.63,221.5,362Z"/><path class="c" d="M242,333.71c0,.67,0,1.31-1,1.31a.91.91,0,0,1-1-.81c-.08-.3-.1-.86-.2-.87-3.45-.39-5.17-3.52-7.93-5-1.19-.64-2.6-.75-3-2.67-.22-.94-2.15-2.14-3.22-2.35s.33-4-2.08-1.38c-.19-1.64-1.71-1.93-2.76-2.69s-1.6-1.91-3-2.39c-1.1-.37-1.93-1.65-2.73-2.65-.23-.29-.27-1.3-.53-1.18-3.29,1.5-3.58-2.35-5.6-3.22a13.57,13.57,0,0,1-5.74-4.19c-.95-1.29-2.9-.08-3.83-1.72-.63-1.11-1.74-2.58-2.78-2.7-1.68-.19-1.31-1.56-2-2.21s-.64-1.28,0-2.07a2.41,2.41,0,0,1,3.05-.8c.85.38,1.43,1.36,2.15,2,.92.88,1.6,2.19,3.24,1.81.59-.13.89.22,1.06.73.91,2.78,3.5,3.35,5.78,4.21a3.36,3.36,0,0,1,1.59.95,11.2,11.2,0,0,0,4.7,3.12,5,5,0,0,1,1.18.75c1.67,1.48,2.23,4.27,5.14,4.24a9,9,0,0,0,5.2,4.09c3.21,4.62,8.37,7,12.33,10.83A5.74,5.74,0,0,1,242,333.71Z"/><path class="c" d="M80,259a6.09,6.09,0,0,1,4.4,1.64,36.78,36.78,0,0,0,8.79,5.17c2.2.9,3.6,3,6.15,3.31.94.11,1.94.8,3.07,1,.6.1.8,1.75,1.5,2.15a18.25,18.25,0,0,0,5.86,2.61c2.12.33,1.67,2.82,3.15,3a7.72,7.72,0,0,1,4.08,1.86c.23.2.41,1.25.51,1.15,3.21-2.89,3.52,1.57,5.34,2.19,2.08.71,2,1.18.58,2.92-.52.62,0,1.73-1.07,2s-1.57-.57-2-1.21c-.63-1-2.48-.42-2.57-2.37,0-1.16-.73,1.06-1.67.26-2.62-2.24-6.17-3.11-8.61-5.67-.33-.36-.73-1-1.07-1-4.5.21-6.87-3.56-10.24-5.43-.58-.32-1-.73-1.74-.62-1.43.23-2.55,0-2.69-1.74-2.2,1.24-2.65-1.75-3.88-1.75-3.07,0-4.06-3.45-7.07-3.64-1.77-.12-2.51-2.84-4.61-3.26-.18,0-.23-1.21-.18-1.84.08-.92.85-.78,1.5-.77Z"/><path class="c" d="M124.42,316.13c-1.13.49-.86,1.8-2.41,1.48-4.33-.88-8.45-2.11-11.86-5-.75-.64-1.49-.45-2.26-.61-1.59-.32-3.44-.3-3.89-2.45-3.14.1-5-2.83-7.68-3.44A24.16,24.16,0,0,1,87,302c-.84-.62-2-.44-2.94-.59s-1.54-1.39-2.77-1.69-2.13-1.22-3.26-1.71c-1-.43-2.22-.76-1.45-2.06,1-1.69,1.82-1.82,3.09-.71.89.77,1.51,1.07,2.46.12s1.07.63,1.89.71c2.16.21,4.45.57,5.92,2.43.81,1,1.4-1.25,2.18.07a5.47,5.47,0,0,0,2.11,2.08A6.33,6.33,0,0,1,97,302.49c.68.93,2-1.32,2.47.46,1.67-.32,2.82.56,3.74,1.77.8,1.06,1.56,1.26,2.58.31a.91.91,0,0,1,.88.16c2.43,3.23,7.21,2.39,9.64,5.6,2.28-1.45,3.36,2.66,5.66,1.24.17-.1.79.13.82.28C123.05,313.68,122.94,315.16,124.42,316.13Z"/><path class="c" d="M206.94,382c-1.45-.18-1.86-2-3.54-2.25-1-.14,0-2-1-3-.64-.71.68-1.41,1.52-1.7.22-.08.78.11.83.28.56,1.8,1.86-1.39,2.56.45.56,1.48,2.12,1.34,3.44,1.23,1.71-.15,3.19.05,4.38,1.57.5.64,1.54-.69,2.59.3.48.46,1.58,1.56,3,1.18,2-.56,3.73.52,5.33,1.55a1.37,1.37,0,0,0,2.08-.2c.53-.57,1.55-.65,1.63-.06.26,1.91,1.5,1.76,2.79,1.66a6.78,6.78,0,0,1,5.1,2.17c.8.73,1.49,1.35,2.42.28a2,2,0,0,1,2.24-.39c1.36,2.09,4.4,1.39,5.59,3.43.48.81,2.42,0,1.64,1.31-.4.7-1.06,3-3.13,1.28-.95-.79-2.18,2.1-3.76.18-.79-1-2.4.08-3.71-.65-.86-.47-2-2.33-3.41-.61-1-1.72-3.16-1.52-4.39-2.55-1.65-1.4-2.76.39-4.22.08-1.77-.37-2.36-2.57-4-2.44-2.19.18-3.93-1.6-6.09-1.08-1.11.27-1.75-.58-2.59-1-2.35-1.13-2.45-1.11-6.75-1Z"/><path class="c" d="M243,308c.05-1,.81-1.11,1.4-.92a15.19,15.19,0,0,1,6.19,3.09c2.8,2.63,5.29,5.6,9,7.07,1.14.45-1.39,1.07-.2,1.68.67.34,1.79,0,2.27.44.85.8,2.09.67,2.86,1.67a11.78,11.78,0,0,0,3.53,3.47c1.63.85,2.72,2.85,4.15,3.06,1.93.29,1.31,2.74,3.37,2.72,1.46,0,1.17,2.55,3.06,3.13,1.41.44,2.41,2.2,3.57,3.39.53.54.3,3.14-.23,3.76s-.7.3-1.07-.06c-1.86-1.76-5.24-1.65-5.94-4.85-1.73-.6-2.66-2.35-4.15-3.09s-2-2.5-3.69-2.9a4,4,0,0,1-2.81-2.61c-2.49.46-1.73-3.55-4.68-3.21-1.46.17-2.61-2.49-4.51-3.27-1.21-.5-1.78-2.24-2.67-3.22a33.19,33.19,0,0,0-3-2.25c-1.35-1.11-2.25-2.63-4.13-3.27C243.89,311.26,243.85,309.17,243,308Z"/><path class="c" d="M259.15,277.34c.68-.69.75.1.83.44.52,2.1,2.58,2.89,3.74,4.43.22.28,2.57,3.59,2.76,3.74.8.65.29,1.56.55,2.28.62,1.73,1.08-.44,1.53-.13.83.57.22,1.55.46,2.29s1,.61,1.66.61,1.14.05,1.38.95c.31,1.19.87,2.3,1.16,3.53.16.66,1.91,1.53,3,2.07,1.68.85-.64,1.69.34,2.64s2.35.47,2.83,1.68c1.06,2.68,3.9,4.18,4.62,7.05.11.45.12.75.65,1,1.1.45,1.11,1,.21,1.79a15.64,15.64,0,0,0-1.41,1.41c-1,1.14-1.52,1.09-1.43-.56-1.87.16-1.78-2.07-3.29-2.64a4.42,4.42,0,0,1-2.91-3.58c-2.58-.84-3-3.23-3.75-5.34a3.9,3.9,0,0,0-1.5-1.85,14.9,14.9,0,0,1-4.6-6,18.18,18.18,0,0,0-4.11-5.78c-.63-.56-1.32-1.22-.6-2s.91-1-.41-1.36c-3-.73-3.79-2.08-3.9-4.56C256.84,277.47,258.73,278.37,259.15,277.34Z"/><path class="c" d="M273.55,440.05c.76.66-.11,1-.25.91-1.26-.82-2.46-.44-3.68,0-.61-1.58-2.11.48-2.89-.71-.17-.25-.9-.28-1.31-.18-.84.22.08,1.79-1.05,1.68-.51-.05-1-.83-1.4-1.34s-.78.14-1.07.1c-1.08-.12-2.52-.32-2.8-1.38s-.62-2.66.81-3.58c.24-.15.47-.32.7-.48,1.25,2.37,3.27-.6,4.89.72a3.9,3.9,0,0,0,3.35.1,8.79,8.79,0,0,1,8.19,0c.64.34,1.48-.31,2.21-.55,1.36-.43,2.91.26,4.45-.12.41-.11,1.1,1.49,1.74,1.55.91.09.2-1.61,1.05-1.76a2.54,2.54,0,0,1,2.35.25c.27.22.37.91,1.07.32,1.52-1.28,3.07-1.81,4.55.22a1.88,1.88,0,0,0,1.85.09c1.47-1.63,2.45-.85,3.57.4s1,2.12-.65,2.61c-1,.29-2.48-.43-2.29,1.57,0,.13-.49.43-.77.45a6.15,6.15,0,0,1-2.46,0c-.81-.3-1.34-1.25-2.27,0a2.09,2.09,0,0,1-2.27-.24,2.32,2.32,0,0,0-3.42,0c-1.13,1-3-.52-4,1.06-.17.25-.37,0-.71-.23-1.6-.9-1.82-.83-3.51-.56-1.31.21-2.54.19-2.74-1.67-.05-.51-.9-.42-1.28-.23C272.75,439.43,273.34,439.78,273.55,440.05Z"/><path class="c" d="M360,435.5c.64,2-1.89,1-1.95,2.1-.1,2-.63,1-1.57.5a2,2,0,0,0-2.3.23,3.21,3.21,0,0,1-.73.66c-1.75.76-2.91-1.58-4.56-1-1.44.54-2.76,1.92-4.24.11-2.52,1.32-5.33-1.51-7.82.52a2.71,2.71,0,0,1-.86.34c-1.69.58-3.17-1.55-4.48-.8a3.32,3.32,0,0,1-3.89.09c-1.31-.69-3.77-.93-4.75-.15-2.28,1.82-2.7-.15-3.79-1.13-1.36-1.21-1.44-1.42,0-2,1-.39,1.75-1.32,3.07-1.07,1.76.34,3.41-.33,5.1-.87,1.24-.39,2.67-1.06,4.17-.14.74.45,1.86-.24,2.75.6s1.3-.9,2.4-.63,2.1.2,3.11,1,1.92-1.9,2.91-.76c1.13,1.29,1.55-.14,2.29-.17,1.67-.08,3.41.28,5-.72,1.18,1.7,3.57-.25,4.86,1.66.43.64,1.5-1,1.9-.75.72.39,1.28.92,2.18.81C359.89,433.86,360.14,434.54,360,435.5Z"/><path class="c" d="M188.12,400.38a6.71,6.71,0,0,0,.7-.71c.94-1.29,2.91-.11,3.77-1.58.55,3.41,4-.9,4.82,1.82,2.16,0,4.51-.49,6.42.22,3,1.1,6,1.51,9,2.37.94.27,2,.73,2.74.43,2.23-.87,3.9.15,5.87.86,1.29.46,3,.44,4.37.79a22.59,22.59,0,0,0,4.8.39c2.13.12,1.05.79.39,1.55-.16.19-.06.65,0,1,.31,2.34.15,2.29-1.46,2.58-1.4.25-1.7-1.49-3.11-1.12-3.09.8-6.05-.67-9-1.11-2.61-.39-5.51-.06-7.9-1.78-.44-.31-1.3-.05-2-.07a12.87,12.87,0,0,1-5.63-.9c-1.63-.79-3.82.56-5.6-1-.56-.5-1.95-.21-2.93-.06-2.73.44-3.49-2.1-5.14-3.29C188.16,400.67,188.16,400.5,188.12,400.38Z"/><path class="c" d="M264,367.83c-.29-1.53.45-1.86,1.91-1.87,3.21,0,5.06,2.48,7.31,4a16.18,16.18,0,0,0,4.92,2.63,25.88,25.88,0,0,1,7.08,3.34c2.25,1.38,5.12,2,6.67,4.46.39.62,1.15.94,1.66.49.7-.61,1.13-1,1.81,0,1.83,2.57,4.63,3.89,7.37,5.08a7.53,7.53,0,0,1,3.2,2.78c.32.45.49,1.8-.41,2.19-.64.28-2.08.51-2.22-.21-.37-1.82-1.53-2-2.79-1.63-1.81.55-2.88-1.51-4.59-1.08a1.06,1.06,0,0,1-.79-.37c.42-3.49-3.13-2.24-4.29-3.66s-3.57-.25-3.69-1.55c-.24-2.62-2.63-.54-3.34-2-.36-.74-1.84-.45-2.34-1.45-.81-1.61-2.53-1.61-3.89-1.79-1.57-.2-3.07-.5-3.68-1.88-.82-1.87-3.12-.45-3.93-2.18a4,4,0,0,0-3.73-2.16C264.42,370.84,263.83,369.57,264,367.83Z"/><path class="c" d="M323.75,323c.26,0,1.49-.23,1.81.19,1,1.35,2.36,3,2.27,4.44-.13,2.19,1.85,3.16,2,4.6.2,2.07,2.11,2.68,2.6,4.49a10.34,10.34,0,0,0,2.65,4.87,7.26,7.26,0,0,1,2,4.67c.46,3.22,2.95,5.84,2.94,9.24,2.33.57,2.32,3,3.49,4.45.6.77.8,1.41,0,2-1.48,1.14-3.07,1.31-3.71.21-1.79-3.08-4.53-5.54-5.39-9.25-.62-2.66-.92-5.64-3.36-7.57.54-4-3.52-6.19-4-9.81-2.33-1.64-2-5-4.47-6.7-1.35-.93,0-3.43-1.49-4.82-.35-.32.15-.93.66-1A12.72,12.72,0,0,1,323.75,323Z"/><path class="c" d="M252,338.71c-.49-2.79,1.2-.63,2-.74a2.4,2.4,0,0,1,2.55,1.1,7.92,7.92,0,0,0,3.89,2.69c1.3.54,2,1.61,3.09,2.19s1,2.51,2.44,2.52,1.3,1.7,2.74,1.91c1.23.18,1.82,2.4,3.37,2.57,2.08.23-.33,3.31,2.07,3a4.44,4.44,0,0,1,4.25,1.87,12,12,0,0,0,3.38,2.6A6.21,6.21,0,0,1,285,362c.22.92.69,1,1.36,1,2.73-.18,2.58,3.18,4.67,3.85a3.11,3.11,0,0,1-.21,1.82c-.36.7-1.37.52-1.79.29-2.18-1.2-4.28-2.55-6.39-3.87-.66-.41-.65-1.09-.59-1.75.11-1.11-.44-1.48-1.46-1.33-1.5.22-2.45-1.73-4.06-1a36.58,36.58,0,0,0-5.4-4.76c-.42-.27-.51-1.42-1.52-1.21a2,2,0,0,1-2.35-1.4c-.58-2.61-2.9-3.21-4.62-4.49-.35-.26-.94-.17-1.33-.39-1.54-.85-1.19-3.26-3.34-3.81-1.34-.34-3-.82-3.3-2.75-.06-.4-.67-1-1-1C251.82,341.2,252,340,252,338.71Z"/><path class="c" d="M238,370.48c-.86-2.06,2.48-1,2.24-3.07-.09-.82.87.78,1.74.67.64-.08,1.43.51,2.06.93a11.84,11.84,0,0,0,5.65,2.18c2.39.26,5.47.75,6.32,4.05.33,1.29.76.32,1.24.06a1.91,1.91,0,0,1,1.32-.19c1.85.53,2.86,2.68,4.8,2.83a9.78,9.78,0,0,1,5.22,2c.55.39,1.81.54,1.91,1.19.34,2.05,1.69,2,3.18,1.9,1.69-.15,1.37,1.07,1.3,2-.1,1.29-1.41,1.72-2.08,2.62-.53.74-.8,0-1-.26-1.5-1.56-3.84-1.57-5.38-2.6-3.81-2.53-8-4.05-12.14-5.72-2.43-1-4.68-2.4-7-3.54s-4.89-1.89-7.29-2.93C238,371.65,238,371.65,238,370.48Z"/><path class="c" d="M374.86,382c.87-.13,1.05.43,1.2,1.43s-1.67,1.92-.14,3.25c.65.57-.32,2.18.46,3.25.63.84-.26,1.93.54,2.95.61.78-.41,2.24.63,3.21s-.22,2.69.74,3.65c1.31,1.31.54,2.82.67,4.22.09,1.09,2.29,2,.33,3.27-.35.23-.33.55.13.69,1.78.57.54,2.28,1.2,3.16,1,1.26-.15,2.79.92,4.15.69.88-1.3,3.58-2.47,3.79a.79.79,0,0,1-1-.72c0-1.61-.26-2.95-2.11-3.27-1-.18-1-.63-.3-1.1,1.57-1,1.32-1.89,0-2.85a4,4,0,0,1-1.37-1.42c-.23-.53.37-.64.85-.65s1,0,.68-.73-.95-1.6-1.39-2.42c-.53-1,1.17-1.34.69-2.44-.24-.55,0-1.36-.91-1.39-.49,0-1.19-.37-1-.58,2.54-2.5-1.44-4.8-.18-7.24.23-.45-.11-1.17-.57-1.15a1.42,1.42,0,0,1-1.32-2.32c1.54-1.57.84-2.54-.45-3.6-.23-.18-.53-.46-.54-.7C370.06,385,373,382.15,374.86,382Z"/><path class="c" d="M353.26,445.36a11.63,11.63,0,0,0-2.87,1,4.91,4.91,0,0,1-3.24.63c-.89,0-1.76,1.87-2.7.06-.06-.14-.77-.16-.93,0-3.4,3.55-8.32,2.3-12.34,3.91-.91.36-1.89.28-2.43-1.43-.39-1.19-.34-1.62.43-2.16,1.77-1.24,4.76-2,9.2-2.48.57-.06.6-.5.64-1,0-.28.22-.75.42-.79a3.21,3.21,0,0,1,3.14.78c.23.22.06-2.32,2-1.91,3.26.69,6.25-1.71,9.54-1,1.72-2.07,3.42.28,5.16.05.85-.11.92.87.7,1.46s-.72.28-1-.09c-.54-.66-.91-.11-.89.27,0,1.43-1.3,1.8-1.94,2.7S354.79,446.1,353.26,445.36Z"/><path class="c" d="M293.78,321c1.11-.31,1.42,1.44,2.58,1,.39,2.37,2.8,2.07,4.23,2.85,1.18.64,1.72.55.49,1.55-.89.73-1.4,1.53,0,2.09,1.19.48,1.29,3.46,3.51,1.56.53,1.64.72,3.47,2.44,4.46-.35.35-.72.69-1.05,1.06s-.82.77-.76,1c.15.59.82.37,1.29.38a6.56,6.56,0,0,0,2,0c1.94-.51,1.28,1.46,2.05,2.08,1.14.92.3,1.68-.43,2.38-.48.46-.87,1.22-1.42,1.35-.94.22-1.83.78-2.77-.76-1.22-2-1.81-4.88-4.79-5.43-.4-2.75-2.77-4.19-4.13-6.28-1.67-2.54-4.42-4.69-4-8.31A1,1,0,0,1,293.78,321Z"/><path class="c" d="M209.92,331.05c-.23,0,.42-.15.69.12,1.65,1.58,3.36,2.91,5.81,2.86.19,0,.57.46.55.67-.19,2,2.19,1,2.59,2.3,3-.84,4.39,1.55,6.14,3.19.92.87,1.6,2.18,3.23,1.81a.81.81,0,0,1,1,.71c.21,1.67,1.73,2.28,2.65,3.37a1.35,1.35,0,0,1,.34,1.34,1.16,1.16,0,0,1-1.65.54c-2.18-1.45-6.06.05-6.76-3.9l-10-6c-3,.5-4.24-2.39-6.42-3.48-.66-.33-1.56-1.05-1.13-1.94A2.54,2.54,0,0,1,209.92,331.05Z"/><path class="c" d="M215,279.54a5.62,5.62,0,0,0-.73.74c-.63,1-2.54.51-2.49,2.39,0,.51-1.12.58-1.59,0-1.33-1.8-3.53-2.75-4.33-5.16a6,6,0,0,0-3.08-3.11c-3-1.31-4.54-3.74-5.74-6.53-.13-.28-.28-.72-.48-.77-.6-.12-1.57.05-1.46-.79a5.07,5.07,0,0,1,1.21-2.91,2,2,0,0,1,3,.39c1.08,1.31,3.78,1.54,2.77,4.24-.22.57.35.72.72,1,2.34,2,5.45,2.86,7,6,.73,1.51,2.84,2.34,4.3,3.51A8.28,8.28,0,0,1,215,279.54Z"/><path class="c" d="M275.12,467a6.74,6.74,0,0,1-2.25-.05,3.85,3.85,0,0,1-1.82-1.5,1.47,1.47,0,0,1,1-2c2.89-.71,4.62-4,8.05-3.55.44.06,1-.71,1.51-1.09a7.7,7.7,0,0,1,1.1-.81c2.43,2.32,4.82-.45,7.19,0,.65.12,2.26.09,1.78.51-1.56,1.38,1.23,2.08.24,2.82s-2,1.12-2.38,2.46c-.05.21-1.59.41-1.78.15-1.18-1.69-2.92-.14-3.1.12-1.29,1.9-3.43.29-5,1.51C278.49,466.55,276.78,467.67,275.12,467Z"/><path class="c" d="M231.64,300.09c-1.07-1.93-3.28-.32-4.4-1.44C225.75,297.17,224,296,223,294c-.75-1.44-1.7-3.11-3-3.83-.94-.51-1.86-.46-2.2-1.82-.17-.68-1.17-1.2-.47-2.06s1.26-1.59,2.45-1.26,2.52,1.26,4,1.19c0,2.06,2.43,1.74,3.05,3.13.15.31-.63,1.08-.48,1.35.38.65,1.21.16,1.81.33a3,3,0,0,1,1.95,1.93c.43.94.45,3.17,2.45,1.18.14-.15.67.61.49,1.06s-.69,1-.94,1.6a1,1,0,0,0,.17.89c.61.66.67-.34,1-.41s1-.3,1.33-.13c.78.41,0,.77-.23,1C233.53,298.87,233,300,231.64,300.09Z"/><path class="c" d="M307,296c1.79-.19,3.71,1.61,4,3.58.19,1.4-.88,3.43,1.75,3.66-1.13,1.33-.05,2.7.56,3.38,1.1,1.21,1.59,2.74,2.66,3.9-1.33,1.65.21,2.61.86,3.83.77,1.44-1,2.13-1.17,3.38-.06.44-.61-.37-1-.55-2.64-1.31-3.65-4-5.23-6.21-.09-.14-.35-.32-.33-.35,2.83-4.23-1.85-6-3-8.88-.93-2.26-1.37-3.22-.11-5.11C306.28,296.21,306.56,295.85,307,296Z"/><path class="c" d="M191,375a4.29,4.29,0,0,1-3.76-1c-1.66-1.62-4.21-.51-6.1-2.17-1.54-1.36-3.91-1.64-6.13-1.95-1.72-.24-3.34-1.46-4.94-2.37-.68-.39-1.51-1.16-1-2s1.21-2,2.28-1.47c2.75,1.41,6.62-.08,8.57,3.35a1.42,1.42,0,0,0,.66.47c1.53-1.63,2.85-1.13,4.13.33.95,1.09,2.47,1.29,3.52,2.38.89.92,3,.17,3.63,1.84.27.76,1,1.63,1,2C192.66,375.42,191.52,374.85,191,375Z"/><path class="c" d="M160,332.09c0,.59-.31.86-.88.91-1,.09-1.37-.8-1.93-1.35s-1.26-1-1.68-.58c-2.16,2.28-3.92-.17-5.45-.75-2.22-.84-5.08-1.18-6.29-4-.36-.82-1.56-.39-2.31-.3a3.86,3.86,0,0,1-3.43-1.45c-1.64-1.59-.7-1.66.76-1.58.54,0,1.14-.11,1.18-.6.16-2.37,1.83-1.64,2.74-1.06s2.22.54,2.84,1.67a2.1,2.1,0,0,0,1.09,1c1.06.3,2.5-.59,3.23.52.48.72.12,2.2,1.48.66,2.28,2.72,6.08,3.35,8.35,6.07A2.88,2.88,0,0,1,160,332.09Z"/><path class="c" d="M182.33,291c-1.58.24-2.41-.1-2.46-2.28,0-1.59-1,.51-1.46.15a6.18,6.18,0,0,1-2.08-2.12c-1.21-3.09-3.73-4.54-6.53-5.79-.68-.3-2-.63-1.34-1.85.53-.94.41-2.73,2.51-2.16,1.33.35,6,2.07,6.63,3.21,1.63,3.08,3.71,5.5,7.32,6.28,1.76.39-.21,1.93.74,2.88.6.59-.69,1.24-1.21,1.62S183.16,291,182.33,291Z"/><path class="c" d="M304.33,458c-1.23.2-1.82-.82-2.27-1.56s.34-1.58,1-2c2.94-1.72,5.77-3.84,9.48-3.46,1,.11,1.42-.25,1.49-1.33.05-.83.93-.65,1.56-.68a5.18,5.18,0,0,0,2.72-.66,2.57,2.57,0,0,1,3.67,1.19c.49,1.16-.35,2.5-1.85,3.51s-3.45.51-4.65,2c-2-.71-3.6,1.13-5.54,1s-3.15,1.17-4.64,2C305.06,458.12,304.66,458,304.33,458Z"/><path class="c" d="M157.29,364c-1.43-.05-2.81.14-4.13-.94a5.45,5.45,0,0,0-4-1.09c-2.65.28-4.39-2.29-7-2.43a1.71,1.71,0,0,1-1.14-2c.09-.62,0-1.7.71-1.51,1.88.51,3.51-1.5,4.95-.74s3.76.22,4.54,2.34c0,.14.26.33.36.31,1.57-.25,2.54,2.21,3,1.75,1.47-1.47,2.28-.12,3.35.25.3.11.72-.09,1,0,1,.51,2,1.1,3,1.66-1.16.8-1.67,2.58-3.53,2.33A6.68,6.68,0,0,0,157.29,364Z"/><path class="c" d="M244,408c0-.48.37-1.16.62-.82,1.47,2,2.6-.13,3.78-.33,1.68-.27,2.63,1.26,4.1,1.1,1-.1,1.57.14,1.54,1.3,0,.35.31,1,.87.3.92-1.12,2.17-.5,3.26-.56,1.35-.06,2.89-.49,3.3,1.76.09.52,2.67.58,2,2.11s-2.84,1.33-4.39,1.59a6.56,6.56,0,0,1-1.72-.53c-1.5-.5-2.49,1.3-3.56.93s-1.93-1.71-2.95-2.52-2.22-.22-3.34-.37A4.25,4.25,0,0,1,244,408Z"/><path class="c" d="M319.05,425c-1.22.69-2.17-1.54-3.75-.13-.78.69-2.61.09-4-.75-1.06-.64-2.69-.63-4-.92-2-.43-4-.42-5.9-1.38-.54-.27-.89-.9-1.32-1.37.66-.45,1-1.69,1.86-1.39,1.85.68,3.4-1.81,4.85-.64s3,.34,4.54,1.13c2.11,1.11,4.92.3,7.32,1.26.22.09,1.09-1,1.71,0s1.61,1.95,1.45,2.72A2.14,2.14,0,0,1,319.05,425Z"/><path d="M519.92,441.17c1.09-.85.25-3.07,2.24-3.14,1.75-.06,3.1-1.7,5-1.07,1,.3,1.72.09,1.92-1.4.14-1,1.66-.7,2.52-.37s.45,2.64-.41,2.69c-1.66.07-.9,1.51-1.6,2-1.4,1-1.86,2-.11,3.15.27.18.44.51.71.69,1.14.74.32,1.2-.2,1.77s-1.72.58-2.46,1.32c-.56.56-1.56.32-1.57-.89,0-1-.7-.95-1.36-.92-2.88.13-2.84.13-3.66-2.25A7.8,7.8,0,0,0,519.92,441.17Z"/><path class="c" d="M229.26,440.24c.23-1.54,3.14-3.42,5-3.24,1.65.15,3.78.24,4.47-.34.95-.79,1.47-.77,2.47,0,1.24.91,2.87.38,4.3.32,1.27-.06,1.65.89,2.39,1.46-.95.61-.54,2-1.63,2.6-.5.26-5.55,1.06-6.05.66-1.21-1-2.16-.76-3.45,0-2.52,1.44-4.86-.7-7.34-.73C229,440.9,229,440.47,229.26,440.24Z"/><path class="c" d="M324.77,363a1.93,1.93,0,0,1-2-.74c-1.25-1.81-3.94-2.6-3.76-5.41,0-.55-.36-.73-.92-.88-2.76-.72-2.26-3.91-4-5.46a1,1,0,0,1,.22-1.31c.61-.5,1.52-1.71,1.89-1.13,1,1.54,3.05.14,3.58,1.58.13.36-1.33,2.16-.27,2.17,2,0,1.13,1.76,2,2.23,1.54.81,1.32,3.4,2.83,3.67,1.95.34,1.54,2.17,2.69,2.94.84.56.33,2.12-.65,2.32A8.74,8.74,0,0,1,324.77,363Z"/><path class="c" d="M240.39,350c.17,0,.37-.06.49,0,3.49,1.95,7.5,2.94,10.45,5.83.92.9,2,1.66,1.71,3.27-.17.95,2.08,1.68.47,2.82-1,.74-2-.57-2.43-1-1.55-1.64-3.93-1.68-5.54-3.53-1.22-1.39-3.68-2.07-5.41-3.37-.84-.63-1.51-2.78-1-3.59C239.39,349.9,239.92,350,240.39,350Z"/><path d="M527.33,411.67c-.3,3.6-.2,3.31-3,2.4-3.6-1.18-5.93-4-8.8-6.11-.48-.35-2.22-.86-.92-2,.68-.58.69-2.41,2.87-1.24,1.85,1,4.14,1.28,5.7,3,2.66-.38,3,2.3,4.44,3.46C528.43,411.77,527.33,411.83,527.33,411.67Z"/><path class="c" d="M371,365.44c0,1.33-.08,2.66,0,4a2.42,2.42,0,0,1-1,2.08c-.92.87-1.65.69-2-.57-.85-3.06-1.91-6.08-2-9.29a2.46,2.46,0,0,0-1-2.09c.55-.59,1.15-1.14,1.65-1.77s-.89-.94-.54-1.36c.49-.58.87-1.43,1.88-1.43a1.63,1.63,0,0,1,1.49,1.11A23.82,23.82,0,0,1,371,361,29,29,0,0,1,371,365.44Z"/><path class="c" d="M287.09,419c-2.11,0-4,.45-5.16-1.56-.41-.71-.7,0-1.05.17-2.59,1.58-4.87-.7-7.35-.7a1.62,1.62,0,0,1-1.29-1.64c.19-1.46,1.27-2.5,2.43-2.25,1.9.39,3.72,2.29,5.74.17.1-.1,1,.77,1.45.76.89,0,1.74,1.87,2.7.08.08-.15.89-.18,1.31.31a5,5,0,0,0,1.79,1.61c1.33.45,2.72,1.07,2.24,2.51S287.78,418.51,287.09,419Z"/><path class="c" d="M341,381.67c.19,1.23-.94,1.59-1.52,2.31-.43-2-2.88,0-3.5-1.83a22.42,22.42,0,0,0-4.72-8.48,1.92,1.92,0,0,1,.22-2.63c.56-.54,1.39-2.05,1.55.27,0,.38.3.9.9.28,1.59-1.66,3,.45,2.93.9-.63,3.05,2.06,4.18,3.32,6A5.46,5.46,0,0,1,341,381.67Z"/><path d="M550.45,412c1.63,1.07,3.94-.1,5.92,1,1,.54.57,1.41.61,2.16a.76.76,0,0,1-.91.85c-3.24-.18-6,1.68-9.14,2s-3,.43-4.65-1.24c-.24-.24-.49-.46-.7-.71a7.54,7.54,0,0,1-.45-.7c.29-.13.59-.39.85-.35,2.16.32,3.94-.94,5.89-1.47.31-.09,0-1.32.76-1.53A8.76,8.76,0,0,1,550.45,412Z"/><path d="M533,452.81a5.43,5.43,0,0,1-3.77,4.15c-1,.32-2.2,1.83-3-.25a1.2,1.2,0,0,0-.7-.68,5.26,5.26,0,0,1-4.55-4.47c-.16-.69-1.18-1.14-1.65-1.81s.23-.75.63-.73c.62,0,1.56-.38,1.82.29.53,1.35.73,2.75,2.49,1,.62-.63.61.2.77.55.71,1.55,1.29,3.1,3.42,1.29,1.15-1,2.78,2.38,4.08-.16Z"/><path class="f" d="M640.24,620.52c2.79-15.22,2.51-13.89,3.66-12.92a9.19,9.19,0,0,0-2.22,3.08c-.37,1-.86,1.28.51,1.32a10.58,10.58,0,0,1,1.49,0c1.12.2,4-1.54,4.44-2.61.22-.57.88-.49,1.31-.37s.38.92.61,1.16c.84.86,0,2.24.32,2.5,1,.85,2.48,1.19,3.68,1.89s.81-.25,1-.74a4.41,4.41,0,0,1,.46-.81c.82,1,2.15,1.53,2.52,2.89.12.46-.42,1.14-.57.89-1.13-1.79-2.13,1.13-2.73.15-.87-1.42-2.19.51-3-.67a1.33,1.33,0,0,0-1.29-.15c-.65.4-.71,1.46-.11,1.59,1.57.33-1.55,2.61,1.08,2.32.43,0,.71.58.1.91-.25.14-.65,0-1,0-.79.14-2.27-.35-2.24.32.06,1.4,1.49.57,2.27.62,1.77.13,2.32,1.7,3.4,2.62.21.17.26,1.08-.34,1.27s-1.43-.11-1.91.2c-1.32.86-3.31,1.3-2.75,3.66a1.4,1.4,0,0,1-.47,1.24c-.65.31-1.19-.12-1.7-.62-1.18-1.13-1-2.24-.18-3.43s.55-2.08-.84-1.81-2.61-2.46-4.32-.23c-.43.57-2.07.67-2.37,1.67a2.4,2.4,0,0,0,.59,2.73c.8.7.58,2.07.24,2.79-.65,1.39-1.34,2.25.19,3.72s3.1,1.72,4.43,1,.92-.24,1.62.6c1.14,1.37,3.48.85,5.29,1.45,2.16.72,2.94.5,3.53,2.11.09.22-.18.57-.28.86-1.13-1.19-2.57.05-3.42-.24-2.66-.91-3.77-.92-4.82,1.57a18.16,18.16,0,0,0-1.54,3.37c-.39,1.81,1.24,3.4.23,5.13,1.07.68.6,3.13,3,2.41.85-.25,1.25.92,1.85,1.45.17.15.15.68,0,1-.27.58-.58.2-1,.07-1.72-.53-2.8,0-2.88,1.7s-.27,2.91-1.64,3.84c-.39.27-.49.52-.15.7a2.71,2.71,0,0,0,.9.23.6.6,0,0,0,.44-.12c.72-.74,1.69-1.58,2.3-.28s0,2.35-1.65,2.74c-.69.16-1.27,1.15-2.06.35-1.24-1.26-1.47,0-1.14.59.75,1.32,1.65,2.41.31,3.88-.81.87.4,1,.7,1.37.95,1.14,2,2.11-.52,2.51-.5.08-.6.69-.56,1.21a2.36,2.36,0,0,1-2.11,2.77c-.38.07-1.14.09-.57.75.35.42.61,1.19,1.38,1,.27-.07.45-.6.72-.65.77-.14,1.81-.52,2.29.18.66,1,.4,2.21.14,3.31-.14.58-.85.29-1.3.4-1.78.45-3-.85-4.43-1.4s-3.83-.13-4,1.08c-.16,1-1.36,1.47-1.11,2.57.32,1.38-1,2.74-1.51,2.49-1.09-.53-.54-2.11-.4-3.17.11-.79,1.58-1.28.56-2.45a9.36,9.36,0,0,0-3.64-2.08c-.79-.36-1.85,1.1-1.33,2a5,5,0,0,1,.29,2.38c0,.16-.43.49-.7.53-.73.1-3-1.89-3.12-2.62s-.06-.19.37-.27c.92-.16,1.66-.22,1.47-1.37-.14-.87-1-.53-1.51-.81-.87-.52-.64-1.62-.41-2.26.53-1.42,1.09.62,1.6.16a3,3,0,0,0,.15-4.42,6.58,6.58,0,0,1-1-2.1c-.36-.87-4-2,.45-2.45,2.44-.24,3.27-4.45,1.49-6.51-1.09-1.27-.78-2,.25-2.82.64-.53,1.34-1.13,1-2.07-.56-1.51-.64-2.76.87-3.84,1.27-.9-1.68-1.66-.22-2.75a3.63,3.63,0,0,0,1.46-2.92c.11-1.34-1.18-1.95-1.08-3.09A26.66,26.66,0,0,0,627.44,634c-.11-.33-.47-.65-.2-.7,3.17-.62.78-3.58,1.86-4.6,1.67-1.58,0-3.92,1.83-5.37.59-.46-.22-1.4-1.31-1.34-.54,0-1.66.2-1.4-.57a5.23,5.23,0,0,1,2-2.12c.71-.52.87.59,1.45.74a7.62,7.62,0,0,1,3,1.23c1.48,1.32,2.76-.26,3-.68.79-1.21-.12-3,1-4.33-1.45-1.18-.68-2.8-.69-4.19s1.4-1.92,2.66-2.3c.35-.11-.08-.44-.09-.69-.06-1.63-1-3.28,0-4.89-1.33-.68-.07-2.32-1.08-3-.76-.54-1.86.19-2.72-.69s-1.33.8-2.39.68c-.62-.07-1.48,1.64-1.52-.51,0-.18-.38-.34-.59-.51-1.31,2.14-2.47-.29-3.72-.15-.17,0-.38-.36-.57-.56a3.58,3.58,0,0,1,.84-.4c.85-.15,2,.47,2.13-1.22.1-1.13,1.2-1.17,1.76-.4,1,1.44,2,1.09,3.47.69s3.64.66,4.16-2a2.13,2.13,0,0,1,1.27.16,34.21,34.21,0,0,1,2.85,2.8c1,1.13,1.43,1.08,1.49-.56,0-.57.57-.27,1,0,.6.36.83,1.78,1.7,1.11a9.93,9.93,0,0,1,3.17-2.07c-.22-.18-.47-.57-.64-.53-1.71.36-.92-1.46-1.66-1.86s-2.18-1-2.31-.84c-1.13,1.55-1.5-.68-2.39-.38a1.56,1.56,0,0,1-1.83-.33c-.31-.39-1.06-.9-1-1,.28-.55.75-1.31,1.25-1.39,1.45-.22,3.23-.69,4.37-.09,2.3,1.23,4.09-.19,6.09-.46.35,0,.57-1,1-.24a1,1,0,0,1-.52,1.56c-.44.14-1.19,0-1.24.49s.61.56,1.12.55c.83,0,1.66,0,2.49,0s1.29,0,1.3,1-.73,1-1.1,1.55c-.5.69-.89.12-.88-.26,0-1.13-.65-1.7-1.49-1.24s-2,1.44-1.51,2.77,1.37,2.43,1.92,3.7a1,1,0,0,1-.77,1.49c-.94.28-1.26-1.36-1.91-.68-.45.46-.16,1.57-.47,2.27a4.53,4.53,0,0,1-1.37,1.43c-.61.51-.21.82.23.92s1,0,1.28.51c0,0-.16.24-.27.34-.6.52-1,1.41-2,1.16a.88.88,0,0,1-.67-1.11c.26-1.26-.3-2.53.38-3.84a1.46,1.46,0,0,0-1.91-1.9c-.71.34-1.22.92-2.14.9-2.35-.06-2.35,0-5.09,18.49-2.29,16.16-2,15.63-2.27,15.21-.57-1.1-1.79-2.13-1.79-3.2s1.27-2,1.77-3.17a2.16,2.16,0,0,0-.08-1.9c-1.1-1.18-.93-1.59.63-1.44.51.05.81-.2.47-.48-.77-.65-1.19-2.23-2.75-1.29-.31.19-.33,1-1.06.44s-1.32-2.27-2.73-1.55c-1.1.56.09,2.17-1,3.07-.9.71,1.24,1.12.59,1.86-1.28,1.48,1,4-1.56,5.07-.83.34.07.71.26,1a2,2,0,0,0,2.15.84c1.74-.25,3.27,0,4.32,1.64C637.23,636.77,637.37,636.87,640.24,620.52ZM639,657.59c0,3.66,0,3.72,3,3.4,1.82-.2.35-.82.19-1.38-.53-1.82-.13-2.11,2.15-1.83.22,0,.66-.17.67-.28,0-.46.27-1.09-.33-1.33-.43-.17-1,0-1.43-.18-1.67-.51-1.6-.48-.42-2.33.57-.89,1.43-2.54,1.11-2.9-2-2.24-.21-4.18,0-6.27.16-1.36,1.23-2.14,1.52-3.39s-.16-1.83-1.69-1.33c-1.31.44-2.61.05-3.89.23s-.66.54-.27,1.17-.77,1.66.35,2.55c.82.67-1.32,1.18-.47,2.35.71,1-.78,1.72-.8,2.73,0,.37-1.16.87-.32,1,3,.39,1.88,3.09,1.42,3.67C638.64,654.88,639.24,656.28,639,657.59ZM634.82,651c.33,0,.66,0,1,0,.5,0,1.13-.09,1.06-.56s-.81-.33-1.25-.47-.69-.51-.15-1c1.21-1,2.66-2.76,2.06-3.7-1-1.51.33-3.36-1.2-4.54-.29-.22-.21-.89-.33-1.34-.39-1.4-1.85-2.1-2.71-1.14-1.26,1.41-3.32,2.75-1.4,5.15.43.54-.27,1.13-.45,1.7C630.23,648.83,631.56,651,634.82,651ZM629,667.21c0,2.56,0,2.59,3.09,2.77.88,0,1.09,1.26,2.08,1,.47-.11,1.15.1,1.41-.16.86-.83-.34-1-.65-1.35-1-1-1.06-1.54-.26-2.87.67-1.12,2.11-2.15,2.07-3-.06-1.27-2.43.1-3.08-1.41a2.36,2.36,0,0,0-.7-.71c-1-.8-.9.11-1,.66-.1,1-.78.9-1.43.86-.9,0-1.65,0-1.59,1.22C629,665.21,629,666.21,629,667.21Z"/><path class="f" d="M385,426.42c0,1.16,0,2.33,0,3.49,0,.89-1.73,1.76,0,2.69.13.07.1.68,0,.94-2.34,4.41-6.17,7.17-10.44,9.46-2-1.43-4.55-.75-6.8-1.62-1.66-.64-3.39-1.75-5.41-1.4-.66.11-1.24,0-1.32-1-.1-1.27-1.34-1.78-2.09-2.61-1.83-2-2.12-2.73-2.63-5.58-.13-.75,1.21-1.23,0-2.23-.6-.51-.25-2.16-.28-3.3a11.49,11.49,0,0,1,.71-2.66c.67-3.79,3.33-5.75,6.18-7.61,1.15-.76,2.42-1.36,3.64-2,2.22-1.18,4.58-1.69,6.6.05,1.66,1.44,3.05-.88,4.63.15,1.23.8.75,3.51,3.23,2.82a1,1,0,0,1,.83.34c.57.9-.64,2.7,1.71,2.85.55,0,1.18,2.06,1.4,3.23A21.12,21.12,0,0,1,385,426.42ZM372,418c-2.13.07-3.57-.21-4.82,1-.45.43-1.67-.34-2.12.6-.17.37,1.92,1.21,0,1.36s-2.94.95-3.27,2.78c-2.83.44-1.46,1.75-.9,3.26a3,3,0,0,1-.86,3.6.91.91,0,0,0,.72,1.42,2.92,2.92,0,0,1,3.41,2.6A2.27,2.27,0,0,0,367,436a.75.75,0,0,1,1,.77c.1,1.16.24,1.35,1.33.54a3,3,0,0,1,2.76-.24c2.05,1.71,2.9-.06,4.4-.87a10.72,10.72,0,0,0,3.65-3.43c1.15-1.53.17-3.39,1.2-4.5,2.27-2.44-1.63-2.7-1.37-4.4.06-.34-.58-.74-.71-1.17-.73-2.31-3.32-2.66-4.64-4.42C374.15,417.68,372.44,418,372,418Z"/><path d="M510.71,413.33c2,2,4.77.48,7.23,1.53,4.18,1.8,4.82,1.74,7,6.15.21.41.66.7.9,1.1C527.43,424.76,529,427,528,430c-.47.46-.4,1.29-1,2a3.54,3.54,0,0,1-2,0c-2-1,0-5-1.74-5.69-2.54-1-.26-1.31-2-3.69a23.78,23.78,0,0,0-3.3-3c-1.58-1.42-3.5-2-6.21-1.65-.27,0-.62.45-.68.06-.21-1.4-1.85-2.29-1.38-3.92A.88.88,0,0,1,510.71,413.33Z"/><path d="M563,427.77c0,.76-.17,1.27-1.07,1.24s-2,.05-3,0a20.81,20.81,0,0,0-8.88,1.38c-3,1.11-3.46.9-4,2.37a6.1,6.1,0,0,1-1.67,2.29,22.8,22.8,0,0,1-2.09,1.81,6.07,6.07,0,0,0-2.1-3.11c-.25-.21.2-.53.17-.69-.27-1.42,3.71,0,1.66-2.47a11.88,11.88,0,0,0,3.34-2.43,7.42,7.42,0,0,1,3.1-2c1.4-.26,2.39-1.62,4.07-1.17,1.08.3,2.52-1.46,3.44.56.26.58.82.46.94-.08s0-1.51.89-1.37c1.21.19,2.14,1.14,3.58,1.1A2.12,2.12,0,0,1,563,427.77Z"/><path d="M594.94,415.45c.19,4.72-.58,8.69,2,12.09.25.32.09,1.42.36,1.26,2.82-1.66,2.95,2.92,5.33,2.21s4.24,1.45,6.58,1c1.29-.24.49,2.4,1.4,1.64,1.71-1.44,2.26-.13,3.22.67,1.21,1,2,2.63,3.81,2.88a1.49,1.49,0,0,1,1,1c0,2.2,1.91,3.17,2.84,4.75a9.15,9.15,0,0,1,1.46,5.89c-.09.82.91,1.1.92,1.6a3.06,3.06,0,0,0,1.05,2.06c-1.23.51-.9,1.94-1.71,2.82-1.51,1.65-3.28,3-4.48,5.08-.95,1.66-3.95,1.74-5.39,3.56-1-.78-1.56,1.91-2.8.2-.56-.78-1.46.09-2,.72-.68.81-1.61,1.61-2.52,1-1.62-1.06-2.54-.72-3.06,1a3,3,0,0,1-2.3,2.14c-1.58.53-2.92,1.6-4.66,2.05s-3.08,1.58-4.66,0c-.24.24-.44.63-.71.68-1.68.31-3.35,1.21-5.09.22-4.38,1.19-5.9-2.08-7.58-5s-2.23-6.58-4.64-9-4.22-5.6-6.38-8.36c-.71-.91-.71-2.15-1.69-2.83s-1.36-1.44-.47-2.47c-.93-.45-2.29-.5-1.85-2.16.28-1.06-.78-1.69-1.14-2.51a7.77,7.77,0,0,1-.9-3.15c0-.36-.58-.71-.9-1.07,1.6-1.25-.56-2.38-.12-3.71.35-1.05-.35-2.56.16-3.43,1-1.73-.42-3.16-.09-4.72-1.66-.68.55-2.51-1-3.27-1.06-.52,2.74-2.09-.52-2.5-.64-.08-.76-2.47-2.62-1.82-.77-1.63-2.27-2.14-3.85-2.57,0,0,1.46-.56.53-1.31-.53-.43-1.26-.1-1.67.51-.28.43-.7.45-.68,0,.15-2.33-3.15-1.41-3.24-3.6-.07-1.6-1.1-1.32-2-.54-.49.46-1,.34-1-.14,0-1.06-.38-1.5-1.45-1.4-.86.09-1.65.07-1.62-1.18,0-.53-.43-.66-.94-.86-1.2-.45-2.42,1.37-2.8.58-.51-1.07-1-2.31-2-2.44-1.67-.21-1.18-1.24-1.25-2.12s-.43-.51-1.08-.52c-1.06,0-3,.36-2.89-1.74s-.47-1.39-1.72-.77a48.62,48.62,0,0,0-9.22,6.63c-1.6,1.34-3.74,2.25-4.64,4.43-.31.74-1.58.72-2,1.09-1.07,1-1.71-2.42-2.48-.1-.69,2.07-4,3.13-2.45,6,.58,1.1-.1.93-.68,1-1,.11-3-.52-1,1.58a1.51,1.51,0,0,1-1.21,2.48c-1.15.06-.62,1.29-.7,2-.21,2,.82,4.5-2.47,4.94a.9.9,0,0,0-.51.72c.65,3.64-3,5.86-3,9.26,0,.29-.17.78-.35.82-3.17.73-3.76,3.12-3.82,5.86-1.59.95-1.73,3.34-3.81,3.89-.24.06-1.44.53-.55,1.33.45.41.74,1.66,1.79.43.59-.69,1.62-.66,1.72.53.16,1.83,2.12.9,2.71,2,.61-.64,1.09-1.3,1.36.29.33,1.95,3.05-.15,3.47,1.88.17-.43.51-.88.47-1.29-.39-4.83,2.49-8.62,4-12.85.47-1.3,1.92-.8,2.62-1.8.46-.65,1.64.24,1.38,1.23-.43,1.64-.73,3.47-1.69,4.77-.85,1.14-1.55,2.1-1.26,3.5a5.76,5.76,0,0,1-1.22,4.95c-1.38,1.51-.16,2.19.16,3.32.57,2,1.36,1.34,2.33.39.21-.22.7-.09.66.27-.16,1.51.73,1.48,1.82,1.55.79,0,3.19-.9,1.42,1.63a1.28,1.28,0,0,0,1.61,0c1.2-1.43,1.93-.38,2.8.4.64.58.25,1.53,1,2.13.42.35,1.69.57,1,1.71s-2.33,1.64-3,1c-1.27-1.3-3-1.22-4.35-1.68-1.73-.61-3.25-3.81-5.71-1.31-1.38-2-3.79-2.1-5.77-2.79-1.08-.37-1.32-3.36-3.24-1.2a7.79,7.79,0,0,0-3.86-2.58c-1.52-.47-2.32-1.64-3.52-2.38-4.17-2.57-4.49-5-1.21-8.44,1.46-1.5,3.22-2.93,3-5.24-.21-1.86,2.07-.77,2.05-2.09a3.62,3.62,0,0,1,.89-2.66c4.12-4.82,5.79-10.88,8.12-16.61-1.15-1.93,2.12-2.08,1.54-4-.46-1.49,1.44-2.61,1.37-3.95-.09-1.73,1.77-2.82,1.15-4.57,2.52-.8,2.5-3.09,3.24-5.07a1.52,1.52,0,0,0-.19-1.86c-.32-.45-.35-1.7-.07-1.87,2.42-1.47,2.36-4.56,4.19-6.28s2-5.08,5.49-4.58c.51-2.28,2.37-3.13,4.08-4.33.59-.42,1-2.37,1.94-2.35,2.68.07,4.36-2.74,7.18-2.15,1.21.25,2.68.47,3.58-.95,1.06,1.65,2,.84,3.2.05,1-.68,1.91,2.11,3.35.43.9-1.05,2.19-.37,3.29-.46,1.33-.1,2.67.07,4,0s3,.66,4.11-.93c1,.65,2.35,2.06,3.1,1.81,2.51-.85,4.81.68,7.22.19,1-.21,2.49-.5,2.31,1.49,0,.13.63.51.75.43,1.09-.69,2-.35,3.22-.13a27.1,27.1,0,0,1,3,1.2c3.46,1,7,1.88,9.44,5a2.33,2.33,0,0,0,2.09,1c1.73,0,2.28,1.65,3.38,2.55-.8,2.32,1.41,2.78,2.52,3.28,1.9.85.13,2.6,1.16,3.24,1.26.79,1.3,2.19,2,3.23a7.1,7.1,0,0,1,1.23,3.93C593.84,407.67,596.1,411.88,594.94,415.45Zm-18,25.75c.21-.83-.31-1.73.46-2,.37-.12,1,.6,1.51.78,2,.69,2.92,2.59,4.41,3.84,2.66,2.24,5.27,4.37,8.82,5.27a22.69,22.69,0,0,1,6.62,3.26c1.91,1.26,2.73,3.73,4.91,4.86.68.35.48,1.39,1,2.08.8,1.09.88,1.63,1.35,1.72s1.28-.27,1.88.31c.29.28,3.94-.47,4.06-.8.8-2.09,2.79-2.57,4.46-3.56,1.84-1.09,2.47-3.26,3.52-5,.84-1.38-.79-2.28-1.66-3.22a.8.8,0,0,1-.16-.34c1.83-1.57-.33-2.89-.8-3.35-1.09-1.09-1.49-2.5-2.23-3.68-.87-1.37-3.4-.79-3.23-3.05-2.57-.1-4.8-2.14-7-2.1-2.56,0-3.79-1.48-5.48-2.47-2.29-1.33-4-3.48-6.51-4.58-.21-.1-4.11-1.32-.16-2.46.71-.21-.24-.51-.52-.74-1.77-1.48-3.33-6-2.53-8.05.63-1.62-.17-3.4.47-4.79.85-1.87,1.06-3.18-.82-4.44-.59-.39-.38-1.16.19-1.67a1.23,1.23,0,0,0,0-2.06c-.71-.66-.75-1.66-1.35-2.46-1.23-1.64-3.31-3.26-1.41-5.79.46-.62-.25-.75-.67-.72-1.29.1-2.33,0-2.08-1.75a3.27,3.27,0,0,0-.18-1.9c-.59-1-.83,1.19-1.77.24-1.45-1.47-3.16-2.73-4.72-4.06-2.78-2.36-6.88-1.59-9.19-4.53a.49.49,0,0,0-.47,0c-1.1,1.47-1.84.48-2.52-.4s-1,.14-1.42.11c-2.48-.19-4.94-.59-7.41-.94-.12,0-.29-.24-.29-.36,0-1.94-.6-1.3-1.51-.49-.34.31-.49,1.48-1.38.68-1.88-1.69-4.51.46-6.5-1.3-.36-.33-2.13,1.35-2.83.61-1.33-1.39-2.55-.2-3.18.19a5.6,5.6,0,0,1-6.29,0c-.56-.33-1.45-1.17-1.92-.88-.95.59-.3,1.33.28,2s-.19.73-.56.75c-1.6.12-3.28.39-3.63-2-.06-.37-.71-1-1-.93-.51.07-.49.74-.48,1.24,0,1,.31,2.13-.06,3-.8,1.76-1.71,0-2.59-.12-.2,0-.43.49-.71.66a13.48,13.48,0,0,0-5.36,5.7c-1,2.08-1.35.61-2.08.46-.49-.1-1.19.43-1.09.5,1.72,1.27-.1,2.38-.42,3.12-.93,2.14-1.43,3.78,1.26,4.82.1,2.7,1.35,1.05,1.69.3.49-1,1.66-1.47,2-2.1.91-1.69,1.94,1.45,2.7-.36.4-1,1.59-1.6,2.52-2.24.19-.14.79.44,1.23.5,1.14.17,2.93-1,2.92-1.82,0-4.27,0-4.27,1.72-6a1.31,1.31,0,0,1,2.11.57,2.8,2.8,0,0,1,.15,1.42c-.64,2.26.87,3.72,2.07,5.13,1.05,1.23,2.65,2,3.83,3.12,1.86,1.8,4.73,1.76,6.47,3.78.72.84,1.36,1.95,2.57,2.17s1.74,1.44,3.08,1.06c1.63-.46.36,2.35,2.08,2s2.88,1.08,3.49,2.22a4,4,0,0,0,2.53,2.33,7.05,7.05,0,0,1,3.78,2.88c2.69,3.7,7.58,3.6,10.75,6.43,1.6-.81,2.77.91,3.82.89,2.19,0,2.38,1.67,3.39,2.63a1.74,1.74,0,0,0,1.75.59c1.64-.55,2.7.78,4,1.21s1.18,2.77,3.12,3.16c.71.15.25,2.13-.66,2.65-2.7,1.55-2.61,1.38-5.16-1.3-.79-.83-2.16-2.55-2.53-2.37-2.45,1.18-3.79-.26-5.25-1.69-.82-.8-1.54-2.23-2.9-.64-1.63-1.27-4.65-.27-5.25-3.23-.05-.27-.33-.5-.5-.75-.52,1.22-2,.85-2.82,1.71a2.33,2.33,0,0,0-.58,2.7c1.56,2.24.78,5.35,2.89,7.33.38.36-.07,2.68-.58,3.3-.28.35-.47.55-.1.72,2.75,1.25,2.53,4.27,3.87,6.27s1.71,5,4.47,6.12c1.75.72,1.25,3.43,3.78,4,1.66.39,1.14,3.17,1.48,4.83.65,3.13,3.56,4.79,4.38,7.71,0,.16.78.32.83.25,1.28-1.94,3.32.32,4.85-.9.46-.37,1.57-1.75,2.65-.11.73,1.1,1.57-2,2.75-.2.36.56,1.59.29,1.57-.28,0-1.56.9-1.26,1.86-1.55,2.54-.76,2.9-2.1,1.39-4.27a13.42,13.42,0,0,0-5.88-4.91c-1.42-.59-3.7-1.15-3.94-2.14-.69-2.76-3-.8-3.82-1.72-2.23-2.59-6.1-3.48-7.43-6.79C578.5,443.64,576.22,443.06,576.93,441.2Z"/><path d="M580,416.53c.32,1-.48,1.47-1.05,2-.86.84-1-.3-1.39-.59-.64-.51-1.12-1.17-2.11-1-.45.08-1.38,0-1.27-.36.87-3-4.2-4-2.3-7.26-1.89-1.63-1.18-4.62-3.19-6.18-.59-.45-.59-1.05-.71-1.71-.25-1.28-.41-3.09-2.47-1.48-1.37-1.87-4-2.24-5.21-4.25-.32-.53-1.75-.65-.77-1.76.56-.63,1.29-1.42,2.07-.93,1.92,1.2,4.2.95,6.26,1.8,1.87.77,2.72,2.63,4.6,3.19a1,1,0,0,1,.36,1.6c-1.18,1.08-.84,1.78.09,2.84a7.33,7.33,0,0,1,2,3.61,13.43,13.43,0,0,0,4.4,8.7A1.69,1.69,0,0,1,580,416.53Z"/><path d="M666,564.45c.24,1.49-1.35,2.38-1.14,4.06.12,1.08-1.2-1.21-2,.06-.47.74-1.86.43-2.35,1.43-1-1.57-2.71-.65-4-1.08a5.31,5.31,0,0,1-3.41-3.42c-.43-1.3.42-2.89-1-4.08-.44-.35.23-1.1.62-1.66.68-1,2.75-.44,2.47-2.37,0-.09.71-.42.76-.37,1.79,2.12,4.68.05,6.71,1.9C664.09,560.27,666.14,562.74,666,564.45Z"/><path d="M626,523.12c0,1.34,0,2,0,2.67a2.26,2.26,0,0,1-2.14,2.21c-2,.29-4.12,0-5.4-1.24a12.46,12.46,0,0,1-3.49-5.47c-.72-2.66,1.73-4,2.39-6,.18-.56,1.51-.75,2.31-1.11.66,1.54,2.82.1,3.28,1.45C623.89,518.37,627.28,520.23,626,523.12Z"/><path d="M559.7,521c-1.07-2-4.11.15-5.21-2.07-.59-1.2-1.78-2.23-1.51-3.84.41-2.45,4.18-6.31,6-6,3.9.56,7.49,4.15,7,7C565.59,518.47,562.22,521.26,559.7,521Z"/><path d="M633.8,514c3.48,0,6,1.23,7.42,4.67,1.14,2.82,0,5.77-3,6.3a8.39,8.39,0,0,1-4.4-.08c-1.18-.5-1.72-2.25-3.53-2.1-.51,0-.31-.83-.32-1.29,0-1.15,0-2.31,0-3.47C630,514.38,630.37,514,633.8,514Z"/><path d="M615.05,538c.67.11,1.32-.17,1.88.43,1.25,1.33,2.61,2.56,3.85,3.9.67.73-.11,1.83.67,2.72,1,1.17-.71,1.36-1.09,2.06s-1.31,1-1.29,1.43c.09,2.09-1.7,1.79-2.33,1.4-2.91-1.81-6.54-3.11-6.74-7.41-1.32-.78-.68-1.39.09-2.13A7,7,0,0,1,615.05,538Z"/><path d="M577,506.11c-.53-2.07,1.17-1.6,2.4-2.27,2.15-1.17,4-1.4,5.8,0a7.36,7.36,0,0,1,2.87,6.26c0,2.49-2.26,3.06-3.27,4.65-.23.37-.47.34-.7-.1-.86-1.69-2.83-1.23-4.1-2.11A8.25,8.25,0,0,1,577,506.11Z"/><path d="M645,547.45c-.44-1.73.49-2.57,2-3s2.72-2,4.77-1.21a9.39,9.39,0,0,1,5.09,5.31c.72,1.69-.64,3.32-1.69,4.68s-2.09.68-3.41.2a46.78,46.78,0,0,1-4.53-2.29C645.46,550.26,644.84,549.29,645,547.45Z"/><path d="M638,548.19a8.23,8.23,0,0,1-1.9,4.17c-.61.71-1.3,1-2,.22-.49-.54-1.25-.92-1.66-.44-1.68,1.93-2.67.35-3.44-.73-.91-1.26-2.73-2.44-1.46-4.38.4-.62.27-1.24.49-1.8,1.22-3.11,3.65-4.49,6.67-2.07C636.37,544.5,638.28,545.59,638,548.19Z"/><path d="M640.38,560.16c1.28,1.11,4,1.17,5.29,3.21.52.84,2,1.83,1.15,3.31s-1.72,3.58-3.59,4.23c-1.09.38-2.45-.66-3.43-1.1-1.83-.81-3.27-2.65-4.66-4.25-.79-.92,0-3.91,1.16-4.25S638.31,559.65,640.38,560.16Z"/><path d="M615,490.49a9.25,9.25,0,0,1,0,1.49c-.63,3.67-2.92,4.57-6.5,3.16a7.69,7.69,0,0,1-3-2.24c-.92-1-2.64-1.58-2.45-3.42,2.37-.13,2.05-3.46,4.91-3.65C611.48,485.59,615,487.32,615,490.49Z"/><path d="M567,534c.46,1.62-1.76,2.71-1,4.46a13.21,13.21,0,0,1-3.32,1.44c-1,.14-2.85.91-2.72-1.46-3.87-.79-2.14-4.69-3.73-6.77-.36-.48.33-.87.63-1,1.26-.52,2.19-1.7,3.74-1.72,1.95,0,3.57,1,5.32,1.53S566.91,532.7,567,534Z"/><path d="M614.94,571c-3.7.53-4.8-2.83-6.92-4.67-.16-.14-.07-.65,0-1,.42-2.11,2.14-3.34,3.71-4.25a3.07,3.07,0,0,1,3.94,1c.81,1.16,1.94,1.94,2.54,3.43C619.8,569.51,619.06,571,614.94,571Z"/><path d="M624.3,584c-3.38,0-5.54-2-5.3-4.75.17-1.87,3.49-4.31,5.79-4.25,1.65,0,5.46,3,4.87,3.63-1.38,1.4.09,3.23-1.26,4.56S625.59,583.72,624.3,584Z"/><path d="M565.82,559c-2.1.11-3.87.22-5.08-1.67a4,4,0,0,1-.09-4.43c.42-.51,1.07-.87,1.38-1.43.77-1.43,2.57-1.26,3.5-2.4.92,1.15,2.57,1.16,3.52,2.43,1.21,1.65,1.33,5.79-.18,7.14C567.9,559.48,566.65,558.83,565.82,559Z"/><path d="M547.63,522c-2.49.24-4.22-1.11-5.88-2.71a3.1,3.1,0,0,1-.37-4c.92-1.48,2.27-2.73,4.51-2.32,1.71.32,3.74-.31,4.13,2.31a1.12,1.12,0,0,0,.52.76c2.51,1.27.18,3,.28,4.5C550.89,521.5,549.17,522.44,547.63,522Z"/><path d="M591,498.65c0-3.16,1.85-5.49,4.35-5.66a4.61,4.61,0,0,1,3.35,1.4c1.32,1.24,1.11,3.42,2.1,5.06.41.67-3.52,3.47-4.66,3.58-.89.08-1.76-1.87-2.65,0-.7-.7-1.38-1.42-2.11-2.1S591.19,499.32,591,498.65Z"/><path d="M542,492.71a4.19,4.19,0,0,1,4.06-3.7c2.4.11,4.11,1.51,5.64,3.19a1,1,0,0,1-.1,1.69,2.07,2.07,0,0,0-.56,2.25,2.37,2.37,0,0,1-1.56,2.75c-1.3.3-2.79.49-4.09-.89s-1.53-3.21-3.08-4.26C542,493.54,542,492.87,542,492.71Z"/><path d="M573,569.5c0,2.65-1.61,4.48-4,4.5s-3.85-1.67-4-4.42c0-.66.07-1.34,0-2s-1.63-.92-.28-1.81c.92-.6,1.33-1.84,2.76-1.81C570.18,564,573,566.78,573,569.5Z"/><path d="M572,475c0-2.61,2.77-4.13,5.21-3.44,1.7.47,2.3,2.15,4,2.5s-.2,3,1.74,3.5c-.57.24-1.32.32-1.68.73-1.59,1.84-4.13-.3-5.91,1.56C574.75,480.48,572,476.9,572,475Z"/><path d="M592,485.48a10,10,0,0,1,0,2c-.39,1.78-2.6,3.22-4.21,2.49a33.38,33.38,0,0,0-4.14-2c-.5-.14-.59-.6-.65-1.13-.21-1.73,1.84-5.12,3.63-5.85,1.3-.53,3.39.4,4.73,1.77C592.18,483.63,591.92,484.55,592,485.48Z"/><path d="M568.85,490c1.38.09,2.88-.47,3.63,1.82.62,1.9,1,3.31-.57,4.79-1.13,1.09-4.06,1.9-5.4,1.39-1.66-.64-3.22-5.22-2.19-6.76a2.11,2.11,0,0,1,1.95-1.26C567.09,490.06,567.92,490,568.85,490Z"/><path d="M598,519.42c0,1.55-1.85,4.06-3.41,4.48-.31.09-.78.22-.94.08-1.46-1.35-2.87-2.75-4.3-4.13-.73-.7-.28-1.57-.33-2.35-.09-1.6.94-2.3,2.36-2.49a7.1,7.1,0,0,1,6.55,3.44A2.78,2.78,0,0,1,598,519.42Z"/><path d="M621,500.86c.53,1.7-.86,2.59-1.93,3.52s-2.09.4-3.41,0c-3.23-1.09-2.37-1.09-3.07-3.61-.87-3.1,2.67-1.42,2.48-3.22,0-.28,1.16-1.74,1.56-1.2,1,1.32,2.51.16,3.54,1.26S620.94,499.63,621,500.86Z"/><path d="M599,478.36c0,3.23-1.34,4.28-3.77,3.3-1.59-.63-3.46-.87-4.2-3.05s-1-2.18.73-3.83c.69-.64,1.19-2,2.23-1.7,1.29.39,2.81.83,3.6,2.06A18.92,18.92,0,0,1,599,478.36Z"/><path class="c" d="M364,337.44c0,1.33-.08,2.66,0,4a2.42,2.42,0,0,1-1,2.08c-.92.87-1.65.69-2-.57-.85-3.06-1.91-6.08-2-9.29a2.46,2.46,0,0,0-1-2.09c.55-.59,1.15-1.14,1.65-1.77s-.89-.94-.54-1.36c.49-.58.87-1.43,1.88-1.43a1.63,1.63,0,0,1,1.49,1.11A23.82,23.82,0,0,1,364,333,29,29,0,0,1,364,337.44Z"/></svg>