<svg xmlns="http://www.w3.org/2000/svg" xmlns:xlink="http://www.w3.org/1999/xlink" width="1080" height="1080" viewBox="0 0 1080 1080"><defs><style>.a{fill:none;}.b{fill:#f15a29;}.c{fill:#f0dfd2;}.d{fill:#33ae90;}.e{clip-path:url(#a);}.f{fill:#1c6655;}.g{clip-path:url(#b);}</style><clipPath id="a"><ellipse class="a" cx="541.43" cy="429.9" rx="13.75" ry="10" transform="translate(-10.23 846.6) rotate(-75.52)"/></clipPath><clipPath id="b"><path class="a" d="M525.48,432c-10.17-2.38-13.59-9.18-13-16.23C520.5,416.32,524.86,422.06,525.48,432Z"/></clipPath></defs><title>Croissant 1B</title><path class="b" d="M523.5,388.5c-9.87.79-19,24-23,36s-14,26-14,26,27,19,53,14c19.66-3.78,35,12,35,12l15-16S573.5,384.5,523.5,388.5Z"/><path class="c" d="M546,519s3,34,1.5,65.5c-.77,16.11-2,34-2,34-6,7-13,25-7,27s30-18,28-23,1-35,3-55S546,519,546,519Z"/><path class="c" d="M361.5,673.5c19.89-8.62,56.12.35,80.89,7.37,13.61-20.87,47.52-24,67-32.32C527,641,547.1,635,557.26,635c2-8.15,8.5-15.31,17.24-20.47,53.09-31.37,64.5-67.5,86.39-69.78,10.65-16.92,20.43-32.78,32.61-47.22,18.47-21.89,32.7-47.71,51.11-55.44,3-13.37,2.84-26.58,3.89-40.56,3-40,25.38-90.74,61-82,26.5,6.5,46,45,60,90,4.61,14.83,5.87,31.92,6.89,47.37,15,3.15,24.11,9.11,28.11,24.63,8,31,17.5,73.5,6,131C903.07,649.65,893,668,878.84,685.2c10.36,15.56,10.19,36.91,1.66,57.3-18,43-54.5,84.5-132,112-40,14.19-85.5,26.5-107.71,7.48-15.83,5.57-38,10.85-69.14,11.5-51,1.06-89.63-19.31-115-36.86-9.11-6.3-18.83-16.41-23.63-24.34-12.48-6.71-22.4-8.6-30.47-12.78-29-15-63.09-50.27-68-65C327.5,713.5,331.5,686.5,361.5,673.5Z"/><path class="d" d="M551.5,479.5c10.88-5.54,22.36-16.82,42-7,24,12,46,43,55,57s23,50,23,50l-77.55,27L582,618l-2.5-5.5s-18.5-44.5-24-60C548.3,532.2,525,493,551.5,479.5Z"/><path class="c" d="M511.5,401.5a136.51,136.51,0,0,0-1,23c.8,21.54.5,31.5,7,39,7.54,8.7,22,7,22,7a48.88,48.88,0,0,0,5,7,68.21,68.21,0,0,1,6,9s5,1,9-1a8.74,8.74,0,0,0,5-6s-3-11-2-20c.78-7,17.49-11.47,17.5-27.5s-15.27-41.18-35.81-45.7C522.86,381.61,512,393.45,511.5,401.5Z"/><path class="c" d="M602.5,529.5s2.08,20-1,57c-1,12-5,18-4,30s-7,14-8,19c-1,5.22-1.53,9.26-3,10-2,1-3-5-3-5s-1,4-3,4-3-5-3-5-1,5-3,4-2-3-2-8c0-10,12-11,11-27-2-31.94-7-77-7-77Z"/><polygon points="629 594.5 660 583.5 661 589 643 691 644 696 633 724 603 714 618 708 620.25 683.25 623 678 629 594.5"/><circle class="d" cx="371" cy="429" r="11"/><g class="e"><path class="f" d="M562.29,427.76c-4.56,7.3-12.42,9.79-21.59,7.35C542.14,426,554.93,422.2,562.29,427.76Z"/></g><g class="g"><ellipse class="f" cx="510.05" cy="424.83" rx="13.75" ry="10" transform="translate(0.07 849.74) rotate(-79.59)"/><path class="f" d="M508.92,439a7.79,7.79,0,0,1-1.44-.13c-5.7-1-9.17-8.18-7.75-15.92h0a17.08,17.08,0,0,1,4.78-9.3,8.71,8.71,0,0,1,14.71,2.7A18.13,18.13,0,0,1,515.6,436,9.76,9.76,0,0,1,508.92,439Zm-8.21-15.87c-1.32,7.19,1.8,13.81,7,14.76a8.36,8.36,0,0,0,7.25-2.56,17.09,17.09,0,0,0,3.4-18.55,7.72,7.72,0,0,0-13.11-2.41,16.06,16.06,0,0,0-4.49,8.76Z"/></g><path class="b" d="M533,398a44,44,0,0,1,11.5,5.5c6,4,16.5,11.5,16.5,11.5s1.5,19.5,4.5,25.5,7,10,11,17c3.14,5.49,4,13,4,13s7,0,12-2a52.65,52.65,0,0,0,10-6c15.5,3.5,18-10,18-10s-1.15-10.77-9-16c-6-4-14.51-3.61-18-10-6-11,3.36-38.48-35-47a60.71,60.71,0,0,0-24,0c-16,3-24.25,16.75-24.5,25.5S519,396,533,398Z"/><path d="M512,416.13c.76,1.6-1.34,2.9-.69,4.52s-1,3.09.39,4.87c.82,1.07.3,3.19.33,4.83,0,1.84-.44,3.82.1,5.47,1.56,4.72.49,9.68,1.81,14.43,1.12,4,2.94,7.77,4.05,11.76.53,1.87,2.27-1.11,2.51.84,1-1,1.95-.52,2.18.45.41,1.69.91,2.95,2.92,3,.16,0,.38.83.43,1.28.11.95.23,1.79,1.28.63a2.83,2.83,0,0,1,3.91-.68c2.27,1.13,4.86.49,7.3.3,2.25-.17,3.21.33,4.9,1.92a14.73,14.73,0,0,1,4.77,9.27,7.2,7.2,0,0,0,5.19,5.51,6.11,6.11,0,0,0,5.35-.74c1-.81,1.76-1.76,3.31-1.91,1.21-.12,1.64-2,1.19-3.3a30.16,30.16,0,0,0-1.46-4c-3.72-7.06-.8-13.57,1.54-20,.94-2.55,3.88-3.9,6.55-5,.8-.33,1.54-.94,2,0a1.78,1.78,0,0,1-.35,2.29c-1.53,1-2.78,2-2.92,4-2.05.21.08,3.08-2.06,3.24.6,2.79-1.26,5.45-.47,8.24a.94.94,0,0,0,1.22.57c3.75-1.59,7.85-1.53,11.76-2.27,2.19-.41,5.12-.79,7,1.82,1,1.45,2.23,1.86,4.25,1,2.21-.94,4.33.79,5.61,2.46a8.78,8.78,0,0,0,4.48,3.31,19.92,19.92,0,0,1,6.82,4.55c5,4.84,10.62,8.85,16.13,13a4,4,0,0,1,.36.35c2.23,2.17,3.4,5.34,5.66,7.24s4.56,4.26,6.89,6.32a2.56,2.56,0,0,1,.82,1.72c.3,2.21,1.68,3.79,3.19,5.34.64.65,2.11,1,1.16,2.69-.23.42,2,.73,2.37,1.87s1.45,2.06.53,3.35c1.76.23,1.76,2.13,2.88,3s2,1.66,1.9,3.28c-.07,1.39,1.87,1.77,2,3.26.09.86,1.5,1.46.56,2.59-.56.68-.49,1,.48,1.22a3.84,3.84,0,0,1,2.69,3.72c-.22,2.74,2,4.06,2.69,6.14a1.54,1.54,0,0,0,1.57,1,1,1,0,0,0,.89-1.41c-.88-1.68,2.94-1,1.35-2.69-1.78-1.87,2.21-1.33,1.12-3.2-.55-.94,2.36-2,2.1-2.81-.9-2.74,2.45-3,2.49-5.11s2-3.37,2.63-5.08c2.28-5.83,7.85-9.25,10.4-14.81,3.27-2.24,5.29-5.61,7.28-8.81,2.47-4,6-6.77,9.16-10a54.91,54.91,0,0,0,7.06-8.73c3.2-5,6.37-10.07,10.62-14.29.34-.34.9-.49.8-1.07-.38-2.16,2.12-2.78,2.42-4.68s3.48-1.54,3.72-4.1c.17-1.9,2-2.84,3.72-3.53a1.51,1.51,0,0,0,.71-.68c2.76-5.45,8.23-7.7,13-10.7s5.95-5.25,4.71-10.72a9.66,9.66,0,0,1,.16-5.35c.63-1.84,1.69-3.63.74-5.75-.4-.89.47-1.5,1.06-2.05.9-.85.75-1.27-.48-1.41-.43-.05-.55-.37-.35-.65,3-4.39.81-10,3.25-14.52.64-1.21-1.51-.47-1.34-1.23s.94-1.35.77-2.27c-.62-3.33,1-6.44,1-9.69,0-.94.65-1.48.95-2.21.6-1.49,1.4-2.93,1.1-4.68-.16-1-.39-2.24.06-2.95,1.59-2.46.81-5.41,1.93-7.92,1-2.19,1-4.62,1.83-6.92a59.06,59.06,0,0,1,3.22-7c1.36-2.73,1.53-6.16,4.42-8.06.11-3.21,2.9-5.34,3.44-8.3.29-1.64.73-1.39,1.69-.76.38-.72,1.25-1.67,1-2.1a1.81,1.81,0,0,1,.84-2.68c2.31-1.33,4-3.47,6.15-4.86A2.37,2.37,0,0,0,776,329c.1-1.33,1.55-.92,2.19-1.68,3.33-3.95,7.85-6,12.58-7.75a5.78,5.78,0,0,0,2.92-1.74,2.17,2.17,0,0,1,3.08-.46c.4.22.79.72,1.19.12,1.52-2.31,3.27-1.29,5.16-.56a2.85,2.85,0,0,0,2.84-.4,2.28,2.28,0,0,1,3.15.06c.24.19.67.43.86.34,5-2.53,7.72,1.95,11.07,3.85a49.17,49.17,0,0,1,9.82,7.41c2.29,2.22,5.36,4.15,6.19,7.81.5,2.14,3.51,3.07,3.28,5.77,1.75-1.15,1.62.11,1.69,1.27.08,1.32,1.56.9,2.2,1.66,1,1.2.17,1.13-.65,1.41s0,.72,0,1.1c.41,1.81,2.06,2.8,3.17,3.9a21.19,21.19,0,0,1,5.69,10c.54,2.09,2.22,3.27,3.07,5A98.63,98.63,0,0,1,860.87,378c.74,2.24,2.61,3.7,3.11,5.93s1.68,4.16,2.37,6.18c1.17,3.47,3.09,6.77,3.51,10.39.2,1.78,1.44,2.25,2,3.38s-.39,2.71.47,3.85c2.06,2.75,1.6,6.18,2.58,9.22.59,1.81,1.15,3.63,1.82,5.43.58,1.55,2.35,3.06.53,4.9a8.56,8.56,0,0,1,1.4,3.85A12.12,12.12,0,0,1,879,433c-.37,3.24-.31,3.5,1,6.59a3.74,3.74,0,0,1,.2,3.48c-.54,1.11-1.63,2.93.47,4.12.68.38.4,1.14,0,1.72-.2.25-.55.72-.49.8a6.23,6.23,0,0,1,1,6.52c-.1.3.49.68,1.08.75,1.61.17,3.22.13,4.86.38,3.45.52,5.69,2.84,8.36,4.54,2.83,1.8,2.69,1.92,3.69,3.47.75,1.14,1.19,2.41,2.74,3.2,1.27.64,3.8,1.72,2.27,4.37-.13.22.35.84.62,1.23a11.52,11.52,0,0,0,1,1.11c1.24,1.32-.78,2.49-.12,4s2.33,2.28,2.23,3.64-1,2.41,0,4c.53.82.58,2.09,1.46,3a3.41,3.41,0,0,1,.74,4.2c-.74,1.67,1,3,1,4.67s2,1.86,1.91,3.28c-.09,1.15-1.6,2.08-.13,3.49.93.89-.52,1.73-.85,2.57-1.14,2.93-1.25,3.86,1,5.86,1.29,1.14,1.54,1.55-.2,2.14a.9.9,0,0,0-.67,1.14c.42,1.19.9.12,1.35,0,.71-.25,1.4-.14,1.5.66a15.09,15.09,0,0,1,0,3.49c-.31,2.73-.35,5.74.32,7.28a9.64,9.64,0,0,1,.77,2.27c.35,2.21-1,4.42-.19,6.47a24.66,24.66,0,0,1,1.34,6.12c.25,1.7-.15,3.36.06,5a48.76,48.76,0,0,1,0,12.25c1.4,1-1,2.14.11,3.48.38.46.5,2.12.56,3.23s.53,2.73-.6,3.78.69,2-.05,3.47c-1.16,2.35.37,5.45-1,8.05,1.27,1.09-.3,2.34-.08,2.91.77,2.07-2.26,3.58-.57,5.56-.87,1.68-.82,3.63-1.27,5.41s-1.54,3.61-1.33,5.6c.13,1.32-1.29,2.46-.12,4,.53.71.3,2.39-.16,3.34-.63,1.29-1,2.22-.21,3.63s-1.58,1.66-1.61,3.17c0,1.73-1.3,3.31-1,5.16-2.07,1,.26,2.7-.62,4.29-.72,1.32-.85,3.34-1.54,5-.94,2.23-2,4.43-1.72,7,.24,2.19-1.51,3.73-2,5.75s-.71,4.2-2.55,5.62c-.83.64.32,1.15.12,2-.9,3.93-3.32,7.23-4.21,11.12-.4,1.74-.67,3.83-2,4.76-1.62,1.12-.38,3.85-2.8,4.15a35.57,35.57,0,0,1-2.36,4.65c-1.6,3.29-4.71,5.39-6.24,8.66-.07.14-.23.33-.36.33-3.2.05-2,1.91-1.06,3.11,3,4.07,4,9.06,6.25,13.49.21.41.42,1.16.22,1.38-2.11,2.36.31,5.23-.94,7.67-.79,1.55,1.46,2.73.74,4.11s-1.23,2.34-.16,3.59c.55.63-.12.89-.4,1.14-2.85,2.55-2.32,6.3-3,9.49a57.5,57.5,0,0,1-1.94,7.92c-.63,1.68-1.87,3.51-1.25,5.63a1.28,1.28,0,0,1-1.19,1.76c-.27,0-.73.45-.69.59.81,3.24-1.39,5.25-3.14,7.33-1,1.15.45,2.75-1.05,3.63s-.42,2.94-1.77,3.9c1.32,1.85-2.62,1.85-1.32,4.15.81,1.44-1.87,2.6-2.1,4.67a5.7,5.7,0,0,1-3.64,4.14,3.32,3.32,0,0,0-2.28,2.66,11.16,11.16,0,0,1-4,5.39c-3.8,2.82-6.1,6.76-8.77,10.44-.28.39-.48.84-.73,1.25-1.2,1.93-3.48,2.67-4.84,4.61-1.12,1.6-2.17,3.57-4.18,4.49-1.34.61-1.67,2.17-2.76,3.15a32.7,32.7,0,0,1-3.44,3.13c-1.37.94-2.88,1.79-3.8,3.5-1.12,2.08-3.78,2.46-5.63,3.83-2.6,1.93-5.35,3.7-7.76,5.84-1,.86-2,.28-2.65.78a5.85,5.85,0,0,0-1.22,2.58c-.41,1.17-1,0-1.34.16a11.19,11.19,0,0,0-2.91,1.51c-1.32,1-2.39,3.4-3.67,3-2-.63-1.73,3.21-3.67,1.4-1.32,1-2,3-3.15,3.57-1.36.67-3,1.08-4.36,1.91-1.2.74-1.86,2.54-3.77,1.74-.85,1.35-2.39,1.72-3.64,2.43-5,2.82-10.23,5.17-15.23,8-2.84,1.63-6.31,2.15-9.51,3.15-5.63,1.75-11,4.4-17,5-2.58,2.23-5.72,2.8-9,3-2.61,2.83-6.49,2.74-9.74,3.75a45.75,45.75,0,0,1-9.82,2.29c-1.72.13-3.06,2.05-5.07,1.3-5.12,2.36-10.81,2.89-16,4.81-3,1.11-6.15,0-8.91,1.53-1.28-1.11-2.41.31-3.48.52-1.29.25-2.09.85-3.51-.07-.89-.58-2.46-.31-3.71.59a3.73,3.73,0,0,1-3.88.38c-1.08-.44-2.36-1.07-4-.26-1.29.66-3.06-.23-4.66-.71-4-1.19-8-2-12-3.4a56,56,0,0,1-10.21-5.18,4.4,4.4,0,0,0-4,.2,22.59,22.59,0,0,1-9.19,4.06c-1.9.4-2.52,2.82-4.76,2.21-1.88-.51-3.39,1.23-5,1.35a8,8,0,0,0-4.52,1.31c-1.15.8-3.47-.2-4.77.51-1.8,1-3.52.62-5.28.79-.49,0-1.12-.18-1.48,0a6.68,6.68,0,0,1-5.66,1c-2-.47-4.12.39-6.1.37-2.55,0-5,1.43-7.49.49s-5.34,1.29-7.65-.9c-2.3,2.12-5.26-1.21-7.56.9-3.55-2.2-7.5.81-11.12-.88a2.25,2.25,0,0,0-2.33.43,2.22,2.22,0,0,1-3.14-.13c-1.33-1.18-3.06-.61-4.57-1-.35-.09-1,.06-1.58,0-2.41-.35-4.41-2-7.1-1.66-2.24.32-4.47-1.66-7-.07-.84.53-1.44-1.54-2.7-1.64-1.44-.11-2.91.35-4.31-.69s-3.46.54-4.65-.93-3.11-.55-4.52-1.35-2.89-1.83-4.38-1.9c-2.38-.11-3.58-3-6.29-2.17-2.27.69-3.94-1.21-5.85-2-2.95-1.19-5.69-3-8.71-3.86-4.44-1.26-7.7-4.55-11.84-6.17-5.6-2.2-9.68-6.79-15.09-9.23-3.81-4.63-10.35-5.72-13.91-10.75-1.22-1.74-3.66-1.9-5.33-3.3a74.5,74.5,0,0,1-9-9.74c-1.94-2.33-3.79-4.46-6.94-4.92-1.56-.23-2.08-2-3.71-2.27-1.29-.23-1.68-2.64-3.32-2.22-1.92.49-2.19-2.12-4.21-1.69-1.1.24-2.51-1.27-3.86-1.79-4.64-1.77-9.24-3.55-13-7a9.86,9.86,0,0,0-4.63-2.45,8.89,8.89,0,0,1-4.59-2.55c-1.21-1.34-3.83-.35-4.13-2.79-2,.06-3.23-1.37-4.65-2.33-1.79-1.21-4-1.42-5.51-3.58-1.11-1.61-4.24-1.52-5-4.17-.08-.28-.84-.41-1.3-.54-1.9-.49-3-1.93-4.45-3.12s-3.06-2.41-4.48-3.76c-.36-.35-.9-.69-1-1.1-.7-3.4-4.1-4.41-5.91-6.8-5-1.18-6.8-5.94-10.09-9-1.5-1.4-2.06-3.2-3-4.88-.84-1.51-2.41-2.51-2.6-4.54-.1-1-1.13-1.93-1.69-2.91-1.4-2.44-3-4.64-4-7.44-.89-2.54-2.25-5-3.26-7.62-.51-1.3-1.24-2.34-.14-3.58.3-.34.39-.59-.05-.79-2-.89-.21-2.63-.78-3.58-.91-1.52-1.1-2.66.07-4,.28-.33-.1-.89-.17-1.34-.72-4.66.35-9.28.8-13.88.23-2.4,2.16-4.51,2.71-7.15.47-2.2,2.44-4.1,3.82-6.08a35.84,35.84,0,0,1,8.84-9.09c3.58-2.54,7.46-4.48,11.23-6.64,1.42-.82,3.69.19,4.33-2.09,2.58.8,4.2-.91,6.25-2s4.69-1,7.05-1.45c2.12-.38,4.32-.94,6.47-1.47a19.81,19.81,0,0,1,5.33-.49c2.46,0,5-.58,7.39.2a70.6,70.6,0,0,0,6.92,1.72c2.84.61,5.55,1.75,8.36,2.11s5.71.64,8.44,1.94c1.23.59,2.94.16,4.43.19,1.79,0,3.68-.39,5,1.46a1.07,1.07,0,0,0,1.71.23c1.2-1.19,2.09-.54,2.88.43,1.17,1.42,2.73-.87,4.29.71.92.94,3.4-.05,5.08,1.1a1.79,1.79,0,0,0,2.51-1c1-3.2,4-4.28,6.32-5.83,3.62-2.37,7.59-4.21,11.25-6.56,1.74-1.12,4.8-.1,5.28-3.29a3.25,3.25,0,0,1,.8.36c.58.49,1.57.65,1.84.33,2.14-2.56,6.07-1.58,8.17-4.31.61-.81,1.89.61,3.3-.28,2.81-1.75,5.89-3.34,9.43-3.37,1.56,0,2.13-1.72,3.75-2.1,4.33-1,8.77-2,12.6-4.53a2,2,0,0,1,.89-.33c1.92-.2,3.8.13,5.75-.87,1.31-.67,2.55-2.84,4.59-1.31,2.94-2.33,6.38-2.86,10-2.87.45,0,1.24-.19,1.3-.42.69-3,3-2.83,5.11-2.48s2.39-1.11,2.66-2.21c1.15-4.54,3.85-8.38,5.43-12.71.83-2.25,2.88-4.39,1.1-7.07.92-1.41.47-3.36,1.26-4.56,1.14-1.75-.18-3.93,1.07-5.16,1.5-1.47-.77-2.78.42-4.43a4.75,4.75,0,0,0-.47-5.15c1.61-4.16-1.09-8.15-.44-12.36.36-2.38.2-4.88,1.15-7.16.51-1.22.8-2.25,0-3.46-.52-.78-1.48-1.61-1-2.66,1.12-2.28-1-4.69.31-6.83.58-.94,1.06-2.16.58-2.75-1.56-1.89.54-4-.57-5.75-1.29-2.06,1.27-3.59.68-5.6-.41-1.42.87-2.77.1-4.48-.63-1.39.44-3.63-.3-4.86-.94-1.57-.25-3.35-1.23-4.64-.79-1.05-.47-1.7.12-2.62a1.92,1.92,0,0,0-.35-2.68c-1.63-1.2-1.39-3.3-1.17-4.45a6.62,6.62,0,0,0-1.14-5.18,29.42,29.42,0,0,1-4-14.15c-.06-1.18-1.39-2.1-.42-3.57.55-.83.28-2.23.31-3.37,0-1.33,0-2.67,0-4a3.82,3.82,0,0,1,.55-2.34c2.05-3.05,2.79-6.87,5.57-9.49a1.12,1.12,0,0,0,.31-1.58c-.7-1.59-.6-3.42-1.43-5.06-2.34-4.64-2.28-4.79-7.56-4.68-2.51.05-4.81-.84-7.06-1.5-1.6-.47-3.92,1.15-4.93-1.41-.09-.25-.9-.18-1.3.24-.94,1-1.75.61-2.51-.25-3.11-3.5-6.41-6.86-7.66-11.59a19.86,19.86,0,0,0-1.19-3.14c-.53-1.17-1.87-2.49-1.61-3.4.72-2.57-.88-5-.12-7.46.41-1.32-.76-4.48-.46-5.58.54-2-.67-3.54-.64-5.34a6.65,6.65,0,0,0-.52-3.84c-.51-.89.45-2,.67-3.07.37-1.74-1.79-3-.68-4.57,1-1.41.5-2.9.53-4.34a15.79,15.79,0,0,1,1.74-6c.19-.45.79-1.14,1.3,0A6.75,6.75,0,0,1,512,416.13ZM809,628c-.64-.46-1.44,2-2-.14a3.45,3.45,0,0,0-1.2-1.5c-.89-.74-2.78.18-3-1.87,0-.2-1.7.24-2.6-.72a6.26,6.26,0,0,0-3.4-1.67,2.89,2.89,0,0,1-2.63-1.86,1.53,1.53,0,0,0-1.77-1.24,4,4,0,0,1-2.36-.48c-3.83-2.31-7.88-4.3-11.49-6.91-1-.75-2.11-1.75-3.23-2.56-3.12-2.25-7.28-2.74-9.88-5.94a4.27,4.27,0,0,0-2.64-1,2.83,2.83,0,0,1-2.15-1c-2.39-3.16-6.41-3.8-9.33-6.08-3.59-2.81-8.52-3.54-11.37-7.46-.46-.63-1.17-.46-1.81-.51s-1.51.24-1.86-.4c-1.31-2.43-4.4-2.05-6-3.92-1-1.16-3.53-.09-3.63-2.52-1.76,1.33-2.9-1.2-4.15-.85-3.49,1-5.08-3.2-8.27-2.75-.21,0-.51-.39-.72-.65a5.38,5.38,0,0,0-4.26-2c-1.33-.09-2.53-1.44-3.91-1.79s-1.66-2.79-3.86-2.16c-1.71.49-2.54-1.62-4.2-2.13-2.81-.87-6-1.44-8.06-4.12a1.65,1.65,0,0,0-1.25-.63c-2.63.31-4.4-1.72-6-3-2.32-1.85-5.31-2.6-7.29-4.86s-4.83-2.71-7.21-4.12c-1.9-1.13-4.46-1-6-3-.11-.15-.62-.05-.92,0s-.45.43-.06.73c1.06.82.52,2.14,1,3.21,1.75,3.73,3,7.67,4.78,11.41a6.35,6.35,0,0,1,.77,3.27c-.13,1.65,1.75,1.4,2.32,2.75a42.19,42.19,0,0,1,2.8,9.67c.35,2.19.42,3.27-1.89,4.29-1.54.69-2.83,2.2-4.63,2.44-2.82.38-3.41.7-3.59,2.79a6.26,6.26,0,0,0,0,2.48,7.26,7.26,0,0,1-.58,5.78c-.4.81-.77,1.78-.37,2.32,1.31,1.78.17,3.65-.3,4.91a24.1,24.1,0,0,0-1.39,7c-.22,4.38-.29,8.73-2.38,12.73.56,2.53-1.23,4.68-1.1,7.2.07,1.35,1.18,3.48-1.46,4-.37.08-.39.52,0,.73,2.28,1.15.76,3,.4,4.14-.91,2.74-.82,5.47-.88,8.23a7.83,7.83,0,0,1-.49,2.86c-.57,1.46-1.53,2.91-.6,4.82s-1.4,3.14-1.43,5.2a33.13,33.13,0,0,1-1.73,11.24c-2.38,6.2-2.85,12.82-5,19-.7,2-.12,2.58.82,3.71.43.52,1.75.79,1,1.83-1.16,1.59.45,4.53-2.76,5.2-1.15.24-.19.76.39.92s1,.56.75,1c-1.7,2.84-1.71,6.14-2.53,9.21-.41,1.52-1.84.83-2.32,1.57-.95,1.48-1.62,3.13-.34,4.84-1.67.26-1.36,2.33-2,2.71-1.53.87-1.25,1.66-.81,2.83.06.15-.4.71-.54.69-2-.38-3.58,2.15-6,.34-1.45-1.06-4.29.2-5.7-2-1.09,1.14-2.44-.07-3.31.21-2.5.8-1.79-1.68-2.8-2.3s-1.46.73-2.59.43a16.75,16.75,0,0,1-6.11-2.55c-3.33.65-5.75-1.91-8.74-2.49-2.12-.41-3.83-2.16-3.74-4,.09-1.65,1.85-3.14,3.95-3.57a13,13,0,0,0,4.53-1.45c1.48-1,2.79.51,4.39-.36,1.39-.77,3.15-1.73,5.12-1.2,1.26.34,1.72-.47,1.69-1.71,0-2-.7-4.4.16-5.91,1.24-2.16-.82-3.87,0-5.43a10.58,10.58,0,0,0,.86-5.24c-.05-1.81,1-3.59.06-5.46-.24-.45,0-1.68.29-1.8,2.49-1,2-2.72,1.13-4.36-.59-1.08.58-1.32.6-2.11s1.05-1.38.15-2.53a2.94,2.94,0,0,1,.2-3.28c1.2-1.67.82-3.68.41-5.27-.32-1.21-.42-2.38.25-2.91,1.78-1.41-.56-3.29.83-4.77a2.94,2.94,0,0,0,0-2.86c-1.69-2,.9-4.23-.58-6.1,1.89-1.15-1.09-2.81.53-4.37.75-.72.36-2.91.08-4.35-.36-1.81,1.32-3,1.1-4.71a41.66,41.66,0,0,1,0-5,3.63,3.63,0,0,1,0-1c1.06-3.64,2.45-7.22,1-11.1a2,2,0,0,1,.54-1.82,2.24,2.24,0,0,0,0-2.74c-.24-.38-.66-1,0-1.06,2.19-.15,1.56-2.21,1.65-3,.28-2.55,0-5.12.61-7.71.36-1.53-1.22-2.34-2.91-1.84-3,.9-5.85,2.54-9,3.08-2,.34-4.26.56-6,1.55a13.78,13.78,0,0,1-7.32,1.86c-1.4,0-1.63.67-1.65,1.84,0,1.49.8,2.93.78,4.19s-.87,2.7-.76,4.19c0,.33,0,.67,0,1,.62,4.7-.43,8.11-2.9,12.46-1.39,2.45-3.82,3.89-5.11,6.31-2.4-.28-2.72,1.95-2.86,3.16-.23,2.07-1.61,3.66-1.87,5.42a3.59,3.59,0,0,1-3.43,3.32c-1.63.23-3,2.17-5,.61-1.52-1.15-3.24,1.42-5,.48-.84-.44-1.56-1-2.45-.19a12.91,12.91,0,0,0-.58-2.32c-1.72-3.83-.39-7.85-.74-11.76,0-.24.32-.61.58-.78,1.5-1,1.23-2.53,1.44-4,.27-1.93,2.67-1.7,3.58-3.08.21-.33-.1-.62-.06-.79.58-2.45,2.19-4.36,4.63-6.14a8.3,8.3,0,0,0,1.56-2.35,17.22,17.22,0,0,0-1.93-1.15c-2.42-1.1-4.32.27-5.44,2-.79,1.19-1.81,2.2-2.8,2.3-3.3.33-4.77,3.26-7.26,4.69-1.62.93-3.52,3-3.62,4.63-.22,3.53-1.94,6.62-2.19,10.08-.13,1.85.09,4.13-.88,5.44-1.53,2,.82,4-.54,5.87-.41.57-1.86,2.61.7,3.08.34,1.7.69,3.4,1,5.1-2.07,1,.33,2.43-.46,3.8-.89,1.55.69,2.93,1.57,4.25a6,6,0,0,1,0,6.86c-.23.39-.43.8-.65,1.2,3.11.42,1.3,3.65,2.87,5,1,.87,1.62,1.87-.4,2.38-.57.14-.62.78,0,.88,2.25.39,1.55,2.39,1.17,3.13-.81,1.56-1.09,2.65.45,3.78.36.27.3.65.27,1.16-.08,1.35-.14,3,.52,4,.95,1.51.22,4,1.3,4.46,1.83.79,1.16,2.3,1.41,3.19,1.39,4.91,3.83,9.53,4.19,14.73,0,.59,2.41,5,2.42,5.72,0,2.83,4,4,2.83,7.44-.24.69,1.91,1.39,1.72,2.77-.27,2,.81,3.48,1.78,4.94,2.42,3.64,3.14,8,5.1,11.86.76,1.5,2,3.19,2,4.81,0,2.12,1.53,3.24,2,4.83a12.56,12.56,0,0,0,2.53,5.15c.71.78,1.65,2,1.18,2.86-1,1.93,1.83,1,1.65,2.78a6.63,6.63,0,0,0,1.73,4.83c1.11,1.19.05,3.84,2.76,4,.34,0,.42.91,0,1.27-1.28,1.25.39,2.75.55,2.82,2.32,1,2,2.65,1.27,4.41-.27.6-.79,1.1-.32,1.76,1.07,1.46,3.1,2,3.48,4.25.12.73,1.95,1.17,3,1.75-1.79,1.45.54,2.62.29,4a6.68,6.68,0,0,0,0,1c0,1.08.56,1.39,1.54,1.41a4.36,4.36,0,0,1,1.28.45c-1.56,2.32,1.71,2.38,1.79,3.77.1,1.94,1.59,2.93,2.56,4.19,1.37,1.8,2.69,3.37,1.24,5.66-.61,1,.42,1.07.73,1.5s1,.92.23,1.57a1,1,0,0,0-.2,1.33c.69.77,1-.47,1.55-.45s1.41,0,.74,1c-.4.59-.76,1.37,0,1.69,1.93.84,2.11,3.36,3.93,4.08,3.09,1.22-.1,5.42,3.23,6.42.31.09.23.43-.08.76a1.38,1.38,0,0,0,.5,2.41c1.75.61,2.08,2.35,3.25,3.38s.38,3.51,2.7,4.35c1.67.61,1.33,3,2.17,4.48.47.83,2.19.9,1.34,2.71-.42.89,1.66.87,2.26,1.85s2.17,1.79,2.12,2.61c-.11,1.86,1.38,1.92,2.13,2.83,2.78,3.39,7.54,3.81,10.32,7.12,1.77-1,2.42.61,3.36,1.46.55.51.88.69,1.58.18,1.87-1.37,3.28,1.2,5.08.69.62,2.2,2.58,1.14,3.89,1.67,2,.83,4.37-.65,6.17,1.07,1.16-1.29,2.8-.5,4.14-1,.41-.14,1-.63,1.18-.5,2.1,1.32,3.92-.63,6-.51a15.66,15.66,0,0,0,6.14-.78c2.84-1,5.94-.64,8.87-1.88a48.43,48.43,0,0,1,9-3c3.67-.72,7-2.37,10.58-3,4.3-.75,8.38-2.12,12.54-3.22s8.42-1.9,12.06-4.39c.22-.15.64-.35.76-.26,2.36,1.82,3.85-.52,5.74-1.07,1.11-.32,1.89-1.14,3.12-1.3a27.75,27.75,0,0,0,12.5-4.49c.37-.26.69-.37.75,0,.5,3,1.84.11,2.74.25s1.47-1.54,2.78-1.8,1.61-2.3,3.61-1.08c1,.62,1.27-1.72,2.68-2.18a16.17,16.17,0,0,0,5.35-3.23c1.53-1.32,3.85-.7,5.06-2.44,1.45.78.27-2.88,2.2-1.29l9.19-4.77c.21-2.17,2.75-1.34,3.49-2.66,1-1.82,2.61-2.17,4.43-2.33.87-.08.45-2,1.29-1.54,1.26.63,1-.08,1.49-.77a13.88,13.88,0,0,1,5.21-4.41,38.06,38.06,0,0,0,7.35-4.57,23.72,23.72,0,0,1,5.48-4c2.41-1.07,3.31-3.35,5.25-4.72,3.77-2.67,6.11-7,10.31-9.22.86-2.48,3.23-3.69,4.73-5.63,4.49-5.81,8.84-11.73,14.51-16.53,2.88-2.43,3.58-6.31,5.68-9.29-1.11-1.79,1.73-2,1.42-3.65a5.7,5.7,0,0,1,1.28-4c1.81-2.29,1.84-5.16,3.2-7.46a29,29,0,0,0,3.17-7.44c.77-2.94,2.31-5.6,2.89-8.62.21-1.11-1.56-2-.12-3,1.86-1.25,1.48-3.15,1.51-4.94a8.62,8.62,0,0,1,.84-3.75c1-2.12,3-4.21,2.1-6.8-.83-2.4,1-4.89-.14-6.87-.91-1.57.48-2.33.26-3.54s-2.19-2-1.73-2.68c1.13-1.62.36-2.41-.68-3.33s-.18-3.41-2.46-3.63c1.07-3-1.59-4.18-3.07-5.85-1.77-2-3.94-3.64-5.57-5.73-1.87-2.4-2.84-5.73-5.09-7.54s-2.53-5.75-6.28-5.91c-.19,0-.32-.85-.54-1.29-.55-1.14-1.06-2.35-2.49-2.68.15-2.17-1.58-.33-2.18-1-.87-1-2.09-1.79-2.71-2.92a7.31,7.31,0,0,0-3.63-3.7c-1.74-.76-3-2.45-4.61-3.59s-3.8-1.15-4.93-3.42c-.71-1.42-3.25-1.69-4.9-2.74-5.26-3.37-9.55-8.25-15.69-10.26-.63-2.21-3.74-2-4.2-3.45-.84-2.56-3.14-2-4.54-3.16A2.38,2.38,0,0,1,809,628c1.63-1.08,3-1.4,4.79.15A73.28,73.28,0,0,0,824.88,636c2.37,1.36,4.23,3.53,6.91,4.43-.28,2.49,3,.67,3.32,2.79a2.36,2.36,0,0,0,3.1,1.76c1.35-.31,2.42.62,3.11,1.18,2.17,1.73,4.44,3.29,6.7,4.89s3.77,3.78,6.32,4.82a1.4,1.4,0,0,1,.7.7c.93,2.2,2.89,3.34,4.68,4.7,2.25,1.73,4.75,3.35,6.44,5.55,3.48,4.56,7.3,8.92,9.89,14.13.87,1.75,2.58,1.9,4,.52,2-2,2.84-4.87,4.84-6.64s2.6-4.65,4.42-6.45c3.28-3.26,3.88-7.75,5.46-11.66,1.7-4.22,3-8.74,4.47-13.1.55-1.59,1.59-2.92,1.88-4.84a102.81,102.81,0,0,1,2.87-11.6c1.6-5.93,3.68-11.75,3-18.09-.23-2.4,1.93-9,3.63-12.25.26-.5.45-1.14.15-1.34-1.7-1.07.34-2.56-.31-3.33-1.34-1.57.62-2.33.52-3.57-.21-2.45,1.86-4.76.89-7.17s-.17-4.52.31-6.41c.53-2.12,1.21-4.32.6-6.2-.66-2,1.09-3.87-.24-5.9-.64-1,1.13-2.87.3-3.95-1.33-1.74-.31-3.05.24-4.42,1.07-2.7,1.12-2.66,0-6.3a4.42,4.42,0,0,1,.19-1.91c.07-.4,1-.7.31-1.19-2.3-1.72-1.41-4.19-1.59-6.42-.09-1.13.23-2.6-.36-3.34-1.16-1.46-.1-3.25-1.26-4.68-1-1.2,0-3-.43-4.35s-.25-3-.56-4.27a38.93,38.93,0,0,1-.39-4.87c-.12-1,.49-2.42-.37-2.8-1.48-.65-1.24-1.23-.69-2.33a2.73,2.73,0,0,0,0-2c-1.16-3-.6-6.15-1.06-9.17a45.44,45.44,0,0,1-.7-6.15c0-1.66-2.94-1.67-1.52-3.56-1.28-1.45-.5-3.19-.65-4.79a2.16,2.16,0,0,0-.82-1.71c-1.3-.91-1-2.27-1.26-3.56a27,27,0,0,0-2.89-8.56c-.81-1.39-3.1-2.08-2.93-3.79.21-2.06-3-1.67-2.22-3.89.26-.7-.7-.94-1.39-.92-2.1.07-3.69-.95-5.26-2.2s-3.36-2.31-5.39-1.76c-2.54.7-4.83-2.37-7.48-.29-.38.3-1.13-1.92-2.16-1.34-1.87,1.06-3.32.14-5.06-.22-1.49-.31-3.13.61-4.93-.09s-4.29-1.45-6.1-.91c-3.84,1.15-7.16,0-10.66-1-1.08-.3-2.66-.61-3.38-.07-1.85,1.39-3.46.32-4.93-.21a13.7,13.7,0,0,0-5.23-.9c-1.17,0-2.35-.12-3.5,0s-2-1.87-3.57-.53c-.61.53-1.92-.31-2.82.43-.13.1-.58-.18-.87-.3-5.37-2.1-11.06-2.28-16.69-2.57a10,10,0,0,1-5.89-1.93c-.41-.33-.56-1.31-1.51-.71-2.49,1.59-4.58-.63-6.88-.91-3.12-.38-6.11-1.79-9.22-2.43a9.18,9.18,0,0,1-4-1.42c-1.51-1.1-3.6-2.18-5.35.1-.29.37-1.16.34-1.27-.11-.63-2.4-2.54-1.46-4-1.65s-3.08.56-4.32-.54c-1.73-1.52-3.25,1.15-4.48.31-2.47-1.67-4.37-.37-6.34.66a3.65,3.65,0,0,1-2.33.56c-2.38-.41-4.48.69-6.57,1.41s-3.69,2.21-5.34,3.43c-2.73,2-5.08,4.59-8.15,6.21-.47.26-.59.66-.82,1.09a23.17,23.17,0,0,1-2.93,4.48c-.93,1-2.85,1.28-2.6,3.63.13,1.12-1.87,2.47-2.9,3.72-4.47,5.44-9,10.77-12.64,16.9-1.32,2.26-2.46,4.89-5.3,6.16-2,.9-2.71,3.41-4.49,4.83-1.45,1.16-1.45,3.89-4.09,3.87,1,2.16-2.08,2-2.1,3.86,0,2-1.75,2.95-3.51,3.62s-.88,3.09-2.25,4.14c-.13.1-.31.34-.37.31-2.06-1-2.17,1-2.63,1.93-.83,1.59-1.93,3-2.64,4.6-1.56,3.42-5.89,5.09-5.8,9.45-2.2.09-1.15,2.84-2.28,3.16-2.37.67-.72,2.73-1.58,3.59-3,3-3.65,7.16-6.1,10.36-.42.53-1,.87.19,1.28,3.17,1.13,6,3,9.2,4.19,2.13.82,5.18.85,6.34,3.64,3.92,1.28,6.53,4.74,10.39,6.17s7.79,3.48,11.81,4.89c1.35.47,1.91,2.09,3.24,2,1.59-.1,2.63,1.16,4.2,1.18,1.38,0,2,2,3.78,2,1.62,0,2.39,2.15,4.12,2.42a4.89,4.89,0,0,1,3.47,2.59c1.12,2.17,2.67-.72,3.75.61s3.15,1.74,4.27,3.25c.36.5,1,1.36,1.58.93,1.78-1.37,2.78-.65,3.6,1,2.35-1.48,2.54,1.12,3.65,2,.76.56,1.37,1.72,2.47.73,1.32-1.17,2.22-.38,2.8.65a8.65,8.65,0,0,0,2.41,2.86c1.41,1.08,2.38-.36,3.48,0,1.6.57,1.28,2.66,2.62,3.46.14.08.36.27.38.25,2.22-2.31,3,1.09,4.52,1.15,1.32,0,.62,1.88,1.86,2,1,.08,2.64-.4,1.41,1.7a22.48,22.48,0,0,0,2.75.36c.53.1.93.4.91,1-.07,2.36,1.34,2.56,2.81,1.59s2.31-.41,2.84.66c1,2.07,1.81,4,4.85,3C774,602,775,604,776,604.36s2.5-.35,3,1.15c.56,1.73,2.29,2.16,3.45,3s2.12,2.1,3.58,2.4c3.87.8,6.79,3,9.35,5.87.54.6,1.27,1.56,2,1.06,1.15-.79,1.48-.78,1.9.61.11.37,1.89-.51,2,1.15,0,.45.88,1.43,1.34,1,2.36-2,2.2.71,3,1.52.62.64.54,1.65,1.84,2C809.17,624.67,809.11,626.45,809,628ZM492,656.54c-.83-.78-1.43-.3-2.24,0-1,.43-2,1.84-3.35.57-.13,2.15-2,1.69-3.26,2.2a44.72,44.72,0,0,1-4.5,1.63c-1.35.41-3,.33-4.08,1.06-1.37.91-2.88,1.44-4.29,2.22-2,1.1-4.28,1.08-6.35,2.15-3.57,1.85-6.88,4.16-10.49,6-1.78.89-4.31,1.71-4.9,4.43-.2.93-1.35,1.31-2.48,1.24s-1,.51-.44,1.15a1.69,1.69,0,0,1,.3,1.86c-1.67,2.47-1.66,5.55-3,8.08-1.69,3.19-2.34,6.58-3.05,10.07s-.87,7-2.6,10.19a8.57,8.57,0,0,0-.82,3.52c-.1,1.9-1.32,6.65-1.32,8,0,1.6-1.61,1.81-1.72,2.81-.13,1.23.59,2.53.53,3.77-.1,1.93.72,4-.69,5.77,1.11,2.64-1.53,4.59-1.3,7.11.17,1.82-.15,3.69.09,5.49a9,9,0,0,1-1.23,5.11c-.92,1.82.76,3.19-.12,5-.73,1.46-.17,3.51-.41,5.27-.31,2.22-1.06,4.38-1.23,6.6-.16,2-1.05,3.9-.75,6.07s-.23,4.36-.3,6.55c0,1.43.5,2.91.52,4.18,0,1.05-1,3.13-.38,3.6,1.8,1.35-.09,2.64.38,3.92.53,1.46.21,3.09.64,4.73.52,2,.45,4.11,1.75,5.9.12.17,0,.67-.21.89-1.34,1.69-.73,2.32,1.19,2.36.28,0,.81.24.81.38.07,2.87,3.15,3.83,3.93,6,1.66,4.53,4.9,7.31,8.77,9.68.55.34,1.28.85,1.38,1.38.54,2.88,4.63,3.5,4.32,6.9,0,.17.78.6,1.19.58a3,3,0,0,1,2.16,1c2.55,2.32,6,3.43,8.31,6,1,1.06,2.73-.41,3.22,1.24.61,2,3.27,1.1,3.84,2.45,1.47,3.44,6.54,2.17,7.48,6.05,1.19-.73,2.26-1.08,3.3.35.77,1.06,2.14,1.52,3.07,2.33,2.1,1.82,5.18,2,6.85,4.48.88,1.28,3.38-.43,3.83,1.9,1-.53,1.91-1.31,2.94,0s3,1.26,3.6,2.3c.91,1.47,2.61-.85,3.34,1.31.46,1.34,2.7.5,4.14.57.93,0,1.43.69,2.15,1,3.19,1.42,6.36,3.17,9.73,3.87,2.66.54,5.37.67,8,1.73,1.88.77,4.22.46,6.07,1.29,2.36,1,4.81.74,7.13,1.26s5.25-.52,6.76,2.41c.35.68.74-.14,1.08-.34.59-.36.86-1.47,1.94-.59a3.69,3.69,0,0,0,1.87.38c4.72.44,9.56-.93,14.19,1a1.12,1.12,0,0,0,1,0c1.92-1.93,4-.48,6-.21.63.08,1.67.46,1.85.19,1.31-1.91,3.11.1,4.78-.74s3.91-.19,5.91-.2c1.83,0,3.66,0,5.49,0s3.59-.32,5.45-.21a35.69,35.69,0,0,0,4.68-.55c2-.19,4-.21,5.93-.23a7.38,7.38,0,0,0,1.83-.56c3.25-.81,6.6-1.4,9.59-2.89,1.25-.63,2.31,1.4,2.91.05,1.18-2.66,4.77-.93,5.85-3.49,2.16,2.22,3.34.08,4.55-1.15s3.22-.31,3.78-1.72-2.13-2-1.84-3.74c.16-1-.47-1.55-1.09-2.1-2.89-2.58-3.25-7-6.86-9.08-1.29-4.23-4.3-7.48-6.33-11.27s-3-8.19-6.36-11.27c-.29-2.54-2.47-4.15-3.22-6.39a21.36,21.36,0,0,0-3.63-6.35,4,4,0,0,1-.52-2.35c0-.47-.12-1.28-.34-1.34-3.09-.76-2.6-3.77-3.69-5.77-.77-1.41-1.42-2.9-2.25-4.28s-2.94-2-2.08-4.14c-2.08-2.17-2-5.57-3.88-7.64-2.17-2.33-2.34-5.24-3.49-7.86s-2.94-5-3-7.5c-.14-3.53-1.86-6.15-3.2-9-1-2-2.68-4-2.81-6.09-.14-2.36-1.27-3.62-2.68-5-.81-.81-1.74-1.51-1.53-2.92.34-2.29-.81-4-2.12-5.78a7,7,0,0,1-1.75-3.38,12,12,0,0,0-1.38-4.61c-.7-1.45-1.13-3.46-2.3-4.16-2.14-1.28.08-2.85-.89-4.19-2.18-3-3.8-6.37-3.54-10.29a2.87,2.87,0,0,0-.58-1.82c-1.75-2.77-1.76-6.18-3.16-9a25.2,25.2,0,0,1-2.15-8.78c-.23-2-1.59-3.73-1.67-5.44s-1-3.25-.88-4.72a7.3,7.3,0,0,0-1.19-5.13,1.94,1.94,0,0,1-.34-1.37c.62-2.25-1.17-4-1.1-6.2.05-1.88-.74-3.79-.7-5.67,0-2.66-1.32-5-1.25-7.64.06-2,0-4,0-6,0-2.17,0-4.33,0-6.5,0-1.81.89-3.58.06-5.44-.34-.75.15-1.55.65-2.28a11.86,11.86,0,0,0,1.21-2.6,1,1,0,0,0-.33-.83,1.07,1.07,0,0,0-.91-.18c-1.06.44-1.53,2-2.79,1.86-1.59-.16-2.81.65-4.19,1.06s-3.73.5-4.41,1.53c-1.1,1.68-2.49.66-3.65,1.15-5,2.11-10.12,3.68-15.24,5.37-7.57,2.48-15.44,4-22.72,7.47-2.31,1.12-5.25,1.17-7.49,2.86C492.78,656.67,492.42,657,492,656.54ZM748,434.9c0,.93,0,1.77,0,2.6.06,2.4.75,3.15,2.91,2.41,1.75-.61,3.26-1.41,4.93,0,.14.12.64-.07.89-.24,2-1.34,4.29-.91,6.26-.55s4.18,0,6.21.51c4.17,1.05,8.7.71,12.49,3.27.24.16.92-.19,1.31-.44a1.65,1.65,0,0,1,1.78-.18c3.53,1.52,7.39,2.06,11,3.23,5.24,1.69,10.74,1.84,15.94,3.47,5.31-1.41,10.22,3.08,15.58,1.05,1.86,1.63,4.15,1.08,6.18.86,2.27-.24,4.17.8,6.17,1.23,3.74.81,7.5.5,11.18,1,1.43.21,3,0,4.26.47,1.8.71,4.09-.49,5.26.58,1.92,1.77,3-.72,4.52-.23.61.2,1.49,0,1.86.38,1.32,1.32,3.21.08,4.65,1.31s2.42-1.15,4.06-.92c.81.11.54-1.69.55-2.63,0-2.37-.76-5-.24-7,.57-2.27-1.24-4.35.21-6.35-1.32-3.34-1.35-6.94-2.14-10.35-.73-3.15-.74-6.7-3.2-9.45a6.64,6.64,0,0,1-1.51-4.44c.24-3.27-.8-6.08-2.1-8.89,1-1.68-2.22-.92-1.53-2.77.35-1-.41-2.33-.75-3.5-.13-.46-.53-.83-.71-1.28q-3.79-9.57-7.56-19.15c-.58-1.48-.73-3.32-1.72-4.43-1.61-1.8-1.42-4.61-3-5.91a6.81,6.81,0,0,1-2.78-5.73,1,1,0,0,0-.53-.74c-2.87-.91-3.71-3-3.41-5.76a2,2,0,0,0-.86-1.69,3.07,3.07,0,0,1-1.17-2.59c.08-2-1.65.53-1.86-.67a8.28,8.28,0,0,0-2.55-4.82c-1.28-1.26-1.49-3.78-2.56-5.58-.33-.55-.67-1.43-1.12-1.52-2.73-.53-2.89-3.38-4.57-4.85a4.26,4.26,0,0,1-1.24-2.57c-.22-2-1.39.32-2-.62A28.29,28.29,0,0,0,816.68,323c-3.41-1.77-7-3.41-11-2.95a30,30,0,0,1-4.45,0c-1.51-.05-3.48-.66-3.31,2.21,0,1-1.37.95-2,.69-1.08-.42-.56-.78.24-1a2.61,2.61,0,0,0,.75-.49c-.27-.16-.54-.43-.82-.45-.64,0-1.45-.23-1.79.48a13.17,13.17,0,0,0-.61,2.3c-.89-1-1.65.07-2.46.1-1.36,0-1.15,2.23-1.72,1.71-1.7-1.53-2.7.58-4.07.41-2-.24-.32,1.49-.75,1.65-1,.39-2.26.28-3.29.67-.55.21-1.5.65-.76,1.82.62,1-.86,1.68-1.08,1.58-.81-.37-1-.67-1.64.44s.29,2.15-.44,2.85-2.5,1.12-2.67,1.91c-.38,1.75-2.39,1.08-2.62,1.94-.63,2.39-3.36,3.68-3.17,6.44,0,.4-.5.31-.62.39-2.14,1.33-2.47,1.46-2,2.86.33,1,.4,1.52-.38,1.92a16.28,16.28,0,0,1-2.72.87c.28.83,1.38,1.62.32,2.55-.9.78,0,2.12-.84,2.73-2.87,2.23-2.72,5.67-3.83,8.63-.61,1.63-.9,3.42-1.86,4.93,1.38,2.22-.48,3.72-1.26,5.44s-2.53,3.1-.83,5.16a1,1,0,0,1-.25.85c-3.08,1.07-1.11,2.22-.13,3.44.27.33.53,1.07.35,1.31-1.84,2.59-1.22,6-2.92,8.59-1.11,1.67-1.56,3.72-.8,5.13,1,1.81-.61,3-.26,4.54a10.06,10.06,0,0,1-.06,5.42,12,12,0,0,0-.85,4.25,18.07,18.07,0,0,0,.08,4.48c.44,1.64-2.23,2.87-.38,4.5-1.46.74-1.38,1.81-.72,3.06.13.26.12.83-.05,1-1.39,1.07,0,2.58-.37,3.31C747.82,432.16,748.23,433.57,748,434.9ZM334.78,726.68c-.57.58-1.13,1.39-.6,1.8,2.36,1.84,1.71,5.29,3.95,7.13.89.73.74,1.73,1,2.68s2.36.64,1.92,2.38c-.39,1.52.68,2.37,1.52,3.43a38.17,38.17,0,0,1,3.72,5.64,41.29,41.29,0,0,0,11.94,14.19c2,1.47,2.78,4.41,5.72,4.66,1.25,3.32,4.86,4.34,6.78,6.83,2,2.65,5.61,3.13,7.26,6,2.37.2,3.4,3,5.44,3.22,3.19.39,4.79,2.86,7.1,4.37.68.44,1.13,1.43,1.84,1.64,2.77.84,5.06,2.65,7.67,3.7s4.05,4.17,7.34,3.69c.11,0,.33.18.36.31.65,2.27,2.93,2.71,4.53,3.1,2,.5,2.89,2.24,4.58,2.93.6.25,1.09.82,1.76.39s.95-.87,1.59-.13c1.68,1.94,4.63,1.43,6.41,3.24.15.15.66.06.93-.08a.91.91,0,0,0,.35-1.28c-2-3.08-1.69-6.81-2.72-10.16a19.9,19.9,0,0,1-1.13-3.66c-.16-1.43.44-3-.89-4.21,1.61-1.18-.3-2.8.06-3.32,1.06-1.52-.71-2.93.37-4.39s.59-3.26.35-4.82c-.18-1.13,1.63-2.32.34-2.85-2.57-1.06.93-2.15-.23-3a16.24,16.24,0,0,0,1.11-9.1c-.62-3.33.73-6.73,1.56-10,.32-1.28-.78-1.92-.26-3a16.6,16.6,0,0,0,1.51-4.52c.26-1.62-.06-3.33.11-5s1-3.18.83-4.67,1.55-2.91.33-4.45c2-1-.36-2.46.45-3.82.68-1.15,0-3.15.73-4.22,1.74-2.54,1.69-5.24,1.61-8-.06-2.17-.16-4.26,1.79-5.91.33-.28,1.59-1.58.65-2.4-2.11-1.84-.64-3.63.19-5a25.35,25.35,0,0,0,3.37-9.89c.24-1.71.72-2.92,2.51-5.22a2,2,0,0,0,.35-2.28,8.38,8.38,0,0,0-2.41-2.48c-.81-.52-1.42.67-2.15.79-.88.15-1.8.33-2.38-1-.46-1-2.63.14-3.14-1.57a11.85,11.85,0,0,0-2.51,1c-.71.49-1.12.42-1.58-.19-.78-1-2-1.72-3-1s-1.64.15-2.51-.07c-1.24-.29-2.67.23-3.7-.93-1.72,1.65-2-.83-3.07-1.07-1.75-.38-4.23.88-5.15-.68-1.28-2.16-3.07.48-4.11-1,0-.06-.51.54-1.12.06-1.27-1-4.85-2.07-6.08-1.84-.64.13-1.4.68-1.68-.06-.43-1.15-.67-1.85-1.77-.56-.29.34-.86.84-1.1.74-1-.41-2.23-1.67-2.91-1.41a5.14,5.14,0,0,1-3.65.26c-1-.28-2.68,0-3.2-.73-1.47-2-1.81,2.48-3,.36-1.77,1.1-4.27-.68-5.77,1.42-.94,1.32-1.71-.9-2.87,0-2.4,1.92-2.94,2-5.54,1.41-2.12-.44-4,.68-5.27,1.72-2,1.59-4.43,2.39-6.46,4a46,46,0,0,1-5.61,3.58c-2.74,1.58-4.46,4.13-6.58,6.33-1.45,1.52-2.84,3.08-3.28,4.89a7.62,7.62,0,0,1-2.07,3.74c-.44.47-1.05,1-1.1,1.57a44.14,44.14,0,0,1-1.85,8.44c-.39,1.29.9,2.49-.11,3.95-.55.79-.22,2.28-.08,3.43.21,1.74,1.16,3.59.79,5.15C334.33,722.93,333.46,724.76,334.78,726.68Zm243-122c-.17.4-1.09,1,.1,1.28s1.16,1,1.16,1.81c0,.46,0,1.1.62.91s1.41-.76,1-1.35c-1.38-2.19-.94-4.66-.54-6.77.72-3.87-1.57-7.5-.43-11.29-1.82-2.77.37-6.18-1.44-8.94,1.76-2.05-.38-4.47.39-6.29,1-2.41-1.53-4-.67-6.11-2.1-1.74.29-4-.77-6.17a15.91,15.91,0,0,1-1.26-8.6c.2-1.61-.6-3.16-.07-5a10.55,10.55,0,0,0,0-5.92c-1.09-3.26.37-6.28.18-9.43a3.39,3.39,0,0,1,4.54-3.49c1,.27,1.43-.25,2-.23,1.62,0,2.78-.9,4.08-1.47,1.65-.73,3,1,4.54.36.3-.11.7.07,1,0,3.48-1.36,6.88-1.94,10.08.73.14.11.74-.44,1.17-.56.69-.21,1.53,0,1.41.78-.39,2.85,1.45,5.7.2,8.43-.56,1.24,1.56,1.83.21,3.08-.53.49-.28,1.87-.31,2.84,0,1.17-.43,2.57.08,3.45.95,1.66.14,3.11-.23,4.45s-1,2-.06,3.51c.75,1.12,1.1,3.37.46,4.38-1.66,2.61.3,5.57-1.24,8a1.07,1.07,0,0,0,0,1c1.43,1.85-.59,3.57-.12,5.47a7.71,7.71,0,0,1-.89,5.68c-1.19,2.1.68,4.43-.12,6.38-1.11,2.74-.86,5.47-.89,8.23a3.5,3.5,0,0,1-.88,2.71c1.05,1,.94,1.89,0,3a.87.87,0,0,0,.71,1.42c1.63,0,3.51.67,4.83-.35,1.48-1.14,4.33.56,4.75-2.42,1.85,1,3-.43,4.54-1,1.08-.44,1.54-2.42,3.08-1.5,1.83,1.09,2.17-.93,3.26-1.32.29-.1.76.46,1.19.57.8.21,1.72.4,2.32-.3,1.63-1.9,4.63-1.63,6-3.91.51-.84,1.19.21,1.53.11,2.27-.66,5.43-.13,6.68-1.94,1.57-2.29,4.39-.43,5.55-2.59,2.34,1,4-1.21,6.19-1.28a9.84,9.84,0,0,0,6.58-2.68,2.37,2.37,0,0,1,1.89-.24c2.6.66,3.76-2.57,6.23-2.24.34,0,0-.47.07-.7.56-2.64-.24-8.24-2-8.62-3.35-.7-1.95-3-2.76-4.62-.51-1,.93-2.76-1.35-3.23-.88-.18-.16-3-2.3-3,.72-1,1.5-2.59.53-3-1.85-.84-1-1.73-.76-2.83.09-.36-.39-.35-.57-.44-2-1-4.64-3.68-4-4.6,1.5-2.24-.36-2.9-1.17-4.12-1.07-1.62-.67-4.13-3-5,2-1.74-.65-3.22-.33-4.95.13-.7-1.89-.44-1.88-1.85s-2.74,1.1-1.78-1.1a2.66,2.66,0,0,0-.13-2.49c-.57-1.49-.77-1-1.08.1-.16.54-.86.66-.86.09,0-1.86-1.06-3.36-1.49-5.07s-.8-3.84-3.4-3.79a3.5,3.5,0,0,1-.2-1.38,2.69,2.69,0,0,0-1.9-3.07c-.51-.18-1-.35-1.05-.85-.18-2.66-2.56-4.07-3.49-6.23-1.07-2.49-3.16-3.6-5.11-5-.53-.38-1.19-.9-1.31-1.46-.39-1.82-1.9-2.68-3-3.8-1.39-1.35-2.59-2.86-4.46-3.81a9.44,9.44,0,0,1-4.17-4.72c-2.61.56-2.44-2.82-4.38-3.11s-.51-2.59-1.48-2.63c-3.16-.15-4.22-3.12-6.5-4.36-2.51-1.37-4.15-4.34-7.52-4.12-3.05-3.57-7.71-3.69-11.59-5.48a5.38,5.38,0,0,0-2.87-.4c-1.89.18-3.76.64-5.66.81-2.09.2-3.92,1.39-6.08,1.47-.68,0-1.79.92-.51,2.1s3.21,2.24,1.2,4.37c-.12.13,0,.7.21.89,1.19,1.15.47,1.93-.33,2.92-1,1.28-3.55,1.36-3.13,3.85a1.94,1.94,0,0,1-1.23.51c-1.94-.15-3.4.92-4.94,1.81a7.43,7.43,0,0,1-5.72.84,8.29,8.29,0,0,1-4-2.14c-.51-.49-1.33-.77-1.68,0-1.43,3-4.14,5.39-4.3,9.07-.09,2.07-.7,4.11-.94,6.18-.26,2.29,2.35,4.53.19,6.92,0,0,.49.44.61.73,1.43,3.5,3,6.94,3.19,10.82.09,2.24,2.33,4.08,1.27,6.55,2,1.53,1.7,4.11,2.78,6,1.68,3,1.69,6.53,3.54,9.4,1.14,1.77-.1,4.52,2.36,5.73,0,4.08,2.63,7.2,3.84,10.81,1.05,3.14,4.34,5.39,3.63,9.19,0,.19.43.46.64.72,1.87,2.32,3.47,4.72,3,7.95a1.69,1.69,0,0,0,.42,1.33,8,8,0,0,1,2.4,5.64c.14,1.76,2.28,1.14,2.25,2.86,0,1-1.5,2-.5,2.43s1.11,1.25,1.5,2.12c.57,1.28-.28,3.37,2,3.8.62.11.34.87.35,1.48,0,1.14-.62,2.65,1.32,3.49A3.26,3.26,0,0,1,577.75,604.67Zm81.25-15c0-3.06,0-3-2.24-2-2.47,1.08-5.42,1-7.4,3.27-.14.14-1-.14-1.3-.41a1.39,1.39,0,0,0-2.15.11,5,5,0,0,1-3,1.49c-1.84.39-3.26,2-5.4,1.95s-3.27,2.69-5.8,2.13c-.38-.08-1.74,1.58-1.09,3a6.24,6.24,0,0,1,.21,4.83,11.84,11.84,0,0,0-.79,6.25c.12,1.66-1.14,3.12-.16,5s-1.2,3.57-1,5.65c.1,1.15-1.45,2.31-.85,3.67a3.87,3.87,0,0,1-.5,4.29,2.69,2.69,0,0,0-.46,2.8c.89,1.47.17,2.71-.12,4a32.69,32.69,0,0,0-1,8.18c0,2.67-.09,5.34,0,8,.11,2.46-1.36,4.68-.75,7.29a15.25,15.25,0,0,1-.27,3.33c-.07,1.16,0,2.33,0,3.5s0,2.33,0,3.49,0,2.31-1.06,3.13c-2,1.55,1.2,1.39.75,2-1.47,1.94,0,4.29-1.05,6.2-.36.66-.64.87.36,1.28,3.39,1.39,6.61,3.19,10,4.41a12,12,0,0,1,4.9,2.95c.83.85,1.69,1,2-.58.52-2.33,1.71-4.52,1.62-7-.13-3.19,2.3-5.58,2.49-8.76.24-4.15,1.82-8.12,2.09-12.36.1-1.62,1.66-3.06.88-5.16-.69-1.88,1.19-3.6,1-5.67a14.5,14.5,0,0,1,1.37-7.52c.94-2-.27-4.3,1.33-6-1.4-3.36.46-6.59.6-9.88.12-2.77,1.18-5.6,1.68-8.44.4-2.28.94-4.37.56-6.87a8.78,8.78,0,0,1,2.28-6.68A41.36,41.36,0,0,1,659,589.62Zm-85,50c0,1.44,0,2.43,0,3.43,0,.65-.2,1.56.45,1.76.34.1,1-.77,1.48-1.2s.71-1,.41-2c-.51-1.67-1.34-3.79,1.26-4.93.69-.3.32-1.13-.12-1.68s-.81-1.21-.11-1.67c.18-.12,1,.62,1.44,1a2.74,2.74,0,0,1,1.22,2.56,1.21,1.21,0,0,0,.36.82c.53-.09.57-.54.6-1,.09-1.14-.35-2.36.32-3.39a2.94,2.94,0,0,1,1.48-1.2c.76-.23,1.12.36,1.24,1.11a1.76,1.76,0,0,0,.5.83c1.06,1.07-.12,2.65.87,3.72a31.38,31.38,0,0,0,1.53-4.29,3.94,3.94,0,0,1,1.16-2.08c1.79-1.75,3.36-3.84,5.42-5.14s1.81-3.17,2.73-4.69c1-1.68-.38-1.94-.91-2.72a2.25,2.25,0,0,1-.31-1.9c1.33-4.5.87-9.11,1-13.69a1.76,1.76,0,0,1,.26-.91c.49-.66,1.41-1.22,1.47-1.89s-1.29-1.45-.44-2.09c2.1-1.58-2.35-1-.73-2.66.9-.91,1-2.63,1.4-4a2.49,2.49,0,0,0,0-1.48c-.86-2.21.08-4.2.56-6.28s-.87-4.27,1-6c.62-.57-.09-.82-.25-1.2-.55-1.29,0-2.5.1-3.76.17-2.1,1.18-4.52.38-6.22s1.09-2.89.15-4c-1.5-1.72.67-2.91.34-4.41-.08-.36.7-.54.37-1.21a11.5,11.5,0,0,1-.35-7.71c.55-2.39-.91-4.83.6-7.19.53-.83.1-2.27.1-3.44,0-1,.38-2.27-.1-2.94-.83-1.18-.12-2,0-3,0-.19-.3-.43-.47-.65-1.34,1.18-2.7-1.19-3.94-.05a4.46,4.46,0,0,1-4.24.77c-3.87-.88-7.44.6-11.14,1.1-1.54.2-2.49,1.33-2,2.79a12.24,12.24,0,0,1,.95,4.72c-.13,1.48-.61,3.44.11,4.39,1.18,1.55-.34,3,.55,4.32s-2.05,3,.21,4.32c-.46,3,1.83,5.74,1,8.63-.42,1.41,2.36,3.32-.69,4.16,1.1,1.23.43,3.23,1.94,4.31a1.46,1.46,0,0,1,.24,2.49,1.57,1.57,0,0,0-.32,1.84c1.25,1.6.12,3.4.51,4.81a22.29,22.29,0,0,1,.38,5.36c.15,2.83.11,5.66,0,8.49-.08,2.65.81,5.28,0,8a4.3,4.3,0,0,0,.36,2.37,26.35,26.35,0,0,1,.61,4.3c.21,1.47-2.15,2.9,0,4.39-1,1.63-.59,3.21,0,4.9a2.74,2.74,0,0,1-.7,2.73c-2.25,2.55-3.81,5.6-6.08,8.21C575.68,632.39,573,635.56,574,639.57ZM542.76,635c2.11-1.58,5.26-1.66,8-3.11,5.13-2.77,7.72-8,11.7-11.81a1,1,0,0,0,.27-.77c-.55-2.71.32-5.2,1.13-7.7-2.61-4.39,1.2-9.15-.79-13.59-.23-.53.09-1.23.33-1.88,1.19-3.13.84-6.67,2.53-9.7a1.5,1.5,0,0,0-.36-1.32c-2.25-2.46-1.42-6.5-4.38-8.61a.94.94,0,0,1,0-.92c1.46-1.42,0-1.92-.83-2.49-.33-.23-1-.12-1-.66,0-.16.83-.34,1.29-.39s1,0,1.16-.55c0-.18-.32-.64-.58-.74-2.2-.85-3.7-2.11-3.25-4.77a1,1,0,0,0-.44-.8c-1.94-.78-1.71-2.9-2.64-4.14-1.22-1.61-.73-3.88-2.42-5-.62-.43.05-2-1.15-1.48a2.79,2.79,0,0,0-1.06,2c1.87,1.81-.07,3.35-.2,5-.17,2.25-1.51,4.62.58,6.68.69.67-1,1.25,0,2,.6.45.11,1.14.1,1.73,0,2.51-1.83,5.07.14,7.53-2,1.78.63,4.27-.93,6.09-1.1,1.29-1.35,2.27.69,2.76.18,0,.44.69.34.8-1.27,1.55.09,3.69-.5,4.72-1.25,2.18.87,3.4.61,5.12-.14,1,.21,2.07-1.33,2.16-.42,0-.59.39-.37.63,1.69,1.85,0,3.35-.56,4.92-.21.58-.59.88-.15,1.63a4.33,4.33,0,0,1,.13,4.26c-1.79,2.75-.75,6.51-3.43,8.88a2,2,0,0,0-.23,1.85,1.8,1.8,0,0,1-.08,2.43,50.53,50.53,0,0,0-4,7.19C540.52,633.91,541.25,635,542.76,635Zm79.56,69.95c1.48.59-.35,1.12,0,1.93a2.86,2.86,0,0,1-1.74,3.83c-2.22.76-4.8,1.46-7,1a3.94,3.94,0,0,0-4.08,1.37c-.67.67-.65,1.28.33,1.91,3.24,2.08,7,2.37,10.57,2.94,3,.49,5.59,2.38,8.65,2.63,1.37,2.15,2.44.69,3.25-.42,1-1.4,2.29-2.91,2.56-4.53a8.48,8.48,0,0,1,1.77-3.88c1-1.28.31-3.05,1.26-4.6,1.48-2.42,2.32-5.24,3.44-7.88.16-.39.9-.89.19-1.14-2-.73-2.34-3.7-4-3.79-2.54-.12-2.91-2.23-4.39-3.22-1.3-.88-3.45-.4-4.05-2.51,0-.14-.71-.28-.72-.25-1.54,3.36-1.73.14-2.31-.52-.34-.39-.41-.56-1-.34-2.32.83-2.66,1.36-2.11,4.06.2,1-.6,2.29-.45,2.68.64,1.59-1.09,2.85-.23,4.39s1,2.32.75,2.62C621.83,702.31,622.83,703.68,622.32,704.92Zm-54.88-97.6a23.33,23.33,0,0,1,.59,6.33c-.06,1,.75,1.81,1.44,1.12,1-1,3.06-.14,3.37-1.47.64-2.76,2.23,1,2.9-.6.26-.61,2.16-1.11,0-1.77-1.06-.33-.51-1.4-.78-2.09-.91-2.35-.24-5.49-3.35-6.79-.31-.13-.67-1-.54-1.21,1.92-2.42-2.42-3.21-1.42-5.47.12-.28-1.47-.36-1.46.17,0,1-1.13,1.52-.54,3a7.37,7.37,0,0,1-.31,6.61C566.76,606.1,567.22,606.66,567.44,607.32Z"/><path class="c" d="M298.84,392c2.51-.28,4.49,1.32,6.79,1.23-.9,2.68,1.24,1.57,2.23,1.73,1.56.25,2.13,1.9,3.7,2.31,1.33.34,2.51,1.4,3.95,1.72.46.09,1.22.23,1.28.48.44,1.76,2.07,1.9,3.28,2.47a31.61,31.61,0,0,0,5.38,2c1.65.44,2.28,2.6,4.26,2.36.38-.05.69.94,1.14.17a1.05,1.05,0,0,0-.25-1.34c-.85-.75-1.39-2.08-2.65-2.08-2.43,0-3.19-2.14-4.66-3.36a.91.91,0,0,1,0-1.31c.17-.21.72-.4.84-.3,1.25,1.07,2.85.58,4.18,1s2.2,1.52,3.55.4c-1.37-.3-1.8-1.6-2.65-2.46a55.15,55.15,0,0,0-9.36-7.24c-3.68-2.39-6.63-5.9-10-8.76-.88-.75-.42-1.06,0-1.35.69-.45,1-2.06,2.19-1.12,2.08,1.59,4.39,3.05,6,5.07,1.94,2.49,4.55,3.78,7.06,5.34a10.55,10.55,0,0,1,3.6,2.91c1,1.45,3.11,2.33,4.9,3a5.49,5.49,0,0,1,2.39,1.58c3.31,4,7.79,6.63,11.35,10.31a4.25,4.25,0,0,0,1.12,1c.75.34,1.67.57,2.28-.16.75-.89-.09-1.5-.67-2-.82-.77-2.39-.69-2.71-1.91-.17-.68,1.05-1.81-.79-1.76-.87,0,.16-2.34-1.75-1.32-1,.56-1.53-.9-2.13-1.52a10.1,10.1,0,0,1-1.47-2.49c-.44-.86-.8-1.76-1.19-2.64-.18-.41-.15-.87-.92-.5-2.18,1-3.07-.21-3-2.16,0-1.75-.11-2.26-2-1.4-1.34.61-1.08-1.48-2.27-2-3.68-1.72-3.7-1.89-4.74-3.83a6.12,6.12,0,0,0-1.86-2.25c-4.92-3.32-8.92-7.68-13.08-11.81-2.36-2.34-4.47-4.93-7.09-7-.33-.26-.49-.7-1-.92-1.57-.7-3.2-1.24-3.38-3.52,0-.53-1.42-1.45-2.18-2.19s-2.45-.06-3-1.33c-.95-2.4-3.77-3.13-4.68-5.51-.32-.85-1.94-1.14-1.35-2.18.43-.76,1.85,0,2.7-.85s1,.41,1.45.75a8.78,8.78,0,0,1,2.06,2.16c.58,1,.79,2.56,1.53.11.12-.39.5-.34.67.12.87,2.52,3,3.75,5.1,5,1.25.72,2,2,3.45,2.71,1.1.54,1.12,2.7,3,2.87.22,0,.51.81.53,1.25a2.37,2.37,0,0,0,2.41,2.57c1.82.05,2.69,1.39,3.42,2.56,1,1.56,1.1,3.7,3.71,3.73.65,0,.38,1.13.52,1.74.08.34,0,1.21.82.58,1.39-1.08,1.54,0,2.41.91a131,131,0,0,0,9.44,9.86c.94.84,2.07-.87,2.2.41.17,1.58,3.05,1.15,2.21,3.38-.15.4.84,1.33,1.43,1.88q5.67,5.25,11.43,10.43c.17.16.67.27.73.19a2.44,2.44,0,0,0,.29-.9c.19-.92-.64-1.52-.76-2.23s1.1-1.17.55-2.14c-.19-.35-.89-.67-.34-1.14.37-.32.85-.19,1.34.08,1.71,1,3.45,1.79,4.28,3.8a5.37,5.37,0,0,0,1.87,2.24,15.05,15.05,0,0,1,4.46,5.43c.55,1,.7,2.19,1.77,2.89a1.35,1.35,0,0,0,1.37.15.87.87,0,0,0,.33-1.27c-1.27-1.49-.76-3.86-2.77-5.06a4.43,4.43,0,0,1-1.75-2.82c-.16-1-1.87-1.67-.66-3,.09-.1-.08-.67-.25-.74-2.58-1.18-2.71-4.07-3.76-6.1-1.3-2.54-2.89-5-4.07-7.59s-2.2-5.41-4.27-7.59c-.37-.39-.22-1.25-.36-1.88-.2-.85-1.71-1.63-.54-2.5,1.33-1,2.46-.05,3.39,1a3.89,3.89,0,0,1,1.22,2.07c.34,2.36,1.31,4.31,3.87,5.11.5.16,1.41,1,1,1.5-1.56,1.85.74,2.43.94,3.61a7.45,7.45,0,0,0,1.58,3.46c.77,1,1.46,2.12,2.21,3.19a25.76,25.76,0,0,1,3.38,6.83c.72,2.22,1,4.68,3.36,6a1.46,1.46,0,0,1,.58,1.21c-.26,1.72.65,2.58,1.91,3.48a1.88,1.88,0,0,1,.58,2.49c-.64,1,1.26.41,1.46,1.27a2.69,2.69,0,0,1-1,3.05c-.88.68-1.47.24-2.14-.35-.42-.38-1.37-1.11-1.37-.91.09,2.47-3.17.79-3.34,2.78a18.3,18.3,0,0,1-2.5,2.87c-1.62,1.66-3,3.55-5.83,3.1-.4-.07-.71.61-.62,1.15.41,2.56-1.06,4.18,1.5,4.73.48.1,1-.07,1.49.07,1.65.53,1,2,.87,2.94-.28,1.86-1.16-.18-1.58.09-2.26,1.44-1.29.18-3.24-.6a5.5,5.5,0,0,0-2.86-.44c-4.35.59-8.21-1.63-12.36-2.22-1.69-.24-3.1-2.31-5.31-1.83a1.16,1.16,0,0,1-1.54-.84,2.41,2.41,0,0,1,.95-2.64c.56-.42,1.1-.72,1.75-.21.13.1.24.23.38.32.69.43,1.13,1.95,2.23.51.18-.23.47-.65.4-.74a2.78,2.78,0,0,0-1.94-1.4c-1.42-.13-3.42.75-4.08-.91s-2.32.77-2.9-1.22c-.36-1.25-2.06.75-3.19.08-.88-.52-.74-2.59-2.35-1.89a3.77,3.77,0,0,1-5-1.29c-1.18-1.63-2.45.43-3.32-.33s-1.81-1.74-2.86-1.73c-2.8,0-4.78-1.83-7.18-2.66-2.56-.89-5.17-1.61-7.77-2.39-2-.58-4-.42-6-1.47a9.88,9.88,0,0,0-6.61-1.18c-.93.2-1.46-.66-2.2-.91a55.18,55.18,0,0,0-6.85-2.19c-1.79-.36-3.9-.54-5.25-2.13-.93-1.09-2.18-.51-3.24-.81-2.34-.65-3.21-2.67-2-4.24a3.11,3.11,0,0,1,1.13-.75c1.18-.64,1.79,1.44,3.09.39s1.62.14,1.94,1.15a1,1,0,0,0,.8.43c3.19-.48,5.53,1.56,8.2,2.64a36.84,36.84,0,0,0,7.31,2.2,26,26,0,0,1,6.9,2,2.07,2.07,0,0,0,2.33-.11c.65-.56,1-.4,1.59.13a4.91,4.91,0,0,0,4.05,1.62c1-.08,2.46,1,3.83,1.27a84.53,84.53,0,0,1,15.38,5.24,28.16,28.16,0,0,0,5.38,2,42.45,42.45,0,0,0,6,.45c-1.09-2.22-3.38-1.77-5.2-2.46a8.89,8.89,0,0,1-4.07-2.64c-2.12,1.31-2.74-1.41-4.39-1.66a9.51,9.51,0,0,1-4.26-2.19c-1.08-.89-2.31-1.08-3.42-1.63-1.83-.9-3.87-1.28-5.48-3-2.42-2.54-6.38-3-8.84-5.75-.35-.39-1.34-.21-1.21-1.16C297.26,391.66,298.3,392.13,298.84,392Z"/><path class="c" d="M361,440c-.51.37,1,2.37-1.23,1.46-1.26-.51-.48,1.21-1.28,1.5a9.94,9.94,0,0,0-3.46,1.67c-1.22,1.17-2.06-.92-3-.08s-1.75-.12-2.61-.24c-.61-.08-.61,1.18-1.26,1.79-2,1.83-4.66,0-6.52,1.7-1,.92-2.11-1.17-3.45.13a4.07,4.07,0,0,1-3.59,1.21c-.22,0-.51.44-.81.54-.94.29-3.58-.63-3.71-1.32-.24-1.21.79-1.77,1.5-2.37a14.53,14.53,0,0,1,7.53-2.91,58.31,58.31,0,0,0,10.68-2.55c2-.69,4.36.3,6.07-1.44.24-.26,1.12-.06.74-.74-.28-.52-1.28-1.27-1.39-1.18-2.57,2-5.53-.07-8.17.86-1.41.49-2.73-.31-4.07-.51-6.51-1-13.05-.19-19.57-.47-2.18-.09-4.37-.45-6.54-.33-1.17.06-1.46-.7-1.74-1.25-.46-.87.38-1.48,1-2A1.51,1.51,0,0,1,317,433c2.16,0,4.66.64,6.4-.22s3.61-.36,5.23-.5,4,1.31,5.59.52,3.45,1,4.7-.79c2.13,1.8,4.47-1,6.32.08,2.1,1.23,4.17.59,6.24.88,2.25.32,4.61-.72,6.8.64.3.18,1-.53,1.62-.6.77-.09,1.77-.32,2,.8a2,2,0,0,1-.57,2.27c-.92.65-1.9,1.21-2.81,1.87-.17.12-.15.5-.21.76.3.07.74.31.9.18C360.72,437.78,361.16,438.31,361,440Z"/><path class="c" d="M150.29,266a9,9,0,0,1-4.44-1.78c-2.9-2.76-6.37-4.7-9.42-7.21-2.25-1.86-5.13-2.59-7.29-5a12.34,12.34,0,0,0-7.44-4,1.11,1.11,0,0,1-.78-.58c-1.1-3-3.69-4.34-6.41-5.32-2.9-1-4.13-4.17-7-5.21a2.68,2.68,0,0,1-1.35-1.4,2.73,2.73,0,0,1,0-1.89,1.23,1.23,0,0,1,1.71-.5c1.6,1.09,4,.55,5.14,2.45l6.77,3.5c1,0,1.45.7,2,1.33,2.13,2.64,4.53,4.92,8,5.63,1.08.22,1,1.17,1.51,1.55,1.45,1.06,1.9,4.21,4.78,2.53,1.31.88,3,1.51,3.84,2.73,1,1.41,3.19,1.6,3.41,3.76.07.68,1.08.5,1.64,0s.84-.46,1.17,0c1.74,2.56,4.51,4.09,6.46,6.44a2.28,2.28,0,0,1,.37,2.33C152.53,266.26,151.45,266.18,150.29,266Z"/><path class="c" d="M196.55,296.19c2,1.57,5.47,0,6.54,3.27,3.15,1,4.77,4.2,7.64,5.38,1.67.69,1.16,3.05,2.87,3,1.45,0,2.47.76,3.66,1.21a3.15,3.15,0,0,1,1.84,2.15c.22.69,1,1.62,1.64,1.68,3.28.31,4.55,3,6.25,5.08.9,1.13,4.26,3.08,5.57,3.08.49,0,1.24-.06,1.26.47,0,1.77.65,2.48,2.58,2.7.91.1,1,2.43,2.44,2.72,1.69.33.19,1.19.38,1.57.41.82,2,.14,2.14.63a23.34,23.34,0,0,1,1.08,4.85c0,.21-.74.79-1.06.74-1.32-.22-.8-2.75-3.2-2.27-1.08.21-2.61-1.67-3.88-2.68s-1.78-3.68-4.46-2.87c-.4.12-.6-.59-.88-1-2.74-3.82-6.92-6.14-10.09-9.53-2.61.13-3-2.54-4.66-3.62s-3.67-1.71-5.31-3.21A125.7,125.7,0,0,0,197,300.08c-1-.69-1-1.59-1.54-2.33S196,296.6,196.55,296.19Z"/><path class="c" d="M196,321.37c-1.51.89-.4,2.93-1.65,3.44-.73.3-1.46,1.52-2.93.34-1.78-1.44-3.47-3.61-6.31-3.19-.89.13-.88-.68-1.2-1.24-.52-.89-1-2.22-2.51-.84-.48.44-1.25-.1-1.68-.65-1.47-1.89-3.66-2.64-5.67-3.71-.91-.49-2-.72-2.38-2.13a2,2,0,0,0-2.83-1.29c-1.27.71-1.78.18-2.83-.37s0-2.92-2.32-2.14c-1,.33-2.3-.7-3.25-1.6a15.29,15.29,0,0,0-3.15-2.13c-3.77-2.09-7.81-4-10.55-7.58-.51-.67-1.28-1.52-.28-2,.72-.35,1.62-1.59,2.46-.77,2,2,5.41,1.7,7.13,4.39.35.55.63,1.54,1.3,1.77.43.15,1.09-.48,1.68-.59s.77.36.95.88c.48,1.32,1,2.3,2.77,1.17.48-.31,1.76.5,2.61.93.68.34.3.73-.18.9s-1.24,1-.53.86c2.68-.6,3.39,2.05,5.25,2.61l5.51,1.65c.08,2.46,3.45,1.18,3.92,3.55.29,1.47,1.56,1.26,2.44.07.55-.75.93-.26,1.55.05,1.23.63-1,1.92.47,2.13.67.09,1.44-.76,2.19-.8,1.31-.08.63.6.33,1.17s.33.77.57,1.13c.77,1.14,2.25.17,3.16,1.12.55.56,1,2,2.27.79a2,2,0,0,0,2.5,1.12C195.1,320.35,195.58,321,196,321.37Z"/><path class="c" d="M122.16,287.15l-1.36-.79a133.47,133.47,0,0,0-13.5-7.26c-6.09-2.6-10.87-7.52-17.4-9.11-1.79-1.94-4.51-2.26-6.58-3.92s-5.22-2.32-7.52-4.1c-.66-.51-1.85-.63-1.28-2s1.12-2.24,2.83-2a5.53,5.53,0,0,1,2.16,1c3.27,2,6.4,4.76,10,5.58a24.75,24.75,0,0,1,8.22,3.65c3.37,2.26,7.7,3.29,10,7,.46.74.9.47,1.57.11,1.33-.71,2.45-.6,2.9,1.24s2.44.3,3.35,1.44a31.19,31.19,0,0,0,2.84,2.79c3-2.2,3.16,2,5.13,2.39.77.15.73,1.73.08,2.61A9.51,9.51,0,0,1,122.16,287.15Z"/><path class="c" d="M173.74,337.46a9.49,9.49,0,0,1,6.61,1.7A13.78,13.78,0,0,0,186.9,342c3.75.58,6.42,3.74,10.22,4.08,1.54,2.65,4.67,2.12,6.94,3.35s4.71,2,7,3.14c.83.43,2-.69,2.71.69.54,1.05,1.8.56,2.66.92,1,.43,1.94,1.21,3,1.63s1.84.67,1.61,2a2.35,2.35,0,0,1-2.24,2.22,4.32,4.32,0,0,1-2.39-.26,25.56,25.56,0,0,0-7.17-2.67,4.26,4.26,0,0,1-2.32-1.7c-.88-1.09-1.65-1.11-2.79-.41-.43.26-1.56.38-1.79-.32-.89-2.81-3.74-2.07-5.54-3.2s-4.09-.55-5.09-3c-.59-1.43-1.94,1.24-2.82-.08-1.34-2-3.44-2.09-5.5-2.65a21.51,21.51,0,0,1-9.89-5.76c-.46-.47-1.62-.7-1-1.84S173.92,337.5,173.74,337.46Z"/><path class="c" d="M194.85,398.67c3.13,1.95,7.14.43,10.54,2.18,1.09.57,2.08-1.3,2.4-.27.52,1.66,1.56,1.4,2.66,1.41s2,.16,2.8-.64c.47-.45.86.2,1.1.53.93,1.3,2.28,1,3.58,1.14s3-.56,4.29.62c.21.19.7.39.87.28,1.79-1.18,3.39-1.55,4.52.82,2.47-.91,4.3,1.62,6.67,1.25.93-.14,1.49.56,2.23.83,1.31.48,2.55,1,2.35,2.6-.09.77-3.64,1.13-4.49.42s-1.59-1.25-2.49-.2c-1.13,1.33-2.23,2-3.56.2a1.47,1.47,0,0,0-2.5-.22,21.34,21.34,0,0,1-4.81-1.85c-.32-.5-.51-.48-1-.27a8.07,8.07,0,0,1-7.85-.95,3.77,3.77,0,0,0-2.33-.55c-3.07,0-6.25.54-9-1.61-.72-.57-1,.6-1.61.59-.78,0-1.82.32-2.12-.71-.4-1.32-1-1.56-2.08-.77-.87.63-2.18,1-2.62.1-.6-1.2-1.59-2-2.19-3.16-.08-.14.59-.73,1-1.05C192.18,398.52,193.43,399.36,194.85,398.67Z"/><path class="c" d="M280.82,340a2.57,2.57,0,0,1-2.11-.76c-3.55-3.28-7.2-6.44-10.7-9.76a151.81,151.81,0,0,0-12.82-10.93c-3.45-2.6-6.53-5.7-9.74-8.62-.71-.65-1.55-1.25-1.48-2.45.07-1,.58-1.87,1.43-1.35,1.71,1.06,3.65,1.2,5.43,1.89.3.11.79.16.85.35,1.41,4.38,7,4.81,8.61,9.11.33.87,2,1.5,3.12,2.17.44.28,1.74-.95,1.71.83,2.59-.24,1,4.51,4.18,3.54,1.68,1.61,3.33,3.25,5.06,4.81,1.58,1.42,3,3,4.72,4.32a10.59,10.59,0,0,1,3.16,5.15C282.94,340.43,282.11,340,280.82,340Z"/><path class="c" d="M205.54,376a30.9,30.9,0,0,1,4.2.83c6.34,1.06,11.9,4.74,18.37,5.19,2.53,1.85,5.75,1.87,8.48,3.19.58.28,1,.81,1.74.81,1,0,2-.32,2.8.59.51.6,1.75.16,1.85,1.33.16,2,1.57-.49,2,.56s2.46,1.16,1.37,2.52c-.74.92-1.33,2.62-3.52,1.49-3.81-1.95-8.32-2.35-12-4.62-1.62-1-3.15.82-4.77-.74-1.26-1.23-3.72-1.14-5.19-2.25s-3.45-.6-5.1-1.4a21.08,21.08,0,0,0-5-1.58c-2.79-.55-5.71-1.15-7.8-3.41-.42-.47-1.12-.82-.94-1.63.26-1.17,1.23-.81,2-.87C204.54,376,205,376,205.54,376Z"/><path class="c" d="M266.53,365.81c1.59-1.29,2.74.38,4,.55s2.05,2,3.84,1.78c1-.11,1.35,2.63,3.09,1a1.93,1.93,0,0,1,.73.57c2.22,3,5.87,3.87,8.86,5.71a17.74,17.74,0,0,1,4.5,3.73c.75.93.86,2.86,2.69,1.14.1-.09.6.06.75.23a18.92,18.92,0,0,0,9.37,5.58c1.4.4,2.14,2.83,1.49,4.26-.14.31-1,.66-1.2.52-3.18-2.53-8.17-1.44-10.64-5.34-4.3-1.54-7.13-5.6-11.64-6.82-.57-.16-1-.84-1.48-1.31a13.51,13.51,0,0,0-4.42-2.77c-3.66-1.6-7-4-10.39-6.11a2.09,2.09,0,0,1-1-1.1,3,3,0,0,1,0-1.9C265.68,364.53,266.09,366.1,266.53,365.81Z"/><path class="c" d="M284,311.36c0,.5,0,1,0,1.5a.94.94,0,0,1-.78,1.07c-.62.11-1.59.37-1.84-.27-1.1-2.84-4.36-4.05-5.2-7.05a3.08,3.08,0,0,0-.84-1.7c-3.12-2-3.49-6.22-6.8-8.2-1.36-.8-1.79-3-2.69-4.5-2.35-4-4.29-8.22-6.46-12.33A2.94,2.94,0,0,1,259,278c0-.3.22-.72.45-.81.42-.16,1-.31,1.3.24s.37,1.26.56,1.27c.82,0,1.51-1.35,2.48-.24-1.37,1.38.29,1.86.78,2.71a18.53,18.53,0,0,1,1.35,2.57c.23.59,0,1.4.36,1.87s.88-.86,1.52-.23c.35.35,1,1,1,1.05-1.36,1.4.14,2,.81,2.67a26.84,26.84,0,0,1,4.35,5.3c.95,1.7,1.69,3.49,3.49,4.82,1.57,1.15,2.14,3.56,3.49,5.14,1.2,1.4.87,3.74,3,4.6C284.24,309.08,284,310.52,284,311.36Z"/><path class="c" d="M80.73,294.55c1.58.3,3.51,0,4.58,1.37a7.81,7.81,0,0,0,5,2.68c2.45.49,4.15,2.29,6.49,3,1.26.37,2.34,1.64,4,1.45,1-.12,1.43.73,2,1.28.9.87,1.66,2.11,3.12.77.12-.11.65.08.87.27,2.58,2.32,6.66,2.6,8.35,6.13a1,1,0,0,0,1.28.43c1.62-1.36,2.67.22,3.7.82,1.88,1.09,2.87,3.08,3.81,5a.89.89,0,0,1-.57,1.19c-.61.11-1.81,0-1.84-.15-.39-2.24-2.57-1.62-3.82-2.41-2.28-1.43-5.15-1.73-7.07-4-1.09-1.31-3.2-1.06-4.81-1.74-3.4-1.42-6.17-3.9-9.7-5.07s-6.61-3.24-10-4.72c-2.4-1-5.51-1.92-6.75-4.95C78.88,294.67,78.8,294.7,80.73,294.55Z"/><path class="c" d="M256.49,340c1.84.36,3.65,1.81,5.24,3.34A33.78,33.78,0,0,0,268,348a51.15,51.15,0,0,1,10.86,8.48c1.18,1.24,2.75,1.72,4,2.77.87.73,2,2.24,3.68,1a4.6,4.6,0,0,1,1.05,1c1.33,1.58,2.05,3.63,4.69,4,1.66.22,1.9,2.8,3.59,3.58.22.1,0,.9-.48,1.22-1.75,1.18-2.55,1.07-4.22-.2-2.57-2-5.37-3.65-7.84-5.72-5.64-4.74-12.6-7.62-17.84-12.92-1.2-1.2-3.41-1.54-4.33-2.86a10.51,10.51,0,0,0-3.82-3.56,4.18,4.18,0,0,1-2.43-3c-.07-.45-.84-1-.72-1.22C254.55,339.82,255.34,340,256.49,340Z"/><path class="c" d="M241,367.13c1.7.63,4.2.07,5.85,2.12,1.25,1.55,3,2.17,4.94,2.86a31.52,31.52,0,0,1,8.37,4.5c.64.49,1,1.46,2,1.35,4-.47,6.21,2.08,8.19,4.83,1,1.34,2.37.9,3.45,1.53.41.24,1.06.81,1,1a2.37,2.37,0,0,1-1.11,1.4c-2.54.88-4.87-.28-6.78-1.56a59.37,59.37,0,0,0-10-5.76c-2.9-1.21-5.45-3.4-8.81-3.45-1-1.51-2.78-1.75-4.07-2.7-1.59-1.18-2.8-2.65-5.13-2.38C238,371,237,370,237,368.8c0-.91-.3-2.19,1.44-1.07C238.85,368,239.67,366.74,241,367.13Z"/><path class="c" d="M342.87,358.81c.41,2.19-1,2-1.67,2.57s-1.23.37-1.53-.25c-1.43-3-4.65-5-5-8.7-.06-.58,1.14-2.65-1.14-2.56.48-1.32-.37-2.05-1-3.05-1.15-1.74-2.6-3.58-3.11-5.37-.57-2.05-1.95-3.74-2.23-5.67s-2.33-2.72-2.58-4.61c-.06-.54-1-.91-1.26-1.48-.78-1.59-1.81-3.17-1.19-5.06.1-.31.79-.58,1.21-.59,1.31-.05,4.68,2.43,4.56,3.89-.22,2.87,2.45,4.22,2.85,6.51.46,2.55,1.87,4.41,3.26,6.37,1.94,2.73,2.5,6.08,4,9,1.09,2.11,1.34,4.59,3.45,6.25C342.34,356.79,342.61,358.29,342.87,358.81Z"/><path class="c" d="M292.65,439.06c-2.64-.77-5.15-.16-7.75.4-1.39.3-3-.33-4.54-.57-1.72-.27-3.05,2.16-5,.29-1.34-1.31-3.18,1-4.87,0-.92-.55-1.43.54-2.15.74-3,.85-5.65-1.53-8.64-.94-.11,0-.39-.18-.39-.26,0-.93.91-1.61.7-2.64-.07-.32.14-1.28.69-.68,1.49,1.61,2.94-.37,4.39.16,2.09.75,4.15,1,5.81-1,.38-.46.76-.37,1.18,0,1.19,1.05,2.82,0,4.22,1,.63.42,2.23-.58,3.53-.6,1.79,0,3.58-.95,4.9,1.24.79,1.29.9.09,1.39-.53s1.61-1.61,2.76-1.17,2-.5,2.92-.93c1.35-.64,2.15.41,2.91.88,1.06.66,1.4-.33,2.08-.4a2.56,2.56,0,0,1,3.17,2.25c.11.66,0,1.68-.68,1.61C297,437.64,295,439.55,292.65,439.06Z"/><path class="c" d="M381.18,416.1c-.22.74-.22,1.39-.53,1.62-.79.58-.23.14-1.62.18s-1.39-1.47-1.58-2.12c-1.25-4.44-3.39-6.58-3.6-11.39-.13-2.85-1.76-5.6-1.21-8.69a3.23,3.23,0,0,0-1.06-2.48c-1.4-1.25-1.55-2.25,0-3.39.4-.29.35-.66-.14-.71-1.91-.17-.71-.95-.55-1.82.24-1.31.21-3,1.73-2.91a3.16,3.16,0,0,1,2.35,2.88c0,1.15.77,2.37.73,3.22-.2,5,3.42,9.26,2.32,14.32a2.47,2.47,0,0,0,.55,2.32C381,409.76,378.87,413.62,381.18,416.1Z"/><path class="c" d="M211,333c1.89,1.11,4.3,1.08,6.1,2.54s3.33,3.76,6.28,3.55c.5,0,1.2,1,1.59,1.72.24.42.37,1.11.81,1.06,3.87-.43,5.17,3,7.52,4.87.55.44,1,1.28.54,1.66-.76.59-1.92,1.85-2.75,1-1.34-1.39-2.87-1.24-4.46-1.54-2.91-.55-5.07-2.67-7.37-4.32-1.73-1.25-4.15-1.94-4.79-4.53-.21-.84-1.11-1.07-1.9-.25,0,0-.68-.55-1.07-.8-1-.61,1-1.39-.09-1.89-.58-.26-1.34-.22-1.36-1.09S209.73,333.3,211,333Z"/><path class="c" d="M196,262a11.56,11.56,0,0,1,3,1.51c1.47,1.3,3.16,2.49,4,4.34.28.63.54,1.33,1.08,1.58,4,1.87,5.87,6.09,9.31,8.59a4.11,4.11,0,0,1,1.59,1.79c.25.84.33,1.82-1.14,2.21-2.5.65-3,.8-4.36-1.22-2.22-3.34-5.23-6-8.08-8.66-2.39-2.2-4.07-5-6.62-7a2,2,0,0,1-.74-1.75C194,262.45,194.43,261.94,196,262Z"/><path class="c" d="M309.09,341.54a2.55,2.55,0,0,1-1.2,2.06c-.6.47-1.12.15-1.76.08-1.82-.21.86-3-1.83-2.77-1.71.15-2.11-1.41-2.44-3.05-.22-1.12-1.53-2.08-2.48-3s.33-2.41-1.32-2.89c-1.42-.42-1.76-2-1.95-3.06-.24-1.4-.37-1.79-1.83-1.28-.43.15-2.45-4.51-2.19-5.07a1.17,1.17,0,0,1,.77-.54,2.43,2.43,0,0,1,2.29.59c2.67,2.71,5.74,4.93,7.13,8.87,1,3,2.5,6.13,5.82,7.5C309.2,339.45,308.91,340.26,309.09,341.54Z"/><path class="c" d="M302,418c.82.07,1.34,1.25,2.53.2.89-.79,2.09-1,3.65.18s4.2,1,6.37,1.4c.34,0,.91-.84,1.13-.41,1.6,3.18,5.66.63,7.44,3.27.31.46,1.18.92,0,1.32s-2.23,1.56-3.67,1c-2.12-.79-4.22-1.77-6.38-.06-.14.11-.72-.06-.86-.26-1-1.45-2.23-1.41-3.61-.71-1.3-2.41-3.83-1.26-5.74-1.81a3.34,3.34,0,0,1-2.32-2c-.33-.58-.85-1.07-.39-1.74S301.39,418,302,418Z"/><path class="c" d="M282.22,465.64c-2-1.58-2.92.51-4.08.95-1.55.59-2.24.08-2.81-.91s-.83-2,.76-2.73c3.08-1.38,5.87-3.52,9.54-3,1.87.29,3.4-.89,5-1.4,1.35-.43,2.4-.92,3.57.1.56.47,1.4-1.34,1.72.18a1.92,1.92,0,0,1-.7,2.14c-1.31,1.05-2.46,2.14-4.21,2.5C288,464.13,285,465,282.22,465.64Z"/><path class="c" d="M318,316.29c-.27.34-.56.73-.87,1.1-.66.77-1.2.21-1.5-.3-.91-1.61-3.84-2-2.86-4.76a5.66,5.66,0,0,1-2.11-5.39c.18-1-.4-1.16-.76-1.5a15.42,15.42,0,0,1-3.57-4.62c-.29-.62-1.56-.78-.77-1.9s.77-2.59,2.36-2.86c.27,0,.59.19.88.3-1.64,3.54,2.74,3,3.56,5.13.91,2.36,1.74,4.8,2.82,7.13,1,2.15,1.73,4.44,2.56,6.67C317.83,315.59,317.88,315.9,318,316.29Z"/><path class="c" d="M188.46,376.91c-1.07-1.43-2.94-.52-4-1.89s-2.93-1.75-4.77-2.1a12.63,12.63,0,0,1-7.11-3.88c-.91-1-.66-1.83.65-2,1.13-.15,2.26.06,3.26-.83.51-.46,1.12-.12,1.53.6.83,1.46,1.83,2.6,3.71,1.24a1.51,1.51,0,0,1,1.43,0c1.85,2.17,4.73,2.7,6.83,4.43.61.51,1.46,1.16.85,2A18.19,18.19,0,0,1,188.46,376.91Z"/><path class="c" d="M371.39,368.15c-.43.64.26.84.39,1.24.3.95.63,2.23-.55,2.47s-2.65,1-3.26-1-3.1-3.54-1.33-6.19c.38-.57-.39-1.87-.76-2.54-1.37-2.53-.72-5.15-.87-7.72-.08-1.52,1.11-1.69,2-1.33a4.3,4.3,0,0,1,3.06,4c.16,3.19.33,6.42,1.78,9.39A1.4,1.4,0,0,1,371.39,368.15Z"/><path d="M516,404c1.83.93,4.68.2,6.72,2.14a2.06,2.06,0,0,0,1.7.82,2.28,2.28,0,0,1,2.39,1.44,13.22,13.22,0,0,1,1,3.14c.41,1.73-3,3.47-4.25,2.12-3.42-3.58-7.86-5.1-12.3-6.62-1.56-.53-.78-1-.2-1.49s1.24-.46,1.69-.87C513.5,404,514.44,404,516,404Z"/><path d="M529.57,435.11c1.19-.15,1.49.54,2,.95s0,.87-.26,1.14c-1.91,1.73-1.62,3.8-.72,5.8.52,1.17.75,2.11-.19,3.13s-2.27,1.33-3.46.28c-.93-.81-2.13-.35-3.21-1-1.7-1-2.76-1.79-2.8-4s1.34-2.94,2.92-3.93c1.06-.67,2.23-.18,3.21-1S530,437.67,529.57,435.11Z"/><path class="c" d="M172.09,277a5.6,5.6,0,0,1,.85.42c4.21,2.93,7.71,6.65,11.28,10.28,1.07,1.09.73,2.81-.71,3-1.19.18-2.55,1.09-3.74-1-.93-1.61-3.5-2.2-4.08-4.47-1.89,1.21-1.93-.8-2.29-1.56-.52-1.1-1.24-.88-2.09-1.19-2.29-.83-2.22-3.59-.1-5.19A3,3,0,0,1,172.09,277Z"/><path class="c" d="M143.37,354c1.3-.38,2,.87,3.19,1.08,2.33.42,4.38,2.21,6.54,2.68a25.57,25.57,0,0,1,6.85,2.17,8.14,8.14,0,0,1,1.58,1.11c.34.31.36.57,0,.76-.14.08-.35.19-.44.14-1.25-.76-1.8-.4-2.79.78-.68.8-2.74.46-4.2-.09-1.81-.68-3.18-2.65-5.48-1.88-1.34-1.5-3.41-1.56-5-2.52-.55-.33-1.3-.43-1.7-.87-.59-.66-2-1-1.53-2.15S142.15,353.83,143.37,354Z"/><path class="c" d="M232.59,295.9c-.46.47-.42.89.16,1.06,2.2.62.45,1.45,0,1.68-1.85.89-4.59.36-5.58-1.45a20,20,0,0,0-5-5.59,4.68,4.68,0,0,1-.69-.72c-1.15-1.55-1.8-5.41-1.2-5.36a7,7,0,0,1,5,2.09,15.75,15.75,0,0,0,4,3.57c1.22.67.85,3.3,3.35,3.14C233.19,294.28,233,295.37,232.59,295.9Z"/><path class="c" d="M157.19,332.55c-1.42-.54-3.11,1.64-4.3-.22-.8-1.26-2.68-1-3.19-2.82-.2-.71-1.84-1.27-2.9-1.44-2.05-.33-3.48-1.46-3.71-3.34S142,323.05,140.8,323c-.53,0-.73-.5-.28-1,.23-.24.5-.65.73-.64.41,0,.79.35,1.21.46a20.37,20.37,0,0,1,8.08,4c1,.76,2.44,1,3.44,1.73s1.25-.91,2.06-.09c1,1,1,2.85,2.81,3.14a3.32,3.32,0,0,1,0,1.82C158.51,333.17,157.79,333.05,157.19,332.55Z"/><path class="c" d="M262.83,412.49c-.08.6-3,2.51-3.53,2.17-1.86-1.21-3.85-.38-5.75-.66-.47-.07-1.13-.1-1.34-.4-1.25-1.79-3.07-1.63-4.88-1.62-.71,0-1.24-.21-1.32-1.07-.22-2.21,2.54-4.62,4.51-3.7,2.83,1.31,5.5,2.6,8.86,2.25C260.43,409.35,261.7,411.45,262.83,412.49Z"/><path class="c" d="M342.5,383.72a19.52,19.52,0,0,1-1.89,1c-.95.41-2.2.59-2.64-.39-.79-1.78-2.68-2.83-3-4.87-.07-.47-.11-1.12-.42-1.34-3.09-2.15-2.81-6-4.49-8.84-.12-.2,0-.63.15-.91s.51-.29.74.08a5.6,5.6,0,0,0,3.23,2.07,3.59,3.59,0,0,1,2.42,2.7,12.93,12.93,0,0,0,3.48,6.16C341.25,380.65,340.4,382.44,342.5,383.72Z"/><path class="c" d="M325,361.26c0,.65.08,1.41-.69,1.62s-.95-.62-1.38-.9c-4.35-2.85-6.74-7.18-9.09-11.55-.42-.78-1.89-1.1-1.34-2.16.23-.46,1.45-.41,2.23-.57.38-.08.62-.94,1.15-.19,2.76,3.89,7,6.61,8.64,11.42A7.08,7.08,0,0,1,325,361.26Z"/><path class="c" d="M307.06,451.53c1.65.27,3-1.86,4.81-.93.56-2,2.45-.44,3.44-1.33,1.85-1.66,3.88.06,5.82-.23.39-.05.92.31.4.91a13.8,13.8,0,0,1-7,3.95c-1.82-1.94-1.31,1.32-2.59,1.17a10.13,10.13,0,0,0-4.31.46c-.89.28-2.17.4-3.25.7-.39.1-.69.88-1.12.32a1.84,1.84,0,0,1-.21-1.39c.35-1.47,2.4-1.85,2.31-3.76C305.32,450.81,306.41,451,307.06,451.53Z"/><path class="c" d="M276.59,413c1.78.23,3.47-.45,4.93.83.39.34,1.25.21,1.9.2,3.18-.05,3.19-.07,4.66,1.6.28.32.69.94.59,1.09-.37.51-1.12,1.31-1.4,1.2a4.45,4.45,0,0,0-3.47,0c-1.17.42-2.65-.11-3.92.13-2.85.55-4.95-1.2-7.29-2.18-.95-.39-.56-1.27,0-2C273.81,412.39,275.41,413.3,276.59,413Z"/><path d="M554.2,411.93a8.34,8.34,0,0,0,1.42,1c.69.31,2-.24,2.09.59a3.28,3.28,0,0,1-1.38,2.39c-3,2-6.55,2.33-9.94,3a3,3,0,0,1-3.36-2c-.49-1.88,1.56-1.68,2.25-2.59.92-1.21,2.08,1.59,2.66-.14s1.84-1.11,2.82-1.06C552,413.11,552.89,412.43,554.2,411.93Z"/><path class="c" d="M365.65,340.59a4.65,4.65,0,0,0-.6,1.42c-.13,1,0,2-1.47,2a2.55,2.55,0,0,1-2.54-1.9,3,3,0,0,1,0-1.48,11.47,11.47,0,0,0-1.14-6.59c-.59-1.28,0-2.51-.72-3.77s1.15-1.14,1.8-1.71c1-.89,1.6.29,1.75.8C363.75,333,364.65,336.71,365.65,340.59Z"/><path class="c" d="M234.94,438c.34-.05,1.16.1,1.59-.25,1.81-1.41,3.86-.49,5.77-.76a3.18,3.18,0,0,1,4,2.69c.09.39.95.71.24,1.13a.91.91,0,0,1-1.46-.69c-.15-.88-.59-1.24-1.16-.47-1.06,1.46-2.51,1.34-4,1.36-1,0-2-.28-2.85.45a2.33,2.33,0,0,1-3.16,0,2.14,2.14,0,0,0-2.73,0c-1.1.85-1.42-.22-1.84-.73-.71-.87-.07-1.67.62-2C231.37,437.89,232.87,436.91,234.94,438Z"/><path class="c" d="M245.33,352.19c.53.26,1.08.49,1.58.8,2.29,1.43,4.58,2.88,6.85,4.34.28.17.63.4.7.67.3,1.08,1.93,1.93.76,3.24s-2.18,1-3.45.07c-2.22-1.54-4.53-3-6.89-4.29a11.2,11.2,0,0,1-2.54-2.25,1,1,0,0,1,.24-1.62C243.44,352.78,244.56,353.18,245.33,352.19Z"/><path d="M533,454.09a2.32,2.32,0,0,1-2,1.86c-1.27.09-3,.94-3.54.64-1.47-.78-2.89-.35-4.29-.62-1-.2-3.2-3.75-3.11-5,0-.55.62-1.14.83-.9,1.21,1.4,3.38-.62,4.52,1.45a2.19,2.19,0,0,0,3.22.61c1.41-1,2.62.77,4,1.09C532.76,453.3,532.83,453.8,533,454.09Z"/><path class="f" d="M371.59,442c-1.72.45-3.45-.57-5.31-.94-1.29-.25-2.16-.85-2.25-2.11-.19-2.51-1.85,1.63-2.34-.56-.12-.53-1.72-.8-2-2.08-.19-.94-2.5-1.31-.77-2.84-3.11-1.1-2.15-4.39-3.47-6.46-.87-1.37-.55-2.89-.39-4.28s.76-.12,1.21.06,2,.36,1.27-.5c-2.54-2.83,1.83-3,1.54-4.86,1.72-.33,2.68-1.71,3.81-2.83.7-.68,1.37-.88,2.06-.09.41.47.76.47,1.06,0,1.06-1.72,2.75-1.43,4.39-1.48,2.42-.06,4.57,1.71,7.07,1a23.12,23.12,0,0,1,8.41,8.4c-1.54,1.25.87,2.5.06,3.6s.16,2.38-.09,3.15c-1.06,3.22-1.41,6.79-4.55,9.12C378.45,440.41,375.66,442.37,371.59,442ZM381,427.1c0-.67,0-1.33,0-2-.05-4.22-2.81-6.84-6.92-7.17-2.76-.22-4.85,1.08-7.17,2s-4.8,1.74-6.34,4c-.25.37-.65,1.1-.53,1.22,1.6,1.61.58,3.74,1.15,5.53,2.32.07,1.77,1.81,1.8,3.16,0,.81.46.9,1.12,1.2a18,18,0,0,0,7.18,2c2.74.06,4.6-1.82,6.9-2.66,1.92-.7,2.43-2.18,2.77-3.8A17.55,17.55,0,0,0,381,427.1Z"/><path class="f" d="M638,685.41c.07-1-.22-1.9.61-2.51s.07-.79-.31-.88c-1.07-.26-2.33.52-3.27-.53-.43-.48-1.09-.18-1,.06,1,1.68-2.13,2.7-.63,4.45.33.38-.65,2.86-1,3s-1.2.13-1.27-.41a19,19,0,0,1-.09-3.46c0-.89-1.53-1.52-.12-2.77.68-.61-2.22-2.59-3.68-2a10.08,10.08,0,0,1-1.72.67c-2,.47-1.22-1.54-2-2.14s.27-1,.54-1.36c.56-.81,1.76-.53,2.44-1.39.36-.45,1.09-.17,1.58.46a2,2,0,0,0,3,0c.55-.59.82-2.46,2.42-.86.33.33.72-1,.4-1.35s-1.54-.46-1.57-.75c-.15-1.38-1.15-1.66-2.14-2.05.61-.7,1.21-1.41,1.81-2.11.88-1,.93-1,1.22-3.83.07-.68.33-.69.81-.71.8,0,1.39-.58.41-.89-.83-.26-1.38-1-2-1-1.15,0-2.09-.78-3-.77-.71,0-1.53,1.19-2.09,2-.77,1.09,0,3.21,1.86,4.63.69.52.71.43.34,1.19a12.87,12.87,0,0,1-4.55,5.53c-.37.25-.5.45-.73,0-.07-.13-.2-.31-.16-.42.51-1.4,1.53-2.78,0-4.17,1.65-2.35.45-5.13,1.17-7.52a3.46,3.46,0,0,0-.07-2.24c-.21-1-.58-2.27.35-3.28a2.09,2.09,0,0,0,0-3c-.87-1,.93-1.35.57-2.4-.44-1.28.39-1.7,1.63-1.61s2.33,0,3.49,0c3.28-.06,3.38-.15,3.83-3.54,0-.32-.11-.74,0-1,.58-.84,1.52-.54,2.27-.44a.91.91,0,0,1,.56,1.49c-1.91,1.66-.35,2.5.71,3.44.19.17.84-.06.92.09.33.63,1.7.73,1.14,1.72-.43.76-.92,1.38-2.16.38-1.08-.86-2.61,1.11-2.37,1.53,1.35,2.37-.64,4.51-.1,6.73.05.18.4.35.64.4.65.12-.09.15.32-.36s-.43-1.42.72-1.2c.2,0,.19.88.39,1.28.1.21,3.84-1,3.88-1.31.28-2.29,3.18-2.24,3.74-4.24l1.29.5c-1.91,1-.13,4-1.44,4.24-3,.57-.4,1.8-.45,2.5-.06,1,.4.74.93,0,1.24-1.78,3-1.61,3.91.29a1,1,0,0,1-.71,1.52c-1.76.6-3.39,1.79-5.36.42-.61-.42-1.26.22-.83.74,1.36,1.68-.26,2.71-.73,3.92-.26.67-.55,1.18,0,1.68.09.08.67-.43,1-.67a13.43,13.43,0,0,0,2.43,3.28c.21.19.13.93-.06,1.3a.88.88,0,0,1-1.28.22c-1-1.37-1.59-.46-2.13.28a13.7,13.7,0,0,0-1.33,2.44,1.19,1.19,0,0,0,.08.94c.47.75.69-.1,1-.2,2.37-.7,2.78-.5,3.74,2,.32.87.16,1.62-1,1.59h-1.5c-1.4,0-1.83.66-1,1.78.52.72,1.13,1.31.28,2.07s-1.35,1.95-2.6,2.13c-1,.15-1.5-.8-1.84-1.41A5.08,5.08,0,0,1,638,685.41Z"/><path class="f" d="M632,623c-.61-1.94-2.2-.62-3.29-1a1,1,0,0,1-.62-1.53c.54-.78,2.11-.41,2.12-2.08,0-.73.69,0,.77.33.36,1.73,1.59,1.9,3.06,2.43s2,.14,3.05-.62c1.37-1,.44-2.51,1.34-3.49s-1.73-2.57.45-3.52a5.36,5.36,0,0,0-1-.56c-1.46-.7-2.63,2.43-4.35.25-.26-.33-.35,1.21-.48,1.89s-.34.84-.91.9a.9.9,0,0,1-1.09-.7c-.1-.48.11-1,0-1.48a8.11,8.11,0,0,1,1-5.37,34.27,34.27,0,0,1,2.35-5.46c1.55-2.4-.16-3.52-1-2.67-.38.36,1,1.22-.12,2.13-.73.59.18,1.43.78,2a8.14,8.14,0,0,0-1.91,1.1,1.59,1.59,0,0,0,0,1.43c.3.57,0,.23.42,0,.83-.48,1.35-1.7,1.62.42.14,1.17,1.89,1.58,2,3.16.08.85,1.51.62,2.18.41s1.05-1,1.56-1.57c-1.38-1.27-1.33-2.52,0-3.76-1.31-1.31-.9-3-.88-4.53,0-1.78-2.18-.57-4.71,1.93-4.4,3.17-3.52,1.15-3,.39,1.25-1.83.77-2.95-.6-4.19-.34-.31-1-.61-.68-1.18s-1-3.19,1.39-1.15c.06,0,.44-.31.68-.47,1.54-1,2.93-1,3.8.52.51.92,1,1.45,1.66.92A15.47,15.47,0,0,1,641.3,596c1.51,2.06,4.12.08,5.81,1.59s2.29-1.42,3.74-.94c.11-.62-1.4-1-.25-1.78.78-.55,0-.84-.34-.83-.77,0-1.12-.52-1.64-.89-.74-.53-2.42.39-2.4-.71,0-.86,1.34-1.74,2.73-1.46.64.13,1.46-.22,2,.06,1.58.89,2.55-2.18,3.89-.64,1,1.18-1,2-.89,3.47a18.06,18.06,0,0,0,1.07,5.72,2.72,2.72,0,0,1,0,1c0,.65.09,1.33-.86,1.43a1,1,0,0,1-1.14-.66c-.19-.41.37-1.47-.78-1-.26.11-.18.89-.4,1.28-.12.21-.54.25-2.55,5.37-1.41,5-1.07,5-.75,5,1.61.09,1.5-.24.65-1.47a2.13,2.13,0,0,1,.78-3c-.86-.7-1-1.4,0-2.11-1.83-.92-.06-2.4.14-2.56,1.7-1.36.23-2.62-.48-2.64-1.53,0-2.65-.94-4-1.3s-1.74,1.42-3.08,1.11c-1.17-.27-1.87-.11-.73,1.37a3.21,3.21,0,0,1,.15,4c-1.18,1.63-1.58,3.1-.27,4.79.17.22,1.31,1.28,1.45,1.15.58-.53,1.21-.6,1.69,0,.77,1,1.78.55,4.45-4.35,2.68-4,2.05-3,1.86-1.82-.14.86,1.58,2.25.79,3-1.52,1.37.24,2.18.11,3.26-.19,1.65.49,2.25,2,1.1,1.69-1.34,2.25.25,3,1.16.25.3,0,1.31-.4,1.22-2.36-.48-4.24,1.61-6.56,1.11-.89-2.94-3.34-1.91-5.26-2-3.61-.1-3.62,0-3.74,3.4a6.58,6.58,0,0,1,0,1.94c-.29.8-1.57,1.26-.67,2.43a3.09,3.09,0,0,0,3,1.23.74.74,0,0,1,.76,1,18,18,0,0,0-3,1.16c-1.45.53-2.61.63-2.88-.72-.33-1.69-.43-1.12-1.59-.61C635.11,624.43,633.7,622.44,632,623Z"/><path class="f" d="M650,616c-.2,1,2.16,1.57.6,2.91-.71.6-.65,1,.35,1.09,1.68.12,1.06,1.45,1,2.23-.11,1.24-1.26.61-2,.78a5.15,5.15,0,0,0-.85.36,3.73,3.73,0,0,0,.45.69c1.07,1.06,2.15,1.83,3.84,1.12.5-.21,1.09.82,2,.91s.86,1.78.08,1.81c-1,0-2.14,1.76-3.1,0s-2,.07-2.68.26c-1.59.42.36.92.31,1.56a44.36,44.36,0,0,1-.23,4.91c-.12.65-1.24,1.2-.58,2s1.55.22,2.34.33c.49.06,1,0,1.49,0a1,1,0,0,1,.73,1.72c-.71,1-1.22,1-2.77-.21a3.19,3.19,0,0,0-.7-.32c.17,1.88-2.24,2.28-2.3,4,0,.63.2,1.39-.52,1.74s.16.07-.32-.36c-.68-.59-1.45-1.07-1-2.41.64-1.74-.7-2.72-2.71-2.21a1.56,1.56,0,0,1-1,0c-.6-.32-.38-.76.06-1,1.16-.71,1.77-3.32,3.85-1.12.23.24.71-.49.56-.94a12.69,12.69,0,0,0-.8-1.47c3.52-2.1,0-4.95.76-7.37.38-1.22-.9-1.08-1.65-1-1.71.1-1.22-1.12-1.29-2h2c1,0,1.26-1,1.9-1.42a3.32,3.32,0,0,0,1.05-1.06c.48-1-1.51-2.07,0-3.19.23-.17.07-.93-.41-1.28s-.67-.76,0-1A4.28,4.28,0,0,1,650,616Z"/><path class="f" d="M628,634.07a20.05,20.05,0,0,0,1-8.11c-.1-.82.64-1.12,1.1-1.52s1.3-1.86,1.78-1.34,0,1.83-.94,2.47c-.74.49-1.12,1-.14,1.77s1.91,1.63-.4,1.78c-.44,0-.5.57-.11.65,3.39.76,1.35,2,.29,3.14-.31.33-.71.58-.13,1.07s1.15,1.43,2,.95c.68-.37,1.21-1.38,2.06-.8s1.87,1.79,2.35-.15c.16-.66,2-1.24.39-2.33-.17-.12.51-1.54.89-2.31.27-.57.89-.38,1.33-.28.2.05.41.48.46.77.07.49.23,1.18,0,1.46-2,2.32-.82,3.53,1.36,4.57.89.42.51,1-.09,1.39-.78.55-1.11,1.66-2.27,1.76s-1.2,1-.71,1.69c.37.55.83.95.76,1.7s.14,1.41-.72,1.57c-.65.13-1.36,0-1.3-1s-1.31-1.39-1-2.59c.43-1.84-.32-2.38-2.3-2.6-1.23-.14-1.82-1.05-1.69.9.06.91,0,1.64-1.23.59C628.06,637.07,628,637.16,628,634.07Z"/><path d="M528,427.7c.72,1.58-1.22,2.52-1,4,.1.67,0,.27-1,.29s-1.08-.68-1.54-1.09c-1-.89.16-1.7-1.41-2.38-1.34-6.82-3.55-9.19-9.83-10.55a27.41,27.41,0,0,1-3.06-3.63c.43-.47.92-.89,1.39-1.32.75,1.42,1.41.24,2.18,0,.61-.19,1.31,0,1.28,1,0,.8.3,1.31,1,.41.32-.43-.3-2,1.11-.79.86.76,1.54,1.49,2.91,1.45,1.56-.05.91,2.26,2.25,2.66,4,1.19,3.51,5.54,5.71,8C528.28,426.1,528,427,528,427.7Z"/><path d="M558.56,429c-.93-.11-2,.32-2.73-.64-.62-.78-1.59-.42-2.32-.3-.93.15-1.12,2.25-2.43,1.41s-1.66.18-2.46.29c-3,.42-3.74,2.74-4.6,5-.57,1.48-1.09,1.7-2.21.53-.66-.68-2.09-1.29-1.72-2.19.62-1.49,1.6-3.53,2.86-3.92,2.78-.84,4.81-2.8,7.27-4.06,1-.51,1.9-.15,2.47-.46,1-.54,1.57-1,2.47,0s1.42.3,2.06-.33,1.56-.5,1.61.1c.16,2.13,1,1.18,1.92.63a2.21,2.21,0,0,1,1.46,0c.32.07.88,0,.49.85C561.66,428.26,560.88,429,558.56,429Z"/><path d="M514.59,466a10.36,10.36,0,0,1-7.58-3.38c-.34-.36-.83-.79-.92-.15-.35,2.38-1.14,1.44-2.52.76-1-.51-2-1.61-3.49-1.26-.85.21-.89-.5-1.14-1.15s-1.08-1.79-1.51-1.72c-1.83.29-2.57-1.13-3.8-1.85-1.08-.64-3,.09-3-2.13-1.15,1-1.52.69-1.83-.76s-2.05-1.44-3.11-2c-1.76-1-1.95-1-1.31-2.22,1.56-3,4.36-5,6.12-7.94,2.17-3.61,4.4-7.12,5.52-11.23a2.37,2.37,0,0,1,.4-.83c2.17-2.8,2.73-6.25,3.45-9.54.25-1.14,1.47-1.69,1.22-3.06-.18-.94,2.75-.92,1.21-2.9-.19-.25,1.16-1.62,1.7-2.52.63-1.06,1.18-2.17,1.71-3.29s.69-2.51,1.48-3.35a3.19,3.19,0,0,0,.76-3.18c-.31-1.26,1.3-2.2.43-3.32-.53-.69.1-.76.28-1.09a18,18,0,0,0,1.26-2.47c1.25-3.41,5.39-9.61,8.62-11.26,2-1,4.18-1.39,4.78-3.93,2.32.08,4-2.37,6.06-2s4.11-2.33,6.18-.21c2-2,4.44-.9,6.59-.81,1.47.06,2.6-1.19,4.29-.39a8.61,8.61,0,0,0,4.87.18c1.8-.33,3.19,1.75,4.54,1,1.8-1.05,3.17.58,4.73.11,1.27-.38,2.39,2.27,3.74.19,1,.92,2.3.66,3.5.85,2.15.35,4.48.47,6,2.33.81,1,1.86.37,2.72.7s.27,1.53,1.57,2.06c3.15,1.28,3.17,1.48,3.85,3.09.51,1.21.9.57,1.23.07,1.29-2,1.32-.14,2.21.41,1.88,1.15.76,4.25,3.4,4.6.42,2.32,2.6,3.25,3.88,4.88.59.76-.18.69-.53.81s-1.58,0-.67.93,1.51,1.53.66,3.05c-.39.7,1.24,2.06.9,3.51-.27,1.13.32,2.08.82,3.14s2.07,2.51.25,4.22c-.63.59-.4,2.71.14,3.77.91,1.78,1.19,3.23-.14,4.85a1.3,1.3,0,0,0,.2,1.27c.7.48,1.85.17,1.81,1.75,0,.69,1.28,1.42,2,2.12l2.12,2.13c.7.7,1.32,1.89,2.13,2,3.89.71,6.94,3.53,10.77,4.15a5.47,5.47,0,0,1,2.88,1.58,11.85,11.85,0,0,1,3.17,5.19c2.78.19,1.9,2.92,2.63,4.34s1.08,3.27,2.29,4.51c1,1,1.16,1.69.19,2.9-.26.31,1.12,1.85-.93,1.58-.65-.08-1,.35-1.45.83-.87.85,3.08,1.81-.21,2.24-1,.13-1.58,1.32-1.92,2.52-.24.84-1.38,1.4-2,2.16a3,3,0,0,1-3,1.25.76.76,0,0,0-.43.16c-1.19.67-2,1.9-3.89,1-1.25-.61-2.8,1.29-4.52.88a5.3,5.3,0,0,0-4.07,1c-2.27,1.39-4.55,2.78-6.67,4.37-1.05.78-1.52.51-2.5-.07s-2.45-1.22-2.77,1.12c-.18,1.36-1-.83-2.09.05-1.57,1.32-3.88.7-5.72.39S579,470.72,578,469c-.1-.16.1-.65.31-.83,1-.87.85-1.6-.06-2.45a3.23,3.23,0,0,1-1.32-1.95c-.73-4.38-2-6.34-5.24-9.85-1.15-1.25-1.85-3.09-3.33-3.93s-.9-3.18-3.08-3.28c-.62,0-.43-1.24-.26-1.77.33-1.09,1.61-2.16-1-2-1.89.08-1.3-1.91-.83-2.52,1.69-2.17.65-2.4-1.33-2.42-1.11,0-.89-.58-.27-1.11,2-1.74-2.39-3.77.26-5.48-2.28-.72-2.84-1.92-1-3.76-.62-1.54-1.31-3.06-1.84-4.63a9.28,9.28,0,0,1,0-2c-.09-1,1.68-1.45.93-2.55s-1.9-1.68-2.2-3.12c-.07-.32-1.66.9-2.41-.47a8.75,8.75,0,0,0-2.08-2.13c-.83-.72-1.34-1.86-2.76-1.84-.48,0-.88-.75-1.58-1-2.44-.75-3.08-3.93-6.34-4.16-2-.15-4-2.34-5.9-3.67a16.53,16.53,0,0,0-2-1.22c-1.7-.81-3.23-2.37-5.2-1.83-2.22.61-4.64,1.25-6.14,3.18a9.55,9.55,0,0,1-5.59,3.42c-2.37.54-3.48,2.62-5.45,3.58-3.15,1.54-4.14,2.62-5.24,5.8-.37,1-1.31,1.44-1.83,2.25-.39.62,1.46,1.13.22,1.73-2,1-1.16,3.18-2.27,4.64-.58.78-.34,2.73-1.63,3.2-1.54.56,1.9,2-.62,2.17-2.2.13.18,1.06-.12,1.84-1,2.73-3.06,5.15-2.85,8.35,0,.47-.73,1-1.16,1.48-.85,1-2.18,1.62-1.79,3.27.19.82-.57,1.28-1.05,1.52-2.06,1-2.73,3.34-4.52,4.57-.4.27-.49.52-.13.7s.72.32.88.2c1-.72,1.8-.94,2.6.28,1.18,1.83,3.37,2.47,4.84,3.93,1,1,2.93.93,2.93.62,0-1.41,2.6-2.13,1-3.76-1-1-.48-1.77.37-2.41A5.11,5.11,0,0,0,504,444.5c-.2-1.47,1.61-2.46,1-4.06a6,6,0,0,0,3.11-2.13c.28-.37.67-.38.69.08.1,3,1.65.14,2.35.61.3.2,1.23.17.42.85s-1,1.92-1.66,2.84c-1.38,2-3.1,4-3,6.74a2,2,0,0,1-.66,1.74c-1.62,1.44-2.17,3.36-2.52,5.45s-.3,2.19,1.9,2.38a2.9,2.9,0,0,1,.93.18c.8.37,1.38,2.11,2,1.44,1.3-1.33,1.48.7,2.4.44a11.37,11.37,0,0,1,3-.06,5.56,5.56,0,0,1,1,0c.87.18,2.87,2.27,2.93,3C518.08,465.1,516.54,466,514.59,466Zm93-3.86a8.73,8.73,0,0,0,2.11-.43c2.21-1.12,4.63-2,6.47-3.6,1.62-1.37,1.71-4.06,3.6-5.47a1,1,0,0,0,.16-.89c-1.65-1.79-1.34-4.5-3-6.27-1-1.05-2.31-1.84-2-3.68.14-.9-.8-.89-1.44-.79-1.53.24-1.48-.71-1.54-1.79s-.19-.92-.88-.81c-3.15.48-3.41.36-5.47-2.29-.66-.85-1.34-1.46-2.12-.12-1-.63-2.2,1.3-2.26.57-.13-1.7-1.44-1.67-2.25-2-1.59-.61-2.26-1.44-2-3.16.1-.72-.23-.46-2.42-1.55-1.65-.81-4.3-1.38-3.54-4.37-1.42-2-.36-4.73-1.76-6.77-.2-.28-.2-.64.22-.68,1.15-.12,1.18,0,.87-1.49a75.56,75.56,0,0,1-1.29-8c-.35-3.69-3.22-11-4.88-14.5-.9-1.88-2.84-.23-3-1.54-.21-1.57-1.54-2.05-2.18-3.13s-2.8.7-3-1.59c-.18-1.87-2.19-.33-3.26-1.39-.9-.9-2.77-.72-3.34-2.52-.29-.93-1-.88-1.76-.09-.47.49-1.09,0-1.68-.37-3.2-2-7.07-1.13-10.54-2.28-1.18-.39-2.92.71-4.66-.06-1-.45-2.8-1.6-3.89.51-.44.87-.68-.38-1-.31a10.24,10.24,0,0,1-5.81-.91c-.58-.22-.88-.25-1,.23-.52,2.76-1.93,1.19-3.18.72-.8-.3-1.82.88-2.55-.34-.07-.11-.69,0-.9.13a8.07,8.07,0,0,0-1.38,1.42c-1.1,1.45-1,1.43-2.19-.22a.93.93,0,0,0-1.64,0c-.59,1.36-.67,3.3-2.39,3.53a4.63,4.63,0,0,0-4.19,3c-2.6-.26-2.14,3.42-4.48,3.48-.71,1.71-1.08,3.69-2.2,5.05-1.47,1.77-.28,4.19-1.91,5.75-.05.06,0,.3.11.44.23.46.46.47.71.06.09-.14.22-.32.35-.35,1.15-.29.53-4.2,3.16-1.56.06.06.71-.36,1-.64.74-.68,1.43-1.41,2.13-2.11,1.54,1.91,1.41-.65,1.77-.66,2.64-.05,4.17-3.25,7.08-2.4.3.09,1-.5.23-.87-3-1.56-.3-3.66-.43-5.47,0-.81,1.18-1.75,2.62-1.67,1.7.1,1.07,1.23,1.28,2.08.14.56.75,1,.85,1.56.57,3.24,1.9,4.46,5,4.4.91,0,1.2.52,1,1.23s-2,2,.63,1.79c.66-.06,1.38-.08,1.39.89,0,.48.21,1.14.6.9s.52-1.07.75-1.64a2.66,2.66,0,0,1,.7.4,8.74,8.74,0,0,1,1.91,2.2c.87,2,1.76,3.62,4.36,2.28.19-.1,1,.29.28.88-.35.29-.79.74-.11,1,1.11.46,3.14-.71,3.39.82.39,2.34,2.29.52,3.06,1.58.41.56,1.46.62,2,1.16.19.21-1.06.69-.87,1.5.07.29.16.73.36.82.59.26.73-1.15,1.37-.52.41.39.66,1.62.72,1.6,2.26-.67,2.31,1.66,3.44,2.48,1.78,1.29,2.56,4,5.51,3.65.43-.05.57.63.61,1.15.06.95,1.15,1.09,1.41.76.93-1.19,1.54-.72,2.18.17s1.29.09,1.75.16c1.27.18,2.37,1.3,3.66,1.66s2.91-.53,3.29,1.75c.09.58.6-.2.68-.57.13-.57,0-1.46,1-.64,1.59,1.35,2.77,3.1,4.85,4,1,.42,1.55,1.93,2.14,3,.69,1.28-1,1.81-1.18,3-.14.91-1.19-.85-2.25-.65-.48.08-1.1-1.5-1.64-2.09-1.65-1.81-3.42-4-6.25-3.7a5.5,5.5,0,0,1-4-1.2c-1.9-1.53-3.92-.26-5.66-.95-1.56-.61-2.17-2.83-4.2-2.91-.25,0-.51.32-.77.49,2.18.88.2,2.32.42,3.48.27,1.47,3,2.64.62,4.46.65,1.06,2,2.31,1.8,3.11-.5,1.76,2,2.73.95,4-1.69,2,1.06,1.87,1.15,2.89.39,4.93,4.07,7.77,7.06,11,3.67,3.95,3.78,3.85,5.39,10.46,1,4,1.8,4.78,6.22,5,.92.05,1.39,1.56,2.35.58.32-.32-.09-1.76.66-1.19,1.27,1,2.19.93,2.78-.28.76-1.54,1.83.17,2.52-.46a6.89,6.89,0,0,1,4.13-2c.91,0,1.23-.28.93-.72-.62-.93-1.9-1.81-1.88-2.68.06-2.5-2-3.25-3.2-4.71s-2.6-3.09-5-2.48c-.23.06-.8-.24-.79-.37.05-2.28-1.63-1.57-2.79-1.57-.76,0-1.14-.48-1.68-.82-1.73-1.09-2.69-3-4.23-4.12-2.28-1.65-2.1-4.18-3.15-6.25-.42-.85.24-.83.54-.81.84.08,1.78-.49,2.25,1.07.69,2.29,3.18,3.48,4.19,5.67,2.74.29,4.62,2.69,7.2,3.08a8.33,8.33,0,0,1,3.79,1.82c3.28,2.33,4.76,6,7,9.06L605,461.5C606.11,460.77,606.77,462.67,607.64,462.14Z"/><path d="M572.78,399.72c-1.31,1.23-1.32,2,.53,2.3.86.15.63,1,.7,1.58.35,2.9,1.11,5.64,3.6,7.48a6.27,6.27,0,0,1,1.75,2.78c2-2.15,1.26,1.41,2.62,1.23,1.63-.23.83,1.35,1,2.17,0,.2-.32.47-.5.71a4.67,4.67,0,0,1-.46-.81c-.16-.48.15-1.42-1-.73-.87.53-2.22,1.54-2.68,1.25a16.05,16.05,0,0,1-4.06-3.21c-1.19-1.54-2.56-3.54-2.37-6,.08-1.07.74-2.45-.63-3.32-2.24,2.15-.65-1.31-1.77-1.2-1.52.14-2.26-.6-1-2a1.56,1.56,0,0,0-.78-2.65c-2.37.4-3.18-2.08-5.09-2.39-.72-.12-1.1-1-2.08-1s-2.8.92-2.44-1.11c.14-.76,1.88-1.29,3-1.8,1.36-.66,2.38,1.78,3.47.8,2-1.8,1.91.82,2.87,1.14,1.88.61,2.59,2.76,4.45,3.5C572.21,398.59,573.14,399,572.78,399.72Z"/><path d="M626,523.91c0,1.07,0,1.73,0,2.39-.15,2.13-1.66,3.33-3.57,2.58-4.43-1.75-6.13-3-7.72-7.51-.45-1.26-.89-1.91.22-2.8a2.7,2.7,0,0,0,.69-.7c.7-1.15.69-2.75,2.69-2.93a6.87,6.87,0,0,1,4.76,1.72A7.31,7.31,0,0,1,626,523.91Z"/><path d="M659.83,569c-1.64.62-3.11-.79-4.8-1.11-2.37-.44-4.43-6.41-2.64-7.53a41.73,41.73,0,0,0,4.06-3.31c1.21,2,3.64.22,5.22,1.86,1.35,1.4,3.77,5.27,3.33,7.09S662.54,569,659.83,569Z"/><path d="M616.21,550.07c-2-.39-4.47-.35-4.23-3.59-4.81-2.19-1.17-5.57-.67-8,.57-2.85,4.34-2.94,6.29-.26,1.46,2,2.47,4.34,4.21,6.2a1.91,1.91,0,0,1,.14,1.84c-1.1,1.17-3.1,1.45-3.35,3.55A9.71,9.71,0,0,1,616.21,550.07Z"/><path d="M642,520.31c.09,1.69.09,3.26-2.12,3.74-.7.16-1.25,1-1.87,1.44-.25.19-.61.55-.77.48-2.25-.94-4.73-1.6-6.62-3s-1.83-3.92-1.6-6.18c0-.27.37-.74.5-.72a3.57,3.57,0,0,0,3.42-1.41c.69-.75,2,.47,2.89-.59.19-.25,1.09-.24,1.41,0a19,19,0,0,1,4.73,4.82C642.19,519.2,642,519.82,642,520.31Z"/><path d="M646.91,566.24c.53,1.9-.51,2.93-1.6,4-1.35,1.28-2.43,1-3.83-.09-.63-.48-2.05.19-2.87-.19-1.26-.57-1.88-2.21-3.51-2.33.42-1.56-1.05-2.6-1.1-4,0-.64-.16-1.43.72-1.55a2.3,2.3,0,0,0,2.26-2.1c.12-.95.73-.82,1.37-.94,3.09-.54,4.6,2.54,7.2,3.07C645.72,563.62,647.82,564.54,646.91,566.24Z"/><path d="M653.6,554c-2.26-.68-4.83-1.32-7.29-2.24-1.45-.55-2-4.3-.82-5.7,1.9-2.3,5.31-4.28,8.33-2.09,1.77,1.28,3.43,5,2.61,7-.18.44-.5.84-.42,1.32C656.34,554.25,655,554,653.6,554Z"/><path d="M588,507.5c.49,2.43-1.78,3.91-2.12,6.08-.09.55-.81.39-1.28.42-4.05.24-7-2.8-6.93-7.17.05-3.05.19-3.05,2.12-4.19,1.28-.75,2.24-.95,3.44.05a5.9,5.9,0,0,0,2.44,1.27C587.74,504.37,588.16,505.7,588,507.5Z"/><path d="M565,516.07c0,1.84,0,3.21-2.36,4.09-2,.75-3.58,1.54-5.15-.24-.71-.81-1.72-.75-2.44-1.36a4.75,4.75,0,0,1,.1-7.23c1-.79,2.42,0,3.57-1.2.63-.67,2.41.87,3.86,1.11C564.19,511.5,565,513.8,565,516.07Z"/><path d="M638,549.56c-.09,3.69-2.77,5.22-5.79,3.41a16.41,16.41,0,0,1-5.16-5.79c-.78-1.27.76-4.2,2.23-5,1.44,2.2,3.28-1.13,5.27.59C636.9,544.83,638,546.9,638,549.56Z"/><path d="M625.14,585.3c-1.25-1.22-2.56-1.15-3.73-1.52-.7-.22-1.28-1.85-1.25-2.29.08-1.29-1-2.28-.71-3.38a18.55,18.55,0,0,1,1.76-4.71c.34-.61,1.7,1,2.38-.31.66,2.44,4.48.89,4.78,3.78,3,2.77,2.83,5.08-.57,6.81C626.85,584.16,625.74,584.31,625.14,585.3Z"/><path d="M563,539c-2.18,0-3.67-.13-5.27-1.55-2.35-2.08-1.64-4.49-1.64-6.84,0-.53,1-1.37,1.71-1.54,3.06-.76,5.42,1.22,8,2.27-1.64,1.88,1,2.34,1.24,3.67s-.83,2.39-1.24,3.52S563.69,538.52,563,539Z"/><path d="M609,486.63c.44-.7.69-.67.91-.23.7,1.45,2.54,1.29,3.44,2.44s3.06,2.07,2.49,3.28c-.75,1.61-1.75,3.49-3.74,4.32-2.16.9-6.1-.61-7-3.12a15.85,15.85,0,0,0-1-3c-.56-1,1-1.44,1-2.53s1.24-.63,2-.74S608.74,487.39,609,486.63Z"/><path d="M542.39,492.06c.05-.09-1.16-1.23.83-2.26,2.4-1.23,3.83.28,5.59.65,1,.19,1.71,1.49,2.48,2.36a3.77,3.77,0,0,1,0,4.41c-1,1.39-2.62,1.8-3.91,2.69a2.29,2.29,0,0,1-2.67-.59C542.92,497.53,541.26,495.79,542.39,492.06Z"/><path d="M619,568.07c-1.11.86-.53,3-2.92,3.09-1.42.08-2.62.66-4.18-.08-2.1-1-2.66-3.05-3.91-4.63a.49.49,0,0,1,0-.47c1.39-1.32,1.91-3.19,3.69-4.46,2-1.42,2.79.34,3.81.68C618.05,563.05,617.85,566.07,619,568.07Z"/><path d="M565.46,558c-1.57.71-2.61-.81-4-1.13-1.2-.29-2.79-3.86-2.46-4.85.61-1.79,2.37-2.63,3.48-4,1,2.06,3.59,0,4.75,1.74.52.8,1.34,1.28,1.81,2.23C570.79,555.42,569.34,558,565.46,558Z"/><path d="M599,497.93c-.52.84,1.79,1.24.31,2.29-.88.64.32,2.16-.73,2.61a6.52,6.52,0,0,1-2.9.15c-3.8-.3-5.73-2.27-5.68-5.69,0-1.52,1.48-4.25,2.63-4.2,1.62.07,4-1.43,4.64,1.68C599.62,494.85,598.93,496.6,599,497.93Z"/><path d="M570,498.79c-2.18-.4-3.53-.64-4.49-1.83-.74-.91-2.45-1.53-2.08-2.75.6-1.93,1-4.15,3.65-4.86s4.53-.13,6.48,2.69c1,1.42.57,3.33-1.15,5C571.54,497.93,570.89,499.48,570,498.79Z"/><path d="M576.35,480c-.68-.18-2.13.39-2.14-.39,0-2.34-2.87-1.4-3.19-3.11a1.22,1.22,0,0,1,.32-1.36c.52-.41,1.19-.85,1.38-1.41.65-2,1.84-4,3.82-3.51,3.27.82,5.54,4.73,5.51,7.49,0,2-2,1.22-2.73,2.21C578.94,480.4,577.44,480,576.35,480Z"/><path d="M544.32,513.27c3.68-1.16,4.86,1.54,6.55,3.18.73.7-.71,4.2-1.9,5.08a3.7,3.7,0,0,1-4-.14c-1-1-2.42-1.81-2.92-3.28-.4-1.18-2.17-2.43,0-3.65C541.84,511.82,544,513.72,544.32,513.27Z"/><path d="M616.34,497c1.95,0,5.62,2.46,5.58,3.76a6.26,6.26,0,0,1-1.27,3.87c-.58.6-2.12,1.9-3.42.38-1.48.69-2.33-.8-3.56-1.06-2.22-.47-1.07-3.2-2.5-4.32,0,0,.28-.6.41-.59C613.63,499.18,614.16,495.47,616.34,497Z"/><path d="M568.94,573c-1.3,0-2.85.39-3.5-1.12a15.82,15.82,0,0,1-1.36-4.86c-.12-1.46,3.3-3.47,4.64-2.68s3,.57,3.95,2.58c1.11,2.31-1,3.51-.84,5.42C571.93,573.64,569.93,572.71,568.94,573Z"/><path d="M587.09,481c1.26,0,2.46-.17,3.54,1,1.68,1.9,1.3,5.79-1,6.81-1.94.86-3.53-.81-5.31-1.2-1.58-.35-2.65-2.83-2.29-3.87a5.42,5.42,0,0,1,4.11-2.78Z"/><path d="M597,518.91c0,3.74-1.69,5.07-5.23,4.09-.51-.14-.68-.45-.81-1-.38-1.64-2.84-2.4-2-4.65.27-.72-.36-2.09.48-2.18,1.08-.12,1.83-1.57,2.48-1.08,1.33,1,3.07.5,4.33,1.63C597.36,516.69,596.84,517.83,597,518.91Z"/><path d="M600,480.09a7.43,7.43,0,0,1-.12,1.5c-.11.46-.46.48-.67.11-1-1.77-2.28.51-3-.14-.91-.78-1.89-.27-2.71-.65-.56-.26-.91-.93-1.42-1.34a2.33,2.33,0,0,1-.7-3.36c.67-1,.77-2.56,2.92-2.31A6.09,6.09,0,0,1,600,480.09Z"/></svg>