<svg xmlns="http://www.w3.org/2000/svg" xmlns:xlink="http://www.w3.org/1999/xlink" width="1080" height="1080" viewBox="0 0 1080 1080"><defs><style>.a{fill:none;}.b{fill:#f15a29;}.c{fill:#f0dfd2;}.d{fill:#33ae90;}.e{clip-path:url(#a);}.f{fill:#1c6655;}.g{clip-path:url(#b);}</style><clipPath id="a"><ellipse class="a" cx="541.43" cy="429.9" rx="13.75" ry="10" transform="translate(-10.23 846.6) rotate(-75.52)"/></clipPath><clipPath id="b"><path class="a" d="M525.48,432c-10.17-2.38-13.59-9.18-13-16.23C520.5,416.32,524.86,422.06,525.48,432Z"/></clipPath></defs><title>Croissant 2</title><path class="b" d="M523.5,388.5c-9.87.79-11,12-19.5,32.5-4.84,11.68-17.5,29.5-17.5,29.5s27,19,53,14c19.66-3.78,35,12,35,12l15-16S573.5,384.5,523.5,388.5Z"/><path class="c" d="M546,519s3,34,1.5,65.5c-.77,16.11-2,34-2,34-6,7-13,25-7,27s30-18,28-23,3-35,5-55S546,519,546,519Z"/><path class="c" d="M361.5,673.5c19.89-8.62,56.12.35,80.89,7.37C459.13,657,490,656,509.37,647.55,529,639,547.1,635,557.26,635c2-8.15,8.5-15.31,17.24-20.47,53.09-31.37,60-72.35,86.39-69.78,10.65-16.92,20.43-32.78,32.61-47.22,18.47-21.89,29.7-45.71,48.11-53.44,3-13.37,5.84-28.58,6.89-42.56,3-40,25.38-90.74,61-82,26.5,6.5,46,45,60,90,4.61,14.83,5.87,31.92,6.89,47.37,15,3.15,24.11,9.11,28.11,24.63,8,31,17.5,73.5,6,131C903.07,649.65,893,668,878.84,685.2c10.36,15.56,10.19,36.91,1.66,57.3-18,43-54.5,84.5-132,112-40,14.19-85.5,26.5-107.71,7.48-15.83,5.57-38,10.85-69.14,11.5-51,1.06-89.63-19.31-115-36.86-9.11-6.3-18.83-16.41-23.63-24.34-12.48-6.71-22.4-8.6-30.47-12.78-29-15-65.09-49.27-70-64C325.5,714.5,331.5,686.5,361.5,673.5Z"/><path class="d" d="M551.5,479.5c10.88-5.54,22.36-16.82,42-7,24,12,46,43,55,57s23,50,23,50l-77.55,27L582,618l-2.5-5.5s-18.5-44.5-24-60C548.3,532.2,525,493,551.5,479.5Z"/><path class="c" d="M511.5,401.5a136.51,136.51,0,0,0-1,23c.8,21.54.5,31.5,7,39,7.54,8.7,22,7,22,7a48.88,48.88,0,0,0,5,7,68.21,68.21,0,0,1,6,9s5,1,9-1a8.74,8.74,0,0,0,5-6s-3-11-2-20c.78-7,12.22-17,12.23-33s-10-35.67-30.54-40.19C522.86,381.61,512,393.45,511.5,401.5Z"/><path class="c" d="M602.5,529.5s2.08,20-1,57c-1,12-5,18-4,30s-7,14-8,19c-1,5.22-1.53,9.26-3,10-2,1-3-5-3-5s-1,4-3,4-3-5-3-5-1,5-3,4-2-3-2-8c0-10,12-11,11-27-2-31.94-7-77-7-77Z"/><polygon points="629 594.5 660 583.5 661 589 643 691 644 696 633 724 603 714 618 708 620.25 683.25 623 678 629 594.5"/><circle class="d" cx="371" cy="429" r="11"/><g class="e"><path class="f" d="M562.29,427.76c-4.56,7.3-12.42,9.79-21.59,7.35C542.14,426,554.93,422.2,562.29,427.76Z"/></g><g class="g"><ellipse class="f" cx="510.05" cy="424.83" rx="13.75" ry="10" transform="translate(0.07 849.74) rotate(-79.59)"/><path class="f" d="M508.92,439a7.79,7.79,0,0,1-1.44-.13c-5.7-1-9.17-8.18-7.75-15.92h0a17.08,17.08,0,0,1,4.78-9.3,8.71,8.71,0,0,1,14.71,2.7A18.13,18.13,0,0,1,515.6,436,9.76,9.76,0,0,1,508.92,439Zm-8.21-15.87c-1.32,7.19,1.8,13.81,7,14.76a8.36,8.36,0,0,0,7.25-2.56,17.09,17.09,0,0,0,3.4-18.55,7.72,7.72,0,0,0-13.11-2.41,16.06,16.06,0,0,0-4.49,8.76Z"/></g><path class="b" d="M531.5,396.5S541,402,547,406s14,12,14,12,1.5,16.5,4.5,22.5,7,10,11,17c3.14,5.49,4,13,4,13S592,472,597,470a23.18,23.18,0,0,0,8-6c11,0,18-9,18-9s-3.65-13.27-11.5-18.5c-6-4-14.51-3.61-18-10-6-11,7.86-35-30.5-43.5-9-2-22.28-4.67-28.5-3.5-16,3-23.5,15.5-23.75,24.25S517.5,394.5,531.5,396.5Z"/><path d="M512,418.77c0,1.74-.56,4.05-.36,6.12s.21,4.23.34,6.34c.16,2.43-.32,4.92,1,7.19-2.37,1.75.53,4.24-.83,6.17-.18.25.08,1,.35,1.32,2.3,2.87,2.59,6.45,3.55,9.8,1.58,5.57,5.8,8.9,10.28,12a2.53,2.53,0,0,0,1.4.3,14.54,14.54,0,0,1,5.73.92c1.59.62,3.63-.48,5.2,1,.17.17,1-.1,1.3-.39,1.06-1,1.74-.18,2.59.35a14.89,14.89,0,0,1,4.49,6.4,15.85,15.85,0,0,0,2.87,6.06,4.55,4.55,0,0,0,5.8,1.75c.79-.31,1.59-.94,3-.34s3.24-.82,3.86-2.77c.5-1.54,1.18-3-.84-4.09-.73-.41-1.68-1.89-1.46-2.3,1-1.85-1.15-3.7.13-5.33a1.76,1.76,0,0,0-.11-2.61,1.7,1.7,0,0,1-.25-.91c-.09-1.59,1.65-2.67,1.54-4s-.79-2.72-.45-4.14c.21-.91,2.34,1.06,1.91-1.18a3.06,3.06,0,0,1,1.11-3.1c.89-.74,1.66-1.63,2.5-2.45.47-.46.92-1,1.68-.88s1.9-.43,2.31.34c.24.45-.32,1.45-.72,2.08a11.22,11.22,0,0,1-1.67,1.85c-2.2,2.16-2.38,5-2.63,7.81,0,.28.37.59.34.87-.1,1.13-1.68,2-.12,3.45s2.36-.75,3.52-.39c2.18.69,4.18-.94,6.49-.15,2,.66,4.22-.78,6.4.1,1.92.78,4,1.18,5.85,2.09,2,1,4.4,1.14,6.18,2.63,2.84,2.37,6.42,3.57,9.21,6.12,2.37,2.16,5.7,3.17,7.78,5.83.47.61,1.24.31,1.88.35s1.57-.11,1.75.58c.57,2.21,3,2.58,4,4,2.27,3.36,6,5,8.4,8.1,1.19,1.54,3,2.66,3.52,4.67a2.66,2.66,0,0,0,1.87,1.94,1.93,1.93,0,0,1,1.36,1.9c-.19,1.85,1.27,2.69,2.35,3.56,1.85,1.5,2.56,3.85,4.29,5.36,1.25,1.1-1.08,2,0,3,1.56,1.46,2.19,3.62,3.92,5a6.36,6.36,0,0,1,2.8,4.44,2.85,2.85,0,0,0,2.32,2.77,2.12,2.12,0,0,1,1.3,1.4c.77,4,4.85,6.23,5.13,10.42.1,1.34,2.05,1.74,2,3.28a14.83,14.83,0,0,0,3.44-.61c.86-.36.79-1.65.35-2.18-1.17-1.37-1-2.57.42-3.26,2.93-1.46,3.38-4.52,4.56-7,1.48-3.07,3.58-5.63,5.4-8.42,2.07-3.2,5.15-5.86,5.75-9.85.29-2,1.77.49,1.93-.67A3.61,3.61,0,0,1,681.5,509c3-2.33,4.22-5.93,6.68-8.62.9-1,.87-3.05,3.08-2.51.34.08.75-.51.73-1.1a2.59,2.59,0,0,1,2.18-2.84c1.82-.52,1.76-3.09,3.7-3.52.43-2.9,3.18-4.17,4.5-6.41,1.41-2.4,3.21-4.51,4.65-6.8,2.32-3.68,5.09-7.05,7.27-10.83,1.48-2.56,2.45-5.71,5.68-6.95.54-.2.77-1,1.09-1.56,1.66-3.14,4.08-5.29,7.6-8.25,2.13-1.79,4.3-3.52,6.46-5.28.76-.61,1.29-1.59,2.49-1.36,2.4.45,3.31-1.2,3.81-3,.74-2.62,1.82-5.2,1.57-8-.14-1.48-.67-2.86-.09-4.47a28.08,28.08,0,0,0,.88-4.21c.61-3.15.2-6.46,1.16-9.65.41-1.35-.38-3,.92-4.2-2-1.37-.2-2.81.24-3.87.66-1.54-2-2.63-.23-4,1.38-1.09.42-2.76,1-4.11s-.3-2.95.47-4.35-1.35-2.81.17-4.43a7.65,7.65,0,0,0,1.39-4c.23-1.63-.15-3.36.1-5,.43-2.73,2.26-5.25,1.18-8.2,2.94-1.23,1.21-3.88,1.83-5.82.67-2.09,2-4,2.65-6.08.88-2.73,2.7-5,3.33-7.87a3.14,3.14,0,0,1,.53-.83c.93-1.4,4.17-.3,3.54-3.63-.4-2.08,2.38-2.83,3.16-4.75a27,27,0,0,1,2.93-5,70.42,70.42,0,0,1,4.39-5.9c1.5-1.74,3.5-2.77,5.07-4.44a26,26,0,0,1,4.93-4.57c2.62-1.63,5-3.33,8.25-3.82,2.31-.35,4.28-2.36,6.9-1.88,3-2.24,6.91.32,9.89-1.95l4.4,2.06c.54,1.51,1.33,1.79,2.87,1a2.76,2.76,0,0,1,2.52,1c1,2,3.69,1.06,4.68,3,.84,1.7,3.79,1.1,4.2,3.48,1.9-1.66,1.51,1.33,2.57,1.27,1.51-.09.8,2,2.34,2.14s1.44,2.14,2.38,2.86c2.76,2.1,4.27,5.21,6.59,7.64.8.84.42,1.33,0,2a11.5,11.5,0,0,1,2.08,1.2c1.25,1.1,2.68,2.26,1.25,4.16-.64.86.19,1.08.51,1.53.47.68,1.62.3,1.94,1.29.48,1.49,1,2.71,3,2.86,1.59.12.41,2.54,1.53,3.34,2.31,1.67,2.42,4.49,3.73,6.66s3.58,3.78,3.81,6.63c0,.54.79,1,1.22,1.52.91,1,2.65,1.87,1,3.64-.08.08.47.74.69,1.15a31.43,31.43,0,0,1,4,11c.18,1.53,1.67,2,2,3.26.24.85-1.45,1.24-.38,2,.48.35,1.32.2,1.38,1.1s1.46,1.5.19,2.5a.87.87,0,0,0,.2,1.31c2.25,1.28,1.22,2.93.66,4.61a3.78,3.78,0,0,0,.06,2c.14.52.74.6,1.24.52.88-.15.39-1.84,1.28-1.5s.4,1.51.35,2.28a5.39,5.39,0,0,0,1.54,4.48,2.78,2.78,0,0,1,.54,3.76,1.79,1.79,0,0,0,0,1.45c1,2.46,2.37,4.82,1,7.61-.26.53.29.92.81,1,.86.1,1.36,1,1,1.31-1.8,1.5,1.16,1.75.64,2.54-1,1.48-.31,1.84,1,2.46.77.37-.21.67-.53.72-.94.14-1.07,1.31-.86,1.38,3,.91-.08,3.46,1.49,5.09,1.13,1.18,1.07,3.59,1.34,5.47a5.24,5.24,0,0,1-.53,3.33c-.59,1.12,2,1.67,1.45,2.64-1.21,2.11-.25,3.61.75,5.23.51.84-.71,1.06-.57,1.62s-1,2.93,1.46,1.42a2.39,2.39,0,0,1,2.34.17c1.56.81,3,2,5,1.66.16,0,.42-.07.49,0,2.48,3,7,3.1,9.11,6.15,1.94,2.88,5.14,5.08,5.62,8.91a2.27,2.27,0,0,0,.78,1.21c.8.74,1.15,1.18.19,2.3-1.49,1.76-1.33,1.94.58,3.58,1.56,1.34,2.23,2.69,1.52,4.91-.49,1.52-.73,3.65,1.69,4.38-.07,1.36.73,2.44,1.17,3.65s-1.63,2.49.3,3.82c.7.49.61,2.21.57,3.17a9.24,9.24,0,0,0,.69,4c1.87,3.79,1.84,7.94,2.93,11.85a12.23,12.23,0,0,1,.51,1.34c.32,2.26.2,4.58.36,6.84.13,1.94.83,3.81.71,5.79a11.15,11.15,0,0,0,.71,4.77,6.35,6.35,0,0,1-.45,5.72c-.6.91-.8,2.09.9,2.68,1.42.49-.57,1.34-.13,1.79,1.35,1.34-.73,3,.51,4.3,1.41,1.52-.3,2.71-.6,4.05-.26,1.16.63,1.82,1,2.68a6.49,6.49,0,0,1,0,5.42c-.3.71-1.07,1.18-.89,2.18s3.57,1.58.26,2.78a7.1,7.1,0,0,1,.69,3.66c-.07,1.5,0,3,0,4.5-.05,1,.57,2.42-1.33,2.65-.74.09-.21.67,0,1.07s.23.93.41,1.37c.67,1.65-2.82,2-1.16,4.1,1.09,1.39-1.06,2.61-.88,4.12.1.79-.42,1.08-1.13,1.32-1.1.38-1.09,1.52-.25,1.77,2,.62,1.53,1.74,1,3s-1.28,2.68-1,4.36c.21,1.26-1.22,2.46-.06,4,.74,1-.63.57-1,.77a12.29,12.29,0,0,1-1.32.49,9.22,9.22,0,0,0,1.28.51c.68.16,1.61-.35,1,1.25-1.76,4.47-2.33,9.28-3.4,14a82.09,82.09,0,0,1-3.87,13.31c-.45,1.07-.06,2.21-.47,3.37-1.48,4.18-3,8.35-4.72,12.44-.25.59-.83,1.11-.91,1.7-.78,6.51-3.83,12-6.91,17.69-2.06,3.78-3.49,7.91-6.15,11.38-1.41,1.85-2.87,3.67-4.24,5.55-.69.94-2.69-.44-2.63,1.45,0,1.25,1.34,1.81,2.12,2.62,1.51,1.57,3,3.22,2.72,5.52-.19,1.86,1.68,2.33,2.06,3.78,1,3.74,0,7.79,1.78,11.39-2.35,2.31,1.16,5.21-.75,7.57.93,1.28.11,2-.48,3.23a9.38,9.38,0,0,0-.89,5.29,3.49,3.49,0,0,1-1,3.56c-1.11.89-1.44,2.71-1.77,4.37a32.27,32.27,0,0,1-4.36,11.43c-.63,1,.44,1.25.11,2-1,2.53-1.85,5.14-3.45,7.39-.46.66-1.36,1.1-1.18,2.06.37,1.93-1.78,3.09-1.75,4.28,0,1.6-3,.68-1.6,2.71,1,1.33-.68,2.31-1.06,3.46-.82,2.47-2.44,4.54-3.73,6.77s-2.51,5.05-4.54,6.13-.77,3-2.32,4c-1,.69-2.41,1.19-3.24,2.65a10.87,10.87,0,0,1-5,4.67c-.91.4-1.81,1-1.77,2.15s-.59,1.56-1.57,2.06a5,5,0,0,0-2.35,2.48,6.8,6.8,0,0,1-2.82,3.34,10.93,10.93,0,0,0-3.5,3.78c-1.13,2-3.6,2.32-4.56,3.86-1.12,1.8-3.24,2.86-3.69,5.08-3.32.42-5.15,3.94-8.51,4.15-1.3.08-2,1-3,1.4-2.94,1.2-4.57,4.27-7.8,5s-4.64,4-7.43,5.47a98.46,98.46,0,0,0-12.22,7.87c-1.35,1-3.3,1.21-4.84,2-3.68,1.94-7.24,4.15-11,5.83-4.94,2.2-9.67,4.87-14.89,6.48-3.34,1-6.89,1.85-9.57,4.27-1.22,1.11-1.66-.72-2.54-.27s-1.71.9-2.58,1.32c-1.27.63-2.95-1-4.09,1-.78,1.33-2.68,1-4,1.46a33,33,0,0,1-4.57,1.46c-4.54.85-8.57,3.48-13.24,4.06-5.73.7-11,3.25-16.84,3.86-3.07.32-6.1,1.9-9.3,2.19-5.14.47-9.89,3.31-15.19,2.59-1.94-.27-3.41.9-5.18,1.18s-3.46-1.29-5.51-.28c-1.42.69-3.49-.43-5.06-.32-2.27.17-3.5-2.09-5.76-1.6-1.95.42-3.63-1.07-5.5-1.52s-2.64-3.4-5.23-2.44a18.39,18.39,0,0,0-5.38-3.27c-.57-.24-.93-1.05-1.51-1.27-1.36-.51-.44,1.38-1.26,1.37-.52,0-.8-.72-1.65-.3-2.87,1.41-5.82,2.68-8.79,3.88-2.23.9-4.46,2-7,1.62-1.52-.21-2.84.72-4.21.89-6.39.82-12.55,3.08-19.07,3.1-3.19,2.13-7.2-.2-10.39,1.93a6.82,6.82,0,0,0-5.35-.42c-1.22.44-2.4-2.4-3.79-1.09s-2.34-.6-3.44.15c-1.39,1-1-2.24-1.51-1.05-.91,2.12-2.35,1.38-3.67,1.46-1.66.1-3.41-.29-5,.11s-3-1.71-4.46-.14c-1.21-1.12-2.84,0-4.22-.87s-3.06,1-5,.08c-1.27-.62-3.2-.38-4.84.15-1.86.61-4-1.47-5.77.54-.38-3-3.42-1.05-4.67-2.49a1.07,1.07,0,0,0-1.72.13c-2,2.34-3.75.47-5.35-.41-1-.51-1.44-1.08-2.4-.15a1.62,1.62,0,0,1-1.4,0c-.91-2.47-3.54-1.18-5.18-2.4s-4.29-1.09-6.37-1.87c-1-.37-1.68-.95-2.6,0-.19.2-.71.38-.87.27-2.9-2.11-6.83-1.62-9.7-4.08-1.77-1.5-3.92-2.94-6.55-2.85-.67,0-1.39,0-1.59-.79-.35-1.44-1.06-1.34-2.12-.68s-2-.43-2.42-.85c-.72-.7-.93-1.3-2.25-1.11-.81.13-1.41-1.75-2.85-1.59-.68.08-1.36-.14-1.37-1,0-1.37,0-2.23-1.79-1.1-.91.57-1.63-.84-2.34-1.48-1.32-1.2-2.33-2.92-4.57-2.42-.28.06-.78,0-.91-.21-.88-1.37-2.74-1.43-3.6-3.07s-3.37-.14-4.74-1.92c-.92-1.19-2.59-1.86-3.85-2.92-1.64-1.39-3.59-2.36-5.3-3.74-2.3-1.85-5.05-3.12-6.41-6-1.81.19-1.56-3.18-3.82-2.21-.43-2-2.07-2.92-3.36-4.22-2-2-3-4.82-5.86-6-.45-.17-.6-1.09-.9-1.65a15.84,15.84,0,0,0-2.12-3.26c-1.55-1.76-1.5-1.53-5-2.25-1.44-.3-3.77-.13-4.49-2.41-.55-1.75-1.32-1.71-2,0-.21.53-.51.76-1,.3a11.45,11.45,0,0,0-4.42-2.83c-1.59-.52-3.06-1.43-4.84-1.89-1.14-.3-2.89-.77-3.81-2.08a1.3,1.3,0,0,0-1.18-.67c-.67,0-1.34-.06-2,0-1.85.1-2.08-2.35-4.3-2.39a7.89,7.89,0,0,1-5-2.68A9.87,9.87,0,0,0,391,796c-2.88-1-4.71-3.29-6.94-5.07-1.64-1.31-2.84-3.15-5.13-3.55-1.83-.32-2.41-2.28-4-3.12-2-1.09-3.12-3.33-5.8-4.11-2.14-.62-3.51-3.49-5.9-4.53-.29-.12-.46-.49-.74-.65-3.21-1.85-3.46-7-8.11-7.24-2.73-2.69-5.35-5.49-8.22-8a15.49,15.49,0,0,1-3.74-5.11c-1.9-4.11-5.42-7.11-7.14-11.15-1.11-2.61-2.64-5-3.49-7.82-.43-1.4-.52-3.15-1.89-4.4-1.06-1-.33-2.85-1-4.09a3.37,3.37,0,0,1,.1-3.47,2.69,2.69,0,0,0,.41-2c-.27-1.84-3.7-2.44-1.76-5,1.15-1.51-.64-3.07-.22-4.72.62-2.4.41-5.31,1.73-7.17,1.57-2.19,1.88-4.79,3.35-6.93s2.24-4.75,3.91-6.64c3.25-3.68,5.79-8.08,10.3-10.61,1.82-1,2.77-3.3,5-3.93-.93-1.56.13-2,1.26-2.76,1.29-.85,2.76-.82,4.09-1.4,1.17-.51,2.11-1.73,3.52-1.51,1.81.28,3.31-1.46,5.49-.25,1.3.73-.24-1.08.18-1.39a16.07,16.07,0,0,1,2.56-1.36c1.64-.8,3.16,1.51,5,.06,1.25-1,3-1,4.63-1.18,2.84-.34,5.57-1.45,8.42,0a2.17,2.17,0,0,0,2.31-.53c.76-.65,1.54-.59,1.82.55.13.55.61,1.16.88.92,2-1.83,3.42,1.09,5.52.54,1.79-.46,3.7,1.47,5.82,1.68.85.08,1.53.95,2.5,0a1.92,1.92,0,0,1,1.8.17c1,2.08,3,1.46,4.5,1.64,1.78.21,3.22,1.34,5.19,1.22a14.87,14.87,0,0,1,6.54,1.31c2,.87,3.81,1.82,6,1.57.77-.09,1.17.5,1.67.92s.74.62,1.12.92c2.66-3.34,5.2.15,7.72.39,1.33.13,2.32.31,2.56-.79.55-2.51,2.56-3.59,4.24-5,3-2.44,6.6-3.91,9.64-6.35a26.11,26.11,0,0,1,9.4-4.72,15.63,15.63,0,0,0,6.07-2.87c.95-.79,2.49-2.53,4.24-.77,1.14-3.11,5.39-1.18,6.67-4.12a1,1,0,0,1,1.62-.34c.62.56,1.15.65,1.56-.09,1.15-2.09,3.28-1.91,5.14-2.17,2.78-.4,5.42-1,7.31-3.28.54-.66.94-.53,1.6-.1a2.15,2.15,0,0,0,1.85.27c3.54-2.53,7.76-3,11.82-3.88,1.22-.26.51-2.13,1.76-1.63a4.88,4.88,0,0,0,2.33.55c1.26-.11.66-2.33,2.37-2a3.31,3.31,0,0,0,3.18-.94c1.42-1.48,3.71.83,5-1.19,1.17-1.8,3.7.07,4.94-1.74.09-.13.92.11,1.3.34.92.57,1.15.09,1-.67s-.31-4.24.11-4.68c2.27-2.39,2.73-5.74,4.58-8.41,2.11-3.05,2.45-6.89,3.34-10.44,1-4.22.78-8.64,1.84-12.91.43-1.73-1.71-3.87.07-5.87-2.24-3.63.38-7.88-1.46-11.53-.36-.7.26-.82.29-1.22.17-2.45,1-4.8.37-7.36s.69-5.28-.85-7.73c1-5-1.71-10.14.62-15.07-1-3.57.43-7,.74-10.46-1.81-1.35,1.76-3-.23-4.32.57-4.64-2.38-8.27-3.68-12.37-.91-2.86-1.35-6-3.29-8.45-1-1.27.63-1.86.18-3a63.66,63.66,0,0,1-1.57-6.51c-.54-2,.43-3.92.34-6a13.38,13.38,0,0,1,1-6c.8-1.66-.15-3.86.84-4.65a10.35,10.35,0,0,0,2.63-3.28c2.62-4.82,2.63-4.88.11-9.68-1.11-2.14-1.84-5.45-5.53-3-2.65-1.18-5.75-1.11-8.22-2.4-1.45-.76-2.28,1-3.48-.05-.8-.71-2.07-.86-3-1.42A23.18,23.18,0,0,1,512,458.64a29,29,0,0,1-2.4-10.52c0-1-.49-1.3-.83-1.89-.2-.36-1-.72-.26-1.14,2.39-1.41.63-3.28.25-4.6-1-3.54-1-3.48-.82-6.16.14-1.94-1.5-3.87,0-5.93a2,2,0,0,0-.05-1.86,2.13,2.13,0,0,1,0-3.05,2.13,2.13,0,0,0,.18-1.89,5.07,5.07,0,0,1,.61-5.73c1-1.33.17-2.41-.48-3.59-.35-.62.34-1.17.79-1.66.69-.76,1.06-.13,1.53.28,1,.91,1.83,1.84,1.63,3.4A37.94,37.94,0,0,0,512,418.77ZM580,614c-4.22,1.84-7.49,5.08-11.27,7.55-4.64,3-6.14,7.62-7.65,12.31-.74,2.28-.49,4.83-.8,7.21-.18,1.33.86,4-2,4.29.83,1.77-.15,3.26-.84,4.75-.31.66-.62,1.53.08,1.66,2.08.38,1.36,1.89,1.53,3.09.25,1.76-.64,3.66.61,5.3-1.16,1.4.12,3-.34,4.63-.36,1.26.58,3.35,1.61,4.87.29.42,0,1.26-.07,1.9a34.47,34.47,0,0,0,.62,7.35c.52.9,2.2,1.35,1.25,2.82-1.13,1.75,1.3,1.9,1.3,3.11a6,6,0,0,1,0,2c-1.28,3.09-.26,5.55,2,7.62a3.3,3.3,0,0,1,1,3.14c-.18,1.6.6,3.35-.75,4.77,1.24,1.3,1.67,3,2.3,4.59a22.08,22.08,0,0,1,.49,2.36c1.34,4.42,2.79,8.81,4.13,13.23.25.81,1.85-.15,1.46,1.33-.22.81.81,2,1.5,2.86.55.7,2.61.94,1.16,2.58,1,2.49,2.56,4.8,2.22,7.68,2.56,3.23,3.71,7,4.57,11a10.25,10.25,0,0,0,1.83,3.38c.74,1,2.36,1.66,1.41,3.39a55.8,55.8,0,0,1,7.11,16.1,16.63,16.63,0,0,0,4.33,7.43c.4.4,1.1.64,1,1.49-.49,2.85,1.29,5,2.36,7.38a20.91,20.91,0,0,0,3,4.94c1.59,1.84.28,4.2,1.5,6.07.5.77.36,2,.9,2.7,1.63,2.2,2.14,5,3.69,7.12,2.2,3,3.82,5.89,4.26,9.64.11.91.85,3,1.35,3.19,1.67.55,1.43,2.09,2.18,3,.89,1.12.89,3,2.2,3.7,2.09,1.12,1.39,3.59,2.84,5,1,1,2.91,1.86,2.57,3.21-.55,2.18,1.65,2.1,2,3.36.1.3.31.57.41.87,1.1,3.58,4.32,6,5.28,9.66a14.24,14.24,0,0,1,4.83,5.25,12.66,12.66,0,0,0,5.24,5,3.89,3.89,0,0,1,.72.69c1.26,1.28,2.41,2.61,4.49,2.7a4.12,4.12,0,0,1,2.51,1.38c3.28,3.61,8.35,2.92,12.26,5.2,2.22,1.29,5.51-.66,8.18.93.32.19,1.31-1.12,2.14-.73,1.38.64,2.63-1.69,4-.08,2.79-.93,5.52-2.4,8.58-1,4.82-1.18,9.52-3,14.58-3a1.88,1.88,0,0,0,1.29-.57c1.06-1.26,2.18-1.81,3.66-.67,3.9-1.8,8.49-1.56,12.14-4.09a1.33,1.33,0,0,1,1.19-.18c1.82.32,5.52-.64,7.76-1.34.69-.22,1.21-1.41,2.07-.68,1.36,1.16,2.38.28,2.76-.75.56-1.48,1.07-1.22,2.28-.79a3.47,3.47,0,0,0,3.29-.5c2.51-1.82,5.9-1.35,8.52-3.25,1-.73,2.94.11,4.11-1.13,1.77,1.36,1.75-2.92,3.64-1.15,1.87-2.08,5.08-.69,7-2.68,2.11.6,2.56-1.82,4.29-2.3,4.89-1.36,9.06-4.52,13.9-6.13,2.3-3.88,7.84-2.87,10.18-6.71,4.37-.9,7.94-3.3,11.33-6.06.11-.09.33-.08.44-.18,2.65-2.44,6.33-3.48,8.82-5.92s5.65-3.8,8.63-5.21a32.86,32.86,0,0,0,7.83-4.65c1.87-1.64,4-3,5.89-4.55,2.37-2,5.27-3.58,6.51-6.94.62-1.71,2.65-2.91,4.1-4.29.43-.42,1.33-.22,1.57-1,1.15-3.49,4.09-5.54,6.37-8.13,1.62-1.83,4-3,4.77-5.59,2.5-.48,2.21-3.27,3.82-4.56,2.76-2.21,5.94-7.42,7.38-10.54.73-1.56.87-3.34,2.23-4.8a7.65,7.65,0,0,0,2-3.56c.39-3.07.48-3.71,2.28-5.42.46-.45,1.21-1,1.16-1.51-.3-3.11,2.48-5.13,2.66-8.13a11.22,11.22,0,0,1,1.89-4.87c1-1.53-.31-4.19,2.44-4.74-.47-2.36,1.53-4.3,1.1-6.67s.38-4.52,1-6.69a25,25,0,0,0,.16-13.44c-.49-1.71.53-3.7-1.05-5.15,1.61-2.14-1.67-2.87-1.37-5.09.32-2.4-1.89-4.5-4.37-5.31-1.7-.56-2.5-1.38-2.41-3.13,0-.65.17-1.48-.45-1.83-2.34-1.35-2.71-4.85-5.94-5.28-.8-.1-.13-.73.25-.79.87-.14,1.24-.47.5-1.14-1.12-1-2.32-2-3.53-2.9-2.35-1.79-3.72-4.56-6.32-6.14-.62-.38-.6-1.74-1-2.62s-2.34.83-2-1.41c.24-1.6-1.44-.38-2-1s-1-.87-1.48-1.34c-.83-.79-1.52-1.65-2.92-1.59-2,.09-.32-2.46-1.87-2.89-2.3-.65-3.31-3.92-6.37-3.12-.42.11-.74-.42-.89-1-.34-1.21-1.43-1.57-2.44-2.16-1.32-.76-2.81-1.22-3.76-2.9-.68-1.21-3.41-1.14-4.38-2.33-1.37-1.67-3.75-2.08-4.62-4.23-.23-.57-.64-1.07-.87-1.7-.43-1.19-1.13.69-1.9-.08-1.61-1.6-3.89-2.4-5.53-3.85s-4.71-1.46-5.55-4.19c-.08-.26-1.1-.58-1.25-.43-1.32,1.29-2,.28-2.59-.7-.31-.54-.24-1.21-1.11-1.37-4.72-.9-8.15-4.47-12.5-6.15-1.21-2.26-4.2-1.53-5.79-3.44-.43-.53.25-2.73-1.89-1.85-1.36.57-1.72-1.49-3.18-1.68-2.26-.29-4.7-1.68-5.51-3.55-1-2.22-3.37-1.94-4.42-3.83-.83-1.49-3.17.18-4.6-.94-1.15-.89-1.19-3.27-3.55-2.61a1.77,1.77,0,0,1-1.36-.37c-4.95-4.14-11.95-5.32-15.9-10.88-.84-1.18-1.73.75-2.37-.31-.5-.83-1-1.66-1.51-2.47-.18-.27-.56-.68-.73-.63-3,.91-3.71-4.54-7.09-2.59-.06,0-.49-.3-.54-.52-.87-3.35-5.34-2.82-6.4-6-3.62-.17-5.77-3.42-9.06-4.35-1.37-.39-2.62-1.8-3.9-1.77-2.54.06-4.34-1.44-6.26-2.45-3-1.55-5.84-3.27-8.85-4.76-3.3-1.64-6.32-3.95-10.2-4.15-2.15-2.14-5.19-2.44-7.74-3.78s-4.78-3.93-8.1-4.17c-.53,0-1-1.16-1.5-1.21-1.29-.12,0-3-2.4-2-1,.42-1.77-1.68-2.89-2.29a13.47,13.47,0,0,0-3.1-1.29c-2-.5-2.63.08-2.64,2.25,0,1.15-.08,2.23.93,3.19,1.86,1.75.73,4.83,2.68,6.57,1.09,1,1,2.34,1.52,3.44,1.75,3.73,1.8,8.25,5.11,11.27.43.39-.34,5-.9,5.16-3.58.91-6.34,3.81-10.16,4.09-.85.06-1.3.41-.54,1.07,1,.87.76,1.58.56,2.78s-1.56,2.07-.49,3.51-1.54,2.48-.72,4.09c1,1.92-1.56,3.57-.49,5.54.89,1.64-1.7,2.53-.79,4.62.59,1.38-.88,3.57-1.21,5.43-.44,2.5-1.85,5-1.2,7.47.77,2.84,1.54,5.35-.93,7.67-.6.57-.39,1.21.09,1.74a1.36,1.36,0,0,1,0,2.15c-.77.71,1,1.23.05,2-.47.4-1.72.74-1,1.81s.35,2,0,3.19a55.93,55.93,0,0,0-1.07,7.88c-.51,4.73-1.47,9.4-2,14.12a91.08,91.08,0,0,1-1.93,9.06c-1,4.46-.65,9.29-3.37,13.3.46,2.15-2,4.14-.85,6,1,1.65,0,3.63,1.51,5.11.6.61.22,1.81-.57,2.66a15.52,15.52,0,0,0-4.21,7.44c-1.47,6.91-5.19,13-7.18,19.7A4,4,0,0,1,632,727c-3.89-.85-7.38-3.2-11.53-3.19-.37,0-.77-.59-1.12-.95s-1.08-1.1-1.69-.75c-2.24,1.27-4-.23-5.59-1.18-1.77-1.08-3.77-1.09-5.55-1.52-2.26-.54-3-2.68-5-3.22a10.86,10.86,0,0,1-1.44-.2,22.93,22.93,0,0,1-3-1.48,1.69,1.69,0,0,1-.8-1.1c-.1-1.08,1.87-3.27,3.09-3.37,5.16-.38,10.09-1.84,15.1-3a2.29,2.29,0,0,0,1.68-1.34c1-1.56,1.31-3,.41-4.58-.45-.79-.82-1.7-.44-2.31.77-1.25,1.15-2.11,0-3.49-1-1.19,1.34-2.82.72-3.53-1.41-1.63-.46-2.82.23-3.95.92-1.49,1.47-2.47-.74-3.27-.64-.23-.6-1.56,0-2.22a10.24,10.24,0,0,1,2.55-2.28c.61-.36,1.27-.55,1.11-1.32-.42-2,.52-3.89,1.12-5.67,1.09-3.17.57-6.44.76-9.61.25-4.08,2.2-8.2.23-12.39a2.52,2.52,0,0,1,.32-2.82c1-.85-.68-1.58.19-2.49a4.51,4.51,0,0,0,1.33-3c-.22-2.65-1.16-5.26.08-7.89-2.17-2-.1-4.09.25-5.85a30.11,30.11,0,0,0,.76-5.74c0-3-.06-6,0-9a20,20,0,0,1,.64-4.79c.93-3.4,1-7,1.3-10.59.13-1.72-1-2.56-2.42-1.7a23.68,23.68,0,0,1-7.16,2.74,23.21,23.21,0,0,0-5.9,1.94c-1.41.78-2.9,2-4.35,2-1.65,0-3.19,1.61-5,.29-.46-.34-2.13,2.42-1.65,2.62,2.56,1,.14,3.21,1.21,4.68.86,1.18-.55,2.46-1.2,3.4-1.13,1.65,2.45,1.84.8,3.57-.75.79-.38,2.15,0,3.3.56,1.94,0,5.14-1.54,5.89s-2.32,2.45-3.93,3.21c-2.88,1.36-3.46,4.77-5.61,6.89-.89.86.52,3.42-2,3.74,1.79,2.71-.44,4.13-1.87,5.78-1,1.15-.91,0-1.43-.54-.9-1-2.42-1-3.74-1.14-.23,3.78-3.39,1.72-5.08,2.32-2.43.86-3.07-.1-4.47-2.59-.57-1,.23-1.54-.07-2.48-1.23-3.81-1.34-7.93.64-11.41,1.5-2.65,3.17-5.28,4.76-7.9,1.71-2.84,3.47-5.86,3.12-9.46,1.19-.19.89-1.13,1-1.91.24-1.76,0-3.52.41-5.34.28-1.4-.48-3.36-.4-5.09s-.6-3.66.82-5.21c-1.91-2.71-1.31-5.91-1.61-8.9-.39-3.88-1.79-7.64-1.26-11.63a20.14,20.14,0,0,0-.25-5.89c-.36-2.08-.14-4.32-.84-6.2-1.33-3.58-1.41-7.33-1.72-10.94-.57-6.61-.17-13.31-.17-20a18.82,18.82,0,0,1,.06-2c.06-.52.42-1.09,1-.84,2.07,1,4.09.1,5.78-.6,2-.82,4.37.3,6.05-1.44,1.61,1.12,2.93-.43,4.26-.45,2,0,4.12-1.63,6.16,0,.85.69,1.77.28,2.75-.08,1.72-.64,2.82.06,3,1.76.13,1.32,0,2.66,0,4,.11,1.48-.78,3.35,1.61,4,.67.19.57,1.58.31,1.76-2.27,1.63,1.48,4.12-.86,5.69a2.05,2.05,0,0,0,.52,1.24c1.74,1.38,1.57,2.59,0,4-.56.49-.71,1.43-1.15,2.1-.52.82.2.71.57.87,2,.87-.25,1.7-.15,2.67.16,1.63,3.11,1.15,2,2.77s-.08,3.6-.95,4.67c-1.17,1.44.85,2.95-.12,3.36-1.83.78-1.13,1.61-.77,2.78.73,2.41,2.27,5-.68,7.06-.07,0-.08.31,0,.37,2.08,2.22-.67,2.15-1.43,3-.46.5-1.17,1.25-.74,1.66,2.29,2.2-1.22,5,.83,7.12-1.76,1.27.5,3.3-.88,4.64,1.16,1.94-.36,3.48-.72,5.21-.17.81,1,1.72,1.3,1.36,1.22-1.63,2.54.55,3.92-.38,1-.64,2.59-.4,3.34-1.68,1-1.7,2.32.84,3.78-.53,1.92-1.8,5-2,7.09-4a2.5,2.5,0,0,1,2.39,0c1.34.88,1.85.45,2.19-.84,2.34,1.18,4.26-.69,5.33-1.79,1.3-1.34,3,1.75,3.4-.77a29.59,29.59,0,0,0,7.43-2.56c1.54,2.2,2.93-.76,4.42-.14,2.19-2.12,5.28-2.14,7.82-3.38a13.18,13.18,0,0,1,6-1.66c3,0,7.09-4.42,7-7.36a.83.83,0,0,0-.56-.55c-2.06-.22-.55-2.36-1.74-3.12-1.37-.9-1.88-2.13-.71-3.61-1.08-1-1.37-2.54-2.05-3.72-.83-1.45-.67-2.72-1-4.1s-1.89-2-1.88-3.84c0-1.29-1.15-2.59-1.79-3.89,2.12-1.86-1.49-1.7-1.07-3.11.62-2.11-1.72-.5-1.79-1.19-.23-2.65-2.47-4.11-3.44-6.27s-1.43-4.48-2.7-6.57c-.9-1.47-2.3-2.48-3.09-4-.67-1.29-1.23-2.64-2-3.86s-1-2.76-2.68-3.15c.17-2-1.6-2.49-2.67-3.53s-.59-2.67-1.76-3.93c-2.81-3-5-6.56-7.53-9.79-2.95-3.72-5.95-7.35-9.2-10.81-1.79-1.91-4.23-3.27-5.2-5.91a1,1,0,0,0-.72-.57,7.21,7.21,0,0,1-5.3-3.56c-1.26-1.9-3.89-1.8-5.24-3.58-.46-.62-.91-1.79-1.36-1.79-2.72,0-4-2.91-6.47-3.1-2.75-.2-4.29-2.18-6.15-3.74a2,2,0,0,0-1.4-.27,3.72,3.72,0,0,1-3.06-1.27c-2.28-2-5-2.19-7.83-1.46-.59.15-1.08.79-1.57,0-.82-1.33-1.76-.44-2.78-.4-1.69.06-2.88,1.39-4.69,1.21-2.05-.2-2.9,1.12-2.28,3,.35,1.06,1.09,2,1.52,3,.94,2.27.73,5.87-.7,6.34-2.17.72-3.37,2.55-5.1,3.71a12.47,12.47,0,0,1-9.78,2c-2-.34-2.73-1.68-4-2.62-1.06-.78-1.79-.69-2,.79a4,4,0,0,1-.31,1.4c-2.41,4.34-4.63,11.26-4.27,15.49.33,3.7.06,7.77,2.68,10.81.89,1-.76,2.55,1.32,3.23,1.7.55-1.25,2.4.19,3.61,0,0-.57.6-.14,1.17,2.19,2.86,3.09,6.24,3.85,9.7.83,3.76,3.43,6.75,4.45,10.52a60.33,60.33,0,0,0,5.6,13.67c.78,1.37,1.88,2.7,1.63,4.49a2.46,2.46,0,0,0,.65,1.78c2.83,4.17,5,8.62,5.4,13.75a4.14,4.14,0,0,0,1.16,2.6c1.74,1.47,1.47,3.77,2.64,5.53s1.2,4.22,2.08,6.3c1.06,2.48,1.42,5.52,2.82,7.54,1.68,2.42,1.87,5.1,3,7.55S579.52,611.48,580,614Zm229.86,11.78c.09.21-1.61,1.17.3,1.17s3.52.39,4.09,2.63c.13.54.84,1,1.39,1.37,2.38,1.47,5.82,1.46,6.78,4.9.28-.18.73-.56.8-.5,2.22,1.85,6,1.46,7,5.15.22.9,4.82,3.28,6,3.87a43.8,43.8,0,0,1,5.67,3.29c.49.34-.26,1.83.64,2.06.56.14,1.18-1,2.18-.48,2.12,1,4.25,2.35,5.11,4.43.6,1.43,1.81,1.23,2.56,2,.31.32,1.79-1.14,1.72.77,3.26,2,5.43,5.26,8.81,7.21,1.29.75,2.06,2.6,3.93,2.84-1.51,2.32,1.11,2.67,2,3.67,1.19,1.39,1.62,3.5,2.7,4.39,2.72,2.26,5.18,4.51,6.57,7.82a.45.45,0,0,0,.88-.14c-.27-2,1.35-2.88,2.42-4.08a7.67,7.67,0,0,0,1.57-1.89c1.46-3.82,4.8-6.48,6.23-10.36.38-1.06,2-1.6.89-3.18a1.17,1.17,0,0,1,.65-1.64c2.25-.8,3.36-2.11,2.33-4.6-.14-.34.16-1,.4-1.34.62-1,2.18-1.48,1.11-3.32-.47-.81,1.38-1.47,1.9-2.55a8.43,8.43,0,0,0,.55-3.34c.15-1.78-.82-4.13,2.49-4.18.44,0,1.45-1.81,1.21-2.33-2-4.21,3.25-7.43,1.46-11.62-.42-1,2-.49,1.8-1.83a5.9,5.9,0,0,1,2.58-6c.64-.49-.27-.89-.18-1.17.34-1,1.14-2,1.21-3,.08-1.19-1.14-2.45-.51-3.61,1.45-2.66.48-5.53,1-8.2a44.49,44.49,0,0,0,.94-10.21c1.61-1.08,0-2.75.55-3.74,1.71-2.94.64-6.42,2.15-9.33-.94-1.47-1.08-2.67,1.06-3.08-1.29-3.24.37-6.13,1-9.16.17-.79-2.06-.15-1.33-1.23,2-2.92.68-6,.21-8.71a27.88,27.88,0,0,1-.27-5.6c0-1.67.79-3.29.49-4.77s2.09-3.55-.72-4.62c2.42-2.08.12-4.52.25-6.75a19.92,19.92,0,0,0-.53-7.09c-1.52-4.51-1.33-9.08-1.35-13.66a2.1,2.1,0,0,0-.14-1.18c-1.93-3.77-3.49-9-3.3-12.87.1-2-1.76-3.79-.46-5.83-2.25-2.79-3.48-5.81-2-9.39.15-.35.2-.67-.25-.7-1.88-.14-1.42-1.55-1.38-2.6a13,13,0,0,0-2.62-8.56c-.59-.77-1.68-1.3-1.38-2.47.5-2-.69-2.05-2.11-2.09-.29,0-.89-.91-.56-1,4-1.44-2-1.38-.35-2.4-.91-.77-.62-4.35-3.16-1.33-.52.62-.91-.12-1.11-.41-1.22-1.74-3.83-.86-5.09-2.78-.25-.39-2.14,1.33-3.18-.4-.74-1.23-1.69-1.08-2.91-.29-.88.58-2.17.83-2.64-1-.23-.89-1.32-2.19-2.09-1.61-1.73,1.31-2.94-.61-4.53-.23a22.18,22.18,0,0,1-5.47.08,18.6,18.6,0,0,1-3.43-.24c-2.86-.59-5.61-2.12-8.67-.79a2.63,2.63,0,0,1-2,0c-5-2.46-10.56-.9-15.78-1.88-2.2-.42-4.65.46-6.37-1.81-.45-.6-1.35.37-1.7.26-3-.88-6.16,1.14-9-.55-1.88-1.13-3.66.61-5.41-.12-2.14-.9-4.16-2.49-6.63-.89-1.72-1.36-3.83-.57-5.67-1-1.64-.43-3-2-5-1.21-2.46-2.26-5.84-1.55-8.71-2.56-2-.7-4.54,0-5.68-2.63-.19-.43-.36-.39-.75-.09-2.2,1.71-3.9-.71-5.9-.83-.53,0-1.15-.89-1.74-.41-1.4,1.15-2.5.54-4,.13s-3.12-.43-4.7-.72c-1.43-.26-3.36.47-5.09.39-1.53-.07-2.51,1.43-4.21,1.07a17.72,17.72,0,0,0-12.88,1.69c-.64.37-1.6.17-2.41.27-.64.07-1.5,0-1.87.34-3.29,3.3-7.49,5.65-10.17,9.49-.63.91-1.72.91-2,1.8-.27.73.2,2-.67,2.2-1.37.31-1.34,1.11-1.45,2.15-.19,1.73-1.24-.08-1.59.29-.77.8-.19,1.92-.43,2.86-.08.28-.33.73-.53.75-2.13.15-2.12,2.29-3.2,3.4-.7.71-2.06,2-2,2.09,1.44,1.9-.76,1.55-1.27,2.1-1.35,1.48-3.06,2.68-4.18,4.3-3.27,4.73-6.87,9.2-10.44,13.7-.92,1.16-2.35,1.83-3.07,3.44-.57,1.29-1.23,3.06-2.76,3.93-3.09-2-.19,2.88-2.65,2.3-1.49-.35-.38,2-1.36,2.72-4.39,3.41-7.13,8.23-10.4,12.58-1.41,1.89-1.82,4.87-3.57,6.09-3,2.11-3.11,6.27-6.38,7.94.67,2.65-1.73,4.09-2.53,6.16s-2.54,4.11-3.91,6.1c-.41.59-.92,1.11.25,1.23,2,.2,3.53,1.38,5.14,2.53,1.93,1.39,3.94,2.89,6.35,3.27a6.66,6.66,0,0,1,3.8,1.94,24.33,24.33,0,0,0,3.53,2.57c1.3.84,2.65,1.59,4,2.38,1.69-1.9,1.94,1,3.07.91a6.42,6.42,0,0,1,5.75,2.53c.73.83,1.53,1.3,2.5.32.62-.63.93.08,1.13.37,1.7,2.47,4.27,3.45,7,4.23,5.17,1.48,5.17,1.48,9.19,4.91a5.48,5.48,0,0,0,2.1,1.13c1.87.57,4.18.54,5.09,2.87,2.11-.87,2.17,2.17,3.85,2,1.43-.1,1.85,1.4,2.88,1.7a20.07,20.07,0,0,0,3.9.34c1.33.1-1.18,2.43,1.17,2,1.4-.27,2,1,2.83,1.73s1.55,2,2.85.68c.63-.61.92.06,1.15.35,2.58,3.3,6.84,4.47,9.58,7.56,1,1.14,3.52.09,3.64,2.51.79-.44,1.61-1.51,2.46-.19,2.56,4,8.12,4.06,10.6,8.14,3-.8,4.81,1.8,7.25,2.62,1.39.48,3.7.27,3.48,3.07-.06.82.83-.47,1.43-.24a9.82,9.82,0,0,1,4.9,4c1,1.54,3.13.6,3.7,2.37a.93.93,0,0,0,.83.31c1.09-.63,1.74-.76,2.24.77.37,1.12,2.45,2.62,4.47,3.58s4.29,1.42,5,4a.66.66,0,0,0,1.14.29c1-.81,1.37-.46,2.19.57s2.37,2.76,4.45,1C809.3,623.57,810.1,624.37,809.85,625.77ZM579.8,871c3.29-.15,6.1-.31,8.46,1.66a1.23,1.23,0,0,0,1.36.09c5-1.91,10.46-1.24,15.57-2.74,3.37-1,6.93-1.31,10.29-2.31,1.09-.32,2.13-.94,3.26-.71,2.23.44,4.2-.51,6.18-1.11s3.5-2,5.65-.95c.23.11.87,0,.9-.17.76-2.71,3.42-1.86,5.13-2.76.41-.22,1.79,0,.88-.92a25.69,25.69,0,0,1-4-6.06,7.09,7.09,0,0,0-2.84-2.75c-1.49-.74-2-.75-.08-1.68.53-.26-.74-1.52-1.68-1.59-2-.14-3.15-.84-2.34-3,.22-.58.19-1-.33-1-4.12-.1-4-3.92-5-6.29-.63-1.43-1.31-2.84-2-4.27-1.19-2.62-3.94-3.86-5.1-6.41-.1-.23-1.1-.54-.77-.68,3.51-1.58-1.17-2.17-.36-3.36a66.57,66.57,0,0,1-4.1-6.43c-.71-1.17-.24-1.64,0-2.46a1,1,0,0,0-.27-.86c-.51-.33-1,1.12-1.51.18-.39-.66.2-1.19.55-1.75.56-.91.22-1.45-.82-1.75s-.9-1.06-.45-1.9c.65-1.21-.18-1.61-1.18-1.72-.25,0-.71.55-.8.48-1.27-1,.79-3.53-1.86-3.91-.48-.07-.48-.37-.21-.71,1.38-1.76-.49-2.92-.67-4.27-.29-2.13-4.13-3.15-1.8-5.9.09-.1-.16-.74-.35-.8-1.57-.47-3.07-1.4-2.46-3.07.86-2.36-2.38-1.69-2.08-3.39.33-1.87-.62-3.14-2-4.25a2.28,2.28,0,0,1-1-2.12c.45-4-3.77-6.39-3.44-10.32-2.8-2.71-3-6.62-4.46-9.93-2.29-5.26-5-10.31-7.1-15.67-.86-2.2-2.33-4.23-2.54-6.62s-1.6-4.3-3.15-6a8.59,8.59,0,0,1-2.21-3.74,76.65,76.65,0,0,0-3.74-11.36c-.89-2.27-.37-4.73-1.12-7.15-.63-2-2.07-3.77-2.15-5.82a26.34,26.34,0,0,0-1.79-8c-.88-2.46-1.93-4.71-1.65-7.49.11-1.16-2.09-2.66-1.39-3.83,1.37-2.28-2-2.41-1.45-4.09.06-.19-.58-.71-.54-.76,2-2.23-.56-4.23-.3-6.4.39-3.29-2.47-6.55-.18-9.91,0,0-.31-.17-.36-.31-1-2.44-.79-2.4-.53-3.8.14-.78,1.31-1.26.7-2.09-1.12-1.53-.2-3.27-.64-4.81-.53-1.88,1.62-3.73.61-5-1.55-2,1.37-2.93.48-4.59-.56-1,.73-1.73.93-2.67a2.52,2.52,0,0,0-1.44-2.89c-.94-.53-1.46.35-2.08.86-.86.72-1.37,2-2.74,2a43,43,0,0,0-6.21.78c-.57.07-1.32-.78-1.91.16-.89,1.43-2.53,1.2-3.75,1.82a6.18,6.18,0,0,1-4.35.4c-.47,2.34-2.4,1.52-3.87,1.91-4,1.07-7.92,2.44-11.88,3.63a5.65,5.65,0,0,0-2.81,1.88c-1.06,1.29-2.07-.67-3.45.1-1.2.66-2.78,1.86-3.72,1.8-1.49-.1-2.62-.47-3.67.89a1.65,1.65,0,0,1-1.27.6c-3.55-.57-6.26,1.17-9,3-.77.53-1.58,1.44-2.66,1-1.51-.63-2.61,1.7-3.61.83-2.16-1.87-1.43,2-3.26,1.36-1-.38-3,.51-3.71,1.84-1.1,2.15-2.77-.41-3.7.65-1.42,1.62-3.77,1.17-5.16,2.44a7.08,7.08,0,0,1-5.83,2,1.06,1.06,0,0,0-.79.48c-1.83,2.87-6.08,2.27-7.72,5.38a13.38,13.38,0,0,0-9.31,7.42,2.94,2.94,0,0,1-1.84,1.55c-1.43.18-1.36,1.4-1.7,2.15-1,2.16-2.19,4.41-2.41,6.71s-2.88,4.08-1.18,6.62c-2.22,4.64-2,10-4.46,14.6-.33.6-.75,1.16-.18,1.75.87.9.17,1.66.09,2.58-.32,3.39-1.91,6.49-2,9.87,0,1-.24,1.94-.33,2.88-.12,1.23-2.41,1.06-1.53,1.58,1.31.76,1.92,1.76,1.34,2.62-.95,1.4-.75,2.8-.91,4.25-.26,2.38-.82,4.75-.93,7.13-.13,2.62.18,5.28-1.66,7.49-.27.33-.25.47.05.82a2.08,2.08,0,0,1,0,3.11c-1.22,1.14,1.19,2.36-.23,3.38.23,3.78-1.81,7.34-1.14,11.13.24,1.31-1.13,2.33-.43,3.55a4.44,4.44,0,0,1,.28,3.84c-1.3,2.77.35,5.3.18,7.94-.06,1,.69,1.76,0,3s.93,2.77,0,4.43,1,3,1,4.65c0,1.08,1.4,1.94.91,3.18s1.73,2.26.11,3.5c-.13.1.1,1.07.4,1.27,1.47,1,1.53,2.89,2.86,4a14.1,14.1,0,0,1,5.2,8c.11.5.22,2.07,1.08,1.7,2.24-1,2.87,1.2,3.17,2,.67,1.85,2.72.11,3.49,2s1.36,4.81,4.51,4.89c.06,0,.09.29.17.42.94,1.57,4.68,5.49,5.83,6.06.68.34,2.91-.76,1.38,1.55,1.85.2,2.62,3.09,4.5,2.38,2.49-.95,1.11,2.8,3.21,2.15,1.7-.53,3,.46,4.42,1.53.72.54-.28,2.71,2,1.91.87-.31,1,2.19,2.32,2.38a7.43,7.43,0,0,1,3.18,1.08c1.35.91,3.68.8,3.32,3.41-.06.41.37.55.65.29,1.53-1.43,2.22.13,3.27.8,2.18,1.38,4,3.55,6.86,3.55,1.25,0,.83,1.39,1.46,1.65s1.52-1.16,2.08-.53c2,2.28,5.39,2.48,7.22,5,.48.65,1.2,1.33,2.07.6,1.46-1.21,2.57-.37,4,.19,4,1.59,7.88,3.89,12.55,3.18a5.88,5.88,0,0,1,3.67.66c2.58,1.59,10.66,4.73,13.24,3.77,2.36-.87,4,.23,5.88.65a8.22,8.22,0,0,0,4.5.22c1.51-.41,3.7-1,5.31-.27,2.36,1,4.77,0,7.17.76,1.48.49,3.62.82,5.23-.55a1.7,1.7,0,0,1,1.86-.24c1.54,1.59,4,.2,5.44,1.77C576.28,870.25,578.39,871.34,579.8,871ZM747,434.26c0,1,.38,2.19-.07,2.86-1.06,1.62-.3,2.12,1,2.92a2.79,2.79,0,0,0,3.43-.12c1.27-1,2.28-1.27,3.31.19.69,1,1.25.59,1.89-.1s1.32-1.55,2-.79c2,2.16,5.54-3,6.85,1.59.39-.28.77-.56,1.15-.86a2,2,0,0,1,1.54-.51c2.1.08,4.17.28,6.25.42,1.54.1,2.86,1.55,4.12.94,2.34-1.13,2.44,1.58,3.78,1.8a36.92,36.92,0,0,0,3.93.88c3.45.25,6.83,1.25,10.28,1.75,1.56.22,2.91,2.51,4.41-.15a2.1,2.1,0,0,1,1.78.24c1.31,2.32,4.06,1,5.69,2.42,1.38-1.05,2.55.61,3.91.28s2.4,1.07,4,.09,2.27,1.58,3.72,1.87a2.68,2.68,0,0,0,2.63-1c.33-.35,1-1.34,1.34-.23.6,2.06,1.44,1.1,2.5.53a3.39,3.39,0,0,1,1.91-.18c.86.12.33,1.59,1.32,1.61.7,0-.22-1.57,1.36-1.29s3.41.16,4.66,1c1.61,1.09,3.5.15,5.14,1.45,1.09.86,3.08-.44,4.87,0,1.44.37,3.17-1.93,4.86,0,1.77-.79,3.29.92,4.72.72,2.18-.3,4.38,1.28,6.26.14,1.6-1,2.54-.6,3.27.63,1.07,1.79,2.9-1.26,3.67.66,1,2.46,3.06-.89,4.17.89.15.23.94.07,1.43.06.15,0,.38-.05.43-.15a3.53,3.53,0,0,0-.16-4.12c-.13-.16.46-.76.49-1.17.11-1.48.63-3.22,0-4.4a21.54,21.54,0,0,1-1.61-6c-.34-1.93.21-4.16-.2-6.35a46.29,46.29,0,0,0-2.61-9.7,15.1,15.1,0,0,1-1.52-6.05c0-1.72,0-4-1.07-5-2-1.94-1.22-4.72-2.81-6.6.52-3.3-.76-6-2.7-8.56-.58-.75-.27-1.6-.35-2.4s.24-1.74-.48-2.34a6.79,6.79,0,0,1-2.32-5.61c.3-2.54-2.25-3.36-2.19-5.38.1-3.17-2.8-5.47-2.41-8.8.1-.83-1.54-1.51-1.81-2.8-.18-.87-1-2.3-1.48-2.29-2.19,0,.3-2.06-1.13-2.18s-1-1.37-1.24-2.26-2-.46-1.94-1.87a6.1,6.1,0,0,0-.25-2.42c-.32-.78-1.38,1.1-1.71-.24-.19-.78,0-1.67-.11-2.48a2.75,2.75,0,0,0-.88-1.17,30.48,30.48,0,0,1-4.09-6.09,37.29,37.29,0,0,0-7.38-9.3c-3-2.61-3.72-7.36-8.21-8.5-.28-.08-.29-.93-.6-1.26a8.22,8.22,0,0,0-2.54-2.3c-1-.4-1.83-1.26-3.15-1.21s-1.74-1.12-2.22-2.28c-.7-1.71-1.84.65-2.81-.07s-1.43-2.27-2.79-1.19c-1.72,1.36-1.7-1.24-3.1-1.09-3.2.34-6.58-2-9.67.62-2.23-1.55-3.68.81-5.47,1.26a32.52,32.52,0,0,0-7.87,3.47c-2.72,1.52-4.7,4.4-6.72,6.82a10.87,10.87,0,0,1-3.9,3.33,2.31,2.31,0,0,0-1.61,2.05c-.29,1.53-.72,3.41-1.79,4.32-1.29,1.11.18,2.6-1.23,3.62a7.27,7.27,0,0,0-2.74,3.92c-.46,2-2.47-.42-3.1,1.69-1.33,4.44-4.4,8.21-5.62,12.76-.54,2-.41,4.24-1.22,6.1-1.54,3.56-1.32,7.58-3.15,11.05-.31.6.09,1.59.21,2.39a14,14,0,0,1-1.55,7c-.47.67-.37.93-.07,1.61a5.06,5.06,0,0,1,.05,4.3c-2.74,5.46-.66,11.63-2.66,17.19-.12.33.3.89.55,1.3.6,1-1.28,1.52-.36,2.57s1.35,1.78-.56,2.46c-1.17.41,1.07,1.69.17,2.33-2,1.4-.66,3.63-1.56,5.25C749,430.56,747,432.42,747,434.26Zm-320.34,316c.48-3.31-1.6-6.92,1.3-10a1.46,1.46,0,0,0,0-1.43c-1.35-1.4.34-2.63.14-4-.1-.67.88-1.46.86-2.18a60.13,60.13,0,0,1,2-15.39c.38-1.65.11-3.41.63-5.15.46-1.56.13-3.37,1.35-4.71s-.27-3.14.63-4.78c.56-1,1.54-2.44.78-3.86-1.06-2,1.33-2.34,1.68-3.68,1-3.7.35-8,3.88-10.78.13-.1-.06-.61-.1-.93-1.73.29-2.09-3.22-4.42-1.55a2.15,2.15,0,0,1-2.32-.32,8.63,8.63,0,0,0-5.48-1.65c-1.58-2.39-4.74,1.08-6.22-1.67-3.46,1.45-6.22-2.39-9.64-1.26a86.27,86.27,0,0,0-20.38-5.24c-1-1.81-2.5.5-3.81-.48s-2.88.15-4.3-.57-2.58.48-3.75,1.18c-.23.15-.8.17-.92,0-1.22-1.53-2.34,0-3.43,0-2.28-.09-3.95,1.93-5.83,1.71-2.89-.34-5.29-.09-7.39,2-.21.21-.71.47-.83.38-2.36-1.76-3.27,1.11-4.81,1.7-.86.34-.89,2.67-2.94,1.69-.05,0-.71,1.33-1.16,2s-1.44.59-2.24.73c-1.55.28.23,1.23-.27,1.67s-1.62.32-1.71,1.46a.89.89,0,0,1-1,.81c-1.57-.17-1.82.68-2,2.06s-1.5,2.13-2.56,2.87c-.5.35-1.47.28-1.29,1.13.44,2.15-1.73,3-2.32,4.71-.54,1.56-1.44,3.17-2.14,4.81-.6,1.4-1.1,3.23-2.11,4.17-1.49,1.4-.48,3.2-1.49,4.52-.46.6-1.49,1.64-.89,2.09,1.64,1.24-.66,2.42.35,3.93,1.23,1.83.94,4.44,0,6.62a2.1,2.1,0,0,0,0,2.2,10.54,10.54,0,0,1,1.6,4.52c.14,1.67,1.75,3.26,1.74,4.89s3,2.09,1.29,4c2.82,3.57,4.8,7.72,7.59,11.28.57.73,1.28,1.2,1.29,2.2,0,1.31,1.5.82,2,1.83,1.85,3.76,2.6,4.1,4.72,6.2,1.49,1.47,3.37,2.24,4.89,3.75a192.9,192.9,0,0,0,15,13.22,34.9,34.9,0,0,0,5,3.88,63.1,63.1,0,0,1,14.54,10.8c.57.56,1,1.43,2,1.28,2.66-.42,4,1.64,5.72,3,.29.24.41.95.91,1,3.41.12,5.75,2.63,8.65,3.76,2.18.84,3.69,2.68,6,3.2,1.45.33,3.23-.62,4.29.55,1.68,1.84,4.2,1.59,6,2.91,1.47,1.06,1.06-.32,1.16-1s-.77-1.62-.7-1.69c1.43-1.49-1.34-1.73-.83-2.53,1.53-2.33,1.54-4.29-.35-6.52a3.59,3.59,0,0,1-.5-3.38c.26-.69-1.56-2.45-1.28-2.79.92-1.14.18-2.72,1.29-3.65.31-.26.09-.45-.07-.81-1.72-4,.78-8.54-1.41-12.54,0-.05.17-.27.28-.38,1.28-1.27-.18-3.36,1.39-4.59.31-.24.07-.84-.14-1.34a10.19,10.19,0,0,1,.22-8C425.86,755.69,426.09,752.93,426.64,750.29ZM656.09,598.53a10.78,10.78,0,0,0,.69-.93c.05-.08,0-.28-.13-.39-1.89-2.71-.07-4.64,1.42-6.63.4-.53.88-1,1.33-1.49.94-1.05-.32-1.78-.6-2.48-.41-1.05-1,.18-1.33.48a5.37,5.37,0,0,1-2.16,1c-2.17.63-4.23,2.15-6.38,2.23-2.42.09-4.12,1.22-6,2.28a2.29,2.29,0,0,1-1.86.39c-1.56-.62-3,1.44-4.49.22-1.35,1.26-2.76,2.18-4.79,1.92-.74-.1-.53,1.08-.85,1.49-1.37,1.74.65,3.5-.26,5.4a11.38,11.38,0,0,0-1.26,3.4c-.07,1.26.84,2.44-.07,4-.52.89.39,2.5.14,3.67-.41,1.85,1.7,3.89-.45,5.55,1.1,3.06-1.15,6.29.44,9.28.46.87-.07,1.1-.44,1.55-.78,1-3,1.82-.3,3.16a6,6,0,0,0-.7,1.7,35.06,35.06,0,0,0,0,6.48c.29,2.17-1.93,4.24-.11,6.43a1.44,1.44,0,0,1-.21,1.36c-2.16,1.28-.62,3.08-.73,4.63-.14,1.81.32,3.86-.39,5.36-.79,1.66,1.51,3.06-.12,4.42.65,1.61-.43,3.15-.2,4.7a10.62,10.62,0,0,1-.48,4.95c-1,2.7-.37,5.8-2.19,8.23-.26.36-.54,1.19,0,1,2.21-.76,2.25,1.85,3.85,2.24,2.11.5,3.95,2,6,2.68,1.21.36,1.66,3,3.57,1.28.09-.08.57.21.83.38.81.53,2.93-.49,3.48-1.23,1.13-1.52.18-3.25.77-4.78A33.62,33.62,0,0,0,644.1,674c.32-2.87,2.76-5.47,1.1-8.63a.65.65,0,0,1,.37-.29c2.06-.23.08-2.71,2-3.42.94-.35-1-2.92,1.06-3.87a.88.88,0,0,0,.2-1.32c-1.16-1.37-1-2.55,0-4,.79-1.14-1.76-2.33-.13-4,.7-.71-.15-3.38.45-3.67,1.83-.91.65-2.29,1.06-3.21a7.65,7.65,0,0,0,0-7c-.23-.46-.31-1.19.16-1.29,1.8-.38,1.06-1.26.67-2.28s.37-1.84.89-2.7c.37-.62.92-1.72.66-2.06-1-1.41-.22-3-.64-4.33-.46-1.55,2.35-2.89.18-4.43,1.25-1,1.26-2.77,1.5-4,.5-2.51,1.25-5,1.55-7.58S657.55,601.18,656.09,598.53Zm-55-63.12c.13-3.07-1.83-4.43-4.61-3.61-1.09.32-1.8,1.48-3.13,1.22-3.65-.7-7,1.46-10.69,1.06-2-.23-2.39.62-1.26,2.74.42.79-.13,1.09-.16,1.61-.16,2.58-1.24,5.15-.72,7.66.3,1.46-.85,3.1.22,4.1,1.4,1.29-2.06,3.46,1,4.13-1.29,2-.41,3.87.16,5.9.31,1.13,1.11,2.88.64,3.53-1.56,2.12,1.31,2.49,1.19,2.65-1.56,2.15-.34,4.07.3,6,.41,1.26-1.65,2-.81,3.13,1.54,2.15.51,4.51.77,6.75.15,1.32-.44,3,.16,3.93a6.74,6.74,0,0,1,.8,4.74c-.27,1.94,1.13,3.35,1.1,5.2-.1,6.16,0,12.32,0,18.48,0,1,.08,2-.85,2.7a4.2,4.2,0,0,0-1.24,2.55,17.54,17.54,0,0,1-5.36,9,12.49,12.49,0,0,0-2.17,3.22c-.4.65-.6,1.4.11,1.69,2.73,1.12,2.18,3.93,3.16,5.93.13.28-1,1,.31,1.19a.82.82,0,0,0,1-.85c.06-2,0-4,.06-6,0-1-.21-2,1.34-2.11,1.87-.11,1.62,1.13,1.68,2.29.06,1.44-.42,3,.84,4.24a4.12,4.12,0,0,1,.58,1.29,1.25,1.25,0,0,0,.56-1.17c.41-6.36,3.66-10.56,9.66-12.62.65-.22,1.36-.23,1.3-1.11-.15-1.95.5-3.94-.42-5.85a8.58,8.58,0,0,1-.15-6.7,9.64,9.64,0,0,0,.57-3.81c0-1.46.3-2.93-.32-4.39-.73-1.71,1-2.77,1.34-4.23a2.75,2.75,0,0,0,0-.5c0-1.83-.66-4.09.17-5.39,1.18-1.83-.08-3.52.68-5.29.66-1.55.12-3.6.15-5.43a8.69,8.69,0,0,1,.26-2.91c2.41-6,1.59-12.45,2.66-18.64a21.46,21.46,0,0,0,0-8c-.58-2.74,0-5.28.11-7.9a5.79,5.79,0,0,0,0-1.5c-.33-1.47-1.21-2.74-.08-4.44C602.82,538.57,601.09,537,601.1,535.41Zm-46,96.54c1.72.12-1.09-2.15,1.15-2.09,1,0,1.94-1.21,1.76-2.58a3.51,3.51,0,0,1,1.23-3.07c.65-.68.94-1.7,1.55-2.43a7.81,7.81,0,0,1,2.7-2c.88-.42-1-1.35-.27-2.44s2.37-2.82,1.48-3.76c-1.44-1.53.18-2.84-.46-4.38-.71-1.74-.16-4.12.16-6.27s1.82-4.5-.34-6.53c.55-2.53-.21-5.28.79-7.65.89-2.11,1.19-3.87-.33-5.69-.46-.55-.37-1.22-.54-1.84-1-3.37-2.58-6.5-3.48-9.93-.39-1.51-2.14-2.86-2.43-4.63s-2.29-3.24-1.91-4.84c.55-2.38-1.87-2.66-2.27-4.37-.53-2.3-1.89-4.41-2.9-6.6-.34-.73-1-1.78-1.58-1.44a3.42,3.42,0,0,0-1,2.33c1.7,1.17-.8,2.47.39,3.93,1.55,1.9-.13,4.74,1.12,7.06.54,1-1,1.85-1,3.15s1.65,2.25.36,3.51c.82,3.31-.18,6.74.72,10.09.59,2.23.89,4.61-.59,6.72-.5.71.85,1.14.08,2.05-1.05,1.24,2.17.32,1.08,1.61-.84,1,0,2.39-1,3.21-.35.28-.41.53-.11.8,1.19,1,.1,2.67.86,3.72,1.27,1.77-1.14,2.61-.87,3.75a9.4,9.4,0,0,1-.16,3.41c-.33,4.06-.06,8.12-2.13,11.9-.57,1,.5,2.81-.89,3.65-1.77,1.07-.18,2.73-.75,3.63-1.06,1.66-1.58,3.74-2.65,5-1.31,1.59-1.53,3.73-3.17,5a1.73,1.73,0,0,0-.27,2.62c.66.54,1.11-.82,1.79-1.14.43-.2,1-.52,1.35-.39,2.59,1,4.14-4.19,7-1.18,0,0,.47-.41.73-.61C552,631.93,552,631.93,555.08,632ZM622,698.26v2c0,3.16-.13,6.33,0,9.49a4,4,0,0,1-2.47,4c-1.53.76-2.17-.7-2.63-2-.21-.59-.76-.56-.89,0-.31,1.39-.91,1-2.07.92-1.59-.19-3.29.48-4.93.85-.26.06-.5.43-.66.71-.49.82.28.7.66.8.94.24,1.6.93,2.68,1.07,5.71.78,10.92,3.53,16.72,4.14,3.18.34,3.14.76,4.33-1.6.29-.57.57-1.16.81-1.75,1.41-3.55,2-7.5,5.13-10.21.2-.17.32-.77.19-.89-1.18-1.21-.31-1.89.5-2.76.65-.69.83-2,1.56-2.39,1.86-1.12-.75-2.47.48-3.86.82-.92-1.22-1.09-1.78-1.34-1.89-.84-3.89-1.67-5.66-2.58-3.73-1.93-8.38-2.36-11-6.17-.26-.36-.49-.53-.65-.28a1.75,1.75,0,0,0-.3.88C622,690.92,622,694.59,622,698.26ZM577.75,610.4a2.39,2.39,0,0,0-.86-.37c-2.12,0-2.82-1.11-2.93-3.11-.16-2.84-2.21-5-3.26-7.48-.41-1-1.4-.21-2,.38s-.69,1.07.36,1.21c.55.07,1.14.57.83.93-1.49,1.73.68,3.7,0,4.83-1.43,2.26.49,4,.17,6-.12.72.39,1.49,1,.64,1.44-2.09,3.89-1.36,5.69-2.34C577.07,610.86,577.6,611,577.75,610.4Z"/><path class="c" d="M336.63,424c1.73.16,3.61-.54,5.12,1,.13.13,1-.18,1.2-.49a1,1,0,0,0-.31-1.32c-1.14-.6-3.32.63-3.49-.75-.29-2.43-2.27-.72-2.9-1.68-.77-1.19-2,.66-3-.65-.64-.86-2.24-.95-3.26-1.61a2.34,2.34,0,0,0-2.69-.2c-.88.63-1.05.92-1.4-.41-.3-1.15-1-2.3-2.63-.93a3,3,0,0,1-2.84-.09c-1.74-1.38-3.74-1.44-5.72-2a41.78,41.78,0,0,1-5.52-2.28,6.2,6.2,0,0,0-2.77-.53c-1.18,0-2.33.07-3-1.12s-1.64-1-2.63-.9a2.09,2.09,0,0,1-2.14-.87c-.73-1.12-1.82-1.2-3-1.16s-2.65.58-2.83-1.6c-.07-.79-.72.09-1,.32-.44.43-1.16.46-1.34.23-2.06-2.6-6.24-.81-8-3.89-2.2,1.41-3.26-.43-4.53-1.62-.8-.75-1.39-.44-2.08.2-.91.84-1.14-.58-1.89-.73-1.79-.33-3.45-1.71-5.2-1.77-2.25-.08-3.77-1.46-5.67-2.07-2.07-.66-1-2.18-1-3.24-.07-1.27,1.2-.68,1.91-.81,1-.18,1.75.45,2.62.93A12.37,12.37,0,0,0,273,395.4a3.62,3.62,0,0,1,2.66,1c.67.73.45,2.24,1.94.67.43-.45,1.13.26,1.66.68A12.15,12.15,0,0,0,285,400c1.47.13,3-.12,3.93,1.42.66,1.06,1.81.6,2.73.58,1.69,0,3.31-.11,4.37,1.55a2.32,2.32,0,0,0,.35.35c1.27-1.63,2.38-.4,3.64.09a3.74,3.74,0,0,1,2.27,2.79c.09.29.62.2.65-.22.11-1.2,0-1.6,1.51-.77,2.15,1.15,4.59,1.8,6.64,3.24a4,4,0,0,0,4,.33c1.75-.79,3.35-.28,3.66,1.06.43,1.84,1.42,1.07,2.26,1.06,1.72,0,3.29.19,4.57,1.53.29.31.59,1.49,1.35.58s1.94-.18,2.72-.71-.08-.83-.37-.82c-1.18.05-2-.84-3-1.18a19,19,0,0,1-5.91-2.75,35.44,35.44,0,0,0-7.23-4.1c-2.37,1.44-1.45-2.74-3.61-2.07-1.35.43-2.42-1.44-4-1.08-.35.08-1.26-.82-1.33-1.34-.15-1.35-.08-1.33-1.53-.77-1.95.75-6.33-2.78-7.24-4.84-.39-.87.2-.9.46-.87,1.56.19,3.33-.72,4.63.87,1.08-.84,1.37,1.66,2.84.53,1-.75.56,2.27,2.38,1.62a2.38,2.38,0,0,1,3,1.09c.73,1.34,2.16.47,3.05,1.08.54.37,1.36.55,1.62.84,2.54,2.86,6,3.93,9.39,5.18a7.13,7.13,0,0,1,1.63.83c1.44,1.06,2.57,2.36,4.73,2,.88-.13,1.95.8,2.88,1.36.41.24.72.66,1.05,0,.14-.27.17-.85,0-1-2.05-1.49-3-4.32-6.09-4.64-1.84-.19-2.52-2.89-4.64-3.22a1.76,1.76,0,0,1-.1-1.28c.4-.74,1.44-.31,2.08-1s1.23.49,1.29.74c.54,2,2.48-1.27,2.89.8a.78.78,0,0,0,.56-1.07,3.78,3.78,0,0,0-1.17-1.5c-2.17-1.43-4-3.33-6-4.85-1.27-.94-3.43-.68-3-3.17-1.67,0-2.22-1.91-3.56-2.26-2-.53-2.66-2.36-4.06-3.44-.22-.16-.15-.92,0-1.29a.89.89,0,0,1,1.28-.26c2.21,2.93,6,3.5,8.6,5.9s6.2,3.23,8.47,6c2.15-.26,1.16,2.36,2.72,2.89,1.29.45,2.32,1.6,3.5,2.39.78.52,1.64.9,2.4,1.44.32.24.52.32.7-.13a1.85,1.85,0,0,0,.1-1c-.29-1.73-3.21-.95-3-3.16-3-.41-3.54-3.61-5.81-5s-3.84-3.65-5.72-5.53-3.9-4.14-6-6c-1.94-1.66-2.61-4.84-5.84-5-1.15-2.33-2.65-4.32-5.25-5.19-1.57-4.52-6.28-5.88-9.19-9.07-2.22-2.42-3.94-5.3-6.89-7.15-2-1.27-1.76-4,.09-5.36a1.42,1.42,0,0,1,1.3-.05c.84.55-.38.68-.3,1a9.34,9.34,0,0,0,.83,2.4c.47.82.74-.09,1-.29.62-.47,1.29-.56,1.7.09C299,355.5,299.4,356,303,358c1.32-.69.6,3.52,2.63,1.09.27,1.34,1.29,1.83,2.37,2.49a7.11,7.11,0,0,1,2.64,3.34c.25.58.86,2.94,2.72,1.3.08-.07.66.24.65.29-.43,1.81.6,2.59,2.1,3.06-.24,1.76,5,.62,2.05,3.84,0,0,.05.25.14.33s.31.28.38.24c1.82-1,2,1.45,3.37,1.53,1.09.06,3.92,2,3.94,2.76,0,1.18.21,1.86,1.6,1.83.34,0,.9.59,1,1,.46,1.64.52,3.58,3.09,3.05.15,2.34,2.9,2.91,3.39,5.1.29,1.28,1.24,1.64,2.66,1,.48-.21,2.1.77,2.18,1.35.21,1.59,1.46,2.18,2.36,3s.43,2.77,2.36,2.48c.1,0,.36.24.34.33-.65,3.12,1.57,2.47,3.29,2.57.31,0,1.13.16.39.85a6.28,6.28,0,0,0-.55.7c2.1.07,1.7,1.75,2.14,3,.29.88,1.54.46,2.26.32s.68-1.14.48-1.7a36.17,36.17,0,0,0-1.57-3.34,15.46,15.46,0,0,1-1.33-2.94c-.16-.63-.53-1.8.77-1.92.73-.06,1.71-.42,2.16.59a19.16,19.16,0,0,0,3.59,5.52c.68.71.63,1.91,2.08,2.14a1.94,1.94,0,0,1,1.35,2.34c-.06.3-.08.8.09.94.91.73,2.58.56,2.84,1.95.21,1.11-.06,2.27,1.11,3.06s1.45,1.86.11,2.74c-1.77,1.16-2,3.16-2.84,4.82-.35.68-.56,1.2,0,1.72,1.88,1.62-.9,3.69.52,5.5.22.29-1.09,1.75-2.51,1.68-2.18-.11-.7.68-.45,1.5.42,1.32-.7,2.07-1.81,2.45-2.34.8-4.44-.62-6.52-1.18A17.76,17.76,0,0,0,347,430c-2.22-.11-4.72.74-6.25-1.8-1.27,1.38-2.36-.75-3.58-.2-1.5.68-2.75-1.13-4.33-.37-.48.22.14.81-.33.34-1-1-.42-2.22-.4-3.31,0-.82.94-.66,1.57-.66h3Z"/><path class="c" d="M329.89,433.15c1.54-.48,2.57,1.59,3.64-.12,1.07,2,2-.66,3.2-.1s2.66-.5,3.61.91a3.33,3.33,0,0,1,3.48-.76,7.37,7.37,0,0,0,3.2.07c2.14-.16,4.55-.94,6.59.8a1.93,1.93,0,0,0,1.87,0c1.36-2,3.32.39,4.9-.81.73-.55,3.2,1.47,3.6,2.66a1,1,0,0,1-.18.9c-.69.58-2.89.5-1.48,2s-1,1.68-.41,2.88-.79,1.89-1.64,1.4c-1.59-.92-2.8-.19-4.07.4-1,.47-1.53,2.76-3.06,1.19-.94-1-1.89,1.51-2.63-.36-.2-.52-1.61-.24-1.49,1,.17,1.55-.43,2-1.93,1.92s-3.53-.35-4.79.37-3.38.09-4.22,2c-.43.95-1,.3-1.37-.18a5.75,5.75,0,0,0-2.39-1.47,1.89,1.89,0,0,1-1.31-1.89c.19-1.3,1.31-1,1.92-.78.9.26,1-1.67,2.4-.44.92.83.37-1.57.92-1.33,2,.85,3.14-1.06,4.69-1.21,1.76-.16,3.19-1.54,5.07-1.11.77.18,1.74.25,2.17-.68.33-.73,1.95.34,1.49-1a1.83,1.83,0,0,0-1.91-1.27c-.32.05-.75-.12-1,0-2.24,1.53-4.45-.11-6.66,0-.86,0-2.23-2-2.33.7,0,.41-.33.17-.69,0-1-.5-2.56-.53-3.06,0-1.26,1.27-2.65-1.64-3.57.35-1.87-.2-3.93.66-5.44-1.39-.89-1.21-3.09-1-3.53-.4-2.2,3.06-2.57-.11-3.65-.85A2.36,2.36,0,0,0,319,436c-1.84-.36-.4-.95-.08-1.41a1.38,1.38,0,0,1,1.24-.62c2,0,4.15.49,5.93-.13C327.54,433.34,329.23,434.46,329.89,433.15Z"/><path class="c" d="M155,266.23c0,1.61-1.08,2.5-2.49,1.72-2.31-1.29-4.5-2.7-7.18-3.17-1.39-.24-1-2.07-2.21-2.83-3.18-2.06-6.06-4.59-9.31-6.5-1.68-1-2.52-2.94-4.46-3.44s-2-3.41-4.4-3.7c-.87-.1-1.53-1.64-2.92-1.32-.82.19-1.21-.56-1.53-1.05-.85-1.26-1.06-3.1-3.15-3.09.21-1.84-2.7-1.49-2.4-3.4-3.4.15-4.44-3.46-7.13-4.49A4.5,4.5,0,0,1,106,233.4c-.22-.29-.21-1.14.36-1.26,1.1-.23,3-.55,3.2.14.64,2.58,3.33,1.26,4.4,2.72,2.19-.71,2.71,1.95,4.59,2.28,1,.18,3.07,1,2.55,3.27-.08.33,1.15,2.2,2.35.46.07,1.77,1.8,1.87,2.77,2.74,1.17,1.06,2,2.64,4.06,2.31,1.16-.19.37,1.48,1.52,2a33.37,33.37,0,0,1,11.72,9c.91,1.12,2.45-.55,3.27,1.12.61,1.23,2.09,1.91,2.48,3.48.14.56.64-.53,1-.47A5.69,5.69,0,0,1,155,266.23Z"/><path class="c" d="M147.6,296c1.25-.64,2.17.81,3.38.53,1.73-.4,1.66,1,2.17,2s2.19-.12,3,1.05c.37.49.88,2.15,2.06.63,2,1.74,4.85,1.81,6.85,3.43s4.16,3,6.62,3.21c1.77.12.9,1.74,2,2.2a16.57,16.57,0,0,1,5.83,4c.32.35.73.88,1.11.88,2.43,0,4.7.2,5.69,2.94,1.21-1.19,1.51-.6,1.83.75.17.73,1.76,0,1.9,1.65.11,1.36.3,2.48-.9,2.68a3.29,3.29,0,0,1-2,0c-3.06-1.8-6.75-2.34-9.53-4.71-.81-.68-1.54-2.41-2.39-1.91-2,1.18-2-.92-2.86-1.44a14.22,14.22,0,0,1-2.49-2.42c-.83-.87-1,.51-1.4.4-.7-.22-1.1-1-2.08-.92s.17-2.25-1.38-1.52-1.6-1.23-2.5-1.25c-1.09,0-1.59-1.14-2.52-1.15-1.28,0-.83-1.14-1.27-1.63-.84-.93-1,1.08-1.89.59-.27-.15-.76-.21-.8-.39-.47-2.11-2.24-2.07-3.82-2.7-2.39-1-5-2-5.89-4.91C145.9,296.31,145.9,296,147.6,296Z"/><path class="c" d="M346,367c1.61-.23,2.39.62,3,1.94,1.09,2.38,2.19,4.77,3.49,7,1.84,3.23,3,6.79,4.68,10,1.51,2.89,3.52,5.48,4.1,8.8,3.07,1.09,2.77,4.49,4.46,6.57a47.74,47.74,0,0,1,4.23,6.71c1.58,2.76,1.33,3.7-1.19,5.64-.62.48-1.57.47-1.63-.13-.17-1.76-1.6-2.43-2.59-3.42-.65-.67,1.24-3.14-1.6-2.27-.16.05,1.9-1.16.28-2.18-.68-.43-1.14-1.21-1.79-1.72-.95-.76.11-2.31-.72-2.65-2.74-1.11-2.77-3.8-3.76-5.9-1.44-3.06-3.57-5.85-4-9.33-.17-1.59-1.63-2.23-2.26-3.55a34.15,34.15,0,0,1-2.19-5.58c-.54-2-3.26-2.88-2.65-5.45.08-.35-.87-.92-1.3-1.41-1.26-1.42.2-.93.77-1.14.2-.08.48-.55.43-.6C345.34,367.8,344.47,367.22,346,367Z"/><path class="c" d="M221,358.34c.1,1.84-1.2,2.46-3.07,2.22-2.3-.29-3.6-2.57-5.94-2.57s-3.6-1.9-5.38-2.63c-2.75-1.13-5.63-1.84-7.82-4A1.17,1.17,0,0,0,198,351a5.61,5.61,0,0,1-6-2.49c-.58-.84-1.49-.46-2.27-.53-4.26-.37-13-4.57-15.81-7.55-.56-.6-1.35-1.16-.8-2s1.56-.46,2.3-.36c1,.13,1.23,2.33,2.44,1.45,1.84-1.35,2.28.34,3.14,1.06,1.06.88,2.81-.14,3.22.51,1.55,2.45,4.36,2.14,6.4,2.68,2.28.6,4.1,2.13,6.57,2.41,2.15.25,4,2.08,6.21,2.94.86.33,1.57,1,2.62.91.48-.05,1.15-.2,1.45.05,1.61,1.28,2.63,3.16,5.28,3.05,1.92-.08,3.47,1.81,5.63,2.05A3.77,3.77,0,0,1,221,358.34Z"/><path class="c" d="M198.56,296c2-.08,3.78.52,4.65,2.71,4.66,2.48,7.88,6.9,12.49,9.42a25,25,0,0,1,5.56,4.65c1.13,1.15,2.23,2.39,3.84,2.78s2.07,2.34,3.73,2.87c1.16.37,1.24,3.16,3.45,1.6.08-.06.54.28.74.51a14,14,0,0,0,5,3.5c2.35,1,3.44,3.16,3.92,5.59.09.47.09,1.08-.44,1.29s-1,.29-1.34-.22c-1-1.56-2.69-1.53-4.12-2.11.35-2.2-2.26-1.42-2.79-2.76-.11-.29-.46-.69-.68-.68-3.35.19-5-2.54-7.14-4.25-3.75-3-8.12-5.22-11.16-9.08a2.73,2.73,0,0,0-1.64-.88c-1.21-.29-1.6-1.86-3.16-2.07-.8-.11-.71-2-1.78-2.64-3.55-2.1-6.16-5.52-10-7.25a5.23,5.23,0,0,1-1.47-1.24,1.41,1.41,0,0,1-.27-.87.79.79,0,0,1,.91-.87Z"/><path class="c" d="M80.37,295.85c1-.68,1.66-1,1.82.75,0,.6,1,.55,1.63.11.28-.2.48-1.14,1-.34,1.07,1.56,2.6,1.56,4.31,1.7a13.45,13.45,0,0,1,7.35,3,6.72,6.72,0,0,0,4.7,1.92c1.08-.05,2,0,1.81,1.5a1.31,1.31,0,0,0,.65.28c1.69-2.11,3.08.08,4,.66,1.76,1.05,3.16,2.66,5.45,2.56,2.15,3.24,6.13,3.6,9,5.69.27.2.6.43.68.71s-3.36,3.54-3.58,3.29c-1.16-1.34-2-.57-2.81.28a26.76,26.76,0,0,0-1.59-2.26c-1.39-1.38-3.45-2-4-4.29-.23-.88-1.79-.67-2.2-.35-1.46,1.15-2.42,1.72-2.88-.76-.1-.58-2.93,0-.85-1.84.09-.09-1.2-.76-1.51-.27-.63,1-.73,2.55-2.21.56-.75-1-2.55-1.09-2.72-2.76-1.62.75-2.58-1.25-4.07-1-1,.18-1.52-.54-2-1.16-.68-.86-1-.52-1.83,0s-2.28.51-.78-1.13c.07-.08-.13-.59-.3-.65a2.9,2.9,0,0,0-1,0,15,15,0,0,0-4,.06c-2.09.6-.88-2.34-2.6-2.1-1.39.2-.61-2.4-2.54-2.17-.67.08-.56-1.55-.32-2.18C79.5,294.48,79.92,295.63,80.37,295.85Z"/><path class="c" d="M265,368.57c0-1.43,2.53-3,3.76-2.24,1.73,1,4,1.36,5.16,3.16,1,1.64,2.92,1.1,4.17,2.08s1.84,2.07,3.4,2.65c1.16.43,3-.69,3.63,1.35.49,1.58,2.34,1.85,3.51,2.28,1.73.64,2.49,2.06,3.73,3,.89.7,1.58,1.9,2.78.46.64-.77.81.15,1,.36,1.11,1,2.14,2.1,3.2,3.16,1.75-1.58,2.14.95,3.21,1.05,1.41.12,1.84,1.25,2.73,1.89.6.43,1,1.13.6,1.67s-.89,1.43-1.84,1.51c-.16,0-.44.06-.48,0-.91-1.68-1.79,0-2.68,0a3.34,3.34,0,0,1-2-1.1c-4.32-3.44-9.78-5.19-13.7-9.2-.23-.24-.57-.72-.69-.67-2.8,1.18-4.3-1.72-6.63-2.22-2.14-.47-3.93-2.49-5.88-3.81a4.93,4.93,0,0,0-.85-.36c-1.17-.5-.75-2.4-1.83-2.56a20.32,20.32,0,0,1-3.09-1C265.17,369.79,264.87,369.42,265,368.57Z"/><path class="c" d="M206.81,376c3.1.67,7.09,1.51,11.07,2.38a70.56,70.56,0,0,0,7.31,1.69c4,.45,9.08,2.83,12.83,5.51.61.43.88.16,1.06-.19.84-1.66,1.85-.91,3-.45a14,14,0,0,1,2.18.78c2.72,1.5,2.92,2.4.91,4.61-.85.95-2.26,1-2.65.59-2.47-2.59-6.11-1.28-8.85-2.87-.63-.37-1.78.1-2.35-.29-.83-.57.72-.79.52-1.34a.91.91,0,0,0-1.27-.38c-1.13,1.25-2,1.12-3.24,0-2.13-1.91-5.2-.53-7.68-1.93-1.38-.78-3.12-1.71-5-1.14a2.48,2.48,0,0,1-1.39-.21c-.82-.28-1.16-2.11-2.05-1.34-1.4,1.21-1.68-1.3-2.91-.48-.94.63-1.45-1.14-2.55-1a2.12,2.12,0,0,1-1.81-.46,2.66,2.66,0,0,1-1-2.62c.14-1.33,1.17-.79,1.89-.89C205.21,376,205.55,376,206.81,376Z"/><path class="c" d="M240,367c1.39-.42,2.07.61,2.91,1.4s1.82,2.76,3.46.74c0,0,.23.09.34.08.84-.06-.68,2.53,1.45,1.21.85-.52,1.81.61,2.71,1s1.57,1.06,2.43,1.34a3.55,3.55,0,0,1,2.37,1.46c.73,1.45,1.44-.45,2.14.09s1,1.62,1.48,2.36.77-.68,1.39-.67c1.28,0,2.44.78,3.5,1.19,2,.76,4,1.65,6,2.44,1.17.46,2.08.82.9,2.27a1.83,1.83,0,0,0,.25,1.79c.68.5.9-.55,1.35-.87,1.33-.93,2.44-.75,3.14.44.89,1.53-1,2.13-1.08,3.41-.06.71-1.65.55-2.2.24-2.3-1.28-4.87-2.06-7.11-3.26-3.82-2-8.08-3-11.75-5.4-2.57-1.65-6-1.68-8.28-4.17-.67-.72-2.33.05-3.66-.69s-2.91-1.65-3.56-3c-.27-.56-1.46-1.29-.7-2.32A2.46,2.46,0,0,1,240,367Z"/><path class="c" d="M298,435.24a2.23,2.23,0,0,0-.16.43c-.23.84-1.9-.32-1.55,1,.13.53.85.95.71,1.69-.1.55.31,1.3-.63,1.48l-2-1.76c.25-.32.89-.68.15-1-.58-.27-1.41-.23-1.51.62-.16,1.41-.76,1.78-1.86.93-1.34-1-3.11-1.13-4-.16-1.44,1.63-2.63,1-3.9.28-2.12-1.21-2.09-1.29-4.18-.37-.28.13-.46.5-.75.59-1.8.6-3.61-1.33-4.93-.69-1.68.81-3,1.13-4.45.13-1.19-.84-1.67.26-2.46.38-.6.09-1.35-1.23-2.14-1.76a1,1,0,0,0-1.31.36,1.26,1.26,0,0,1-2.06.16c-.58-.47-1.37-.68-2-1.12-.15-.1-.13-.69,0-.94a4.76,4.76,0,0,1,5.13-1.77c.78.25,1.32-1.31,2.21,0,.55.82,1.33-.35,2-.52,1.24-.33,2.62-.06,3.9-.27s1.68.82,2.58,1,1.45-1,2.57-1.08c1.9-.1,3.48,1.46,5.76.29a6,6,0,0,1,6.07.55c1.83-2,3.85.55,5.83-.25C296.19,433.05,298.11,434.43,298,435.24Z"/><path class="c" d="M124,284c-.07.67-.09,1.23-1,.53-1.4-1-3.14-1.25-4.72-1.85s-3.79-.82-4.86-2.74a2,2,0,0,0-2.11-.94,3.11,3.11,0,0,1-1.28-.48c-1-.47-.83-1.67-1.41-2.4-.93,1.45-1.75-.08-2.63-.09s-1.59-.9-2.49-1.24a7.78,7.78,0,0,0-2.67-.78,1.46,1.46,0,0,1-.78-.48c-1.08-1-2.08-2.16-3.2-3.15s-2.67-.26-4.1-.93c-3.07-1.43-6.4-2.47-9-4.54-1.29-1-2.73-.48-3.94-1.51-1.6-1.36,1.1-1.76.36-2.88-.16-.23,1.21-.81,1.53-.29,1.64,2.66,4.77,1.36,6.91,2.72.63.4,1.52.17,1.5,1.35,0,.5.43.82,1,.73,2.24-.34,3.82,1.17,5.69,1.89,1,.38,1.68,1.5,3.06,1.18.69-.16,3.15-.87,1.3,1.54a3,3,0,0,0,.84.37c.49.06,1.17-.19,1.47,0,3.58,2.86,7.94,4.12,11.93,6.12,1,.49,1.39,2.15,3.16,1.91.78-.1,1.83-.62,2.54.7C122,280.5,124.35,281.44,124,284Z"/><path class="c" d="M261,282.18c.13-1.41-.62-2.7,1.45-1.48a17.33,17.33,0,0,1,5.53,5.23,7,7,0,0,0,1.06,1.53c4.56,3.74,7,9.13,10.59,13.62.12,2.53,2.78,3,3.95,4.75a22.24,22.24,0,0,0,3.72,5c2.27,2,2.31,3.63.63,4.78-1.41,1-3.36.16-4.89-1.95-1.3-1.81-2.81-3.48-3.94-5.38-1-1.59-2.8-2.42-3.17-4.62-.3-1.73-1.83-3.21-2.56-4.91s-1.19-3-3.3-2.76a.81.81,0,0,1-1-.78c-.3-2.43-.82-4.71-3.68-5.39C264.43,286.81,261.11,285.07,261,282.18Z"/><path class="c" d="M234.83,407.33c0,.64-.4.76-.87.66a2.49,2.49,0,0,0-2.56,1.09c-.41.48-.85,1.16-1.6.9-5.64-2-11.9-1.18-17.34-4-1.39.93-2.55-1.44-4.27-.14-.71.53-2.53-1.52-3.95-.81-2,1-3.8-2.46-5.71-.08-.47-.45-1-.87-1.4-1.36s-1.26-1-1.67-.49c-1.68,1.94-2.59.34-3.48-.71-.54-.64-2.14-.19-1.74-1s1.3-2.55,2.66-1.92,1.7-1,2.93-.63c.92.28,1.4,1.42,2.55,1.11s2.14,1.09,3.75.12c1.81-1.09,4.07.53,6,1.05A63.58,63.58,0,0,0,219,402.9c1.5.15,2.49,1.34,4.08,1.17,1.23-.13,2.59-.49,3.84.29,1,.63,2.26.15,3.44.5,1.4.42,2.45,1.36,3.78,1.78C234.39,406.73,234.59,407.09,234.83,407.33Z"/><path class="c" d="M256,342c1.34-.22,2.12.29,2.2,1.7,2.4-.45,3.91,1.52,5.37,2.61,3.82,2.82,8.67,3.59,12.26,6.69,1.87-.39.79,3.05,3,2.29l2.21,2.08c.26.44.79.81.91.15.21-1.18,0-1.35,1.53-.83,1.7.58,2.33,2.62,4.57,2.45,1.51-.11,1.33,3,3.6,3.11.51,0,1,1.78,1.37,2.79.45,1.35-.56,2.12-1.42,2.9-.62-1.51-2.05.49-2.84-.69-1.08-1.61-3-2.48-3.82-4.41-.5-1.12-2.1-1.5-3.46-1.92-1.81-.56-4.06-.77-4.52-3.44-.23-1.33-1.65,1.56-1.86-.2-.27-2.27-1.26-.24-1.57-.42-.79-.48-.52-1.87-2.08-2.14a17.17,17.17,0,0,1-2.64-.78,40,40,0,0,1-4.56-2.23c.25-2.78-2.57-1-3.46-2.38s-3.41-1.44-4.26-2.62a20.43,20.43,0,0,1-2.45-3.44,1.36,1.36,0,0,1,.49-1.22C254.9,341.84,255.5,342,256,342Z"/><path class="c" d="M278,341c-1,.07-1.09-.62-1-1.29.1-.92-.16-1.89-.95-2.06a7,7,0,0,1-4.46-3.54c-3.19.48-3.09-3.2-5.2-4.12a18.6,18.6,0,0,1-5-3.72c-2.12-1.92-3.33-4.88-6.42-5.86a3,3,0,0,1-2-2.56c0-1-.78-.86-1.44-.85s-1.33.15-1.55-.74a4.25,4.25,0,0,0-3.21-3.24c-1.25-.34-.69-1.3-.78-2-.12-1,.61-1.11,1.27-1s1.26.79,2.06,1.06c1.63.56,2.21,2.7,4.24,3.05,1.78.31,2.57,2.23,4.09,3.14s2.44,2.48,4.2,3.16c1.43.55,1.05,2.72,2.5,3.42,1.24.61,3.18.87,3.63,1.83,1.1,2.38,3.26,3.42,5.09,4.72,1.28.91,2.74,1.27,3.82,2.79.93,1.3,2.88,1.89,4.07,3.25,1.42,1.64,1.46,1.58-.06,3.14C280.11,340.41,279.4,341.42,278,341Z"/><path class="c" d="M340,351.51c-2.23,2-.23,2.95.74,3.63,1.93,1.35.46,1.94-.26,2.91-1,1.36-2.36.91-3.62.93-1.41,0-.86-1.49-1.42-2.21s-1.91-2-.57-3.39c-.94-.94-1.94-1.84-2.79-2.85a1,1,0,0,1,.21-1.33,6.92,6.92,0,0,0,.66-.68c-.9-1-1.91-1.86-2.77-2.87-.69-.8.66-2.66-1.72-2.8-1.17-.07,1-1,.23-1.65-.53-.46-1.57.12-1.75-1.2a16.92,16.92,0,0,0-5.23-9.82,2.32,2.32,0,0,1,.34-3.74c1.12-.82,2-.53,3,.72a19.56,19.56,0,0,1,3.28,5.64c.71,2,3.43,3,2.88,5.78-.11.55,1.22,1.49,2,2.08,1.32,1,.1,4.33,3.41,3.52.56-.13-.07.64-.26,1a2.46,2.46,0,0,0,.7,3.42C338.1,349.49,339,350.53,340,351.51Z"/><path class="c" d="M377.05,398.53c-.1,1.53.19,2.5-1.13,2.47-1,0-1.11.78-.88,1.35.46,1.17.91-.18,1.26-.11.9.18,1.09,1.92.29,2.74-.35.37-.71.63-.11,1,1.43.87,1,2.84,1.85,3.67,2.12,2.14-.75,3.52-.39,5.35.33,1.63-2.08.57-2.39,1.89a1.94,1.94,0,0,1-1.26-.16c-.51-.53.33-.67.51-1a1.45,1.45,0,0,0-.28-1.73,9.06,9.06,0,0,1-1.54-6.33c.22-2.74-.77-5.29-1.71-7.76-.38-1,.3-2.3-.94-3.13-.65-.43,1.11-1.18,0-2.18-.6-.51-.17-2.17-.31-3.29s.49-2.28-.47-3.3c-1.73-1.85.52-3.16.82-4.72.11-.54,1.44-.45,1.57.19.66,3.38,2.91,6.11,3.64,9.48C376,395.06,376.1,397.28,377.05,398.53Z"/><path class="c" d="M207.05,333.4a2.21,2.21,0,0,1,2.65-2.19c3.09,1.05,6.53,1.46,8.55,4.54,3.35.14,4.93,3.2,7.52,4.63A7.19,7.19,0,0,0,228,341c.82.17,1.69,2.29,1.4,3.06-.67,1.76-1.78,2.54-3,1.67-.79-.56-1.75-.62-2.48-1.29-.94-.87-.8.14-.94.65s-.53,1.2-.7.55a3.21,3.21,0,0,0-3.83-2.76c-.14,0-.28-.52-.46-.76-3.13-4.15-3.13-4.15-8-6.15A7.84,7.84,0,0,1,207.05,333.4Z"/><path class="c" d="M156.72,333c-2.92,0-5.31-1.67-7.83-2.73-3.14-1.33-6-3.52-9.6-3.23-1.89.15-1.1-1.65-1.91-2.34s.63-1.29,1.12-1.61a6.29,6.29,0,0,1,7.35.4c2.59,2.22,6.32,2,8.64,4.5,1.72-.42,2.7.69,3.77,1.73.58.57,2.31.15,1.68,1.67a2.24,2.24,0,0,1-2.22,1.61C157.39,333,157.05,333,156.72,333Z"/><path class="c" d="M144.57,356c1.46-.61,2.38.86,3.58.92a7.39,7.39,0,0,1,4.2,1.9c1.26-1.45,2.32-.46,3.61.07,1,.42,1.41,1.37,2.26,1.75s1.34-1.05,2.44-.71c1.34.43,2.38,1,2.33,2.54,0,.46.23,1-.34,1.33a1.28,1.28,0,0,1-.92.15c-1.34-.55-2.16,1.66-3,.93-1-.9-2,.2-2.54-.3-1.23-1.08-3.23-.27-4.19-2-.67-1.23-2.12-.54-3.2-.56-2.91,0-5.38-1.35-7.86-2.62-.78-.39-1-.94-.16-1.76C141.9,356.62,142.9,355.59,144.57,356Z"/><path class="c" d="M312,348.14c.1-.91-.19-1.64.49-2.08s.79-1.65,1.78-.38c.8,1,1.88,1.86,2.77,2.83a89,89,0,0,1,9.42,12.36c.37.58.89,1.16.46,1.69-.75.91-1-.69-1.34-.5-.84.48-.49,1.76-1.41,2.35s-1.74,1.28-2.08-.32c-.16-.75-.75-1-1-1.58s2-.9.11-1.47c-.71-.21-1.2-.3-1.17-1.15a6.49,6.49,0,0,0,0-2c-.48-1.89-1,0-1.44,0-.1,0-.25-.15-.34-.27-2-2.64-4-5.27-5.92-8A3.53,3.53,0,0,1,312,348.14Z"/><path class="c" d="M294.05,459.12c.06.28-.29.61-.63,1-2.15,2.23-5.42,2.17-7.84,3.83-2.21-1.77-4.08,0-5.73.9-1.3.72-2-1.52-3.23-.07-.6.72-1.89.92-2.91,1.23a1.9,1.9,0,0,1-2.11-.87c-.25-.34-.77-.56-.16-1.07s1.08-1.46,1.78-1.69c3.65-1.18,6.95-3.57,11-3.35,1.1.06,1.91,0,1.84-1.51,0-.54.6-.27,1,.05.95.77,1.76.85,1.92-.68.1-.95.77-.89,1.43-.86C291.52,456.05,293.81,457.88,294.05,459.12Z"/><path class="c" d="M195.45,262.08c1-.17,1.41.06,1.53.57a5.47,5.47,0,0,0,4.09,4.35c1.36.36,1,2.49,2.88,2.54,1.14,0,3,.88,2.91,2-.09,1.93,2.69,1.08,2.36,3.05-.07.46,2.19.33,1.81,2.1-.34,1.62-1.62,2.37-2.72,3.23a.86.86,0,0,1-1.3-.88c.08-1.26.07-2.35-1.72-2.09-.66.1-1.1-.06-1.35-1-.5-1.8-1.27-3.55-3.78-3-.78.16-.85-.69-1.23-1-1.5-1.32-1.3-4.61-4.47-4,.56-1.4-.55-2.6-.48-3.95S195.36,262.78,195.45,262.08Z"/><path class="c" d="M300,418.71a1,1,0,0,1,1.52-.6c1,1,1.69,1.17,2.86.13.63-.57,1.71-.34,2.67.24,1.91,1.16,4.47-.09,6.33,1.52,3.43-.25,4.72.05,6.75.95.83.36,1.06.87.83,1.43a15.8,15.8,0,0,1-1.66,2.79c-.33.48-.62.59-1.43.35-1.38-.4-2.61-2.89-4.52-.58-.52.63-1.35-.54-2-1-.37-.3-1.06-1.42-1.29-.37-.54,2.46-1.53,1.69-2.48.51a3.11,3.11,0,0,0-3.07-1.05c-1.64.15-3,.07-2.59-2.24.14-.86-.86-.65-1.45-.81S300,419.2,300,418.71Z"/><path class="c" d="M321,315.5c-1,.49-.71,1.76-1.4,2.35-.52.45-1.22.16-1.66-.43s-1.2-.4-1.82-.4c-.85,0-1.13-.42-1.1-1.2s0-1.32,0-2a6.41,6.41,0,0,0-.15-2.42c-.57-1.19-1,1.25-1.71.23-.2-.27-.59-.44-.68-.72-1.22-3.5-3.23-6.62-5-9.85-.49-.91.07-1,.38-1.44a1.51,1.51,0,0,1,1.7-.59c1.86.39,3,2.09,3.91,3.24,1.21,1.54,3.34,3.17,2.57,5.85-.26.9-.05,1.53,1.31,2a3,3,0,0,1,1.81,4.33C318.86,315.13,320.6,314.67,321,315.5Z"/><path class="c" d="M306.06,336.4c1.44.68-.11,1.85.53,2.92.51.84-1.62.61-2.17,1.63-.21.41-1.08-.22-1.64-.61-.92-.63-.92-1.68-1.31-2.48a36.15,36.15,0,0,0-4.68-7.52c-.72-.86-1.25-1.53-.2-2.43.69-.58,0-.89-.3-.87-1,.07-1.39-.74-2-1.24a1.12,1.12,0,0,1-.21-1.35.92.92,0,0,1,1.27-.42c1.65,1.12,4.24.12,5.29,2.94.84,2.25,3.36,3.76,3.5,6.56,0,.12,1.87-.8,2.14,1.1C306.39,335.37,306.94,335.85,306.06,336.4Z"/><path class="c" d="M320.51,448a13.68,13.68,0,0,1,1.72,0c1.29.18.76,1.55,1.38,2.28s-.59.48-1,.72c-1.72,1.09-3.39,2.34-5.62,2a.79.79,0,0,0-1,.76c-.11,1-.33,1.73-1.23.5s-1.46-.89-2.59-.34-2,1.63-3.52,1.1c-1.16-.42-1.87.49-2.42,1.26-1.17,1.62-1.64-1-2.83-.42-.41.2-.51-2-.4-2.05,1.6-.47,1.53-2.78,3.59-2.87A31.83,31.83,0,0,0,318,448.43C319,448,319.84,448.27,320.51,448Z"/><path class="c" d="M221.85,287c.77.06,1.45-.09,1.71.17,1.94,1.94,4.95,2.77,6.18,5.29.61,1.26,1.58,1.15,2.21,1.71,1.54,1.36,2.53,3.34,3.74,5.07.54.76-.21.63-.54.81-2,1.1-3.49,1-5.32-.71-2.3-2.14-4.15-5-6.78-6.5s-2-3.21-2-5.14A.73.73,0,0,1,221.85,287Z"/><path class="c" d="M259.22,415.86c-1.49.74-2.54-1.29-4,0-.38.33-2.19-.78-3.21-1.43s-1.43,1.18-2.39.56c-.64-.43-1.07-1.12-2.07-1.05-.73.05-2.49-2.22-2.31-2.67.31-.79,2.11-1.59,3.16-1.4a1.07,1.07,0,0,1,.44.13c1.59,1.18,2.51-2.09,3.9-.7a24.92,24.92,0,0,0,3.5,2.39c.24.18.76.37.84.28,1.51-1.66,3.11.9,4.59-.14.14-.09.22-.27.36-.34,1.15-.63,1.72.9,2.75.76-.43.91-.76,2.54-1.28,2.61C261.89,415.06,260.8,417.22,259.22,415.86Z"/><path class="c" d="M253.28,362a13.24,13.24,0,0,1-6.4-3.19c-1.85-1.66-4.19-2.16-6-3.73a21.57,21.57,0,0,1-1.8-1.54c-.31-.35-1.54-.58-.73-1.33.59-.54,2-1.16,2.3-.89,2.74,2.26,6.75,1.5,9.32,4.11.73.74,2.12,1.7,2.78,1.45,2.34-.88,1.82,2.45,3.62,2.17.43-.06.71.61.11.92-.88.44,0,2.17-1.57,2C254.61,362,254.28,362,253.28,362Z"/><path class="c" d="M190,372.49v1.59a.9.9,0,0,1-1.35.88c-1.52-.82-2.68-1.74-4.83-1.16-1.44.39-3.37-1.59-5.12-1.67s-1.5-1.3-2.11-2c-.76.88-1.44.91-2.13-.11-.52-.78-1.79-1.17-1.43-2.39.26-.89,4.21-2.09,4.59-1.34,1.32,2.59,4.13,1.32,6,2.57,1.24.82,3.54.05,4.69,1.94,0,.07,1.13-.65,1.31-.5C190.39,370.86,189.83,371.8,190,372.49Z"/><path class="c" d="M171.87,278c2.86-.39,4.73,1.88,6.53,3.22,2.53,1.87,5.52,3.42,7.41,6.12.34.49,1.83.87.57,1.68-.78.51-.95,3.11-2.76,1.1-1.87.46-2.42-1.26-3.48-2.12-2.83-2.28-5.65-4.55-8.46-6.84A1.73,1.73,0,0,1,171,280c-.07-.54-.92-1.13-.8-1.52C170.37,277.71,171.26,278.08,171.87,278Z"/><path class="c" d="M364,342.16a29.4,29.4,0,0,1,0,3c-.14,1.28-1.43,1.68-2.51.83-.38-.3-.72-.9-1.09-.92-2.05-.07-.73-.66-.5-1.55.38-1.48-1.32-2.78-.9-4.5s-.38-3-1.66-4.28c-.91-.9.49-4.38,1.82-5.4.36-.27.39-.29.74,0,1,1,2,2.42,1.67,3.42-.52,1.51.47,2.2.89,3.11C363.93,339.08,364,339.05,364,342.16Z"/><path class="c" d="M277.59,419c-2.14.54-4.11-.38-5.55-2.48-.51-.75.24-2.46,1.2-2.47,1.31,0,2.8-1.49,4,.56.54.95.95-.8,1.31-.5s.41,1.18.8,1.62a1.32,1.32,0,0,0,1.27.12c.79-.69,1.5-1.41,2.44-.31.49.57.7,0,1.08-.09,1.37-.3.23-3.27,2.37-2.38,1.2.5.13,2.39,1.38,3.42,1,.81-.83,1.49-.87,2.47-.06,1.68-1.41.93-2.23,1-1.17.13-1.22-2.42-2.89-1.32-1.07.7-2.24.19-3.36.35C278.34,419,278.17,419,277.59,419Z"/><path class="c" d="M340.87,380.86c-.19.52,1,2.11-1.12,2.17-.76,0-1.23,1.45-2,.92-1.16-.77-2.68-1.58-2.65-3.18a3.2,3.2,0,0,0-1.64-2.79c-2.32-1.67-2.82-4.49-4.41-6.61a1.1,1.1,0,0,1,.07-.93c.44-.72.78-.1,1,.19.53.67,2.18,0,1.9,1.6a.53.53,0,0,0,.15.42c1.28,1,3.53-.6,4.32,1.4.62,1.58,1.56,3.16,2.89,3.64C341.06,378.3,341.15,379.17,340.87,380.86Z"/><path class="c" d="M237,440c-1.87,0-3.37,0-4.85,0-1,0-2,0-2.6-1-.51-.78-1.84-1.17-1.5-2.33.39-1.34,1.65-.6,2.53-.7,1.4-.15,2.84.21,4.11-.95a2.46,2.46,0,0,1,2.37,0c1.61,1.21,3.37.87,5.1.94.48,0,1.24-.11,1.4.13.62.91,1.8.64,2.45,1.37-.75.56-1.55,1.1-2.28,1.61C241.39,440.76,238.93,439.54,237,440Z"/><path class="c" d="M365,360.47v-3.35c0-1.21.71-1.19,1.62-1,2.81.56,2.64,3.26,3.26,5.06.88,2.54-.49,5.42.78,8.18.46,1-2,1.77-2,3.41,0,.32-.67-.34-1-.6-2.1-1.79-1.1-4.75-2.53-6.81C366.19,363.58,364.13,361.89,365,360.47Z"/><path d="M521,440.23c0-1.18-.08-2.17,1.7-2.33A5.55,5.55,0,0,0,526.5,436c.87-1.09,2-1,3.16-1a2.47,2.47,0,0,1,2.26,1.67c.37.87-.43,1.71-1.15,1.95-2,.69-2.11,1.64-.82,3.16.25.29-.05,1,.09,1.46,1,3.32.94,3.41-2.64,3-3-.38-5-1.6-5.91-3.1A6,6,0,0,1,521,440.23Z"/><path d="M549.77,412c1.84-.08,3.12,1.29,4.45.06,0-.05.3.07.41.17.5.44,1,.88,1.45,1.35s1.31,1.17.66,2.06c-.45.64-1.14,1.71-1.89,1.25-1.92-1.19-3.58.4-5.42.28-1.57-.09-3.36.73-5,1.16-1.11.28-1.61,1.2-2.55-.56a2.92,2.92,0,0,1,.4-3.24c2.92.22,4.68-2.93,7.58-2.54C550,412,550.15,412,549.77,412Z"/><path d="M517.08,404c.49,0,.9-.12,1.14,0,3.12,2,6.42,3.73,8.7,6.72.66.86,1.24,1.91-.2,3.24s-2.12.35-2.85-.06a31.23,31.23,0,0,1-7.89-6.41c-.61-.67-1-1.11-.21-1.95C516.24,405,516.05,403.89,517.08,404Z"/><path d="M527.37,457c-1.54.92-3.22-1.29-5.07-.27-1.08-1.78-2.23-3.53-3.2-5.36a2.13,2.13,0,0,1,.13-1.86c.6-.76,1,.32,1.5.5a9.2,9.2,0,0,1,3,1.38c1.45,1.22,2.53,2.28,4.69.93,1.27-.79,3,.55,4.31,1.24,1,.52-.2,3.18-1.62,3.4A25.75,25.75,0,0,1,527.37,457Z"/><path class="f" d="M386.14,426.21c-.33,5-2.32,8.67-4.25,12.4-2.1-.12-3.34,1.57-5,2.41a9.2,9.2,0,0,1-4.25,1c-.46,0-1.15,0-1.36.25-.9,1.18-2.18.43-3.19.79s-1.1-1.73-2.41-.47c-.5.48-1.78-.7-1.73-2,0-.18-.49-.57-.69-.53-2.4.46-2.87-1.39-3.73-2.92a15.49,15.49,0,0,0-2.07-2.15c-.83-.95.07-.85.64-1,.86-.17,1.22-.57.17-1-.6-.22-1.39,0-1.28-1,.35-3.35-.48-6.69.89-10.1,1.93-4.8,2.78-6,7.73-6.91,1.39-.25,2.5-1.14,4.07-1.14,1.29,0,2.47-.87,3.43.73.6,1,2-.18,2.66.72,1.07,1.54,1.53-.95,2.29-.3,1.93,1.62,4.74,2.28,5.86,4.71A55.29,55.29,0,0,1,386.14,426.21ZM368.7,419a5.7,5.7,0,0,0-5.7,5.8c0,.83.35,2-.06,2.43-2,2.17-.5,4.17.08,6.2.69,2.46,4.75,5.41,6.85,4.43,1.77-.83,3.83-.2,5.33-1.56,4.82.17,4.27-4.9,6.78-7,.13-.11,0-.68-.11-.91-1.34-1.93-1.33-4.45-2.82-6.32-.24-.3-.22-1-.72-1.06C375.05,420.69,372.09,418.8,368.7,419Z"/><path class="f" d="M634,599c1.14-.53,2.15-1.32,3.59-1,.73.14,2.18.42,2.21-.37,0-1.27,2-2.07,1.13-3-1.59-1.71-.09-1.49.8-1.87.46-.2.92-1.29,1.24,0,.38,1.52-.55,3.21.86,4.67,1.23,1.28,2.94-.1,4.1,1a1.86,1.86,0,0,0,.76.56c1,.28,3.38-.81,3.21-1.51s-.89-.82-.93-1.61c-.08-1.32-1.25-1-1.9-.82-1.74.36-3-.89-4.58-1.1-.5-.06-.59-.77-.47-1.25s.59-.92,1.08-.67c2.89,1.48,5-1.36,7.66-1.29.37,0,.47-1.1,1-.38a1.35,1.35,0,0,1,0,1.28c-1,.75-.6,1.3.14,1.8,1.54,1.06.79-.47,1.08-.92.55-.86,1.53-.6,2.26-.46,1.17.22.68,1.3.7,2,0,2-.32,2.42-1.7,1.57-1-.61-1.52-.87-2.5,0a2.83,2.83,0,0,0-.75,2.7c0,.45,2.27,1.28,3,1.13.28-.06.51-.38.8-.45a.93.93,0,0,1,1.17.59c.1.28.1.79-.07.93-.61.51-.89,1.5-1.89,1.45-3.15-.14-3.25,2.55-4,4.47-.47,1.29.29,2.81-1,4.14-.67.7,1.14,2.56,2.32,2.37.27,0,.5-.39.74-.61.84-.79,1.44-.32,2.07.33.47.48,1.11,1,.75,1.65-.46.8-1.47,2.19-2.11,1.57-1.51-1.46-2.48.5-3.78.16s-1.13.69-.93,1.58c.68,3.06.64,3.17-.12,5.91-.12.43-.19,1.06.38,1.31s1.48.26,1.54-.51c.09-1.07.5-1.64,1.48-1.32a2.63,2.63,0,0,1,1.31,3.65c-.35.58-.69,1.34-2.14.62-2.18-1.07-4,.29-3.47,2.31.69,2.47-.22,4.27-1.06,6.31-.19.48.07,2.23.45,1.81,1.2-1.28,1.61.3,2.36.26a4.78,4.78,0,0,1,1,0c.84.13,1.82-.48,2.21,1.13.53,2.26-1.6,1.63-2.29,2.51s-.63-.15-.78-.49a6.25,6.25,0,0,1-.25-.9L647,641.5c.63,1-1.19,1.38-.6,2.42,1.06,1.85,1.53,3.56-1.2,4.48-.25.09-.26,1.23-.17,1.86s1.19,1.09,1,2.09c-.25,1.27.31,1.85,1.63,1.66a3.05,3.05,0,0,1,1,0c1.54.28,2.92,1.75,2.32,2.48s-1.73.55-2.68.3a1.91,1.91,0,0,0-2.57,2.3c.09.66-.19.76-.38,1.07-.73,1.2-.43,1.82,1,1.84h1c.8,0,1.66-.19,1.7,1.11.05,1.73-.15,2-2.22,2.19-1.69.16-2.74,1-2.75,2.66s-1.66,3.3-.12,5.22c.91,1.13-1.28,2.13-.94,3.53s-2.15,1.81-1.57,3c.26.54,2.2.06,3.17.5a2,2,0,0,1,1.41,2.35c-.15.55.37,2.06-1.09.84-.9-.75-1.9-.25-2.84-.38s-1.4.78-1,1.16c2.14,2.13-1.74,2.6-1.12,4.34.13.34-.92.39-.87-.07.12-1.07-1.66-2-.23-3.11-1.26-1-.75-1.69,0-2.83.58-.86.18-2.09-1.21-.67,0,0-.43-.31-.69-.38-1.69-.44-2.76.49-1.83,1.63,1.39,1.72.16,2.87-.13,4.25a.91.91,0,0,1-1.11.68c-.56-.07-.66-.47-.91-.91a6.75,6.75,0,0,1-.94-4.6c.16-1-.51-1.49-1.08-2.07-1-.95-2.76.22-3.42-1.41-.51,1.11-1.06,2.2-1.5,3.34-.2.51.24,1.49-.62,1.46a1.93,1.93,0,0,1-1.33-1.34c0-1.44-.42-2.93.28-4.35.35-.73,2-.86,1.13-2.09-.59-.83-.32-1.28,0-2.12.54-1.45-1.19-1.87-1.88-2.77-.56-.74-.92-1.31-.16-2.09a50.32,50.32,0,0,0,2.77-4.76c.6-2.08.41-2.64-1.45-4.3-.23-.19-.48-.35-.72-.53a3.3,3.3,0,0,1,.81-.46c.74-.16,2,.4,2.08-.65.14-1.4.53-3-.39-4.29a11.76,11.76,0,0,0-1.75-1.78c-.47-.44-1-.84-.15-1.42.43-.28.52-.81,1.45-.42,1.64.67,3.49-.66,2.84-1.62-2.15-3.21-.41-6.21.2-9.2.19-.9.94-1.47-.17-2.19-.72-.47-.69-1.49-1.13-2-1.16-1.35-.59-1.34.69-1.54.73-.11.47-1.1.49-1.74.06-1.92-.4-3.92,1.61-5.36,1-.69-.91-1-.67-1.91s1.31-1.08,1.07-2.07c-.13-.53-.35-.87-1-.84a19.06,19.06,0,0,1-2,0,3.83,3.83,0,0,1-.87-.32,5.55,5.55,0,0,0,.7-1.06c.39-1,2.11-.06,2.14-1.53,0-.3.13-.79.3-.84.66-.22.51.41.72.75,1.55,2.39,2.42,2.67,5.06,1.32.63-.32,2.11.06,1.83-1-.34-1.33,1.65-2.4.17-3.77-.33-.31,0-1.3-.12-1.92s-.59-.52-1-.06c-.7.79-1.3.52-2.08-.06-1.56-1.17-2-.23-1.89,1.24.12,1.71-1.08,1.26-2,1.31-.48,0-1.17-.26-.77-.66,2.09-2.08-.27-2.07-1.18-2.83-.61-.5-2.06-1.3.26-1.56,1.1-.13,1.41-1.79,2.68-2,.74,1.09,1.15,3,3,1.41.6-.5.88-.16.92.25.21,1.9,1,1.8,2.15.7.81-.82,1.54-1.7,7.38-3.54,4.5-3,4.51-3.85,4.5-4.68,0-2.44-.34-2.68-2.92-1.63-.83.33-1.37.74-2.08,0-.46-.48-1-1.39-1.39-1.32-1.08.21-.57,1.27-.59,2-.06,2.55-1.41,4.87-1.22,7.49.08,1,.36,2.38.56,2.21.86-.75,1.34-.18,2.2,0,3.87.91,5.36-.54,5.44-4.75,0-.5,0-1-4.5.69-4.42,1.21-5.11,1.25-5.77,1.16s-.93-.48-.71-1a10.78,10.78,0,0,1,1.45-2.85c.93-1.12-1.69-2,0-3.2.57-.38,0-.33-1-1.12-1.57-1.19-3.13-.51-4.67-.79C634.27,599.9,633.89,599.62,634,599Zm7.54,40H640c-2.07,0-2.56.68-1.82,2.66.21.55,1.09,1,.74,1.65-.44.82-1.08,2-2.15,1.63-1.9-.58.12-1,.23-1.52.42-1.9-1.4-3.17-1.28-5,0-.5-1.77-.39-2.29-1.34a8.92,8.92,0,0,0-1.39,1.43c-.92,1.45-1.49,7.42-1.11,9.21.2.93-.16,1.93.83,2.69.52.4-1.55,1-.16,1.61.68.31,1.15-.34,1.67-.75,1.47-1.13,2-2.8,2.65-4.41.33-.86.92-1,1.49-.77a1,1,0,0,1,.34,1.61c-1.1,1.13-1.22,3-.14,3.16,1.81.25,1.2,1.71,1.94,2.4,1,.93.52,1.94-.88,1.75-3-.41-.78,2.88-2.48,3.31.32,1.53,1.54.34,2.22.74.28.16.45.55.73.65,2.43.89,3,.44,2.83-2a2.67,2.67,0,0,0-.57-1.78c-.85-1-.69-1.57.76-1.94,2.3-.59,1.32-2.63,1.14-4-.1-.73-.53-1.68-.27-2.28.37-.86,1.75-1.46,1.78-2.21s-1-1.13-.52-2.44C645.8,639.19,645.56,639,641.54,639Zm2.6-2h1.49c.49,0,1.16.07,1.25-.46,0-.29-.56-.7-.88-1-.52-.54-1-.75-.33-1.83,1-1.59,2.35-3.48.37-5.52-.65-.67,1.29-1.58.64-1.81a9.56,9.56,0,0,1-3.09-2.21,1.28,1.28,0,0,0-.57.51c-.18.65.3,1.8-1.21.76-1.7-1.18-3.16-.33-3.77,1.48-.76,2.24-1.35.22-1.67-.09-.69-.66-.68-1.43.44-1.79.45-.14,1.72-.37.71-.77s-2.33-.77-3.5-1.18c-.92-.31-1.41.78-1.85,1.37s-.17,1.26-.16,1.91c0,1.11-.34,2.35.92,3.1a28.85,28.85,0,0,0-1.89,3.15,2.76,2.76,0,0,0,0,1.94c.29.74,1.15.55,1.76.45,1-.16,1.26.86,2.06,1.09s1-1.14,2.38-.56C639.34,636.35,641.7,637.26,644.14,637Zm-3,28.44.85-1c-1.93-.7-3.93-2.09-5.79-1.92-2.25.2-4.09-.68-6.09-1.07-.82-.16-1-.37-1.09.54s.51,2.09-.35,2.81c-1.39,1.17,1.45,1.82.26,2.77-1.56,1.26.54,2,.38,3.13,0,.41,1.19.36,1.23.22.5-1.86,2.75-2,3.44-3.47.52-1.13.74-2.39,1.82-3.2a11.68,11.68,0,0,1,.13,4.33c0,.13-.21.25-.34.36-.4.33-.48,1.1-.07,1,1.93-.56,3.45,2.15,5,.91,1-.83,1.13-2.78,1.53-4.26C642.11,666.07,640.74,666,641.1,665.44ZM649.22,615c-1.22.56-1-1.53-2.08-.6a3.23,3.23,0,0,1-3.65.4c-2.19-1.72-2.21.35-2.42,1.29a39.2,39.2,0,0,0-.72,4.54c-.21,1.83,2.81.76,3.92,2.07.35.41,1.19.39,1.65.76.78.61.67.15,1.15-.41C649,620.75,646.91,617.59,649.22,615Z"/><path d="M564,426.33c.1,1.36.06,1.26-2.44,1.76-.68.14-1.12,1.15-2.09.92-.45-.11-1,.13-1.35-.38a2.59,2.59,0,0,0-2.89-.64,6.37,6.37,0,0,1-.91.21c-2.37.69-5.22.82-7,2.27s-2.39,3.95-4,5.73c-.82.91-1.11.32-1.82-.1-2.33-1.39-2.7-2.54-.89-4.19,1.16-1.06,1.88-2.6,3.75-3,1.23-.25,1.63-1.75,2.16-2.87,1.17,1.9,2-.52,3.13-.32.54.1.14-2.47,1.57-1.63s1.87.56,2.58-.44a1.81,1.81,0,0,1,1.73-.67c2.39.05,4.55,1.43,7,1.21C563.05,424.16,564.42,425.17,564,426.33Z"/><path d="M516.62,467.32c-2.48-.75-4-1.11-5.44-1.67-1.74-.67-3.26-2.75-5.14-2-2.52,1-3.8-1.1-5.45-1.77-5.55-2.25-10.95-4.94-15-9.69-1.71-2,1.33-3.11.55-4.8,3-2.11,3.46-6.16,6.35-8.37a9.54,9.54,0,0,0,3.08-5.2c1-3.49,3-6.43,4.4-9.69.85-2,2.51-3.73,2-6.15,2.32-2.63,2.42-6.47,4.71-9a5.24,5.24,0,0,0,1.29-4,30.74,30.74,0,0,0-.05-5c-.47-2.95,2.41-4.82,2.21-7.61,2.59-.2,3.05-2.66,4.09-4.24a14.59,14.59,0,0,1,4.93-4.92c1-.56,2-.25,2.44-.51,1.85-1.18,4.2-1.51,5.64-3.39,1-1.26,2.22-2.14,3.73-.76.87.8,1.06-.14,1.41-.46.87-.78,1.63-1.85,2.79-.38a1.6,1.6,0,0,0,.35.28c1.43-3.26,3.82-1,5.77-.9,1.39.05,2.14-1.55,3.58-1.07a17.1,17.1,0,0,0,7.09,1c2.43-.23,4.62.9,6.9,1.45,1.73.42,3.52-.26,5.27,1,1.55,1.13,3.79,1.19,5.46,2.47.42.32,1.36-.14,1.95.08,2,.78,4.22,1,5.87,2.8,1.47,1.59,3.81,2,5.72,3,1.34.69,2.44.9,2.91,2.59.67,2.45,3.73,3.4,4.14,6.2.18,1.24,1.51-1.94,1.77.24.1.84-1.79,1.73.66,2.48,1.68.52.11,3.93,2.29,5.06a3.25,3.25,0,0,1-.56.7c-1.29,1-1.75,1.78.39,2.13.32,1.59.74,3.26-.25,4.67a3.32,3.32,0,0,0-.47,2.31c0,.29.1,1.12.85.41,1.37-1.29,1.21.22,1.06.74a3.55,3.55,0,0,1-1.29,1.45c-.79.59-.17.88,0,1.45.39,1.08,1.18,2.36-1.11,2.84-1.28.28-.26,1.43.25,2.28.8,1.33,1.64-1.1,2.13.11.34.85-.32,1.94.71,2.73.42.33.36,1.27.78,1.62s.55-1.2,1.37-.54c.37.3.6.73,1.22.7,1.73-.1.6,3.85,2.9,2.38,2-1.27,2.82,1.79,4.44.6.45,1.24,2.7.23,2.67,2.26,0,1.22,1.6,1.16,2.23,1.36,3.49,1.07,6.08,2.8,6.73,6.65.09.51.67.53,1,.78,2.3,1.61,2.4,1.93,2.21,5.17,0,.25-.26.54.19.7,3.11,1.06,1.36,4.15,2.53,6.05.71,1.16-.87,2-1,3.06a2.31,2.31,0,0,1-1.47,1.85c-3.25,1.49-5.81,4.28-9.39,5.06-.79.17-1.67,1.86-2.72.1-.26-.42-1.18.1-1.65.66a3.93,3.93,0,0,1-1.47,1.27,20.72,20.72,0,0,0-7.37,4.17c-2.13,1.64-4.84,2.5-7.18,3.9-1.21.72-1.91-1.93-3.31-.16-.65.82-2.58-.53-3.61.78a2.74,2.74,0,0,1-.36.32c-.61-2.29-3.75-1.11-4.57-3.43-.44-1.24-1.8-2.16-2.74-3.22,1.72-1.33-1.45-2.43-.17-3.74-2.21-.27.33-3.46-2.28-3.64-1.63-.11-1.16-2.6-2.69-2.9-.88-.18-.75-1-1.08-1.23-1.77-1.19-1.18-3.89-3.17-4.81s-2-3.61-3.95-4.72a2,2,0,0,1-.53-3c.82-1.06.67-1.26-.52-1.31-.15,0-.41-.07-.42-.15-.17-1-1.44-1.78-.88-2.73.82-1.39.88-1.76-.92-2.24-1.07-.29-.92-1.94,0-2.9.52-.54.25-.81-.21-1-.67-.19-2,.07-.67-1.16.91-.83,1.36-1.39.36-2.59-1.37-1.63.35-3.95-1-5.74-.42-.56-.39-4.11-.17-4.88s.27-1.45-.46-1.61c-2.11-.45-3.44-2.27-5.29-2.94-2.07-.75-2.37-3-4.28-3.93a7.59,7.59,0,0,1-3.6-3.32,3.78,3.78,0,0,0-3.68-2c-1,0-2.1-1.36-3-2.08-2.9-2.24-6.76-2.63-9.38-5.19-.73-.71-1,.08-1.44.13-4.35.47-6.9,4.2-10.65,5.71.46,2.07-1.75,1.44-2.51,2.33-.5.57-1.7.43-1.69,1.79,0,.47-1,1.41-1.32,1.34-2.48-.47-2.76,1.6-3.48,3-.32.61-.36,1.15-1.19,1.15-.27,0-.55.28-.82.43,1.71,1.69,1.12,3.06-.44,4.5-1.16,1.07-.39,3.25-2.14,4.11a1,1,0,0,0-.45.79c.55,4.3-2.56,7-4.56,10.1-.72,1.12-.25,2.39-1.26,3.54-1.34,1.52-1.14,4.32-3.93,4.74.93,2.46-.88,3.72-2.21,5.26-.79.92-2.61,1.45-1.89,3.06.34.77,2,.53,2.09,2.09,0,.32,1.65-1,2.42.45a3.81,3.81,0,0,0,2.18,1.82c1,.2,2,1.8,2.43,1,.68-1.3,2.26-1.64,2.64-2.76a58.07,58.07,0,0,0,2-8.15,25.32,25.32,0,0,1,.94-2.61,3.09,3.09,0,0,1,2.06-2.4c1.4-.5,2.22,1.15,3.58,1a.37.37,0,0,1,.25.65,2.19,2.19,0,0,1-.87.29c-.88.16-3.06-.59-1,1.56a2.16,2.16,0,0,1-.24,2.3c-1.94,2.52-.62,6.4-3.53,8.55-.18.13-.16.61-.14.92a12.07,12.07,0,0,0,.3,3.37c.18.49,1.14-1,2.1.1A6,6,0,0,0,513,461a2.34,2.34,0,0,1,2.57,1c.75,1.23,2,1,3.1,1,.49,0,1.15-.09,1.25.45.06.29-.51.76-.88,1C517.88,465.33,518.08,468,516.62,467.32ZM607.84,460a11.66,11.66,0,0,0,3.59-.67c1.45-.64,3-.9,4-2.29,1.92,2.11,2.24-1.15,3.74-1.14,1.81,0,0-2.35,1.45-3.18.73-.42-.52-.86-.81-1.31s-.9-.87-.87-1.65c.13-3-3.36-4.21-3.76-6.38-.64-3.46-3.41-3.21-5.32-4.29-2.39-1.34-4.41-3.53-7.62-3.45a4.75,4.75,0,0,1-3.16-1.93,22.06,22.06,0,0,0-3.14-3.2c-.91-.85-.9,0-1,.6s.3,1.52-.45,1.74c-.32.09-1-.72-1.38-1.18-1.69-1.9-2.44-3.9-3.14-8.85-.17-1.22.07-2.48-.84-3.5,1.5-1.15.55-2.78.8-4.17s-.66-3.34,1-4.6c-1.49-1.08-1.07-2.69-.89-4.05a4.53,4.53,0,0,0-1.12-3.55c-1.75-2.05-2.1-5.18-4.91-6.4-1.81-5-7.21-6.06-10.48-9.48-2,0-3.48-1.47-5.18-1.88s-3.51-1.76-5.54-1.18c-1.29-1.86-3.74-.22-5.26-1.83s-3.37,0-5.07-.17c-.47,0-1,.17-1.37-.34-1.4-1.77-2.84-2.21-5-.76-.9.62-2.69.41-3.9,0-1.71-.55-3.24-1.46-4.42.71-.25.46-.35.25-.73.05-2.41-1.32-4.51-1-6.51,1.08-1,1-2.31-.66-3.33-.43s.73,2.48-1.68,2.83c-1.29.19-2.27,2.24-4.17,1.89-.36,1.7-1.72,2.66-2.82,3.82-.35.36-.71,1-1.06,1-1.33,0-1.75.61-1.56,1.82.17,1-.68,1.41-1.21,2s-1.38,1.1-1.67,1.81c-.14.32,1,.71.24,1.8s-1,2.91-1.35,4.41a1,1,0,0,0,.51,1.23c.11.05.42-.48.7-.65,1.08-.67.45-1.87.84-2.66.83-1.71,1.77.28,2.61.11a2.24,2.24,0,0,0,1.28-1.4,3,3,0,0,1,2.54-2.43c2.09-.51,3.23-3.09,5.78-2.95.49,0,.79-.43.74-1-.18-2,1.65-3.31,2-5.16a.88.88,0,0,1,1-.8c1,0,.94.65,1,1.33.37,5.32,4,8.48,8.18,10.52,2.69,1.32,5.56,2,7.68,4.43.83.95,1.93,1.67,2.83,2.65,1.76,1.92,5.59,1.81,5.46,5.7,0,.52.81.41,1.28.38.92-.05,1.63,0,1.59,1.25,0,.29.17,1.15.84.38.89-1,1.6-.68,2.43.15,3.06,3.05,6,6.17,10,8.19,1.66.84,2.65,1.57,4.24.14.38-.35,1.91-.56,2.21.25.44,1.19.58,2,1.85.74,1.86,2.06,4.54,2.69,6.82,4s2.66,4.12,3.57,6.43c.38,1-.41,1.54-1.06,2-1.09.83-1.2-.56-1.73-.91a8.5,8.5,0,0,1-3.14-4.67c-.29-.9-1.08-1.82-1.47-1.8-2.55.18-4.43-1.74-6.65-2.05-3-.44-5.92-.69-8.36-2.91a2.9,2.9,0,0,0-3.24.07c-.82.61-.64,2.18-.24,2.76,1,1.49.54,3.15,1,4.61s.56,3.42,1.8,4.74c-1.61,1.68.54,2.56.83,3.83.1.46.36,1,.25,1.37-.69,2.79,1.41,4.51,2.66,6.4s3.1,3.66,4.61,5.56a58.07,58.07,0,0,1,5.2,7.38c1.53,2.7,3.59,5.11,3.66,8.52,0,1.05,1.77-1.31,2.4.47.15.43.78,1.72,1.71.38.7-1,2.13-.91,2.86-1.43,1.52-1.1,3.57-.15,4.51-1.14,1.71-1.8,4.06-2.67,5.7-4.48,1-1.09,1.47-1.79-.52-2.29s-1.79-3.89-4.56-3.26c0-.11-.08-.31,0-.34,1-.64.78-1.38-.09-1.75-3.92-1.67-6.8-5-10.75-6.6-2.94-1.16-4.38-3.53-5.29-6.33-.19-.57-.21-1.38.58-1.65a1.23,1.23,0,0,1,1.33.38c1.49,1.55,3,3,4.58,4.57,2.87-2,3.84,1.53,5.77,2.22a15.9,15.9,0,0,1,4.31,2.86c1.45,1.22,3.62,1.71,4.35,3.62s3.23,1.66,3.57,3.42C604.91,460.2,606.24,460.06,607.84,460Z"/><path d="M571.71,406.85c1-1.62-.92-2.25-1-3.53,0-.64-.62.25-.94.44-.65.39-1.32.43-1.67-.23a1,1,0,0,1,.62-1.52,6.41,6.41,0,0,0,.93-.17c.58-.29.39-.88.32-1.33,0-.2-.47-.44-.75-.49-.48-.08-1.14-.22-1.46,0-1.68,1.26-2.92,1.81-2.76-1.17a.77.77,0,0,0-.92-.86,6.71,6.71,0,0,1-4.1-.94c-.69-.41-2.45.24-1.85-1.29.38-1,1.11-2.92,2.86-2.17a4,4,0,0,0,2.8.33c1.65-.61,3-1.21,3.24,1.32.1.9.88.8,1.52.74,1.78-.15,1.81,3,4.06,2.15.33-.13.34.77.41,1.25.24,1.71.66,3.31,2.67,3.79-.69,1.69.57,2.8,1.07,4.2.88,2.47,2.73,3.93,4.44,5.65a19.9,19.9,0,0,1,2.77,3.66c.38.61-.35,1.13-.76,1.64-.57.72-.89.53-1.45,0s-1-1.92-2.13-.49c-.42.52-1.13.16-1.67-.34-3-2.72-4.81-6.21-6.69-9.69C570.85,407,571.82,407.17,571.71,406.85Z"/><path d="M627.2,522.59c-.22,1.93-.07,3.17-.51,4.14-.93,2.06-2.68,2.2-5.11,1.44a9.06,9.06,0,0,1-5.53-4.53c-1.34-2.4-1.59-4.2.34-6.4.63-.72.08-2.09,1.42-2.24s2.68.52,3.59-.9c1.21.66,1.82,2.23,3.45,2.25C624.42,519.05,628.17,520.47,627.2,522.59Z"/><path d="M635.93,525c-2.48.09-6.91-3.94-6.92-6.51,0-.46-.16-1,.33-1.37.75-.64,1.42-1.4,2.13-2.1,2.65-2.62,4.72-2.87,7.49-.48,1.39,1.21,3.13,2.24,3.14,4.7,0,1.79-.14,4.32-1.47,4.48C639,523.93,637.76,525.11,635.93,525Z"/><path d="M641.36,572c-1.38.33-2.27-.51-3.34-1.4-2.11-1.76-2.8-4.18-3.44-6.59-.55-2.07,1.13-3.29,2.43-4.5s2.41-.75,3.39.4a3.11,3.11,0,0,0,2.56,1.14,3.36,3.36,0,0,1,2.82,2.43c.35,1.19,1.32,2.56,1.08,3.47-.42,1.58-1.73,2.93-2.69,4.36C643.48,572.35,642.4,571.9,641.36,572Z"/><path d="M616.29,549c-2,.12-3.29-.06-4.38-1.8-1.33-2.12-2.73-4.35-1.76-6.59a10.89,10.89,0,0,1,4.51-4.43c.79-.47,2.78.43,3.29,1.79.91,2.47,2.8,4.35,3.63,6.93.5,1.55.15,2.31-.77,2.73C619.29,548.29,617.93,549.85,616.29,549Z"/><path d="M625.78,585c-3.16.06-5.64-.17-6.9-3.42a2.68,2.68,0,0,1,0-2.22A12.6,12.6,0,0,1,620,576.3c1.5-2.56,2.87-3.2,5.7-2.31s3.83,3.15,5.15,5.31c-1.55,1.26-.19,3.3-1.3,4.75S626.77,584.7,625.78,585Z"/><path d="M581.54,502a5.59,5.59,0,0,1,1.35.31c1.78.67,3.16,2,4.69,3,2.39,1.53,1.17,6.42-1.29,8.08-1.4.95-2.14-.33-2.79-.21-2.88.55-4-1.7-5.85-2.87-2.76-1.73-.68-3.65-.57-5.4C577.17,503.59,580.09,502,581.54,502Z"/><path d="M664,563.42c.59,1.49-.52,2.73-1.08,3.92-1.06,2.26-4.11,2.87-6.27,1.68-1.09-.6-1.53-2-3.11-2.11-.83-.07-.41-1.8-1.41-2.28,1.45-1.4-1.06-2.72-.11-4,.46-.63,1.18-1.51,1.76-1.5,1.15,0,2.18-1.09,2.9-.74,1,.46,1.45.86,2.49.08.88-.66,1.92.45,2.8.72C663.71,559.67,664.07,561.56,664,563.42Z"/><path d="M565,515.6c-.21.68.38,1.55-.35,2.26-1.07,1-2.11,2.08-3.17,3.12-.84-1-1.46-1.05-2.83-.37-1.16.57-4.32-4-4.11-5.65.43-3.43.39-3.48,1.17-4.15s1.13-1.66,2.23-1.81,1.5.91,2.55,1.11A5.7,5.7,0,0,1,565,515.6Z"/><path d="M619,566.57c-.15,2.28.72,4.62-1.9,5.34-.72.19-1.31,1.5-1.86.75-.95-1.3-2.67.06-3.48-1.34s-2.08-2.8-2.7-4.36c-.33-.83-.22-1.85-1-2.51a18.93,18.93,0,0,1,2.49-2.42c2.36-1.62,4.44-1.24,6.47.9C618.11,564.09,620,564.83,619,566.57Z"/><path d="M632.4,541c2-.25,2.48,2.53,4.47,2.37-.54,2,2.64,3.89.26,6.15a4.38,4.38,0,0,0-1,2c-.22,1.77-.78,2-2.12,1-1.14-.88-2.74-.27-3.9-1.42-1-.93-3.25-4.46-3-5.5C627.47,543.57,630.39,541.09,632.4,541Z"/><path d="M651,544c1.35-.08,3.07-.14,4.3,1.71,1.11,1.67.93,6.91-.58,8a1.62,1.62,0,0,1-1.36.21c-2.38-1-5.19-1.14-7.08-3.23-.52-.58-1.15-1-1.29-2-.52-3.57.41-4.75,4-4.79Z"/><path d="M576.3,470.2c.12,0,.26-.09.35,0a12.26,12.26,0,0,1,5.3,4.64c.79,1.44-.74,4.09-2.92,5.67-1.32.95-3.17.7-4.72-.68-.62-.54-1.11-1.57-1.77-1.67-2.32-.35-1.76-1.22-.73-2.47.46-.56-.21-1.18-.25-1.69-.09-1.18-.17-2.67,1.61-3C574.24,470.83,575.52,471.49,576.3,470.2Z"/><path d="M561.85,529c3.26,0,5,1.38,5.15,3.93.16,3.19-2.1,6.75-4.46,7-.65-1.68-2.47-.4-3.4-1.33-.57-.56-1.47-1.06-1.11-2,.51-1.37-1.8-2-1-3s.62-1.4,0-2.26c-.31-.43,0-1,.84-1.39A7.39,7.39,0,0,1,561.85,529Z"/><path d="M564.52,559c-1.39-.13-2.72.22-4.1-.92-1.67-1.37-2.3-2.54-1.53-4.52.66-1.68.56-3.8,3.31-3.61.91.06,1.55-1.82,2.85-.45.9,1,2.7.8,3,2.64.16,1,1,1.82,1,3.06,0,3.09-.53,3.73-3.54,3.8Z"/><path d="M594.72,502c-.86-.2-2.44.53-2.6-.52-.23-1.55-1.69-2-2.1-3.15a5.77,5.77,0,0,1,2.21-6,2.76,2.76,0,0,1,2.71.08c2.32,1,3.79,3,5.57,4.61.49.45.39.81-.07,1.05-1.24.63.55,2.46-1.54,3.13A14.78,14.78,0,0,1,594.72,502Z"/><path d="M563,494.72A6.77,6.77,0,0,1,567.9,489c2-.45,3.75.53,5.1,2.85,1.77,3,1,5.15-2.39,6.09a3.52,3.52,0,0,0-2.07,1c-.72-1.75-2.61-.61-3.85-1.55S562.61,496.16,563,494.72Z"/><path d="M611.4,496a7.9,7.9,0,0,1-7.28-3.58c-.45-.64-1.91-2.42.3-3.39.56-.25.94-.91,1.41-1.37,2.24-2.17,5.31-1.85,7.11.88.29.43.11,1.34.77,1.63,2,.86.55,2,.28,3C613.26,495.89,613.07,496,611.4,496Z"/><path d="M541,517.52c.1-.93-.32-2,.67-2.7,1.16-.87,1.79-2.42,3.31-2.78a1.75,1.75,0,0,1,1.84.27c.68.73,1.38,1.44,2.11,2.11,1,.93,1.87,2.35,1.57,3.41-.43,1.56-.5,3.39-2.26,4.56-1.3.87-3.09,1-3.62.49C543,521.45,540.46,520.44,541,517.52Z"/><path d="M542,493.09c0-1.15,2.35-2.95,3.81-3.12,2.25-.26,3.64,1.59,5.59,2.11,1.35.36,0,2.4,1.37,3.33.58.4-1,3.67-2,4.35a18.78,18.78,0,0,1-4.14-.66c-1.55-1.6-3.38-3-4.19-5.19C542.3,493.63,542.14,493.37,542,493.09Z"/><path d="M588.14,488.93c-1.78.82-3.13-.52-4.55-1-1-.35-2.69-1.76-2.14-2.58.72-1.09,0-2.29.89-3.17a4.38,4.38,0,0,1,2.52-1.22c2.83-.62,5.53,0,6.74,2.25.76,1.45.1,2.87-.41,4.47C590.47,489.89,589.13,488.61,588.14,488.93Z"/><path d="M573,570.54c-1.3.68-.85,2-1.1,3,0,.19-.67.47-.77.39-1.47-1.19-3.51-.47-4.92-1.39a4.71,4.71,0,0,1-2.32-4c-.08-2.26,0-3.25,2.28-4.2a4.39,4.39,0,0,1,5.84,3.11c.17.92-.41,2,.68,2.72A1.58,1.58,0,0,1,573,570.54Z"/><path d="M612,501c0-1.27-.29-2.56,1.06-3.56,2.94-2.16,5.82-1.09,7,2.51.41,1.24,1.1,2.15-.45,3-.69.4-1.1,1.47-1.8,1.66-1.19.32-2.19,2-3.32,1.24S611.57,504,612,502A4.76,4.76,0,0,0,612,501Z"/><path d="M594.77,523a6,6,0,0,1-3.74-1c-1.15-.78-2.54-1.41-2.71-2.81s2.59-4.15,4-4.21c1.73-.08,3.79-.57,4.64,1.62a10.07,10.07,0,0,1,1.12,4.52c-.12,1.53-.55,2.05-2,1.84A10.52,10.52,0,0,0,594.77,523Z"/><path d="M596,480c-1.78.4-4-.2-4.84-1.67-1-1.83.35-3.94,1.64-5.62a7.8,7.8,0,0,1,.7-.71c.62,1.71,2.53.39,3.37,1.41s2.3,1.46,2.13,3.08a4.17,4.17,0,0,0,0,.5C599.15,480,599.15,480,596,480Z"/><path d="M513.14,413.54c2.3-.15,4,2.1,6.48,1.54.3-.07.79.46,1.12.79a48.4,48.4,0,0,1,6.45,7.48c.34.5,1.34,5,1.08,5.61-.39.93-.78,2.3-1.5,2.54-1.27.43-2.12-.83-2.22-2-.15-1.62-2.42-2.66-.84-4.89.8-1.13-2.2-3.95-3.91-3.7-1,.16-1.42-.35-2-.9-.92-.85-2.1-2.33-2.9-2.18-1.21.23-1.35-2.08-2.87-.74-.6.52-1.45-1.32-2.18-2.08-.53-.54.35-.67.57-1C511.14,413.05,512.19,413.55,513.14,413.54Z"/></svg>