<svg id="be34bf43-ad2d-4a4f-bc4b-0bae2587072c" data-name="Layer 1" xmlns="http://www.w3.org/2000/svg" viewBox="0 0 1920 35.7662"><defs><style>.b96cd1f8-6bb9-47ca-bcf9-7895288464c5{fill:#006956;}.ad0ff643-478a-498e-b10a-6b036cb4aaca{fill:none;stroke:#ef5518;stroke-miterlimit:10;stroke-width:2px;}</style></defs><path class="b96cd1f8-6bb9-47ca-bcf9-7895288464c5" d="M0,0H1920V29.84c-17.7776,0-17.7776,5.9261-35.5553,5.9261S1866.6673,29.84,1848.89,29.84s-17.7784,5.9261-35.5568,5.9261-17.7775-5.9261-35.555-5.9261S1760,35.7662,1742.2212,35.7662s-17.7774-5.9261-35.5549-5.9261-17.7776,5.9261-35.5553,5.9261-17.7774-5.9261-35.5547-5.9261S1617.7779,35.7662,1600,35.7662s-17.7774-5.9261-35.5549-5.9261-17.7784,5.9261-35.5568,5.9261S1511.11,29.84,1493.333,29.84s-17.7777,5.9261-35.5553,5.9261S1440,29.84,1422.223,29.84s-17.7784,5.9261-35.5568,5.9261-17.7774-5.9261-35.555-5.9261-17.7776,5.9261-35.5553,5.9261-17.7774-5.9261-35.5548-5.9261-17.7784,5.9261-35.5568,5.9261-17.7774-5.9261-35.555-5.9261-17.7784,5.9261-35.5569,5.9261S1155.555,29.84,1137.7775,29.84,1120,35.7662,1102.2223,35.7662s-17.7774-5.9261-35.5548-5.9261-17.7784,5.9261-35.5568,5.9261S1013.3332,29.84,995.5559,29.84s-17.7785,5.9261-35.5569,5.9261S942.2215,29.84,924.4442,29.84s-17.7777,5.9261-35.5554,5.9261S871.1115,29.84,853.3341,29.84s-17.7784,5.9261-35.5569,5.9261S800,29.84,782.2223,29.84s-17.7785,5.9261-35.5569,5.9261S728.8879,29.84,711.11,29.84s-17.7776,5.9261-35.5553,5.9261S657.7778,29.84,640,29.84s-17.7785,5.9261-35.5569,5.9261S586.666,29.84,568.8885,29.84s-17.7784,5.9261-35.5568,5.9261S515.5542,29.84,497.7767,29.84s-17.7776,5.9261-35.5552,5.9261S444.4442,29.84,426.6668,29.84s-17.7784,5.9261-35.5569,5.9261S373.3325,29.84,355.5551,29.84s-17.7784,5.9261-35.5568,5.9261S302.2208,29.84,284.4434,29.84s-17.7777,5.9261-35.5553,5.9261S231.1108,29.84,213.3334,29.84s-17.7784,5.9261-35.5568,5.9261S159.9992,29.84,142.2217,29.84s-17.7784,5.9261-35.5568,5.9261S88.8875,29.84,71.11,29.84s-17.7776,5.9261-35.5553,5.9261S17.7774,29.84,0,29.84Z"/><path class="ad0ff643-478a-498e-b10a-6b036cb4aaca" d="M1920,1.0322c-17.7776,0-17.7776,5.9261-35.5553,5.9261s-17.7774-5.9261-35.5548-5.9261-17.7784,5.9261-35.5568,5.9261-17.7775-5.9261-35.555-5.9261S1760,6.9583,1742.2212,6.9583s-17.7774-5.9261-35.5549-5.9261-17.7776,5.9261-35.5553,5.9261-17.7774-5.9261-35.5547-5.9261S1617.7779,6.9583,1600,6.9583s-17.7774-5.9261-35.5549-5.9261-17.7784,5.9261-35.5568,5.9261S1511.11,1.0322,1493.333,1.0322s-17.7777,5.9261-35.5553,5.9261S1440,1.0322,1422.223,1.0322s-17.7784,5.9261-35.5568,5.9261-17.7774-5.9261-35.555-5.9261-17.7776,5.9261-35.5553,5.9261-17.7774-5.9261-35.5548-5.9261-17.7784,5.9261-35.5568,5.9261-17.7774-5.9261-35.555-5.9261-17.7784,5.9261-35.5569,5.9261-17.7774-5.9261-35.5549-5.9261S1120,6.9583,1102.2223,6.9583s-17.7774-5.9261-35.5548-5.9261-17.7784,5.9261-35.5568,5.9261-17.7775-5.9261-35.5548-5.9261S977.7774,6.9583,959.999,6.9583s-17.7775-5.9261-35.5548-5.9261-17.7777,5.9261-35.5554,5.9261-17.7773-5.9261-35.5547-5.9261-17.7784,5.9261-35.5569,5.9261S800,1.0322,782.2223,1.0322s-17.7785,5.9261-35.5569,5.9261S728.8879,1.0322,711.11,1.0322s-17.7776,5.9261-35.5553,5.9261S657.7778,1.0322,640,1.0322s-17.7785,5.9261-35.5569,5.9261-17.7775-5.9261-35.555-5.9261S551.11,6.9583,533.3317,6.9583s-17.7775-5.9261-35.555-5.9261-17.7776,5.9261-35.5552,5.9261-17.7773-5.9261-35.5547-5.9261S408.8884,6.9583,391.11,6.9583s-17.7774-5.9261-35.5548-5.9261-17.7784,5.9261-35.5568,5.9261-17.7775-5.9261-35.5549-5.9261-17.7777,5.9261-35.5553,5.9261-17.7773-5.9261-35.5547-5.9261S195.555,6.9583,177.7766,6.9583s-17.7774-5.9261-35.5549-5.9261-17.7784,5.9261-35.5568,5.9261S88.8875,1.0322,71.11,1.0322,53.3324,6.9583,35.5547,6.9583,17.7774,1.0322,0,1.0322"/></svg>