<svg xmlns="http://www.w3.org/2000/svg" xmlns:xlink="http://www.w3.org/1999/xlink" width="1080" height="1080" viewBox="0 0 1080 1080"><defs><style>.a{fill:none;}.b{fill:#f0dfd2;}.c{fill:#33ae90;}.d{fill:#f15a29;}.e{clip-path:url(#a);}</style><clipPath id="a"><path class="a" d="M552.08,567.55C555.51,543.15,487,394,475,352c-14.86-52-33.09-86,7.31-112.18,24.85-16.11,38.79,27.7,53.2,48.24C556.26,317.62,572.67,341.42,587,354c46.65,40.95,48.67,63.28,54.46,91.91C646.72,471.94,629,515,629,515s50.91,18.65,70.13,37.7c13.7,13.59,28.84,37.34,36.35,73.9,4.56,22.21,12.68,56.61-8.87,97-30.41,56.95-71.49-2.35-71.49-2.35s8.27,83.48-54.59,89c-51.73,4.57-60.84-42.62-77.14-57.16C502.8,734.72,486,717,474,680c-7.16-22.1-17.63-67.63-17.63-67.63S414.6,615.31,383,594c-55.9-37.7-70.79-99.31-101.91-120.06-75.2-50.11-55.4-99.78,6.91-88.94,69,12,136.15,78.7,164.83,105.69C471.25,508,528.93,582.56,552.08,567.55Z"/></clipPath></defs><title>Moth 5</title><path class="b" d="M435.69,498.06s-6.33-4.35-24.49-7-40.94,5.86-61.1-11.4c-13-11.15-16.1-32.05,3.14-67.71,12.75-23.63,44.2-43.14,55.7-66.62,13.16-26.86,14.93-66.71,5.08-73.61-1-.72-.41,24.6-11.91,44.32-10.62,18.2-28.22,33.23-44.38,45.2-13.53,10-20.46,15.61-28.43,24.92a76,76,0,0,0-12,19.92s-21-8.24-24.47-23.8c-3.55-15.94,4.91-46.08-5.74-63.79s-33.92-28-33.65-23.21c.55,9.72,11.8,12.37,17.8,36.12,7.1,28.12-8.53,43.52-1.87,65.88,6.87,23.1,29.47,33.62,31.79,44.05.89,4,.05,14.72,3.38,31.54,3.65,18.45,16.62,38.52,16.62,38.52a99.14,99.14,0,0,0-8.75,5.85c-6.86,4.87-16.46,19.08-11.89,18.93,6.64-.23,7.6-3.11,16-7.32,7.53-3.77,11.74-3.54,16.17-2.44,8.16,2,15.9,6.92,26.75,8.69s26.46-3.56,36.72.7c17.05,7.07,19.73,32.53,37,46.25L627.05,770.14s9.51-19.27,25.46-4S674.34,795,674.34,795s37.34,49,64.37,65.16c22.29,13.32,64.34,17.68,64.34,17.68s13.28-17,17.26-33c5.3-21.26,4-43.3,4-43.3s-40-7.4-61.91-17.57-37-37.51-54.28-47.46-151-153.61-175.61-160.68S476.58,564,467.29,553.15C450,533,478.19,498,470.73,470c-7.76-29.22-30.61-48.69-38.12-60.43-10.61-16.58-.13-33.3-6.3-36.21,0,0-10.22-8.09-11.09,25.57-.5,19.7,21.16,43.51,25.82,62.55S435.68,486.76,435.69,498.06Z"/><path class="c" d="M440,471.65a52.51,52.51,0,0,1,.08-7c.22-1.65-1.61-3-1-4,1.2-1.92-.55-2.65-.86-3.93a25.31,25.31,0,0,0-1.66-3.82c-1.11-2.56-3.73-4.39-3.69-7.47-1.94-.19-2.1-2-2.89-3.22-2.83-4.28-4.06-9.48-7.65-13.32.72-2.19-2.95-3.16-1.54-5.54-2.46-.29-1.76-2.18-1.82-3.66a2.64,2.64,0,0,0-.56-1.78c-.72-.89-2.47-1.4-2-2.77.62-1.67-1.07-1.62-1.38-2.51s-1-2.09-.73-2.33c1.35-1.28-1.2-1.72-.43-2.91.63-1-.7-1.66-1-2.52-1.17-3-1-6.07-.87-9.11.14-2.87-.94-5.91.95-8.59-.31-4.85,4-7.66,5.2-11.85,2.24-.52,3.33-2.51,4.87-3.91.6-.55,1.22-.36,1.85-.38,2-.05,3.26,1,4.35,2.66.94,1.47,2.82,2.42,1.08,4.54-.64.79,1.68,1.69.2,2.74s.61,2.34.16,2.68c-1.67,1.29,1.35,1.95.26,2.82-.85.67-.73,1.78-1.39,2.43-1,1-.63,1.68.23,2.44.68.61,1.57,1.09.35,2.22-.3.26,1.95.7,1.76.87-1.73,1.54.93,2.76.15,4.29a2.34,2.34,0,0,0,1.11,3c1.05.69.43,1.13-.08,1.81a.94.94,0,0,0,.62,1.5c.49.09,1.23.07,1.23.53,0,1.84-.14,3.68,1.82,4.77s.84,3.34,2.22,4.58c3.12,2.79,4.23,7,7.23,9.94,2.36,2.31,3.66,5.69,7,7,.14.05.33.22.34.34a5.63,5.63,0,0,0,3.31,4.73c2.33,1.12,2.41,3.7,4.27,5,.67.48,2.18,1.59,1.14,3.4-.67,1.18,1.18.24,1.5,1,2.75,6.69,7.51,12.59,8.1,20.12a5.12,5.12,0,0,0,1.15,2.53c1.46,2.3.76,4.75.9,7.13,0,.94-1,1.27-1.47,1.88-.74.88-.2,1,.55,1a.84.84,0,0,1,.94.86c.3,2.7-.82,5.57,1,8.09-1.89,3.2-.34,6.79-1.1,10.06-.52,2.22-2.23,4.14-2,6.64-1.86,1,.92,1.82.13,2.71a3,3,0,0,0-1,2.6c.06.32,0,.68,0,1,.31,1.66-3.29,1.78-1.58,4a24.22,24.22,0,0,1-1,4.11,25.78,25.78,0,0,0-1.6,4.36c-.34,1.37-2,2.59-1.77,4.2.28,1.78-.87,3.08-1.27,4.55-.34,1.25.23,2.63-.7,3.88-.43.6-.5,1.69-.94,2.55-.24.48,1.76,0,1.91,1.54a10.54,10.54,0,0,0,3,6.74,29.91,29.91,0,0,1,6.21,7.86c2.28,0,3.95,2,6.07,2.16,1.62.16,2.16,1.33,3.17,2.08,1.16-1.61,1.83-.22,2.45.49,1.64,1.87,4.33,1.78,6.13,3.45.48.45.86.68,1,1.35.06.37.15.73.91.4.95-.41,4,.38,5.09.85,2,.84,3.92,2.05,6,2.35a5.9,5.9,0,0,1,3.25,1.89c1,.92,1.19,2.49.32,2.9-.68.32-1.72,2.14-3.15.49a2.21,2.21,0,0,0-3.16-.3c-.6.51-2.49-.79-3.63-1.67-1.63-1.24-1.85-1.12-4.81-1.58a4.86,4.86,0,0,1-3.13-1.38,6.16,6.16,0,0,0-4.09-2.14c-1.3-.11-1.53-.6-1.78-1.68-.3-1.28-1.55,1.87-1.8-.24-.14-1.23-.87-1.36-1.66-1.13-1.65.5-2.87-.65-3.94-1.32-.84-.51-2.62-.22-2.64-2.27,0-1.14-.82,1-1.66.26a14.52,14.52,0,0,0-2.38-1.45c-1.22-.74-.24-1.22.21-1.78a1,1,0,0,0-.34-.33c-1-.32-2.26.15-3.08-1-1.06-1.56-2.42-2.92-3.39-4.53-.38-.64-.66-1.37-1.06-2.06-.51-.86-2.67-.81-1.42-2.86.54-.88-1.21-2-1.85-2.89-.91-1.21-.4-2.55-1.16-3.57a7.2,7.2,0,0,0-.64-.71c1.62-1,.26-3.19,1.15-4,1.53-1.31-1.49-2.66.39-3.58-.34-4.61,3.45-7.55,4.77-11.54.74-2.26,1.79-4.31,1.69-6.79a11.08,11.08,0,0,1,2.44-7.45c1.14-1.34-.5-2.09-.21-2.79a28.18,28.18,0,0,0,1.75-5.28c.37-1.85-.94-4,1-5.58-.36-2.16,1.05-4.71-1.41-6.43-.21-.15-.5-.55-.44-.68.4-.8,1.59-1,1.61-2.13,0-.8-2.65.63-1.13-1.44.64-.87-1.05-1.32-.69-2.44a10.2,10.2,0,0,0,.06-3,27.28,27.28,0,0,1,0-3c.12-1-.83-1.36-1.11-2-.85-2.05-3-3.93-1.27-6.43.52-.73-.19-.74-.3-1.09-1.11-3.39-2.16-6.8-4.34-9.71-1.22-1.62-.75-4.11-2.74-5.36s-.88-4.15-3.14-5.26c-.39-.2-.29-1.14-1.25-1.61a10.81,10.81,0,0,1-4-4.06c-1.45-2.16-3.66-3.79-5.34-5.82-1.54-1.85-4-2.84-4.62-5.59-.5-2.4-3.2-3.58-3.85-5.89s-2.81-3.4-3.12-5.71c-.17-1.33-1.71-1.7-2.13-3.13-.37-1.26-1.41-2.15.13-3.21-.83-1-2.1-1.62-2.12-3.12L427,401c.51-2-.92-3.65-1.2-5.55-.14-1-1.32-1.76,0-2.81a1,1,0,0,0,.2-.87,4.11,4.11,0,0,1-.84-4.55c.53-1.3-.46-2.83.86-3.82-.49-2.46-.93-4.94-1.49-7.39-.09-.4-.67-.69-1-1-.16.26-.33.52-.48.8-1.95,3.51-4.95,6.51-5.19,10.85,0,.38-1,.56-.55,1,1.1,1.17,1.14,2.44.05,3.39-1.33,1.17,1.54,2,0,3.24-.66.5-.55,1.77.17,2.65.28.34.64,1.07.5,1.23-2.14,2.54,0,4.24.91,6.35.46,1.09,2.34,2.66.19,4.19a1.78,1.78,0,0,0,.43,2.22c1.95,1.37,2.2,3.78,3.38,5.63a5.65,5.65,0,0,1,1.21,4c-.35,2.11.67,3.59,2.69,4.85,1.45.9,3.55,2,3.25,4.56-.17,1.35,1.25.66,1.71,1.2.68.8,2.13,1.43.75,2.75-.5.48-.28.72.08,1.08.81.81,1.6,1.65,2.4,2.47-1.84,1.28.07,1.76.58,2.45s.74,1.18.22,1.71c-.85.85-.84,1,.41,1.37s1.82.84,1,2.67.67.85,1.34.28c-.21,1.85,2.33,1.58,2.4,2.9a3.47,3.47,0,0,0,1.44,2.92c.81.6.22.89-.08,1.45a2.16,2.16,0,0,0,.55,3,3.18,3.18,0,0,1,1.2,3c0,1.15-.67,2.5,1.53,2.92,1,.19.68,3.92-.62,5.19-1.11,1.08-.61,1.51.18,2.19.19.15.75,4.94.91,5.29.41.87-1.83,1.16-.35,2.35,1.14.9-.82,1.79-.6,2.39,1.1,3-.52,5.18-1.79,7.49a2.14,2.14,0,0,0-.25,1.37,8.51,8.51,0,0,1-1.22,6.2,44.36,44.36,0,0,1-6.3,8.31c-1.94,2.09-2.51,2.41-3.37.33-.54-1.29-1-1.51-2-1.34-1.74.31-.52-2-2.09-2.09s-2.58-1.74-3.86-2.58c-1.05-.69-3.39-.66-3.29-2.92a.35.35,0,0,0-.66-.17c-1.32,2.29-2.61-1.31-4.19,0-1.2,1-2.75-.86-4.28-.35-.19.06-1.14-.07-.41-.83,1.29-1.36-.4-1.33-.7-1.07-1.29,1.07-2.48,1.45-3.85.25-.59-.51-1.3-.55-1.68.1-1,1.65-2.18.66-3.45.69-3.2,0-6.55-1-9.58.9-1.39-1.43-2.79.29-4.18,0s-3,.71-4.18-.76c-1.68,1.5-4.07,0-5.75,1.32-.93.71-1.9.24-2.82.45s-1.26-.86-2.07-1.07-1.13,1.58-1.92.67c-1.14-1.31-1.41.69-2.37.46-1.24-.3-.39-1.6-1.15-1.87a5.58,5.58,0,0,0-1.92-.19c-1.34,0-2.67.12-3.48-1.26-.66-1.11-1.75-.71-2.69-.74-1.15,0-1.92.13-.83-1.46.43-.64-1.55-.72-1.79-.49-2,1.88-2.51-1-3.81-1-1.7-.09-1.17-1.36-1.1-2.17.14-1.6-.54-2.07-2-1.85-.16,0-.33,0-.5,0-.91,0,0-3.42-2.19-1.14-.08.09-.55-1-.32-1.23.92-.84,1.06-1.91-.11-2.09-1.85-.3-1.88-1.93-2.7-2.91s-.68-2.67-1.53-3.28c-2.3-1.67-1.42-4.24-2.25-6.28-.06-.15.27-.46.42-.7-4.19-.48-1.87-5.48-4.82-7-.65-.34,1.43-1.91.09-3,1.39-.63-.31-1.73.16-2.06,1.56-1.11-.5-1.48-.38-2.35s1.94-1.34.29-2.24c1.24-3.86.19-8.18,2.41-11.83-.65-1.82,2.3-3,.73-5.19-.76-1.06,1.44-.21,1.41-1-.07-1.82,1.5-3.15,1.27-5a4.09,4.09,0,0,1,.82-3.17c1.93-2.64,2.88-5.95,5.38-8.24.51-.47.82-.73.17-1.46-.93-1-.54-1.87.89-1.79,1.72.09,1.86-.41.9-1.7a6.38,6.38,0,0,1,1.37-1.31c.22-.16.64,0,1,0-.14-3.4,3.57-4.41,4.45-7.16.73-2.27,2.44-3.75,4-5.32,2.09-2.05,3-5.36,5.72-6.52,2.1-.9,2.19-3.25,4.23-4.05,1.88-.74,2.74-2.85,4-4.4s3.22-2.69,4.11-4.79c.44-1,2.72-1,2.8-2.22.14-2,1.62-1.06,2.33-1.59,1.28-.95,1.61-2.73,3.56-3.36,1.75-.56,2.53-2.78,4.46-3.68,1.33-.63,1.48-3.09,3.59-3.2.08-2.23,2.16-3.19,3.31-4.58a25.93,25.93,0,0,0,3.89-6.36c1-2.4,2.65-4.48,3.17-7.22a13.59,13.59,0,0,1,2-4.11c1.15-1.82,2.06-3.59,1.79-5.77a2.32,2.32,0,0,1,1.77-2.59c2-.66,1.43-.76-.08-1.08a.93.93,0,0,1-.56-1.51c2.1-1.59,2-4.22,3.16-6.22.16-.28.6-.44.67-.72.38-1.53-.93-3.43-.39-4.3.9-1.47,1.73-2.68,1.45-4.44a5.86,5.86,0,0,1,.91-3.63c.47-.95-1.4-1.72-.94-3,.21-.59,0-1.5.34-1.83,1.12-1,1.85-2,.68-3.42,1.33-1.12.87-2.66,1-4.08s-.66-3,.85-4.14c-.27-.36-.82-.78-.75-1.05.3-1.2-1-1.59-1.17-2.56s1.95-1.34.29-2.28c2-1.66-.19-3.73.61-5.72.72-1.8-1.39-3.8-.91-6,.29-1.31-1-.9-1.74-1-1.23-.13-1.4.74-1.17,1.57a20.11,20.11,0,0,1,1.06,5.1c0,1.72-2,3.29-.34,5.07-1.72,1.4.27,3.91-1.14,4.94s1.41,1.88-.33,2.73c-.53.26.09,2.44-.51,3.13a12.67,12.67,0,0,0-1.54,2.92c-.79,1.55.11,3.63-.84,5.39-.08.15,1,1-.22,1.11-.77.1-1.07.32-1.2,1.15-.75,5.05-2.17,9.89-6.12,13.41-1.3,1.16-.22,2.87-1.67,3.89s-1.84,2.65-3.47,3.51c-1.23.64-.85,3.25-3.15,3.08-.12,0-.36.21-.35.3.22,3.05-2.91,3.37-4.26,5.14a57.57,57.57,0,0,1-5.25,5.35c-1.76,1.76-3.31,3.87-5.36,5.2s-4.21,2.09-5.86,4a19.9,19.9,0,0,1-5.72,4.19c-3.44,1.86-5.77,5.45-9.5,7.09.55,2.79-2.89.78-3.44,2.93-.34,1.36-2.48,2.4-3.88,3.17a27.79,27.79,0,0,0-4.26,2.8c-3.12,2.62-7.2,4.38-8.85,8.53-1.91.4-2.94,1.95-4.18,3.19-3.95,4-7.31,8.31-8.86,13.83a5.28,5.28,0,0,1-3.77,3.83c2.39,1.79-.14,3.07-.61,4.45-.34,1-1.57,1.67-2.38,2.51s-1.43.77-2,0c-1.69-2.14-4.82-1.49-6.58-3.46-3.92.15-4.71-2.91-5.31-5.67-.47-2.14-.92-.87-1.63-.35-.22.15-.65,0-1,0-1.75-.21-.59-2.84-2.67-3.06-1.4-.15-1.94-1.47-1.83-3,.17-2.46-1.93,1.53-2-.67,0-1.25-1.25-2.09-1.11-3.59.09-1-1.82-.8-2.58-1.76s1.36-1,.32-1.85c-.56-.45-1.4-.84-1.39-1.73,0-.24.44-.48.67-.71-3-2.55-1.77-6-1.8-9.13,0-1.25-1.16-2.54-.56-3.33.85-1.12.14-2.45,1.17-3.61.76-.86.51-2.89.22-4.3s1.66-2.41.13-3.72c-1.1-.94,1.88-1.68.22-2.75.88-1.21.73-2.6.73-4,0-1.67-.47-3.54.15-4.94.5-1.14-.44-2.5.8-3.36.16-.11.13-.89,0-.92-1.67-.6-.27-1.93-.66-2.93-1.38-3.6-3.34-7.06-3.38-11.12,0-2.08-2.5-3.25-2.41-5.49-2.66.11-.43-1.2-.59-1.84-.25-1-.53-2.42-1.29-2.9a10.1,10.1,0,0,1-3.81-4.9c-.24-.56-.93-1.35-1.38-1.33-1.6.08-1.43-.88-1.49-1.9-.09-1.72-2.46-2.15-2.33-4a2.22,2.22,0,0,1-3.5-.95c-.49-2.07-2.33-1.3-3.33-2.15-1.31-1.1-3.11-1.54-4.26-3-.5-.61-4.91-2.11-5.63-2.1-1,0-1.19,1.12-.89,1.3,2.32,1.45,1.79,5.07,4.73,6.06.63.21,1,1,1.3,1.92a37,37,0,0,0,3.46,8.09,33.09,33.09,0,0,1,3.38,8.55c.27,1.18.45,2.2,1.43,2.92,1.46,1.07-1.31,1.69-.25,2.79s2.08,2.53.94,4.3c-.11.16.08.63.27.85.51.62,1.09,1.19,1.65,1.78-1.61,1.25.79,2.45.06,3.7-.07.12,0,.34,0,.49-.5,1.52,2.5,1.6,1.38,3.42-.84,1.35-.25,2.89-.35,4.34s0,2.67,0,4,.36,2.84-.92,4.15c-.76.78,1.19,1.46.91,2.52-.23.89-1.31,1.46-1,2.59.08.3,0,.75.2.9,1.26,1,.49,1.7,0,2.85-.61,1.34-1.45,2.76-1.26,4.51.17,1.52.51,3.16-.82,4.67a2.89,2.89,0,0,0,.33,3.23c.33.36.7.68.08,1.06-2.15,1.33-1.52,3.48-1.47,5.38,0,1.25-.93,2.7-.58,3.38A7.58,7.58,0,0,1,271,391c.09,1.25-.26,2.59.93,3.55-1.68,1.2.05,2.43.43,3,.57.92.63,2.1,1.5,3,.37.37,1.68,1.91.24,3,1.34.27,1.85,1.26,2.48,2.38s2,1.82,2.72,2.89,3.16,1.56,2.07,3.92c-.14.31,1.46,1.83,2.45,2.12s1.25.77,1.2,1.67c0,.48-.13,1.3.39,1.28,2.49-.06,2.19,2.5,3.48,3.53s1.25,2.9,3.12,3.12c.2,2.35,2.88,2.11,3.92,3.77.91,1.47,1.27,3.67,2.47,4.39,2.53,1.5,4,4.29,6.78,5.27,2,.72-1,1.54.21,1.91a3.72,3.72,0,0,1,2.07,1.08c.31.39.67.74.05,1.06-.86.44-.14,1.71-1.53,2.15s-1.32,1.32-1,3.41a4.42,4.42,0,0,1,0,2.48c-1.89,3.59-.88,7.43-.83,11.1,0,3.08,1.23,6.18,2.11,9.11.72,2.4.42,5,1.68,7.29s1.69,5,2.55,7.43,1.86,4.59,2.47,7c.29,1.12.1,2,1.67,2.35.64.14,1,1.8,1.38,2.81.16.44-.08,1,.09,1.46.85,2.12,2.65,3.55,3.95,5.35s1,4.13,3.31,5.2c.8.36,1.16,1.73,1.64,2.68.12.22-.06.61-.16.9s-.29.34-.35.31c-2.12-1-2.75,2.5-3.48,1.89-2.17-1.84-2,1.68-3.28,1.13-1.66,3.7-6.73,4.32-7.78,8.58-2,.56-3.2,2.15-4.5,3.56-.58.62,1,1.8-.49,2.48-.84.38-1.16,1.68-2.44,1.44a2,2,0,0,0-.45,1.23.92.92,0,0,0,1.49.61c1.53-1.43,3.9-1.41,5.21-3.15.8-1.06,2.5-.71,3.15-2.1s2.54,0,3.52-1.34c.22-.31,1.78-2,3-.41.54-1.66,2.52-1.45,3.3-2.32,1.49-1.66,3.12-1.5,4.92-1.61,1.24-.06,2.65.6,3.68-.75s2.14,1.78,3.11-.13c1.35,1.58,3.23,1.61,5.07,2.13,1.53.43,2.88,1.76,4.73,1.84.52,0,1,.9,1.52,1.12.85.32.78,2.42,2.49,1.17.79-.57,1.33.93,2.44.72,1.33-.26,2.84-.37,4,.77,1.65-1.84,2.24.72,3.47.86a26.38,26.38,0,0,1,7.59,2.16c.87.39,2.49-1,3.37.73.22.44.39.32.72.14,3.11-1.66,6.46-.34,9.69-.71,1.32-.14,3.42.5,3.85-.13,1-1.43,2.34.61,3-.72,1.07.7,1.92,1.31,3.19,0,1-1.06,1.63,1.41,3,.91,2.39-.89,4.16,2.88,6.79,1,.11-.08.74.52,1.08.86,1.17,1.13,2.17,2.22,4.12,2.28.82,0,2.86.67,2.78,2.6,2.46.7,2.67,3.11,3.67,4.9.28.51,0,1.19,1,1.34,2.41.36,2.42,3.54,4.7,4.13.14,0,.36.27.33.34-1.16,3.42,3.74,4.43,3,7.69-.11.49.32.85.94.82,2.29-.13,2.92.51,1.18,2.43-.21.23.51.54,1,.58a2.55,2.55,0,0,1,.81.43c-.51.73-1.67,1.36-.56,2.39.44.42,1.12-1.71,1.55-.13.5,1.81,2.21,3.11,2.06,5.15-.09,1.29.84,1.14,1.66,1.14a1.4,1.4,0,0,1,1.42.91c.87,1.5.72,3.91,3.33,4.14.77.07.43,1.08.62,1.65.69,2.08-1.26,3.62-1.07,5.6,0,.33-.32,1-.87.28-.78-1-1.75-1.69-2.25-3.07a8.48,8.48,0,0,0-3.44-4.34c-1.1-.59-1.08-1.1-1.49-1.93-.67-1.39-2.14-2.38-2.83-3.76s-.73-2.91-2.43-3.49c-.51-.17-.46-.82-.7-1.1-1.22-1.48-1.74-3.29-2.62-4.92s-2.84-2.32-2.38-4.52c-2.42-1.16-2.27-4.76-5.17-5.44-.91-.22-.62-.92-.81-1.51-1-3.12-2.39-5.92-6.11-6.5-1.16-2.12-3.88-2.06-5.34-3.89-1.11-1.38-2-1.26-4.68-1.14a40.92,40.92,0,0,1-7.43-.2,5.72,5.72,0,0,0-1.8,0,40.41,40.41,0,0,1-7.93.19c-2.38-.17-4.9.92-7.15-.85-.78-.61-1.47.31-2,.9a2.47,2.47,0,0,0-2.08-1c-2.1.06-4.38.56-5.77-1.78-.11-.18-.59-.18-.9-.18a20.46,20.46,0,0,1-9-1.67c-3.91-1.43-7.59-3.39-11.52-4.78-1.78-.63-3.64-.54-5.44-1.36-1.61-.74-4.28-1-5.81,1.28-.16.24-.59.56-.76.49-2.64-1-3.87,1.9-6.17,2.14-2,.22-3.39,2.37-5.13,3.25-2.71,1.38-5.1,3.78-8.48,3.64-.33,0-.79-.11-1,.06a4.17,4.17,0,0,1-3.48,1.42c.43-1.82-2.21-2-2-3.67.19-1.39-.5-2.85.73-4.23.55-.6.75-1.7,1.51-2.33a7.52,7.52,0,0,0,2.15-3.11,5,5,0,0,1,2.31-2.56c1.57-.93,2.59-2.79,3.78-4.26,1-1.18,2.53-2,3.63-3.44a10.56,10.56,0,0,1,4.46-3.1c1-.42,2.33-1.51.71-3.09-.44-.43-.3-1.54-.28-2.34a6.09,6.09,0,0,0-2.27-5,13.21,13.21,0,0,1-4.44-7.66c-.42-1.85-1.94-3-2.18-4.59s-.33-3.21-1.84-4.27c.35-3.15-2.7-5.46-2.21-8.54.24-1.55-1.33-2.33-1-3.58s-1.92-2.12-.06-3.18c-1.22-.52-.67-2.17-1.77-2.77,1.51-1.14-.38-2-.26-3.08s.28-2.3-.89-3.15c-.24-.17.09-1-.1-1.42-.81-1.81,1.73-3.26.61-4.92s-.6-3.56-.49-5.26c.14-2.19,1.18-4.27,1-6.6-.21-2.16.22-4.36-2.56-5.43-1.15-.44.21-2.87-1.46-3.28-2.73-.67-3.18-3.38-4.82-5s-3.87-2.64-4.3-5.18a6.92,6.92,0,0,1-3.81-3.76c-.45-1-2.47-.21-1.72-1.36,1.21-1.85-.74-1.8-1.2-2.49s-1.57-.94-2.33-1.48c-.46-.32-1.16-.77-.25-1.39.41-.27.49-.63.11-.69-3.12-.47-3.77-3-4.75-5.38-.47-1.16-2-1.39-2.62-2.83-.46-1.13-1.66-1.94-1.36-3.45a2.25,2.25,0,0,0-.29-1.37c-2.21-4.3-2.67-5.86-2.68-9.39,0-3,0-6,0-9,0-2.42-.33-5.07,1.62-6.78,1.55-1.35-1.46-2.21.06-3.2.14-3,1.82-5.9,1.25-8.93-.38-2,2.3-3.66.28-5.6,2.36-.86-1.28-2.91.77-3.83-1.77-1.41,1-2.76,0-4.19-.76-1.1,2.18-3.15-.92-3.74-.09,0,0-.61-.1-.92-.24-1.23,1.61-2.45,0-3.68.59-1.23-1.52-2.34-.16-3.6-2-2-.07-4.95-1.72-7.32a11.89,11.89,0,0,1-2.16-7.09c0-1.09-1.27-1.43-1.76-2.26-.35-.58,1.3-.89.24-1.78a6.81,6.81,0,0,1-2.5-5.45c-1.95-.42.15-3-1.89-3.47-1.65-.39-1.23-2.34-2.1-3.26s-.62-2.68-2.58-3c-1-.16.25-2.46-1.4-3.34-1.36-.73-2.24-2.18-3.84-2.83s-1.33-2.63-1-3.95a2.26,2.26,0,0,1,2.72-1.59c.34.07,6,.91,6.26,1,1,.35,1.79,1.18,3.09,1.05,1.93-.2,3.26,1,6,2.41,1.81.94,3.82,1.23,4.43,3.54,2.45-.93,3.25,2.83,5.67,2,.72,1.6,2.6,2,3.52,3.32,2.15,3.09,4,6.37,6.26,9.39,2,2.67,2.29,6.1,4.6,8.66.95,1.06.52,3.31,1.32,4.9a4.37,4.37,0,0,1,.47,1.75c-.19,1.84,3.51,2.23,1.58,4.59-1.28,1.56,2.58,3,.22,4.82-.16.12.64,1.52,1,2.32.2.41.8.95.69,1.16-1.62,3.15.6,6.25.1,9.38a3.75,3.75,0,0,1-.93,2.14c-.86.95,1.19,1.6.51,2.35-.95,1-.52,2.17-.62,3.26s-1.2,1.4-1.05,2.59c.59,4.74-1.69,9.3-1,14.08.11.75.35,1.68-.47,2.29-.56.41-.38.91.07,1,2.17.57,2.24,2.63,3.14,4.14s2.35,3,3.24,4.67a10.34,10.34,0,0,0,2.86,3c1.19.95,2.16,1.47,2.28,3.21.08,1.05.77,2.81,2.43,1,1.42,1.42,3.25,2.62,4.12,4.31.74,1.45,1.4,1.88,2.82,1.68a9,9,0,0,1,1,0c2,0,1.76-.15,2.91-2.79.85-1.94.38-4.87,3.39-5.51a24.44,24.44,0,0,1,6-9c.74-.72-.72-2.61,1.22-2.64,1.41,0,2.24-.23,2-1.86,0-.29.09-.85.21-.87,3-.49,3.07-3.92,5.22-5.32,1.18-.77,1.92-2.14,3.49-2.47a3.65,3.65,0,0,0,2-1c2.88-3.62,7.13-5.49,10.56-8.41a22.31,22.31,0,0,1,6.34-3.95c2-.76,2.62-3.08,5.2-3.32,1.76-.16,3.53-2.09,4.05-4.38.14-.57,1.14-.22,1.26-.44.59-1.08,2.54-.51,2.55-1.78,0-2.68,1.47.55,2.16-.61.57-.95.81-1.43,0-2.19,1.63-.05,2.22-1.74,3.51-2.18.26-.09,1.12.94,1.72-.06.87-1.46,1.36-3.28,3.48-3.47.08-2,2.26-2.08,3-3.19,2.63-3.84,7.13-6.12,8.78-10.67a3.47,3.47,0,0,1,2.46-2.38c1.28-.36,1-1.73,1.79-2.56,2.85-2.82,5.36-6.07,5.12-10.5-.06-1.08.39-1.33,1.42-1.44.71-.08.73-.93.44-1.58-.17-.38-1-.74-.61-1,1.53-1,1.23-3,2.18-4.08,1.86-2,2.24-3.77.61-6-.24-.33-.09-1,0-1.48a1.45,1.45,0,0,1,.5-.76c1.72-1.43,3.64-3.85,3.16-5.64-.53-2,1.93-4.26-.67-5.87,2-1.94.54-4.41,1-6.59.07-.32.15-.79,0-1-1.38-1.56-1-2.8.54-4,1.06-.82,1.31-.2,3.77-1.26,3.91-1.66,4.46,1.65,5.58,3.32a12.18,12.18,0,0,1,2.15,7.09c-.1,3.16.06,6.33,0,9.49-.08,2.07-1.12,4.09,0,6.18.78,1.45-1.6,2.88-.89,3.46,2.09,1.72-.25,2.89-.15,4.3.08,1.2-1.13,2.44.05,3.66-1.4,1.23-1.08,2.41,0,3.7.31.39-.16,1.09-.64,1.06-1.69-.09-1.25,1.08-1.34,2s1.05,1.4.92,1.52c-1.92,1.81,0,4.42-1.13,6-.9,1.25.16,1.57.19,2.3.06,1.32-.45,1.37-1.25.43a.38.38,0,0,0-.67.25,13.32,13.32,0,0,1-1.65,6.85c-1,1.79-.66,4.3-2.24,6.07-.26.29,0,1-.17,1.41-.35,1.17,1.08,3-1.55,3.37-1.12.16.5,3-2.07,3.09-.8,0,.78.8.54,1.26s-1.28,1-1.31,1.44c-.07,1.45-.28,2.75-1.61,3.52-1.65,1-.6,3-1.87,4.3-.53.54-1.05,1.53-1.67,2.24a16.15,16.15,0,0,0-2.92,3.79c-.5,1.06-1.43,2.88-2,3-2.09.39-2.51,2.81-4.23,3.12-2.39.43-.36,1.11-.26,1.69.05.31,0,.91-.08.92-1.92.38-2.78,1.79-3.47,3.4-2.09-2.7-1.08,2.52-2.69,1.06-.77,1.06-3.1.41-2.84,2.59-1.64.12-2.32,2.2-3.51,2.27-1.8.09-1.13,2.69-3,2.37-.32-.06-1.05,1-1.44,1.79a11.89,11.89,0,0,1-3,3.91c-1.25,1-1.3,3.37-3.56,3.21-1,2.77-3.75,4.06-5.23,6.35-1.28,2-3.65,3.13-4.15,5.68-.25,1.32-2,.69-2.55,1.85a13.27,13.27,0,0,1-1.68,2.83c-2.47,3-5.05,6.07-5.72,10.1-.25,1.53-2.47,1.81-2,3.67s-2.61,1.17-2.13,3c-2,2.82-2.72,4.8-2.8,9,0,1.12-.93,1.58-1.15,2.56a15.88,15.88,0,0,1-1.91,3.7c1.51,1.22,0,2.46-.05,3.66-.15,2.05.93,4.32-.95,6.09,2,2.89.17,6.39,1.52,9.37.13.29.49.57.45.8-.69,3.94,2.11,6.47,3.8,9.44.39.67,1.25,1,1.25,2,0,2.67.64,5,3.61,6,.38.12.47,1.08.73,1.64a8.3,8.3,0,0,0,6.27,5.19,6.39,6.39,0,0,1,3.73,1.83c.68.76,1.07,1.25,2.2.23.88-.79,2.18.67,2.23,1.31.21,2.23,1.86,1.94,2.76,1.39,1.45-.9,3.24,1.05,4.37-.79.05-.07.33-.05.48,0,1,.31.13,2.33,2.11,2.11.92-.1,1.39-1.35,2.4-.71.13.09.22.32.35.34,1.29.14.28-2.21,2-1.79,1.06.27,2.15-.13,3.18.87s1.73-.93,3-.94c1.56,0,2.94,1.32,4.74.22a3.69,3.69,0,0,1,4.14-.16,1.23,1.23,0,0,0,1.72-.5c.94-2.2,2.41-.57,3.49-.37,1.61.31,3,1,4.73,0,1.51-.83,3,.62,4.44,1.17.55.21,1.16,1.15,1.64.71,2.81-2.6,5.49.21,8.21.05a3.25,3.25,0,0,1,1.37.31c1.31.51.34,2.8,2.31,2.71a12.23,12.23,0,0,1,3.18.65c2.42.56,3.35,2.85,5.4,3.73.73.31,1,.47,1.46-.15s4.64-9.8,4.75-10.53C439.68,481.06,440.57,476.4,440,471.65Z"/><path class="c" d="M802.11,880c-1.26-.1-2.58.35-3.67-.92a1.85,1.85,0,0,0-2.26.27c-.6.75-.94.47-1.44-.08a6.28,6.28,0,0,0-1.35-1.06,3.8,3.8,0,0,1-4.58.61c-1.21-.79-2.53.76-3.49-.75-.28-.44-2.11-.4-2.82.06-1.09.71-1.56,1.24-1.53-.58,0-.18-.52-.57-.7-.52-2.36.62-4.36-.9-6.59-1-1.11-.08-2.87.78-2.8-1.56,0-.13-.52-.42-.79-.4-2.65.24-5.15,0-7.17-2-1.45.79-2.54-2.28-4.35-.28-.59.65-.13-1.62-1-1.54-1.57.16-2.72-.79-4-1.25-2-.7-4.35-.73-5.94-2.65-.61-.73-1.92-.91-2.93-1.27-2.2-.77-4.73-.85-6.25-3-1.32.55-1.71-1.26-3.1-1.12-1.07.11-3.19-.84-3.21-1.37-.08-2.44-2.44-.87-2.77-1.74-.5-1.28-2.22-1.78-2.26-2.42-.16-2.46-2.17-.76-3-1.63a21.49,21.49,0,0,0-5.53-4.68c-1.13-.6-1.88-1.87-2.88-2.75-.47-.42-2.14,1.73-1.75-.79-3.24-.59-3.53-4.66-6.53-5.53a8,8,0,0,0-3.59-4.45c-1.53-.94-1.16-3.24-3.39-3.71-1-.22-.19-2.85-2.41-3.4-1.42-.34-1.78-2.51-2.75-3.77s-2.38-2.49-3.32-4-1.92-2.92-3-4.32c-2-2.64-3.62-5.56-5.94-8-.82-.88-1.14-1.91-2.55-2.42-1.18-.42,0-3.32-2.46-3.29.64-2.49-1.85-3.27-2.91-4.65-1.25-1.65-2.37-3.44-3.65-5.07a14.56,14.56,0,0,0-3.83-3.8c-1.38-.81.25-3.65-2.44-3.31-.17-2.46-2.46-3.55-3.53-5.44-.79-1.4-1.12-3.39-3.41-3.6a1.79,1.79,0,0,1-1.31-1.87c.16-1.55-1-2.58-1.58-3.84-.38-.85-.59-2,.18-1.86,1.06.2,1.58-2,2.8-.32,1.1,1.54,2.82,2.56,2.94,4.85,0,.55.28,2.79,2.25,2.42,2.61,2.24,4.09,5.41,6.46,7.8,2.05,2.06,3,5.09,5.77,6.49a2.1,2.1,0,0,1,1.21,2c0,2.08,1.3,3.52,2.7,4.87.7.68,1.51,1.26,1.29,2.48s.67,1,1.44,1.37c2.35,1,2.77,1.72,3.51,4.39.17.59,0,1.68.76,1.47,2.54-.69,2.36,1.73,3.16,2.77.47.62.53,1.18,1.51,1.38.62.12,1.64,1.3,1.51,1.68-.78,2.31,2.16,2.73,2.16,4.7s2.51,2.23,3.13,4.1c.49,1.49,3,1.5,3.4,3.43,2.64-.35-.09,1.62.75,1.8a6.12,6.12,0,0,1,2.43,1.42c1,.74,1,2,1.75,2.79a26.5,26.5,0,0,0,2.12,2.12c.65.55-.08,2.06,1.64,1.94,1.15-.07.43,1.75,1.46,2.21a8.6,8.6,0,0,1,2.4,1.42,87,87,0,0,0,7.67,6.78c1.66,1.23,4.34,1.69,4.6,4.44,2-.11,3.49.51,3.81,2.77,0,.14.58.36.83.29,2.64-.76,3.51,2.66,5.9,2.48,3.9,3.24,8.49,5.08,13.28,6.55,1.34.42,1.8,2.51,3.67,2,4.07,2.61,9,2.14,13.37,3.93A34.29,34.29,0,0,1,773.5,871a9.28,9.28,0,0,1,1.09,1c1.31,1.28,2.18-1.6,3.83-.28.92.73,2.28,1.77,3.94,1.3s3.81,1.31,5,.78c2-.88,3.16.28,4.56.7s2.64-1.55,4.21,0c1,1,2.65.87,4-.07,1-.67,1.34,1.12,2.41.59,1.74-.86,3.14-2.11,3.4-4a9.48,9.48,0,0,1,2.19-4.61c.4-.5.91-.85.9-1.64,0-3.68,3.16-6,4.12-9.29.32-1.09,2.49-1.64.89-3.33-.12-.11,0-.7.23-.85,2.89-2.31,2.53-6,3.72-9s2.58-5.88,2-9.15c-.35-1.93,2.71-3.78.06-5.68.26-.16.53-.46.79-.46,1.2,0,1.58-.86,1.06-1.56a3.57,3.57,0,0,1,0-4.8c-1.46-1.16,1.43-3.09-.77-4.32-.34-.19-.4-2.13.29-3.22,1.91-3,.28-6-.65-8.71-.67-1.95-3.44-1.69-5.34-2.26-.15,0-.46.44-.69.67-1.64-2.59-4.67-1.26-6.86-2.41-1-.52-1.94-1.69-3.57-.52-1,.73-1.82-1.07-2.61-1.81s-1.16-.52-2.2-.26c-2.26.56-4.94.62-7-.94-1.57-1.21-3-1.73-4.84-.93-.71.3-1.56.17-1.67-1.09s-.94-1-1.78-.56c-.31.18-.38,1-1.07.35s-1.4-2.11-2.79-1.61c-1,.36-1.76-2-2.73-.13-.47-.41-.88-1-1.42-1.19-1.47-.38-2.48-3.08-4.49-1-.06.07-.66-.21-.65-.26.47-2.69-1.74.15-2.21-1.11s-2.33-1-3.27-1.57c-1.73-1.06-4.44-.8-5.2-3.07-.64-1.94-2.15,1.31-2.3-.53s-1.24-1.12-2.11-1.23l-5.66-4.22c.15-2.51-3.27-2.25-3.48-4.48-2.47.12-2.32-3.09-4.46-3.51-1.39-.27-1.21-2-2.19-2.86-2.73-2.47-6.39-3.77-8.59-6.87-1.38.24-1.35-.81-1.76-1.69-1-2.12-3.59-3.19-3.81-5.84a.49.49,0,0,0-.32-.35c-4.06-.41-4.47-5.59-8.3-6.34-1-.19,2-2-.73-2-.7,0-1.43-1.15-2.16.09-.24-.57-.35-1.53-.73-1.64-2-.61-3.66-1.94-2.58-3.73.82-1.35,3.29-1.1,4.86,0,1.08.75,2.72-.2,3.48,1.36.14.27,1.22.19,1.25.38.31,1.76.29,3.67,2.86,3.68,2,0,1.43,3,3.66,3.13.94.06,1.79,2,2,2.88.44,1.72,2.26,1.75,2.81,3.28.47,1.28,1.91,2.22,3,3.26a15,15,0,0,0,3.77,2.94c1.41.71,2.38,2.28,3.59,3.42,1,1,1.79,2.39,3.64,2.12.92-.14,1.55.83,1.83,1.45,1.17,2.64,3.16,4.2,5.59,5.67,2,1.21,3.63,3.14,5.55,4.63,1.28,1,2.81.73,3.84,1.66,1.18,1.07,1.53,3.19,3.8,2.74.91,1.6,2.59,1.69,4.11,2.14s3.17,1.37,4.82,1.59,2.58,2,4.44,1.58c1.51-.3,2.62,1,4,1.53,1.72.63,3.18,2.32,5.28,1a1.07,1.07,0,0,1,1,0c2.17,2.12,5.31,1.64,7.78,3,.84.45,1.61,1,2.73.09.67-.57,1.36.6,1.92,1.15s1.22,1.19,1.63.73c1.52-1.67,2.51-.82,3.57.44a1.75,1.75,0,0,0,1.24.64c1.86.23,3.78-1.42,5.58.19,1.65,1.47,4,.47,5.79,1.74.67.49,1.86-.54,2.53.79.76,1.52,2.57,2.31,3,4.18.22.94-1.65,1.47-.64,1.83,1.76.64,1.85.86.91,2.59-1.21,2.25,0,4.6,1.22,6.71.38.65-.23,3.4-.89,3.92-.4.32-.85.63-.63,1.13,1.06,2.41-.36,4.78-.06,7.19a3.41,3.41,0,0,0,.91,2.15c.2.21,0,1.25-.14,1.26-2.69.19-1.25,3.22-3.05,4.29-1.54.92.2.79.74,1s.61.65.07,1c-1.35.81-1,1.65-.63,3a7,7,0,0,1-.64,4.64c-.69,1.53-1.58,3.45-1.26,5.5.37,2.31-1.66,3.93-2.18,6.11-.4,1.66-2.19,3.08-1.78,5.22-1.72.33-2.3,1.42-2,3.07-1.82.94-1.8,2.89-2.48,4.47-.44,1-1.89.69-2.31,1.47-.17.32,1.2,1.08.81,2-.23.56-1,.77-1,1.6,0,1.46-1.63.58-2.14,1.51-.38.7-1.27,1.12-1.68,1.82-.24.4,1.88,1.38-.37,1.65-.67.08-1.27.95-1.85,1.5C804.08,880.38,803.05,879.83,802.11,880Z"/><path class="c" d="M802,850.82c.07.51-.1,1.09-.59,1.14-1.39.15-2.88-.27-4,.92-1.47-1.27-4.31-.75-4.94-2.19-1-2.33-3.25-2.1-4.7-3.34-.78-.67-1.9-.65-1.84-2.23,0-.85-.29-3.11-2.31-1.26,0,0-.53-.29-.56-.49a3.41,3.41,0,0,1,0-1.49c.71-2.66-3.29-2.4-2.89-4.14.58-2.54-2.41-2.61-2.47-4.5,0-.1-1.2-.11-1.82-.26-.34-.08-1.18-.11-.51-.79,1.77-1.78.18-1.89-1-2.48-.6-.3-.21-1.59-1.09-2,1-2-.08-2.82-1.87-2.66s-1.87-1.91-1.86-2.22c0-2.32-2.61-3-2.82-4.78-.16-1.35-3.7,0-1.75-2.46a4.36,4.36,0,0,1-2.57-2.77c-.48-1.16-2.52.95-2.63-1.46-.05-1-1.61-2.12-2.72-2.77a14,14,0,0,0-4.34-1.54c-1.13-.23-.28-2.47-1.37-1.65-1.42,1.08-1.93-.13-2.89-.27s-1.5-1.12-2.55-1.19-1.85,1-2.49.8c-1.71-.66-3.11.59-4.78.37s-3.66-.91-5.07.89c-2.22-2.25-4.44,1.32-6.66,0-1.39,1.35-3.22,1.83-4.89,2.67-1.3.65-1.75,0-2.45-.67s-.62-1.34,0-2.07,1.34-.92,1.48-1.88c.24-1.61,1.14-1.27,2-.5.33.29.67.47.7.21.25-2.81,2.15-.15,2.74-.81.91-1,2.31-1,3.27-1.9a2,2,0,0,1,1.86.11c1.26,1,2.14,1.71,2.5-.68.11-.72,1.12-.47,1.75-.47,4,0,8-.24,12,0a33,33,0,0,1,12.8,4c1,.51-2,2.08.7,2,1.06,0,1.39,1.8,2.67,1.92s1.53,1.17,2.25,1.78a17,17,0,0,1,2.47,2.48c1.15,1.49,3.42,1.77,3.68,4.43.15,1.56,3,2.37,2.74,4.85-.06.66,1.32,1.38,1.85,2.18,2.57,3.9,5.4,7.65,7.22,12,2.47.8,3.07,3.42,4.81,5a25,25,0,0,0,5.84,4.13c1.29.6.63,2.38,2,2.16s2,.76,3.09,1A2.46,2.46,0,0,1,802,850.82Z"/><path class="c" d="M322,485.62c0-2.95.16-3.05,2.11-2,1.18.64,2.64.72,3,2.68a7.07,7.07,0,0,0,2.7,3.63c1.4,1.07,1.95,2.71,3.28,3.81,1.11.92,1.83,2.32,3.18,3.07.28.15.44.53.72.68,1,.52.82,1.69,1.4,2.42.76-.91,1.45-.9,2.13.12.48.71,1.5.72,2,1.15.77.69,1.74.73,2.51,1.3,1.24.91,3.1.56,4.14,2.12.62.93,1.85.27,2.8.39a12.44,12.44,0,0,1,5,2.36l.6.55c1.32-1.84,2.73-.57,4.12-.12.87-2.3,2.93,1.28,3.84-.78,3.34,1.94,6.2-.21,9.28-.88,1.29-.28,1.73,2.05,3.1,2.7a1.5,1.5,0,0,1-1.42,2.28c-.74,0-1.42,1.27-2.2,1.88a1,1,0,0,1-1,0c-1.71-1.39-3.81,1.1-5.44-.57a2,2,0,0,0-2.29-.35c-4.33,2.65-8.37-.35-12.54-.51-.35,0-.69-.57-1.25-.57-1.77,0-3.5.33-4.95-1.44-.91-1.11-2.76-1.43-4.11-2-3.2-1.38-5.35-4.45-8.87-5.12-.64-2.16-3-2.63-4.18-4.19s-2.55-3.26-3.71-5c-1-1.41-1.52-3.2-2.72-4.32A4,4,0,0,1,322,485.62Z"/><path class="c" d="M721,827.73a1.11,1.11,0,0,1,1.6-.7c3.76,1.68,7.71.76,11.57,1,1.81.09,3.84.44,5.38-.22s2.85.57,4.46-.61,3.77,1.16,6,.91a3.89,3.89,0,0,1,4.27,2.66.54.54,0,0,0,.38.27c3.11.32,3.84,2.24,3.4,5-.08.47.14,1.11.63.79s.63-1.59.72-1.56c1.15.26.53,1.24.62,1.92.13,1,.87.68,1.41.92,1.11.52,0,.88-.23,1.31a.45.45,0,0,0,0,.34c1.17,1.85,2.94,3.56,3.36,5.56a21.89,21.89,0,0,0,2.42,6c.86,1.6,3,1.87,3.66,3.59,2.07-1.59,3,1.34,4.81,1.21.44,0,1.19.78,1.33,1.32.09.35-.67.92-1.06,1.39a2.32,2.32,0,0,1-.35.35c-1,.74,1.39,1.13.21,1.72a2.66,2.66,0,0,1-2.33-.08c-2-.94-4-1.94-6.25-1.77-1,.07-1.1-.62-1-1.28a2.12,2.12,0,0,0-1.3-2.41c-1.12-.47-2.07-.77-1.72-2.25a1.22,1.22,0,0,0,0-.48c-4.15-.87-2.62-5.85-5.53-7.61.67-2.64-1.32-4.3-2.54-6.07-1.72-2.5-3.67-4.95-6.67-6.16-.43-.17-.83-.74-1.19-.7-3.84.44-7.84-1.14-11.58.91-.51.28-1.81.23-1.89,0-.91-2.51-2.9.8-3.9-.77-1.93,2-3.74,0-5.56-.28C722.54,831.72,720.85,829.05,721,827.73Z"/><path class="c" d="M682.7,764c1.18.07,2.6-.38,2.36,1.57,2.12.07,2.7,2.75,4.82,2.82a5.09,5.09,0,0,0,3.81,3.86c.63.2-1.82,2.13.76,1.76,1.64-.24,2,1.72,3.17,1.91a30.54,30.54,0,0,1,3.1,1c1.08.28,2.29,1.16,3,1,2.57-.57,5.44-.24,7.65-1.88.8-.59,1.85-.7,2.42-1.38.92-1.09,1.54.5,1.75.23.65-.88,1.81-.63,2.47-1.36.94-1,1.14.94,1.87.51a10.68,10.68,0,0,1,4.08-1.06c3-.47,5.12,1.34,7.61,2.18,1.43.49,1.36,2.11,2,3.16.28.45-.35,1.62-.78,2.33s-1,.41-1.68.11a16.74,16.74,0,0,0-4.79-1.62,21.61,21.61,0,0,0-4.67-.28c-3.61.36-3.62,0-5.35,1.32-1.1.85-2.17,2.18-3.81.91-.54,2.33-2.38,2.1-4,1.93s-3.33.78-4.69-.69c-.28-.3-.38-.17-.73.12-1.87,1.55-3.62.32-5.31-.43-1.4-.62-2.14-2.48-4.19-2.07-.39.08-1.36-1-1.5-1.7-.23-1.12-1-2.1-1.73-2.11-2.83,0-1.83-3.68-4.23-4.14-2.06-.4-2.86-2.6-4.43-3.74-.83-.61-.61-1.42-.7-2.22C680.84,764.59,681.12,763.68,682.7,764Z"/><path class="c" d="M468.54,588c-2-.11-4.58.6-5.57-2.51-.14-.42-.46-.29-.69-.29-2.87,0-2.9,0-4.26-1.49-.33-.36-.49-.84-1.08-.71-1.13.26-1.75-.77-2.57-1-1.69-.48-.54-2.8-2.64-3.2-1.05-.19-1.69-2.43-2.89-3.51-1-.95-1.31-2.43-1.9-3.69s-1.75-2.16-2.48-3.45c-.89-1.56-.08-2.09.73-2.81,1.14-1,1.84,0,2.36.77A12.63,12.63,0,0,1,449,569c.44,1.14,1,2,2.39,2,2-.09,2.7,1.57,3.6,2.85.56.8-1.06,1.85-.69,1.82,3.23-.28,4.29,1.77,5.15,4.23.05.13.63.17.92.1,2-.52,3.54,1.49,5.59,1,1.54-.33.64,1.75,1.58,1.93s2.57-.34,2.87.12a16.06,16.06,0,0,1,1.58,4.31c0,.13-.4.56-.64.58C470.51,588.05,469.67,588,468.54,588Z"/><path class="c" d="M427,520.67c-1.17,1.83.61,4.59-2.06,5.92-.62.31-1,.16-.94-.24.25-2.7-1.4.15-2-.69a4.26,4.26,0,0,0-2.7-1.88c-1-.23-1.37-1.59-2.74-1.86-2.41-.48-4.34-2.85-7.17-1.95-.52-1.23-2.08-.72-2.8-1.74-.58-.82-1.55-2.2-1.8.33-.07.71-1.16.28-1.75.46-1.3.38-2.05-1-3.09-1a3.28,3.28,0,0,1-2.92-1.45,9.1,9.1,0,0,0,2.3-2.33,4.51,4.51,0,0,1,5.65-.68c.91.61,1.67,2.38,2.21-.28.12-.6,1-.4,1.65.07a7.58,7.58,0,0,0,5.82,1.6,4,4,0,0,1,3,1.17c1,.75,2.11,2.46,3.78.9a6.13,6.13,0,0,1,1.58,2.37c.22.86,1.35,2.64,2.95,1C426.75,519.7,426.75,520.46,427,520.67Z"/><path class="c" d="M316.84,460c-1.43.26-1.69-.41-1.95-1.85-.28-1.64-1.77-3.09.1-4.71,1-.9-2.06-1.67-.2-2.73-1.25-3.12,2.15-5.59,1.22-8.67a.74.74,0,0,1,.74-1c2.21.16,1-2.58,2.66-3.06.95-.27.64-2.14,1.8-2.66,1.49-.67-.58-1.6.14-2.1.88-.61,2.26.19,3.07-1.07.48-.74,1.32-1.89,2.32-.79.6.66.16,1.7-.16,2.68-.7,2.09-3.14,3.23-3,5.8,0,.48-.91,1.28-1.93,1.21-.38,0-.84.39-.22.91,1.08.92.53,1.68-.29,2.41-.37.33-.71.7-1.06,1.05,2.48,2.25-.69,4.38-.14,6.65.42,1.73-1.38,3.14-1,5.07C319.49,459.88,319.33,459.93,316.84,460Z"/><path class="c" d="M808.61,829.9c-2.32-1.8-5.69-1.66-7.69-3.72-.93-.95-2.87-.49-3-2.6-.12-1.54-2.4-1.34-3.3-2.48a3.61,3.61,0,0,1-.47-.68c2-2-2.13-2.29-1.08-3.76a5.49,5.49,0,0,0,1-3.1c0-.67.94-.71,1.59-.4,1.88.88,1.8,3.73,4.15,4.15-.78,3,2.25,2.27,3.37,3.41,1.41,1.44,2.73,2.59,5,2.4,1-.08,2.13,1.12,3.17,1.79s1.49,2.23,3.12,2.15c.14,0,.47.81.45,1.23a.73.73,0,0,1-1,.69c-1.16-.57-1.9,1.33-2.86.53S809.36,829,808.61,829.9Z"/><path class="d" d="M424.55,519c-1.86-1-3.62.84-5.68,1.09s-4-1-6.24-.27c-1.75.53-4.25,1.12-6.06-.75-2.07,2.16-4.11-.27-6.13-.34s-4.43,0-5.93-1-2.41,1.4-3.7-.22c-.67-.84-2.19-1.18-3-2.2-.38-.47-1.16-.45-1.31-.22-1.34,2.13-2.89.42-3.66-.18-1.77-1.37-3.45-2.22-5.75-1.94-1.95.24-3.49-1.28-5.3-1.61-1.34-.24-2.4-2.61-4.19-.59-.3.34-1.32-.76-1.55-1.41-.64-1.84.48-3.41,1.16-5,.3-.67,1.5-.61,1.59,0,.25,1.8.75,1.34,1.95.74.6-.3,1.24-1.15,1.92-.85.41.18.37,1.4.77,1.57a6.26,6.26,0,0,0,2.42.16,3.1,3.1,0,0,1,2.64.94c1.66,1.76,4.4,1.46,6.25,3a1.88,1.88,0,0,0,1.84-.13c1.15-1.4,1.61-.09,2.16.46s.74.55,1.48.12c1-.56,2.54-1.45,2.8.93.06.5.71,1,1.07.64,1.67-1.47,3.07.55,4.62.24,1.06,1.86,1.75-1.16,2.76-.21.71.67,1.41,1.37,2.18,2,.19.15.83.08.91-.08,1-1.82,2.24,1.08,3.63-.34,1-1,3.3-1.78,4,1.07.11.49.64.49.65,0,.11-2.75,1.53-.6,2.35-.66s1.48.46,2.2.71c1.2.42.15-1.39,1-1.56.63-.13,1.32,0,1.94-.17,1.57-.4,2.91.76,4.56.53.73-.1,2.7-1.08,3.18,1,.09.42.5.51.67.24s.34-.79.26-.85c-1.35-1-.5-2.83-1.49-3.9-1.3-1.4,0-2.15.81-2.73a2.84,2.84,0,0,1,3.67.7c1.28,2.37,4.09,2.94,5.68,5,.48.62,5.5-1.37,6.06-2.13s-.4-.7-.45-1.08c-.28-2.19-.57-4.34-2.09-6.15-.68-.79.23-1.42.74-2,.72-.86,1,.15,1.44.25,3,.62,3.53,3.45,4.56,5.56,1.48,3,2.76,4.69,6.13,3a3,3,0,0,1,1.33-.41c2.81-.06,2.87-.09,1.67-2.44-1-1.92-.75-4.41-2.79-5.87a1.36,1.36,0,0,1-.09-1.29,14.58,14.58,0,0,1,2.1-2.13c.57-.51,1.14-.33,1.7.17,1.46,1.31,2.9,2.87,3,4.75.08,3.1,2,4.92,3.77,7,.36.43.78,1.17,1.39.25.27-.41.82-.47.53-1.44-.81-2.7-1.91-5.4-1.62-8.34.07-.67,0-1.32.64-1.74.42-.28.76-1.32,1.4-.35,1.9,2.87,4.25,5.45,5.7,8.63.23.49.43,1,.2,1.34-.47.65-1.4,1.25-.78,2.05.79,1,1-1,1.88-.57a12.37,12.37,0,0,1,4,2.48,1.72,1.72,0,0,0,1.26.49c.89-.11.74-.89.73-1.53,0-.83.33-1.88-.05-2.46-2.2-3.29.05-5.94,1-8.8.23-.7.33-1.36,1.14-1.13.57.16,1,.74,1.54,1.09s.41.91.34,1.36c-.2,1.24.3,2.47-.58,3.78-.66,1,1.51,1.37,1.58,2.48a30.59,30.59,0,0,1,0,4.49c-.16,2,.26,3.18,2.56,2.79,1.9,2.12,3.77.59,5.68,0,1.27-.4.42-.73.1-1.24a3.32,3.32,0,0,1-.16-3.27c1-1.45,1.25-2.43.07-3.87-.87-1.06.31-1.93,1-2.32a3.42,3.42,0,0,1,3.66.16c.73.53,1.72,1.2.71,2.39s-.72,2.64-.23,4.06c.86,2.48,1.16,5-.22,7.42-.4.7-.52,1.8.05,2.28a8.07,8.07,0,0,0,2.91,1.33c.5.16.91-.3.84-.89s.19-1.26-.28-1.89c-1.09-1.51-1.7-3,1-3.4.58-2,1.9-4.11,3.76-3.53s1.09,3.66,2.46,5.33c.82,1-2,2-.25,3.8,1.31,1.33-1.09,2-1.57,3-.15.36,0,1.21.16,1.29a32.28,32.28,0,0,0,4,1.26c.19,0,.72-.35.71-.51a5.33,5.33,0,0,1,3-5.21c.15-.08,0-.63,0-1,.07-.88,0-1.76,1.25-.62a2.82,2.82,0,0,0,3.21.17c1.11-1.16,1.56,0,2.31.11s1.87.46,2.07-.51a3.59,3.59,0,0,0-1-1.93c-1.23-.58-2.27-1.87-3.87-1.51-3.58.82-5.84-2-8.66-3.21-.55-.24-.45-1-.24-1.31.33-.56,1.08-1.46,1.35-1.36,2.35.83,4.41-1.75,6.82-.44,1.07.57.81-.75.71-1.07-1.49-4.71-2.8-5.85-8-6.55a3.55,3.55,0,0,1-2.55-1.14c-.66-.79-1.41-1.5-2.39-.41-.44.48-.93.41-1-.1a26.33,26.33,0,0,1,0-4,.35.35,0,0,1,.67-.17c1.32,2.29,2.73-1.47,4.15.1,1.16,1.28,2.81.41,4.22.62,1,.15,1.62,2,2.86.5a23,23,0,0,1-2.26-1.6c-1.42-1.55-3.54-1.48-5-2.68a7.83,7.83,0,0,0-5.1-2.24c-1.16,0-.2-2.46-2.09-2-.4.09-.58-.47-.11-.95a6.5,6.5,0,0,1,6.13-1.89c.38,1.88,3.48-.46,3.57,2.41,0,.89,1.2-.91,2.26-.62.53.15.79-1,.39-1.53-.93-1.34-1.9-2.45-.91-4.37.75-1.46-2.71-.54-1.95-2.53-3-1-4.49-4.55-8.15-4.58-.86,0-1.88-1.27-2.52-2.17a3.57,3.57,0,0,1-.13-3.29c.34-.89,1.49-.3,2.27-.42a3.11,3.11,0,0,1,3.44,1.35,1.42,1.42,0,0,0,.73.62c2.4.63,4.63,1.46,5.82,3.91.08.15.65.18.92.09.47-.17.74-.44.21-1a1.65,1.65,0,0,1-.52-1.25c1.16-4.08-1.66-6-4.46-7.47-1.31-.67-2.06-2.05-3.54-2.3s-2.13-1.54-2.93-2.49c-1-1.15,1.3-1.64.95-3s.19-1.67,1.38-.6c1.41,1.27,4,.42,5,2.2.9,1.56,3.42,1.17,3.6,3.42.05.58,1,.2.88-.07-.85-1.67,1.85-2.64.87-4a8.69,8.69,0,0,0-2.6-3c-1.79-1.08-3-3.26-4.11-5.19-.46-.81-.66-1.09-1.56-1.33s-.57-1.44-.5-2.2.9-.68,1.53-.73a8,8,0,0,1,6.12,2.16c1.3,1.12,2.26.91,3.1-.44a1.11,1.11,0,0,0-.31-1.68c-.36-.22-1.33.14-1.27-.37.29-2.61-2.62-3.12-3.2-5.13-.08-.28-.5-.44-.68-.71a3.55,3.55,0,0,1-.2-3.3c.58-1.18,2.11-.44,3.21-.46.52,0,1.16,1,1.56.87,1-.27,1,1.43,2,.72a2.83,2.83,0,0,0,1.12-3c-.18-1.12-.17-8.58.47-9.47.78-1.08.32-1.56-.19-2.5a3.32,3.32,0,0,1,.26-3.65c.6-.75.4-1.93,1.4-2.43-1.74-1.09-.22-3.18-1.3-4.38-.88-1,0-1.8,0-2.42-.33-2.39.68-5-.67-7.13-.88-1.4-1.3-2.37-.28-3.87.79-1.16-.95-2.76.35-4-1.74-1.79-.19-4.37-1.15-6s.6-2.49.2-3.78c-.31-1-2.17-2-.28-3.25-.89-1-.39-2.5-1-3.35a4.2,4.2,0,0,1-.73-2.72c-.08-1.36-.14-2.75,1.32-3.43.82-.39,3.56,1.75,3.63,3s.08,2.53,1,3.61c.28.33,0,1-.54,1.19s-2-.36-.82,1.11a7.59,7.59,0,0,0,1.06,1.06c1,.75,1,1.3.47,2.59s-.1,3.28-.16,4.94c0,1.14.54,1.24,1.5,1.38.64.1.67,1,.33,1.63-.18.35-1.09.64-.53,1,2.47,1.64,1.69,4.11,1.68,6.31,0,2,1,3.86.84,5.57s.27,3.13.21,4.69a46.33,46.33,0,0,0,0,5c.09,1.26-.56,2.65.53,3.77.84.86-.24,1.15-.56,1.37a2.73,2.73,0,0,0-.91,3.55c2.26,3.29-.45,6-.61,9,0,.44-.55,1.17-.45,1.25,2.25,1.75-.11,3.08-.37,4.58-.07.35-1,.52-.26,1a1.11,1.11,0,0,0,.93.11c1.64-.91,3.72-.52,5.25-1.91.34-.31,1.9-.56,2.21.32.37,1.09.26,2.35.93,3.39-1.47,1-2.12,3.55-4.14,3.11-2.51-.55-3.12,2.26-5.16,2.27-.24,0-.5,1-.7,1.63-.12.35-1.14.43-.36,1a1.08,1.08,0,0,0,.91.15c1.65-.85,3.29-1.74,4.9-2.66,1.22-.7,1.8-.4,1.84,1,0,.47,0,1.09.26,1.37.56.58,2.18.11,1.71,1.71-.14.49-1.29,1-3,.93-.51,0-.81-.09-.92.34a8.8,8.8,0,0,1-.43,2.33c-.83,1.64-2.86.29-3.39,1.42s-.84,2.25-2.41,2.62A3.74,3.74,0,0,0,520,463.1c0,.28.26.55.4.82.2-.2.53-.38.55-.61.09-.66,0-1.51,1-1.28,2.17.53,3.4-.75,4.63-2.13.7-.78,1.58-1.55,2.37-.35.67,1,3.06,1.34,1.55,3.45a20.51,20.51,0,0,1-8.1,6.82c-1.62.75-1.36,1.47-1.39,2.47,0,.5.72,1,1,.67,1.16-1.35,3.42-.28,4.23-1.82,1-1.81,3.14-.5,4.26-2,.5-.69,1.4.33,2,.89a1.2,1.2,0,0,1,.27,1.71c-1.79,2.61-3.19,5.67-6.81,6.26-.59.1-.89.31-1,.85-.26,1.92-1.56,2.17-3.2,2.22-1.29,0-.91,1.3-.75,1.93a4,4,0,0,0,1.7,2.77c.39-.93,1.89-.44,2-1.07.48-3.15,2.79-2.64,4.87-2.67a1.53,1.53,0,0,0,1.33-.43c.67-.76,1-.49,1,.43,0,2-1.48,3.7-3.32,5.08s-4,2.58-5.75,4.37c-1.28,1.35-.95,2.72-.8,4.11.06.52.84,1,1.39,1.36.09.06.67-.62,1-1l5-3.95a1.62,1.62,0,0,1,1.71.68,3.34,3.34,0,0,1-.2,4.73c-1.45,1.21-2.79,2.54-4.37,3.64-1.4,1-3.13,2-2.65,4.32.13.61-.15,1.42.69,1.59.62.12,1.57.21,1.9-.13,1.84-1.88,4.21-3.36,5.34-5.77.49-1,1-1,1.77-1.08a2.12,2.12,0,0,1,2.22,1.58c.23,1.36.42,2.81-1,4.08-2.34,2.17-5,4.18-6,7.5a1.43,1.43,0,0,1-.46.79c-.71.46-2.1-.7-2.28.74-.08.66,1.47-.1,1.81,1.13.52,1.91.93,2,1.92.68s2.93-2.89,2.83-4.23c-.2-2.53,1.86-2.37,2.91-3.14.61-.45,2.48-.76,3.14.37a2.4,2.4,0,0,1-.84,3,6.25,6.25,0,0,0-2.07,4.14c-.21,1.41-.72,1.78-2.84,3.73-.59.54-1.23,1-1.14,2,.11,1.23.41,2.71-1.63,2.76-.12,0-.24.54-.34.83-.34,1,.86,2.49-.82,2.93-1.13.31-1.47-1.25-2.33-1.54-1.91-.64-3.43-2.5-5.49-2.32-1.62.13-1.71-2.5-3.44-1.5-2.17,1.25.16,2.46.08,3.69,0,.17.07.38,0,.5-2.2,3.21.39,4.51,2.38,6.12a10,10,0,0,1,2.42,2.49,2.11,2.11,0,0,1-.34,2.68c-.73.69-1.31,1.42-2.44.48-1.32-1.1-4.07-.27-4.15-3.14,0-.54-1.09-.59-1.24-.38-1.14,1.58-3.14,1.18-4.66,2.23-3,2.08-6.27,4.37-10.4,3.75-.63-.09-1.42.15-1.52-.75a2.3,2.3,0,0,1,.49-1.27c.42-.68,1.37-1,1.47-1.89.05-.49-.46-1.13-.57-.93-.82,1.48-2.41.54-3.54,1.3a1.77,1.77,0,0,1-2.81-1.7c.41-1.92.39-4.33,2.27-5.47,1-.64,1.81-.88,1.69-2.3-.15-1.62,1.92-.68,2.44-1.88.34-.8.54-1.14-.44-1.1a2.82,2.82,0,0,1-2.61-1c-.25-.32-.63-1.48-1.34-.52-.41.55.05,1.16.54,1.69.67.72.67,1.81-.43,1.75-1.59-.09-2.39.79-3.33,1.7-2.19,2.1-5.5,2.62-7.35,5.27-.48.68-3.51,0-3.48-.58.07-1.1-.6-2.37.46-3.29,2.59-2.27,4.43-5.41,7.62-6.95,1.13-.55.81-1.23.87-2,.11-1.29-.86-1-1.66-1.13-3.26-.35-5.56,1.51-7.24,3.79-1.26,1.72-2.3,3.45-4.36,4.21-1.75.64-1.52,2.75-2.87,3.7a1.63,1.63,0,0,1-1.37.26c-.2,0-.45-.49-.47-.76-.31-3.36.19-6.43,3-8.76a35.23,35.23,0,0,0,3.19-3.16c1-1.09.93-2.06-.22-2.77s-4.16-.85-5,.09c-1.16,1.27-3.14,2-3,4.25.08,1.18-1.08,1.55-1.64,2.31-1.36,1.81-3.48,2.89-4.43,5.16-.6,1.41-2.93.68-4-.69a4.35,4.35,0,0,1-.94-3.14c0-.65-.06-1.19.81-1.51,1.65-.62,3.48-1.27,2.45-3.72,1.09-1.2,2.66-1.85,3.62-3.22.14-.2.89-.08,1-.62,0-.08-.5-.37-.79-.4-2.69-.27-2.68.83-5.25,3.09-2.85,2.49-3.91,5.79-6,8.52-.53.68-1.71.62-2.45,1.32-.35.34-1.07,0-1.41-.8a11.5,11.5,0,0,1-1-4.1c-.05-1.37.52-2.77,1.45-2.81,2.33-.1,1.43-2.8,3.11-3.28.61-.17.41-.78-.11-.93a5.62,5.62,0,0,0-6,2.2c-.38.64.86,1.83-.52,2.45a9.67,9.67,0,0,0-2.5,1.27c-.38.33-1.35,0-1.33,1,0,2-.29,3.05-2.4,1.31-.51-.42-1.58-.17-2.39-.21-1.2,0-1-.2-.58-1.3.68-2,.25-4.56,3.23-5.12.1,0,.2-.63.11-.9-.15-.43-.29-.54-.94-.3-4.47,1.67-5.54,2.62-10,8.55a3.07,3.07,0,0,1-3.65.89,2.51,2.51,0,0,1-1.34-2.91c.3-1,1-1.86,1.07-3.08.15-1.82.42-1.8-1.15-1.83Z"/><path class="d" d="M547,576c18-13-39-124-58.88-186.77C470.34,333.11,456,293.42,461,271c6.31-28.35,20.93-34.67,37-35,16.94-.35,24.71,31.09,33.59,45.44C549.48,310.35,568.05,334.31,586,352c10.52,10.37,32.81,29.42,45,55a106.13,106.13,0,0,1,9,62c-3.42,23.34-9,45-9,45s50.9,20.82,65.94,36.27c13.35,13.71,25.55,35.56,32.48,56.06,7.27,21.48,11.5,39,12.58,67.67,1.3,34.57-9.57,61.14-32,66-21.81,4.73-37-5-37-5s2,23-27,40.07c-22.21,13.09-45,18.4-63,11.93-30.07-10.81-39.48-7.47-71-38-12.84-12.43-22.35-33.88-30-49-13.06-25.81-25.41-88.51-25.41-88.51S411.37,615,383,593c-23.44-18.15-56-56-73.5-83.71C296.71,489,298,489.44,249,447c-12.26-10.62-23-47,5-57,31.51-11.26,61.41,1,100.24,21.19C389.17,429.38,436,478,461,502,511.84,550.81,506.41,555.33,547,576Z"/><g class="e"><path class="b" d="M431.33,311.05c4.72,5.8-20.36-19.25-2.07-24.87,9.89-3,10.38-7.65,10.38-7.65s12.6,26.5,17.29,16.59c9.07-19.12,28.84-2.93,35.67-4,5.51-3.27,23.09,1.22,33.6,11.4,5.9,5.71,27.45,9.82,21.83,31.79C541.74,359,521.7,345.21,513,343c-7,15-16.43,4.68-20,15-3.21,9.27-31.64-2.47-33.52-3.24s-11.71,9.18-32.74-7.43c-3.63-2.87,6.76-15.48,6.76-15.48S424.34,302.46,431.33,311.05Z"/><path class="b" d="M687.92,508.64s2.73-26.25-2.67-37.19c-7.4-15,6.09-27.47,6.09-27.47S677.69,427.69,664,415.46c-20.59-18.37-29.84-13.18-37.1-16-6.81-2.68-6.71-14.9-32.89-22.42-15.23-4.38-13.75,16.55-19,18-7,1.94-12.83-1.94-26-1-5.72.41-11.32,7.13-9.07,16,2.8,11,30.5,16.22,35.34,15.59,4.64,8,5,16.2,14.73,21.45,6.58,3.55,8.19,13.43,11.89,20.93C604.82,496.77,587,513,600,535c3.1,5.24,8,1,8,1s19.62,34.43,29,49c4.11,13.22-7,25.86-11.8,51.8-2.79,15.24,2.89,28.32,8.8,35.2,7.22,8.4,23.07,10.72,31,9,4.41-2.62,6.47-20.52,17-30,12.16-10.94,26.44-5.25,32-16,4.87-9.43-.94-18,0-29,6.44-10.53,14.54-40.16-12.75-79.9C691.44,511.81,686.88,506.47,687.92,508.64Z"/><path class="b" d="M302.3,312.55c-3.72,9.23-3.07,11.92-4.35,13.18-42.4,41.65,10,54,10,54s-13,25.42-13,30.3a23.86,23.86,0,0,0,4,13s-6.45,13.67-4,23c2.37,9,6,15.73,16,22,17.76,11.09,21.65-15.43,25-25,13.59,9.09,19.64-4.31,21.21-10.46,2.7-10.58,8.07-27.9,8.07-27.9s7.54,11.55,9-24.12c.84-20.51-23.66-50.76-15.9-53.88C368.63,322.52,304.47,307.18,302.3,312.55Z"/><path class="b" d="M445.13,616.05s-87.16-3.71-95.22-8.42c-34.22-20-18.82-59.19-21.91-62.63-4.37-4.86-.77-8.34,1-20,1.37-9,12.28-20.59,18-21-4.8-6.85-6.27-11.16-2-15,4.86-4.37,13.17-4.94,20-6,10.64-16,20.14-35.68,35-28,10.75,5.56,3.4,21.85,6,30,3,9.55,9.63,8.35,13.33,15.85,4.43,9-6.33,24.15-6.33,24.15s23.13,32.16,27,50c5.41,2.79,9,3.89,18,9,6.31,3.58,16,9.86,19,20,10.3,7.31,34.69,30,34.69,30A84.2,84.2,0,0,1,543,653c10.14-3,33-2,61,10,5.78,2.48,14.16,16,9,32.48-3.34,10.71-17.79,19.88-30.26,23.16-9,2.37-18.48-1-23.09-1.22-1.74,6.17-1.94,20-9.66,24.58-8.9,5.27-24-13-24-13s-18.56,8.44-49-19c-6.77-6.1-19.22,3.41-41.26-24.26C409.51,652.82,445.13,616.05,445.13,616.05Z"/><path class="b" d="M541,623.83c-.4,4.61-5.55,6.55-17-.83-7.24-4.66-10.23-6-8-11s6.23-2.91,13,.33C537.32,616.34,541.49,618.34,541,623.83Z"/><path class="b" d="M459.22,571.9c-5.7-3.33-7-11.8-9.82-16.55-3.92-6.62,3.16-7.7,12.6-4.35s11.12,6.79,12,12C475.49,571.81,464,574.69,459.22,571.9Z"/><path class="b" d="M611.85,582.83c4.36-1.54,1.11-5.35,1.15-12.83,0-8.36-1.58-15.06-7-14s-4.69,5.55-4,13C603,579.3,608.58,584,611.85,582.83Z"/><path class="b" d="M570,481.77c-3-7.66-7.64-10.38-13.14-10.85s-7.92,6-6.21,9.65c5.44,11.69,12.56,19.85,16.84,18.35C570.61,497.83,572.85,489,570,481.77Z"/></g><path class="d" d="M525,538.15c13.48-12.47,34.15-9.06,44.47-5.49,12.27,4.25,12.74,11.71,11.77,19.86-1.61,13.64-12.6,12.7-12.6,12.7s-1.15,8.13-5.13,12.73c-3.8,4.39-15,3.66-15,3.66a29.46,29.46,0,0,1-16.33,8.94c-13.65,2.13-20.74-13.56-19.89-24.75C513.45,550.19,519.23,543.45,525,538.15Z"/><path d="M575.22,489.49c.8,2.16-2.55,4.17-2.32,7.11-2.32.7-3.52,2.79-5.25,4.21a1.13,1.13,0,0,1-1.68-.35c-.35-.46-1-.68-1.28-.43-2.29,2.15-3.55.19-5.33-.94S556,497.38,556,495c0-1.28-1.81-1.55-1.91-2.67-.13-1.41-1.73-1.73-1.85-2.71s-2.06-2-.22-3.1c-.63-.92-1.93-1.28-2-2.67,0-.52-.62-1-.73-1.51-.07-.32.95-.5.5-1a2.07,2.07,0,0,1-.74-1.7c.06-.5,0-1,0-1.5.09-.82-.64-1.08-1-1.58,1.64-1.05.93-2,0-3.2A.86.86,0,0,1,549,472c.6,0,1.09-.28,1-.74-.41-2.63,2.44-2.5,3.37-4,.39-.63,1.52-.37,2.28-.12,2.78.92,5.51,2,8.31,2.81.79.24.78.75,1.14,1.2.78,1,.46,2.7,2.45,3.05,1,.17.84,2.43,2.67,2.94,1,.3,1.51,2.06,1.94,3.41s.29,3.31,2.14,4.3C575.69,485.62,574.74,487.27,575.22,489.49ZM555.7,473c-3,0-3.47.45-3.7,3.16-.17,2.06,0,2.73,1.59,4.89a2.13,2.13,0,0,1,.41,1.33c.08,2.13,2.7,3.17,2.37,5.49,2.39-.11,2.06,2.14,2.52,3.34.64,1.64,2.89,1.21,3.18,3.1.1.63,1,1.2,1.63,1.68,2,1.51,2.63-3.07,4.74-1.05.19-.21.46-.4.55-.65.61-1.67,2.06-3.69,1.57-5-.91-2.4-.63-5.47-3-7.18-1.29-.94-1.63-2.37-2.37-3.55C563.14,475.34,559.41,473,555.7,473Z"/><path d="M477.08,564a13.06,13.06,0,0,1-5.69,8.9c-2-1.91-2.25,2.13-4.35,1.25-1.22-.51-3.27-.84-4.55.82a1,1,0,0,1-.95,0c-3.48-2.17-7.6-3.51-9.56-7.64-1.33-2.79-3-5.41-4.29-8.21a13.26,13.26,0,0,1-1.72-6.29c.14-2.81.49-3.82,3.28-4.46,1.73-.4,3.52-1.38,5.56-.48a3.15,3.15,0,0,0,3.26-.4,3.17,3.17,0,0,1,3.64-.21,28.89,28.89,0,0,0,7.47,3.69c.91.24.56,1.15.87,1.42,1,.86.71,3,2.68,2.83A26.11,26.11,0,0,1,477.08,564Zm-14.84,5c1.24-.28,2.47.19,3.8-.43,1.72-.8,2.84-2.51,4.77-2.89-.27-1.3,1.86-1.88,1-3.4-.76-1.34-1.2-2.9-2.17-4-1.14-1.36-2.81-2.21-3.78-3.83-.63-1-2.14.08-3.07-1-.78-.93-2.7.17-3.17-.47-1.2-1.6-2-.07-2.73.17-1.21.38-1.67-1-2.91-.66-2.89.84-3.23,1.2-3,4.12.07,1,.67,1.39,1.11,2.05a21,21,0,0,1,2.93,5.73c.13.45.14,1.34.24,1.34C458.05,565.79,459,569.75,462.24,569Z"/><path d="M535.63,630c-2.15,1-4.2-1.11-6.67-1.17a6.1,6.1,0,0,1-4.19-2.76c-1-1.6-2.16.41-3-.72a7.79,7.79,0,0,0-2.83-2.74c-1-.39-1.93-.07-2.54-1.53-.53-1.28-1.95-2.23-3.08-3.21-1-.82,1.42-1.12.23-1.74-.53-.27-1.3,0-1.93-.16a.9.9,0,0,1-.64-1.13c.39-2.28,2.82-3.38,3.28-5.62,2.48-.3,4.83-2.19,7.39-1s5.71.76,7.63,3.41c.23.32,1.53-.08,2.49.24a11.49,11.49,0,0,1,5.05,3.48c1.18,1.31,1.92,3,4.13,3.15,1.67.11,2.39,1.29,2,3-.31,1.55.29,3.06-.62,4.74-1.4,2.58-2.22,3.64-4.86,3.72Zm-16-17a11.87,11.87,0,0,0-2,0c-.51.08-1,.79-.65,1,1.47,1.08,1.17,3.52,3.46,4.09.69.17,2.14.54,2.36,1.3.69,2.38,2.48,2.5,4.38,2.53,1.08,0,1.6.09,1.88,1.5.36,1.88,2.7,1.22,4,2,.89.56,1.92-.44,2.67-.93,2.34-1.52,2.4-3.52-.27-4.36-3.25-1-5.19-3.8-8.42-4.92C524.66,614.47,522.39,613.07,519.66,613Z"/><path d="M614,558.6c-.21.67.38,1.54-.34,2.26-.25.26-1,.53-.25,1,1.33.92,1.19,2.58,1.87,3.69,1.25,2,1.64,3.71,0,5.59.73,1.52-.9,2.94-.18,4.47a8.44,8.44,0,0,1,.92,3.19c.65,2.14-1.36,2.9-2.17,4.1-1.23,1.83-3.56,2.1-5.76,2.06l-2.94-2.31a3.16,3.16,0,0,0-2.74-2.83c-1.09-.24,1.34-1.3-.11-2.08a6.55,6.55,0,0,1-2.09-2.1c-.37-.55.26-.69.75-.68s1.16-.33.75-.64c-.92-.67-2.82-.5-1.19-2.5.71-.88-1-1.69-.59-2.89s-.81-2.71-.45-3.85c.43-1.35.86-2.37-.3-3.48-.06,0,.42-.66.66-1,1-1.57,2.09-3.12,3.12-4.69,2.09-3.19,3.94-3.32,7.63-2.08,2.21.74,1.07,2,1.34,3,.12.45.12,1.08.62,1s.23-.9.45-1.26c.33-.56-.4-.4.26-.38.24,0,.66.18.67.31A20.13,20.13,0,0,1,614,558.6Zm-2.89,10.57c.1-.42-.47-1-1-1.63-.31-.4,1.33-.63.52-1.35A2.17,2.17,0,0,1,610,564c.25-1.4-.64-2.1-1.47-2.9-1-1-4.09-.86-4.37.38-.31,1.4,1.95,3.44-1.17,4.09.24.24.48.46.7.71.44.48,1.25,1,1.22,1.46-.25,3,1.69,5.37,2,8.15.11.78-.23,1.65.59,2.26.51.38.84,1,1.63.9s.88-.86.78-1.5a3.72,3.72,0,0,1,1.37-3.45c1.34-1.32-.29-.83-.8-1.06s-.51-.65,0-1C611.33,571.35,610.87,570.46,611.11,569.17Z"/><path d="M743.69,690.78c.65-4.1.22-8.23.24-12.35a2.91,2.91,0,0,1-.68-4c1.27-1.62-1.44-2.57-.24-3.8.88-.9,1.6-2.4.9-3-1.45-1.23.52-2.14,0-2.72-1.44-1.7.13-3.2.22-4.71.12-2-1.26-3.32-1.16-5.1s-.21-3.41.35-4.85c.8-2-1.31-2.84-1.35-4.4-.08-3.67-1.18-7.14-2-10.67a60.87,60.87,0,0,0-4.49-13.14c-.93-1.9-1.78-3.71-1.51-5.87a10.91,10.91,0,0,0-2.19-7.53c-1.58-2.13-2.26-4.45-3.44-6.62-3-5.48-4.49-11.49-6.82-17.19-1-2.38-1.2-5.12-2.54-7.45a.75.75,0,0,1,0-.49c.26-1.14-.37-1.84-1.11-2.55s-1.72-1.42-1.8-2.22a5,5,0,0,0-1.35-3c-.52-.59-2.08-.84-1.29-2.06s-.88-1.7-.76-2.8c0-.39-.88-1.17-1.83-1.36-1.31-.26-1.93-1.59-2.79-2.52,2.06-1.71-.09-1.8-.83-2.83-4.1-5.77-10.37-9.26-14.85-14.59-1.93-.1-2.53-1.94-3.79-2.91-.63-.49-1-1.31-2.05-1.09-1.69.35-2.64-.33-3.11-2-.36-1.27-1.9-1.27-2.79-1.64-1.48-.6-2.9-1-4.13-2.19-.92-.92-2.66-1-3.64-1.91-.8-.72-1.62,2-1.88-.17s-1.22.22-1.72-.29a21.2,21.2,0,0,1-2.1-2.14c-.85-1.17-1.26.36-1.77.21-.81-.24,0-1.93-1.14-1.8-1.71.18-2.9-1.12-4.59-1.17a9.9,9.9,0,0,1-4.79-1.57c-5.77-3.67-12-6.4-17.91-9.88a5.77,5.77,0,0,0-1.32-.46c-3.76-1.17-3.77-1.2-2.66-4.77.64-2.07,2-4,1.93-6.18,0-1.66,2.29-.54,2.19-2.59-.21-4.09,1.77-7.88,2.61-11.83.42-2,2.41-3.75,1.73-5.37s1.33-1.67.61-2.93c-.58-1,.51-2.65-.87-3.65,0,0,.16-.62.31-.65,2.3-.47,0-2.63,1.39-3.71a2,2,0,0,0-.42-3.37c-.9-.49-.56-1.31.08-2,1.3-1.46-.44-3.53,1-5.08s-1.24-3.42.38-5a4.58,4.58,0,0,1-.24-5.57c-1.52-1.91-.45-4.13-.75-6.19-.07-.49-.22-1.24,0-1.46,1-.83.57-1.3,0-2.25-1.23-2.13-1.33-4.48-1.1-7.72.08-1.16.69-2.84-1.58-2.75,0-1.25,1.44-2.42.24-3.77a20.55,20.55,0,0,1-1.42-1.69c2.2-2.12-.46-2.75-1.2-3.88a18.37,18.37,0,0,0-1.92-2.14c1.78-1.12.46-2.12-.07-3.22-.63-1.27-1.34-2.55-1-4.07.1-.48-.12-.75-.6-1-1.41-.82-1.71-1.27-1.32-1.6,1.48-1.24.82-2-.17-3.21a30.4,30.4,0,0,1-2.54-4.42c-.6-1,1.58-1.57.29-2.82a4.06,4.06,0,0,0-3.09-1.1c-.47,0-.82-.88-.53-1.15,1.83-1.74-.62-1.53-.9-2.26-.74-1.93-3.33-2.67-3.19-5.1-1.78-.52-1.15-3.47-3.47-3.47-.31-2.07-2.62-2.56-3.36-4-1.26-2.49-3.72-3.75-5.15-5.95-1-1.55-2.65-2.35-4-3.46s-1.68-3.43-3.79-3.87c-3.12-4.77-7.44-8.53-10.92-13-.91-1.18-2.49-1.27-3.25-2.55-1.81-3.07-4.8-5.17-6.69-8.22-.94-1.51-2.33-3.28-3.88-3.75-2.53-.76-2.76-3.75-5.13-4.36a5.66,5.66,0,0,0-3.23-4c-2-.84-1.83-2.62-2.72-3.9-.09-.14-.21-.32-.35-.35-1.93-.4-2.22-2.41-3.44-3.51s-3.15-2.29-1.57-4.51c-2.34-1.15-3-4.16-5.29-5.13-2-.86-2-3.12-3.69-4,.69-1.81-1.31-2-1.76-3.07-.94-2.1-.7-2.22-1.93-3.48a7.33,7.33,0,0,1-2.35-4.55,6.39,6.39,0,0,0-3.36-5c-1.21-.63-1.19-1.44-1.73-2.26-1.06-1.61-.08-4.2-1.41-4.8-1.84-.83-1.7-2.35-2.47-3.53a45.44,45.44,0,0,0-2.71-3.87c-.69-.85.3-2.55-.69-2.61-1.69-.09-1.37-1.49-2.05-2.18s-1.58-1.45-1.64-2.86c0-1.08-.9-2.91-1.63-3-3.25-.57.9-1.6-.23-2.29-.26-.16-.36-.92-.92-.83-3,.48-1.33-1.2-1.14-2.28.1-.59-.15-1.82-.45-1.61-1,.7-1.66,1.35-1.51-.56a7.25,7.25,0,0,0-2.09-6.14c-.45-.45-1.16-.85-.91-1.61.59-1.81-1.56-2.16-1.8-3.57-.34-2-.44-2-2-3.54-1.06-1.06-2.55-2-3.05-3.23-.42-1.1-1.29-2.08-1.24-3.52.07-2.07-2.43-.08-3-1.54-.17-.43-.67-.72-.88-1.14-.81-1.65-1-1.81-1.19-1.55-1.11,1.29-1.8-1.26-2.79-.25-.52.54-1.27.85-1.67.31-1.58-2.13-4.34-1.75-6.23-3.15-.31-.23-.41-.5-1.08-.29a35.11,35.11,0,0,1-8.81,1.81c-1.46.08-3.52.32-4.68,1.81s-3.84.58-4.17,3c-2.51,1.25-7.55,4.71-8.17,6.42-.68,1.86-2.06,2.91-3.32,4.1s-1,3.17-2.32,4.62A26.09,26.09,0,0,0,460.5,264c-.76,2.18-1.93,4.25-2.4,6.48a33.79,33.79,0,0,1-.73,4.41c1.87,1.62-.77,3.28-.22,4.25,1,1.84-.57,3.13-.23,4.77a27.79,27.79,0,0,1,.08,5.48v5.5a5.75,5.75,0,0,0,0,2c1.93,4.89,2.23,10.33,5,14.93,1.28,2.13.41,5.18,2.95,6.75-1,.61-1.44,2-.89,2.52,1.7,1.61.06,4.2,2.11,5.71s-.27,4.49,1.44,6.37c1.05,1.14-.11,2.75,1,4.12a6.91,6.91,0,0,1,1.42,5.39c-.13.93.6,2,.61,2.66,0,2,1.95,2.53,2.32,4,.26,1.06-.3,2.35,1,3.1-1.48,1.34-.4,1.55.76,1.8.16,0,.35.59.29.84-.58,2.35.63,4.5,1.23,6.53.52,1.78-.07,4.33,1.43,5.23,1.24.74,1.51.67.42,1.61.65.71,1.81,1.41,1.84,2.15a8.89,8.89,0,0,0,1.93,4.74c-1.6,2.22,1.61,2.71,1.62,4.53a11.84,11.84,0,0,0,1.73,5.22c1.16,2.07,2.12,3.9,1.82,6.27,1.52.75.43,3,1.35,3.32,1.78.53,1.77,1.55,1.64,2.85-.07.74.42,1.16.68,1.73.64,1.39.67,3.16,1.55,4.32,1,1.35.88,3,1.63,4.37.65,1.22-.26,3.26,2.11,3.52-.19,2.79,1.09,5.19,2.08,7.64.3.74-2.31,1.51,0,1.84s-.92,1.38.53,2.31c2.68,1.72,2.12,5.35,3.37,8,.6,1.28-.22,3.1.88,4.45-1.55,1.64.59,2.35,1,3.45.52,1.48-.55,3.39,1.23,4.49-.23,2.57,2.25,4,2.68,6.41.19,1-.81,1.16-.62,1.38.37.41,1.53.47,1.57.77.26,2.31,3.23,2.84,3.35,5.12.16,3.09,3,5.13,3.08,8.23,3.88,2.86,1.62,8.34,4.91,11.49.25.24.11,1,0,1.46-.37,1.85.38,3.46,1.09,5.05,1.13,2.54,2.29,5.06,3.56,7.53.33.65.58,1.14,0,1.71s-1.13.94.14,1.2c2.84.59,2.21,2.73,2,4.63,0,.38-.42.71-.64,1.07,3.1.74,1.6,4.48,3.81,5.85.5.31,1.15.76,1,1.57-.48,2.3.84,3.88,1.83,5.76a24,24,0,0,1,1.49,3.87,13.56,13.56,0,0,0,1.84,3.69,35.37,35.37,0,0,0,2.7,3.92c-1.42,1.71.87,2.15,1,3.22.15.87,1.1,1.5.9,2-.37.89-1.47.4-2.25.4a4.28,4.28,0,0,1-3.49-1.84c-.36-.49-.32-1.14-1.18-1.14-3.06,0-6-2-9.24-.1-1.34.8-4.16-.77-3.78,2.67,0,.17-1.19.33-1.6.73-.89.86-3,.71-2.35,3,.27,1-2.21,1.58-1.52,2.45,1.12,1.41-.11,1.92-.3,2.89a31.24,31.24,0,0,0-.11,5.48c0,1.34,1.34.59,1.77,1.19s.08,1.1-.18,1.72a24.52,24.52,0,0,0-1.54,4.86c-.27,1.42-.59,1.08-1.35.36-2.6-2.46-4.85-5.28-8-7.14-1.67-1-2.24-3.25-4.2-4.16-1.19-.55.53-3.29-2.07-3-.51-2.74-3.72-3.55-4.41-6.18-.1-.39-.24-.87-.91-.32-2,1.63-2,.21-2.09-1.35a2.2,2.2,0,0,0-1.83-2c-1.25-.34-1.56-1.34-2.26-2.16-.93-1.09-1.77-2.3-2.81-3.31-.8-.79-2.06-.72-2.82-1.73-.55-.73-1.1-1.82-2.2-1.81-2.55,0,1.09-2-.67-2-1.25,0-1.77-1.47-3-1.23-.06,0-.16-.59-.36-.8-3.05-3.16-5.47-6.91-9-9.6a14.17,14.17,0,0,1-5-5.82c-.67-1.63-2.64-2.27-3.92-3.5s-4.68-3-5.61-4.21a43.87,43.87,0,0,0-3.16-4.08,47.55,47.55,0,0,0-4.44-3.51c-1.51-1.18-2.89-2.51-4.43-3.67-3.36-2.55-6.33-5.64-9.45-8.5-1.81-1.66-3.29-3.94-5.09-5.79-.47-.48-1-.9-.83-1.66.23-1.27-.52-1.43-1.52-1.89-.79-.36-2.4-.61-2.36-1.28.11-1.85-2.12-2-2.16-3.67,0-1.83-2.37-1.46-3.1-3.12a9.16,9.16,0,0,0-5-4.36c-.94-.4-1.88-.63-2.14-2s-1.76-.72-2.74-.85c.56-2.5-2.23-2.18-3.18-3.55a18.6,18.6,0,0,0-4.17-3.7c-1.24-.93-3.07-.68-3.88-2.76-.54-1.39-2.45-2.27-3.77-3.34-1.87-1.5-2.52-4.38-4.95-5.05s-3.93-2.75-5.58-4.31c-2.12-2-5.48-2.46-6.69-5.49-2.24-.48-3.34-3.06-5.65-3.22-1.27-.08-2-.89-3-1.28-2.07-.82-3.16-3.63-4.92-3.57-2.68.08-4.16-1.63-6-2.65-2-1.11-4.89-.89-6-3.56-2.52.61-3.8-1.23-5.47-2.55a5.11,5.11,0,0,0-3.87-1.48c-.92.13-2.08.35-2-1.32,0-.47-.72-.93-1.07-.62-1.46,1.28-1.58,0-2.32-.85-1.32-1.51-4.51-.23-5.06-3.17-2.24,2.58-2.86-.51-4.18-1.17a43.31,43.31,0,0,0-5.84-2.79,84.51,84.51,0,0,0-10.76-3c-2.22-.43-4.19-2.62-6.76-1.11-.51.3-.92-.24-1-.77-.08-1.31-.5-1.38-1.28-.43-1-1.17-3.26-.12-3.6-1.37-.46-1.7-.67-1.4-1.6-.46-.45.45-.7,1.48-1.81.4s-2.63-.52-3.81-.25c-1.5.36-2.24-2.07-4-.66-.92.75-2.1-1-3.32-.43-2.12,1-4.1,1.16-5.9-.7a1.67,1.67,0,0,0-1.27-.19c-1.11,2.71-3.8.72-5.45,1.86-1,.7-2.15,1.42-3.57,1-.44-.11-1.21-.2-1.3.37-.32,2-1,2.21-2.49.85a1.9,1.9,0,0,0-1.83-.19c-1.73,1.5-3.74.9-5.63.91a3.46,3.46,0,0,0-3,1.31c-.82,1-3,.7-3,2.13-.06,2.59-2.24,1.14-3.19,2a23.5,23.5,0,0,0-7,10.63c-.36,1.25.58,3.06-1.77,3.24-.09,0-.34,1.09-.15,1.25,1.12,1,1,1.67.12,2.88-.59.84-.25,2.32-1,3.35,2.18,1.42-.87,2.45-.29,3.79.18.41-.12,1,.4,1.33s1,1.29.49,1.65c-1.69,1.26-.37,2.17.1,3.28s1.62,2.15-.29,3.05c-.64.29-1,1,.17,1.1s1.25.86,1.13,1.67c-.17,1.23.61,2.08,1,3.11,1.11,3.25,4.18,5.53,4.46,9.15,1.56.83,1.42,3.67,2.83,3.67,2.78,0,.71,3.27,3,3.52,1.6.17,2.05,2.54,3.77,2.88.57.11.94.27,1,.79.47,3,3.59,3.7,5.07,5.81.68,1,1.36-1.35,2.18.09.56,1,1.72,1.59,2.4,2.52,1.57,2.14,2.89,4.37,5.88,5,.7.15.79,2.07,2.65,1.92,1.17-.1.86,2.23,2.2,2.78.43.17.72,1,1.07,1,1.33,0,1.75.61,1.56,1.82-.17,1,.67,1.42,1.22,2,1,1.08,2.11,2.13,3.17,3.19,2.38-2.13,1.23,1.68,2.48,1.49.09,0,.26.2.34.34.58,1,3-.39,2.34,1-.89,1.93.84,1.77,1.26,2.52a4.77,4.77,0,0,0,3.06,2.15c-.59,2.37,1.56,3,2.83,3.66,1.81,1,2.68,2.55,3.7,4,1.27,1.79,1.6,4.33,4.54,4.49.37,0,.77,1,1.13,1.43,1.8,2,1.7,5.23,4.17,6.8,3.36,2.14,4.24,5.9,5.6,9.18.58,1.41.52,2.34,2.32,2.12.93-.12.85.75.84,1.4a20,20,0,0,0,0,3c.16,1,1.94,0,2,1.59s2.71,2.06,2,4.18c-.15.43.32.85.95.8a1.91,1.91,0,0,1,1.82,1.39c-.22,2.64,2,3.62,3.28,5.19a6.07,6.07,0,0,1,.72,1c-1.81,1.69.94,2.19.87,3.39,2.69-.22.34,2.62,2,3.24,1.4.52,2.12,2.06,3.22,3s2.36,1.76,2.4,3.5c0,.12.92.13,1.28.38a11.7,11.7,0,0,1,1.43,1.39c-1.64,1.17-.23,1.86.5,2.44s.1,2.6,2,2.13c.32-.07.46.43.24.67-2.29,2.5.71,3.46,1.72,4,2,1.12,3.55,2,3.57,4.57a1.93,1.93,0,0,0,1.25,1.39c1.4.15,1.68,1.15,2,2.13a4.88,4.88,0,0,0,4.12,3.14c.46.08,1.17-.24,1.33.34.57,2,3,2.11,3.87,3.81,1,1.86,3,2.67,4.44,4,1.68,1.53,3.11,3.41,4.84,4.67,1.55,1.13,3.24,2.82,5.15,3,2.59.31,3.32,2.52,5,3.74a2.3,2.3,0,0,0,1.35.38,7.36,7.36,0,0,1,4.84,2.78,22.6,22.6,0,0,1,3,3.72c.55,1,3.12.65,4.17,1.59,3.36,3,7.8,3.93,11.34,6.41,1,.74,3-.7,3.4,1.88.19,1.31,2.89,0,3.95.72a2.86,2.86,0,0,0,3.63.17,6.6,6.6,0,0,0,6.37,2.83c.67-.07,1.44,1.19,2.23,1.75,1.31.92,1.79-1.37,3-.84a1.61,1.61,0,0,1,.73.63c.94,1.6,2.48,1.27,3.95,1.38,3,.24,6.22-.82,9.08,1,2.34-1,5.22,2.18,7.3-.92,0,0,.32.12.33.2.59,3.85,2.56.21,3.81.68,1,.39,2.25-.34,3.33.42s2.14-.89,3.45-.33c1.11-.27,1.77,0,1.66,1.48s.16,3-.07,4.49.79,2.8,1.23,4a18.08,18.08,0,0,1,.84,4.65c.27,2.65-1.16,5.73,1.87,7.74.17.11.1.61.11.93,0,1.17-.3,2.45.08,3.47.44,1.19.76,2.08,0,3.24a1.47,1.47,0,0,0,.32,1.81A8.11,8.11,0,0,1,464,655.3a1.87,1.87,0,0,0,.54,1.78c1,.89-.2,2.74,1.43,3.4-1.18,1.35,1.61,2.23.4,3.86-.38.5.63,2.12,1.44,3.07.34.39.26,1.27.16,1.9-.23,1.38.54,2.41,1,3.6.94,2.67,2.47,5.12,2.63,8.11a12.77,12.77,0,0,0,2.89,6.74c1.8,2.37,1.31,5.13,2.2,7.62,1.16,3.25,3.5,6.12,4.07,9.26s3.65,4.43,3.8,7.4c2.69,3.12,5.2,6.31,5.76,10.64a3.46,3.46,0,0,0,1,2c2.06,1.48,2.68,4.07,4.57,5.64.76.64,1.58,1.29.18,2.12.75,2.88,6.27,9.1,9.32,10.54,1.15.54-.16,1.22-.12,1.25,1.29,1,.23,2.78,1.34,3.82,1.33,1.26,2.55,2.64,3.91,3.87a19,19,0,0,1,3.22,4c2.66-.83,2.15,2.55,3.73,2.84a4.33,4.33,0,0,1,2.71,1.87c.76,1,2,1.06,2.79,1.76s1.67,1.63,2.49,2.45c1.3-1.38,1.61-.48,1.77.77,3.73.66,5.6,4.4,9.26,5.44,2.45.7,4.22,3.34,7.22,3.07.22,0,.45.47.71.67a18.18,18.18,0,0,0,5,2.33c1.61.62,3.74.59,5,2.54.72,1.08,2.74,1.18,4,2.15,1.72,1.29,4.28.9,5.87,2.82.38.47,1.35-1.25,2.77-.29a38.58,38.58,0,0,1,3.39,2.56c1.4-2.47,2.77.48,4.18,0,1.1-.36,1.46,1.17,2.58,1a31.4,31.4,0,0,1,3.5,0c1.41,0,2.47,2,2.58,1.87,1.32-1.44,1.9-.1,2.56.59a1.72,1.72,0,0,0,1.78.52c2.91-.83,5.78,2.31,8.69,0a1.07,1.07,0,0,1,1,0c.91.61,1.53,1.64,2.89.38.65-.61,1.69.9,2.89.64,2.49-.53,5.1.68,7.64-.95,1.88-1.21,5.21,1.67,6.58-2,1,2,2.64-.63,3.85.52.68.66,1.53.66,1.77-.52.09-.46.39-1.19.57-1,1.65,1.77,2.3-.69,3.52-.83a7,7,0,0,0,3.72-1.72c1.74-1.61,3.26-3.29,6-2.61,1,.24,1.46-.66,2-1.25s.36-1.28.78-1.63.4,1.11,1.39.57c2.32-1.24,4.47-3,7.39-2.71a1,1,0,0,0,.72-.53c1.06-2.48,4.62-2.78,5-5.83.07-.5.61-.64,1.15-.62,3.61.13,5.08-2,5.9-5.2a5.78,5.78,0,0,1,2.24-2.53c.53-.42.67.25.68.73,0,.9.24,1.08,1.07.48,1.18-.85.95-2,.91-3.13s.45-1.5,1.47-1.33c1.47.23,1.58-.61,1.57-1.75,0-1.93.17-3.68,2.54-4.42a2.55,2.55,0,0,0,1.49-2.83c-.14-2.06-.27-4.14.87-6.13a2.37,2.37,0,0,0-.34-2.77c-1.08-1-.4-2.18-.55-3.27,0-.24.28-.54.44-.81,1.44,2.18,4.24-.21,5.76,1.71.77,1,1.79,1.1,3,1.34,2.89.57,5.45,2.3,8.58,2.28.91,0,2.35,1.73,2.68,1.49,1.4-1,2.53-1.38,3.85-.05,1.17-1.09,2.93-.29,3.93-.92,1.21-.78,1.84,0,2.75.08s1.57-1.21,2.77-.07c.47.45,2.06.11,3.24-.24,2.56-.78,4.53-2.86,7.16-3.23,2.25-.33,3.38-2,4.8-3.33.23-.22.21-1,.71-1.06,3.38-.29,4.82-2.83,6.36-5.31.41-.66,1-1.52,1.66-1.65,1.94-.4,1.68-1.07.66-2.27-.69-.82.45-1.09.79-1.35,1.06-.79.67.36.88.76s.22,1.26.83.41c1.32-1.8,2.47-3.94,2-6-.24-1-.61-1.51.28-2.17s2-.39,2.4-1.43c.27-.71,2-.65.92-2.15-.73-1.07,1.08-1.26,1.32-2.09.18-.6.49-1.55.21-1.84-1.38-1.42-.27-2.15.64-3,1.31-1.19,2.12-2.35.78-4.18-.37-.5.59-1.72-.35-2.52a1,1,0,0,1,.18-.87c1.79-1.08.15-3.08,1.31-4.51a3.05,3.05,0,0,0-.5-4.34C743.25,691.25,743.65,691,743.69,690.78ZM636.88,519.35c1.43,2.06,4.4,1.74,6,3.65,1.83-.64,1.8,1.2,2.66,1.87,2.7,2.09,6.5,2.31,8.89,5,2.38-2.13,3.9,1.42,5.67,1,1.47-.4,1.84-.4,2.32,1,.33,1,1.46,1.12,2.36,1.43,2.49.84,4.67,2.36,7.16,3.25a7,7,0,0,1,2.85,1.63A8.79,8.79,0,0,0,678,540c.88.35,2-.38,2.84.38.5.45.16,1.24,1.18,1.76,3.09,1.57,5.3,4.5,8.54,5.95.73.33.42,1.15.48,1.78.16,1.54,1,1.5,1.93.72.4-.32.79-.66,1,0s-.42,1.74.4,2.31c.52.36.76-1.15,1.36-.52s.25,1.59,1.1,2c3.07,1.56,4.57,4.93,7.49,6.63,1.43.83-.08,2.55,1.41,3.37.94.52,2.18,1.68,2.15,2.51-.1,2.48,2.25,3.38,3,5.33.34,1,1.42,1.73,1.17,3-.38,1.86.51,3.12,1.88,4.23.61.49,1.39,1,1.11,2l1.43,4.53c3.06,3.64,3.2,4.06,1.54,7.41-.43.86-.7,1.76-1.07,2.55-.58,1.21-.52,3-2.59,3.43-1.09.22-1.49,1.59-1.32,2.88.14,1,.11,2.08-1.46,1.81.33,1.24-2.33,2-.56,3.46-.22,4.84,2.31,9.29,2,14.14,2.52,4.16-1.51,7.76-1,11.75,0,.23-.42.48-.56.75-.51,1-1.76.67-2.4,1.41,1.77,1.22,0,2.36-.49,2.35-1.17,0-1.55,1.17-2.58,1.16s-1.41,1.22-2.59,1c-1.65-.28-2.53,1.75-4.44,1.49-1.3-.17-3,1.05-4.1,1-4.52-.19-7.7,3.52-12.13,3.6-1.94,0-3.26,2.31-4.58,3.74-.85.93-1.16,2.17-2.76,2.15-2.26,0-.37.92-.44,1.5a15.8,15.8,0,0,1-1.36,4.4c-1.13,2.57-2.44,5-2.59,7.94-.08,1.6-2.83,5.8-4.38,7.11-.71.59,1.25,2.51-1.13,2.09-4.17,3.93-4.17,3.87-8.77,4-1.58,0-3.31-.66-4.74.57-.34.3-.52.48-.71.11-.69-1.35-2.46-.06-3-1.09-1-1.79-3.67,1-4.33-2a4.23,4.23,0,0,0-3.6-2.89c-.8-2.47-3.86-2.73-4.85-4.91-.9-2-2.75-3.06-4-4.73-.41-.56.07-2.47-1.27-1.69-2.18,1.26-.65-1.17-1.46-1.24-1.47-.12,1.37-2-1.05-2.38-1.45-.22-.19-2.68-.74-3.93a19.64,19.64,0,0,1-1-3.59,19.27,19.27,0,0,1,0-6.69,46.58,46.58,0,0,0,0-7,2,2,0,0,1,1-2.06c1.7-.77-.44-2.43.85-3.22-1.67-1.56-.89-2.79.41-4.14.92-1,.94-2,.76-4.34,0-.48,0-1.36.1-1.4,2.2-.56,2.51-1.62,2.08-3.89-.25-1.3,1.38-3,2.23-4.46.23-.41.73-.7.57-1.26-.63-2.2.9-3.39,2.26-4.54,1-.89.31-1.26-.24-1.8s-1.85-1.62.35-1.47c2,.13,1-.75.93-1.71,0-.76,1.3-1.26,1.76-2.22.72-1.52,1.38-2.82-.44-4-.77-.51-.65-1,.34-1.08s2.16-1.55,2-1.72c-1.54-1.4,1-3.17-.6-4.5a4.06,4.06,0,0,1-1.38-5.14c.39-.93.45-2.48-.89-3-1.76-.73-.39-3.15-1.42-3.31-2-.3-1.93-2-2.5-3s-1.79-2-1.12-3.52c-3.32-3.81-3.8-9.15-7.44-13-2.26-2.38-3-6.21-4.33-9.45-.5-1.25-.48-1.5-.8-1.16-.69.73-1.16.89-1.81,0-.48-.65-1.39-1.14-1.57-1.85-.82-3.21-3.61-4.66-6-6.13-1.35-.84-1.06-2.14-2-2.92-.54-.45.49-1.4,1.44-1.26.5.08.89,2.06,1.49.15.54-1.69,2.15-2.42,3.09-3.72s3-1.45,3.56-3.45c.35-1.36,2.66-.56,2.86-1.12.87-2.36,3.91-2.56,4.55-5A7.23,7.23,0,0,1,627.6,520a35.21,35.21,0,0,1,3.24-3C632.52,518.63,635.36,517.16,636.88,519.35ZM624.94,622.74c.27,1.36.42,3-.94,4.08.13,3.55-2.3,6.51-2.37,10,0,.24-.56.68-.55.68,2.31,2.12.29,4.18-.12,6.22-.29,1.43-1,2.51-.12,4.25s-.31,4.16,1.13,6c.1.12-.2.55-.33.86a3.42,3.42,0,0,1-.69-.45c-.34-.34-1-.87-.9-1.08,1.23-3.1-1.55-5.1-2.24-7.64s-1.25-5.18-3.51-7.08c-.77-.64-.81-2.3-1.14-3.45-.44-1.53-.28-3.07-1.71-4.35-1-.88-.15-2.93-1.81-3.72a1.32,1.32,0,0,1-.66-1.22c-.14-3.8-2.38-6.68-4.27-9.73-.8-1.3-1.79-2.52-1.78-4.29,0-1.41-2.4-1.81-1.94-3.67a.9.9,0,0,0-.59-1.17c-.63-.13-1.34.05-1.4-.91s.4-1.06,1.17-1.14c1.3-.15.7-1.23.83-2a2.47,2.47,0,0,0-1-2.57c1-.61.83-1.62,1-2.59.62-3.59-1.18-6.18-3.35-8.63-.53-.6-.69-.86,0-1.46s1.41-.92,1.34-1.93c-.11-1.36.42-2.75-1.81-3.24-3.86-.85-6-4.59-9.38-6.29-.85-.42-.58-1.5-1.09-2s-.84.89-1.36.53c-.81-.58,0-1.71-.42-2.3-1.06-1.41-3-1.9-3.94-3.51,0-.07-.44,0-.46,0-.49-1.19-1.6-2.1-2-3.14-.54-1.35,1.55-1.12,2.26-2a8.11,8.11,0,0,0,2.22-5.61c-.06-1.5,0-3,0-4.5,0-2.31,0-2.39,2.58-2.68,1-.11,1.23-.41,1.53-1.37a2.84,2.84,0,0,1,2.21-1.42c2.9-.08,5-2,7.06-3.42s4.07-2.39,6-3.65c2.55-1.63,4.19-1.27,5.4,1.29.89,1.87,1.3,3.6,3.85,3.82.87.08-1.32.87-.23,1.69.66.49,1.14,1.23,1.79,1.73a2.34,2.34,0,0,1,.77,2.2c0,1.23,1,1.45,1.59.9,1.44-1.25,1.81-.3,1.25.69-.65,1.15-1.17,1.51.61,1.52a2.29,2.29,0,0,1,2.52,2.81c-.21,1.78.94,3,1.71,4.3a73.68,73.68,0,0,1,4.68,8.57c1.49,3.55,3.88,6.72,5.88,10.06.89,1.48,2,2.85,1.76,4.77-.18,1.18.88,2.36.82,3.07-.18,2.08,1.84,2.75,2.07,4.21s-2.14,2.69-.28,4.31c.75.65-.09.64-.37.89-1.3,1.15-3.16,3.23-3.14,4.71,0,1.82-2.1.76-2.11,2.08s.49,2.73-.08,3.44c-2.6,3.23-2.43,7.36-4,10.88C626.4,620.34,624.53,620.76,624.94,622.74Zm-17,37.61c0,.15-.37.37-.56.56-.14-.28-.44-.59-.38-.83.35-1.6-.9-2.31-1.72-3.3s-2.86-.82-2.78-2.75c-2-.16-2.25-2.7-4.1-3.12a.56.56,0,0,1-.34-.35c0-.08.09-.26.2-.34,1.84-1.28,3.48-3.37,5.31-4a9.87,9.87,0,0,0,4.35-2.77c.71-.75,2-.19,2.68-2.15a14,14,0,0,1,1.15,2c.78,2.18,1.6,4.35,2.17,6.58.23.93.1,1.85,1,2.63.38.34.21,1.49-.64,1.44-2-.1-1,2.16-2.32,2.66a5.07,5.07,0,0,0-2.8,1.71C608.72,659,607.83,659.33,608,660.35ZM550.47,596c-2.36-.33,0-2.34-1.13-3.24-.4-.31-.74-2.72-.89-2.72-1.82.06-1.5-.54-.52-1.48.17-.17.11-.64.06-1-.21-1.19.37-1.59,1.4-1.63a6.3,6.3,0,0,1,3.47,1.23c1.6,1,2.55-.32,3.79-.2a2.07,2.07,0,0,0,2.31-2c.14-1,.73-.8,1.34-1a7.15,7.15,0,0,0,4.7-4.24c.43-1.25.8-.23,1.26,0a.49.49,0,0,0,.71-.64c-1.36-1.56-.31-2.89.52-4s.36-2.21.49-3.31,0-2.31.19-3.43,2.15,2,1.86-.73c0-.16.38-.35.58-.53l3.53,2.53c1.76.25,2.14,2.22,3.74,2.85,1.31.52,1.35,2.5,3.11,3.15s2.35,3,4.16,4.16,3.15,3.21,5.28,4.18c.57.26,1,.91,1.45,1.4-.15.22-.29.46-.45.69a8.43,8.43,0,0,1-4.31,2.84c-1.22.4-2.69.08-3.92.79-1.29-2-2.65.86-3.21.22-1.82-2-4.26,1.34-5.84-.92-2.33.51-4.24-1.7-6.59-1-2.17-2.48-2.9.34-4.2,1.13-.44.27-.09.45-.07.72.38,5.11-.41,7-3.16,10.63-1.29,1.68-3.15,3.17-3.17,5.68,0,1.19-.61.3-1.14.23-2.79-.35-2.66-3.43-4.52-4.6-.37-.22-.21-.37.09-.72C553.2,599,550.83,597.67,550.47,596Zm8.76,12.4c1.22-.45.14-2.29,1.92-2.48,1.13-.13,1.21-1.93,1.85-2.92.34-.55-.91-3.22,1.48-1.09.17.16.58-.58.52-1.08a3.81,3.81,0,0,1,1.53-3.86,3.91,3.91,0,0,0,1.57-2.87c.23-1.75,1.81-2.79,3.12-1.93s2.7-.4,3.89.81c1.37,1.4,3.46.09,5.25.94s3.67-.38,5.41-1.15c.35-.15.34-1,1.07-.42,2.27,1.85,4.15.14,6.1-.77.25-.11.47-.27.71-.4a5.68,5.68,0,0,0,1.75,2.78,1.19,1.19,0,0,1,.16,2c-.52.36-.48.67,0,1.08,1,1,0,2.36.55,3.25.76,1.24-1.79,1.62-.47,2.89.57.55-.91,1.72.29,2.43-.78.47-.87,1.95-1.06,2-2.36,0-1.43,2.09-2.1,3.13s-2.1,1.63-1.75,3.29-2.61.55-2.12,2.58c.13.52-1.09.4-1.71.42-1.45.06-3-.34-4,1.31-.82,1.37-2,1.75-3.36.7-4,2.09-7.38-1.9-11.24-1-.73-1.17-2.33-.91-3.18-2a12.17,12.17,0,0,0-3.18-3.14c-1.21-.74-.63-3-2.72-2.91C558.94,609.94,558.69,608.57,559.23,608.37ZM580.92,624c1.26-.13,2.69.4,3.58-1,1,1,1.68-2,2.77-.24.05.08.23.08.35.12.63-3.27,4.64-1.79,5.71-3.88s3.4-3.38,4-5.82c.11-.41.67-.71,1-1.08.2.18.54.32.58.53.77,3.87,3.33,6.94,4.75,10.53a1.6,1.6,0,0,1-.46,2.08c-1.57,1.61-3.58,2.58-5.43,3.78-1.21.78-3,.93-3.23,2.87-1.48,0-3,.13-4.44.09-.81,0-1.1.6-1.62.95-2.53,1.76-5.18.73-5.46-2.4-.15-1.67-.47-2.64-2.11-3.1-.39-.11-.72-.65-1-1.06C579.61,625.67,580.22,624.09,580.92,624Zm8.13,13.52c.75-1.19,1.09.79,1.8.45,1.93-1,4-1.62,5.69-3,.75-.64,1.42-1.38,2.11-2.1.46-.46.87-1,1.64-.84,2.34.43,3.58-1.06,4.7-2.72a6.83,6.83,0,0,0,.51-1.28c.17.43.33.86.5,1.28.74,1.85.61,4.08,2.31,5.5a2,2,0,0,1,.65,2.09c.44,1.49-.69,3-1.31,2.87-1.85-.5-2.08,3.52-4.2,1.31.3,2.6-3.5,1-3.49,3.35,0,.48-.49.6-1,.14-.31-.3-1-.64-1.23-.5-3.17,2.28-4.51.24-5.79-2.29a10.94,10.94,0,0,0-1.92-2.19C589.5,639,588.53,638.38,589.05,637.54Zm22.71,25.18,1.12-1.12,1.24-.81,1-1.18.74-1.41,2.34.49.75-1.2-.86-.43.91.35,0,.08,1.23.62L619,660.37l2,.72-.17,1.66-.16,1.58.27,1.41,1.92,1.23-1,1.45-1.36,1.74-1.5-.71-.6-2.18-1.62-.18-1.5-.46-1.27-.85-1.17-1-2.11.38-.19-2Zm-1-275.58c2.2,1.18,4.08,2.71,6.73,3,.6.06,1.37,1.75,1.46,2.74.24,2.63,2.27,4.1,3.54,6.05.31.48.68,1.17,1.53,1.09,2.12-.22,2.5.32.74,1.76-1.21,1-.53,1.26.51,1.21s1.35.5,1.93,1.47a12.41,12.41,0,0,1,1.65,4.78c.21,2.1,3,2.77,2.22,5.17-.59,1.85.84,3.27,1.64,4.78,2.09,3.93,2,3.94,2.36,8.54a43.24,43.24,0,0,0,1.57,7.34c.22.85-1,1.65.3,2.61.65.51-.42,2.26.5,3.22,1.1,1.15.42,2.51.55,3.77a19.37,19.37,0,0,1,0,3.49c-.06,1.09.49,2.37-.78,3.19,0,0,.26.43.31.68.49,2.47,1.92,4.82.56,7.51a2.26,2.26,0,0,0,.6,2.71,2.52,2.52,0,0,1,.26,2.8c-2,3.94-.2,8.74-2.92,12.47-.08.11,0,.35,0,.49-.82,1.86,1.67,3.92-.15,5.58-1.63,1.51-.56,3.61-1.67,5.37-1,1.56-1.06,3.79-2.07,5.62-.46.83,0,2.19-1,3,.74.7,1.36,1.28.48,2.44-1,1.37-1,3.43-1.94,4.64-1.4,1.9.14,4.06-1.44,6a16.39,16.39,0,0,0-3.07,4.67c-1,3-6,9-8.79,10.64a59.41,59.41,0,0,0-10,7.26c-.66.61-1.51.54-2.07,1s-1.09.93-1.4,0c-.94-2.71-4.24-4-4.33-7.23,0-.34-.56-.69-.56-1.25a16.25,16.25,0,0,0-.87-6.13c-.93-2.45.27-5.11,1.24-7.39a4.76,4.76,0,0,0,.06-4.5c-.78-1.6-.35-3.26.17-5.07.81-2.82,2.56-5.42,2.41-8.51-.06-1.2.67-1.19,1.54-1.32.51-.08.69-1,.44-1.22-1.8-1.47,1-2.82,0-4.21,2-1.76.69-4.06,1-6.09.18-1.37-2-2.78,0-4.17-1.88-4.86-.83-10.27-3.19-15.19a36.51,36.51,0,0,1-2.78-8.5c-.39-2-1.57-3.37-2.77-4.88-.92-1.16-2.82-1.18-3.19-2.56-.46-1.77-2.23-1.65-3.07-2.66-2.42-2.95-4.68-6.05-7-9.09.85-2.2-2.07-2.82-2-4.67.1-2-2.3-2.48-2.61-3.9-.49-2.24-2.27-2.25-3.2-1.66-1.51,1-2.54-.3-3.74-.09s-2-1.61-3.24-.08c-.25.32-1.31,0-1.23-.95s-.87-1.28-1.25-.95c-2.37,2.07-4.37-.82-6.58-.38-.15-2.27-2.16,1.93-2.14-.6,0-1.78-2-.65-2.45-1.91-.33-.9-.94-1-2.14-.33-1.36.73-3.1.36-4.12-1.81-.7-1.47-3.48-1.55-3.69-3.89-3-1-2.6-3.5-2.63-5.82-.46-1.39,1.4-2.63.26-4.07,2.46.18,1.35-2.05,2-3.06,1-1.39,2.84-1.4,3.9-2.78.74-1,2.37.07,3.24-.48,1.06-.67,1.68-1.45,2.85-.19.74.8,1.41,0,2.05-.53.37-.3.46-.17,1.76,1.38.18.22.54.28.82.42l3.07-1.39c.27-.47.52-.63,1-.14a10.33,10.33,0,0,0,1.86,1.51c.85.52,1.1-1.31,1.92-.64a2,2,0,0,0,1.74.66c.78-.16,1.7.4,2.34-.38a1.62,1.62,0,0,1,1.75-.61c3.81,1,5.68-1.78,7.85-4,1.91-1.92,2.32-4.39,2.56-6.94.12-1.25-.95-3.13,1.62-3.28.58,0,.27-.85.37-1.31.15-.78-.48-2.07.36-2.26,1.26-.26,2-1.53,3.52-1.3a11.28,11.28,0,0,1,4.12,1c1.18.66,2.89-.5,4.2.73.39.36,5.64,3.06,6.28,3.3A68.67,68.67,0,0,1,610.74,387.14ZM480.36,360.61c-.87-.48-.7-2.21-1.18-3.38-.58-1.39-.29-3-1.67-4.35-1.19-1.16-1.12-3.23-1.94-4.63s-.11-3.42-2-4.18c.05-2.43-2.65-4.46-1-7.11-.71-1.75-.05-3.75-.64-5.36-1.17-3.23-.83-6.76-2.53-10a17.39,17.39,0,0,1-1.52-6.39,28.13,28.13,0,0,0-2.56-8.37c-.9-2.08-2.17-5.05-2.31-7-.06-.94.45-2-.45-2.8-1.38-1.2.44-3.39-1.4-4.42,1-1.06,1.95-2.11,2.91-3.18.66-.72,1.75-1.38,1.88-2.19.37-2.4,1.11-.45,1.69-.26.93.3,1.53-1.05,2-.78a3.79,3.79,0,0,0,2.19.8c1.06,0,2.38-.46,2.35,1.52,0,.66,1.1.45,1.73.45,1.15,0,2.42-.22,2.25,1.61,1.3.07,2,1.58,3.41,1.4,1-.13,1.48.16,1.54,1.3a.91.91,0,0,0,1.47.6c1.28-1.48,2.18-.92,3.17.27a2.14,2.14,0,0,0,3.38.22c.67-.58.83-.06.91.33.16.84.08,1.87,1.23.58.67-.74,1.38-1.45,2.12-2.12.51-.45.94-.14.87,1.05,0,.78.31.69.72.77.82.14,1-.78,1.6-.95s.53,1.37,1.38.53c.69-.69,1.38-.91,2.06-.1s1.51.51,2.29.51c6.28,0,8.43.59,12.37,4.23,1,1,3-1,3.18,1.13s1.56,1.6,2.75,1.7c-.32,2.63,3.29,1,3.58,3.38.15,1.22,2,.47,3.1.53s1.43.33,1.95,1.48,1.7,2.93,3.8,2.57c.95-.16.81.66,1.07,1.23s1.11,1.73,1.58,1.67c3.26-.37,3,2.75,4.43,4.12s-.06,4.15,2.77,4.3c-1.28,1.58.79,3,.21,4.61-.3.81.45.95,1.17,1.09,1,.22,1,.82,0,.93-1.17.12-1.61.91-1.07,1.54.74.86,1.3,1.93.79,2.61-.91,1.23.28,2.74-.9,3.83s-.42,3.22-1.75,4.23-1.17,3.65-3.72,2.83c-1.13,1.21-2.24,2.42-4.17,2-1.33-.28-2.06,1.82-3.55,1-1.25.27-2.28-1.37-3.75-.06-1.2,1.07-2.16-1.19-3.52-.93a1.72,1.72,0,0,1-1.73-.66c-2.12-2.5-5.05-2.84-8.05-3.54-1.81-.42-3.07-.88-4.76.13-.63.38-1.06.56-1,1.29a7,7,0,0,1-2.25,5.57c-.62.62-4.15,2.39-5.1,3.29-2,1.9-4.86-.12-6.81,1.85-.47.49-1.43.06-2,1.37-.74,1.71-2.58,2.94-4,4.34-.82.81-.89-.77-1.38-.54s-.82,1-1.63.92-1.85-.24-2.4.16C482.44,359.91,481,361,480.36,360.61Zm57.74,153c-.32-.54-1.2-.75-1.09-1.54.4-2.77-1.31-4.86-2.53-6.94s-1-5.09-3.4-6.66a3,3,0,0,1-.66-1.64c.05-3.42-1.74-6.32-2.65-9.45s-3.1-5.87-3.55-8.95c-.3-2-1.7-3.5-1.69-5.43s-1.42-3.48-2.21-5.19-1.23-4.1-2.59-5.36a8.57,8.57,0,0,1-2.51-5.46c-.2-2-2.27-2.45-2.2-4.14s-.12-2.94-1.54-3.87c-.17-4-4-6.87-3.46-11.06.12-1.1-1-1.94-.9-2.57a4.92,4.92,0,0,0-1.42-3.91c-1.35-1.39.42-2.6-.09-3.16-1.08-1.17,0-3.09-1.61-3.87a3.31,3.31,0,0,0-1.09-3.5c-1.2-1.21-.41-2.85-1.44-4-1.36-1.45-.37-3.38-.86-5.11-.62-2.18-2.83-3.54-2.61-5.95-2.3-1.67-2.23-4.52-2.82-6.8-.63-2.46-2.09-4.47-2.67-6.94-1.06-4.49-3.32-8.61-5-12.91-.62-1.6.43-3.62-1.56-4.9-1.49-1-2-2.77-2-4.64,0-.5-.49-.76-1.07-.71s-.83-.31-.91-.88c-.12-.89,1.76-1.74.05-2.65a6.48,6.48,0,0,0,3.13-2.12c.62-.73.69.29,1.05.39.63.16,1.49,2.69,1.87-.21,0-.19,1.39-3.29,2.08.08.17.83.74-.05,1-.29,1.32-1.26,2.52-2.67,3.93-3.84,1.25-1.05,2.38-3.66,3.75-2.84,2.09,1.26,2.73-1.64,4.51-.72,1.42.74,2.64-.47,3.82-1.5,2-1.71,4.41-2.88,4.92-5.92.23-1.33,2-1.4,3-2.13a3.85,3.85,0,0,0,.35-.35c.69,3,4.65.57,5.58,3.42.35,1.11,1.78.32,2.67.59,1.7.51,3.61,1.91,5,1.49a21.49,21.49,0,0,1,5.77-.46c1.8-.07,3.12-.32,3.55-2.42.16-.81,1.61-.83,1.92-.15.58,1.26,1,1.45,1.43.55.82-1.89,1.77-3.13,4.15-3.27.81-.05-.31-.58-.74-.77s-1.18-.08-.48-.83c.34-.36.65-.9,1.07-1,2.48-.75,3.89-2.23,3.58-4.95-.09-.81.66-1.08.92-1.63,1.4-2.94,1.36-5.95.43-9.77-.63-2.57-.36-5.38-2.34-7.54-1.81-2-2.16-4.79-3.87-6.94-.94-1.18-1.45-2-3.08-2.43a5.19,5.19,0,0,1-2.95-2.77,3.71,3.71,0,0,0-2.76-2.29c-1.57-.45-2.25-2.93-3.72-2.67-2.33.41-3.23-1.4-4.65-2.22-2.7-1.58-5.11-3.64-7.76-5.37-3.92-2.56-7.83-4.82-12.63-4.47-1.38.1-2.23-2-3-1-1,1.38-1.94-.42-2.57.41-1.1,1.44-2.13-.71-2.72-.18-1.06,1-2.17.53-3.25.68s-2.31-.45-3.24.66c-.61.73-.67-.35-1.05-.38-2-.14-3.79-1.59-6-1.31-1.3.16-.33-2.64-2.06-1.91-1.08.46-1.85,1.34-1.86-.68-3.05-1.54-5.62-4.11-9.6-3.46-3.12.52-6.49-.57-9.36,1.62-.66.5-.89.16-.94-.71-.11-1.65,1.88-3,.95-4.55s.36-2.89,0-4.19c-.43-1.56.44-2.87.54-4.29.16-2.27,2.45-4.51,2.29-6.64-.16-2.29,2.43-1.76,2.3-3.61s1.23-3.13,2.32-4.52c.93-1.2,1.12-3.21,2.24-4,2-1.37,3.06-3.48,4.79-5s3.61-3.47,5.31-5.29,4.35-1.78,6.53-2.32c2.7-.68,5.56-2.39,8.32-1.16,1.58.7,2.4,1,3.88-.08,1.21-.84,2,.62,2.49,1.58.28.57.33,1.63,1.05,1.18,2.48-1.54,2.38.75,3.42,1.85,2.56,2.7,4.95,5.56,7.23,8.47a19.28,19.28,0,0,1,3.6,6.52c.79,2.7,2.24,5.37,3.2,8.14a1.31,1.31,0,0,0,.69.7c1.18.44,1.65.69,1,2.31-.4,1.08.76,2.9,1.52,4.22,2.87,5,5.83,9.93,8.84,14.84.49.8.36,2,1.39,2.42,1.19.49.62,2.49,1.84,2.51,1.62,0,.92,1.48,1.63,2,1.8,1.26,2.49,3.37,3.05,5.22a13.13,13.13,0,0,0,3.27,5.18c.7.77,2.2,1,1.77,2.81-.3,1.21,1.81,1.24,2,2.74.11,1.14,1,2.21,1.55,3.33a21.34,21.34,0,0,1,1.26,2.48c.37,1.13,3-.79,2.72,1.68-.19,1.49,1.13,1.89,1.66,2.83s.79,2.4,1.49,3.37a19.06,19.06,0,0,0,3.15,3.2c1.62,1.39,3.17,3,3.62,5s2.89,2,2.84,2.66c-.17,2,2.62,1.05,2.41,3.08-.11,1.13,2.1,1.29,2.89,2.17,1.16,1.29,1.81,3,3.23,4.15a38.34,38.34,0,0,1,3.72,3.37,14,14,0,0,1,2.94,3.77c.69,1.63,3.56,1.19,3.13,3.62,3.46.38,3,5.39,6.59,5.59.38,2.85,2.94,3.45,4.69,5s2.23,4.5,4.38,6.06c-.13,2.35,2.42,2.47,3.41,4,.84,1.28,2.65,2,4.13,2.77.79.41,1,1,.69,1.54s-1,.69-1.66.27c-3-2-6-3.91-9.51-4.82a13.57,13.57,0,0,1-3.21-1.89c-1.41,1.92-2.7-1.11-4.18-.11-.46.32-1.51-.18-1.9.16-1.52,1.29-3.65.95-5.14,2.09-1.13.87-3,1.3-2.35,3.44.57,1.84-1.83.87-2,2.08s.52,2.32-.49,3.3c-.22.21-.54.61-.47.77,1.17,2.58-1.67,3.27-2.43,4.93a3.83,3.83,0,0,1-4.46,2.33c-.91-.21-2.28-.25-2.81.28-1.06,1-1.31.08-1.85-.35-.36-.29-1-.89-1-.86-2.45,2.33-4.39-.91-6.5-.58a18,18,0,0,1-5.4.41c-3.85-.6-7.12,1.41-10.68,2-.56.1-.93.34-.87.92a1.85,1.85,0,0,1-1.62,2.38c-.67.18-.86,1.86-1.78,2.65a7.44,7.44,0,0,0-2.64,6.4c0,.92.31,1.89-.53,2.79s1,1.31.61,2.4c-.48,1.49.71,1.39,1.75,1.5,1.81.21,2.52,1,1.23,2.77a2,2,0,0,0,0,1.46c.38,1.27.78.23,1.24,0s1.09-.34,1.31-.14c.87.82-.32,1-.62,1.35-.74.86-1.55,1.42.45,1.58.78.06,1.16,1.37,2.48.65,1.52-.82,1.83-.55,1.41,1.37-.16.77.27,1,.43.87,1-.5,1.35,1.69,2.37.45,1.79-2.2,2-1.15,1.94.89,0,.49.52.62,1.05.74.81.2,1-1.65,1.85-.53.31.42,0,1.55.82,1.43s1.68,1.9,2.77.15c.28-.46,1.21,0,1.64.57.72,1,1.48,1.55,2.55.36.12-.13.86,0,.89.12.68,2.87,3,1.83,4.67,1.81,4-.07,7.42.47,9,4.78,2.78,1.7,3.2,5.09,5.19,7.39.55.63-.37,2.7,1.38,2.81,1.94.12,1,2.3,2.32,2.72.82.25,1.84-1.07,2.51.44a17.58,17.58,0,0,1,1.23,2.46c.35,1.57.58,1.67,1.57.52,1.7,1.16,2.25,3.11,3.22,4.77.13.21-1.1.58-.26,1,2.59,1.33,2.18,4.59,4.2,6.31.9.77-1.75,1.76-.19,2.7s1.17,2.92,2.14,4.13-1.61,1.8-.25,2.77a2.26,2.26,0,0,1,.66,2.7c-.61,2.27,1.87,4.46,0,6.69,1.1,2.22.23,4.55-.14,6.64-.54,3-.63,6.2-2.14,9.09a27.59,27.59,0,0,0-1.71,5.78c-1.35,5.13-2.64,10.3-1.94,15.66.15,1.12-1.78,1.87-.18,3.3.66.6.22,2.56.08,3.88-.2,2,3,2.42,2,4.67,2.31,2,1.94,5.83,4.58,7.83h-3c-.64,0-1.34-.16-1.61.68-1.13,3.58-4.57,4.06-7.36,5.21a5.07,5.07,0,0,0-2.4,1.41c-.83,1.16-2.15-.75-2.85.59-.57-1-2.13-1.28-2-2.83.05-.54-2.81-6-3.18-6-1.64-.3-2.24-1.84-3.4-2.68s-2.66-1.43-3.39-2.54c-.91-1.38-2.26,1.05-3-.75-.61-1.56-2.28-.83-3.51-1.09-3.55-.75-7.06-2-10.62-.11-1.67-1.66-4-1.19-5.58-.67s-2.25.27-2.75-1c-.77-1.85-1.86-3.43-2.25-5.62C542.21,519.36,539.85,516.54,538.1,513.61Zm-19.31,51c.27-.25,0-1,.24-1.37,1.11-1.63-2.07-2.53-.74-4,1.11-1.2.64-2.48.69-3.72.11-2.9,1.51-4.86,2.6-8.9,1.31-4.82,5.58-5.92,8.53-8.54,2.33-2.07,5.71-3,8.63-4.36.35-.17.41-1,1-.53.17.17.27.36.41.4a18.82,18.82,0,0,0,10-.24,14.34,14.34,0,0,1,2.89,1c.4.69,1.2.9,1.6.44,1.43-1.7,3.68-.35,5.37-1.7.9-.71.64.38.32,1.2-.39,1,.76.51,1.24.66,1,.29,1.4-.55,2.06-.92.23.57.32,1.31.74,1.67.82.71,1.46,0,2-.59,1.59,1.75,4.29,1.11,6,3.39,1.9,2.55,3.86,5,5.57,7.73a5.63,5.63,0,0,1,1.14,3.06c0,1.39-.61,2.94.86,4.16.47.38-.27,1.1-.48,1.68-.41,1.08-1.91,2.08-.47,3.55.46.46-.38,1.09-.77,1.61a12.32,12.32,0,0,1-8.11,4.49c-2.14.37-3,2.46-5,2.57-.31,2.18-2.44,3.66-2.14,6.13a5.88,5.88,0,0,1-2.87,5.71c-1.41.88-2.53,3.1-4.83,2-.38,1.06-2,.3-2.24,1.47-.18.85-.08,1.87-1.23.59-2.18-2.41-5.82-2.46-7.95-4.95-.64-.75-.84.16-1,.39-1.9,2.23-4.66,3.7-5.81,6.58-2.22.29-3.31,4.66-6.41,1.77-2,1.95-4,.12-5.37-.64A10.73,10.73,0,0,1,520.5,581a23.9,23.9,0,0,0-2.13-4.11c-.29-.47-.54-1.18-.34-1.31,2.07-1.3.17-2.47,0-3.72a20.43,20.43,0,0,1,0-4.49c.09-.95-.9-1.35-.82-2C517.25,565.09,518.37,565,518.79,564.62Zm-.34,21.49a2.24,2.24,0,0,1,1.27.17c.67.57-1.45,1.11-.17,1.66.57.24,1.19.25,1.68.77,3,3.17,3.11,3,6.9,4,1.34.39,1.77-.23,2.46-.77,1-.77,1.57,1.93,2.84.24.38-.5,1.9,0,2.83-.27a6.36,6.36,0,0,0,2.46-1.24,12.48,12.48,0,0,0,2.24-2.56c.21-.31.13-1.1.6-1s.23,1,.47,1.22c1.55,1.3.43,4,2.69,5,.56.24-.39.61-.62,1.39a2.81,2.81,0,0,0,.08.95c.09.28.49.45.67.72.83,1.24,2.89,1.68,2.69,3.52-.12,1.12.36,2.37-.53,3.43s1.87,1.92.07,3.24c-.74.55,1.4,2,0,3,.82,3,4.71,4.52,7.11,2.56,1.48-1.21,2-.69,2.8.47a49,49,0,0,0,5.31,6.21c1.81,1.85,4.43,2.28,6.39,4,1,.91,3.4-.36,5,1,.12.1,1.22-1.59,1.29.23a6.48,6.48,0,0,0,1.88,4.21c2.72,2.93,4.12,6.63,6.2,9.92.94,1.48,1,3.79,3.57,4,.49,0,1,1.28,1.47,1.75,1.64,1.58,1.46,4.79,4.48,5.1.17,2.27,1.56,3.79,3.17,5.17.29.25.26.52-.18.69-.29.11-.84.2-.93.06-2.21-3.12-6.41-1.5-8.94-3.79-.11-.1-.36-.22-.41-.18-3.23,2.63-6.42-.72-9.68-.08-1.31.25-2.88.56-4.16-.84-.38-.41-1.79-.37-2.66.56-.71.75-1-1-1.92-.68s-2-.38-2.79.49c-.51.54-1.18.84-1.69.35-.91-.86-2.6-1.75-3-1.41-1.45,1.11-2.89.37-4.29.57s-2.49-.17-3.65,1c-.8.78-1.46-.95-2.51-1-.75,0-.91,1.6-1.88.56-.16-.17-.54-.35-.69-.28-1.54.79-1.76.7-2.79-.18-2-1.73-4.89-2.55-5.6-5.6,0-.2-.5-.34-.79-.44a39.53,39.53,0,0,1-6-3.39c-.85-.78-1.54-2.19-3-.66-.1.11-.83-.29-1.22-.53-1.22-.73-1.65-2.74-3.48-2.39-1.32.26-2.39-2.35-3.79-.27,0,.05-.49-.12-.67-.28-2.72-2.47-6.43-3.67-8.71-6.7-1.3-1.73-3.16-2.7-4.93-3.78-3-1.85-6.12-3.84-8.16-6.56s-5.39-3.42-6.75-6.45c-3.88.16-3.22-4.11-5.42-5.64-.31-.22-.13-1.33.83-1.35,3.35-.07,5.44-2.85,8.38-3.91,2.57-.92,4.83-2.67,7.56-3.44,3.58-1,6.57-3.39,10.06-4.61a3,3,0,0,0,2.09-1.79C514.76,589.68,517.88,588.84,518.45,586.11Zm-214-193a1.75,1.75,0,0,1,2-1.15c2.15.45,4.86.24,6.3,1.49,2,1.78,4.61,1.11,6.53,2.5.11.08.33,0,.49,0,2.41.05,3.48,2.83,5.75,2.95s3.73,1.76,5.53,2.31c2.9.88,4.95,3.36,8,3.71.81.09,1.12.64,1.56,1.07,1.49,1.47,2.94,3,5.27,3,.42,0,1.13.25,1.22.54.76,2.46,3.23,1.9,4.7,2.91,1.11.76,3.06-.52,3.24,1.35.21,2.29,2.2.51,3,1.56s1.14,1.34,0,2.18-1.69,2.33-.44,3.29c.72.56,2.11.29.59,1.49a5.19,5.19,0,0,0-2.14,5.13c.18,1.28.26,2.62-1.66,2.74-.41,0-.2.32,0,.69,1.46,2.17.87,3.67-1.48,4.81a4.47,4.47,0,0,0-1.91,2.15c-1.88,4-5.43,5.05-9.46,5.15-1.17,0-2.26.11-3.1-1.06a2.23,2.23,0,0,0-3.4-.53,28.36,28.36,0,0,0-2.46,1.5,2.11,2.11,0,0,0,0,3.05c.41.46.29.61-.06,1-1.79,2.12-2,2.77-1.77,5.15.1,1.21-.78,1.51-1.59,1.8-.43.14-1,.11-.91.66s.87.22,1.29.39a1,1,0,0,1,.51,1.25c-.39,1.26-.81.05-1.24,0-1.06-.07-1.3.83-1.08,1.93s1.54,2.5.83,2.58c-2,.25-1.12,1.56-1.54,2.43-1.19,2.43-3.73,3.59-5.92,4.6a5.33,5.33,0,0,1-6.17-1.56c-1.42-1.72-3.8-1.22-5.36-3-1.37-1.58-2.79-3.55-5-4.3-.58-2.65-3.6-3.6-4.26-6.23-.55-2.25-1.82-4.24-2.64-6.4-.59-1.57,1.18-2.14.45-3.35s-1.45-2.16-1-3.57c.05-.15-.06-.38,0-.49,1.66-2.17.81-4.7,1-7.08.06-1-.16-2,1.45-1.9.44,0,.54-.66.58-1.18.11-1.59-.73-3.43,1.81-4.24,1.07-.35-1.79-2,.15-3a7.87,7.87,0,0,1-2.07-4.11c-2.21-.47-3-1.63-2-3.82.13-.29-.58-.6-1.12-.61s-1.13-.55-.79-.9c1.69-1.75.7-4,1.27-6a23.51,23.51,0,0,1,3.75-7.92A21.25,21.25,0,0,0,304.42,393.15Zm24.43,125.06c-1.15,1.78-.1,3.77-1.73,5.38a5.69,5.69,0,0,0-1.14,5c.09.45.19,1.18-.39,1.29s-.43-.62-.62-1c-1.61-3-3.3-6-5-8.94,1.24-1.61-3.48.11-1.28-2.33.58-.64-2.2-.17-1.74-1.93s-1.71-2.1-1.86-3.18c-.22-1.57-2-2-2-3.16-.11-1.6-1.94-1.83-2.05-3.17s-1.86-1.71-1.93-2.67c-.12-1.61-1.41-2.15-2.13-3.14-5.07-7-10.45-13.6-17.64-18.52-.95-2.78-4.86-3-5.36-6.21-.15-1-1.48-.33-2-1.09-1.43-2.3-4.21-3.15-5.66-5.56s-4.29-3.56-5.36-6.29c-.06-.14-.14-.38-.22-.39-1.17-.08-2.14-1.64-3.48-.49-.47-1.14-.64-2.83-1.48-3.28a16.27,16.27,0,0,1-3.41-2.6c-.92-.87-1.63-2.07-3.11-2.12-1.67-3.48-5.81-4.39-7.85-7.13a96,96,0,0,1-6.48-9.76c-1.23-2.17-2-4.57-3.87-6.43-1.25-1.23-1.49-4.79-1.34-7.77.05-.87-1-1.42-.81-2.5.2-1.47-.53-3.43.19-4.39,1.09-1.44-.1-2.94.33-3.53,1-1.4-.23-3.11.94-4.13s-.55-1.34-.21-1.77,1.08-.51,1.65-.74c-1.13-.76,3.17-2.42-.47-2.8-.47,0-.48-.63,0-.65,2.71-.1.69-1.49.67-2.33,0-1-.19-2.14,1.42-1.86s2.84-.24,3.07-2,2.7-1.89,2.78-3.76c2.84,1,4.82-3.41,7.83-1.23,3.24-.77,6.54-1.35,9.68-2.42,1.05-.35,1.57-.75,2.48.11.6.58.7-.2.72-.6s.37-1.17.61-.9c1.57,1.72,2.85.4,4.29-.15,1-.39,2.18.33,3.28-.59.86-.71,1.68.88,2.9.64.79-.16,1.59,1,2.72,0a2.87,2.87,0,0,1,2.79.14c1.05,1,2.13.8,3.22.75a14.75,14.75,0,0,1,8.33,1.63c.28.16,2.05,1.06,2.12,1.12.65.59,1.22,1.24.42,2-.15.14-.9-.34-1.37-.54,0,1.67-1.92,2.21-2.24,3.57a8.56,8.56,0,0,1-3.46,5c-1.2.88,1.4,2-.43,2.53,1.86,1.44.25,3-.29,4-.75,1.44-1.34,2.45-.17,3.87.54.65-.21.68-.61.74-.63.1-1.2,0-.63,1,1.75,3.27,3.24,6.66,5,9.91.79,1.43.88,1.87-1,2.17-1.22.19,1.21,1.28-.09,2.1-.47.29-2,.66-.8,2.15.37.47-.62,2.11-1.45,3.05a25.78,25.78,0,0,0-2.15,3.09c1.56,1,.56,2.78,1.09,4,.45,1.06,2.34,1.55,1.11,3.21,1.74,1.36-1.5,2.39-.31,3.84.08.1-1.75,1.39.45,1.47.49,0,.57.61.67,1.12.67,3.58,1.32,4.31,3.8,8.35.93,1.53,2.28,2.77,3,4.16,1.79,3.43,5.23,4.42,7.86,6.56,2.84,2.32,6.28,3.39,9.64,4.47,1.32.42,3,1.8,4.55.31,3.37.34,4.14-2.84,6.07-4.46-.41-1.92,1.28-2.82,1.91-4.21.36-.81,1.32-1.44,1.14-2.53a4.64,4.64,0,0,1,1.43-3.94c.46-.54,0-1.8.85-2.82,1.06-1.22,2.15-2.81,1.71-4.74,1.32-.72-2.54-1.58.07-2.33.89-.25,1.68-1,2.6-.14,1-1.63,2.15,1.16,3.12-.13,1.13-1.5,1.89-.36,2.83.26.32.22.85-.07,1.32-.35,4-2.32,8-4.61,11-8.15,1.88-2.26,2.19-5.4,3.07-8.2a3,3,0,0,0,0-1c-.1-1.76,2.41-2.09,2.09-4.19-.22-1.47-.83-3.34.89-4.59.08-.05,0-.32,0-.48.15-.81-1.06-1.17-.87-1.52.29-.54,1.1-.79,1.69-1.17.32.52,0,1.43.72,1.66,5.11,1.56,8.52,5.77,13,8.32,2.87,1.62,4.92,4.65,7.76,6.62a28.3,28.3,0,0,1,6.44,6.17c1.37,1.81,2.74,4.32,5.79,4,1.07,2.18,3.36,3.15,4.88,4.89a22.91,22.91,0,0,0,7.83,6c1.7.77,1.93,2.49,2.62,3.81.46.87.66,1.33,1.63,1.23a1.7,1.7,0,0,1,1,0c1.45.93,1.61,3.57,4.13,3.1,1.15,1.54,2.5,2.92,3.68,4.42,2.83,3.55,5.44,7.61,9.62,9.72,2,1,2.17,3.79,4.77,4,.69.07-.08,1.65.39,2.23a9.59,9.59,0,0,0,5,3.49A5.93,5.93,0,0,1,447,491.6c.19.4-.1,1.08.46,1.29s.62-1.3,1.38-.53c.28.29.13,1,.4,1.31,1.72,2.23,4.46,3.46,5.92,6,2.73,0,3.37,2,4.2,4.09a5.29,5.29,0,0,0,2.52,2.21,2.12,2.12,0,0,1,1.22,1.15c.64,1.42.92,3.57,3.42,2.92.43,2,2.33,2.66,3.44,4,1.44,1.76,2.49,3.79,4.55,5,1.52.9,1.95,3.13,3.34,3.85,1.87,1,2.69,3.06,4.44,3.73s2,2.64,3.72,2.87c.85,2.88,3.74,3.73,5.61,5.58s2.68,4.67,4.53,6c3.71,2.71,5.49,7.12,9.67,9.46,2.94,1.65,5,4.83,7.53,7.25,1.2,1.14.83,2.57.6,3.71-.94,4.59-1.52,9.86-.36,13.38.43,1.31-1.58,1.81-.36,2.8s.77,1.76-.1,2.82.55,1.87,1,2.45c1.15,1.48.28,3.36-.27,3.52-1.64.48-1.77,2.58-3.88,2.7-1.84.11-3.41,2-5.2,3-9.72,5.32-13,6.77-23.89,10-1.47.44-2.4.55-2.77-.76s-.88-2.13-2.1-2.3c-1-.14-1.08-.7-1-1.35.24-1.22-.56-1.86-1.32-2.45-1-.78-1.46-2.21-3.06-2.27-1.19-.05,1.44-2.23-1.16-2.17-1,0-2.15-1.92-3.17-3a6.28,6.28,0,0,0-3.13-2.11c.26-1.87-1.57-1.74-2.45-2.36A50.75,50.75,0,0,0,449,576.68c-1.62-.59-3.36-.94-5-1.61-1-.42-1.45-1.3-2.25-1.82-1.21-.77-.21-1.23.23-1.77-2.5-.09-1.41-2.91-2.79-3.72-1.54-.92,2.29-2-.25-2.79-1.84-.55-.46-2.28-1-3.32s-1.38-2.09-2-3.2.77-2.44-.75-3.21a9,9,0,0,1-2.11-1.59c-.11-1.86-.39-3.49-2.77-3.84-.62-.09-.56-1-.08-1.64.21-.28.84-.33.36-1.09-.67-1.06-2.27-.65-2.63-1.8-.31-1,.52-2.39-1.54-2.43-.37,0-1.68-1.73-.84-3,.56-.81-.1-.82-.42-.87-.51-.06-1.21-.13-1.19-.58.07-1.67-1.34-2.28-2.26-3s-.31-2.73-2.37-2.55c-1.18.1,2.07-2-.69-1.92-1.19,0-.44-1.75-1.47-2.21s-1-1.94-1.79-2.74-.44-1.29.07-2.09c1.51-2.35,2.73-4.9,4.33-7.18.92-1.31,1.41-2.79,2.21-4.08a3.69,3.69,0,0,0,.38-3.91c-.35-.9,1.14-2.44-.63-3.43a1.51,1.51,0,0,1-.83-1.64c.58-3.09-2.51-4.62-3.08-7.22,0-.14-.2-.27-.34-.35-.76-.44-2.72.1-2.29-.62.92-1.56.25-1.23-.8-1.59-.83-.28-.38-2.13-2.09-2.06-.71,0,0-1.95-1.63-1.87-1.28.06-.46-1.71-1.47-2.2-1.24-.6-.94-1.43-.38-2.56s-1.52-1.77-.9-3c.45-.92-1.86-1.31-.35-2.32.3-4.36,1.05-8.74-.38-13.06-.2-.59-.5-1.6-.24-1.82,1.54-1.34,0-2.55-.13-3.72-.27-2-1.42-3.75-2.11-5.61-1-2.73-4.37-3.36-6.91-4.57-.23-.11-.75.5-1.17.71-.81.39-1.59.53-1.72-.72-.08-.79-.21-1.25-1.05-.52s-1.1,2-2.53.55c-1-1-1.72,1.72-3,.83-.7-.51-1-1-1.81-.09-1.48,1.73-3.22,3.14-5.67,3.18-1,0-1.31.92-1.89,1.45-2.16,2-3.36,4.75-5.62,6.7-1,.86-.33,2.91-2.44,3.45-1.8.45-.41,3.11-2,4.12-.21.14-.29.84-.45,1.28-.43,1.22-3.48,1.29-1.58,3.51-1.24,1.05-1.36,2.93-2.81,3.85-.18.12-.24.62-.17.9.53,2.38-1.19,1-2,1.21-.95.28-1.92-.34-2.91.75-1.48,1.63-4.22,1.35-5.51.6-2.16-1.25-1.63-.12-1.63,1,0,.49-.1,1.09-.6,1s-.25-.87-.44-1.27a1,1,0,0,0-1.62-.4c-1.52,1.11-2.32,3.41-4.83,2.82-.32,1.52-1.49,2.43-2.47,3.47-.09.09-.05.32-.05.48a21.43,21.43,0,0,1-.49,6,5.25,5.25,0,0,0-.21,1.37,7.76,7.76,0,0,0,.9,2.42c1.37,3.11,1.25,3.56-1.45,5.3C336.62,507.67,331.8,513.65,328.85,518.21Zm130,91.45a9.58,9.58,0,0,1-5.45,1.39c-1.68-.13-3.52-.53-5,.8-1.64-2.14-3.16.18-4.72.11-1.25-.06-2.54.46-3.8-.52-.77-.6-1.73,1.16-3.17-.06s-4.15.3-5.87-1.38c-3.14.62-6-1.31-9.09-1.06-2.09.17-3.57-1.76-5.53-2.27-1.26-.33-2.21-2.11-3.83-.83-4.35-1.54-8.2-4.4-12.94-4.94,0-3-2.91-1.86-4.32-2.72a22.71,22.71,0,0,1-5-3.59,16.91,16.91,0,0,0-7-4.86c-2.44-.77-3.74-2.89-5.74-4.17-1.84-1.18-4.31-1.28-5.7-3.31-1.2-1.74-3.62-2.16-4.94-3.44-1.17-1.13-2.71-1.88-3.68-3.23-1.94-2.7-5-4.2-7.46-6.23-1.74-1.42-2.4-3.74-4.44-4.64s-3.12-2.93-4.1-4.75c-1.08-2-3.88-2.52-4.14-5.21-.08-.83-.91-1.52-1-2.58s-.26-3.09-2.28-1.32c-.05,0-.33,0-.33-.06.06-2.39-2.73-3.27-3-5.14a6.73,6.73,0,0,0-3-4.75c-1.88-1.36-2-3.56-3.11-5.26a2,2,0,0,1,0-2.29c1.38-1.28.49-2.82.77-4.21.7-3.51.71-7.21,3.38-10.12.59-.65-.25-2.19,1.52-2.49,1.34-.23.82-2.53,2.76-2.81,1.47-.21,1.17-3.54,3.75-2.72,1.07-1.49,2.86-2,4.29-3,.32-.23.86-.16,1.29-.49,3.08-2.41,3.08-2.84.76-6.34a14.75,14.75,0,0,1-2.75-8.85,4.09,4.09,0,0,1,4.1-4.35,10.51,10.51,0,0,0,3.65-.86,6,6,0,0,1,4.64-.23c2.21.86,4.23-1,6.42-1.23.52-1.76,1.89,1.4,2.51-.47.43-1.3,1.77-2.27,1.66-3.79-.09-1.21.79-2.19.87-3.1a2.74,2.74,0,0,1,1.93-2.74c.85-.38-.64-2.52,1.73-2.78,1.05-.11.07-2.74,1.75-3.67a2.85,2.85,0,0,0,1.74-3.22c2.95-2.09,3.87-6.53,8.29-7,1-.11,1.87-1.06,2.84-1.55s.95-2.47,1.35-2.24c2.52,1.43,4.82-1,7.25-.18,1.16.37,3.43,2.83,4.33,4.18a12.69,12.69,0,0,1,1.88,8.82c.51,1.73-.84,3.87,1,5.51a1,1,0,0,1,.05.92c-2.1,1.27-.55,2.63.08,3.67.83,1.37,1.24,2.34,0,3.77-.63.73.47,2.29-.63,3.2-.62.51-.11.75.17,1.07.79.92,2.32,1.58.7,3.16-.62.61.49,1,.86,1.35,3.55,3.41,6,7.76,9.86,10.93,1.59,1.32,2,3.15,2,5.17,0,1.25-.54,2.66.8,3.69a1.42,1.42,0,0,1-.07,1.26c-3.05,1.33-2,5.33-4.8,7-1.63,1-2.15,3.49-2.78,5.26-1,2.84,1.17,5.14,3.32,6.95.38.33,1.46-.06,1.47.82,0,3.32,2.87,4.84,4.33,7.24,1.87,3,3.91,6,5.69,9.12,2.3,4,4.54,8.11,6.78,12.18.41.76.13,2.12,1.72,1.76.11,0,.55.6.48.71-1.6,2.8,1.5,4.64,1.43,7.12,0,.23.52.65.49.68-2.68,2.78.64,4.63,1.26,6.77.51,1.75,2.32,2.72,4.68,2.78a21,21,0,0,1,13.2,5.43c.33,2.38,2.32,0,3.23,1.15.78,1,1.48,2,2.2,3.07a4.83,4.83,0,0,0,2.4,1.22c.51.1,1.2.27,1.09.66-.74,2.65,2,2.45,3,3.7s2.77,2.22,3.94,3.38,1.33,3.1,2.66,4.32c.71.65.42,1.91,1.42,2.41-.7,1-1.76.4-2.64.55C467.7,606.82,463,607.4,458.82,609.66ZM492,714.85c-.84-1.46-2.15-2.75-2-4.66a1.34,1.34,0,0,0-.22-.89c-.88-1-1.81-1.9-2.73-2.84,1.77-1.47-.6-2.24-.64-3.47s-1-2.24-2-3.15.75-.89.58-1.4a10.52,10.52,0,0,0-1.48-3.36c-1.24-1.5-2.42-3-2.46-5,0-1.3-1.16-.82-1.63-1.27-.89-.85,1.09-1,.6-1.9-.15-.27-.23-.77-.41-.8-2.58-.52-3.2-1.76-1.61-4,.16-.22,0-.66,0-1,.29-1.49-2.34-1.63-1.58-3a3.3,3.3,0,0,0,.22-3.13c-.51-1.4-2-1.82-2.55-2.87s-.19-2.78-.5-4.25c-.66-3.07-2.35-5.74-3-8.79-.05-.28-.48-.46-.62-.74-.58-1.23,1.1-2.45.44-3.32s-1.26-2.24-2.09-3.14,1.37-1.2.27-1.78c-1.4-.75.9-1.4-.07-2.19a4.55,4.55,0,0,1-1.07-2c-.69-2.08-1.86-4.09-1.46-6.37.26-1.44-.85-2.42-.95-3.6-.15-1.76-1.26-3.2-1.17-5.08s-1.1-3.51-1.64-5.26-.23-3.59-.26-5.4c0-.51-.09-1.2-.55-1.21-1.74,0-1.65-.6-.51-1.46s1.14-1.4,0-2.16c-.35-.23-.86-.89-.78-1,.36-.53.95-1.38,1.37-1.34a6.19,6.19,0,0,0,5.31-1.6c1.38-1.49,2,.7,3.26,0s2.25-1.58,3.85-1.63c1.11,0,2.15-1.37,3.3-1.53a4.27,4.27,0,0,1,2.71,1.19,7.43,7.43,0,0,1,2.3,3c.34.88,2.06.92,2.8,2.24,1.42,2.48,4.33,3.65,5.88,6.15.49.8,3.09.45,1.18,2.46,0,0,.32.53.52.56,2.89.31,5,2,6.82,4s4.06,3.25,6.09,4.76a41.14,41.14,0,0,1,4,3.39c2.71,2.59,5.52,4.6,9.49,5,1.85.17,3.49,1.42,5.68,1.26,1.63-.12,2.5,2.15,4.06,3a38.81,38.81,0,0,1,10.88,8.75c.93,1.13,2.67,1.09,3.5,2.46.5.82.71-.2,1-.38.51-.31.91-.94,1.44-1.06.34-.07.7,1.17,1.39.25.49-.65,1.19-.47,1.81-.43.82.06,1.12-.57,1.61-1,.18.23.49.45.52.69.11,1,.26,1.83,1.23.54,1.13-1.53,2.14-1.53,3.62-.34.73.59,2,1.71,3-.23.72-1.43,1.26,0,1.72.4,1.15,1,2.17,1.93,2.46-.59,0-.13.44-.21.67-.31.65,3.11,2.54-.08,3.8.73,1,.64,2.53-.48,3.71.71.71.71,1.72.49,2.68,0,1.74-.87,3.58-1.74,4.4,1.14,1.39-1.27,2,.12,2.83.82s1-.37,1.38-.67c.89-.79,1.54-1.49,1.53.48,0,.14.4.41.62.41,4.7.07,5.23.15,7.86,2.23,1,.75,1.49,1.45,1.53-.48,0-.51.56-.57,1-.08.64.75,1.68,1.36,1.9,2.2.26,1,.55,1.49,1.55,1.29,1.74-.34,2.37.58,3.14,2A110.73,110.73,0,0,0,608,675.35c1,1.47,3.8,8.71,4.53,10.63.5,1.35-1.47,2.7.1,4.15s-1.3,2.33-.63,3.91-1.07,2.84-1.22,4.51a5.09,5.09,0,0,1-2.26,3.52c-1.36.82-1.93,2.67-3.78,3-.41.06-.76.56-1.12.89-.82.77-.65,2.16-1.76,2.78-.72.4-1.17-1-2.24,0-.69.65-1.9,1.08-2.64,1.91s-2-.16-2.7.7c-1.17,1.56-3.4-.24-4.41,1.41s-2.53,1.25-4,1.29a1.41,1.41,0,0,0-.45.11A17.23,17.23,0,0,1,577,716c-1.73-.1-3.63.84-5.22-.64-.62-.59-.67.42-1,.44-2.38.14-4.64.48-7.11-.43-2-.75-4.57-.4-6.86-.25a2.06,2.06,0,0,0-1.76,2c0,1.67,0,3.33,0,5.46.51,3.5-.68,7.07-2.55,10.47-.08.14-.34.25-.33.36a5.79,5.79,0,0,1-1.89,4.55c-1.7,1.52-4,.93-6,1.07-2.42.17-4.61,0-6.05-2.35-.24-.39-1-.52-1.14-.72-1-1.26-3.07-.22-3.65-1.78-.68-1.83-.56-1.87-1.84-3.16a5.21,5.21,0,0,1-.7-.71c-1.31-2-3.88-2.36-5.25-4.24-2.2,2.38-5.43-.31-7.79,1.62-1.17,1-2.35.23-3.39-.56-1.29,1.67-2.39-1.16-3.73-.14s-2.47-1.43-3.78-.31c-.75.64-.75-.22-1.07-.39-2.19-1.15-3.92-2.91-6.5-3.64C495.56,721.58,493.83,718,492,714.85Zm177.49,26.2c-.49,1.55-1.27,3.23-1,4.73a3.82,3.82,0,0,1-.07,2.47c-.76,2-3.19,3.35-2.48,6,.11.44-.86,1.47-1.53,1.76-1.67.71-2.49,2.38-4.06,3.24-1.41.76-2,2.45-3.46,3.48-5.14,3.71-9.13,9-15.36,11.23-.32,2.24-2,1.9-3.58,2.09-1.13.14-2.19,1.1-3.24,1.75-.41.26-.75,1-1.06,1-3.54-.39-5.63,2.69-8.57,3.48-3.6,1-6.85,3.16-10.91,2.78-2.13-.2-4.25,1.38-6.57.9-3,2.67-7.13-.64-10.14,1.93-2.88-1.39-6.17-1.17-9.09-2.19a75,75,0,0,0-10.88-2.64c-1-.2-1.61-.9-2.55-1.16a51.83,51.83,0,0,1-9.6-3.31c-1.82-.94-4.53.27-5.54-2.36-2.14-.42-3.73-2-6-2.45-1.78-.34-3.31-2.12-5.22-3-1.56-.7-3.09-1.34-4.69-2A32.15,32.15,0,0,1,533,762.53c-.49-.45-.59-1.84-2.14-1-1.15.62-1.42-.89-1.9-1.83-.36-.69-1.44-1.05-2.23-1.49a10.75,10.75,0,0,0-2.51-1.16,2.5,2.5,0,0,1-2.19-2.23c-.07-.53-.35-.92-1-.81-1.37.25-2.14-.26-2.21-1.69-2.17-.15-2-2.55-3.43-3.54a8.44,8.44,0,0,1-3.26-3.6c-.63-1.85-2.57-2.38-3.2-4.18-.55-1.57-2.42-2.3-3-4.16-.46-1.41-3-1.44-3.21-3.59-.07-.69-1.47,2-1.65-.29a5,5,0,0,0-.68-2.24c-.58-1,1-.75,1-.67,1,1.36,2.56.23,3.87.81s2.46,1.27,3.78,1.72a12.31,12.31,0,0,0,6.7.12c.68-.15,1.16-1.52,1.79-1.57s.82,1.94.94,1.74c1.11-1.83,2.39,1.22,3.69-.32.77-.92,2.58-1.42,3,1.05.18,1,1.18-1.27,2.13.08.64.91.63,2.1,1.63,2.89.67.53,2.11-.07,2.1,1.52,0,1.08,1.15,1.52,1.8,2.22s1.42,2.11,2.81.85c.49,1,1.84.58,2.4,1.41,1.47,2.16,3.72,2.07,5.93,2.68a5.82,5.82,0,0,0,4.64-.46c.73-.38,1.34-1,2.18-.76,2.23.66-.86-2.69,1.69-2.11,1.68.38,2.59-1,2.52-2.76a1.64,1.64,0,0,1,.25-.89c.85-1.33,3.35-2,2.61-3.81-.63-1.56,2-2.47.29-3.79a11.63,11.63,0,0,0,1.9-7.61c-.1-1.45,1.59-2,2.41-2.95a.94.94,0,0,1,1.31.19c1.94,2.71,4.79,1.47,7.3,1.69.94.08,1.27-1,1.87-1.46.42-.36.58-.36,1.07,0,1.71,1.19,4.32,2.07,5.43,1.42s1.76-1.54,2.82-.16a.38.38,0,0,0,.68-.24c.27-2.4,1.19-1.62,2.47-.68.7.51,1.56.24,1.6-1,0-.27.23-.74.43-.78,1.36-.33,3.09.54,4-1.1.82-1.43,2.28.13,3.36-.9.58-.56,2.42.36,2.2-1.63,0-.1.2-.3.34-.34,4.3-1.35,4.29-1.34,6.61-3.51a3.72,3.72,0,0,1,.61-.46c2,2.26,2.83-.26,3.81-1.15a32.92,32.92,0,0,0,5.43-6.2c1.31-1.95,2.38-3.76,2.13-6.13-.13-1.28.4-1.62,1.59-1.82.74-.12.51-1.18.39-1.75-.25-1.25-2.09-2.46,0-3.65,0-.2.07-.47,0-.52-2.81-1.9-.88-4.47-1-6.76a9,9,0,0,0-1.25-3c-.76-1.53-2-2.88-1.69-4.79.23-1.26-.87-1.68-1.5-2.38-.49-.54-.76-1.13-.28-1.68.25-.29.87-.27,1.34-.34,1-.16,1.53.23,1.46,1.34a3.36,3.36,0,0,0,.25,1.39c.12.31.35.09.7-.17,1.45-1.1,3.1-.51,4.69-.41.51,2.41,3.55,2.38,4.36,4.6,1.67,4.56,5.65,7.85,7,12.61,3,2.74,4.43,6.4,6,10a9.42,9.42,0,0,0,2,2.17c.82.83,2,1.51,2.41,2.5,1.54,4.16,5,6.65,7.8,9.79,1,1.13,1.12,3.17,2.23,4,2.08,1.52,3,3.72,4.53,5.58.83,1,.57,2.33,1.1,3,1.34,1.76,3.81,2.63,4.09,5.26,0,.12.26.34.34.31,2.66-.72,2.84,1.95,4.24,2.94,1.59,1.12,2.29,2.85,3.63,4.13S669.63,740.66,669.51,741.05ZM740,666c-2.2,2.32-1.34,5.05-1.2,7.69l.58,9.12c1.06.79-.94,2.09.47,2.83-1.65,1.5-.41,3.46-.83,5.16-.22.89,1.17,1.33.21,2.8s.49,4.28-.4,5.75-1.57,3-2.34,4.56c-.43.86-.77,1.63.1,2,2.15,1,.78,2.67.33,3.46-2,3.52-3.71,7.21-6.18,10.48a41.71,41.71,0,0,1-3.05,4.2c-1.27,1.33-2.35,3-3.7,4.39s-2.78,2.88-4.24,4.23c-3.24,3-9.25,5.14-14.37,6.42-2.32.58-4.64-.77-6.85.75-1.1.75-2.37-2-4.25-.06-1.14,1.15-3-1.35-4.89-1-1-1.84-3.26,0-4.42-1.42-5.21-.53-9-4.13-13.4-6.27-.76-.37-2-1.94-3.13-.19-.09.14-.9,0-.91,0-.23-2.25-2.86-2.27-3.71-4.4-1.39-3.47-3.3-7-6.81-9.08-.81-2.59-4.11-3.68-4.06-6.86,0-.53-1-1.28-1.69-1.58-1.92-.84-3.34-1.93-3.24-4.26a10.71,10.71,0,0,0-3.26-2c-.74,0-.72-.33-.73-.79,0-3.27-3.25-5.37-3.2-8.69,0-.11-.55-.2-.82-.34-1.05-.54-2.85-.79-1-2.49-1.27-.24-1.08-3.06-3.14-1.81-.36.22-.66.39-.7-.08-.22-2.93-2.39-4.71-3.88-6.91s-2.55-4.52-4.92-5.87a1,1,0,0,1-.31-1.3c.94-.6.74-1.77,1.39-2.45a1.32,1.32,0,0,0,.1-2.09c-1.21-1.43-1.22-3.62-2.85-4.8-.84-.6-.71-1.42-.66-2.22a2.69,2.69,0,0,1,.35-.85c.24.15.65.27.68.45.33,2,3,2.24,3.11,4.69.11,1.87,2.89,2.37,4,4.17.74,1.2,1.31,2.83,2.83,3.58s2.71,1.57,3.08,3.43c.19.94,1.42.44,2.19.55,1.82.26,1.18,3.11,3.66,3.2,1.23,0,3.28.19,4.26,1.54,1.24,1.73,2.92,1.16,4.5,1.26h.5c1.19-.1,1.38-2.11,2.52-1.63.56.23.62,1.68,1.45,2.31s.7-.18.84-.5-.12-1.56.93-.73c1.56,1.24,2.76.64,3.76-.66.79-1,1.25-.46,1.79.18.93-1.27,3.25-.85,3.52-2.89.2-1.47,3-1.43,2-3.59-.24-.56-.13-1.6.75-1.44,2.39.42,1.84-1.28,2.41-2.55s1.18-2.51,1.81-3.76c.36-.72,1.07-1.09.17-2.28-1.07-1.4.64-2.9,1.24-4.3.29-.71,1.31-1.15,1.55-1.86,1.72-5.21,1.68-5.22,5-8.82-.48-2.67,1.49-.52,2.23-1a17.88,17.88,0,0,1,6.9-2.73c1.53-.19,3.18-1.74,4.94-2.43,1-.38,2-.72,2.68,0,1.28,1.33,2,.46,2.82-.39a3.77,3.77,0,0,1,1-.79C705.65,647,706,642.65,708,644c.38.25,1.41.39,1.78-.28.16-.28-.62-1.15-.47-1.34.48-.59.92-1.55,1.91-1.31,2.84.7,3.85-1.33,4.52-3.29,1.33-3.88,3.37-7.68,2.21-12.07-.27-2.22.6-4.5-.42-6.76-.5-1.11,1.62-2.61.12-3.68-1.31-.94-.76-2.2-1.2-3.22-1.41-3.27.23-5.83,1.59-8.5,2.23-.32,2.17-1.92,2-3.58a2.28,2.28,0,0,1,.74-2.21c.54-.45,1.09-1,1.7-.67,1,.59-.36,1-.28,1.34a13,13,0,0,0,1.21,4.37,6.33,6.33,0,0,1,1,5.26c-.29,1,.31,1.15.63,1.41a3.3,3.3,0,0,1,1.07,2.6c.24,1.89.88.15,1.38.07,1.19-.18,2.14-.14.74,1.27-.18.18-.27.78-.15.89,2.28,2,.42,4.85,1.71,7.33s2.89,5.08,3.56,8c.28,1.25,1.23,2.25.13,3.43-.54.59-.13,1,.25.92,2-.16,1.35,1.86,2.25,2.68s-1,2.45-.38,3.23a5.59,5.59,0,0,1,1.51,3.93c0,1.22,1.56,2.15.94,3.58s.8,2.12,1.2,3c.49,1.12.64,1.58-.3,2.2a2.43,2.43,0,0,0-.81,3.1c.81,1.84,1.51,3.49-.08,5.21.87,1.17.88,2.63,1.37,3.93C739.52,665.25,740.34,665.65,740,666Z"/></svg>