<svg xmlns="http://www.w3.org/2000/svg" xmlns:xlink="http://www.w3.org/1999/xlink" width="1080" height="1080" viewBox="0 0 1080 1080"><defs><style>.a{fill:none;}.b{fill:#f0dfd2;}.c{fill:#33ae90;}.d{fill:#f15a29;}.e{clip-path:url(#a);}</style><clipPath id="a"><path class="a" d="M551.81,569.23C555.12,545,511.57,379.61,496,342c-41-99,.88-96.23,30.32-110.53,26.43-12.84,37.68,56.82,63.2,77.16,28,22.33,48,34.17,62.48,46.37,32.92,27.77,20,93,4,131-10.23,24.29-11,23-11,23s40,5,68.4,34c13.39,13.69,24.6,46.09,32.19,82.34,4.61,22,1.23,57.86-20,98-30,56.63-70.94-2.06-70.94-2.06s8.52,82.81-53.83,88.55c-51.31,4.73-61.56-31.54-80.28-42.46C489.78,749.46,481,727.24,472,713c-15.25-24.25-31.61-80.84-31.61-80.84S403.67,634.22,367,625c-72.45-18.22-185.61-207.83-156.37-230.68,24.26-19,57.33-8.25,83.82,6.23,44.07,24.07,105.78,73.94,142.85,100C457.85,514.94,528.9,584.21,551.81,569.23Z"/></clipPath></defs><title>Moth 6</title><path class="b" d="M435.69,498.06s-6.33-4.35-24.49-7-38.94,8.86-59.1-8.4c-13-11.15-18.1-35.05,1.14-70.71,12.75-23.63,42.2-39.14,53.7-62.62,13.16-26.86,16.93-70.71,7.08-77.61-1-.72,1.59,24.6-9.91,44.32-10.62,18.2-30.22,33.23-46.38,45.2-13.53,10-20.46,13.61-28.43,22.92s-12,21.92-12,21.92-21-8.24-24.47-23.8c-3.55-15.94,4.91-46.08-5.74-63.79s-31.92-26-31.65-21.21c.55,9.72,7.8,10.37,13.8,34.12,7.1,28.12-4.53,43.52,2.13,65.88,6.87,23.1,27.47,33.62,29.79,44.05.89,4,.05,14.72,3.38,31.54,3.65,18.45,13.62,35.52,13.62,35.52s1.12,4-5.75,8.85S296,536.32,300.53,536.17c6.64-.23,7.6-3.11,16-7.32,7.53-3.77,11.74-3.54,16.17-2.44,8.16,2,15.9,6.92,26.75,8.69s28.46-.56,38.72,3.7c17.05,7.07,17.73,29.53,35,43.25L627.05,770.14s9.51-19.27,25.46-4S674.34,795,674.34,795,706,845,738.71,860.2c23.55,10.95,66.34,15.68,66.34,15.68s11.28-15,15.26-31c5.3-21.26,4-43.3,4-43.3s-40-7.4-61.91-17.57-37-37.51-54.28-47.46-151-149.61-175.61-156.68S476.58,564,467.29,553.15C450,533,480,513,470.73,470c-6.37-29.56-30.61-48.69-38.12-60.43-10.61-16.58-.13-33.3-6.3-36.21,0,0-10.22-8.09-11.09,25.57-.5,19.7,21.16,43.51,25.82,62.55S440,491,435.69,498.06Z"/><path class="c" d="M338,451.61c0-2.78-.65-5,.17-6.34,1-1.65-.78-3,.43-4.57.95-1.23.64-3.26,1.33-4.9a26.13,26.13,0,0,0,2.3-9.14c.09-2.36,2.12-4.75,3.61-6.9a13.48,13.48,0,0,0,2.26-5.1c.48-2.26.95-4.82,3.61-5.93a2.57,2.57,0,0,0,1.25-1.45c.35-1-.48-2.31.54-3.28.78,1.34,1.45.71,2.12-.12s1.43-1.2,1.52-2.41c0-.57,1.09-1,.1-1.82-.4-.32.35-.71.63-1a63.06,63.06,0,0,0,7.39-8.35c1.1-1.63,4-1.61,4.15-4.21.61.22,1.4,1.92,1.68-.37.12-1,1.28-1.61,2.51-1.94.75-.2,1.15-1.35,1.59-2.24s2.25-.86,3.21-1.58c2.05-1.55,3.83-3.42,5.87-5,1.21-.94,1.89-2.22,3.67-1.95.92.14.76-.74,1.11-1.19,3-3.94,6.18-7.79,9.31-11.65.72-.89,2.18-1.51.67-2.95-.29-.28,0-1,.53-1.19,2.09-.81,2.45-2.88,3.52-4.48,1.31-2,1.67-4.54,3.82-5.93-.87-1.08,1.67-1.37.52-2.84-.88-1.13,1.49-.36,1.74-1.85.34-2.06,2.28-3.78,1.85-6.2a2.87,2.87,0,0,1,.49-1.8c.46-.93,1.55-1.66.93-3.14-.27-.65.46-1.95,1.06-2.68.95-1.16-.52-1.53-.61-2.38-.19-1.76,2.35-2.31,1.67-3.48-.79-1.35-.32-2.54-.5-3.78,3.54-1.38.68-5.37,2.95-7.27-.68-1.06-1-2.12,0-3.17-1.45-1.56-.2-3.31.14-4.64,1-3.82,1.63-7.48-.14-11.2.76-2.37-1.71-4.56-.87-6.53,1.32-3.1-.86-5.84-.16-8.74a1.11,1.11,0,0,0-.38-.78.77.77,0,0,0-.58,1.05c.59,1.9-1.25,3.24-1.05,5.1s0,3.66,0,5.49c0,1,.13,2-.89,2.64s-1.12,1.11-.22,2.21c.47.59.32,2.13-.22,3.27-1.25,2.65-1.58,5.68-3.25,8.15-.3.45-.63,1-.39,1.31,1.94,2.34-.18,4.45-.61,6.49-.26,1.23,1.92,2,.13,3.24a4.81,4.81,0,0,0-1.49,2.82c-.25,1.12-1.09,1.62-1.76,2.27-2,2-2.23,1.9-2.72,3.8-1.09,4.27-4.59,6.4-7.58,9.07-2.75,2.46-5.2,5.25-8.53,7-.63,3.24-4,4.12-5.75,6.48-.87,1.19-3.75.67-4,3.24-2,.29-3.14,1.84-4.1,3.23-1.08,1.58-3.62,1.51-3.91,3.78-3.56,1.16-5.95,4.12-9.06,5.91-1.45.82-2.15,2.56-4.35,2.71-1.36.1-3,2-4,3.14-1.22,1.45-3,2.05-4.08,3.62-.79,1.17-1.06,1-4.27.87-1,0-1.12.42-.39,1.06s.11.74-.28.92c-2.41,1.11-4.5,2.52-5.31,5.25-.09.28-.32.7-.54.73-3.46.56-3.53,4.36-5.88,6.08s-2.8,4.83-4.52,7.09c-1,1.33-2.87,2.43-2.07,4.64.09.25,0,.83-.19.88-1.58.57-3.18,1.16-2.76,3.28.32,1.59-1.24,2.52-1.13,4.1.07.93-.78,2-1.36,2.89-.88,1.39-1.43,1.33-2.53-.23a6.36,6.36,0,0,0-2.57-1.93c-1.36-.68-2.69-1.94-4-2.52s-2.68-.82-3.68-2c-.84-1-2.19-1.62-1.79-3.27.15-.61-.33-1.12-.74-1-2.25.78-2.05-1.49-3-2.3-2.25-1.91-3.52-4.61-5.57-6.74-1.76-1.84-2.42-4.6-3.35-7.06-.26-.71.06-.83.32-1.08.82-.79,1.83-1.43.23-2.5S289.41,376,291,374c.79-1-1.21-2-.53-2.85.9-1.11.61-2.23.53-3.29-.24-3-.08-4.26,1.68-7,.51-.77-.07-.9-.38-.88-2.76.21.12-1.28-.61-2-1.58-1.66.15-4.47-1.65-6.27,1.73-1.8.59-4.08,1-6.08.4-1.79,1.69-3.59-.78-4.87.83-1.25.3-2.25-.08-3.61-.55-2-.49-4.09-2.16-5.63.58-1.31-2.44-2.35-.27-3.77-.43-1.45-1.78-2.13-2.7-3.17-.79-.89-1.84-1.65-.35-2.78.35-.26.2-.37-.08-.73-.46-.6-.62-1.45-1.13-2-.29-.31-.89,2-1.45.09-.23-.77.17-1.74-.1-2.47s-1.16-1.16-1.56-1.86c-.52-.91-.72-1.88-2.07-2.13-.57-.1-1.09-1-1.38-1.85-.79-2.45-1.38-5.32-5.07-4.86-1.41.17-.6-1.65-2-2.17a15.76,15.76,0,0,1-6.79-4.18c-1.2-1.4-3.1-.66-4.65-.46-.62.09-.62,1.06-.08,1.63a17.39,17.39,0,0,1,3.81,5.42,74.13,74.13,0,0,1,3,8.26c.75,2.62,2.41,4.89,3.07,7.76.54,2.36,2,4.57,1.76,7.22,1.39,1,2.15,2.12,1,3.76,1.34,1.12.4,3.13,1.13,4,1.15,1.34.31,3.21,1.79,4.38.48.39.08,1.9.08,2.9,0,1.33-.1,2.68,0,4s-.32,2.48.53,3.8c.34.54-.49,2.16-.64,3.36-.21,1.76,2,3.31.31,5.08,1.6,1.53.49,3.46.74,5.19.37,2.59-1.64,4.92-1,7.59,0,.08-.23.22-.33.35-.35.44-2.58-.39-.93,1.45.37.41-1.14,1.41.14,2.13a1.43,1.43,0,0,1-.13,1.26c-2.3,1.46-1.89,3.75-1.65,5.81.14,1.31-1.09,2.42-.57,3.37a6.61,6.61,0,0,1,.4,4.3c-.2,1.5,1.46,2.12,1.13,3.6-.45,2.06,1.89,3.46,1.82,5.16-.1,2.4,1.18,3.59,2.56,5,1.08,1.13.54,3,2.08,4.17a6.67,6.67,0,0,1,2.68,3.35c.44,1.33,2.67,2,3.49,3,1,1.22,2,2.46,3,3.67,1.85,2.18,4.05,4.08,5.26,6.74.2.44.32,1.16.72,1,2.43-.75,2.66,1.57,3.27,2.66,1.23,2.18,3.37,3.21,4.92,4.9.56.61,2.41-.09,1.7,1.31-.86,1.72.84,1.72,1.31,2.48a27.62,27.62,0,0,0,2,2.18c.23.3.31,1.09-.23,1.3-2.81,1.09-2.81,3.47-2.65,5.82.1,1.5-.18,2.46-1.81,2.71-.24,0-.05.37.24.69a12.59,12.59,0,0,1,1.52,4.44c-.54,6.51,1.92,12.54,3.19,18.72.63,3.08,2.9,5.86,2.82,9.3,2,1,1.6,3.38,2.8,4.84a10.6,10.6,0,0,1,2.17,6.09,14.11,14.11,0,0,0,3.79,8.85c.77.87,1.68,1.62,2.45,2.49a3.42,3.42,0,0,1,.13,4.38,39.35,39.35,0,0,0-5.35,7.3c-.15.25-.53.61-.69.56-2.44-.82-2.25,1.74-3.33,2.62-1.66,1.35-2.74,3.24-4.51,4.58s-2.38,3.82-4.29,5.18a2.43,2.43,0,0,0-1.2,2.51c.09.53.18,1,.69,1.12s1.2.07,1.26-.44c.31-2.39,2.67-2.85,4.05-3.38,4.59-1.79,8.78-4.56,13.85-5.29,2.34-.34,4.48-2.06,7-2.27.37,0,.73-.88,1.22-.57,1.52.94,3.78.69,4.61,2.78,4.2.11,4.57,0,5.43.89,1.38,1.45,3.26,1.89,4.91,2.72a6.22,6.22,0,0,0,4.48.84c1.38-.31,2.9,2.61,5.18.94.47-.34-.26,3.2,1.72.89.73.66,1.82.62,2.49,1,1.69,1,3.4.79,5.15.93,1.28.1,2.85-.7,3.78.41s1.81-1.32,2.67.35c.26.5,2.17.08,3.3.24s1.3-.83,2.07-1.09c.94-.3,1.2,1.85,2.37.41.64-.78,1,1,1.92.68,1.35-.4,2.88.54,4.19-.8,1-1,1.62.54,2.46.79,1.18.36,2.52-1.15,2.86-.65.95,1.35,1.58-.89,2.24,0,1,1.48,2.26-.51,2.69-.14,1.2,1,1.88.83,2.89-.17a.91.91,0,0,1,1.48.62c.14,2.18,1.62,1.7,3,1.8s2.44,1.44,3.48,2.43c.72.69.8,1.39,0,2.06-.53.44-.32,1,.12,1,2.68-.25,3,1.72,3.35,3.53.16.92.16,1.67,1.33,1.5,2-.28,2.76.38,3,2.54.07.75,0,1.41,0,2.14s1.58-.13,1.77,1.15c.37,2.58,2.35,3.79,4.28,5.23.75.55,4.64.39,1.89,3.42-.44.49,1.83.27,1.67,1-.48,2,2.41,1,2.12,2.58-.26,1.43.45,1.88,1.7,2.29.64.2-.35.6-.47,1,1.41-.27-.55,4.05,2.47,1.77.74-.55,1.72.49,1.91,1.14a7,7,0,0,0,2.56,3.42c1.46,1.21,1.92,1.94.26,3.66s-2.89,2.55-3.82.68a8.67,8.67,0,0,0-3.9-3.84c-.89-.5-2.12-1.38-.86-2.77-1.27-.57-2.68-.78-2.93-2.73-.15-1.12-1.35-2.08-1.87-3.2-.24-.54,0-1.29-.9-1.43-.69-.1-1.75.53-2-.6-.08-.43,1.62-1.16-.22-1.36-1.35-.15-.9-1.13-.94-1.85,0-.54-.17-1.15-.64-1.13-2.34.11-2.58-2-3-3.28-.71-2.27-3.94-2.16-4-4.76-1.6.26-1.38-.83-1.47-1.84-.17-2-.16-4.25-3.2-4.19-.92,0-.76-.83-.79-1.48a3.57,3.57,0,0,0-3-3.38,22.33,22.33,0,0,1-4.27-1.83c-2.28-1-4.57-2.36-7.14-.46a3.93,3.93,0,0,1-2.41.16c-2-.23-4.27-1.86-5.79,1-.07.14-.69.14-1,0-3.55-1.76-7.38-.57-11-1.11-.46-.07-1.11-1.37-1.29-.31-.29,1.69-.46,1-1.59.67s-1.65-1.5-3-1.29a7.8,7.8,0,0,1-6.77-1.7,1.32,1.32,0,0,0-.89-.23c-4,.46-7.41-1.33-10.89-2.72-1-.4-1,1.37-1.82.35a7.53,7.53,0,0,0-1.41-1.41c-3.26-2.49-7.35-3.18-10.93-5-.31-.16-.45-.2-.72.18-1.42,2-4.3,1.34-5.74,2.92-1.06,1.16-2-.88-2.11,0-.21,1.72-1.16,1.65-2.34,1.61-1,0-2,0-3,0a3.78,3.78,0,0,0-1.85.38c-1.12.61-.53,2.36-1.83,2.57-1,.16-2.1-.12-2.59,1-.78,1.75-2.79.47-3.83,1.73a8.12,8.12,0,0,1-3.4,2.59c-2.86,1.08-2.95,1.21-4.38-1.44-.53-1-1.29-1.86-1-3.09l1.38-4.6c2-2.32,3.83-4.78,6-6.9,1.69-1.66,2.33-4,4.61-5.4,1.69-1,2.86-3.29,4.5-4.75a15.33,15.33,0,0,0,2.13-3.13c.62-.89.07-1.34-.19-2.11-.65-1.93-2.79-3.05-2.61-5.45.13-1.73-2.92-.54-2.87-2.72,0-1.39.69-3-.9-4.11,1.56-2.26-.71-3.82-1.1-5.72a32.62,32.62,0,0,0-2-6.16c-.36-.86-1.22-1.46,0-2.19a10.24,10.24,0,0,0-2.07-1c-2-.5,1.2-2.42-.82-2.86,1.84-2,.05-3.4-.87-4.8-1.17-1.78-.77-1.8-1.42-5.31-.4-2.1-.23-4.46-1.29-6.41-.87-1.59-.45-3.14-.35-4.73,2.51-.79-1.39-3,.83-3.83-1.6-1.39-1-2.63-.08-4.22.66-1.12,1.78-2.58.15-4.18-.8-.79.82-1.88.62-2.89-.52-2.64-3.55-3.61-4.21-6.19-2.8,2.14-2.55-2.61-4.88-2.16-.93.17,0-.82.25-1.2,1-1.27.83-2.42-.58-2.59s-2.61,0-2.32-2.11c.21-1.53-2-.65-2.44-1.87-.11-.29-1.6,0-1.44-.78.53-2.4-1.05-3.27-2.59-4.41a6.94,6.94,0,0,1-2.53-4.43c0-.2-.51-.47-.77-.46a2.72,2.72,0,0,1-3.24-2.21c-.32-1.12-2.79-1.09-1.93-3.11-1.74-1.68-1.23-5-4.33-5.76-1.23-.31-.89-1.83-.49-2.49s.74-1.06,0-1.85-2.93-2-2-3c1.27-1.4-.24-1.9-.17-2.81.1-1.23-.12-2.5.86-3.51-1.2-1.06-.83-2.08-.36-3.45.39-1.12-1.08-2.66-.4-3.83.87-1.51.32-3.59,1.13-4.48,1.31-1.42-.79-2.05-.16-2.79a4.31,4.31,0,0,0,.93-3.61c-.12-.91,1.87-1.78,0-2.68,1.41-.89.94-2.32,1-3.59s0-2.33,0-3.5v-4a29,29,0,0,1,0-3.49,3.65,3.65,0,0,0-.9-2.54c1.05-.62.76-1.67.89-2.63.44-3.29-1-6.3-1.44-9.47-.12-1-.69-2.16-.52-3.2.28-1.74-1.62-3.42-.9-4.49,1.2-1.78-.41-2.49-.75-3.54-.45-1.43-.36-3.23-2-4.18-.65-.38-.62-1.11-.08-1.67,1.1-1.14,1.32-1.95-.65-2.21-.51-.07-.95-.69-.64-1.08,1.13-1.38.47-1.92-.88-2.25.56-2.87-1.35-4.49-3.11-6.19,2.11-1.87-1.44-2-1-3.25s-1.74-2.46-.05-3.7c-3.32-2-4-6.38-7.34-8.36-.8-.48-2.45.39-2.44-.7,0-.87,1.57-1.19,2.71-1.58,2.36-.8,4.49-1.57,6.71.13,1.83-.91,3.17.1,4.86.73s3.58.91,5.36,1.56c1.95.72,2.89,2.65,5,3.38,1.71.59,3.38,2.53,5.07,3.49,2.25,1.29,2.14,4.38,4.72,5,1.48,4.34,5.51,7.23,6.7,11.72.34,1.27.21,2.59,1.49,3.61.71.56-.25,1.43-.85,2,.67.36,1.92.76,1.9,1.07-.3,3.77,3.28,6.76,2.11,10.68-.26.86.41,1.45.79,2.17.73,1.39.78,4.12-.24,5.37s1.1,1.61.41,2.36c-1.5,1.63.95,3.27,0,4.66-1.17,1.7-.33,3.12,0,4.72a17.71,17.71,0,0,1,0,4c0,1.22-1,2.27-.09,3.73.62,1-.43,2.38-.73,3.57s1.37,2.58.78,4a4.94,4.94,0,0,0-.11,3.22c.21,1.08,1.38,2.18.45,3.68-.27.43,1.07,2.24,2,3,1.19.91.24,2.22,1,3.13a7.75,7.75,0,0,0,2.39,1.48c.49.29-1.18,1.3.14,2.08a23.18,23.18,0,0,1,2.16,2.06c.47.37,1.18.41,1.68.75,1.4.94,1.91,2.08.49,3.46,1.06,1.11,3.19-.69,3.76,1.17.34,1.11.81,1.2,1.68,1.18,2-.06.83.57.51,1.51-.47,1.38,1.28,2.92,2.73,2.42s3.27-.85,4-2.34c1.66-3.48,1.89-7.67,5.18-10.35-.66-2.24.71-3.88,2.06-5.1,1.86-1.67,2.48-4.55,5.4-5.22,1.3-.29,1.68-1.88,2.09-3.05s2.3-.24,2.51-1.89a2.3,2.3,0,0,1,2.84-2c.28,0,.77-.09.85-.28.66-1.49,2.76-1.25,3.32-3,.48-1.5,2.5-.36,3.74-1.7a36.28,36.28,0,0,1,5.69-5.11c2.06-1.46,3.95-3.2,6.32-4.11s2.56-3.91,5.16-4.22c-.58-2.86,2.32.64,2.62-1.46a4.29,4.29,0,0,1,2.72-2.73c1.8-.46,1.89-2.54,3.7-3,1.27-.32,1.54-2.41,3-3.13.17-.08.22-1.24.55-1.13,2.44.77,2.88-1.82,4.35-2.63a6.61,6.61,0,0,0,3.33-4c.32-1.18,1.1,1.37,1.64.18a6.4,6.4,0,0,1,1.09-2.06c.7-.73,1.52-.4,2.29-.54.29-.05.71-.28.77-.5.53-2.2,3.36-2.3,3.94-4.28a3.24,3.24,0,0,1,1.35-1.91,26.27,26.27,0,0,1,3.39-1.47c.13-.06.32-.24.32-.35-.17-3.58,3.29-5.23,4.41-8.19a15.32,15.32,0,0,0,.6-3.74c.18-1.45-.61-3.15.37-4.33,3.2-3.83,2.69-8.6,3.69-13,.5-2.25,2.48-4.1,1.94-6.69,2-3,1.39-6.59.76-9.53s1.4-4.78,1.35-7.31c0-1.49,1.92-.23,2.88-1s2.59.92,3.77-.38c.83,1.14,2.59,1.69,2.24,3.57-.2,1.14,2.2,2,.34,3.31-.42.3-.45.47,0,.72,1.95,1.06,1.26,2.64.38,3.77-.73.94-.44,1.26.21,1.83a2.39,2.39,0,0,1,1.09,2.06c-.05,1.14,0,2.24-1,3.05,1.23.52.6,2.22,1.77,2.77-.14.22-.22.56-.42.64-.53.22-2.13-.23-.78,1.1,1.66,1.63,2,3.24.63,5.15a2.05,2.05,0,0,0-.12,2.29,2.52,2.52,0,0,1,.64,3.09,2.47,2.47,0,0,1-2.35,1.5c-.49,0-.6.85-.41,1.25.54,1.14.86,0,1.31-.16.16-.05.61.2.63.35,0,.46.14,1-.35,1.35-1.07.86-.66,1.61.16,2.42.39.39,1.32.68,1,1.37s-1.21.2-1.84.31-1.83-.44-1.87.89c0,.84-.56,2.11,1.15,2.14.3,0,1.22.13.47.79-2,1.8-.5,3.94-.66,5.91-.1,1.25.55,2.69-.86,3.64-.33.23-.61.91-1.05.19-.27-.45.19-1.54-.7-1.35s-.44,1.2-.33,1.77c.14.73,1.09,1.77.88,2-2,2.47.33,6-2,8.14-1,.94,1,3.15-1.57,3-.47,1.49-.49,3.21-2.09,4.18-.06,0,.65,1,.5,1.33-.36.69-1.19.29-1.81.32a.92.92,0,0,0-.91,1.35c.45,1.2.83.07,1.28-.11.16-.06.64.18.65.3,0,.46.23,1-.34,1.34-.84.45-2-.33-2.71.71-.24.37-.77.74-.74,1.06.1.87,1.81-.26,1.55,1.05-.07.33-1.44.37-1.55.75a6.88,6.88,0,0,1-1.1,2.07c-.44.6.32,1.66-.41,2.3-.55.49-.48,1.19-.76,1.68-.4.68-.91,2-1,2-3.85.66-3.42,5.48-6.58,6.71-.28,3.31-2.58,4.92-5.22,6.29-.13.07,0,.92.2,1.29s1.11.68,0,1.29-3.26.26-3.44,2.55c-.05.6-1.05.62-1.63.08s-.87-1.11-1.21.13c-.39,1.46-2.14,1.79-2.7,3.3-.48,1.27-2.35,1.78-2.41,3.5a.49.49,0,0,1-.34.34c-3,0-4.91,1.54-6.24,4.05-2.89.45-2.46,4.09-4.83,5-.21,1.95-1.53,2.15-3.1,2-1.09-.13-1.06,1.08-1.44,1.31-1.58,1-.31,2.89-1.59,4-.85.71-2.72.49-2.46,2.35a3.94,3.94,0,0,0-3.17,3.12c-.07.4-.62.78-1,1.05-2.68,1.82-4.95,5.57-5.66,9.66-.36,2.07-2.28,3.28-2.57,5.47a7.27,7.27,0,0,1-2.24,4.63,13.79,13.79,0,0,0-1.87,2.65c-.54.87,1.52,1.64.51,2.33-1.48,1-.47,2.7-1.6,3.94a5.7,5.7,0,0,0-1.28,4.93c.45,2.11-2.14,4.23-.84,6s-1.32,3,0,4.2c1.49,1.39.64,3.1.86,4.66a5,5,0,0,1,0,1.49c-.53,3.26.9,5.83,2.6,8.44,1.26,1.94,3.58,3.34,3.41,6.08,2.3,1.13,2.23,3.84,3.5,5.39a36.28,36.28,0,0,1,3.65,5c.63,1.11.93-1.26,1.77-.24a39.2,39.2,0,0,1,2.76,2.88c.76,1.16.82,2.88,2.82,2.74l4.75,1,6.43.18c1.24,2.44,3.65-2.05,4.83.81.11-.11.33-.23.34-.35,0-2.61,2.61-2,3.14-1.52,1.73,1.61,3.65-.19,5.43.76a3.11,3.11,0,0,0,3.67-.49c.55-.63,1.25-.21,1.84-.41,1.31-.43,2,.78,3.09,1,.83.21,1-1.35,2.37-.4a4.51,4.51,0,0,0,5.77-.19c.72-.63,1.9,1.44,3.15-.11.68-.82,2.07-.56,3,.43a1.41,1.41,0,0,0,1.34.2c1.07-.93,2.34-.11,3.46-.56,1.36-.55,2.74-.84,4.07.27,1,.8,2.35.62,3.53,1.12,1.53.66,3.52.73,4.56,2.13s3.1,1.58,3.7,3.35c.4,1.16,1.35.66,2.08.71,1,.08,1-.67.92-1.34-.12-2,2-3.19,2-5.16,2.54-1.46,1.88-3.93,2-6.18.08-1.62-1.65-3.5.91-4.85.93-.5-1.26-1.47-.5-2.3a2.93,2.93,0,0,0,.56-2.28c0-3.17-.19-6.35.09-9.49.15-1.76-2.14-3.32-.29-5.09-.89-.42-.48-1.68-1.09-2-.93-.5-2.41-.41-.73-1.89.21-.19.15-.94-.36-1.3a3.76,3.76,0,0,1-1.64-3.83,1.52,1.52,0,0,0-.5-1.25c-1.91-.91-2.93-2.19-2.52-4.43.08-.41-.63-.53-1.14-.61-1.29-.22-.54-.71-.12-1.18s.37-1.7-.08-1.61c-1.93.35-1.26-1.83-2.52-2.29-1.46-.52-1.38-.84-2-3.91a1.86,1.86,0,0,0-.76-1.18c-1.22-.91-1.37-2.47-2.27-3.57-1-1.25-.46-3.17-2.1-4.31-1.38-.95-.93-3.8-2-4.25-2-.83.51-3.9-2.3-3.68-.21-1.29-.41-2.57-.61-3.86-.28-1.72-2.88-2.44-2-4.66-2.08-.9.85-2.21-.36-3.58-.88-1-2.52-2.42-2.43-3.35.37-3.76-3.07-7.45-.19-11.18-.38-3.75,1.65-7.06,2-10.67a7.61,7.61,0,0,1,2.34-4.55c1-1.1,3-1.2,3.14-3.1,2,.09,3.55-1,5.2-2a1.9,1.9,0,0,1,2.28.36c.65.74,1.36.86,2.05.07.41-.47,1-.41,1,.06a8.7,8.7,0,0,0,1,4.62c.19.42-.3.86-.91.82s-1.14.16-.84.65c1.68,2.79.83,5.83.67,8.67-.19,3.33,1.12,6.34,1.25,9.59.06,1.7,1.74,3.16,2.45,4.94s1.31,3.78,2.17,5.6c.59,1.26.79,2.63,1.86,3.75.7.74,1.52,2.1,1.28,2.87-.81,2.66,1.43,4.05,2.45,5.52a51.71,51.71,0,0,0,10.53,11.61c1.64,1.28,2.56,3,4.09,4.31s2.86,2.79,4.25,4.22a3.45,3.45,0,0,1,.77,1.17c.35,1-.67,2.22.66,3,1.3-1.49.93,0,1.49.61,1.41,1.4,2.29,2.79,1.85,4.77-.25,1.14.54,1.84,1,2.57,1.89,2.7,2.92,5.77,4.19,8.77.54,1.28,1.36,2.21.23,3.44-.3.33-.47.68-.21.69,3.19.21.92,3.24,2.36,4.51s-.6,3.6,1.12,5c.31.26,0,.38-.1.73-.94,2.14-1.23,4.31.21,6.4a.79.79,0,0,1,.16.43c0,2.4.28,4.86-1,7.08,1.15,2,1.6,4.14.34,6.31,1.42,3.13-2.06,6.07-.34,9.21-1.5,2.57-.17,6.08-2.9,8.38-.45.38-2.33,2.21-.28,3.65.53.37,0,1.08-.35,1.68-2.9,5.11-4.09,11-7.11,16a2.15,2.15,0,0,0,0,2.68c.91,1,.78,1.63-.09,2.48a1.71,1.71,0,0,0-.15,1.27c2.61.85,2.56,3.64,3.73,5.44s2.29,4.21,3.76,5.84c1.18,1.3,2.51,2.61,3.63,4,1.32,1.63,3.91.73,4.89,2.78.27.58.87.41,1.33.37,1.7-.16,3,0,2.58,2.29-.06.31.53.75.85,1.11.59.68,1,.7,1.1-.33.05-.74.17-1.33,1-.54.36.34.89.69.95,1.1.33,2.13,1.73,2.52,3.53,2.38,1.33-.11,2.44-.15,2.8,1.68a1.8,1.8,0,0,0,2.35,1.29c1.91-.87,3.21-.06,4.87.85,1.38.76,3.34,2.44,5.08.18,1.7.73,3.4,1.44,5.09,2.2.3.14-1.19,2.86-1.6,2.77-1.88-.44-3.48,1.6-5.05.91s-3.3-.36-4.54-1.06c-2.35-1.32-5.1-1.34-7.4-2.74-.56-.34-1.63-1.82-2.69-.12-.27.43-1.14-.18-1.64-.68-1.59-1.57-2.86-3.65-5.52-3.54a9.28,9.28,0,0,0-5.22-3.09,17.23,17.23,0,0,1-7.46-4.79c-5.37-5.59-9.94-11.86-11-19.87-.24-1.86-.13-4.21.83-5.67,1.41-2.12,1.11-5,3.37-6.67.74-.54,3-8.64,3.23-10.13.34-2.42.84-3.86,1.89-4.88.76-.73,1.46-1.32.13-2.17a1,1,0,0,1,0-.93c3.65-2.05.75-6.25,2.93-8.84.69-.83-.78-1.64-.92-2.54a16.69,16.69,0,0,1,0-3c0-1-.2-2.46.3-2.8,1.37-.91-.74-1.57.05-2.21.58-.47,1-1.29.53-1.66-1.33-1.07-.76-2.42-.89-3.67-.19-1.89.57-3.9-.95-5.63-.33-.38-.11-1.3,0-2,.34-3.22,0-4-.9-6.79-.45-1.4-2.56-3-.36-4.76.44-.35-.37-.68-.6-1s-.49-.46-.7-.71c-1.08-1.32.57-4.14-2.42-4.42,2.29-2.62-.63-3.79-1.53-5.53-.15-.28-.49-.54-.48-.79.2-2.41-.17-4.41-2.29-6.11-1.5-1.21-1.62-3.94-4.24-4.11-.58-3.06-4.26-3.56-5.22-6.25s-3.88-4-4.19-6.74c-.28-2.45-2,1.26-2.07-.67-.07-2.3-.86-.67-1.57-.37s-1.57.11-1.39-.79c.41-2.11-.51-3.26-2.34-4-.29-.11-.67-.44-.68-.69-.13-3.1-1.72-5.29-4-7.32-1.26-1.15-1.19-2.55-1-5.69,0-.74-.72-1.53-.66-1.67.73-1.66-3.56.52-1.65-2.25.5-.71-2-1.64-1.83-3.52a7.15,7.15,0,0,0-1-3.5c-1.69-3.14.2-6.81-1.86-9.75,1.71-3.69.39-7.74,1.34-11.46.24-.94.26-1.24-.31-1.81s-1.21-.83-1.68-.31c-1,1.13-2.91.93-3.47,3s-3.41,2.95-3.3,5.65c0,.4-1,1.28-.49,1.66,2.32,1.92-.48,3-.64,4.52-.07.74-3.09,1.56.18,2.19.86.17-.19.65-.34,1-.92,2.05.59,4.53-1.17,6.42,3.41.14,1,3.46,2.67,4.87s3.54,3.55,1.21,6.1a25.52,25.52,0,0,0,2.05,4.64c1.9,2.73,4,5.28,4,8.88a1.06,1.06,0,0,0,.42.8c2.82,1.88,3.05,5.64,5.64,7.69a1.94,1.94,0,0,1,.95,1.61,24,24,0,0,0,2.91,6.18c.86.78,1.18,1.3.11,2.22-.33.28-.16,1.27.79,1.4,1.58.2,1.89,1.25,2.25,2.69a15.83,15.83,0,0,0,2.7,5.32,8.84,8.84,0,0,1,1.53,3.89c.57,3.34,2.76,6.55,1.14,10.1-.55,1.19.87,1.71.61,2.91-.68,3.14,1,6.55-1.06,9.57,2.56,1.37-.59,3.64.81,5.19-1.95,1.41-.6,3.62-1.26,5.46-2.06,5.73-2.88,9.35-5.54,11.41a10.21,10.21,0,0,1-4.51,2.43,8.56,8.56,0,0,1-1.91,0c-.14-2.37-3-2.13-3.78-4.39-1.15-3.55-1.71-3.32-4.94-4.33-.81-.26-.76.28-1.08.44-.84.43-1.57.59-1.78-.6-.08-.47-.44-1.16-.58-1-1.25,1.72-2.19.24-3.29-.13s-1.44,1.39-2.58,1c-.58-.21-.86-1.57-1.82-.3a1.87,1.87,0,0,1-2.29.19c-2-1.11-3.59-2.14-4.88.92-.52,1.25-2.07-1.84-3,.16-1.07-1.5-3.06-.33-4-1.08-1.55-1.28-2.48.43-3.78.21s-2.77-1.58-4,.49c-.56,1-1-.34-1.32-.64-1.11-.94-2-2.09-2.57.46-.27,1.13-.87-.23-1.29-.22-1.61,0-3.47-1.89-4.83.51-.9-.59-2.07.21-2.78-.27-1.14-.76-2.25-.38-3.34-.37s-4.56,0-5.35,0a23.71,23.71,0,0,1-6.13-1.32c-2.06-.7-3.27-3-5.83-2.92-.57,0-1.3-1-1.75-1.69-2.5-3.81-5.73-7.12-7.65-11.33-.63-1.4-2.62-2.16-2-4.18-1.78-.31-1.95-2.19-3.06-3.14-1.81-1.52-.11-4.2-1.94-5.7C339.43,458.66,336.85,454.82,338,451.61Z"/><path class="c" d="M827,808.05a7.19,7.19,0,0,0,.78,6.35,5.36,5.36,0,0,1,.17,3.38c-.31,1.6-2.07,3.12,0,4.69-1.77.71-.27,2.85-1.68,3.81-.6.4-.45,1.54.16,1.6,2.6.26,1.06,1.2.32,1.81-1.3,1.06-1.35,1-.77,2.28a4.49,4.49,0,0,1-.72,2.29,2.09,2.09,0,0,0-.15,1.33c.1.47,1.24.64.37,1.43s-2,1.52-1.46,2.86c.34.93-1.94,1.32-.35,2.31a33.12,33.12,0,0,0-2.3,4.8c-.31,1-1.56,1.68-2.38,2.5,1.88,1.12-.54,2.06-.12,3.12-2,.48.84,1.87-.48,2.48.24,2.41-1.94,3.79-2.59,5.94a53.39,53.39,0,0,1-2.85,7.29c-1.71,3.61-4.74,6.16-7.78,8.58-.32.26-1.44,1.84-2.72.26-.56-.7-2.19-.33-3,.83-.7-.63-1.15-1.32-2.46-.69-1.12.54-2.78.94-3.83-.59-.49-.71-.81-.6-1.46-.05a2,2,0,0,1-2.65-.09c-.54-.48-1.18-.88-1.7-.43-1.84,1.62-3.46.24-5.26.08-1.43-.12-2.48-2.3-4.4-.7-.74.62-2.69-1.59-4,.24-.19.27-.37,0-.72-.2-3.16-1.63-3.17-1.6-6.52-1.57-.47,0-1,.18-1.36-.34-.91-1.3-2.44-1.31-3.7-1.9-2.13-1-4.78-.89-6.45-2.43-1.87-1.72-4.28-1.86-6.34-2.94-3.09-1.63-6.7-2.3-10-3.48-2.45-.86-5.54-.93-6.73-4.34a3.69,3.69,0,0,0-4.32-2.56,1.9,1.9,0,0,1-2.06-1,15.84,15.84,0,0,0-6.06-4.75c-2.41-1.16-3.39-3.83-6.11-4.56-1.25-.33-2-2.26-3.25-3a10.54,10.54,0,0,1-2.78-2.79c-1.89-2.22-4.68-3.42-6.63-5.68a126.53,126.53,0,0,1-11.74-15,18,18,0,0,0-4.24-4.2c-1.37-1.06-2.61-2.08-2.86-4.25a6.61,6.61,0,0,0-2.82-4.28c.8-2.3-1.51-2.38-2.48-3.37-1.47-1.49-1.53-2-3.77-7.62-.69-1.71-1.09-4.27-3.67-4.94-.45-.12-.88-.77-1.13-1.48a20,20,0,0,0-6.31-8.88,6.55,6.55,0,0,1-2.11-3.12l-2.42-2.42c-1.17-.75-3.68-1-1.12-3.12a9.39,9.39,0,0,1-.7-.71,1.12,1.12,0,0,1,.13-1.7c.72.94,1.43.88,2.12,0,.55,1.77,3.13,1.26,3.62,3.44A3.62,3.62,0,0,0,664,775c1,.11,1.07.63,1,1.31-.12,1.2.19,1.86,1.56,1.83.38,0,3,4.5,3.48,4.9,2.06,1.82,1.9,5.27,4.86,6.45a2.08,2.08,0,0,1,1.15,2,10.46,10.46,0,0,0,4.23,8.17c1.71,1.27,1.33,3.22,2.42,4.55s2.61,2,2.41,4.06c0,.47.53,2.47,2.2,1,.53-.45.69.25.7.71,0,.81-.2,1.69.69,2.22,4.09,2.43,5.24,7.2,8.26,10.5,1.95,2.13,2.72,5.3,5.74,6.54a1.86,1.86,0,0,1,1,1c1.37,5.18,7,5.93,9.95,9.62a11.14,11.14,0,0,0,4,3.27c1.78.78,2.82,2.48,4.41,3.56a49.54,49.54,0,0,1,4.69,3.34,26.19,26.19,0,0,0,6.86,3.85c.76.33,1.77.55,1.94,1.21.89,3.43,3.88,3.27,6.37,3.84a48.38,48.38,0,0,1,11.1,4.57c1.42,1,3.29,1.1,4.48,2.47,2.06-1.92,3,1.08,4.76,1s3.19,1.52,5.09,1c.41-.12,1.24,0,1.34.23,1.17,2.71,4.16,1.14,6,2.6,1,.81,3.46-.33,4.8.34,1.51.75,2.52,1.32,3.87,0a2.56,2.56,0,0,1,1,.69c.7.84,1.14,1.16,2.21.19.71-.65,5.41.4,6.06,1.13.84.95,1.16.31,1.83-.14,1.25-.85,1.87,1.76,3,.84a3.38,3.38,0,0,1,2.64-.92c.33,0,.72-.11,1,0,1.12.57,3,1.72,3.35.78.62-1.71,2.55-2.42,2.64-4.45a5.67,5.67,0,0,1,1.77-3.74c.45-.43,1.28-.76,1.11-1.51-.55-2.49,1.33-4.17,1.86-6.22s2.53-3.72,2.22-6.13c0-.34.47-.86.84-1.11,2.05-1.4,2.44-3.39,2.11-5.64-.16-1.07.77-1.85.87-2.6.2-1.57,2-1.9,2.08-3.16a25.57,25.57,0,0,1,2-8.18,1.76,1.76,0,0,0-.61-2.21,1,1,0,0,1-.31-1.32c1.73-1.48.86-3.41.91-5.12.06-1.89,1.16-3.55.21-5.74-.79-1.83,0-4.29-.21-6.42-.31-2.53-1.27-5-1-7.6.1-.94-1.79-1.71-2.92-1.09-.87.48-1.53.67-2.07-.14-1-1.5-2.42-1.48-3.92-1.42l-5-1.51c-1.4.43-2.68-.31-4-.57s-2.39-1.76-3.74,0c-.24.32-1.19.07-1.32-.89-.18-1.3-.62-1.37-1,0-.11.44,0,1-.73.73-.15,0-.23-.31-.36-.33-1.26-.18-.94-3-3.25-1.78-.7.36-2.23-.59-3.06-1.54-1-1.16-1.48,1.43-2.84.32-1.11-.9-2.88-1-4.33-1.52-.43-.16-.8-.92-1.11-.86-3.89.68-7.08-1.38-10.39-2.73-.89-.36-1.37,1.44-2.22,0-.56-.94-2.25.26-3-1.08a2.3,2.3,0,0,0-2.47-1.26c-1.19.19-1.63-1-2.3-1.61s-1.24-.31-1.86-.36c-.8-.06-1.57.11-2.25-.66a22.57,22.57,0,0,0-6.14-4.42,10.81,10.81,0,0,1-3.55-3.41,12.21,12.21,0,0,0-5.11-4.45c-1.55-.69-1.22-2.42-2.55-3.25-1.17-.73-3.24-.87-3.34-2.42s-1.28-1.13-1.89-1.68a33.12,33.12,0,0,1-7.17-8.53,8.79,8.79,0,0,0-3.24-3.28c-2-1.27-4.33-2.62-3.82-5.69.08-.53-.1-1.17-.58-1.18-1.92,0-2.18-1.55-2.77-2.85a2.38,2.38,0,0,0-1-1c-.65-.32-1.81,0-1.59-1.27.27-1.57,1.57-.65,2.4-.87s1.5.38,2.09,1c1,1.08,2.44,2,3.07,3.24s2.23,1.82,2.25,2.41c.07,1.63,1.48,1,1.95,1.67,1.37,1.91,3.78,2.62,5,4.83s3.35,3.35,4.63,5.57c1.87,3.28,5.61,4.88,8.4,7.39,1.37,1.23,2.57,2.75,3.89,3.69,1.6,1.15,2.88,2.57,4.35,3.8a17.77,17.77,0,0,1,3.5,3.54c1.07,1.59,3,.45,4.33,2,1.06,1.2,2.12,3.52,4.61,2.92a7,7,0,0,0,5.67,2c1,0,.75.78.89,1.41s.91.83,1.15.54c1.73-2.09,3.08.14,4.59.34.26,0,.51.67.7.64,3.73-.57,6.55,2.57,9.84,2.69,4.4.15,8.22,2.59,12.58,2.36.5,0,1.33-.19,1.45,0,1.8,3.19,5.08,1.46,7.57,2.31a26,26,0,0,0,7.82,1.72c3.34.09,5.37,3,8.17,4.35C824.47,803.26,828,805,827,808.05Z"/><path class="c" d="M743.22,798a8,8,0,0,1,3.2.74c2.32,1.14,4.57,2.9,7.55,2.32,1-.19,5.47,3,7,4.42a2.29,2.29,0,0,0,.78.51c3.77,1.15,4.89,5.58,8.55,6.87.27.09.67.5.64.7-.2,1.37,1.32,2,1.15,3.6-.24,2.1,1.53-1.37,2.22.51.39,1.05.67,2.53,2,3.18a1.38,1.38,0,0,1,.66,1.7c-.56,2,2,3,1.84,4.15-.32,2.51,2,2.13,2.74,3.36.45.75,1.32.78,2,1.11,1.15.55-1.27.94-.22,1.73a5.14,5.14,0,0,0,2,1.19c1.19.29.22,1.77.76,2.55.67,1,2-.22,2.66.73.07.09-.36.45-.36.69,0,1.28,0,1.36,1.57,1.39,1.2,0,2.46.41,2.9,1.29,1.89,3.76,5.22,5.31,9,6.21.74.18,1,.72,1.58,1s2.11-.29.84,1c-.36.35.62,3.41-1.67,1.27-.53-.5-1.15-.19-1.7.29-1.25,1.09-2.39.69-3.4-.43-1.15,1.54-1.84.29-2.45-.49-1-1.26-2.58-1.19-3.71-1.86-1.8-1.07-3.14-2.93-4.66-4.47-.91-.93-1.12-2.32-2.72-2.89-1.2-.42-2.07-1.83-2.57-3.32s-1.08-2.76-3-3.29c-1.07-.3-2.14-1.68-2.66-3.27a14.71,14.71,0,0,0-1.83-3.71c-.7-1-2.72-1.15-2-3.11-3.3-1.3-3.86-4.53-5.12-7.28-3.21-.56-3.68-4.42-6.63-5.46-1.4-.5-2.44-2-3.73-2.86-.8-.55-1-2.22-2.44-1.59-1.6.72-1.59-1.05-2.48-1.37a1.4,1.4,0,0,0-1.71.5c-.61.75-.8,0-.86-.34s-.44-1.26-.5-1.19c-2,2.2-1.59-2.9-3.82-1.2-1,.74-3,.21-4.54-.77-1.4-.89-3,.65-4.45,1.1-1.77.57-3.2,1.41-4.85.12-.37-.29-.37-.24-.75,0a15.37,15.37,0,0,1-6.78,2.69c-1,.09-2.31-.67-2.45,1.42-.07,1-.88,0-1.26-.33-.74-.58-1-1.37-.17-2,.44-.31,1.3,0,1.54-.8l3.31-2.11c2.53-.73,5.12-1.3,7.57-2.24s5.35-.34,7.66-1.91C740.78,799.64,742,797.36,743.22,798Z"/><path class="c" d="M373.55,513.06c-1.57-3-3.61.67-5.44-.41s-3.49-.76-5.45,0c-1.06.4-2.74-1.57-4.06.27a2.66,2.66,0,0,1-.7-.52,2.75,2.75,0,0,0-3.4-1.32c-1.83.78-3.37-2.54-5.13-.19-1.61-.94-3.17-2-4.84-2.8s-4.24-1-4.91-2.24c-1.21-2.26-3.5-2.32-5.09-3.62a5.43,5.43,0,0,1-1.72-1.75c-1.28-2.3-4.11-3.18-5.6-5.44-.52-.78-5-7.26-5.23-7.89-.62-1.5,1.17-2.22,1.08-3.59,0-.49.66-.54.93,0a14.84,14.84,0,0,0,6.64,6.72c.45.23-.59,1.47.42,2.48s2.48.91,3.19,2,2,1,2.78,1.77c.44.43,1.12.77,1,1.58-.26,1.53.41,2.1,1.91,1.89,1.24-.18,2.24,0,2.26,1.63,0,.47.38.42.69,0,1.15-1.48,1.67,1.26,2.75.45.79,3.69,3.71,2.82,6.2,2.9a6.16,6.16,0,0,1,2.3.48c2.32,1,4.73,2,7.35,1.48,1.3-.28,2.9,1,3.31.55,1.29-1.58,2.36.86,3.21,0,1.51-1.63,2.12.87,3.42.6a3.28,3.28,0,0,0,2.07-1c.59.54,1.11,1.23,2.07,1,1.94-.53,1.1,1.65,2,2.09.44.21.41.41.13.71A9.75,9.75,0,0,1,373.55,513.06Z"/><path class="c" d="M723.06,828c1.68-.38,2.8,1.17,4.57,1.11,4-.15,7.91-.37,11.73-1.86,1.44-.56,3.25-.19,4.89-.25,3.22-.12,6,1.78,9.14,2a.51.51,0,0,1,.37.27c.41,2.33,3.35,1.88,4,3.18,1,2.07,3,3,4,4.84a21.55,21.55,0,0,1,1.3,5.43c.2,1-.5,2.22,1.52,2.39,1.18.1-.24,2.5,1.08,2.88,2.94.84,2.9,5.61,6.82,5,1.3,2.3,4.5,1.6,5.93,3.78.48.73,1.11,1.26.31,2.07-.56.56-1.12,1.57-2,1.11-3.56-1.83-7.6-2.67-10.71-5.47-2.81-2.53-4.8-5.72-7.38-8.43-.36-.37-.47-.57-.08-1.08,1.37-1.78-.36-3.35-.9-4.66-.69-1.63-2.17-3-2.73-4.87-.21-.72-1.49-1.09-2.22-1.59-1.57-1.06-4-.46-5-2.62a2,2,0,0,0-1.78-.19c-1.18,1.61-2.46-.56-3.16,0-1.17,1-2.36.9-3.64.92s-3-.46-3.36.09c-1,1.37-2.29-.57-3,.68-.88-1-2.19.4-3.22-.66-.78-.79-2.07,1.63-3.09-.11-2.32,1.19-4,.09-5.49-1.58-.29-.33-.83-.9-.75-1a4.23,4.23,0,0,1,1.4-1.36C722,827.83,722.56,828,723.06,828Z"/><path class="c" d="M732.32,780a5.2,5.2,0,0,1-2.7-.74,8.23,8.23,0,0,0-7.72-.74c-1.14.47-2.26-1.31-3.78-.25C717,779,716,780,714.37,780c-1.39,0-2.62.86-4,1.2a23,23,0,0,1-10.78,0c-4-.86-7.51-2.22-10.32-5.21-1.71.15-1.32-1.12-1.25-2,.09-1.1-.11-2.12-1.1-2.52-2.43-1-3-2.9-2.91-5.21,0-.78-.49-1.14-.83-1.67-.09-.12.45-.68.74-1s.65-.72,1.05-.1c1.66,2.6,5.28,3.35,6.18,6.85.23.89,2.38,1.29,1.88,3.12,0,.11.43.5.69.53,1.47.15,3.36-.59,3.63,1.88,1.68-.34,3.17.66,4.45,1.26,4.09,1.91,7.75.5,11.37-.89,3.27-1.24,6.67-1.61,10-2.23,1.38-.25,3,.62,4.17-.82a1.33,1.33,0,0,1,1.28.05c1.47,1.79,4.22,2.16,5,4.83C734.09,779.72,734.09,780.05,732.32,780Z"/><path class="c" d="M473,585.27c.62,1.29-.87,1.69-1,2.66-.15,1.73-.84.72-1.34.21-.68-.72-1.11-1.39-2.18-.23-.7.75-2-1.47-3.05,0a3,3,0,0,0-2.05-1.08c-.49-.1-.4-.36-.05-.69,1.34-1.25,0-1.17-.66-1.1-.4,0-.74.58-1.11.9-.94-1.87-3.4-1.39-4.52-2.85s-3.13-1.75-3.47-4c-.29-1.94-2.33-2.9-3.46-4.41s-1.49-3.51-2.79-4.81a5.64,5.64,0,0,1-1.45-3.44c-.15-.79-1.56-1.5-.38-2.38.8-.59,1.39.71,2,.83,3,.56,3.91,3.33,5.35,5.2,2.08,2.7,4.54,5.13,6.32,8.17,1.13,1.94,4.26,2.2,6.66,2.68s4.68.76,6.36,2.71C472.62,584.18,473.27,584.54,473,585.27Z"/><path class="c" d="M405.84,513c1.27-.52,3.08,1.14,4,.45,1.83-1.38,2.49,1.21,4,.61,1.63-.66,3.12,1.1,4.54.85,2.08-.38,1.41,1.67,2.54,2.23a12.24,12.24,0,0,1,5.76,5.1c.51,1,1.29,2.27-1,2.91-1.32.37-1.81,1.1-1.72-.85.07-1.43-.73-1.76-1.82-.91-1.88,1.48-2,.44-2.23-1.24-.12-.93-.3-3.11-2.35-1.3-.15.13-.95-.69-1.5-.8-1.92-.41-3.09-2.69-5-2.46s-3.7,1-5.42-.45c-1.48,1.39-3.32.73-5,.87-.63.06-1.62.13-1.53-.67.12-1.11-.83-2.41.86-3.39C401.79,512.86,403.64,513.07,405.84,513Z"/><path class="c" d="M816,826.14,814.55,829c-1.35-1-2.2,1.37-3.81.45-1.19-.68-3.09.75-4.38-.58-1.56-1.59-3.46-.44-5.15-.83a3.48,3.48,0,0,1-1.26-.56c-1.24-.91-1-3-3-3.49-1.59-.41-1.82-2.38-2.85-3.52-.62-.69.15-2.5-1.81-2.64-.54,0-.49-1-.27-1.27.52-.64,1.1-1.16,1-2.11-.1-.65-.09-1.32.87-1.41a1.55,1.55,0,0,1,1.54,1c.63,1.4,1.82,2.59,1.61,4.34,0,.35.43.93.87.23.29-.44-.2-1.44.72-1.38.57,0,.17.93.4,1.27,1,1.44,2.78,2.2,3.17,4.18.15.75,1.23.45,1.78.33,1.58-.36,2.59,1.66,4.06,1,1.23-.56,2.07,1.8,3.26.25,1.16,1.09,2.61.71,4,.82C815.78,825.06,816.11,825.47,816,826.14Z"/><path class="c" d="M315,454.17c-.34-6,2.26-11.66,4-17.5,1.79-.8,1.4-4.07,4.29-3.72.82.1.53-1,.8-1.48a1,1,0,0,1,1.65-.2,10.07,10.07,0,0,1,1.09,1.4c-1.52.95-.19,3.27-2.09,4.15-1.7.79-1.69,3.07-3.18,4.17a1.83,1.83,0,0,0-.54,1.24c-.06,1.33.37,2.83-.13,3.95s-1.21,2.35-.84,3.6-1.38,2.18-.4,3.32c.61.71-.27.72-.32,1.08-.16,1.17-1.44,2-.47,3.61.68,1.15-1.23,2.15-2.19,2.89-.65.51-1.52-.77-1.59-1.23A43.22,43.22,0,0,1,315,454.17Z"/><path class="d" d="M516,445.5c.47-2-.63-3.23-2.84-3.88-2-.57-2.84-2.18-3.15-4.08-.36-2.22,0-2.3,2.39-1.7,1.93.48,3.92.42,4.82,2.79.34.88.64-.12.77-.44.57-1.43,1-2.91,1.68-4.3.17-.37.46-.59,0-.71-3.44-.85-1.13-2-.21-3.14.2-.24.52-.51.53-.77.09-2.31-.37-4.79.32-6.89s1.31-3.89-.2-5.83a1,1,0,0,1,.18-1.34c.25-.22.71-.52.68-.69-.57-2.67-1.37-5.31-.89-8.07a13.52,13.52,0,0,0-1.08-7.28,8.28,8.28,0,0,1-1-4.59c.35-3.08-.72-5.93-1.68-8.79-.1-.29-.32-.6-.27-.87.65-4-1.14-7.45-2.6-10.94-.36-.85-.76-1.59.24-1.91.66-.22,2.06-.48,2.21.39.34,2.1,2.07,3,3.33,4.1,1.06,1-.25,2,.08,2.1a2.89,2.89,0,0,1,2.06,2.14,20.2,20.2,0,0,0,1.38,2.43c.15.27.36.75.26.86-2.46,2.57.6,4.24,1.14,6.25a11.08,11.08,0,0,1,.91,3.12,14,14,0,0,1-.91,4.63c-.43,1.28,1.54,2,2,3.57,1.5,4.56.46,9.12.84,13.64-1.64,1.34-1.06,2.46.33,3.54.36.29,1,.82.64,1.18-2,1.85.24,5-2.12,6.66-.44.31-1.05.62-.31,1.43s.54,1.91-.11,3.06c-1.18,2.09.34,4.82-1.39,6.93-.3.37.26.88.82.89,1.17,0,2.34,0,3.5,0a1.7,1.7,0,0,1,1.5,2.58c-.7.9-1.94,2.44-2.43,2.27C525,443,525,446.78,522.78,446c-.42-.14-.57.63-.84.91-1.16,1.25-.5,3.11-1.67,4.35-.47.51.25.62.69.71,1.6.32,2.62-.94,3.91-1.44.57-.22.9-1,1.45-1.35.87-.53,3.65-.24,3.63.29-.07,1.25.54,2.59-.65,3.73a19.62,19.62,0,0,1-5.94,3.78c-1.3.56-3.15.41-3.4,2.5-.16,1.42-2.1-2-2,.68,0,1.09.37,2.28-.78,3.21-.29.23.39.58.88.6,1.72.08,3-.94,4.22-1.86.74-.53,1.27-1.64,2.14-.21,1.35-1.27,2.38-1.61,2.8.76.16.9,4,2.41-.5,2.32-.5,0-.69.45-.77,1a2.58,2.58,0,0,1-1.89,2,14.4,14.4,0,0,1-3.57,1.18c-.66.08-.69,2.09-2.62,1.92s-.14,2.24-1.46,3.11c-.86.56,1.09,1.28.67,2.35-.11.26.46.47.65.17,1.35-2.22,4.57-1.51,5.94-3.85.63-1.08.9-.87,3.48-1.59,1.29-.36,2.85-.81,3.62.16s-.55,2.23-1,3.38c-1.13,3-4.28,3.69-6.13,5.84-1,1.11-3.36-.48-4.34,1.48-.68,1.39-2.55.27-3,1.11-.52,1.09,1.51,1.38,1.59,2.51a2,2,0,0,1-.54,1.25c-.3.33-.48.54-.17.71a2.16,2.16,0,0,0,.9.25c1.39.08.26-2.35,2.09-2,.88.15,2,.42,2.78-.47,1.2-1.28,4.24.76,4.41-2.42,1.85-.55,3.48.31,5,1a1.71,1.71,0,0,1,.27,2.58,31.74,31.74,0,0,1-6.82,5.21c-1.66.83-3.52,1.23-4.92,2.61-.31.29-.87.32-1.26.54s-2-.59-1.24.83c.39.69,0,2.25,1.44,2.14,1.26-.1,2.65.68,3.34-1.61,1-3.45,4.63-3.59,7.52-4.3,1.2-.29,2,.81,2.2,2.09.26,1.61-.52,2.07-2,1.84-.61-.1-1.14.33-1,.73.75,2.21-1.45,2.07-2.28,3-.64.74-1.92,1-2.3,1.49-1.16,1.58-3.62,1.41-4.27,3.46,2,.43,2.27,2.17,2.84,3.73a1,1,0,0,0,1.59.39,16,16,0,0,0,2.48-2.95,49.29,49.29,0,0,1,4.57-6c1.33-1.72,2.31,1.26,3.82.29.43-.27.75,1.54.45,2.05-1.38,2.28-2.23,4.83-4.27,6.78-1.72,1.65-3.74,3-4.82,5.46-.64,1.45-1.08,2.17.25,3.21a2.37,2.37,0,0,1,.95,1.6c.18,1,.44.76,1,0,1.83-2.58,2.76-5.87,5.78-7.53-.77-1-.34-1.65.42-2.52s2-.92,2.82-1.72a1.21,1.21,0,0,1,2.05.19c.67.88,2.09,1.26,1.87,2.71,0,.25-.43.65-.62.63-1.67-.16-1.43,1-1.34,2,.15,1.52-.44,2.71-1.85,3-1.17.24-1.21.81-1.17,1.67,0,.66.07,1.35-.9,1.4-1.13.07-1.57,1-2.11,1.77-1.31,2-1.82,3.55-2,7.85,0,1.64-1,1.32-1.95,1.39s-1-.78-1.6-1-.63,1.43-1.35.5c-.33-.42.13-1.67-.18-1.86-1.3-.76-2.54-2.2-4.19-1.63s-3,2.6-3.88-.65c-.12-.47-.46-.48-.69-.11-.54.9-2.41,2-1.83,2.31,1.53.85-.72,3.34,1.89,3.49,1,0,1.76,1.13,1.79,2.55.06,2.38-.55,3.05-2.82,2-1.06-.51-1.71-.9-2.44.13-1,1.38-3.58,1.21-3.65,2.85-.07,1.86-2.47,1.11-2.37,3,.07,1.4-2,1.51-3,2-2.62,1.28-3.64.38-3.76-2.57-.1-2.17.17-3.77,2.73-4.34,1.9-.43,2.49-2.57,3.85-3.77.34-.3.39-.44.22-.72-.56-.91-4.7-1.37-4.63-.75.22,2.23-2.05,1.19-2.67,2.37-.38.73,0,2.36-2,2.25-1.33-.07.57,2.55-1.56,3-1.29.24-1.59,2.36-3.57,2.15-.84-.1-1.46,2.29-2.65,1.67-1.55-.79-.49-2.65-.72-4-.45-2.7,2.32-3.6,3.25-5.56a7.77,7.77,0,0,1,2.07-2.14c1-.87.85-1.58-.06-2.43-1.82-1.73-.95.61-1.42.9-3.3,2-5.39,5.09-7.29,8.31-.57,1-1.75.79-2.39,1.45-.31.32,1.87,1.79-.35,1.47-1.26-.18-3.14-1.79-2.67-3,.88-2.18.71-4.66,2.08-6.63,2.78.49.79-3.72,3.42-3.5.25,0,.58.36.35-.27a12.34,12.34,0,0,0-4.13-.88c-1.47.89-1.92,2.58-2.69,3.91-.47.8-.83,2.1-1.56,2.24-1.79.33-1.31.77-.7,2,.53,1-.78,2-1.5,2.18-1.9.32-1.9,1-.8,2.18.65.7,0,.83-.36.88-1.25.18-2.08,1.47-3.6,1.12-.67-.16-1.48,1.72-2.37.56a3.56,3.56,0,0,1-.22-2.83,18.92,18.92,0,0,1,1.83-3.23,52.13,52.13,0,0,1,3.66-6.45c.46-.6,2.37-.74,2.12-1.83-.36-1.52-2-1.32-3.36-1.32-3.29,0-3.68-.1-4.18,3.09-.35,2.15-2.46,2.94-2.67,4.93-.08.74-3.17,1.64.16,2.15.49.07.48.45,0,.68-1.44.73-1.47,2.43-2.45,3.5-1.87,2-3.57,1.88-4.94-.54-.19-.32-.22-.41.13-.73,1.17-1.07.64-2.53.53-3.74a3.09,3.09,0,0,1,1.63-3.31c2.11-1.08.62-2.47.34-3.51-.37-1.36-1.43-1.44-2.38-.52a17.16,17.16,0,0,1-1.43,1.4,9.94,9.94,0,0,0-4,6.82c-.19,1.51-1.08,2.59-1.68,3.81s-2.23,1.22-3.36.53c-1.62-1-.54-3.08-1.95-4.26-.62-.52.56-1.34,1.08-1.95a3.92,3.92,0,0,0,.82-1.15.9.9,0,0,0-.57-1.17c-.28-.1-.85-.09-.93.06-1.2,2.17-2.44,4.32-3.44,6.58s-1.73,2.7-4.06,2.37c-.59-.09-.91-.31-1-.85s.26-1.7-.06-1.93c-1.3-.94.51-2.82-.76-3.11-.94-.21-3.1-1.31-3.3,1.41-.06.7-1.13.41-1.75.45-1.15.06-2.21,1.13-2,1.71.68,2.33-2.27,2.76-2.15,4.71,0,.45-.64.61-1.17.59-1.31,0-.24-2.45-2.09-2s-1.77-.82-1.72-2.07c0-.39-.22-1.21-.7-.61-1.3,1.64-3.71-.34-4.84,1.72s-3.12,2.06-5.16,2c-2.56-.08-5.09-.22-7.39,1.5-1.65,1.23-4.14-.12-5.9,1.44-.4.36-.83-.22-1-.73s.07-1.67-.86-.8c-2.92,2.74-5.92.49-8.86.27-.46,0-.89-.93-1.41-.06-1.2,2-2.68,1.14-4,.33-1-.61-1.82-.77-2.69,0-1.9,1.74-3.93.24-5.64-.15-2.37-.55-2.28-1-3.51-.38a2.85,2.85,0,0,1-1.28.5c-1.11-.1-1.35-2.16-2.51-1.58a3.09,3.09,0,0,1-3.5,0c-.87-.53-2.23-.18-3.29-.49-.56-.16-1.37-.91-1.35-1.35.07-1.18-.84-2.74.71-3.48,1.35-.65,1.86-3.71,4.35-1.48,1,.87,2.35.87,5,.36,1.2-.23,1.92,1.49,2.86.55,1.39-1.39,2,.43,2.92.53l5.07.55c2.53-.78,5.05-1.44,7.12,1,.54.65.91.12.89-.25-.07-1,.65-1.5,1.25-2s1.53-.65,1.77.53c.09.46.38,1.19.58,1,1.91-1.94,3.24-.74,4.51.74.57.66.86,0,1.05-.24.84-1.3,2.08-1.28,3.45-1.4,5.33-.46,10.74-.73,15.5-3.57a3.52,3.52,0,0,1,2.83-.31c2.27.63,2.68-2.27,4.67-2.21.67,0,0-.65-.19-1-.45-.65-1.49-.92-1.37-1.92s-.55-2.24.42-2.77a2.27,2.27,0,0,1,3,.76c.49.66,1.24,1.13,1.73,1.79,1.2,1.61,2.81,1.44,4.43,1.11.42-.09.77-.8,1.15-.8,1.66,0,3.75.24,4.09-1.72.29-1.65-1.49-3.3-2.63-4.13-1-.71-1.27-1.14-1.22-2.1,0-.63-.3-1.78.27-1.79,1.4,0,2.38-2.53,4.24-.5A3.85,3.85,0,0,0,444,520a.82.82,0,0,1,1,1.18c-1.06,1.41-.45,2.07.76,2.8,3.47,2.12,3.42,2.08,7.38,0,.85-.44.8-.44.34-1.17-1.39-2.24-2.48-4.68-4-6.84-1.26-1.85.6-2.17,1.14-3.16.86-1.56,1.49.09,2.23.11,1.17,0,2.21,1.11,2.06,1.69-.62,2.48,1.94,3.18,2.52,5.05.83,2.66,3.61,2.39,5.93,2.24.5,0,1-.76.63-1.07-2.1-2-2-4.87-3-7.3-.24-.58-1.14-.77-1-1.58s-.52-2.16.37-2.81c1.11-.81,1.7.44,2.38,1.05,1,.85,1.64,2.16,3.28,1.75a.71.71,0,0,1,.94.81c-.33,1.7.76,3,1,4.59.19,1.13-.66,3.05,1.7,2.53,1-.21,1.72,2,2.77.18.14-.24.93-.09,1.41-.12,4.38-.26,4.47-.29,3.08-4.23-.42-1.18-1.45-1.84-.11-3.31.93-1-1.46-2.29-.91-4,.37-1.13,1.36-2.13,2.35-1.43a6.92,6.92,0,0,1,2.79,3.2,26.24,26.24,0,0,1,2,6.19,4.15,4.15,0,0,0,2.67,3.86c3.61,1.47,4.31,1.21,4.29-2.48,0-1.77.34-3.53-1.49-4.93-1.25-.95-.63-2.31.45-3.36s1.58,0,2.46.28c2.41.91,3.58,2.29,3.7,5,.06,1.48,1,2.9,1,4.59,0,1.91,2.45,2.27,3.1,4.11.39,1.11,1.46-.5,1.55-.82a7.44,7.44,0,0,0,0-5.26,2.36,2.36,0,0,1,.1-2.9c.66-1.12.82-2.58,2.45-2.46,1.28.09,2.18,2.34,1.84,4.32a1.52,1.52,0,0,0,.48,1.65c1.74,1.6,2.2,3.38,1.4,5.05a12.78,12.78,0,0,0-1,1.6c-.3,1,.54,1.55,1.17,2,.87.59,1.38-1.35,2.38-.54.64.53,1.11,1.32,1.81,1.7.44.24.62-.41.62-.89,0-2.17,0-4.34,0-6.5,0-.49-.12-1.07.43-1.31a1.33,1.33,0,0,1,1.7.52,7.82,7.82,0,0,0,.7.71c.23.22.47.42.71.63,1.22-4.31,3.85-.31,5.69-1,.45-.15,1.16.06,1.39-.2.75-.85-.42-1-.74-1.35a5.89,5.89,0,0,1-1.07-2.08,2.26,2.26,0,0,0-1.39-1.32c-1.87-.23-4.1.69-5-1.95-2.33,2.33-3.45-1.11-5.3-1.12-1.7,0-1-1.38-1-2.2s.81-.8,1.46-.79c2,0,4,0,6,0a1.63,1.63,0,0,0,1.48-2.27,3.33,3.33,0,0,0-1.26-1.45c-1.87-.86-3.82-1.54-5.17-3.22-2.41,1.06-3-2.35-5.15-2.05-1.64.23-1.62-1-1.34-1.87s.15-2.86,2.41-1.34c1.45,1,3.85-.35,5.5,1.18.1.1.69-.09.82-.3,1-1.57-.08-4.54-1.9-4.58a4.57,4.57,0,0,1-3.71-2,5.75,5.75,0,0,0-2.44-1.2c-2.57-.58-3.6-2.47-2.55-4.49.4-.76,1.05-2.05,2.73-1.11s4,1.3,5.15,3.25a1,1,0,0,0,1.3.41c1.13-.55-.14-.87-.17-1.3-.23-3.14-.56-4.61-2.67-5.51A13.49,13.49,0,0,1,502,475c-.15-.26-.18-.65-.39-.82-.77-.6-2.93.64-2.46-1.22.35-1.4,2-2.55,3.15-3.65.52-.47.71.24.69.69,0,1,.55,1,1.26,1.05s1.62.1,2.43.19c.12,0,.33.27.3.34-.74,2,2.32.9,2.06,2.6-.15.93.78,1,1.37.82a1,1,0,0,0,.4-1.58c-.95-.9-.86-2.83-2.73-2.8.11-1.6-1.19-2.35-2.16-3.08-2.05-1.54-2.43-4.05-3.78-6a2.33,2.33,0,0,1,.83-3c.8-.64,1.82-.76,2,.09.52,2.38,3.68,2.23,4.12,4.74.19,1,1.43,2.49,2.59,2.33.86-.12.56-2,.89-3,.7-2.1.41-4.54.4-6.85,0-1.36-1.5-1-2.22-1.41a9.29,9.29,0,0,1-4.77-7.93c-.08-1,.19-1.58,1.32-1.49s2.47-.38,3.09.95,3.08.59,2.63,2.84a1.78,1.78,0,0,0,1.59,2c.7,0,0-1.67,1.6-1.91,1.82-.28-.34-.91-.24-1.5A12.23,12.23,0,0,0,516,445.5Z"/><path class="d" d="M547,574c18-34-6.24-83.45-18-126-21-76-58.21-160.47-49-186,6.48-18,29.45-32.2,48-32,23.14.25,32.24,34.39,42,48,17.87,24.91,76,69,87,87,7.64,12.5,18.21,31,14,61-3.53,25.1-7.22,34.28-12.08,45.8-9.2,21.82-16.43,39.49-16.43,39.49s46.77,8.61,61.75,23.88c13.3,13.56,33.08,43.27,36.76,61.83,4.38,22.07,16.38,68.35,2,111-11,32.51-36.46,35-50.41,35.86C671.85,745.14,666,734,666,734s-2,34-22,52c-19,17.12-44.32,14.93-68,10-24-5-37.81-13.94-76.84-43.25C485,742.1,472,714.41,464.31,699.43c-13.07-25.56-23.92-67.27-23.92-67.27S383.51,631.32,348,615c-49.09-22.56-72.66-98.83-97-122-17.22-16.4-48.64-17.17-56-58-3.29-18.26,2.07-49.14,45-52,30-2,54.66,24.1,93.27,44,34.73,17.92,49.67,35.8,80.73,57C469.11,521.57,501,561,547,574Z"/><g class="e"><path class="b" d="M455.19,312.2C460.9,317,455.26,291,472,282a100.75,100.75,0,0,1,16-7s15.8-4.54,35,4c12.44,5.54,15,10,15,10s17.34,6.58,23,21c3,7.59,3.34,10.79,0,22-5.92,19.86-10.1,14.49-19,14-8.53-.47-18.59-12.89-21-7-2.75,6.72-32,15-33.92,7.9-.53-1.94-5.78,13.66-29.43,1.5-4.08-2.1,3.63-16.36,3.63-16.36S446.75,305.17,455.19,312.2Z"/><path class="b" d="M686.38,510.26s2.61-26.06-2.79-36.9c-7.4-14.85,5.93-27.28,5.93-27.28s7.12-28-6.52-40.08c-20.49-18.15-40.32.17-45-6-3.49-4.59-13.56-8.59-30.48-11.67C594.21,385.91,586.2,397.55,581,399c-7,1.95-20.68-4.27-17,18,1.81,11,17.49,12.12,22.29,11.47.86,11.35,5.22,16.16,9.36,21.85,3.55,4.88,8.06,12.23,13.51,12.68,1.28,5.52,1.58,31.3,6.93,38.86,4.8,6.78,13.73,19.24,13.73,19.24s-3.53,25.1,12.8,52.41c.43,5.67-18.45,34.58-17.62,64.49.43,15.37,1.66,38,24,37,23-1,31.41-24.09,42-27,22.93-6.3,25.42-15.67,30-21,7.87-9.16,2.5-26.46,6-33,2.85-11.35,27-46.31-22.3-75.42C689.89,509.84,685.34,508.11,686.38,510.26Z"/><path class="b" d="M273.77,342.76c-2.12,9.64-1,12.21-2.09,13.6C239.66,397,262,411,262,411s.42,7.42,2,12c2.08,6,7,7,7,7s-2.66,20.64,15,39c8.76,9.11,25.27,18.77,37,19,12,.24,8.74-24.37,5-36,10.49-4.79,17.77-21.5,19-26,2.86-10.45-14.79-20.6-14.79-20.6s27.56,27.22,23.15-7.93c-2.53-20.2-31.47-45.8-24.39-50.12C340.32,341.64,275,337.14,273.77,342.76Z"/><path class="b" d="M439.94,637.62S369.11,627.15,345,614c-22-12-7.11-32.43-10-36s.28-13.29,4-17c5.14-5.12,4-.77,9-6-9.82-5.25-6-15.85-4-20,3.19-6.7,11.18-10.59,16.43-13-1.49-27.29,3-42.32,20.57-35,12,5,12.43,4.64,17,16,3.71,9.22,7.26,10.29,14,14,8.71,4.79,8,20,8,20s11.79,3.9,12.85,21.8c1,16.49,32.57,22.58,40.15,29.2,5.42,4.74,10.43,13.35,15,21a170.1,170.1,0,0,0,20.06,27.19A104.36,104.36,0,0,0,524,652c7,1,44.45-3.79,67,4,5.9,2,17.61,19.55,12.81,38.61-3.51,14-4,19.43-14.23,27-7.68,5.71-18,8.56-22.58,8.34-1.7,6.13-4.68,14.65-14,21-9,6.1-27.63-10.22-27.63-10.22S500,753,469.29,723.89c-6.57-6.22-16.42,10.29-38.4-17.08C404.74,674.24,439.94,637.62,439.94,637.62Z"/><path class="b" d="M537,625c-.34,4.58,2.22,6.11-10.82,2.52-9.93-2.73-14.58-6.85-13.2-12.14,1.54-5.87,3.87-3.39,11-1.38C533,616.53,537.55,617.6,537,625Z"/><path class="b" d="M461.87,572.59c-8.5-3.7-9.17-6.88-13.09-10.71A6.37,6.37,0,0,1,453,551c4-.3,19.63,10.24,17,17C467.94,573.31,466.89,574.78,461.87,572.59Z"/><path class="b" d="M613.05,583.57c7.51.17,5.34-6,7.25-12.55,2.62-9.06.11-16.62-5.36-16.59s-8.07,8.32-8.78,15.71C605.18,580.36,609.62,583.49,613.05,583.57Z"/><path class="b" d="M578.1,484.6c1.1-8.07-3.65-9-8.06-12.23S563,467.1,562,471c-3.07,12.22,7.2,27.48,10,28C576,499.74,577.07,492.17,578.1,484.6Z"/></g><path class="d" d="M528.91,537.94c13.34-12.43,29.05-8.48,40.61-2.78s15.36,14.15,14.82,22.29c-.67,10-12.68,9.8-12.68,9.8a31.09,31.09,0,0,1-6.35,10.47c-5,5.23-12.67,6.09-12.67,6.09s-1,8.66-10.93,10.25c-13.54,2.16-22-17.72-22.44-28.85C518.64,549.27,523.25,543.22,528.91,537.94Z"/><path d="M531,526a9.78,9.78,0,0,1,7.09,1.78c1.55,1.13,1.83,1,2.2-.61,1.8,1.22,3.77-1.4,5.44.13,1,1,2.15.52,3.24.68.62.1,1-.29,1-.78-.27-2,1-4.36-1.23-6a1.52,1.52,0,0,1-.73-1.69c1.07-3.89-2.89-6.82-2-10.67-1.71-3-1.66-6.66-3.12-9.7-.92-1.93-1.83-3.92-2.82-5.85-.27-.54-.84-1.28-.78-1.62.47-2.94-1.48-5.09-2.3-7.59s-1.71-5-2.77-7.35c-.56-1.24.57-2.85-.7-3.68-1.74-1.15.48-2,0-3.21-1.06-2.89-2.3-5.73-3.13-8.74-.37-1.35.22-1.9.42-2.82-2.36.12-1.41-2-2.08-3-2-3-3.3-6.17-2.75-9.87a1.35,1.35,0,0,0-.4-1.34c-1.9-1.71-2-4.16-2.66-6.4-.26-.85-1.19-1.42,0-2.24a1,1,0,0,0-.34-1.29c-.53-.27-1.58,0-1.58-.74,0-2.61-1.84-4.66-2-7.18a12.31,12.31,0,0,0,0-1.49c-.29-1.43-2.34-2.17-1.14-4.35.5-.93-.71-2.88-1.3-4.31a42.83,42.83,0,0,0-1.89-4.69c-1.19-2.09,0-4.2-.9-6.15s-1.91-3.64-1.74-5.78c.19-2.47-.83-4.59-1.79-6.76a20.48,20.48,0,0,1-2.1-8.08,8.51,8.51,0,0,0-1.23-4,38.54,38.54,0,0,1-3-8.28c-.82-3.08-2.27-6-3.26-9.13-1.51-4.69-3.72-9.14-5-13.94A7.82,7.82,0,0,1,495,347c0-1.49.14-3-1.41-3.93a1.09,1.09,0,0,1-.43-1.65c.75-.75.71-1.11,0-1.83-2-1.95-2.53-4.7-3-7.22-.34-1.85-1.77-3.5-1.18-5.57.14-.46-.31-.86-.94-.81-1.92.17-2.65-.2-.78-1.75.41-.34,1.3-.92,0-1.21a2.63,2.63,0,0,1-2.28-3.15,2.06,2.06,0,0,0-.4-1.83c-2.21-2.37-1.32-5.7-2.47-8.47-.63-1.53.22-3.65-1.77-4.78A1,1,0,0,1,480,304c.25-1.69-.51-3.27-.52-4.9a8.52,8.52,0,0,0-1.08-4.12c-1.73-3.12-1.76-6.63-2.42-10-.33-1.68.86-3.43.41-4.85a18.49,18.49,0,0,1-.38-4.82c-.12-1.82,0-3.66,0-5.5,0-3.23.66-8,2.13-10.27,1.32-2,.3-5,2.87-6.33.17-2.12,3.16-2.42,3.09-4.73,0-.14.57-.48.78-.41,2.86.94,3.24-1.85,4.66-3.07,2.69-2.3,5.15-5,8.12-6.81,1.44-.89,2.31-2.49,3.75-2.91s2.64-1.5,3.77-1.71c3.72-.71,6.48-3.62,10.57-3.73a22.64,22.64,0,0,0,9-2.3c1.82-.89,2.34.8,3.38.46,1.3-.43,2.34,1.64,3.61.22.82,1.53,3,.11,3.77,1.77,1.61-.62,2.58,1.22,4.07,1a1.88,1.88,0,0,1,1.71.72c1.46,1.5,2.83,3.1,4.86,3.93.57.24,1.34.89,1.37,1.39.2,3,3,3.82,4.66,5.47,3.12,3.08,4.82,7.16,7.79,10.35.56.6,1,1.76,1.72,2.2,2,1.22,2.17,3.47,3.1,5.26.59,1.13-1,2.66.81,3.91,1,.66,1.23,2.41,1.84,3.66s1.39,2.76,2.13,4.12c2,3.57,5,6.46,6.49,10.31,3.07,1.26,2.7,5.47,5.92,6.74,3,1.16,4.37,4.3,7,6,1.86,1.22,2.82,3.4,5,4.6,1.83,1,3.16,3.06,4.46,5,1.82,2.71,4.58,4.8,6.94,7.16,2.35-1.45,2.59,1.05,3.68,2-1,2.14,1.72,1.84,2,3.09.1.53.2,1,.7,1.09.82.11,1.69-.08,2.5,0,2.09.34-1,1.28.2,1.9.68.37,1,1.28,2.06,1.12.15,0,.59.51.54.67-.83,2.46,1.63,2.75,2.66,3.23,2.66,1.26,3.64,4.39,6.78,5.2,2.15.55,2.61,3.76,4.93,4.72,2.11.88,3.47,2.86,5,4.34a54.67,54.67,0,0,1,4,4.74,5.9,5.9,0,0,0,2.45,1.38c1.13.55.83,2.56,1.8,2.56,1.66,0,1.09,1.34,1.67,1.93.35.35.76,1.05,1.05,1,2.54-.38,2.91,2,4.08,3.22,2.29,2.37,4.6,4.8,5.54,8.1.31,1.09.57.71,1.18.25,1.11-.85,1.79-.52,1.84.91,0,.63-.19,1.56.59,1.67,2.58.34,2.5,2.16,2.4,4a4,4,0,0,0,1,2.62c1.58,2.3,3.4,4.62,3,7.72a2.29,2.29,0,0,0,.93,2.13c2,1.78,2.49,4.45,2.93,6.74.81,4.19,2.86,8.21,2.15,12.65,2.46,3.22-.55,7.46,2,10.67-1.92,1.58-.85,3.73-.92,5.59s-.45,3.76.81,5.66a5,5,0,0,1,0,4.36c-1.42,2.53-.81,5.11-.84,7.64,0,4-1.18,7.81-1.92,11.7-.32,1.68-2.18,2.06-2.12,3.65s0,3-1.48,3.9a1.56,1.56,0,0,0-.52.77c-.38,1.14,1.83,1.64.75,3-.68.85-1.92,1.32-1.77,2.77.18,1.79-.24,3.21-2.38,3.51-.5.07-.88.85-.58,1.12,1.51,1.31-.36,2.48,0,3.71.43,1.59-.73,2.41-1.68,3.29-.35.33-.23.37,0,.74,1.48,2.17.71,3.4-1.39,4.89-1.38,1-1.79,3.32-2.64,5,1.33.93,0,1.3-.43,1.75-.68.77-1.47,1.46-.38,2.42.53.46-.07.86,0,1.06.58,1.9-4.58,1.83-1.53,4.49-2.16.89-2.16,3.27-2.64,4.88A55,55,0,0,1,651,503a9.44,9.44,0,0,1-2.42,4,2.24,2.24,0,0,0-.38.7c.29.11.59.34.86.31,7-.61,13.19,2.74,19.71,4.38.7.17,1.43.81,2.21.61,1.45-.37,2.25,1.35,3.59,1,2-.48,1.12,1.64,2.05,2.12.42.22.83.91,1.12.84,1.42-.36,2.63,1.48,4.07.33-.16,2,1.91,1.78,2.88,2.61a4.75,4.75,0,0,0,2,1.06c1.46.23,3.35-.59,3.66,1.86,1.49.09,2.62,1.23,3.82,1.6a8.15,8.15,0,0,1,5.51,4.69c.43.95,1.15.91,1.74,0,.76,1,2.62.38,2.76,2.58s2.06,3.56,4.13,4.27c1.7.59,3.91.64,2,3.36-.36.5.38.52.78.7a17.91,17.91,0,0,1,8,7.79c-1.1,1.69,2.87.24,1.45,2.39-.31.48.46,1.88,1,2.68.71,1.07,1.95,1.85,2.48,3s1,2,2.28,2.15c.28,0,.77.34.76.49-.38,4.13,4.26,6.12,4.22,10.34,0,2.07,2.57,3.79,3.24,6.08,2.81,1,2.48,4,3.39,6,1.24,2.75.61,6.29,3.18,8.67-.75,2.15,1,3.18,2,4.62.4.61,1.11,1.06,1.09,2.06,0,1.24-.56,2.37-.64,3.48-.06.82,1.28,1.52,1.7,2.73,1.06,3.08.57,6.58,2.83,9.35.89,1.09-1.5,2.65,0,4.15a4.21,4.21,0,0,1,1,4c-.3,1.36.73,2.09,1.13,3.07a13.44,13.44,0,0,1,1,3.61c.15,1.25-1.29,2.19-.48,3.33s.45,2.28.33,3.34c-.17,1.44.63,2.42,1,3.6a2.24,2.24,0,0,1-1,2.57c-1.12.85-1.27,1.39.49,1.49.73.05.55,1.05.55,1.69v15a3.05,3.05,0,0,1-.83,2.69,1.85,1.85,0,0,0-.12,1.85c1.83,2.22.56,4.78,1,7.13.24,1.5-2,2.73-.91,4s1,2.12,0,3.19c1.69,1.3-.94,2.29-.21,3.77s-.53,3.26.69,4.71c.78.91-.33,1.12-.65,1.37-1.07.87-1.49,2.49-.8,3,1.75,1.29-1.08,2.14,0,3.25,1.75,1.75-.62,2.16-1.26,2.72-1.16,1,.09,1.62,0,2.25-.32,2.13-.46,4.43-2.19,6.06-.57.54-.48.74-.11,1.47a3.47,3.47,0,0,1-1,4.75,16.09,16.09,0,0,0-2.48,2.47c-.82,1,1,1.4.58,2.4-.78,1.69-1.66,3.34-2.5,5s-2.78,2.11-2.83,4a11.08,11.08,0,0,1-2.52,2.81c-.53.31-1.6.45-1.62.73-.06.89.94.41,1.38.71.74.51.06.87-.29.86-.78,0-1.14.5-1.66.88-1,.76-.58,3.36-2.42,2.72s-1.77,1.39-2.93,1.46c-.44,0-1.11.2-1.25.51-1.48,3.1-4.94,3.39-7.35,5.14a33.09,33.09,0,0,1-7.85,3.91c-2.18.8-4.63.78-6.94,1.31a18,18,0,0,0-4.06,1.11c-1.05.53-2,1.85-3.32.2-.11-.15-1.59,1.62-2.68.16A1.13,1.13,0,0,0,694,746c-1.09,0-2,2.06-3.28.22-.91-1.29-1.87,1.46-3.22,0-.62-.67-2.52-.23-3.84-.2-1.89.06-3.44-2.41-4.57-1.82-1.77.93-3.19.06-4.21-.35a8.66,8.66,0,0,1-4.73-4.72c-.51-1.33-1.56-.84-2.1-1.54s-.95-.51-1.06.42c-.12,1.08-1.49,1.82-1,3.08.36.87,1,1.67.16,2.6,1.53,1-1.42,2.34.42,3.57,1.12.74.24,2.48.38,3.77.15,1.48.11,2.93-1.39,3.93a1.88,1.88,0,0,0-.4,2.64c1.82,2.47.9,4-1.44,5.17-.28.15-.71.53-.67.69.15.51.65.57,1.16.56s1.55-.21,1.65.52c.05.4-.8,1.27-1.33,1.35-2.07.31-2.12,1.72-2.68,3.36-1.26,3.72-1.82,7.88-6.31,9.93-2,.89-3.25,3.49-4.48,5.53-.45.75-.59,1.1-1.5,1.37-1.85.55-4.15.67-4.62,3.32-.15.8-1.22.35-1.63.65-2,1.5-5.56.11-6.47,3.56-.16.59-.84.4-1.32.39-1.81,0-3.71-.27-4.78,1.74-2.19-1.2-2.75,1-3.86,1.92-.81.67-1.43-1.43-2.19.07-.43.86-1.6,1-2.3,1.53-.93.68-1.85.5-2.7.82a18.88,18.88,0,0,1-2.59,1c-1.2.26-2.21,1.18-3-.49-.18-.36-.74-.86-1-.14-.72,1.95-2.93.29-4,1.83s-.91,0-1.11-.66c-.15-.48-.44-.69-1-.19-1,.92-1.95.76-3.07.06s-2.53-1.68-3.3-1.35a15.56,15.56,0,0,1-3.13.93,10.23,10.23,0,0,0-2.06,1c-1.76.87-2.69-2.17-4.46-.64-1.38,1.19-3.19.24-4.76.57-1.72.37-3.14-.48-4.56-1.08-.86-.36-1.36-1.14-2.28,0-.23.28-1.44.08-2.29-.23-4.63-1.71-9.17-3.72-14-4.76a8.84,8.84,0,0,1-4.56-2.1c-1.92-2.11-5.26-1.83-6.73-4.5-.42-.77-.69.23-1,.42-.66.39-1.33.43-1.69-.22-1.24-2.19-3.6-2.67-5.6-3.42S540,784,538.25,783c-5-2.82-9.76-6.07-15.06-8.31-1.87-.79-2.92-2.67-4.57-3.46-2.57-1.21-4.14-4-7.19-4.34-2.3-3.51-6.57-4.63-9.24-7.49-2.08-2.22-4.45-4.4-6-7-.94-1.6-3-2.49-3.11-4.14-.2-2.23-3-1.68-3.15-3.66,0-.44-.38-.71-.94-.22-1.29,1.14-1.57.69-2.16-.9-.87-2.29-2.55-4.28-3.86-6.4-.07-.12,0-.34,0-.49-.39-1.34-2.63-1.32-2.49-2.51.18-1.59-.73-2.39-1.34-3.49s-1.2-2.5-1.78-3.76c-.25-.56-.32-1.48-.73-1.66-4-1.76-3.77-6.11-5.5-9.2-.85-1.52-1-3.32-2.82-4.25-.93-.47.85-.72.3-1.77-2.38-4.5-4.25-9.26-6.72-13.7-1.21-2.18-3-4-2.91-6.72-2.33-1.65-2.37-4.87-4.55-6.61-.61-.49-.1-.72.14-1.08a2.27,2.27,0,0,0-.6-3.4,4.93,4.93,0,0,1-1.15-2c-.37-.75-.9-1.07,0-1.87.31-.28-.38-.58-.86-.62a1.24,1.24,0,0,1-.82-.4c-.8-1,1.24-1.74.51-2.32s-.06-2.34-1.95-2.37c-1.22,0-.68-1.65-.62-2.51.13-1.85-1.83-2.35-2.24-4.13-.7-3.11-1.06-6.45-2.81-9.3,1.42-2-3.44-2.59-1-4.75a12.49,12.49,0,0,1-1.76-4.73c-.46-2.08-1.92-3.65-2.18-5.63-.24-1.76-.44-2.73-2.22-1.17a1.06,1.06,0,0,1-1.7,0,2.11,2.11,0,0,0-2.68-.47c-.86.43-1.51,1.48-2.43.34-1.14-1.41-2.13.73-2.72.18-.91-.85-1.85-.48-2.75-.71-.42-.11-.75-.63-1.08-1-.82-.89-1.48-1.51-1.52.45,0,.5-.47.35-1,.12a6.77,6.77,0,0,0-6,.06c-.35.18-.42.27-.73.16-2.58-1-3.35-1.19-5.08-.3-1.39.71-1.86,1-2.23-.87-.21-1.11-.88,0-1.27.29s-.77,1-1.06,1c-1.09-.18-1.34-2.69-3.29-.94-1.12,1-2.42-.49-3.5-1-1.51-.7-2.74-1.72-4.27,0a.94.94,0,0,1-1.5-.61c-.18-.82-.19-2-1.2-.57-1.36,1.94-1.72.75-2.15-.55-2.29.21-4.35-2.58-6.75-.56-.68.58-.89,0-.88-.33,0-1.16-.57-1.36-1.55-1.29-2.62.2-4.9-.83-7.19-2-1.37-.68-2.92-1-4.33-1.59s-3.14-.54-4.17-2.08c-.54-.81-.65.14-.79.46s.11,1.58-.93.73c-2.18-1.79-5.43-2.06-6.91-4.86-.34-.65-1.27-1.07-1.65-.62-1.61,1.93-2.42.34-3.54-.55-2.57-2.06-5.91-2.68-8.62-4.52-1.93.72-2.45-2-3.05-1.83-2.13.46-2.06-2-3.12-2.06-1.86,0-.82-3.14-3-2.39-.33-2.17-1.67-3-3.77-2.77-1.77-3.16-6.26-3.55-7.48-7.31a1.72,1.72,0,0,0-1-1.07c-2.45-.7-2.5-4.28-5-4.44-1.26-.09-.63-3.44-2.61-1.26-.24-1.36-1.32-1.8-2.36-2.48s-2.3-1.45-2-3.12c.19-1.21-.94-1.65-1.58-2.33-.8-.84-1.69-1.53-1.44-2.93.18-1-.79-1.5-1.4-1.87-2.63-1.62-2.5-1.67-3.62-3.35-.9-1.34-.83-3.6-3.16-3.8a.78.78,0,0,1-.79-1c.38-1.78-.15-3-2-3.58.56-2.29-1.5-3.07-2.51-4.47-1.45-2-3.3-3.73-3.74-6.49a8.47,8.47,0,0,0-.94-3.05c-.47-.72-1.73-.55-2.39-1.43s-1.69-1.52-1.44-2.92c.27-1.56-1.9-.67-1.86-1.57,0-.56,1.19-1,.11-1.8a3.43,3.43,0,0,1-1.29-2c-.8-3-3.53-5.26-3.81-8.37-.16-1.79-2-.87-2.12-2.07-.09-1,.08-2.75-.19-2.81-1.88-.45-2.32-2.05-2.76-3.38-1.32-4-4.82-6.86-5.22-11.4-.17-1.8-2.42-3.3-3.73-4.84-2.5-2.95-3.81-6.76-6.94-9.19-.06-2-2.42-2.07-3-3.18-2.06-4-6.21-5.32-9.32-7.85s-6-5.16-9.58-6.91c-.85-.41-1.14-1.41-1.5-2.35-.43-1.13-.94,1.33-1.7.21-.57-.86-1.67-.73-2.46-1.36-2.07-1.64-3.8-3.73-6.47-4.64s-4.42-3.57-7-4.9c-1.65-.87-3.61-1.06-4.87-2.8a27.42,27.42,0,0,0-3.86-3.91,7.18,7.18,0,0,1-2.34-4c-.22-1.33-.53-1.88-1.8-2.27-.54-.16-1.72-.74-.59-2.12.64-.79-2,0-1.68-1.42.48-1.88-1.79-2.1-1.81-2.62,0-1.3-1.81-1.73-1.23-3.06s-1-2.42-.49-3.36c.74-1.32-1.28-1.77-.56-2.93.14-.22-.22-.92-.52-1.22-1.08-1.09-2.37-2.08-.43-3.51-1.32-1.82-.25-4.48-2.15-6.11-.83-.71-1.15-1.32-.34-2.45,1.14-1.57.24-3.52.49-5.28-2-1.22-.52-2.45,0-3.67l.78-3.67c-.23-.23-.68-.67-.67-.68,1-1.09,2.29-2.09.89-3.75a33.2,33.2,0,0,1,2.5-4c1-1.1,1.22-2.76,2.06-4.14,1.21-2,3.12-3.42,4.11-5.21,1.22-2.2,3.16-3,4.73-4.44,2.71-2.51,5.27-5,8.67-6.83s7.22-2.38,10.66-4c1.08,1.81,1.62-1,2.81-.31,1,.52,2.08-.07,3.1-.84.81-.6,2.19.28,3.29-.47a4.83,4.83,0,0,1,5-.12,5.31,5.31,0,0,0,5.06,0c1.88-1,3.89-.18,5.81-.46.57-.09.86.31,1.26.58,2.91,2,2.93,1.93,7.67,2.42a2,2,0,0,1,.91.2,22.9,22.9,0,0,0,9.4,4c1.63.33,3.17,1.8,4.94,2.47,1,.38,1.68,1.54,2.51,2.34,1.25-1.82,1.88-.06,2.43.57.9,1,2.24-.08,3.15,1,.68.8,2.05.77,2.73,1.8,1,1.51,1.59-1.14,2.8-.27,1.62,1.17,3.55,1.9,5.24,3,2,1.26,4.19,2,6.24,3A59.68,59.68,0,0,1,306,406c4.26,2.86,8.76,5.33,13.27,7.78,1.82,1,4,1.59,4.83,3.82,2.43-.34,2.68,2.68,4.16,2.95,1.64.3,3.17-.23,3.87,2,.24.76,1.63-1,2.48.45.53.93,1.26,1.77,1.76,2.78.15.31,1.2.24,1.84.23,1.08,0,2,0,1.85,1.52,0,.31.59.91,1,1,4.76,1.24,7.25,6.17,11.93,7.4,1.56.41.9,1.82,1.81,2.58s2.05-1.56,2.57.36,2.29,2.2,3.57,3.19c2.66,2.08,5.8,3.55,8.05,6.16.2.23.42.77.5.74,1.33-.45,1.74,1.3,3.07,1.19s-2.06,1.92.69,2c.86,0,1.83,1.32,2.52,2.21.89,1.17,1.54-.4,1.74-.2,1.17,1.13,2.82,1.46,3.93,2.74,2,2.31,4.55,4.05,6.85,6.05a7.23,7.23,0,0,0,2.85,1.6c3.27.78,5.29,2.9,6.79,5.61.42.76.81.78,1.45.89,1.87.31,3.84.49,3.65,3.25-.07,1.14,1.53.34,1.85,1.14.82,2,4.23.72,4.48,3.46,2.54-2,3,0,3.89,1.81.33.7.62-.37,1-.43a4.89,4.89,0,0,1,1.3-.12c.54,2.21,2.66,2.25,4.17,3.12a4.23,4.23,0,0,1,1.06,1.05c.61.79-.3,2,.72,2.69.79-1.36,1.45-.68,2.12.13a4.81,4.81,0,0,1,1.52,2.4c.13.75,1.36-.54,2.51.3s1.55.62.41,1.61c.65.36.65,2,2,1,1.59-1.12,2.06-.33,1.93,1.21-.09,1.23,1,2.29,1.54,2.22,2.3-.3,3,1.76,4.51,2.55,2.24,1.19,4,2.39,4.27,5.24a1.56,1.56,0,0,0,2.66.9c.32-.27.16.47,1.16.86,1.73.66,1.86,2.39,3.07,3.26.69.5,1.24-1.14,2.22,0,.61.74,0,2.49,1.92,2.35a3.51,3.51,0,0,1,2.41,1.25c.85,1,1.91.35,2.73.72,1.24.56-.88,1.12-.19,1.69,1.08.9,1.66,2.45,3.56,2.31,1.52-.1,1.5.92.7,1.88-.64.78-.46,1.1.47,1.06,3.14-.13,5,1,5,4.48,0,.55.56.24,1,0,1.44-.67,2.06,1.69,2.37,1.4,2.19-2,1.38.13,1.58,1,.14.6,2.81,2.27,3.39,2.21a2.2,2.2,0,0,1,2.54,2.13c-.08.83-1.87,2,.68,1.77,2.15-.18,3.32.61,3.46,3,.06,1,.58,2.91,2.43,1.08a.93.93,0,0,1,1.47.69c.13,1.07.16,1.49,1.3.55s1.77-.27,1.73,1.12c0,1.1-.17,2,1.44.82.6-.43.68,1.38,1.24,2.09,1.35,1.74,1.75,2.15,4.56,1.9,1-.09,1.42.77,1.67,1.31.59,1.27.54,1.42.85,1.15,1.64-1.43,2.19-.94,2.28,1.08,0,.91,4.61,4.1,5.78,4.2s1.78,0,2.43,1.53a7.92,7.92,0,0,0,4.71,4,5.47,5.47,0,0,1,2,1.1c.26.22-.14,1.13.44,1.24s.62-.49.61-1c0-1,.4-2.32-.09-2.94-1.17-1.48-.34-2.19.66-3,.37-.3.47-.5.14-.72-1.62-1.07,1.31-1.77.23-2.76-.64-.58-.93-.89-.21-1.84s-.09-1.28-.51-4.08c-.29-1.9-1.25-3.59-1.25-5.54,0-1.8,1-3.28,1.5-4.89C519.73,529.27,525.71,525.12,531,526Zm79.39-141c3,0,5.14,0,7.3,0,2.43.06.47,1,.31,1.59a1.86,1.86,0,0,0,.34,1.27c2-2.26,3.81.43,5.69.13,2.17-.35,4,.86,5.88,1.51s2.9,2.88,5.14,3.09c.25,0,.6.4.69.68.42,1.33.67,2.81,2.45,1.05.66-.66.66.17.78.53,1.09,3.19,1.36,3.36,3.74,3.17,1.23-.1,2.15-2,3.81-.2.93,1,2.36-1.73,3.94-.82,1.76,1,3.37-2.61,5.13-.12.53-1.21,2.23-.57,2.77-1.77,1,.77,2.31,1.59,3.36.54,1.32-1.33,1.65.82,2.88.46,1.71-.5,4.21.16,1.44-2.62a4.24,4.24,0,0,0,.61-.68,4.19,4.19,0,0,0-.33-3.71,6,6,0,0,1-1.36-4,10.21,10.21,0,0,0-.25-1.89l-1.41.59c.14-1.42-2.64-2.44-.54-4.16.22-.19.21-1.19,0-1.27-2.78-1.34-2.71-4.58-4.39-6.68-.63-.8-2.72-2.31-.7-4.12.17-.15-.85-1.64-1.31-2.51-.55.77-1.07,1-1.79.09s-1.63-1.31-2.06-2.16c-2.51-5-7.79-7.46-10.93-11.87-2.38-.55-2.9-3.24-5.07-4.23s-2.6-4.3-5.57-4.45a3.57,3.57,0,0,1,0-.48c.09-1.36-1.35-.63-1.69-1.22a8.06,8.06,0,0,0-1.42-2.42c-1.69-1.5-3.15-3.21-5.24-4.27a6.19,6.19,0,0,1-2.43-2.46c-.46-.83-.48-1.53-1.75-1.79a3.71,3.71,0,0,1-2.36-2.38c-.31-1.7-.63-1.56-1.55-.5-.83-.78-1.71-1.52-2.47-2.37-1.54-1.71-2.12-4.4-4.9-4.88,0-2.86-3.69-2.72-4.19-5.17-2.56-.34-2.94-3.7-5.8-4-1.15-.12-2.13-2-3.19-3,2.41-2-2.55-1.44-1.12-3.12-1.11-.84-1.13-2.86-3.44-2.5-1.58.25-2.83-1.34-3.42-3.4-.17-.6.05-1.63-.81-1.43-1.82.41-1.88-1.48-2.69-1.83-2.57-1.13-3.7-3.8-5.93-5-2.56-1.38-3-4.17-4.88-5.94-1.23-1.18-.61-2.93-2-4.25-2.7-2.59-5.92-5.13-5.78-9.55,0-.23-.53-.43-.67-.72-1.3-2.8-3.76-5.15-3.3-8.63a1.15,1.15,0,0,0-.26-.88c-1.84-1.79-2.89-4.11-4.22-6.25-2.18.09-1.54-2.57-3.11-3.15s-1.25-2.53-2.46-3.48a36.74,36.74,0,0,1-3.55-3.51A1.78,1.78,0,0,1,546,243c-.28-1.45-2-1.83-2.4-3-.38-1,0-1.92-1.48-2.6-1.06-.49-2.3.16-3.14-.9-.73-.9-1.9-1.53-2.4-2.52-.77-1.52-2.28.23-2.42-.46-.26-1.25-.68-1.8-1.87-1.52a5.61,5.61,0,0,1-4.53-1.11c-1.18-.84-1.82,0-2.74.06-3.13.34-5.8,2.67-9.17,2.09-.43-.07-1,.67-1.5,1.1a2.2,2.2,0,0,1-1.66.86c-1.11,0-2.48-.42-3.09.91-.69,1.53-2-.14-2.46.5a4.23,4.23,0,0,1-4.38,1.56c-1.7-.25-1.59.75-1.87,2a5.66,5.66,0,0,1-2.58,3.43c-1.68,1.13-3.43,2.4-5.09,3.59-2.12,1.52-3.71,3.68-5.94,4.89A3.75,3.75,0,0,0,484.9,255c-.33,2-3.31,3.09-2.17,5.75-2.22.38-2.22,1.37-.77,2.77-2.38,2.87.15,6.65-1.86,9.75-.8,1.23.11,1.52,2.51,1.94a4.1,4.1,0,0,0,3.88-1.15c.34-.31.57-1.56,1.35-.68,1.13,1.27,1.4-.76,2.37-.46a5.14,5.14,0,0,0,3,0,9.93,9.93,0,0,1,4.59-.21l4.53-1.53c1.43,1,3.36-1,4.67.79,1.86-.51,3.43,1.53,5,.89,1.4-.55,2.17-.66,3,.59a1.44,1.44,0,0,0,1.25.48c2.37-.58,3.89,1,5.71,2a7.05,7.05,0,0,0,3,1.19,7.66,7.66,0,0,1,3.43,1.13,8.25,8.25,0,0,1,2.38,2.32c1.22,2.7,3.56,4.27,5.51,6.17s5.49.46,7.12,3.24a5.68,5.68,0,0,1,.71-.68c.8-.52,1.6-.63,1.77.56.11.81.41,1,1.18,1.17,1,.2,2.62-1,3,1.39.15,1,2.41.94,2.93,2.67s2.12,2.95,3.63,3.82c1.17.68,2,1.11,2.42,2.59.29,1.11,1.42,1.92,2,3.13,1.71,3.47,1.8,7.59,4.55,10.65,1.23,1.38-1,3.37.26,5,.2.26,0,.94-.21,1.36-.09.19-.55.27-.85.29a.93.93,0,0,0-.86,1.39c.51,1.13,1.05-.29,1.27-.16.75.42,2.41.56.91,2.13-.55.58-1.15,2.06-.91,2.29,1,.95.24,1.32-.3,1.86,0,0-1,5.63-1,5.66-.23,1.2-.61.53-1.19.2-1-.57-1.07.85-1.75,1.08.63,1,1.9,2.2,1.74,3.1-.3,1.67-3.09,1-3.47,1.86-.76,1.79-2.77,2.59-3.21,4.15-.59,2.14-1.33,2.5-3.1,1.45-3.71,2.05-7.73.53-11.58,1a3.59,3.59,0,0,1-3.1-1c-.86-.81-1.48,1.8-2.75.15-2.85-3.7-7.9-3.54-11.46-6.11-.43-.32-2.09-.41-2,.55.14,3.17-5.31,1.39-4.3,5.1,0,0-.32.23-.32.23-2.2-3-2.21,1.52-3.71,1.08s-2.36.82-3.44,1.31c-2,.9-3.63,1.13-5.18-.67-.23-.27-.6-1-1-.23a1.46,1.46,0,0,0,.18,1.31c.47.52,1,1.12.66,1.7-.8,1.21-1.06-.59-1.81-.48s-1.13.34-1.17,1.17c-.08,2-.16,4,1.85,5.27.38.25,1.43.61.87,1.35-1.54,2-.66,3.06,1.3,3.81-.45,1.28,1.34,1.7,1.07,3.1s-.66,3.13,1.7,3.79c.56.16.79,2.25.88,3.28.29,3.52.35,5,1.79,7.15.4.59.85,1.28.51,1.74-1,1.37,1.55,2.21.28,3.83-1,1.24.94,2.43,1.47,3.67.45,1.05-.48,1.07-.79,1.4-.95,1-1.2,1.28.53,1.55,2.3.36,3.1,1.4,2.23,2.6s-.67,2,.33,2.83,1.59,1.69.26,2.8c-.24.21-.09.87-.14,1.32-.1.84,3.3-.3,1,1.77.91.87.73,2.39,1.89,3.14a4.09,4.09,0,0,1,.89,1c-2.37,2.2.81,3.23,1,4.87,0,.31.21.82.08.92-1.38,1.12-.48,1.81.38,2.56a3.14,3.14,0,0,1,.54.67c-2.3,2,.17,2.75,1,3.84.71.9,1.52,1.37.49,2.84-1.24,1.78-.74,3.54,1.65,4.39.88.32,1,1,.11,1.77a1.05,1.05,0,0,0,.39,1.65c1.22.65-.57,2.47,1.55,3.1,1.86.56.88,2.25-.09,3.39.27.16.54.44.81.45.8,0,1.07.33,1.2,1.14.16,1.07-1,1.92-.76,2.48s2.05.43,2.22,1.47c.23,1.48,2,2.72.59,4.55a1.51,1.51,0,0,0,1.25,2.49c.53,0,1.11,1.38,1.43,2.21s-.6,1-1,1.38c-.84.82-.84,1,.4,1.37,1.79.58,2.58,2.08,1.39,3.79-.58.83-.22,1.11.27,1.44,1.39.92,3.58,1.49,1.58,3.76-.57.64,0,.84.25,1.06,1.55,1.24,2.5,2.57,1.38,4.64-.35.67.37,1.19.85,1.62,1.21,1.06,1.51,1.74-.59,1.65a3.62,3.62,0,0,0-1.29.47c.26.17.52.34.79.5.9.52,2.92.23,1.41,2.35s2.59,1.08,1.83,3c-.21.55.14,1.38-.67,1.62-.45.14-1.19,0-1.25.48s.69.41,1.09.59a28.37,28.37,0,0,1,2.8,1.55c-.84,1,2,1.71.17,2.74,1.39,1.26,1.33,3.95,2.63,4.49,2.18.89.54,1.3.1,1.73-1.09,1.07-1.06,1.47.58,1.5.46,0,.64.73.51,1.22-.48,1.77.63,3.15,1.37,4.42.57,1,1,2.33.57,2.66-1.61,1.32-.1,2.88.23,3.11,1.69,1.18,1.86,3,2.35,4.61,1,3.12,1.7,6.3,2.48,9.47.37,1.54-.56,3.17.67,4.75.68.89-.69.46-1.07.72-.87.6-.92,1.63-.07,1.93,3.08,1.08,5.32,3.63,8.79,4.24,2.42.43,4.39,2.79,7,3.64.57.18.94.92,1.43,1.36.82.73-1.43,1.17-.21,1.71a2.32,2.32,0,0,0,2.34-.18c.27-.2.76-1.19,1-.33.61,2.3,2.66,2.93,4.11,4.28,1,.88.94,2.5,2.44,3.49,1.2.8.81,3.28,2.55,4.35.46.29.07,1.24-.55,1.63-.44.28-.48.51,0,.71.29.11.87.22.9.14,1.1-2.47,3.33-3.46,5.63-4.36-1.78-2.37.5-1.43,1.33-1.61s2.51.48,2.69-.53c.48-2.74,4.49-1.56,4.57-4.45,1.32.58,2-1.92,3-.93s1.64.54,2.17-.27c1.28-2,4-2.48,4.92-4.83,4.25-.09,6.41-3.74,9.63-5.54S623,525,626,523.06c.68-.43,1.06-.35.44-1.14-.37-.46-.39-1.2-.75-1.67a85.14,85.14,0,0,1-9.65-15.51c-.52-1.11-1.94-.17-2.1-1.55-.3-2.65-1.93-5-2.48-7.42-.59-2.64-1.82-5-2.56-7.48-.54-1.83,0-4-1.62-5.5-.63-.59.55-.9.42-1-1.38-1.22,1.08-2.5-.25-3.93s1.2-3,.6-4.87a3.19,3.19,0,0,1,1.32-3.91c.39-.23.52-.48.17-1.07-1.23-2.08-5.78-7.29-7.71-7.5-2.52-.28-3.31-2.17-4.39-3.65-1.42-2-1.71-4.75-4.59-5.52-.37-.1-.91-.83-.83-1.09.71-2.12-1.42-2.78-2.1-4.16-1.91-3.88-5.45-6.87-6.05-11.52-.12-.92-1.4-1.94-2.38-2.43a2.44,2.44,0,0,0-3.07.83c-.15.2-1.23.26-1.26-.32-.09-2.1-1.58-1.68-2.78-1.61a5.48,5.48,0,0,1-3.12-1c-1.48-.83-3.93-1-4.13-2.71-.28-2.27-2.46-2-3.31-3.57-1.29-2.37-2.56-4.45-3-7.3-.87-5.23-.4-10.33,2.47-14.26.36-.5,5.44-4.63,5.82-4.84,1-.56,1.5,1.36,2.4.57,1.21-1.06,2.56-2.3,4.11-1.72,1.76.67,3.11-.8,4.77-.28a3.34,3.34,0,0,0,3.31-1.34c1.52-2.87,5.1-2.85,6.85-5.44.81-1.19,2.91-1.88,4.52-2.1C600.44,386.34,605.64,384.12,610.41,385ZM377,483.44c3.58,1.93,7,1.26,10.08,3,1.68,1,2.91,3.16,5.42,2.67.37-.08,1.1.78,1.38,1.35a43.87,43.87,0,0,0,6.65,9.67A6.18,6.18,0,0,1,402,503c1,5.8,6.09,8.2,9.54,12,2.13-1,2.1,1.87,3.58,2,1,.07,1.7-.17,2.05,1.35a5.52,5.52,0,0,0,2.76,3.53c2.41.92.08,3.14,1.55,4.08.14.09.31.21.35.35.63,2,2.49,4,.32,6.16-.19.19,0,.95.19,1.3,1.17,1.77,2.12,3.91,3.75,5.08,1,.7.56,2.12,1.47,2.1,2.1-.05,1.12,1.49,1.53,2.35s1.85,1.49,1.83,2.2A6.41,6.41,0,0,0,433,550.7c.25.23,0,1,.05,1.46.2,1.26-.69,2.94.5,3.73,1.76,1.16.6,2.31.54,3.53,0,.45.64.56,1.15.61.31,0,1.23.11.44.82-1,.89-.7,1.56.1,2.44s2,2,2,3.1c.08,2.36,1.89.52,2.65,1.43,3.05,3.69,4.82,4.62,9.29,6.24,1.16.42,3,.22,3.28,2.06.1.56.33.93.92.87,2.8-.26,5.09,1.4,7.66,2s5.45,1.22,7.77,3a7.29,7.29,0,0,1,1.92,2.6c.55,1,2.21,0,3.21.48a3,3,0,0,1,1.56,1.8c.32,1,.69,2.68,1.33,2.84,2.53.61,2.71,2.8,3.66,4.51.3.55.72,1.33,1.21,1.44,1.87.41,2.08,2,2.76,3.33.86,1.63,1.53,3.39,2.52,4.94.59.92,1.62,1.56,1.72,2.8,1.27-.2.88-1.62,1.7-2.31s1.22,1,2.27.05c1.37-1.23,3.71-1.3,4.43-3.47,1.54.42,2.32-.73,3.43-1.43a16,16,0,0,0,2.46-2.39c1.43-1.34,2.94-3,5.13-3.13a2.13,2.13,0,0,0,2-1.23c1.25-3.65,5-3.93,7.62-5.72,2.14-1.48,3-2.75,1.94-5.46a2.83,2.83,0,0,1-.13-1.91c.62-1.43-1.93-2.07-.77-3.49,1.55-1.89-1.35-1.91-1.42-3.37-.05-1.1-1-2.22-.88-3.59a10.16,10.16,0,0,0-.06-4c-.38-1.17-.41-2.55-2-3.37a221.15,221.15,0,0,1-19.63-11.83c-1.08-.72-2.48-1.4-2.89-2.37a3.9,3.9,0,0,0-3.38-2.61,3.62,3.62,0,0,1-3.49-2.27,3.72,3.72,0,0,0-2.93-2.58c-2.93-.48-4.47-2.15-5.64-4.63a8.2,8.2,0,0,0-3.9-3.42,17.25,17.25,0,0,1-3.58-2.21c-1.61-1.34-3.12-2.81-4.72-4.15-3.83-3.19-8.53-5.28-11.72-9.29a13.24,13.24,0,0,0-4-3.46c-4.57-2.36-6.68-3.74-9.08-7.29a5.32,5.32,0,0,0-1.19-1.49c-3.9-2.71-7.92-5.2-11.63-8.23-2.37-1.94-4.67-4.27-7.79-5.23-.62-3.21-5.74-2.5-5.66-6.53,0-.73-.81.83-1.27.56-4.65-2.74-9.37-5.38-13.45-9-1.4-1.23-2.88-2.38-4.21-3.68s-2.94-2.07-3.94-3.76c-.6-1-.72.19-.85.68-.26.93-.68,1.13-1,.07-.18-.67-.18-1.15-1.08-1.29s-1.55-.68-2.75-.09-4.74-2.9-5.18-4.55c-.17-.63,0-1.43-1-1.29-1.37.19-2-.31-2.3-1.69-.14-.58-1.3-.95-1.8-1.41-2.29-2.12-5.26-3.49-6.94-6.28-.59-1-2-.78-2.71-1.78s-1.56-2.23-3.2-1.86-.42-2.34-2.08-2c-1.41.29-2-.36-2.27-1.7-.1-.46-.82-.93-1.36-1.15-2.05-.85-2.24-.8-2.32-1.79s-.44-1.47-1.48-1.37c-.64.06-1.42.17-1.55-.71-.39-2.6-2.68-1.65-4-2.41-2.56-1.43-2.81,1-4.06,1.76-.54.31-.66,1.08-1,1.56-1.32,2-1.72,5.13-5.22,4.84a.9.9,0,0,0-.68.55c-.51,2.31-2.6,3.3-4,4.84-1.17,1.28-1.49,2.36-.34,3.81.77,1-.2,2.6,1.18,3.4-2.37,2.13,1.65.7,1.22,2.24-.95,3.39,1.42,6.6,1,10.07-.12.91-.54,2.16.3,2.82,1.42,1.13-1.84,2.55.4,3.61.44.21-.63,1.14-.85,1.87-.32,1-1.11,1.9-.9,3.12a1.85,1.85,0,0,1-.58,1.76A16.86,16.86,0,0,1,327.5,488c-1.44.56-2.95.93-4.41,1.44s-2.81-.59-4.35-.52-3.47.7-5.19-.7c-1.11-.9-3.71.66-4-2.14a1.29,1.29,0,0,0-.91,0c-1.67,1.44-2.65.12-3.55-.95-.24-.29-.22-1-.73-1.05-1-.12-2.09.16-2.91-.22a3,3,0,0,1-1.55-2.32c-.2-1.14-1.14,1.17-2.08-.1-1.44-1.94-3.6-3.2-5.44-4.75-1.14-1-1.85.92-2.14,0a6.71,6.71,0,0,0-1.47-2.41,11.16,11.16,0,0,1-1.42-2.4c-.68-1.5-1.75.62-2.06-.15a7.57,7.57,0,0,0-1.47-2.4c-.64-.7-1.8-1.1-1.75-2.25,0-.95-1.1-1.11-1.08-2.09s-1.15-1.52-1.81-2.21c-.37-.38.63-2.36-1.49-1.09-1,.61-.27-1.36-.65-2-.08-.14-.18-.31-.32-.36-3.48-1.35-3-5.62-5.57-7.63-.17-.14-.22-.82-.09-.91,1.56-1.12.21-2.4-.15-3.14-1.4-3-.84-6.25-1.87-9.23,2.25-2.89-.83-4.42-1.74-6.45-.38-.85-1.69-1.33-2-2.18-.22-.66,1.26-2-.9-1.65-2,.33-2.11-.62-2.57-2.36-.53-2-2.43-3.48-.95-5.88.18-.27-.64-1.59-.11-2.5-1.83-1,.45-2.64-.19-3-1.4-.81.66-3.15-1.94-3.39-1.43-.13-.08-2.63-1.72-3.7-.91-.59-3.93-1.19-2-3.74-1.78-.54-1.14-3.46-3.47-3.5-.41,0-.47-.43-.21-.68,1.58-1.54.42-3.47.72-5.19.15-.87,1.41-1.54.12-2.76-.72-.68.48-2,.78-3a3.77,3.77,0,0,0-1.13-2.91c-.64-.66-1.32,1.31-2.35.53-1.93-1.46-3.74-1.26-5.82-.1a2.94,2.94,0,0,1-3.62-.4c-1.41-1.69-2.52-1.72-3.9,0-.45.55-1.4.66-2,1.12-.45.34-1,.49-1-.05-.05-1.81-.47-1.36-1.54-.55s-2.4.78-3.33,1.52-2.28.9-2.66.44c-1-1.28-1.56-.12-2.29.14a10.19,10.19,0,0,0-4.75,3,2.54,2.54,0,0,1-2.09,1c-.95,0-2.28-.75-2.55,1.34-.09.73-2.55.94-2.75,2.2-.3,1.88-1.6,2.18-2.91,2.74a7.57,7.57,0,0,0-4.15,5.18c-.18.59-.1,1.05-.79,1.54-3,2.12-4.12,4.32-4.24,7.3a8.3,8.3,0,0,1-.78,3.18,18.91,18.91,0,0,0-1.16,3.5c-.28,1.27,0,2.66-.09,4s.54,2.66-.34,3.85.76,2.08.46,3.35c-.2.83,1.59,1.43.43,2.89s1.86,1.5,1.47,2.93,1.25,2.5,1.06,4.09c-.46,3.78.09,7.29,2.74,10.39.47.55,1.56,1.64,1.24,3a1.61,1.61,0,0,0,.32,1.32c.81.79,1.36,2,2.58,2.18,2.24.31-.26,1.25.28,1.74A23.75,23.75,0,0,0,209.8,461c.33.23,1,.11,1.18.61,1.21,3.56,4.85,4.32,7.28,6.46a7.7,7.7,0,0,0,4.56,2.3c0,2.24,2.17,2.35,3.32,2.54A5.46,5.46,0,0,1,231,477.1c.26.9.93,1.16,1.38.85.86-.61,1.69-1.25,2.15.1.71,2.09,2,2.79,4.13,3.25a8.11,8.11,0,0,1,3.91,2.64c1.15,1.29,2.76,2.3,4,3.42s2.88,1.67,3.79,2.74c1.54,1.81,5.41,1.63,4.77,5.36-.07.4.82.37,1.17.58,1.08.66.92,2.34,2.22,2.9.95.42.07,2.3,2.07,2.2,1.19-.06,1.39,1.95,2.12,3,1.78,2.49,2.43,5.91,5.93,7,.8.24.29,1.47,1,2.06s-.77.94-.51,1.35c.43.69,1.34,1.11,1.68,1.81.94,1.95,1.7,4.29,3,5.66,1.79,1.84,2,3.9,2.7,6a15.93,15.93,0,0,0,1.78,3.75,23.76,23.76,0,0,0,2.65,2.86c-1.8,1.5.53,2.3.74,3.45.18.94,1.64,1.59,2.29,2.53.52.75-.82,2.33,1.35,2.53,1.55.14,0,2.21,1.13,2.84.91.49.08,2.66,2.05,2.11,0,0,.35.58.29.64-.48.48-1.06,1-.75,1.68.63,1.41,1.18-.65,1.61-.15a5,5,0,0,1,1.3,2.43c.16,1.76.46,3.3,2.05,4.38s1.21,3,2,4.35c.4.65,1.09,1.49,1.73,1.57,2.36.29,2.62,2.47,3.07,3.85a28.81,28.81,0,0,0,1.64,3.34,10.25,10.25,0,0,0,2.59,3.4c1,.88.83,2.87,2.75,2.79.75,3.4,3.79,5.12,5.52,7.75,1,1.54,2.86,1.91,3.58,3.4,1.53,3.18,5.25,4.35,6.73,7.54,1.94-.25,1.1,2.07,2.36,2.54a23.92,23.92,0,0,1,3.76,1.78c.28.17.14.95.4,1.29.47.63,1.48.66,1.59,0,.19-1,1.22-1.61,1.21-2.5-.08-5,.37-9.94-.21-14.89-1.56-1.38,1.43-2.41.35-3.83,0,0,1.1-.83.15-1.75s.56-1.6.75-2.46c.25-1.08-1.66-1.72-.94-2.53,1.58-1.78.7-3.76.92-5.64s.58-3.27,2.35-4c.5-.21.51-.69.71-1.11a15,15,0,0,1,6.25-7,2.53,2.53,0,0,0,.76-3.74c-1-1.4-1.6-3-2.63-4.43-.78-1.08-2.63-2.79-.42-4.46-.57-1.2.8-2,.51-3.37s.71-2.41,1.45-3.5c.24-.34.06-1,0-1.47a2.34,2.34,0,0,1,.75-2.2c3.47-2.9,5.89-7,10.36-8.8,1.43-.58,3.29-2,3.48-3.23.3-2,2.69-3.71.63-6.2a5,5,0,0,1-.05-4.74c.8-1.15-.68-2.28.56-3-1.16-1.28.34-2.35.3-3.57-.16-4.87,1.91-9.15,4-13.3a9.16,9.16,0,0,1,7.19-5c1.19-.17,1.65,1.71,2.87.53a1.86,1.86,0,0,1,2.64-.06C376,485.73,376.55,483,377,483.44ZM604,680.56c-.1-2.62.63-5.38-2-7.28-.24-.17.13-1-.06-1.44-.46-1-1.13-1.85-1-3.1s-2.49-.24-2-2.08c-1.31-.53-1.93-1.67-2.7-2.78-1.57-2.26-4.77-2.53-6.35-4.88a4,4,0,0,1-3.75-1.56c-1-1.27-3.2-.75-3.42-3-.07-.76-2.22-1.06-2.69.26s-.85,1.83-1.88.92A2.55,2.55,0,0,0,576,655c-3.12.4-5.91-1.64-9.09-1.11-.89.15-1.92-.8-3.05-1s-1.64,1.44-2.91.62c-.95-.62-1.84.52-2.7.9a4.22,4.22,0,0,1-3.16,0c-1.34-.57-2.64,0-3.83-.41s-2.23,1.43-3.78.18c-.81-.66-2.57-.14-3.89-.13-.13,0-.23.25-.37.31-2.65,1.12-5.57.9-8.33,1.53a13.48,13.48,0,0,1-4.61,0c-1.67-.25-3.8-.42-5.08-2.12-.18-.25-.81-1.12-1-.29-.68,3.35-1.83.45-2.12.05-2.36-3.27-6.56-4.67-8.47-8.37-5.39-2.08-6.37-8.54-11.19-11.19-1.38-3.52-4.33-5.84-6.68-8.62-.95-1.13-.86-2.9-3-3.47-1.15-.31-1.53-2.89-2.64-4.08-.82-.88-.94-2-1.68-2.85-1.68-2-2.53-2-4.35.37-.51.67-1.17,1-1.51.72-2.08-2.09-3.22-.94-4.21,1-3,.5-4.88,3.18-7.79,4.13a26,26,0,0,0-7.16,4.27c-2.45,1.85-5.95,1.61-7.76,4.4-.17.26-.94.06-1.38.22a4.21,4.21,0,0,1-3.23.13c-1.47-.54-.92,2.06-2.22,2.6-.74.31-.71-.38-1.07-.53-.63-.25-.73.38-1.05.62s-.67.87-1.09,1c-.26.06-.65-.61-1-.75s-1.07-.3-1.32.23c-.38.81-.18,2-1.74,1.77-.48-.06-.37.88.12.88,3.27,0,1.59,3.58,3.4,4.59,1.33,5,1.66,10.16,4,14.84a.9.9,0,0,1,0,.49,4.93,4.93,0,0,0,1.77,4.22c1.33,1.26,1.08,2.59,1.26,4s1.72,2,2.11,3.64c1.14,4.79,2.47,9.72,5.84,13.49,1.07,1.2-.61,2.48,1,3.36a4.42,4.42,0,0,1,2,4.1c0,.52.09,1.26.52,1.23,2.22-.12,2.16,2.2,2.29,3,.24,1.43,1.56,2.46,1.23,4.05-.28,1.35,2.8,1.8,1.13,3.68,1.48.88,2.15,2.55,2.67,3.89s2.11,2.62,1.7,4.4c-.48,2.12,2.16,2.16,2.39,3.55.32,1.92,1.9,3.16,2.18,5.14.26,1.76,1.34,3.42,2.15,5.08.32.66,1.78-.15,1.75,1.18a16,16,0,0,0,0,2.5c.16,1.06,1.46.44,2.1,1.51,1.87,3.1,3.2,6.62,6.21,9,1.4,1.09,2.7,1.52,5.2,1.13,1.74-.27,3.93.56,4.2,1.5.49,1.74,1.38,1.43,2.47,1.52,5.74.45,11.42-.36,17.05-1.16,1.54-.22,3.24.46,4.88-.69a5.09,5.09,0,0,1,3-1.13c1.42.12,1,1.74,1.8,2.54,1.07,1.11,2.56,1.31,3.6,2.34.34.34,1.23,0,1.51.82.91,2.77,3.13,3.3,5.68,3.28a4.18,4.18,0,0,1,1.92.16c1.12.61-1.34,1-.2,1.71.47.27.52,1.4,1.39.79a17.75,17.75,0,0,0,1.78-1.59,1.94,1.94,0,0,0,2.11.91c1.52-.41,2.86-1.24,4.59-1,4,.46,6-2.94,8.66-4.93,1.16-.87,1.13-2.92,2.47-3.92,1.51-1.14-.41-3.38,1.41-4.42-1.12-1.33,0-2.56.56-3.41.8-1.17-.89-2.51.6-3.47a8.35,8.35,0,0,0,1.55-1.77c1.63,1.93,1.93-.48,2.81-.91a4.73,4.73,0,0,0,1.07-1c1.74,1.76,3.66.29,5.46.44,1.25.1,2.23.74,3.46-.28s3.1.56,4-1.12c.73-1.37,1.8-.11,2.48-.51a12.33,12.33,0,0,0,2.15-2.07c.79-.79,2.1-.69,2.79-1.75s2.56-.91,2.8-2.77c.22-1.7,2.23.2,2.31-.49.36-2.9,2-5.33,3.32-7.62,1.76-3,1.22-6.86,3.82-9.43a1.7,1.7,0,0,1-.35-.36c-.76-1.5.89-2.78.39-4.32s1.63-2.47,1-4.07c2.09-1.39-.6-3.21.11-4.08C604.52,683.94,603.73,682.19,604,680.56ZM384.33,626.15a7.8,7.8,0,0,1,.7.38,9.7,9.7,0,0,0,6.39,1.5c1.11-.06,2.53-.55,3.32.31,1.19,1.31,2.08-1.32,3.2,0,1.41,1.72,3.7,1.28,5.5,1.46,2.29.23,4.89,1,7.11-.8a2,2,0,0,1,1.89,0c1.13,1.45,2.11,1,3.18.07,1.12,1.52,2.79,1,4.13.82,4.62-.53,9,1.6,13.59,1.07a.47.47,0,0,1,.38.23c.51,1.92,2-1.4,2.49.47A28.26,28.26,0,0,0,439,630.5c.82-.46,1.14-1.64,2.38-1.51a8.5,8.5,0,0,0,6.75-2.83c1.35-1.35,3.29-.47,4.24-2,1.33,1.09,2.36-.19,3.45-.55.38-.12.5-1,.73-1.61l1.06.92a11.82,11.82,0,0,1,.69-1.63c2.35.61,3.19-2,5.08-2.37,1-.21,1.64-1.74,2.84-.28.64.76.7-.14.8-.47.21-.7-.4-2,.6-2,.55,0,.9.59,1.8,0,3.52-2.24,6.83-5.09,11.32-5.2,1.43,0,1.8-1.29,2.7-1.94.36-.25.59-.48.17-1.07-1.39-1.91-1.28-4.68-2.68-6.33-2.67-3.15-5.12-6.46-7.69-9.68-2.07-.13-1.55-2.12-2.11-3.22-.86-1.69-3.09.27-3.72-1.79-.17-.55-.08-2-.93-1.78a3.06,3.06,0,0,1-1.82.07,6.57,6.57,0,0,1-4.14-2.23c-.27-.31-.42-1.38-1.38-.67-1.18.87-2.08-.76-3.34-.45a3,3,0,0,1-3.17-.75,8.93,8.93,0,0,0-3.09-2.12c-2-.86-3.86-2.12-5.85-2.74s-3.35-2.28-5-3.39c-3.78-2.53-7.41-5.57-8.27-10.25-.34-1.89-2.68-3.93-.48-6.08-2.47-1.22-1.62-3.94-2.55-5.87s-2.28-4-2.7-6.41c-.14-.83-.52-3.17-2.82-2.36-.46.17-.65-.41-.87-.89a21.43,21.43,0,0,0-2.32-4.07,7,7,0,0,1-1.49-4.28c.06-1.08,1.64-2.35.52-3.42s-.64-2.64-1.5-3.95c-1.39-2.12-3.5-3.72-4.42-6.12-.72-1.88-2.73-.69-3.81-1.74-.41-.4-1.49-.37-1.62-.75-.76-2.34-3.51-2.54-4.61-4.5s-2.45-3.64-3.49-5.56A59.22,59.22,0,0,0,388,492.41c-1.61-1.59-3.09-2.91-5.52-2.43a1.27,1.27,0,0,1-1.36-.35c-2.08-2.42-4.41-2.17-6.91-.66-.38.24-1.24-.31-1.1-.48,1.63-2,.42-1.63-.92-1.17-1.9.66-3.67,1.67-5.8,1.72-1.42,0-2.55.89-2.33,2.45.18,1.2-1.07,1.55-1.09,2.59,0,.77,1.85,1.36.22,2.24.28,3.58-1.36,6.92-1.26,10.51a10.52,10.52,0,0,0,1.16,4.54c.81,1.57-1.58,2.43-.25,4.33,1.1,1.56-1.37,5.72-3.35,7.34s-3.19,4.25-6.25,4.23c0,2.21-2.25,2.29-3.24,3.56a10.72,10.72,0,0,1-4.28,3.18c-.39.16-.9.28-.31.92,1.31,1.44.72,2.7-.59,3.74-.74.59-1.16,1.46-.76,2.14,1.29,2.21.7,5,2.28,7.07a39.41,39.41,0,0,1,2.5,4.45c.34.61-1.63,1.24-.17,1.6,1.88.46,1.22.91.82,2.27-.51,1.74-1.9,2.15-3,2.63-3,1.38-4.68,4.35-7.6,5.77-1.88.91-.21,3.13-1.41,4.4a2,2,0,0,0,.05,3c.56.56.16.88-.19,1.06-1.68.84-.63,1.86-.47,3a15.51,15.51,0,0,1,0,6.44c-.6,2.06.38,3.8.18,5.71s.47,4.19-.19,5.94c-.74,1.95.9,3.46.18,5.24-.35.84.15,1.82-.63,2.76s.89,4,2,4.78,1.9,2.12,3.49,2.46a20.06,20.06,0,0,1,3.35,1.53c1.3.55,1.93,2.78,3.63,1.94s.55,3.92,2.68,1.12c0,2.37,2.2,1.83,3.44,2.37,5.24,2.27,10.37,4.9,16.17,5.6.28,0,.78.31.77.44-.13,1.43.66,1.67,1.82,1.54,1.7-.19,3.31-.07,4.33,1.59.26.41.48.16.71.16,2.8,0,2.83,0,4.2,1.63.73.86.9.5,1-.34A4.36,4.36,0,0,1,384.33,626.15ZM649.61,511.84c-2.76.18-5.13-.39-6.23.54-2.35,2-5.57,3.15-7,5.93a18.31,18.31,0,0,1-3.31,4.1c-.73.76-.72,2-1.16,2.47-1.3,1.5.38,2.55.11,3.77-.67,3,1.56,5.62,1,8.58,1.66,2,.57,5,2.63,6.91a7.49,7.49,0,0,1,2.26,6c-.07,1.9.86,3.42,1.29,5s1.66,3.61,1.64,5.22c0,2.43,1.9,2.58,2.87,3.79.09.12.27.31.25.35-1.65,2.25,1.42,3.32,1.31,5.19,0,.36.88.35.48,1.07-1.59,2.86.21,6.91-3.18,9.18-.2.13-.42.59-.36.67,2.2,2.76-2.44,3.79-1.54,6.2-2.1.64-2.82,1.81-1.69,3.92.29.56-.06,1.33-1,1.22s-1.09,1.09-2.08,1.06-.83.6-.23,1.09c.93.75,1.45,1.33.43,2.59-.62.76.53,2.93-.58,3.1-1.91.29-1.37,1.38-1.52,2.42-.17,1.26.1,2.49-.37,3.83-.38,1.08,0,2.4-1.32,3.13.8,1.79-2.7,3.2-.48,5.14,0,0-.24.62-.36.62-1.81,0-1.53.58-.5,1.48-1.68.91.31,1.81,0,2.64a11.32,11.32,0,0,1-1.48,2.87c-.61.8-.76,1.5.07,2.06,1.53,1-1.58,2.58.43,3.52.07,0,0,.33,0,.48a2,2,0,0,1-.37.83,5.3,5.3,0,0,1-2,1.26c-1.06.42-1,1.24.29,2s1.58,2.55.47,2.8c-2.28.5-1.66,1.93-1.09,2.83,1,1.61,1.12,3,0,4.45a1.24,1.24,0,0,0,0,1.73,5.81,5.81,0,0,1,.38,5.61c-.5,1.2.33,1.61.21,2.27-.45,2.67.84,5,1,7.59.4,5,5.25,11.21,9.75,11.56.86.06,1.27,1.68,2.35.52.91-1,1,.85,1.91.62a21,21,0,0,1,3-.07c1-.09,2,.4,2.86-.32,2-1.62.65,1,1.41,1.14s.7-.45,1.06-.62c.53-.24.65-.87,1.41-1,6.47-1.1,6.46-1.15,10.31-3.7a34.53,34.53,0,0,1,5.65-3.24c1.94-.78,3.56-1.38,4.26-3.31.31-.85,1-.64,1.35-1,3.68-3.91,8.42-6.51,12.31-10.12,2.47-2.3,6-3.07,8.09-5.84a48.66,48.66,0,0,0,10.4-3.87c6.21-2.89,7.38-3.25,10.82-9.09.64-1.1,2.32-1.69,2-3.11-.45-2.23.91-3.38,2.25-4.59a2.66,2.66,0,0,0,.83-2.17c.17-4.29,2.11-8.3,2.12-12.66,0-.61,1.33-1.8.79-2.54-1.27-1.74.41-3.09.32-4.65,0-.41,1.16-1.22.7-1.59-1.71-1.37-.43-2.44,0-3.75.47-1.47-.48-3.19,1-4.63.51-.5.08-1.72.73-2.68a14,14,0,0,1,1.86-2.71c.71-.65.4-2,1.43-2.38,1.58-.62-.18-2,.5-2.44,2.47-1.57.68-3.61.12-4.79s-1.77-2.62-2.5-4a45,45,0,0,0-2.19-4.1,9.89,9.89,0,0,1-1.77-4.71c-.09-1.92-2.16-1.69-2.61-3.39a15.37,15.37,0,0,0-5.52-7.68c-1.79-1.46-2.62-3.8-4.32-5.14a11.84,11.84,0,0,1-3.78-4.92A3.87,3.87,0,0,0,706.5,541c-2.61-1.84-5.51-3.36-6.67-6.66A1,1,0,0,0,699,534c-2.11.4-2.9-1.4-3.93-2.53-1.79-2-6-4.92-8.15-5.52-1-.27-2.66,1.11-3-1.34-.2-1.39-2.67.13-3.21-1.46-.67-2-2.92-.42-3.77-1.77-1-1.54-2.44-1.47-3.93-1.39s-.7-3-3.13-2.15c-.78.29-2.22-1.48-3.44-.67-.83.55-1.22.78-1.81-.08S663,516,663,514.78a.92.92,0,0,0-1.42-.73c-.88,1.26-1.46.12-2.24,0C655.71,513.59,652.52,511,649.61,511.84ZM609,687.33c0,.59.21,1.33,0,1.55-2.09,1.85.19,4.93-2,6.71.54,2.49-1.52,4.56-1.12,7-1.25.77-.93,2-.85,3.13.15,2-2.16,1-2.67,2.32-.33.84-1,1.74-1.22,2.48-.38,1.18,0,2.5-1.84,2.71-.5.06-.46,1-.2,1.27,1,1,1.12,1.32-.56,1.55-1.38.18,1.37,1.43-.18,1.91a8.76,8.76,0,0,0-5.18,4.87c-.65,1.4-2,.76-2.49,1.86-.34.74-1.33-1.47-1.59-.18-.32,1.6-.55,1.66-1.53.53-.59.54-1.09,1.29-1.79,1.58a4.75,4.75,0,0,0-2.17,2c-.41.61-2.45-.07-3.15.53-1.52,1.31-3.24,1-4.67.68-1.22-.27-2.12,2.11-3.22.2-.54,1.93-2.9,0-3.59,1.71-.45,1.14-1.39,2.18-1.53,3.34-.4,3.35-2.76,5.84-3.65,9-.58,2-2.06,5.18-4.22,5.48s-2.58,3.34-5,2.42c-.32-.12-.54.65-.59,1.16,0,.3,0,1.11-.84.45-1.33-1.07-2.33,1-3.84.43-1.17-.44-2.63-.09-4-.09-1.5,0-3,0-4.5,0-.63,0-1.74.2-1.73-.46,0-2-1.3-1.43-2.35-1.54s-1.9.3-2.81-.49c-1.17-1-1.85-2.56-3.94-2.63-1.57,0-1.76-2.33-2.92-3.41-1.67-1.55-3.23-2.21-5.15-.83-.65.46-1.42.06-1.83.41-1.6,1.37-3.34-.83-4.62.1-1.87,1.35-3.63,1-5.44.33a1.56,1.56,0,0,0-1.09,0c-1.47.25-2.6,1.68-4.54.63-1.58-.86-3.8.42-5.66-.79-.86-.56-1.07.87-1.74,1.16,1.28.37.4,2.73,2.35,2.52,2.41-.27,1,.82.68,1.74-.23.61,0,1.25,1,1.28.71,0,2-.49,1.92.79-.08,2.77,1.41,3.34,3.75,3.2,1.42-.08,1.77.69.93,1.81-.44.59-.89,1.24.23,1.11,1.62-.19,2.27,1,3.34,1.68s2.72.85,2.88,2.78c0,.58,1,1.35,1.73,1.53.92.24,2-.06,2.6,1,.72,1.19,1.93.91,3,1.16,1.36.32-1.14,1.24.12,2.07s2.51,1.87,4.24,1.89c.81,0,1.83-.55,2.27,1,.61,2.16,1.52-1.41,2.4-.07a6.73,6.73,0,0,0,.53.75c1.38,1.58,4.24,4.1,5.31,4.2a7.54,7.54,0,0,1,4.54,2.37c2.2,2,5.42,2.41,7.63,4.55.44.42,1.6.16,2.41.11a1.32,1.32,0,0,1,1.23.66,3.24,3.24,0,0,0,3.45,1.37c.46,0,1.19-.17,1.29.4.31,1.73,1,2.69,2.87,1.82-.08,2.73,3.09,1,3.76,2.76,1.67-1.52,2.83,0,3.78.88,1.46,1.33,2.39,2.35,4.81,1.33,1.51-.63,4.12.32,5.75,1.33s3.11-.12,4.62,1.15c1,.83,3.16.26,4.8.32s3.12-.28,4.48.77c1.17-1.48,2.8-.7,4.18-.71,1.54,0,3.37-.81,4.59.94,1.06-1.57,2.8-.56,4-1.08s1.48,1.9,2.89.36c.62-.68,2.5-.24,3.81-.27s2.61.42,3.43-.11c1.21-.78,2.37.07,3.48-.52s2.39-1.27,3.81-.85c1.53-2.1,4.25-1.79,6.25-3.08s3.62-3.4,6.41-2.58c.7-1.53,2.4-.43,3.44-1.37,1.41-1.27,2.29-3.17,4.52-3.55,1.88-.32,2.86-2.23,4.58-3.15a16.86,16.86,0,0,0,5.19-4.42c1.59-2,2.29-4.49,4-6.41s.43-5.29,3.52-6.44c.13,0,.18-.84.06-.91-1.65-.94.09-1.81,0-2.7-.11-1.36.49-2.61.64-3.94.09-.79-1.06-1.62.24-2.64.57-.44,0-2.43,1.83-2.58.36,0,.29-.41-.12-.68-1.6-1,1.32-3.37-1.18-4.19-.47-.15-.41-.39-.12-.7,2-2.17-.57-5.23,1.42-7.4-1-1.19-.17-3.1-1.55-4.11a12.74,12.74,0,0,0-2.42-1.41c-1.54-.68.79-1.7-.13-2.08s-1.61-.42-1.69-1.79c-.11-1.69-2.69-2.3-2.41-4.39-2.55-.17-2.63-2-2.5-3.87a1.64,1.64,0,0,0-.61-1.25c-1-1.2-2.6-2-2.44-4s-2.52-1.35-3.06-3.14c-.6-2-3-2.78-4-4.84-.64-1.41.41-4-2.55-4.07-.55,0-.46-.85-.36-1.29.39-1.74-.72-2.7-1.73-3.81s-.59-3-2.29-3.75c-.17-.07-4-5.92-4-6,.55-3.67-3.25-4.94-4.29-7.73-1.8-.11-1.75-1.31-1.76-2.69,0-1.71-.62-1.91-2-1-.6.38-.89,1.79-1.69,1.1s-2-.32-2-1c0-2.09-2-1.82-3-2.52a16.33,16.33,0,0,1-1.92-1.31,5.07,5.07,0,0,1-1.5-2.38c-.38-1.21-1.62,1.22-1.55.22.17-2.4-1.93-2.56-2.9-3.78s-2.45-1.58-3.25-2.61c-.49-.63-.63-1.59-1.54-1.19s-.78,1.29,0,2,.33,2.15,2.05,2.23c.53,0-1,1.56-.63,2.76.54,1.81.95.28,1.47.09s1.43-.24,1.55.57c.47,3.22,2.17,6.34.26,9.77a4.16,4.16,0,0,0,.38,4.63C609.27,685.83,608.83,686.65,609,687.33Zm15-20.62c-.25,1.22.88,1.91,1.13,3.06.85,4,1,3.92,4.61,7.47,0,1.91,2.31,2,2.87,3.73.71,2.21,2.27,4.08,3.66,6,1.76,2.45,3,5.27,5.42,7.22.13.1.32.27.29.37-.65,2.77,1.72,4.68,2,7.17a2.43,2.43,0,0,0,.48,1.19c2.13-2.47,1.06,1.31,2.24,1.13,2.44-.36.48,2.25,1.65,2.77,2.14.95,1.16,3.56,2.78,4.89a18.41,18.41,0,0,1,4.54,6.59c1,2.13,3.23,3.55,3.32,6.12,2.4.82,1.07,5.32,4.78,4.87.06,0,.19.24.21.39.49,2.65,2.89,3.31,4.78,4.24a42,42,0,0,1,7.51,4.8c.85.65,1.07,2.26,2.82,1.74,1.09-.32,2.12.68,3.4.62,1.89-.08,3.94-.73,5.71.62,1.43-.94,3.16,1,4.53-.47,2,2.58,4.83-2.32,6.83.69.23-.23.46-.48.71-.7.63-.56,1.08-1.75,2.17-.38.27.34,1.25.16,1.9.14,1.12,0,1.1-2.62,2.88-1.27,1.46,1.11,2.07-1.18,3.42-.94.36.06.85-.86,1.63-.79,2.93.25,4.2-3.36,7.25-3.11.68,0,.31-2.33,2.05-2,.8-1.85,2.07-3,4.21-2.9.79,0,1.14-.84,1.62-.86a3.71,3.71,0,0,0,2.74-1.86c1.05-1.35,1.73-3,2.9-4.26,1-1.07,2.11-2.16,3.22-3.16.87-.79.33-2.68,1.26-4,1.12-1.62,1.29-4.06,2.65-5.31,1.74-1.6.76-3.87,2.12-5.37.22-.24,1.08-.43.33-1-1-.86-.78-1.69.16-2.4a3.23,3.23,0,0,0,1.25-3c0-.93-.41-2,.5-2.78s.24-2.37,1.28-3.54c.68-.76.69-2.93-.19-4.19s1.24-2.27.34-3.3c-1.23-1.4-.45-2.17.59-3,.48-.36.64-1.11.41-1.28-1.72-1.31.41-2.43.11-3.74s-.62-3.36.08-4.37c1.11-1.59-.31-2.53-.28-3.78,0-1.54,1.27-2.82,1-4.06-.44-2.16-1.16-4.15.8-5.9.34-.3.24-.38-.06-.73-1.37-1.58-.18-3.53-.66-5.22-.43-1.49-1-2.9,0-4.36-1.55-1.51-.41-3.15-.47-4.76s-.42-3.63-.54-5.48c-.1-1.44.55-3-.52-4.27-.91-1.09,1.53-1.68.27-2.8-1.8-1.6-.5-2,1-2.42a.33.33,0,0,0-.1-.65c-2.3,0-1.4-1.66-1.6-2.79a31.07,31.07,0,0,1-.92-5.25c0-2.23-.12-4.21-2-5.72-.24-.19-.12-1,0-1.45.4-1.72-.64-3.09-1.22-4.51-.29-.71-1-1.29-.79-2.16.64-2.36-.29-4.68-1.19-6.5-1-2.08,0-5.14-2.82-6.34.21-2.79-3.19-4.6-2.07-7.7.11-.3-.68-1.25-1.19-1.4-1.4-.39-.29,1.19-1,1.52s-.52,1.11-.76,1.66c-1.6,3.6-4.33,6.94-2.2,11.26A34.75,34.75,0,0,0,728,611c.09,2.07-1.61,3.87-1,6.1.1.42-.92,1.07-.89,1.57.2,2.72-2.51,4.11-2.93,6.28-.71,3.65-3.12,6.43-4.22,9.77-1,3-5,3-5.34,6.2-4.1-.63-5.6,4.81-9.83,4.15-1.15-.19-1.54,2.24-3.16,1.89-2.49-.52-4.46,1.16-6,2.27-2.24,1.61-6,2.38-5.77,6.42,0,.33-.73,1.05-1,1-2.22-.43-3.06,1.64-4.35,2.57-3.19,2.3-8,3.15-8.49,8.25,0,.21-.8.43-1.24.49-.63.09-1.46-.17-1.68.61-.52,1.82-2.06,2.26-3.49,2.34a8.57,8.57,0,0,0-5.5,2.5c-2.76,2.52-4.93,3.2-9.22,2.81-.71-.07-.75.33-1.05.53-.54.34-.94,1-1.51,1.2-1.06.41-1.67-.75-2.52-1.1-1.28-.51-1.57.92-2.91.69-3.57-.61-6.91-2-10.47-2.6a8.74,8.74,0,0,1-5.16-3.24c-.47-.55,1.82-2.12-.23-1.55s-3.21,1.58-3.08-1.63c0-.68-1.31-1.39-2-2.14-.32-.36-.49-.46-.72-.1A3.93,3.93,0,0,0,624,666.71Zm-53.17-264.4c-.7-.49-1.54-.68-1.79.44-.36,1.63-1.82,2.25-2.69,3.39-1,1.32.49,3.35-1.32,4.48-.34.21.28,2.41.77,3.71.15.4.22,1.11,0,1.31-1.2,1.05-.9,1.83.12,2.83.79.77,1.79,1.33,2.15,2.6.3,1.06.83,2.78,2.47,1,.64.89.68,2.17,1.77,2.77.51.28.81,1.38,1.38.94,2.57-2,4.37.53,6.5,1,1.67.35,3.39.33,5,1.21.69.37,1.57-1.92,2.81-.41-1.75,1.21,0,1.7.48,2.48.24.39.62,1.09.49,1.24-1,1.06-.71,1.82.34,2.59a8,8,0,0,1,2.16,3.09c2,4,5,7.49,6.73,11.71.17.4,1.53.43,1.58.74.14,1-.87.44-1.31.71-.68.42-.24.78.21.92,2.71.83,4.3,3.17,5.73,5.19,1,1.44,1.75,1.93,3.27,1.82s2.82-.26,2.35,2c-.2.92.52,1,1.23,1s1.78-.07,1.66.53c-.27,1.31,1.11,2.39.57,3.37-.78,1.46.2,3.28-.59,4.22-1.29,1.55,0,2.64.24,3.74.36,2-1.39,3.67-.24,5.75a4,4,0,0,1-.52,3.7c-.64,1.05,1.91,1.43,1.65,3-.18,1.12-.09,2.28-.27,3.41-.06.44-1.3.93-.06,1.25,2.49.65,2.8,2.74,3.29,4.68.54,2.11,2.13,3.77,2.39,6.06,0,.42,2.34.82,1.55,2.14-1,1.65-.33,2.52.83,3.4a10.83,10.83,0,0,1,3.11,4.22c.33.71.4,1.61,1.14,2,2,1.07,3,2.87,4,4.77.72,1.42,1.73.92,2.17,0,1-2.11,2.72-3.6,4.3-5.21.93-1,1.88-1.89,2.82-2.83s1.86-1.92,2.84-2.82,1.62-2.43,2.56-3.39.95-2.83,2.11-2.9c2.52-.14-.95-2.09,1-2.53s.45-3.89,3.14-4.06c0,0,.18-.75,0-.92-1.61-1.7.14-2.74.83-3.84,1.6-2.54,3.52-4.91,3.19-8.18a2.32,2.32,0,0,1,.63-1.75,15.69,15.69,0,0,0,2.33-6.59c.09-1,.85-1.34,1.27-2,.2-.31.57-.37.54-1.05-.13-3.26.15-4.14,1.38-5.82s2.11-3.16,1.87-5.23a3,3,0,0,1,.53-2.29c.81-1.1.52-2.7,1.42-3.9a5,5,0,0,0,1.09-3.57c-.14-1.38,1.54-2.51.93-4.07-.79-2,1.79-2,1.92-3.1.57-4.5-.81-9.16,1.09-13.57-2.54-.9.93-3.13-.93-4.36-.28-.18-.81-2.41,1.33-2.32.47,0,.63-.93.11-.89-2.88.2-.49-3.12-2.41-3.47,1.47-.86.73-2.6,1.39-3.86.39-.75-.48-2.49-.56-3.85,0-.58,2.73-2-.42-1.89-.39-1.2,1.16-2.23.45-3.34a3.63,3.63,0,0,1-1-2.61c.14-.93-.51-1.08-1.23-1.05-1.15.05-2.78-.33-3.32.27-1,1.11-1.72-.52-2.2.05-1.2,1.42-1.85.08-2.85-.23-1.2-.37-2.95-.53-3.86.09-1.07.73-2.45.35-3.06,1-1,1.06-2.51.28-3.07,1-1.27,1.7-1.81-1.05-2.82-.24-3.43,2.78-6.14-.67-9.19-1.13-1.07-.17,2-2.23-.72-1.84a4.23,4.23,0,0,1-3.85-1.64c-1-1-1.81-2.17-3.42-2.6-1.11-.29-2-1.38-3.13-2-1.31-.69-2.56.69-3.49-.5s-2.26,1.39-2.66.19c-1-2.89-5.32.2-5.63-3.43,0-.05-1-.25-1.29.26-.56.87-1.41.69-2.22.69-1.33,0-2.67.06-4,0a6.31,6.31,0,0,1-3.26-.59c-1.13-.65-1.46,1.89-3,1.63a3.9,3.9,0,0,0-2,0c-1.72.68-3.75.52-5.21,1.91-1.74,1.67-3.2,3.67-5.54,4.62.22,2.27-2.39,1.1-2.94,2.43-1.71-.48-2.77,1.33-4.6,1.09-3.58-.47-4.35-.09-6.76.87C572.16,402.18,571.79,403.64,570.83,402.31ZM259.72,389c-2.76-.17-2.86,0-2.75,2.69a1.88,1.88,0,0,1-.5,1.27c-1,1,.51,1.19.62,1.89.13.94-1.38,1-.76,2,2.14,3.4,3.5,7.42,6.54,10.06,2.12,1.84,2.05,4.28,3.05,6.39.27.58-1.73,1.51-.64,2.39,1.61,1.3-.94,1.66-.37,2.87s-.64,3.53.53,4.15c1.49.79,1.91,2.6,3.68,3,2.41.5,3.42,2.56,4.57,4.48,1,1.62-.65,3.64,1,5.1.59.52-.56.92-.45,1,1.47,1.19-.88,2.51-.18,3,1.69,1.25.12,2.47.36,3.59a48.56,48.56,0,0,0,3.37,9.59c.38.83,1.17,1.51,1.2,2.5,0,1.17,1.15,1.54,1.76,2.27a20.2,20.2,0,0,0,2.11,2.13,3.13,3.13,0,0,1,1.18,2.53c0,2.27,1.62,0,1.57.29-.48,2.78,2.7,2.74,3.38,4.56a8.86,8.86,0,0,0,4.95,5.07c1.2.48.56,2.56,1.83,1.8,1.76-1.05,2.1.69,2.44,1.24,1.93,3.1,6.16,2.94,8.14,5.92.23.34,1.23.25,1.87.21a2.13,2.13,0,0,1,2.13.89c.75,1.13,1.87,1,3,1.18a46.6,46.6,0,0,1,7.44,1.35c2.14.61,3.81-1.8,5.9-.63,2.8-1.78,3.81-4.77,3.35-8.33-.19-1.49-.83-3.29.63-4.71a1.36,1.36,0,0,0,.16-1.29c-1.14-1-.93-1.67-.12-2.88.47-.69-2.2-.14-1.83-2,.1-.53-1.49-1.35-.87-2,2.31-2.49-.3-3.68-1.27-5.2-.57-.91-1.27-1.55-.19-2.44.67-.56,0-.91-.24-1-1.84-.86-.63-1.95-.4-3.06s-.09-2.1,1.51-1.83c.27-2.05,2.62-1.47,3.32-2.46,1.89-2.63,4.9-4,6.74-6.6a43.65,43.65,0,0,0,3.42-5.58,1.92,1.92,0,0,0-.37-2.29c-.77,1-1.34.76-2.16-.08s-1.24-2-2.65-2-.18-2-1.59-2-3.37.5-3.61-1.94c-2.2.46-3-1.72-4.52-2.35-1.78-.75-2.13-2.93-4-3.26.23-2.25-2.38-1.12-2.93-2.45-1.71.49-3-1.1-4.58-.95-1.91.18-2.17-2.28-4.18-2.15-1.77.12-1.78-2.25-3-3.23-1.06-.85-1.55.35-1.78.22-.82-.45-.56-1.7-1.43-2.37-.57-.43-1.34-.29-1.71-.69-.89-1-2.59-.91-2.89-2.72-.17-1-1.16-1.23-2.1-.16-.39.44-1.1-.39-1.66-.63-1.13-.47-.13-2.64-1.95-2.31s-2.21-1.18-3.22-1.91c-.23-.16-.82-.22-.93-.08-1.15,1.55-1.68.18-2.56-.38a26.42,26.42,0,0,0-7.94-3.78c-1.64-.41-3.49-.42-4.95-1.26-1.65-.94-3-2.34-4.59-3.45-.47-.34-1.3-.08-1.68-.74-.25-.42-.46-.46-.72-.12-1.12,1.49-1.92.51-2.76-.35C263,389.49,260.86,390,259.72,389Zm222-110c-.69.23-1,.88-.68,1.3,1.06,1.62.07,3.15-.05,4.7a6.22,6.22,0,0,0,1,4.09c-1.7,1.39.33,2.74.06,4.18-.23,1.24,1.88.16,2,1.57.07,1.09-.39,2.2.51,3.3.64.79-1.43,1.9.09,3.18.62.51-.08,2.51.54,3.16.83.88.59,2.17,1.64,2.89,1.28.88-1.59,1.69-.2,2.74l.82,2.82c.19.43.66,1.07.53,1.23-1.9,2.36-.9,3,1.6,2.91.11,0,.34.23.33.34-.22,1.81.72,3.37,1,5.06.1.54-1.88,1.49.42,1.53.81,0,1.55-.14,1.71,1.12.41,3.27,2.39,6.14,2.06,9.69-.23,2.38,1,.12,1.58.19.78.09,1.93-.05.64,1.19-.56.55-.19,1.06,0,1.72.55,1.77,1.82,3.34,1.66,5.31-.2,2.64-.22,2.69,1.7,2.76a14.71,14.71,0,0,0,3.93-.15c4.25-1,11.11-4.58,14-8.19,2.05-2.54,5.05-.6,7-2.47.15-.14,0,1.67,1.53,1.92,3.54.59,6.27,3.23,9.67,4.38,1.84.63,2.88,3.77,5.58,1.63.06,0,.53.3.67.54,1.2,2,2.64,1.09,4,.35,1.78-.94,3.44-2.45,5.32-2.79s1.59-2.36,3.36-2.67.48-3.86,3.14-4c0,0,0-.62,0-.94.22-2.27,2.33-4.26,1-6.76,1-1,1.59-2.63.89-3.5-1-1.23.15-2.34-.5-3.52s-.39-2.57.18-4.08c.49-1.3-2.56-2-2.46-3.58.13-2.11-1.37-3.19-1.93-4.74a21,21,0,0,0-2-4.68c-.34-.52-.06-1.71-.71-1.61-2.5.36-1.76-2.81-3.68-3.11s-2.79-2-4.1-3c-1.63-1.32-3.13-2.16-5.25-1.93-2.54.28-4.31-1.62-6.44-2.53a2,2,0,0,1-1-2.06c.12-2.05-.62-1.09-1.49-.45-.45.32-1.49.19-1.44-.71.1-1.62-.11-2.61-2.11-2.27-.93.16-1.7-.88-1.81-1.44-.39-2-1.16-2.63-3-1.55a.73.73,0,0,1-1-.67c0-1.16-.86-1-1.46-1.39a10.55,10.55,0,0,0-4.72-2c-1.53-.23-3.41-.17-4.38-1.91,0-.07-.31,0-.48,0-2.5,0-5.44.83-7.39-.21-2.66-1.41-4.55,1.52-6.78.21a3.29,3.29,0,0,1-4.7,0,.65.65,0,0,0-1,.57c0,.36.72.93.64,1-.49.61-1.08.54-1.66,0-1.18-1.08-2-1.17-2.16.77a.86.86,0,0,1-1.16.58c-1.06-.32-2.37.88-2.4.79C483.77,277.94,482.36,281,481.72,279Zm152,311.2c.67.78,1.24,1.14,1.3-.35.07-2.08-.68-4.44,2-5.58.16-3.42,2.66-5.59,4.42-8.14a1.77,1.77,0,0,0,.18-2.11c-1.46-3.38-2.82-6.85-4.07-10.28a65.66,65.66,0,0,1-3.1-9.73c-.75-3.77-3-7.08-3.85-10.88a19.17,19.17,0,0,1-.6-5.91,3.1,3.1,0,0,0-.49-2.3,7.77,7.77,0,0,1-1.51-5.86c0-.27-.19-.58-.29-.87a3.57,3.57,0,0,1-1.07.66c-1.06.22-.19,2.43-1.34,1.76-1.34-.79-1-.19-1.34.64-.26.68-.69,2-1.87,1.25-.82-.5-2-.69-2,0,.22,2-1.63,1.21-2.23,2s-1.7,1.6-2.41,2.51a2.65,2.65,0,0,1-2.63.94c-1.53-.14-2.3.62-2.89,2-.71,1.65-1.74,3.17-3.94,3-.95-.07-.95.58-1,1.26-.05.36-.24,1.06-.87.35-1.61-1.84-3.24-.31-4.25.48-2.11,1.65-3.54,4.19-6.68,4.29a1.5,1.5,0,0,0-1,1c-.34,2.81-2.33,2.69-4.36,2.62-1.33,0-2.67,0-4,0-.29,0-1.12,0-.45.84,1.09,1.33-1,2.31-.41,3.82,1,2.7-1.14,4.8-2.66,6.24s-3.31,3.62-6.14,3.1c-.51-.1-1.52,0-.65.91a4.8,4.8,0,0,1,1.63,3.38c.06,1.59,2.39,1.35,3.22,2.53a10.25,10.25,0,0,1,1.62,2.82c.51,1.72,2.15,2.67,2.66,4.33,3.46.57,5.12,4.22,8.42,5,1.31.29,1.07,1.19.92,1.84a21.2,21.2,0,0,1-1.22,3c-.14.35-.92.29-.45,1.09s2.65.92.91,2.44c1.08.92.46,2.4,1.07,3.39.82,1.32,1.55,2.58,1.14,4.2,3.2,2.66,3.59,3.15,4.55,7a4.06,4.06,0,0,0,1,1.58l2,4.33c-.41,1.58.73,2.37,1.62,3.33,1.06,1.14-.36,2.93,1,4.08.42.35.38,1.5.75,1.61,2.57.72,1.56,3.94,3.59,5-.63,3,1.76,4.64,3.1,6.69a9.91,9.91,0,0,1,1.81,3.73c.29,2.29,1.6,3.75,3,5.28.31.33.78.49.8,1.38.07,2.49,2.31,7.11,4.33,9.62.84,1,1.46,1.78.15,2.82a.94.94,0,0,0,.29.65,2.38,2.38,0,0,0,1,0c.12-1.5,3-2.67.57-4.47.39-1.55-1.32-3-.12-4.71a3,3,0,0,0-.3-2.78c-1-1.73-.84-1.8.27-4.46a1.51,1.51,0,0,0-.17-1.31,1.73,1.73,0,0,1-.45-2.11c1-2.51,3.08-5,.78-7.88-.15-.19.2-.9.46-1.26,1.51-2.08,1.51-4.44,1.54-6.87.05-3.54-.64-7.15.94-10.58a8.57,8.57,0,0,0,1-5.07c-.07-.45-.24-1.27.33-1.31,2.56-.15,1.71-2.06,1.58-3.26a7.28,7.28,0,0,1,1.27-4.48c1-1.64,3.19-2.75.87-4.88,1-.81.87-1.93,1-3.05C632.15,589.88,633,589.84,633.7,590.2ZM522.56,588c-1.95-.63-1.12,1.66-2.11,2-1.59.5-3.32.77-3.74,2.8-2.19.32-3,2.45-4.55,3.51-1.12.74-2.35,1.28-2.79,2.7-2.29-.55-3,1.56-4.45,2.53-1.67,1.15-2.67,3.14-4.24,4.06-1.78,1-3.54,2.56-6,2.49-1.22,0-1.5,2.12-3.17,2-.51,0-.4.56,0,1,.62.7,2.18,1.28.48,2.46a7.69,7.69,0,0,0,2.72,1.85,3.56,3.56,0,0,1,1.22,2.41c.12,1,.75,1.82,1.31,1.9,2,.25,2.17,2.15,3,3.27,1,1.38,1.14,3.51,3.22,4,1.53.37-1.92,1.83.63,2.17,1.4.19,3.54.89,2.92,3.39,0,0,.58.33.65.26.47-.43.67-.64,1.48-.24,1.19.57.14,2.55,1.88,2.47,1.46-.06.63,2.63,2.56,2.13.35-.08.4.37.11.67-2.57,2.74,1.7,1.76,1.7,3.11.59-.14,1.57-2,1.57.34,0,1.53.6,2.76,2.14,2.68s1.69.87,2.2,1.85c1.46,2.8,3.24,3.56,6.72,3.25.69-.06,1.85-.5,1.93.8s.82,1.08,1.65,1.2c1,.14,1.4-.67,2.07-1,1-.53,1.31,1.56,2.37.47s2.24-.5,3.3-.38,1.89-1.71,3.26-.15c.82.93,1.61-1.29,3-1,1,.2,2,1.78,3.25.16.16-.21,1.42-1.77,2.68-.19.74.92,2.3-.75,3.29-.43a9.24,9.24,0,0,0,5.48-.09c2.49-.63,5.46-1.49,7.75,1.15.84,1,.85-.15.91-.67.12-1,1.12-1.13,1.39-.8,1.2,1.44,2.73.81,4.14,1,.94.1,1.85-.21,2.75.66s2.36.28,3.53,1.19a3.6,3.6,0,0,0,3.24.6c1.68-.77,1.53,1.76,3,1.58,2.19-.27,3.57,1.83,5.61,2.1.65,2.49,4.58.82,4.86,3.82a1.79,1.79,0,0,0,.93,0,1,1,0,0,0,.4-.61,9.67,9.67,0,0,1-.88-1.63c-2.31-3.46-6.64-5-8.62-8.84a4.36,4.36,0,0,0-2.19-1.84,7.83,7.83,0,0,1-3.64-3.17,78.23,78.23,0,0,0-9.58-11.51,17.7,17.7,0,0,1-2-2.61c-1.52-2.26-3.3-4.86-5.94-5.63a19.65,19.65,0,0,1-9.11-5.8c-.9-1-2-1.8-2.79-2.85-.92-1.21-1.63-1.17-3-.59s-4.38-2.08-4.63-3.75c0-.09.28-.21.33-.35.34-.95-1.62-1.61-.26-2.79a2,2,0,0,0,0-3c-.67-.75.89-1.56-.34-2.62-.83-.71,1.24-1.66,1.58-2.65s-2.6-.29-1.6-2.42c.65-1.37-.16-2.51-1.29-3.31a1.68,1.68,0,0,0-2.63.24c-1.09,1.1-2.88,1.43-3.76,2.88s-2.87,1.08-4.19,1.45c-1.11.31-3.48-1.12-4.09-2.37-1.39-2.81-4.73-3.6-5.93-6.44A1.35,1.35,0,0,0,522.56,588ZM578,556a28,28,0,0,0,0-4.49c-.25-1.51-.47-3.75-1.46-4.28-4.42-2.38-6.68-7.38-11.72-9.05-3.33-1.11-5.64-4.77-9.77-4.14-.64.1-1-.35-1.18-.73-.84-1.38-2.14-1.44-3.48-1.26-1.56.21-3.34-.78-4.66.8-1.61-1.9-3,.38-4.6.23-2.48-.24-4.22,1.34-5.65,3.1-.69.84-.77,2.29-2.29.88-.34-.31-1.12.13-1.1.59.08,1.46-1.09,2.08-1.92,2.69-5.38,4-4.69,3.73-7.1,11.66-.31,1-1.73,1.93-1,3s.33,2.1,0,3.22c-.42,1.33-.25,2.73-.7,4.19-.76,2.42-.29,5.23-.34,7.87,3.09,1.23,1.72,3.92,2,6.08,0,.27.58.51.56.74-.18,2.31,1.68,3.72,2.65,5.4s1.07,4.35,3.68,4.9c.45,3,3.08,3.18,5.14,4.25,1.3.67,2.29.05,2.35-.67.16-2,3.62-1.85,2.6-4.36a5.7,5.7,0,0,0,3.09-4.66c.19-1.22,1.41-3,2.72-2.49,2.3.9,4.53.33,6.77.47,1.4.08,3.35.92,3.76-1.7.08-.51,1.13-.36,1.62.22.37.43.84.58,1,0,.57-2,3-2.69,3.14-5.16.12-2,1.36-3.86,1.34-6.12,0-2,2.45-2.53,3.74-3.78.86-.83,2-.7,3,.28.63.62.75-.2.75-.55,0-1.3.89-1,1.68-1.15C578,561.16,578,561.15,578,556Zm-2.07,63c1.57.33,2.67-.8,3.9-1.39,2.89-1.37,4.6-4.41,7.64-5.63.17-.07.35-.62.32-.64-2.06-1.39.36-2.48.27-3.77s-.64-3,.94-4.07c-1.79-1.4-.41-3.5-1.08-5a14.46,14.46,0,0,1-.95-5.6c0-1.14-.5-.6-1.14-.26-2.33,1.26-5.05,1.25-7.52,2.27s-5.37-1.44-8.12.08c-.25.13-.81-.37-1.25-.51-2.54-.82-2.29-.52-4.06,1.68-1.12,1.4-.44,3-1.72,4.36-2.59,2.7-3.34,6.64-5.73,9.54-.49.59-.09.74.17,1.08,1.88,2.44,2.18,6.62,6.87,6a5.33,5.33,0,0,1,2.39,1.26,2.08,2.08,0,0,0,3,.15c1-.93,1.72-.55,2.44.3C573.6,617.44,574.7,619.61,575.93,619Zm9.52-29.91c-1.68-2-3.41-3.05-3.9-5-4.81-1.18-5.15-7.33-9.75-8.79-.61-.2-.66-1-.86-1.62a10.38,10.38,0,0,0-1.64-2.81c-.53-.73-1.19-1.29-1.31.3-.07,1-2,1.63-.48,2.86.53.43.3.7-.06,1.08a19.41,19.41,0,0,0-2.94,3.75c-.92,1.6-2.81,2.54-4.31,3.73s-3.92.24-4.74,2.43a1.11,1.11,0,0,1-.93,0c-1.82-2.36-4.91.3-6.79-1.74-.23-.25-.76,0-.66.2.81,1.76-1,3.23-.29,5.24.51,1.51,2,.85,2.21,2s-.19,2.15.42,3.33a12.75,12.75,0,0,1,1.52,8.31c-.38,1.95,1.59,3.19,1.12,5.1-.1.4.51.55,1,.08s1.2-1.13,1-2.09c-.26-1.25.75-1.91,1.5-2.34,2.33-1.32,2.42-1.23,2.49-2s-.27-1.8.66-2.21c1.9-.82.84-3,2-4.23.24-.25-.4-1.67.33-2.48a.51.51,0,0,0,0-.48c-1.25-1.05-.56-2.45.34-2.39,1.45.11,2.72-2,4.12-.33,1,1.28,2,2.22,3.77,1.08.44-.28,1.16,0,1.8.39,1.6,1,3.33.19,5,.17C579.23,590.57,581.77,588.29,585.45,589.09Zm-3.15,44.07c1.79-.19,3,0,3.32-.4,1.44-2.21,4.7-1.39,6-3.8.28-.51.83-1.23,1.56-.94,2.62,1.07,3.5-1.9,5.55-2.33,1.24-.27,2.11-3.56,1.13-4.18-2.2-1.4-1.34-4.29-3.36-5.73a2.64,2.64,0,0,1-.9-3.06c.4-1.12-1.27-2.35-2.63-2.67s-.68,1.16-1.16,1.7c-1.28,1.42-2.52,2.87-3.77,4.31.66,2.94-3.4,2.53-3.5,4.94-.46-.06-1,.16-1.37-.33-.21-.26-.9-1-1-.26-.1,1.78-1.32,1.26-2.29,1.66-2.64,1.11-5.36.86-8.07.95-.27,0-.53.3-.8.46.25.17.51.51.74.49,2.19-.16.93,3.13,2.66,2.88,2-.29,1.06,2.06,2.55,2.21s2.29,1.74,3.3,2.77A4.05,4.05,0,0,0,582.3,633.16ZM593.64,646c.71.33,1.25-.36,1.8-1a8.89,8.89,0,0,1,4.71-3c2.63-.58,3.75-3.39,6.29-4.06.58-.15.48-.61,0-1-2.09-1.86-1.92-4.84-3.41-7.06-.44-.65-1-1.19-1.35-.86-2,1.65-5,1.22-6.55,3.37s-4,2.41-6,3.53c-.62.35-1.46.08-2.25.57-1.51.94-1.6,1.3-1,2.78.47,1.07,2.31.18,2.19,2.05-.06.91,1.31,1.54,2.5,1.86s1.22,1.75,1.81,2.67C592.53,646.05,593,646,593.64,646Zm19.53,5.52c.47-.66.64-1.1-.06-2.11-1.21-1.74-3.16-3.13-3.15-5.65,0-1.55-1.32-2.5-2.42-1.74-3.36,2.31-7,4.15-10.06,7-.76.72-.61,1.38.09,2.06,1.54,1.51,2.84,3.42,4.65,4.44,1.28.72,2.15,2,3.46,2.42,1.53.49,1.82-1.84,3.13-1.89,1.07,0,1.7-.85,2.5-1.21s1.11-2,2.51-2.16Zm7.62,17c.38-1-.11-1.28-.37-1.69-1.62-2.48-1.47-5.63-3.32-8.13-1.31-1.77-1.53-2.3-3.27-1.1a17.81,17.81,0,0,1-1.91,1.41c-2.37,1.23-2.42,2.2-.89,4.49.49.72,2.2.36,1.75,1-1,1.44-.49,1.3.73,1.57.68.15,1.12,1.47,1.8,1.61,1.62.34,2.45,1.54,3.43,2.56s1.11.5,1.3-.52A2.91,2.91,0,0,1,620.79,668.59Z"/><path d="M580,486.43a21.31,21.31,0,0,1-2.81,11.92c-1.64,2.8-3.1,3.34-6.14,2.22-5.54-2-8.18-6.44-10.09-11.64-1.29-3.51-1.8-7.21-2.84-10.78-.71-2.41,1-4.84,1.49-7.28.4-2,2.39-2.26,3.57-3.39,1.33-1.27,5.32-.58,6.65.9,2.11,2.33,4.65,4.17,6.76,6.54a12.07,12.07,0,0,1,3.41,8.62C580,484.37,580,485.2,580,486.43Zm-5,0c0-1.71,0-3.05,0-4.38,0-1.61-1.62-4.23-3-5.64a6.32,6.32,0,0,1-2.05-2.64c-.4-1.26-3.6-2.12-4.5-1.64-1.66.87-2.68,3.44-2.61,5.23.07,2,1,3.64,1.2,5.51s-.46,4,1.67,5.3c-.3,2.33,1.75,3.61,2.63,5.39A3.66,3.66,0,0,0,572,495c1.16-.31,1.45-1.42,2.09-2.3C575.71,490.48,574.5,488.19,575,486.41Z"/><path d="M472.38,566c-.61,2-.43,4.71-2.46,6.63s-4.81,2.08-7.15,3.27c-1.69.87-3.28-.7-4.8-1.46-4.14-2.1-7.84-4.64-9.48-9.37a7.31,7.31,0,0,0-1.65-2.83c-2.13-2.17-2.27-3.17-1.84-6.86a2.78,2.78,0,0,0,0-.5c-.05-.93-1.58-1.34-.86-2.53s2.41-1.45,3.56-2.28c.65-.47,1.86.11,2.66-.84.3-.35,1.23-.16,1.86-.24,1.25-.16,1.42,3.1,3.26,1,.64,1.69,2.36.59,3.44,1.33s2.77.93,3.67,1.86c1.59,1.66,3.75,2.45,5.38,4.08,1,1.05-.07,1.88.42,2.54.68.92,2,1.54,2.33,2.53a6.62,6.62,0,0,0,1.88,2.71C472.94,565.4,473.06,565.56,472.38,566ZM466,567.29c0-2.66-1.36-4.46-2.42-6.43s-3.38-2-4.53-3.41c-1.57-2-3.92-1.93-5.75-2.93-2.29-1.26-2.48.64-3.55,1.24-1.66.93.14,1.63.35,2.21a34.26,34.26,0,0,0,2.71,5.33c2,3.53,4.27,6.81,8.94,7,1.36,1.6,2.29-1.29,3.83-.4C466,570.07,465.8,568.15,466,567.29Z"/><path d="M605,572.89c-.82-3.22,1.74-6.52,1-10.14,1.83-3.09,2.53-6.88,5.78-9.09.57-.38,1-.79,1.73-.66,2,.37,4-.14,6.14.82,3.43,1.5,3.54,1,4.83,3.07a23.52,23.52,0,0,0,1.27,2.5,2.83,2.83,0,0,1,.36,3.6,2.79,2.79,0,0,0,.49,3.19c.76.82-1.13,1.3-.63,2.4.72,1.56-.5,2.87-1.16,4a75.38,75.38,0,0,0-3.5,7.53c-.48,1.06.58,3.32-2,3.09-.32,1.41-1,2.31-2.64,1.84-1.55,1.87-2.84,1.25-5,.45-5.52-2.06-6.91-6-6.7-11.15C605,574,605,573.63,605,572.89Zm16-9.19c.24-1.71.25-1.72-.33-2.52A3.65,3.65,0,0,1,620,560c-.3-1-.66-2.35-1.43-2.81-1.28-.77-1.8.94-2.71,1.49a4.19,4.19,0,0,1-1.35.34c-2.33.42-3.24,2.6-4.85,3.91-1.3,1.07,1.11,1.62.46,2.84-.42.78.22,2.42-.28,2.81-2.77,2.13,1.68,4.87-.73,6.88,2,2.16,3,5.3,6.15,6.31.3.09.76.17.66-.16-.6-2,2.24-1.07,2.3-3,.07-2.17,1.36-4.34,2.27-6.45.83-1.94,2.61-3.65.62-6C620.65,565.66,621,564.53,621,563.7Z"/><path d="M511,617.58c-.8-2.25,1.25-4.15,2.31-6.07.69-1.26,3.21-1.51,4.92-2.22,1.85,1.65,4.62-.31,6.52,1.82,1.43,1.62,4.23,1.08,5.75,2.87,2.7-.54,3.75,1.75,5.13,3.21a13,13,0,0,1,3.43,8c.25,3.6-2.22,5.52-4.4,7.65a1.32,1.32,0,0,1-1.29,0c-1.46-1.4-2.76-3-4.89-.84-.43.43-1.11-.26-1.68-.61-2.51-1.52-5.07-3-7.7-4.28-.66-.33-1-.49-1.13-1.23-.13-.56-.8-1.48-1.12-1.44-2.54.35-2.65-2.62-4.16-3C510.49,620.71,511.07,619.34,511,617.58Zm24,7.08a1.45,1.45,0,0,0-1.09-1.75c-2.33-1-4.14-2.83-6-4.53-.49-.44-.89-1.2-1.44-1.32-1.36-.31-3.16.58-4-1.15-1-2.14-2.47.37-3.49-.47-.58-.48-1.13-.68-1.7-.18-.76.65-1.84,1.31-2,2.13s.84,1.46,1.9,1.66c.56.11,1,.77,1.52,1.12,1.83,1.24,2.58,4,5.4,3.83,1.47,2.33,4.42,1.41,6.29,2.87,1,.8,2.14-1.82,3.11.11l.71-.67C534.69,625.87,535.17,625.42,535,624.66Z"/></svg>