<svg xmlns="http://www.w3.org/2000/svg" xmlns:xlink="http://www.w3.org/1999/xlink" width="1080" height="1080" viewBox="0 0 1080 1080"><defs><style>.a{fill:none;}.b{fill:#f0dfd2;}.c{fill:#33ae90;}.d{fill:#f15a29;}.e{clip-path:url(#a);}</style><clipPath id="a"><path class="a" d="M551.91,571.25C555.13,547,509,385,512,326c4.07-80.12,41.59-90.88,71-105.3,26.41-12.95,39.2,36.62,64.81,56.88,28.13,22.25-18.3,67.37-4,79.76C690.48,397.65,679.39,451.48,672,470c-9.78,24.49-30,43-30,43s53,18,73.09,40.17c12.87,14.2,23.25,37.31,31,73.56,4.7,22,1.45,57.9-19.65,98.15-29.77,56.79-71-1.8-71-1.8s8.84,82.85-53.55,88.84c-51.33,4.92-74.16-26.07-92.94-36.93-30.85-17.85-44.86-47.71-51.91-63-9.66-21-16-79-16-79s-47.51,27.11-84.46,18.89c-48.56-10.8-208.4-160.91-182-187C205.27,434.4,236.29,417.61,282,436c82,33,109.38,67.67,149.17,79.37C455.28,522.46,529,586.32,551.91,571.25Z"/></clipPath></defs><title>Moth 4</title><path class="b" d="M434.69,500.06s-5.33-6.35-23.49-9-39.94,8.86-60.1-8.4c-13-11.15-17.1-35.05,2.14-70.71,12.75-23.63,44.2-43.14,55.7-66.62,13.16-26.86,15.93-64.71,6.08-71.61-1-.72-1.41,25.6-12.91,45.32-10.62,18.2-28.22,30.23-44.38,42.2-13.53,10-20.46,15.61-28.43,24.92a76,76,0,0,0-12,19.92s-21-8.24-24.47-23.8c-3.55-15.94,4.91-46.08-5.74-63.79s-33.92-28-33.65-23.21c.55,9.72,11.8,12.37,17.8,36.12,7.1,28.12-6.53,43.52.13,65.88,6.87,23.1,29.47,33.62,31.79,44.05.89,4-1.95,14.72,1.38,31.54,3.65,18.45,16.62,38.52,16.62,38.52a99.14,99.14,0,0,0-8.75,5.85c-6.86,4.87-16.46,19.08-11.89,18.93,6.64-.23,7.6-3.11,16-7.32,7.53-3.77,11.74-3.54,16.17-2.44,8.16,2,15.9,6.92,26.75,8.69s26.46-3.56,36.72.7c17.05,7.07,19.73,32.53,37,46.25L627.05,770.14s9.51-19.27,25.46-4S674.34,795,674.34,795s37.34,49,64.37,65.16c22.29,13.32,64.34,17.68,64.34,17.68s11.8-17.48,17.26-33c7.69-21.87,2-43.3,2-43.3s-38-7.4-59.91-17.57-37-37.51-54.28-47.46-151-153.61-175.61-160.68S476.58,564,467.29,553.15C450,533,482,501,470.73,466c-5.33-16.58-28.61-40.69-36.12-52.43-10.61-16.58-2.13-37.3-8.3-40.21,0,0-10.31.63-11.09,25.57-.61,19.7,21.16,43.51,25.82,62.55S441,491,434.69,500.06Z"/><path class="c" d="M422,284.85c-.38,2.39.82,5-.59,7.23-.62,1,.36,1.14.67,1.39a2.74,2.74,0,0,1,.87,3.1c-1.11,4.31-1.23,5.37-.37,9.4.1.46.4.84-.09,1.06-2.22.94-.72,2.58-.31,3.43.54,1.1,1.1,1.57.16,2.89s-1.13,3.16-1.42,4.91c-1,6.12-1.69,12.41-5.39,17.74-1,1.45,0,3.38-1.22,4.77,1.47,1.08.14,1.79-.19,2.81-1.19,3.73-3.26,7-5,10.44-.89,1.75-2.83,2.51-3.38,4.61-.32,1.23-2.09,1.95-1.77,3.79.12.67-.94.82-2,0-.61-.49-1-.09-.92.23.47,1.87-.88,2.74-1.95,3.72-2.7,2.49-4.9,5.48-8.64,6.88-1.8.68-3.46,2.76-4.3,4.6-.56,1.24-1.42,1.13-2.09,1.5a23.56,23.56,0,0,0-7.55,6.66c-.85,1.27-1.31,2.52-3.06,3.29-1.51.66-2.45,2.82-3.39,4.46-.3.52-.38,1.31-.94,1.58-3.41,1.59-4.37,5-6.14,7.88-.78,1.25-3.2,1-3,3.18s-2.49,2.1-2.84,3.22c-.76,2.42-4.53,3.35-3.22,6.74.18.48-.73,1.77-1,1.95-3.16,2.16-3.27,6.13-5.49,8.82a8.3,8.3,0,0,0-1.27,3.91c-.24,1.6-1.84,2.78-1.19,4.57.72,2-1.56,2.73-1.9,4.18s.24,3.4-.17,5a15.6,15.6,0,0,0-.93,5.11,48.69,48.69,0,0,0,.08,5,14.53,14.53,0,0,0,1.64,4.3c.84,1.54.08,3.13.58,4.75,1,3.31,3.18,6,4.47,9.16.46,1.14,1.45,2.06,1.27,3.48a1.42,1.42,0,0,0,.34,1.36c.93.91,2.48,1.92,2.49,2.9,0,1.78,2.85.65,2.18,2.59,0,.12.45.61.64.58,3.86-.6,5.56,2.82,8.13,4.5,1.45.95,2.62,1.75,4.39,1.55,1.47-.16,3.38.45,4.35-.28,1.64-1.24,2.37,1,3.88.4,1.09-.42,2.09-1.29,3.53-1.25,1.21,0,2.41-1.88,3.71.08a1.53,1.53,0,0,0,1.43,0c1.88-1.46,4.05-.89,6.11-1a3,3,0,0,0,2.18-.83.94.94,0,0,1,1.58.4c.48,2.58,1.53,1.52,2.49.43s2.16-1.53,3.41-.6a2.67,2.67,0,0,0,1.77.59c3.85-.08,7.66-.19,11.22,1.9,1,.58,2.62.12,3.95.08,1.16,0,1.78,1.54,3.08,1,2.81,2.66,7.15,2.21,10,4.95.72.69,1.81,1.34,3.08-.21,1.4-1.73,1.39-4.57,4.06-5.27-.66-4,1.4-7.35,2.85-10.82-.85-1.4-1.64-2.8.12-4.12-1.5-1.07-1.07-2.1,0-3.18.16-.17,0-.65,0-1-.1-1.38-1.9-2.71-.78-4,1.42-1.58-1.07-2.33-.33-3.85.64-1.31-1.07-2.46-1.58-3.75-.39-1,1.66-1.65.25-2.79-.85-.7-1.8-1.39-1.6-2.84s-2.06-2.26-1.83-2.59c1.72-2.49-1.74-2.81-1.73-4.62s-1.37-3.43-1.47-5.38c0-.83-2.4,1.21-2-1.15-1.93-.19-1.81-2.36-3-3.14-1.37-.91.8-2.85-1.55-3.65-1.16-.4-1.2-3.09-2.55-4.27a3.44,3.44,0,0,1-.92-2.14,32.48,32.48,0,0,0-1.59-4.24c-2.67.22-.4-2.6-2-3.21s-1-2.29-1.55-3.3c-.66-1.18.47-2.79-1.36-3.7-1.31-.66.35-2.9-1.11-4,1.05-2.37-2.08-3.63-1.45-6.16.58-2.35.1-5,.13-7.47s-.46-5.23,1.63-7.31a1.38,1.38,0,0,0,.34-1.35c-.32-2.22.92-3.9,1.67-5.82a17.36,17.36,0,0,1,6-7.93,15.46,15.46,0,0,0,1.78-1.75c.77,1.11,2,.73,3,1.08a3.45,3.45,0,0,1,1.65,2.24,2.63,2.63,0,0,1,0,2.26c-.59,1.56.6,3.25.05,5.18-.47,1.63-.94,3.88.68,5.61.47.5.12,1.2-.44,1.69-1,.83-2.19,1.73.3,2.15.14,0,.26.54.28.84.1,1.35-.6,3.12,1.78,3.18-1.33,1.49,1.29,3.06,0,4.45-1,1-.67,1.29.5,1.27,2,0,2.43.6,1.07,2.25-.58.71-.61,1.53.6,1.75.61.12,1.37,0,.62,1-1.36,1.82,1.06,3.09.75,4.77,0,.05.24.2.39.23,1,.2,2.86-.58,2.23,1.42-.38,1.22,2,1.73.38,2.82a10.14,10.14,0,0,0,2.85,3.71c1.17.8,2.08,1.46,1.89,3s1.48.75,2,1.55c.77,1.12-1.9,1.5-.31,2.87,1,.91,2.52,0,3.08,1,1.34,2.48,5.26,2.65,5.38,6.22A2.14,2.14,0,0,0,455,435a2.05,2.05,0,0,1,1.92,1.87c.07,1.57,0,2.68,1.87,1.13.34-.28,1,0,1.18.55.62,1.7.73,3.8,3.47,3.48.49-.06.18.54.06,1-.85,3.37-.13,3,1.91,7.21,1.67,3.39,4.95,5.94,5.45,9.69.45,3.35,1.8,6.27,2.88,9.34.54,1.55,1.1,3.33.74,4.8-.74,3,.35,5.56,1.31,8.2.25.7.28,1.24-.31,1.71a1.86,1.86,0,0,0-.44,2.26c1.44,2.95,0,5.88-.22,8.69A63.37,63.37,0,0,1,472,509.19c-1.75,5.27-3.7,10.49-5.3,15.79-1.17,3.87-3,7.63-2.77,11.92.06,1.18,2,2.4.16,3.64,2,1.58,1.25,4.61,3.2,6.16,1.08.87-.24,1.46-.13,1.76.33.92,1.43.34,2.17.56,1.26.39.17.79,0,1.25-.32.8.6.94.93,1.39.66.93,1.21-1.43,1.68-.19a4,4,0,0,0,1.14,2c1.11.85,1,3.31,3.37,2.5.58,1.77,2,1.81,3.54,2.19.88.22,3-.15,3.17,2.15.1,1.59,1.24-1.06,2,.14.38.63.95,1.64,1.83,1.47a4.4,4.4,0,0,1,4.64,2.11c1,1.38,2.37.79,3.62.94a19,19,0,0,1,12.46,6.12c.66.74.52,1.22-.33,1.92-2.54,2.12-5.09.54-7-.48-3.82-2-3.64-2.48-5.87-2.52a4.39,4.39,0,0,1-3.1-1c-2.05-1.84-4.82-2.22-7.29-2.84-1.6-.39-2.4-1.42-3.59-2.1-2,2.26-2.17-2-3.79-1.07-.94-1.14-2.86-.94-3.49-2.39s-2.73-1-3.15-2.61c-.37-1.44-1.52-1.87-2.75-2.3a2.12,2.12,0,0,1-1.05-1c-.67-1.3-.61-3.23-2.35-3.6s-1.22-3-3.15-3.09c-.25,0-1.43-4.63-1.19-4.93,1-1.32.52-2.28-.29-3.51-.25-.39,1.61-1.64.12-2.7-.13-.09-.33-.24-.32-.35.05-1.41-.4-2.93.9-4.06-2-1.56-.34-2.48.65-3.46.4-.4.63-1,.4-1.3-1.43-1.94.06-3,1.09-4.27,2.07-2.61,4.26-5.24,2-8.88-.36-.59.07-1.23.63-1.7,1.54-1.31,2.89-2.74,2.32-5-.29-1.18.47-1.84,1.22-2.49,1-.84,1.61-2.45,1.31-3.06-.87-1.77,1.09-1.64,1.27-2.55.14-.65-.34-.68-.83-.69s-1.18-.21-.7-.68c1.47-1.45.52-3.15.7-4.72.15-1.32-.08-2.67.06-4s-.49-2.54.55-3.79c.6-.74-1.57-2,.14-3.13.52-.35-.23-.67-.68-.67a1.08,1.08,0,0,1-1-1.72c.92-1.54.2-2.77-.35-4.09-.14-.34-1.18-.5-.34-1,2.15-1.39,1.14-2.43-.25-3.56-1.19-1,1.66-1.66.23-2.78a11.76,11.76,0,0,1-2.11-2.12,2.67,2.67,0,0,1-.1-2.33,6.35,6.35,0,0,0-2.37-6.38c-1.1-.83-2.85-1.47-1-3.32.43-.43-.44-.47-.72-.7-1.46-1.25-1.58-2.46-1.1-4.45.33-1.36-.14-1.95-1.32-.63a9.42,9.42,0,0,1-2.71-3.14c-.65-1.37-1.11-3-2.59-3.94a11.14,11.14,0,0,1-5.2-6.74c-.41-1.65-1.77-1-2.54-1.83-2.27-2.29-4.05-5.22-7.27-6.46-.39-.15-.11-.35.08-.71a2.56,2.56,0,0,0-1-3.05c-2.8-2.33-3.31-6.3-6.32-8.42.35-1.27-1.69-1.9-1-3s-1.86-1.62-.37-2.86c.66-.55-.45-1-.73-1.4-3.24-4.9-4.4-10.58-5.81-16.08-.79-3.1,0-6.59,0-9.9,1.61-.85-.18-1.48-.17-2.23,0-.58,0-1.48-1-.63a6.86,6.86,0,0,0-2,2.17c-1.48,3.89-2.34,8-4,11.83,2.53.8-.77,2.82.8,3.82-.95,1.08,0,2.46-.72,3.74-.87,1.47,1.18,2.73,1.05,4.54-.12,1.6,1.24,3.23.87,5.08a1.19,1.19,0,0,0,.46,1.3,7,7,0,0,1,2.46,4c.43,1.44,2.09,2.31,1.46,4.38-.33,1.08,1.21,2.63,1.54,4.05a3.49,3.49,0,0,0,1,2.09,19.85,19.85,0,0,1,6,10.51c.31,1.22,1.26.74,1.71,1.23s.42,1.17.76,1.66a3.55,3.55,0,0,0,1.41,1.39c1.69.63-2.75,2.59.74,2.9,1.54.14,1.6,2.28,2.35,3.46a15.35,15.35,0,0,1,1.79,3.72c.4,1.34,1.16,2.62,1.25,4,.1,1.56,1.1,2.59,1.74,3.79.84,1.56-.42,3.34.68,4.72s.62,2.55-.29,3.88c-.32.47-.09,1.46.32,2.29.75,1.52.78,4.95.63,6.91a33.36,33.36,0,0,0,0,4c.1,2.12.09,4.23-1.37,5.93-1.27,1.47-.06,3.3-.76,4.68s-2.61,2.15-2.74,3.34c-.37,3.29-2.87,5.18-4.29,7.76-.29.54-.84.88-.88,1.65-.1,1.75-.19,1.76-1.27.93-2.53-1.91-5.78-2.85-7.66-5.65-.44-.66-1.13-.53-1.78-.54-1.93,0-3.79-.16-4.37-2.57-.13-.56-.82-.45-1.3-.42-5.55.28-6.33,0-10.38-1.92-1.13-.53-1.74-1.92-2.65-1.9s-1.57,1.36-1.81,2.51c0,.15-.77.34-.81.28-1.45-2.4-3.59.22-5.39-.77a3.41,3.41,0,0,0-4.09.65c-.27.27-2.35,2.45-2.76-.57-.08-.55-.6.42-1,.48-1.17.18-2.62,1.11-2.78-1.25-.05-.62-1.13-.82-1.61-.3-2.3,2.48-5.78,1.15-8.41,2.69a3.28,3.28,0,0,1-3.22-.54c-.89-.62-1.56,1.87-2.34,1.34-1.83-1.23-4.18-.26-5.81-1.72-.91-.82-1.71-1.7-2.79-.25-.22.3-.7.21-.67-.18.16-2-1.23-1.47-2.3-1.58-.53-.05-.71-.4-.83-1a2.3,2.3,0,0,0-2.84-2,2.76,2.76,0,0,1-2.94-1.35,15.82,15.82,0,0,0-4.2-4.16c-2.22-1.59-2.8-4.31-3.75-6.46s-2.73-3.54-3.18-5.67a55.8,55.8,0,0,0-1.76-5.77c-.25-.79-1.81-1.45-.7-2.75.71-.84-1-1.32-.66-2.42.25-.84-.25-1.82-.5-2.72-.33-1.18-2.49-2-1-3.76.78-.89-1.56-2.36.46-3.53.72-.42-1.46-2,.08-3.07-.35-5.35,1.71-10.21,2.89-15.28A43.07,43.07,0,0,1,345,421.28c.79-1.46,2.29-2.5,2.58-4.28,2.45-.36,1.68-3.06,3.08-4.22s2-3.25,3.49-4.59,1.68-3.85,4.2-4.22a.89.89,0,0,0,.6-1.15c-.37-1.87,1.19-2.9,1.72-4.29s1.77-2.79,2.1-4.11c.44-1.75,2.45-1.47,2.8-3.32.26-1.35,2.86-2.22,3.2-3.61.51-2,2.49-1.69,3.4-3,.61-.88,2.39-.94,1.79-2.71a39.22,39.22,0,0,0,4.74-4.73,15.1,15.1,0,0,1,4.37-2.63c1.2-.57,2.06-.88,2-2.66s1.82,1,1.7-.18c-.2-2,2.28-1,2.2-2.57-.08-1.68,1.69-1.07,2.48-1.82a49.9,49.9,0,0,0,5.14-5.24c1.54-1.95,3.77-3.38,5.17-5.41a30.37,30.37,0,0,1,3.8-4.88c1.58-1.53,2.23-4,3.29-6.06-2.33-2.09-.24-4.39.36-6,.67-1.9,1.68-3.6,1.85-5.76.08-1.09,2.79-1.05,1.9-3.09a38.81,38.81,0,0,0,4.08-17.34c0-2.23.75-4.44-.07-6.67-.69-1.88,1.29-3.2,1.07-5.1-.14-1.2-1-2.72-.62-3.36.88-1.48.38-2.89.51-4.3.12-1.26.25-2.6-.94-3.62-.24-.21,0-.88.4-1.29a2.08,2.08,0,0,0,.06-3.05c-.82-1-.93-2.19.1-3,1.41-1.14-1.51-2.55.37-3.51a2.49,2.49,0,0,0-.82-.43,1.36,1.36,0,0,0-.85.22c0,1.78-1.8,3.24-1.22,5s-.75,3.31-.38,5.27c.33,1.72-.44,4-.83,6s-.37,3.9-1,5.55a12.06,12.06,0,0,0-.8,5.14c.06,1.12-.63,1.75-1,2.6-1.37,2.94-4.06,5.26-4.08,8.81-2.44,1.09-1.54,4.91-4.53,5.53-.39,1.73-1.55,3.11-2.2,4.6s-3,1.16-2.34,3.53c.45,1.57-2.38,1.36-3,3.09-.51,1.42-2.15,2.44-3.3,3.62s-2.31,2.41-3.55,3.53c-3,2.67-6.67,4.45-9.41,7.43-3.12.16-4.83,2.26-6.61,4.48a4.52,4.52,0,0,1-3.27,1.53c-2.66-.14-3.88,1.9-5.76,3-1.12.64-.55,2-1.5,2.08a2.32,2.32,0,0,0-2,1.17c-.74,1.26-1.44.25-2.15.1-.2,2.79-4.8,1.17-4.48,4.48A8.4,8.4,0,0,0,348,370.1c-.07.13,0,.42-.08.45-3.61,1.42-5.58,4.5-7.86,7.36a17.73,17.73,0,0,1-1.2,1.61c-1.43,1.36-2.14,3.47-4.13,4.22-2.8,1.06-2.83,4.24-4.72,6-.18.17,0,.78-.18.9-3.66,2.46-4.42,6.91-7,10.16-1.39,1.76-2,4.15-2.85,6.29-.17.43.15,1.24-.1,1.43-1.12.86-1.59,2.76-3.44,2.48a6.77,6.77,0,0,1-4.43-2.5c-.44-.58.42-1.79-.41-2.3-2.26-1.37-3.4-4.16-5.78-5.05-1.77-.66-1.17-3.19-3.12-3.1-2.42.11-2-2.5-3.5-3.4s-2.28-2.45-3.61-3.42-1.55-2.78-2.76-3.91c-1.91-1.79-2-4.49-2.8-6.81-.46-1.39.24-1.84,1.34-.58.2-.19.52-.36.56-.58.11-.48.06-1.21-.44-1.26-1.64-.15-2.19-.73-1-2.09.92-1,.35-2.21.43-3.31.11-1.33.56-3.07-.09-3.91-1.07-1.39.34-2.19.14-3.27-.11-.63.12-1.31-.81-1.5-.58-.12-2.2-.15-.3-.93.65-.26,1.09-1,1.56-1,2,.1,1.94-1.71,1.45-2.27-2.09-2.33-1.74-5.34-2.44-8-.36-1.35,1.28-3.11-.48-4.5.73-3.3-1.58-6.32-1-9.57.39-2.07-1.18-3.57-1.2-5.6,0-1.39-.9-2.68.09-4.22.4-.63,0-1.38-1.13-2.11-1.3-.87-1.33-3.32-2.8-4.6.8-2.09-1.4-2.74-2.06-4.14-1.38-2.95-3.25-5.66-4.92-8.47-1.31-2.2-4.12-2.85-5.21-5.25-.09-.2-.55-.35-.83-.33-3.08.25-5.16-1.48-7-3.58a4,4,0,0,0-3.42-1.51c-1.7,0-3.64.84-5.12-.9a.9.9,0,0,0-1.27.36,1.63,1.63,0,0,0,.1,1.32c1.12,1.56,2.32,3.05,3.51,4.55.48.62,1.36,1,1.24,2-.19,1.59.26,2.06,1.58.84a28.94,28.94,0,0,1,1,2.78c.07.26-.94.85-.17,1,2.05.36,2.34,1.59,2.71,3.38.24,1.2,1.3,2.44,2.09,3.62,2.07,3.07,4.11,6.22,5,9.9,1.92.48-1.37,1.82.44,2.56a3.06,3.06,0,0,1,1.22,2.39,8.6,8.6,0,0,0,1,3.1c.33.88-.15,2.17.33,2.84.79,1.08,1.11,2.14.4,3.08a1.73,1.73,0,0,0-.07,2.5c.92,1.41.23,3.2.39,4.82.35,3.36-.36,6.69.83,10.14,1,2.81,0,6-2.07,8.5a2.56,2.56,0,0,0-.16,3.46c.41.66-.37,3.22-1.05,3.84s-.82,1.44,0,2c1.93,1.36-1.5,3.19.46,4.49-.66.36-1.86.69-1.89,1.09-.08,1.22-.71,2.72.67,3.67,1.65,1.13,1.31,2.18.28,3.62-.89,1.24-1.7,2.79.3,4,.39.24,1,.79.62,1.19-2.13,2.41,0,4.1,1.08,5.75,1.67,2.47,2.37,5.67,4.85,7.45a7.16,7.16,0,0,1,3,3.7c.27.92,1,1.29,1.44,1.91,1,1.22,3.38,1.39,2.76,3.77,1.9-.05,1.95,1.8,2.71,2.81,1,1.38,3.9,1.37,3.2,4.08,0,.09.22.35.33.34,3.56-.27,4.21,2.95,5.88,4.91,1,1.19,3,1.33,3,3.76,0,1.07,2.54,1.92,3.48,3,1.58,1.75,2.34,4.3,3.23,6.59.31.82.29,1.73-1.3,2-2.45.43-2.34.67-1.8,3.29a11.33,11.33,0,0,1,.11,3.44c-.13,1.23-1.88,2.49-.87,3.51,1.38,1.39,0,2.25-.17,3.24-.44,3.49,1.18,6.65,1.37,10,.06,1.09,1.2,2.11.2,3.44-.77,1,1,1.7.56,2.89-.37.95,1.27,1.37,1,2.57-.77,3.19,1.88,5.22,2.92,7.78.69,1.7,1.53,3.35,2.24,5.07s.33,4.07,2.59,4.92c-.74,2.83,1.91,4.52,2.37,7.06.42,2.32,2,4.47,3.33,6.58.88,1.42.33,2.86.49,4.29,0,.24-.31.76-.47.75-3.48-.15-3.63,3.6-5.85,5s-3.13,4-4.64,6c-.18.24-.17.77-.36.83-4.16,1.23-4.25,5.51-6.32,8.31-.27.38-.45.52,0,.71.29.12.75.28.91.15,1.71-1.41,4.11-1.6,5.64-3.34,1.28-1.47,2.76-2.79,4.89-2.61,1.64.13,1.4-2,1.55-1.87,2.2,2.2,3.38-1.36,4.22-1,2.48,1.08,3.28-.66,4.58-1.8.94-.82,1,.92,1.94.69s1.08-1.3,2.07-1.07c1.7.41,3.66-.82,5.16.82,4.63-1.15,7.82,2.3,11.69,3.57,1.28.42,2.5.49,3.54,1.59,1.92,2,4.9,1.7,7.28,2.91a13.87,13.87,0,0,0,7,1.18c1.53-.09,3.34-.73,4.6.89,1.4-1.45,2.75-1.33,4.19,0,.25.23.88,0,1.3-.38,1.09-1,3-1,3.58-.36,1.42,1.8,3.21-.9,4.47.73.28.36.93-.18,1-.7.12-1,.21-1.73,1.26-.54.89,1,1.69,2,3.19.5a2.84,2.84,0,0,1,2.77-.14c1.28,1.42,2.8,0,3.54.4,1.35.78,2.58.47,3.81.47a7,7,0,0,1,4.72,1.88c1.76,1.52,4,3,4.85,5,2.07,4.85,6.54,8,8.34,13,.71,2,1.88,4.44,3.56,5.37,1.86,1-.32,3.51,2.21,3.92a5,5,0,0,1,2.58,2.56c.5,1.64,2.54,2.13,2.48,4,0,.41.84,1,1.41,1.24s2.05-.35,2.21.54c.4,2.34,3,2.07,4,3.76s1.45,4.4-.25,5.41a4,4,0,0,1-3.57-.44c-.87-.62-.91-2.29-1.69-3.17-.54-.61-2.43.81-2.43-1.39,0-1.13-2.53-.21-2-2.09-1.82-1-3.09-2.41-3-4.67,0-.59-.35-.75-.87-.94a5.84,5.84,0,0,1-2.59-2,4.51,4.51,0,0,0-2.36-2.52c-.74-.45.5-2.78-1.78-2.6-.56-4-4.81-5.6-5.87-9-.67-2.2-1.7-4.46-3.12-5.6-1.85-1.48-1.55-4-3.4-5.15-.19-.12-.14-.8-.28-.83-3.5-.73-6.16-4.09-10.15-3.27-.46.1-1.19,0-1.34.32-1.35,2.56-3.18.91-4.93.75-.87-.08-1.29-1.1-2-.81-.4.17-.39,1.45-.76,1.56-.91.26-2.19.53-2.88.1-1.24-.79-2.13-1.48-3.26.05-.15.19-1.22.23-1.26-.34-.16-1.86-.81-1.48-1.89-.65a3.26,3.26,0,0,1-3.65,0c-.55-.28-1-.84-1.6-.94s-1.37-.38-1.84.28-.91.54-1.45,0-1.13-.37-1.7.14c-1.49,1.35-2.65.58-3.76-.63-1.39-1.52-2.73-2.91-4.91-.88a2.13,2.13,0,0,1-2.65-.64c-2.1-2.46-5.79-2.48-7.93-5a1.1,1.1,0,0,0-.86-.3c-2.56.49-4.45-.53-6-2.53a1.13,1.13,0,0,0-2,.1c-.9,1.52-1.82.68-3,.52-3-.41-6.05-.28-8.69,1.85-1.69,1.37-3.88,1.83-5.94,2.54-1.89.65-3.5,2.69-5.57,3.42-1.11.39-.47,2.53-1.35,1.72-1.34-1.23-1.53.55-2.38.42-1.11-.15-1.39,1.43-2.27,1.67a9.1,9.1,0,0,1-7-.74c-.26-.14-.71-.39-.7-.55.17-1.78-.8-3.91.46-5.25s1.64-3.1,3.05-4.32a23.09,23.09,0,0,0,6.31-8.85c.53-1.32,2.8-.46,2.27-2.55-.16-.61,2.37-.23,1.94-2,1.21-.46,2.54-.8,2-2.63-.06-.19.33-.77.44-.75,1.25.22,1.69-.86,2.42-1.45-.63-.71-1.81-1.44-1.78-2.12a15.59,15.59,0,0,0-1.08-5.1c-.18-.61,0-1.25-.92-1.41-1.87-.31-2.06-1.29-1.15-2.86.38-.67-.83-1.08-.86-1.59-.08-1.45-1.7-2.41-1.13-4.07.32-.95-.17-1.55-1.3-1.49-.21,0-.5-.34-.66-.59-1.2-1.85.62-5.22-3-5.85.12-2.72-1.69-4.63-2.84-6.82-.51-1,.15-1.44.64-2.09a1.06,1.06,0,0,0-.42-1.62L300,471.94c1.51-2.45-.35-4.89,0-7.34.07-.56-1.57-.86-.29-1.83.62-.48-1.24-1.34.1-2.17.35-.22-1.23-1.09-.74-1.91,1.35-2.27-.73-4.69.11-6.63a13.23,13.23,0,0,0,.79-6.64c-.16-1.89,2-1.33,2.41-3,.37-1.5.38-1.47-.89-1.43-.65,0-1.21.07-1.48-.83-1.11-3.71-4.21-6.2-6-9.52-.55-1-1.9-.87-2.7-1.77-1.61-1.81-3.13-3.68-4.64-5.57-1.28-1.61-3.23-2.54-3.85-4.87-.29-1.11-1.66-2.09-2.74-2.82-2.78-1.89-4.44-4.65-6-7.44-1.4-2.44-3.59-4.36-4.52-7.13-.63-1.89-1.64-3.65-2.42-5.49-.42-1,.45-1.42.86-2.09.21-.32-1.4-.57-.51-1.36,1.25-1.11-1.5-1.85-.23-2.76.9-.64.51-1.88,1.39-2.44.42-.26.25-.4.14-.72-2-5.89-1.91-5.87-.29-13.25.23-1.09.37-2.31.58-3.46.88-4.86.76-9.82,1.85-14.7.7-3.18.23-6.64.09-10-.09-2.21.83-4.61-1-6.58,1.16-1.65-.24-2.5-.85-3.83-.84-1.83-2.25-3.72-1.28-6.24.39-1-.38-2.9-1.22-3.84s-1.2-2.87-2.51-3.24c-2.79-.81,1.33-1.87-.27-2.77-2-1.16-2.75-3.54-4.26-5.2-.75-.83-1.25-2-1.9-2.65-1.14-1.12-.13-2.62-1.26-3.56-1.28-1.06-2.38-2.33-3.56-3.51-1.65-1.65-3.31-3.29-4.95-4.95-2.45-2.49-2.49-2.53-.32-5.52,1-1.37,1.36-.87,1.49.58,0,.23,1.5,3.2,2-.13.1-.59.85-.31,1.32-.37a17.77,17.77,0,0,1,7.83.83c.7.21,1.25.24,1.7-.35s1-.32.94.13c-.11,1.65,1,1.29,1.95,1.41,2.23.28,4.34.68,5.16,3.33a2.17,2.17,0,0,0,2.19,1.64c1.14-.09,1.82.1,1.86,1.54,0,.58,1,.66,1.62.23.43-.29,1.22-1.26,1.17-.05a2.23,2.23,0,0,0,2,2.66.61.61,0,0,1,.35.34c1,2.52,3.31,4.22,4.44,6.59a11.16,11.16,0,0,0,2.29,3.5,6.49,6.49,0,0,1,2.28,4.49c.18,2.62,2.4,4.91,3.28,7.58a6.83,6.83,0,0,1,.5,2.28c0,4.81,1.3,9.39,2.71,13.89.31,1-1.36,1.09-.35,1.81a1.68,1.68,0,0,1,.65,1.73,5.86,5.86,0,0,1-.65,2.75c-.67,1.14,1.73.13,1.65,1.42a2.34,2.34,0,0,0,0,1c.53,1.22-1.19,2.14-.42,3.35a2.31,2.31,0,0,1-.6,3.41c1.56,1,1.06,2,.16,3.15,0,0,.57.41.65.69.32,1.19-2.86,1.22-.93,3.29.75.81.12,2.89.12,4.39v4a19.67,19.67,0,0,0,.06,4.48,42.54,42.54,0,0,0,2.88,8.8c.8,1.63,1.64-1.15,2,.17.27,1.07-.11,2.31,1.1,3.06.8.5,1.15,1.72,2.4,1.47,2.71,4.55,8.62,6.14,10.6,11.38.29.75,1,.78,1.6.47.22-.11.21-.59.4-.82,1.09-1.32,2.8-2.26,2.94-4.18.05-.71,1.63-.93.53-1.86-.34-.28-.51-.55-.25-.7,3.74-2.12,3.55-7.31,7.34-9.4a1.09,1.09,0,0,0,.41-.81c.08-.79-.07-1.54.63-2.26s1.24-.7,1.8.09c.2-.19.53-.36.57-.58a5.82,5.82,0,0,1,3.25-4.09,1.55,1.55,0,0,0,.78-1.67c-.07-.63-.17-1.4.71-1.56,2-.34,3.07-1.72,4.07-3.28s2.74-2.24,3.95-3.72a36.37,36.37,0,0,1,8.08-6.89c1.19-.79,2-1.33,2.32-2.69.15-.56,1.09-1.45,1.33-1.35,2.48,1,2.71-3.16,5.1-2.16.06,0,.28-.2.34-.34,1.09-2.59,3.71-2.85,5.85-3.79,1.41-.62,1.9-2.63,3.26-2.67,1.69-.06,2.81-1.77,4.55-1.19,1.19-3.06,5.05-2.92,6.63-5.58.92-1.56,3.39-1.52,4.08-3.23s2.2-2,3.2-3.08c2.07-2.23,4.46-4.13,5.62-7.18a7.88,7.88,0,0,1,3.26-3.58c1.27-.75,2.59-.83.94-2.53-.59-.61.21-.71.6-.73,1.17-.07,1.46-1.28,2.31-1.69,1.45-.71-.56-1.63.14-2.11s.31-1.94,1-2c1.65-.2.79-.91.92-1.81.23-1.58,1.45-3,2.32-4.49.72-1.22,2.62-1.65,2.37-3.52-.14-1.06,1.67-2.11,0-3.21-.09-.06,0-.66.21-.86a4.61,4.61,0,0,0,.79-5.87c-.17-.31.88-1.14,1.76-1.78.42-.3,1.35-1.17,1-1.28-3-.82-.74-2.37-.33-3.18,1.08-2.08.79-4.29.41-6.23a4.7,4.7,0,0,1,.19-3.2c.19-.42.64-.73.85-1.15.57-1.13-.64-3.28.77-3.46,2.42-.31.63-2.35,1.67-2.92s.33-1.85,1.06-2c1.37-.33,2.56-2.07,3.95-1.12a4.9,4.9,0,0,1,1.62,3.18C421.41,277.11,422.65,280.9,422,284.85Z"/><path class="c" d="M798.9,881c-.55-.13-1.16.13-1.81-.34-1-.69-2.63.49-3.32-.7-.88-1.5-2,.39-3-.59a5.45,5.45,0,0,0-2.91-1.31c-1.26-.2-2.49-.7-3.6-.86-1.35-.2-2.32-1-3.54-1.27-.81-.18-1.17-1-2.27,0-1.3,1.14-2.54-1.25-4-.87s-2.92-1.35-3.49-.9c-1.52,1.18-2.61-.55-3.76-.09-1.57.63-2.24-1.27-3.6-1-1.63.28-2.8-.18-3.08-2-1.33.57-1.76-1.11-3.09-1.14a10.61,10.61,0,0,1-4.92-1.18c-1.6-1-2.91-2-4.84-1.69-1.14-2.06-3.6-1.79-5.3-3-2-1.38-3.71-3.77-6.72-3-.94-1.12-3-.93-3.45-2.39-.83-2.75-2.38.26-3.4-.6a24,24,0,0,0-3.6-2.19c-3.64-2.11-6.06-5.48-9.07-8.22-2.25-2.06-4.06-4.71-7.2-5.56-.91-.25-.67-.88-1-1.38-2.25-3.92-5.28-7.38-6.9-11.64-.56-1.49-2.42-.9-2.78-2.26-.32-1.17-.7-2.11-2.21-1.78-.26,0-.77-.11-.84-.29-1.91-4.93-7-7.43-9.23-12.09-.07-.14-.16-.32-.29-.37-4.26-1.85-5.82-6.1-8.43-9.43-1-1.24-2.57-2-2.39-4.07.06-.67-1.11-1.55-1.86-2.16-.92-.75-1.11-1.37-.1-2.14-.12-.12-.26-.35-.35-.34-3.31.54-3.19-3.1-5.15-4.25-1.32-.78.56-3.13-1.19-3.77a6.73,6.73,0,0,1-3.2-2.8c-.7-1-1-2.25-1.62-3.31-.48-.81-2-1.33-.45-2.49a4.1,4.1,0,0,0-.81-.46c-2.07-.61-2.9-2.36-3.71-4.08-.73-1.54-.93-3.07.52-4.42.94-.86,1.73-.72,2,.55.19.91,0,1.49,1.3,2.1a8.31,8.31,0,0,1,4.07,4.6,20.45,20.45,0,0,0,4.81,7.06c1,1,3.07,2.32,1.16,4.4-.6.66.21.76.57.76.85,0,2.26-2,2.3.7,1.85.7,3.73,1.59,3.75,3.83,0,2,3,2.42,2.07,4.67,2.21,1,2.1,3.39,3,5.16,1,2,3.72,2.76,4.11,5.3,2.68-.46,2.74,2.92,4.54,3.25,2,.35,1.84,2,2.76,2.94.68.7,0,2.47,2,2.25,1-.11.21,1.9,2.06,2.1s2.3,3,4.14,4.1a21.53,21.53,0,0,1,4.63,4.52c1.36,1.55,3,3.13,3.58,5,.43,1.48,3.08.76,2.25,3.06-.56,1.52,1.89,1.87,2.09,3.62.13,1.19,2.16,2,2.72,3.33.42,1,.94.92,1.6,1.3,1.61.94,3.75,2,4.35,3.47,1.16,2.9,3.78,3.78,5.74,5.55.65.59,1.28,1.14,2.14.86,1.92-.64,3.34,1,5.09,1,1.25,0,1.21.76,1.2,1.63,0,2.06.61,1,1.51.45s1.49.38,2,1,1,1.11,1.82.16c.44-.53,1.18-.3,1.64.31a44,44,0,0,0,5.67,3.45c.48.08,1,.41,1.31.43,1.36.07,0,2.8,2.12,2,1-.38,1.91.53,2.73,1,1,.54,2.14-.65,3,.55.16.23,1-.07,1.44,0,1.15.28,1.39,1.89,2.68,2,.88,0,1.71,1.62,2.64.1.69,1.29,2.38.43,3,1.13,1,1.12,2.51.24,3.06,1,.91,1.31,1.68-.6,2.16.1s1.6.34,2.1,1c.61.86.9.07,1.43-.14,2.61-1,4.85,1.12,7.4,1,.76,0-.32,1.92,1,1.44,3.39-1.18,4.13-1,6.56,2.1.54.7,1.11,1.67,2.13.31.89-1.19,1.57,1.63,2.79.25.65-.72,1.74-.53,2.67,0,2.15,1.31.3-1.63,1.74-1.74.71,0,1.72-.52,2.67-.68s.56-1,.71-1.58a8.89,8.89,0,0,1,1.8-3.75c1.69-2,1.68-2,2.42-5.88A2.13,2.13,0,0,1,811,860c1.44-.4,1.91-1.35,2-2.87.3-3.27.33-6.82,4.38-8.14.24-.08.6-.58.54-.69-1-1.92-.63-2.93,1.63-3.54.92-.25-.38-.94-.69-1.27-.92-1-1.28-1.56.54-1.49.12,0,.24-.2.37-.31-1.89-1.83,1.65-2.94.63-5-.37-.74,1-2.31-.4-3.52-.36-.33.07-1.16,1-1.22,1.24-.06,1.28-1.09.66-1.66s-.48-1.52-1-2.11-1.18-1,.12-1.18c2.47-.39,2.07-1.92,1.14-3.25-.81-1.17-.62-1.74.33-2.61s.14-2.14.1-3.15c0-.72-.71-1.76.21-1.93,1.9-.33,2-1.11.76-2.16a3.49,3.49,0,0,1-1.35-3.46c.22-1.41,0-2.56-1.73-2.69,1.15-1.44-.65-2.65-.3-4.07.29-1.18-.16-1.89-1.56-1.72-.82.1-1.67,0-2.5,0-1.53.09-2.93,0-3.92-1.47-.22-.31-1-.64-1.21-.5-2.94,2.51-5.79-1.3-8.73-.08-.79.33-1-.44-1.07-1.18,0-.27-.32-.51-.49-.77-1.56,2.07-3.13.06-4.67.08-4.27.08-8-1.82-11.68-3.3-3.12-1.26-6.53-1.94-9.42-3.8-.8-.52-1.54-1.38-2.58-1s-1.27-1.86-2.34-.38c-.53.74-.72-.22-1-.42-.54-.35-1-1.22-1.49-1.18-3.54.33-5.77-1.78-7.79-4.13-.93-1.08-2-1-3.1-1-.9,0,.36-3.33-1.84-1.14a15.89,15.89,0,0,1-1.69-1.44c-1-.92-1.82-2-2.86-2.79-.65-.51-1.12-2.5-2.45-.63-1-.72-.54-1.7-.39-2.58.06-.39,1-.57.59-1s-1.1-.42-1.68.08c-1.22,1.06-1.79,1-2.15-.85-.56-3-3-5-4.67-7.45-.54-.81-2-1-2.32-2.56-.17-.93-2.05-.25-2.12-2.08-.05-1.48-2.37-1.35-3.38-2.43-.24-.26-1.09.19-1.28-.41s0-1.82-.45-2.28c-.63-.64-1,1-1.91.67a1.16,1.16,0,0,1-.84-1c-.41-1.81-2-3.1-2.06-5.18,0-1-1-2.4-2.49-.93-.49-1-2-.58-2.35-1.43-.61-1.56-.84-3.14-2.81-3.81-1.4-.47-1.21-2.86-3.13-3.14-.22,0,.15-1.61.4-1.36,1.44,1.5,2.4-.62,3.82-.32,1.73.37,2.24,1.93,3.52,2.44,3.06,1.23,4.08,4.36,6.17,6.47,1.15,1.16,2.41,2.22,3.57,3.37,1.52,1.5,3.49,2.52,4.59,4.5.47.84,1.5,1.35,2,2.16.71,1,1.87,1.27,2.83,1.69,1.67.73-.52,2.3.46,2.42,1.61.19,2.1,1.48,3.09,2.26s1.56,1.78,2.52,2.41.75,2,1.7,2.85c3.38,2.91,5.95,6.9,10.82,7.74.76,3.07,4.19,1.9,5.91,3.74a23.73,23.73,0,0,0,6.18,4.27c2.16,1.16,4.49,2.43,6.84,2.68a15.37,15.37,0,0,1,6.17,2.12c1.9,1.08,3.6,2.79,6.17,2.06,1-.27,1.34.81,1.91,1.35s1.32,1,1.67.52c1.24-1.66,2.12-.27,3.27,0s1.81,2.06,3.41.62c.53-.47,2,.57,3,1.19,1.2.74,2.58.25,3.87.27a41,41,0,0,1,7.64,1.35c.52.11,1,.68,1.7.71,1.46.06,3-.4,4.37.28-.65,2.41,1.62,3.69,2.37,5.52,1.54,3.76,1.54,7.95,3.59,11.52.43.76.61,2.37.15,2.82-1.43,1.38-.24,3.38-1.22,4.51-1.4,1.6,1.33,2.33.38,3.88-.68,1.11.88,3.39-1.79,3.65a6.8,6.8,0,0,0,.88,2.38c1.3,1.39.5,1.45-.72,1.41-1.84-.07-1.56.64-.48,1.43s.42,1.27.13,2.21c-.91,3-1.5,6.1-3.05,8.92-.51.93.33,2.26-.42,3.32-2.52,3.58-3.25,8-5.54,11.72-3.81,6.26-7.08,12.83-12.83,17.68C801.26,881,801.36,881.09,798.9,881Z"/><path class="c" d="M798.78,851c-1.75,0-2.65-1-4-1.2s-2.85-1.81-4.27-2.81c-2.54,1.9-2.61-1.28-3.83-2-.81-.47-1.63-.92-2.47-1.32,1.28-2-.94-2.39-1.5-3.55s-3.13-.47-2.73-2.81c.26-1.55-1.39-2.09-2.22-3-1-1.12-2.21-2-1.74-3.79-2.6-2-3-5.63-5.6-7.72a12.73,12.73,0,0,1-3.34-4.57,8.7,8.7,0,0,0-6-5.05,5,5,0,0,1-4-3.06,2.89,2.89,0,0,0-3.33-2.11,3.2,3.2,0,0,1-1.42-.18c-3.77-1.73-4.3-2-5.92-1.79-2.22.31-4.6-.86-6.69.74-.6.46-1.15.29-1.72-.21-.33-.29-1.07-.64-1.22-.51-2.28,2-5.81-.35-7.34,1.36-1.86,2.05-4.44.78-6.11,2.53-.57.59-1.41-.22-1.35-1.31a4.59,4.59,0,0,1,3.07-4.1c1.25-.55,2.62-1.61,4.06-.81.82.45.89-.22,1.07-.45,1.1-1.38,3.55-.12,4.3-2.2,0-.12.75-.19.93,0,2.25,2,4.38.75,6.7.05,2.9-.88,5.66.8,8.5,1.19,1.1.15,2.71-.34,3.63,1.36.67,1.25,2.19-.55,2.24-.48,1.12,1.69,3.75,1.6,4.46,3.54.57,1.59,1.31,2.52,3.09,2.32.82-.09,1.06.7,1.54,1.1,1.35,1.11,2.26,2.75,4.18,3.23a2.07,2.07,0,0,1,1.18,1.44c.18,1,.09,1.82.9,2.67s1.73-.46,1.74-.28c.1,1.92,2.9,2.54,2.36,4.51s2,2.56,1.74,2.94c-1.3,2.19.67,1.83,1.54,2.41a4.55,4.55,0,0,1,1.72,1.61c.43,1-.54,3,.52,3.15,1.83.32,1.29,1.38,1.59,2.4.59,2,3.46,2,3.94,4.28a17.6,17.6,0,0,0,2.92,2.54c1,.45,2.28.64,2.88,1.4,1.84,2.32,4.38,3.1,7.05,3.54,1,.17,1.42,1.25,2.59,1.14.63-.05.86,1.07.39,1.54C801.58,849.84,800.66,851.81,798.78,851Z"/><path class="c" d="M742.38,832.15c-1,3.06-3.21-.12-4.73.8-.59.35-1.67-.15-1.67,1.16,0,.38-.1,1.16-.74.59-1.83-1.64-4.61.37-6.29-1.7-3.44.16-4.82-3.36-7.68-4.33-.64-.22-.43-1.56-.12-2.25a.91.91,0,0,1,1.61-.09c.76,1.49,1.49-.86,2.17.09s1.82.43,2.74.58,2.52-.66,2.38,1.46c0,.44.68.62,1.19.54,2-.35,4.09.55,6.2-.74a6.13,6.13,0,0,1,4.8-.12c1.27.5,1.78.49,2.6-.45,1-1.17,1.93-1.33,2.19.63.05.42.35.84.92.26a1.93,1.93,0,0,1,3-.06c.91,1,1.26-.93,1.78-.25,1.3,1.74,3.3,2.54,4.89,3.87a1.13,1.13,0,0,1,.36.83c-.24,1.74,0,3.09,2,3.61a1.68,1.68,0,0,1,1,1.54c.2,2.66,2.15,4.86,2,7.65,0,.87,2.6,3.91,3.62,4.36a5.34,5.34,0,0,1,3.24,3.55c.44,2.19.92.71,1.65.36a1.3,1.3,0,0,1,1.67.69A22.8,22.8,0,0,1,775,858c.53,1.46-.32,2.48-1.72,2-5-1.81-11.89-4.59-13.27-11.14-.09-.42-.52-.78-.82-1.15-1.69-2.11-2.18-4.76-3.12-7.19-1.4-3.63-2.36-5.19-4.9-6.86a2.74,2.74,0,0,0-1.24-.65C747.39,832.68,744.72,833.87,742.38,832.15Z"/><path class="c" d="M324,486.29a9.67,9.67,0,0,0,0-1.24.85.85,0,0,1,.76-1,1.21,1.21,0,0,1,.9.17,9,9,0,0,1,2.11,2.12c3,5.44,7.79,9.12,12.71,12.47,2.91,2,5.71,4.36,9.22,5.42.94.29,1,2.67,2.92.89.85-.79,2,1.09,3.5,1.06,1.07,0,2.21,1.12,3.59.86,2.38-.46,4.72.37,7.18.2s5,1,7.57.83c.44,0,.73.73.52,1.19a12.23,12.23,0,0,1-1.58,2.83c-1,1.16-2.05,2-2.45-.54-.1-.65-1.07-.78-1.62-.3s.27.7.45,1c.38.67.39,1.31-.26,1.68a1.06,1.06,0,0,1-1.34-.25c-1.41-1.69-2.86-2.46-4.92-.73-1,.83-2.22-1.16-3.28-.35-1.55,1.17-2.09-.24-2.76-1S355.76,511,355,511c-1.25,0-2.58.25-3.54-.91-1.12,1.79-2.21-.06-3.2,0-1.83.18-1.83-1.3-2.7-1.94-2.33-1.74-5.56-2.36-6.55-5.68a1,1,0,0,0-.77-.48c-4.42,0-6.91-3.33-9.41-6-1.41-1.53-2-4.2-3.42-6A5.11,5.11,0,0,1,324,486.29Z"/><path class="c" d="M731.6,780c-1.19-.07-2.78.52-2.73-1.63-1.68-.44-2.9-2.19-5.21-.79-1.16.69-3.22,1.51-5,.57-.65-.34-1.13,0-1.73.36s-.63,2-2.14.89c-.95-.7-1.31,1-2,1.41s-2-.27-2.73.67-2.19.52-3.26.45c-.75,0-1.14-1-2.31-.13-.59.46-3.37,1.48-3.61-1.46,0-.46-.38-.39-.69,0-.57.75-1.34,1.07-2,.22a4,4,0,0,0-3.86-1.6,1.84,1.84,0,0,1-1.26-.52c-2.46-2.36-5.79-4-6.94-7.5a4.81,4.81,0,0,0-1.5-1.86c-.34-.34-1.7,0-1.3-.67.54-.86.51-1.13-.06-1.89-.21-.28,1-1,.88-2,0-.49.5-.28,1-.07a11,11,0,0,1,5.86,5.5c1.89,4.48,6.12,5.21,9.73,7,1.91-1.34,4,.07,6.19-.54,3.44-1,3.6-1,6.16-1.74,2.2-.67,4.3-2.55,7.11-1.3,1.11.5,2.82-.18,4.07-1.06a2.31,2.31,0,0,1,2.7,0,19.61,19.61,0,0,0,4.49,2.38c1.36.35,1.58,1.24,2,2.15C734.63,779.45,734.32,780,731.6,780Z"/><path class="c" d="M468.66,587c-1.79,0-3.64.29-4.84-1.63-.52-.84-1.54-.24-2.32-.36a6.49,6.49,0,0,1-3.51-2.36,5.65,5.65,0,0,0-1.75-1.6c-.67-.32-2,.35-2.18-.59-.7-3.09-4.26-3.87-5.14-6.88a18.62,18.62,0,0,0-3.14-6.14c-1-1.34-.14-1.73.49-2.14,1.17-.76,1.37-.09,1.82,1.09,1,2.76,3.8,4.25,5.48,6.59.12.16.92,0,.92,0,.13,3.83,4.46,3.43,5.89,5.89.66,1.13,2,.89,2.82,1.72,1,1,3.13-.38,3.53.78.5,1.48,1.15,1.54,2.37,1.62,1.86.12,1.65,2.14,2.57,3.16.64.7-.18.75-.52.78C470.33,587.05,469.49,587,468.66,587Z"/><path class="c" d="M396.71,513.65c1.66-1.31,3.74.22,4.84-1.62.14-.22,1.05-.21,1.44,0,3.06,1.65,6.61,1.33,9.84,2.78,3,1.33,5.69,3.09,8.66,4.39,1.92.84,3.42,2.91,4.31,5.09.49,1.19.12,1.74-1.3,1.69a4.31,4.31,0,0,1-2.76-.61c-2.27-1.6-4.25-3.77-7.15-4.38-1-.22-.42-2.65-1.5-1.87-1.57,1.14-2.58-.06-3.75-.2a6.42,6.42,0,0,1-3.76-1.77,1.37,1.37,0,0,0-1.29.11c-1.54,1.51-2,.82-2.51-.89-.26-.88-1.23,1.31-2.11-.1C399,515.23,397.77,514.56,396.71,513.65Z"/><path class="c" d="M796.27,813c.69,0,1.75-.11,1.66.59-.35,2.75,2.12,3.51,3.32,5.15.94,1.27,2.72,1.92,2.82,3.82,3.14.08,4.81,3.67,8.06,3.41,2-.16,2.76,1.51,3.82,2.65a.86.86,0,0,1-.81,1.34,4.12,4.12,0,0,0-4.3,1.7c-.28.4-.51.43-.7,0-.11-.28,0-.65-.15-.93s-.38-.91-.92-.27c-.91,1.07-1.58.44-2.44-.22s-.31-1.63-1-2.08c-.5-.31-1.31,1.78-1.47.14s-1.55-.89-2-1.63.06-1.69-1.24-1.65c-.94,0-1.21-1-1.89-1.45s-1.32-.71-2-1.06c1.4-.83.56-1.45-.17-2.12a7.47,7.47,0,0,1-1.72-1.79,10.5,10.5,0,0,1-.41-2.32C794.34,814.77,795.11,813.14,796.27,813Z"/><path class="c" d="M314,454.61c-.33-1.05,1.74-2.07,0-3.14,1.22-.74,1.18-2,.92-3.07-.37-1.49.67-2.41,1.08-3.57a6.56,6.56,0,0,1,1.55-2.8c1.05-.9,1.13-2.44,2.11-3.09,1.24-.84,1.2-2.23,2-3.23,1-1.2,2.45-2.14,3.71-1.69a1.62,1.62,0,0,1,.57.65c-1.72,1.67.08,4.84-2.26,6-1.43.69-2,1.3-1.72,2.77.17.93-3.47,0-1.1,2.26.31.3-.67,2.28-1.39,3.23s.18,1,.32,1.46c.33,1.11.44,2.21-.71,3.06-.63.47-1.66,1.31-1.05,2,1.48,1.54.35,1.53-.75,1.89-.22.07-.27.85-.3,1.32,0,.65.08,1.4-.88,1.39s-2.14-1.3-1.88-1.55C315.79,456.92,312.72,455.91,314,454.61Z"/><path class="d" d="M468,505.94c-.15-1.09.28-2.18-.69-3.24-.77-.83-.45-2.21-.17-3.29a1.85,1.85,0,0,1,3.07-.68c1.07,1.07,3,2,.84,3.82,1.28.7.72,2,1.09,3.05.3.8,2.29,0,1.83,1.63a11.75,11.75,0,0,1-1.21,2.5c-.25.44-1.26.75-.06,1.28,1.41.62,2.79,1.86,4.17,1.84s2.66,1.84,3.48,1c1-1,1.22-2.76,1.62-4.24.2-.76.19-1.68-1.1-1.67-.35,0-1.17-.1-.55-.76a8.51,8.51,0,0,1,2.6-2.14c.67-.28,2.17-.6,2.06,1.1s.85,3,1.2,4.54c.56,2.38.67,5.6,4.13,6.3.26.05.67.4.66.58-.07,1.08.44,1.72,1.41,1.35s.92-1.35.11-1.91c-1.1-.76,1.19-1.37-.06-2.21-.63-.43.76-1.56-.35-2.54-.77-.67,1-1.4,1-2.5s-.34-2.23.77-3.19c.68-.59-.31-2,.76-2.64.41-.26.64-1.41,1.39-.47s2.63,1.43,1.1,3.28a2.43,2.43,0,0,0,0,2.38c1.2,1.27.94,2.37.2,3.62,1.38,1.08-1.68,3,.73,3.87,0,1.39.3,2.86-.84,4a3.2,3.2,0,0,1,.9,1.63c.33,1.08.86.67.92-.19.09-1.22.86-1.37,1.63-.92s1.59,1.39,2,.57c.49-1,2.1-2.13,1.24-3.31-1.89-2.6.13-2.68,1.7-3.61,1.31-.78,1.29-.87,1.54.66.36,2.27,2,4.42.19,6.8-.44.58.25.68.7.71.8,0,1.24.2.52,1s-1.75,1.13-1.48,2.38c.13.56-2.08.91-.18,1.53.65.21,2.05.44,2.1-.55.14-2.45,1.38-4.15,2.94-5.82.61-.65-.46-2.12.79-2.55,1.62-.55,1,1.63,1.67,1.7,2.12.21,3.76,1.42,5.59,2.24.21.1.61-.1.86-.27s0-.37-.23-.71a10.88,10.88,0,0,1-1.5-2.86c-.49-1.82-1.26-1.43-2.88-1.33-2.37.14-4.58-1.65-6.68-2.91-1.13-.68-.55-2.2-.4-3.25s1.33-.57,2.09-.63a8.77,8.77,0,0,0,2.47-.07c1-.4,1.49,1.67,2.31.48.55-.8-.84-1.37-.88-2.05-.07-1-.69-1.43-1.22-2s-1.4,1.38-2.17-.1c-.33-.64-.95-1.49-1.94-1.23-1.44.38-2.11-1.4-3.6-1.06-1.78.4-.69-1.92-1.9-2.38-.24-.09.82-1.44,1.37-1.49a2.82,2.82,0,0,0,2-1.24c1-1.17,1.95-1.21,2.76.07s2.44.86,3.14,2.06c.91-1.35.43-2.87.42-4.3,0-.7-1.16-1.09-1-2.09.29-1.38-.64-1.32-1.66-1.68-1.86-.67-4.14-.57-5.47-2.51-.46-.66-1.32-1.2-.65-2,.47-.59.9-1.41,1.92-1.36a8,8,0,0,0,3-.05c1.21-.45,2,1.53,2.83.5s-1.38-1.64-1-3.05c.45-1.57-.85-1.43-1.83-1.38-.57,0-1.07-.19-1.09-.69-.09-2.19-3-2.5-3.09-4.75,0-.74-1-.56-1.67-.57S503,478,503,477c0-1.16,0-2.33,0-3.5,0-.65-.14-1.44.81-1.45.75,0,1.92-.45,2.12.59s.4,1.43,1.47,1.41c.78,0,1.71-.39,2.33.29.14.17-.64,1.11-.48,1.34.62.9,2-.23,2.63.75.31.45-.13,1.44.72,1.42.55,0,.35-.8.4-1.27.44-4.09.19-4.17-1.78-6.95-1.32-1.86-3.5-3.4-3.25-6.14-2.45-1.48.26-2.73.27-4.12,0-.56,1.53-.55,1.53,0,0,1.84,1.83,1.46,2.51,2.4.85,1.17,2.34,1.81,2.73,3.38a3.56,3.56,0,0,0,.44.81,2.65,2.65,0,0,0,.54-.68c1.27-3.78,1.93-7.45-1.67-10.47a4.12,4.12,0,0,1-.94-2.09c-.35-1.15-2.29-2.26-1.12-3.27s2.86-.56,4.43.43a14.87,14.87,0,0,1,2.28,1.65c.34.31-.52,1.9,1,.9-1.32-.83,2.12-1.33.08-2.48-2.32-1.32-2.11-4.2-3-6.37-.28-.66,1.68-3.41,2.38-3.44.51,0,.41.83.62,1a25.11,25.11,0,0,1,2.86,3.25,3.64,3.64,0,0,0,.7.52c.13-.27.39-.56.38-.83a6.51,6.51,0,0,1,2.11-4.62,6.66,6.66,0,0,0,1.91-5.22c-.15-2,1.25-3.53,1.2-5.59,0-1,1.36-2.11-.2-3.17,1.82-2.57.11-5.85,1.55-8.33.61-1.05-.51-1.29-.17-2.25.57-1.62-1.45-3.74.59-5.42-2-1.2-.13-3.74-1.86-5.3-.66-.6-.4-2.71.68-3.88-1.39-1-1-2.54-.7-3.64a7.7,7.7,0,0,0,0-5.23c-.6-1.54.42-3.52-1-5.05-.06-.07.46-.67.72-1-3.14-1.82-.88-4.15-.37-6.15.14-.57,0-2.15,1.37-2.19,1.7,0,1,1.3,1.14,2.14.17,1.26,2.66.52,2.07,2.6a7.6,7.6,0,0,0,0,4c.49,1.69,1.72,3.65.79,5-1.1,1.62,1.11,3.25-.56,4.47-.35.26-.08.37.07.73,1.69,4.05,2.7,8.17.75,12.46,1,1.08,1.44,2.14-.12,3.12.26.17.53.48.79.47,1.18,0,1.66,1,1.09,1.52-1.39,1.29-.73,2.78-.86,4.18-.16,1.69.4,3.5-.84,5,2.2,1.66-.19,3.16-.18,4.74a25,25,0,0,1-.08,5.48,16.78,16.78,0,0,1-2.43,6c-1.14,1.63-.56,3.51-1.44,5.1-.29.53.06,1.26,1,.54,1.47-1.16,2-.56,2,1.1.06,3.7-.71,4.74-4.6,5.34a3.43,3.43,0,0,0-2,1.17c-.94.94.29,2.71-1.33,3.49-.2.1,2,1.57,2.7,1.07a2.66,2.66,0,0,1,3.48,0c1,.66,2.5.82,2.73,2.31.14.93-2.05,3-3.39,3-2.61-.06-5.1,2.57-7.79.34-.65-.53-.72.3-1,.49-1.57.91-1.6,2.64-2.13,4.11-.76,2.09-.72,1.83,1.3,2.19,1.56.29,2.8-1.34,4.31-.37,1.74,1.14,2.31-1.17,3.76-1.29,1.22-.09,2.68.11,3,1.23.54,1.78-.36,3.16-2,4.41s-4.07.32-5.66,1.8c-1.31-1.5-1-.16-1.49.64-.68,1.14-2.19.61-3.22.43-2.14-.36-1.31,2-2.47,2.39.48.89.93,1.81,1.47,2.66a1,1,0,0,0,.91-.09c1.5-1.53,3.93,1.73,5.24-1.14,1.23-2.67,4.49-1.19,6.34-2.74.08-.06.34,0,.45.09.94.74.33,4.22-.8,4.91-1.33.82-2.81,1.32-4.14,2.06-1.89,1.06-4.41,1.11-5.63,3.37-.54,1-.93-.08-1.4-.3a1.61,1.61,0,0,0-2.27,1.16c-.09.83.76,1.76,1.2,2.65.24-.24.51-.71.7-.67a11.29,11.29,0,0,0,8.17-1.24c.67-.42,1.36-1.6,2-1,1.19,1.14,2.73-.25,3.84.9.71.75,1.17,3,.3,3.88-1.12,1.09-2.11,2.57-4.23,1.23-1.19-.75-2.44,0-2.62,1.69-2,.41-4,.84-6,1.22a9.37,9.37,0,0,1-1.5,0c-1.12,0-1.53.25-.53,1.29.36.37.2,1.22.3,1.85.15.94-.51,2.2.49,2.76s1.62-1.12,2.38-1.17c1.26-.09,1.83-2.75,3.5-.91a1.1,1.1,0,0,0,.61-.4c.78-2.15,2.52-2.41,4.47-2.44.78,0,1.68.39,2.36-.3s1.42-1.2,2-.27c.73,1.13-.4,1.95-1.15,2.33-2.06,1-2.95,3.36-5.14,4.27a50,50,0,0,0-6.17,3.19c-.61.36-1.6.92-1.33,1.88a11.75,11.75,0,0,1,.31,2.6c.1,1.37,2.36,1.75,3.61.87s1.91-2,3.36-2.72c1-.45,1.54-2.24,2.57-3.25s1.78-1.72,3.35-1.66a2.77,2.77,0,0,1,2.68,1.73,2.72,2.72,0,0,1-.65,2.68c-2.66,3.41-6.14,5.8-9.49,8.38A3,3,0,0,0,526,520c.14.62-.37,1.62.35,1.79s1.54-.81,1.57-1.41a2.43,2.43,0,0,1,1.63-2.24,5.2,5.2,0,0,0,2-1.17c.7-.53.37-1.49,1.51-2.11a3,3,0,0,1,3.57.55c.81.59.49,2-.46,3-2.21,2.37-4.23,4.92-6.42,7.32-.62.68-1.19,1.55-.74,2.14,2,2.55-.12,5.83,1.63,8.33.26.38.44.66,0,.7-1.58.13-3.24.72-4.7-.41-.34-.26-.85-.84-.76-1,.78-1.71-.21-3.06-.8-4.48-.12-.29-.47-.7-.69-.68-1.81.14-3.16-1.57-5-1.23-1.25.23-1.66-.33-1.84-1.56-.09-.63-1-.66-1.63-.15-1.36,1.16-1.59,3.18-3.18,4.17.33.36.68.69,1,1.07.44.56.81.34,1-.16s-.05-1,.48-1.29a1.31,1.31,0,0,1,.95-.06c.53.21.6.55.11,1-.74.66-.86,1.64.09,1.92,1.4.42,2.24,1,2.44,2.52.07.55.66.53,1,0s-.44-1.44.73-1.15c.2.05.19.87.28,1.33.25,1.25-1,1.86-1.31,3-.15.63-.35,1.84-1.26,2.32-.7-1.52-3.06-.31-3.26-1.44-.26-1.38-1.21-1.17-1.8-1.74-.9-.85-1.29-.47-1.82.2-.24-.2-.58-.36-.69-.62-.84-1.92-2.25-.94-3-.28-2.29,2-5.26,2.85-7.53,4.89-1.57,1.41-2.95.91-3.24-1-.21-1.41-.54-1.67-1.94-2-2-.51-4.6-.9-5.14-3.72-.1-.48.35-1.2.54-1,2.91,2.91,2.45-1.14,3.45-1.8a24.52,24.52,0,0,0,5.37-4.1c1-1.18-.1-1.31-.46-1.8s-1.32-.76-1.64-.13c-.77,1.5-2-.83-2.07.1,0,2.32-2.51,2.06-3.25,3.6s-2.21,1.93-3.86,2c-1.26.07-1.67,1.07-2.17,2.22-.84,1.9-1.27,1.86-2.6.56-2.77-2.7-3.09-3.37.06-5.44,2.38-1.56,3.28-4.51,6.12-5.45.91-.3.55-1.49.46-2.24s-.94-.65-1.57-.7a3,3,0,0,0-3,1.14c-.84,1.18-2.49,1.56-3.25,2.6s-1.05,2.16-2.62,2.36c-.71.09-.47,1.11-.47,1.74s-.38,1.21-.55,1c-2.9-2.94-2.26,1.3-3.49,1.76a2.88,2.88,0,0,1-3.45-.59c-1-1-.29-1.62.34-2.44,2.25-2.92,4.13-6.16,7.73-7.73.77-.33.15-1.63,1.06-2,.1-.05-.74-.45-1.32-1.09s-1.57-.47-2.09-1c-.87-.94-1.6-1-2.44,0-1.26,1.46-3.59,2-3.81,4.34,0,.29-.21.79-.37.82-3.24.53-3.7,3.8-5.52,5.7-2.14,2.23-2.46,2.59-4.25.8-.48-.48-1-.93-1.41-1.42-.67-.73-.77-1.48.25-1.91,1.87-.81,3.41-1.8,3.32-4.17,0-.55.33-.8.93-.87a3.56,3.56,0,0,0,2.82-2.45c.27-1.13,1.87-1.78,1.2-3-.58-1-1.88-.21-2.73-.57-3.51-1.51-3.68,2.89-6.05,3.35.13,1.94-2.18,2.5-2.33,4.58s-2.62,3.21-4.07,4.75c-.73.78-1-.91-1.93-.71s-.9-.71-.84-1.37a6.91,6.91,0,0,1,2.42-4.49c.92-.85,1.56-1.39.71-3-.69-1.33,1.17-.93,2-1.06a.89.89,0,0,0,.86-1c0-.92-.51-1-1.24-1.07-1.57-.13-2.47,1.29-3.85,1.59-.24,2.47-3.82,2.18-3.93,4.78-.08,1.84-2.08-1.84-2,.68,0,1-1.35,1.37-1.12,2.55.07.38-.46.49-.66.11-.69-1.34-2.23-.17-3.06-1.05-.54-.59-1.58-1.14-1.09-2s1.15-1.46,0-2.19c.32-.48.83-.4,1.31-.49,1.86-.31,2.3-2.52,4.14-3.07,1-.31-.08-1-.43-1.3-.82-.61-1.81.18-2.85-.23-.59-.23-1.26,2.4-2.78.7-.52,1.22-2.26.57-2.75,1.77-.69,1.65-2.39.75-3.42,1.43a8.93,8.93,0,0,0-3.2,4.65c-.52,1.49-1,.89-2.07.66-1.92-.43-1.94-2.24-2.94-3.3-.27-.27.11-1.32.41-1.2,2.25.89,2.28-2.25,4.09-2.18.46,0,.61-.81.43-1.24-.49-1.19-.85-.12-1.27.13-.65.38-1.14.14-1.73-.28-1.38-1-2.86-2-4.16.17-1.61-.65-3.35.34-4.94-.35-.71-.31-1.43-1.8-1.85-1.27-1.34,1.69-2.71-1-4.12.38-.94.9-2.71,1.44-3-1-.06-.46-.48-.49-.68-.12-1,1.78-2.17-.41-3.11.14a3.4,3.4,0,0,1-4,0c-1.08-.83-2.37-.39-3.56-1.22-1.42-1-3.59-.19-5.52-1.07-1.36-.62-3.14-.4-4.21-1.89a1,1,0,0,0-1.32-.19c-1.53,1.4-2.77-.34-4.14-.44-1-.08-1.71-2.26-3.23-1.6-1.31.57-1.88-1-3.38-.57-1.3.36-3.17-1.25-4.75-2.06-.71-.35-.94-1.34-1.91-1.45s-1.93-.74-1.75-1.7c.27-1.36,2.64-2.34,3.75-1.7,2.49,1.43,5.34,1.58,8,2.42,1.63.5,3.29.89,4.89,1.48,1,.37,2,1.5,2.85,1.4,1.25-.15,2,1.29,3.36.53,1-.57,1.73,1.06,2.93.64a1.92,1.92,0,0,1,1.84.31c1.18.87,3.08,1.75,4,1,1.67-1.37,2.91,2.18,4.21,0,.27-.45.36-.26.73-.05,3.34,1.9,3.69,1.48,7.46,1.83,3.48.32,7,.8,10.47,1.18.26,0,.47.44.71.68.88-2.18,2.58.21,3.42-.53,1.28-1.13,3.42.51,4-1.06s-1.53-2.29-2.42-3.4a1.35,1.35,0,0,1,.08-2.09c.62-.67,1-.42,1.82-.21,2.57.64,4.63,1.36,4.66,4.52,0,.92.86.88,1.49.75a6.71,6.71,0,0,1,5,1.17c1.24.82,1.32,1,1.57-.62.14-.86,1.27-.7,1.95,0s1-.3,1.4-.53.51-.65,0-1c-.75-.63-1.39-1.75-2.2-1.89-2.4-.39-.66-1.11-.2-1.63.66-.74,1.49-1.36.45-2.43s.39-1.27.75-1.73,1.19-.44,1.66.16a39.07,39.07,0,0,1,4,5.37c.48.9,1.28,1.45,1.68,2.29,1.08,2.32,2.79,1,4.32.9,1.23-.08,1.32-.81.94-1.64-.52-1.12-1.27-2.13-1.83-3.24-1.29-2.55-1.09-2.41.66-4.41,1.24-1.41,1.49.44,2.34.34,1.25-.14,1,.79.8,1.65-.42,1.85.16,3,1.95,3.24,2.29.28.18,1.19.38,1.62a5.34,5.34,0,0,0,4,3.39,10.65,10.65,0,0,0,4,0c1.09-.26,2.77-.84.95-2.53C467.79,507.17,468,506.44,468,505.94Z"/><path class="d" d="M545,573c5.57-48.74-23.9-134.47-28.24-178.44C510,326,513.17,324.29,515,302c2.88-35,21.53-71.53,54-68,33.44,3.64,34.32,54.63,41.72,69.67,25.28,51.33,34.11,42.19,45.6,63.25C663.34,379.8,681.1,406,677,436c-3.44,25.14-4.55,36.94-12,47-13.94,18.82-23,30-23,30s50.37,18.4,65.43,33.63C720.79,560.15,732.24,580.44,736,599c4.47,22.07,20.23,57.25,6,100-10.85,32.58-25,43.09-39,44-20.75,1.36-38-9-38-9s-3.51,45.41-19,57c-20.5,15.34-36,14.79-63,12-29-3-60-18-90-40-14.31-10.49-30.72-38.48-38.43-53.44C441.4,684,442,633,442,633s-32.71,17.17-70,19c-61,3-76-37-108-61.08-19-14.3-40-1.92-73-63.92-6.58-12.37-16.1-76.31,24-92,46-18,93.87,12.05,132.59,31.84C382.42,484.64,390,482.71,421,504,472,539,504.53,552.77,545,573Z"/><g class="e"><path class="b" d="M502.48,300.32c4.73,5.73,7.17-17.71,25.29-23.44C537.57,273.79,551,282,551,282s9.54-6.28,18.08.47c6.51,5.15,10.3,14.61,10.3,14.61S599.46,295.56,603,315c1.46,8,13,22.59,6,32-13.27,17.92-28.69,9.7-37.35,7.57-8.3-2.05-12.39-15.46-16.65-11.57-7.2,6.57-22.37,1.27-24.23.52s-11.56,9.2-32.58-7.14c-3.62-2.81,6.6-15.41,6.6-15.41S495.47,291.85,502.48,300.32Z"/><path class="b" d="M686.37,511.72s2.52-26.09-2.93-36.92c-7.46-14.84,5.84-27.33,5.84-27.33S679.7,429,666,417c-20.58-18.09-30.29-.85-35-7-3.51-4.58-2-12.64-19-15-10.41-1.44-20.52,13.44-25.72,14.91-7,2-8.2-9-21.28-7.91-5.68.45-10.71,0-12,9-1.21,8.41,21.1,21.88,25.9,21.22,5.7,7,14.72,7.2,17.1,17.78,1.32,5.9,5.54,12.58,11,13,1.3,5.52-12.39,57.45-7,65,4.82,6.76,14,7,14,7s9.64,34.11,24,55c-4.8,4.38-14.47,18.21-19,44-2.66,15.16,8.64,43.8,16,49,11.79,8.33,18.31-9.85,22-21,5,2.17,13.38,4.62,23,7,7,1.73,16.17-4,22-8,10-6.8,16.79-23,15-42,9.16-7,28.39-32.88-10-99C698.36,505.12,685.32,509.57,686.37,511.72Z"/><path class="b" d="M250,411.13c-1.08,9.82-1.12,8.32-2,9.87-29.38,51.2,23,68,23,68s-.07,9.61,2,14c2.72,5.76,3,8,3,8s-2.48,11.15,3,19c7.24,10.37,8.41,20.06,20,22,10.81,1.81,18.37-13,19-23,8.3.2,10.26-7.39,11-12,1.72-10.71-12-29-12-29s20-3,20.08-31.19c.06-20.38-36.24-42.19-29.65-47.26C316.11,402.87,250.64,405.41,250,411.13Z"/><path class="b" d="M440.2,640.11s-26,29-33.81,24.12c-20.07-12.61-19-6.17-22.39-9.23-6.37-5.7-13.49-10.79-24-24.53-5.59-7.3-21.78-22.34-20-26.47-10.49-2.6-15-2.3-15-8,0-7.43,6-17.09,11-21-10.07-28.9,9.19-52.1,30-48,17.88,3.52,24.62,28.45,29.24,39.8,3.75,9.22,13.8,7,20.56,10.66,8.74,4.76,13.15,18.11,13.15,18.11A21.16,21.16,0,0,1,449,595c5.39,2.73,14.79,17.46,22.4,24.07,5.44,4.72,8,2.29,12.6,9.93,9.87,16.36,13,21,13,21s14,.22,24.09,8.28c10-3.08,37.12-11.23,70.15,5.3,5.59,2.8,16.61,15.4,11.88,34.5-3.46,14-5.87,26.25-16.12,33.92a37.55,37.55,0,0,1-22,7c-1.68,6.15-3.42,9.66-12,17-11.78,10.08-35-10.31-35-10.31S491.43,758,461,731c-6.77-6-7.49,5.71-29.6-21.6C405.11,676.9,440.2,640.11,440.2,640.11Z"/><path class="b" d="M538,627.77c0,4.6,0,7.65-13.11,4.18-14.92-4-16.24-6.63-14.92-12,1.95-7.87,4-4.34,11.39-3.77C532.32,617.08,538,620.34,538,627.77Z"/><path class="b" d="M457.11,583.05c-8.51-3.68-12.91-3.14-16.84-7s2.56-11.4,6.09-13.34,20.22,7,20.64,12.25C467.45,580.68,462.14,585.22,457.11,583.05Z"/><path class="b" d="M612.7,591.86c4.33-1.56,2.46-2.18,4.78-15.52,1.61-9.3-4.06-15.49-9.43-14.4s-6.17,7-5.43,14.43C603.64,586.59,609.47,593,612.7,591.86Z"/><path class="b" d="M575.32,487.94c1.07-8.08-2.38-10.52-6.81-13.75s-10.6,1.58-11.57,5.49c-3,12.25,10.59,24.15,13.39,24.66C574.29,505.06,574.31,495.52,575.32,487.94Z"/></g><path class="d" d="M521.17,542.76c13.3-12.49,29.48-10.34,41.07-4.69s16,13.27,15.13,21.38c-1.5,13.55-9.37,11.6-9.37,11.6s-1.28,12.68-6.74,16c-4.94,3-15.29,1.78-15.29,1.78A24.87,24.87,0,0,1,530.7,598c-13.55,2.22-22.68-16.58-21.92-27.7C509.84,554.8,515.52,548.06,521.17,542.76Z"/><path d="M539.86,528.66a26.5,26.5,0,0,1-.87-6.11c0-.55-1.32-.49-.62-1.44,1.24-1.68.14-3.17-.15-4.86s-1.83-3.76-.88-4.84c1.74-2-.89-2.85-.42-4.4a3.3,3.3,0,0,0-.53-3.25c-.44-.51.05-1.54-.27-2.52-1.07-3.27-.65-6.9-2.12-10.13,1.79-2.57-1.62-4.3-1.07-6.78.28-1.27-1.83-2.68-.7-3.93,1.44-1.59-1.51-2.5-.23-3.81-1.9-1,1-2.35-.37-3.54-1-.93-.66-2.69-1.09-3.69-.55-1.24.05-2.91-1.46-4-.62-.45,1.51-2.31-.53-3.41-1.48-.81.24-2.89-1.08-4s.37-3-1.07-4.05c-.9-.66,1.4-1.38-.09-2.17a2.22,2.22,0,0,1-1.34-2.42,4.59,4.59,0,0,0,0-2.47c-.37-.85-1.39-1.42-1.78-2.27a5.44,5.44,0,0,1-.15-2.43,15.07,15.07,0,0,0-1.63-8.34,9.24,9.24,0,0,1-1.27-4.41c0-1.4-1.49-2.71-.16-4.22.38-.44-.14-1.12-1-1.2-1.22-.1-1.21-1-.63-1.71,1-1.21.44-2.16.14-3.46-.69-3.05-1.06-6.16-2.43-9,1.42-4.07-1.36-7.78-1-11.76.17-1.94-2-3.7-.88-5.52s-.84-3.17-.12-4.74c-1.72-1.54-.16-4.07-1.33-5.39s1.42-2.21,0-3.23.08-1.87.25-2.82.64-2.35-.39-3.28a2,2,0,0,1-.46-2.26c.74-1.64.15-3.13,0-4.71a18.22,18.22,0,0,1,0-5.47c.39-1.84-1.32-2.88-1.15-4.61.14-1.52.68-3.28-.88-4.64a1.9,1.9,0,0,1,.06-1.87c.92-1.06,1.19-1.49-.57-1.54-.55,0-.25-.54-.05-1,.43-1,1.41-1.69,1-3.14a9.74,9.74,0,0,1,0-2.79c.06-.94-.42-1.93.19-2.83-1.58-1,.69-1.38.37-2.32a2.93,2.93,0,0,1,.08-2.39c1-1.18,1-1.44-.62-1.55-.62,0-.79-1.07-.3-1.61,1.32-1.47.33-2.94.37-4.43.05-1.95.05-3.88.05-5.83a24.37,24.37,0,0,1,.35-3.77c.21-1.23-.55-2.69.86-3.64-1.37-1.11.3-2,.18-3.12-.14-1.31.1-2.67,0-4a15.85,15.85,0,0,1,2.27-10c1.06-1.78-.2-4.05,1.75-5.3-1.09-1.62-.78-3.22-.46-5.06s.46-4.24,1.64-5.79c.5-.65,1.26-1.2.57-2.06-.42-.52-1.14-1.35-.7-1.62,1.33-.82-.23-2,.39-2.54.91-.84.2-1.94.7-2.72a8.94,8.94,0,0,1,1.75-1.78c.81-.7,1.44-1.32.13-2.16a1,1,0,0,1,0-1c1.6-1.5,1.55-3.71,2.47-5.49a22.09,22.09,0,0,1,2.88-4.78,14.22,14.22,0,0,0,2.61-4.44c.67-1.68,2.61-2.24,3.15-4.22.44-1.61,2.57-2.29,3.86-3.51,1.81-1.72,4.47-2.54,6-4.64.79-1.1,1.75,1.61,1.94-.16s1.19-1.34,2.07-1.25c1.58.15.54-2.76,2.6-2.07,1.29.44,2-1.26,3.59-1.15a5.46,5.46,0,0,0,3.4-1.09c1.45-1.52,3.76.31,4.91-1.65a1,1,0,0,1,1.3.24c1.44,2.3,3.74,1.75,5.8,1.66a27.76,27.76,0,0,1,11.73,1.89,7,7,0,0,1,3.08,2.14c.87,1.11,2.21,1.24,3.25,2a15.21,15.21,0,0,1,3.41,3.58c1.08,1.46,1.65,3.17,3.76,4,1.9.72,1,4,3.17,5.07-.41,3.32,3.35,5,3.25,8.16,3,2.52,2,6.88,4.59,9.59-.28,4,2.9,6.82,3.62,10.52a28.91,28.91,0,0,0,2.57,6.42c.4.85,1.13,1.49,1,2.6-.31,2.41.71,4.31,2.34,6,.78.83-.51,2.34,1.14,3.27,1.06.61,1,2.58,1.33,3.84.37,1.64.46,3.13,1.9,4.26.57.45.39,1.18-.19,1.67-.42.36-.6.92,0,1,2.47.39,2.46,2.84,2.92,4.24.61,1.87,3.07,2.51,2.71,5a3,3,0,0,0,2.33,3c1.14.27.33,2.53,1.73,3.71,2.07,1.74,3.59,4.13,5.4,6.19.39.45.16,1.12.41,1.31,1.48,1.14.5,2.87,1.07,4.08s2.84,2.34,2.71,3.28c-.3,2.3,1.54,2.65,2.48,2.87,1.84.43,1.9,2.5,3.69,3.05,1.4.42,2.11,2.34,2,4s2.06,1.92,2.14,3.67c0,1.13.79,0,1.22-.19.64-.34,1.36-.32,1.65.37,1.2,2.87,3.86,4.63,5.4,7.26.63,1.08,2,1.73,1.65,3.34,0,.22.28.78.42.77,3.67-.17,3.54,3.41,5.16,5.24a13.74,13.74,0,0,1,3.45,7.07c.16,1,1,1.89,1.52,2.86,1.67,3.3,3.88,6.37,4.42,10.16,1.92,1.23,1.4,3.88,3,5.23a2.86,2.86,0,0,1,1,2.62,3.44,3.44,0,0,0,.34,1.85c.58,1.14,3.13,1.3,2,3.11s1.6,2.48.67,4c1.55.79-.4,2.39.81,3.37.52.42.22,1.19-.36,1.66a1.82,1.82,0,0,0-.38,2.26c1.62,1.74.25,3.95,1,5.6a11.41,11.41,0,0,1,.87,5.63c-.07,1.72.6,3.58-.92,5.13a2,2,0,0,0,0,1.91c1.5,1.61.19,3.55.77,5.36.5,1.57,1.08,3.94-.79,5.53,2.43,2.61-.27,4.6-.85,6.83-.48,1.82.48,3.95-1.18,5.51,1,5.49-3.07,10-3,15.25-1.73,2.07-1.55,5-3.54,7.06s-2.41,5-4.18,7.28c-1.12,1.44-3.06,2.35-3.31,4.51s-2.94,2.49-3.18,4.7A2.15,2.15,0,0,1,658,496a2.19,2.19,0,0,0-1.93,1.89c-.49,3.06-2.53,5.07-4.56,7.12-1.17,1.17-3,2.22-3.29,3.61-.37,1.59-2.74,1.12-2.36,3,.08.37-1.28,1.22-.23,1.25,4.57.14,8.15,3.11,12.37,4,2.36.48,3.76,3.1,6.66,2.36.81-.21,2,2.81,3.07,2.36,1.87-.78,2.52.67,3.5,1.21,1.36.76,2.33,2.37,4.22,1.3.41,2.1,2.76,1.47,3.72,2.62s2.7.81,3.35,1.48c1.41,1.46,4.08-.12,4.37,1.33.55,2.8,2.42.82,3.45,1.47,1.86,1.14,3.81,2.15,5.57,3.42a30.69,30.69,0,0,1,4.12,3.7c1.31,1.35,3.7.91,4.58,2.88,1.67-.19,2.09,1.42,3.09,2.19a3.54,3.54,0,0,1,1.5,2.38c.21,1.31,1.57-1.78,1.79.22.11,1,1,1.54,1.17,2.55.29,1.45,1.06-.63,1.53-.14s.4,1.19.76,1.67c1.26,1.65,2.83,3,4,4.78,1,1.52,1.75,3.78,4,4.35.3,3,3.55,4.27,4.37,6.64s3.5,2,3.81,4.37a4.42,4.42,0,0,1-.06,2.8c-.72,1.84,1.72,1.84,1.37,2.91-.27.8,2.57,2.08-.49,2.54-.8.12,1.14,2.5,1.94,3.48s.33,1.91.69,2.74c.27.65,1.24.93.21,1.84-.49.44.39.48.68.71,1.25,1,1.36,1.6,1.1,3.42-.31,2.29.84,4.33,1.49,6.36.34,1.09-.47,3.67,2.24,3.53a3.39,3.39,0,0,1,.2,1.35c-.37,2.65.79,4.95,1.55,7.36,1.19,3.75,2.83,7.45,2.4,11.47-.2,1.94.85,3.45,1.34,5,.77,2.41,1.27,4.82,1.9,7.22a30,30,0,0,1,.83,7.13c0,1.46-.34,3,1.32,4,.83.47.51.89,0,1.44-.27.28-.19.9-.29,1.36-.27,1.26,2.27,2.4.14,3.73,1.54,1.27.11,2.39,0,3.62s1.64,2.28-.08,3.74c-.69.58,1.66,1.86.15,3,1.74,1.36-1.7,2.64-.18,3.71,2,1.44.08,2.5,0,3.73s.49,3.05-.15,3.9c-.86,1.17.07,2.3-.69,3.46-.61.93-.41,2.63-.11,3.88.34,1.41-1.64,1.77-1.07,3.1s-1,2.48-.49,3.36c.79,1.34-.71,1.76-.64,2.9.17,2.88-2.34,5.76,0,8.73.14.18-.63.47-1.11.54-.31.05-1.22.13-.42.82,1,.9.74,1.63-.13,2.44-.57.53-1.47,1-1.23,2,.79,3.22-1.43,5.36-2.54,8-.51,1.21-2.21,1.39-2,2.7.29,1.8-.84,1.82-2,2.19-.67.2-.67,1-.2,1.64a6.79,6.79,0,0,0,.7.72c-3.3.71-1.16,3.8-2.39,5.38-.32.42-.77,1.78-1.72.5a1,1,0,0,0-1.32-.31c-.59.53-1.63,1-1.49,1.83.28,1.73-.86,3-1,4.6-2.07.24-1.8,2.13-2.4,3.42-.9,1.94-3.39,1.57-4.54,3s-1,3.69-2.85,4c-1.52.28-.84,1.79-1.62,1.94-.61.11-1.07-1-2-.86-1.18.14-1.89-.05-.75,1.47.84,1.13-1.15,2.52-1.33,2.33-1.35-1.39-2.16.88-3.36.28s-2,.77-3.07.92a2,2,0,0,1-1.87-.27c-1.12-1-2.15-.88-3.45,0a3.1,3.1,0,0,1-3.63-.15c-1.09-.89-1.73-.49-2.45.34L693.52,745c-1.06,1.54-2,.23-3.17.14-3.52-.3-6.72-1-9.23-3.58-.74-.77-1-.19-1.44.24-.64.65-.93,1.28-2.19.35-1.54-1.13-3.63-1.56-4.48-3.55-.62-1.46-1.35,1.1-2.09-.12a2.91,2.91,0,0,0-1.84-1.52c-2.45-.55-3.69.3-3,2.7.49,1.59-.1,2.82-.12,4.21,0,2.05,2.26,4.1,0,6.21-.07.06.51.73.7,1.15a2.28,2.28,0,0,1-.2,2.7c-1.38,1.43-2.84,2.77-1.57,5,.3.52-.24,1-.75,1-1.22,0-1.48.77-1.18,1.59.62,1.67-1.6,2.76-.95,4.05.74,1.47-1.72,2.31-.31,3.85.52.56-2.16,1.25-1.35,2.33,1.08,1.44-1.31,1.75-.55,2.83-1.2.53-.83,2-1.71,2.83A35.37,35.37,0,0,0,654,782.7c-1.33,1.92-3.3,3.17-4.22,5.67-.81,2.19-2.66,4.21-4.07,6.28-1.64,2.39-4.17,4-6.74,5.35-1.63.88-2.9,2.75-5.17,2-1.11,1.36-3.13.39-4,1.12-1.34,1.19-3.4.12-4.3,1.83-1.42-1.72-2.6.06-3.41.58-1.29.85-1.88-1.57-2.81-.32s-2.11.76-3.19.75c-.89,0-1.75,1.83-2.72.07-.09-.17-.93-.18-1.3.34-1.11,1.57-3.35-.35-4.41,1.42-1.26-1.12-2.33-.7-3.63.14-.82.54-1.41-1-2.53-1s-1.75,1.51-2.37.68c-1.51-2-2.65,1.53-4.26,0a2.91,2.91,0,0,0-4.34.35c-1-1.85-2.54.1-3.42-.4-1.63-.92-3.22-.34-4.8-.5a25.32,25.32,0,0,1-4.14-.84c-2.09-.55-4.29-.37-6.34-1.68-1.83-1.16-4.3-.39-6.41-1.4-1.36-.65-2.71-1.34-4.08-2-1.3,2.15-2.63.16-3.68-.22-1.41-.51-2.21-2.25-4.22-2-.64.08-1.39-1.27-2.17-1.86s-1.18,1.25-2.39.51c-1.42-.86-3.22-1.08-4.71-1.87a71.9,71.9,0,0,0-7.17-3.21c-1.56-.62-4.16-.18-4.15-3.05-2.38.49-2.92-3-5.43-2.44-1.73.39-3.44.18-4.08-2-1.62.74-2.61-1-4.08-1.09-1.15-.09-2.81-.65-3.25-1.52-1.16-2.25-2.76-2.78-5-2.41a1.51,1.51,0,0,1-.83-.29c.59-2.8-3.55-.54-3.22-3-1.72-.57-2.26-2.62-4-3.18-.58-.19-1.59-.4-1.63-.71-.28-2.15-2.62-2-3.64-3.39-.55-.75-.93-2.49-1.23-2.2-2.19,2.14-1.37-.75-1.8-1.12-.77-.66-1.72-.84-2.45-1.38-1.58-1.18-1.69-3.88-4.21-4.15.12-2.2-2.41-1.63-3.2-3.08-.66-1.21-2-2.06-2.42-3.51-.08-.28-.47-.7-.68-.68-2.49.23-3.16-2.11-4.69-3.08-1.32-.83-1-2.22-2.16-2.91a16,16,0,0,1-3.21-3.12,10,10,0,0,1-2-3.16c-1.84-5.2-5.71-9-8.72-13.37-1.08-1.59-.58-3.84-2.7-5-1.82-1-1.3-3.41-2.26-5s-1.82-3.25-2.72-4.87c-.77-1.39.44-3.35-1.29-4.47.59-2.6-.73-4.65-2-6.65-.53-.83-1.24-1.44,0-2.22a1,1,0,0,0,0-1c-1.28-1.42-3.35-2.61-1.13-4.85.06,0,0-.29,0-.34-3-2.09-3-5.64-3.33-8.56-.32-2.74-.73-5.11-2.44-7.22,1.94-1.24-.74-2.34-.12-3.7a3.77,3.77,0,0,0-.29-2.81c-1-2.35-.67-3.44-.74-5.91,0-1.24,1.76-2.18.24-3.79-.74-.77-.87-2.73-1.4-3.84a4.57,4.57,0,0,1-.2-4.5l-.52-4.55c.56-1.25-1.16-2.55-.45-3.32,1.46-1.63-.8-2.21-.61-3.45a5.83,5.83,0,0,1,.94-2.14c.45-.79.09-1.59-1.09-1.52-.81,0-2-.23-2.38.2-3.36,3.94-9.06,2.46-12.71,5.6-2.37-1.37-3.34,2.32-5.54,1.54-1,1.53-2-1.72-3.19.07-.53.8-1.83,1.09-2.79,1.59s-2.49.85-3.25,1.71-1.77-2-1.88.16c-.12,2.6-1.6-.81-2.16.63-.4,1-1.79.45-2.73.47a1.9,1.9,0,0,0-1.58,1A2.84,2.84,0,0,1,398,652a31.69,31.69,0,0,0-8.26,1.74c-.3.09-.73.32-.89.21-3.17-2.4-6,.13-8.93.69-1.23.24-.75-.47-.91-.9-.37-1-.86-.95-1,0-.23,2.05-1.77,1.29-2.58,1a14.74,14.74,0,0,0-3.23-.87c-1,0-2-.12-2.62.92a2.94,2.94,0,0,0-2.55-.91c-1.38.28-2.62-1.15-4.22-.07-1.1.73-2.91-.58-4.15.84-.47.55-1.08.12-1.7-.22-1.53-.83-3-2.25-5-.61-.25.2-1.7-1.07-2-.86-2.43,1.95-3.91-.5-5.84-1-1.55-.37-2-2.85-3.6-2s-2.45-1.91-3.82-.35a.62.62,0,0,1-.34.15c-1-1.5-2.66-.71-3.72-1.12-1.44-.55-3-.22-4.12-.86a25.24,25.24,0,0,0-8.24-3.08c-1.11-2.34-4-1.72-5.65-3.42a27.78,27.78,0,0,0-4.71-3.95c-.79-.51-1.46-1.14-2.31-1.61-1-.55-2.83-.56-3-2.56-.08-1.36-2.36-.78-2.71-2.27-.6-2.48-4.37-2.12-4.53-5-3.49.2-3.72-3.47-5.82-5-2.64-1.91-4.49-4.75-6.84-7-1.9-1.85-3.6-4.13-5.47-6.14-.57-.6-1.23-1.71-1.76-1.66-1.33.12-1.87-1.1-3-1.35-.95-.2-2.51-1.39-2.48-2.77,0-1.7-1.65-.86-2.28-2a13.25,13.25,0,0,0-3.32-4.05,35.25,35.25,0,0,0-4.59-3.4A41,41,0,0,0,257,590.1c-1.19-.41-.62-1.41-1.19-1.79-.83-.55-1.06,1.11-2,.69-1.39-.66-3-1.08-4.13-2-3.81-3.25-8.67-4.05-13.05-6L232,577.76c-.16-.51-.42-.83-1-.77-3.32.34-5.75-1.54-7.25-4a11.46,11.46,0,0,0-4-3.63,27,27,0,0,1-6.79-6.65c-1.64-2.09-4.32-3.32-6.1-5.43-.43-.51-2.92.06-.92-1.86.31-.3-1.91.07-1.93-1.48,0-1-.89-1.63-1.87-2-.29-.1-.69-.11-.86-.31-.9-1.05.92-3.05-1.23-3.68-1.75-.52-1.66-2-2.16-3.32-.3-.81-.06-2.77-2.09-2.74-1.22,0-.89-1.5-1.39-2.25-1.47-2.18-1.4-5.26-4-6.83-.55-.33-.42-.89-.35-1.34a3.25,3.25,0,0,0-1.41-3.44c-.4-.27-.85-.74-.59-1.23,1.39-2.56-.81-4.09-1.68-6-.48-1,1.52-1.62.56-2.36s-.6-2.22-1.66-2.92a15.35,15.35,0,0,0,0-2.06c-1.61-7.27-2.73-14.62-2.19-22.12.14-2,1.21-4.13-.88-5.82-.18-.15-.23-.82-.11-.9,1.85-1.27-.24-3,.13-3.62,1.84-3.29-.48-7.58,2.69-10.41-.3-2.29,1.39-4.23,1.18-6.52a2.63,2.63,0,0,1,.56-2.27c2.51-2.83,2.85-7,5.67-9.64A3,3,0,0,0,193,451c1.47-4.58,3.58-6.93,8.19-9,1.23-.57,2.5-1.58,2.7-2.66.41-2.15.89-.81,1.67-.39.51.28,1.57.14,1.4-.75-.34-1.8,2.47-.61,2.19-2.62-.14-.95.76.09,1.21.25a2.33,2.33,0,0,0,2.32-.06c1.69-1.53,3.06-3.61,5.85-2.79,1.49-3.19,4.81-2,7.18-3a6.67,6.67,0,0,0,1.29-.51c3.48-2.44,7.39-2.78,11.47-2.51,1.66.11,3.88.67,4.86-.15,1.23-1,2.39.4,3.52-.71a2.66,2.66,0,0,1,3.52.74c1.15-1.17,3.22-1.4,3.89-.73,1.1,1.1,2.28-.61,3,.6.12.2.58.28.87.26,4.11-.33,8,.18,11.27,3,1.13,1,1.73-1.79,2.79-.25,2.52-.57,3.66,2.12,6,2.52a9.85,9.85,0,0,1,5.66,3.13,2.78,2.78,0,0,0,.73.64c1.24.65,2.32-2.42,3.28-.47s2.27.48,3.32,1.07,2,1.56,3.41,1.42c.48-.05,1-.11,1.32.41,1.2,2.2,3.83,2.19,5.49,3.59s3.78,1.47,5.49,2.47a57.24,57.24,0,0,0,7.91,3.86c1.58.63,2.89,2,4.81,1.66a1.62,1.62,0,0,1,1.67.8,2.87,2.87,0,0,0,3,1.2c1.41-.24,2.4.8,3.43,1.36,1.67.89,3.62,1.15,5.11,2.13s3.08,1.61,4.4,2.61c1.17.89,2.95.37,3.42,1.25.56,1.07,1.39,1.38,2.14,2a7.32,7.32,0,0,0,3.79,1.82c1.1.2,1.65,1.67,3.22,1.9,2.1.31,3.61,2.22,5.71,3,3.87,1.51,7.28,4.25,11.51,4.73,1.36.15,1.36,3.29,3.31,1.28.89.85,3,.31,2.77,2.43,1.77.62,3.65.7,5.46,1.28,1.47.48,1.67.55.51,1.55a8.2,8.2,0,0,0,.62.57c.91.63,1.56-1.68,2.21-.38.39.77.38,1.55,1.46,1.37,1.68-.28,2.06,1.51,3.19,1.95s2.43.19,3.74.62c1.63.53,1.66,3.31,3.91,2.44,1.31,2.63,4.33,1.54,6.34,2.87,1.82,1.2,3.66,3.18,5.49,3.41,2.84.36,4.53,1.76,6.28,3.53,1.39-1.27,2,.08,2.82.84s1.66,0,2.34.38c1.24.64-.62,1.73-.24,1.62,2.4-.73,2.53,2.26,4.5,2.48,1.69.19,3.11,1.63,4.29,3.06s2.9,2.76,3.93,4.4c.69,1.09,2.09-2.1,2.14.63a2,2,0,0,0,2.5,1.75c1.9-.44,1,1.76,2.09,2.06s2.35.49,2.93,1.22c.95,1.19,2.26.3,3.13,1s2.68,1,2.79,2.74c4.07,1.56,7.08,5.14,11.51,6,1.27,1.72,3.11,2.58,4.93,3.56a47,47,0,0,1,5.92,3.52c1,.95,3.28-.06,3.14,2.27,0,.17.37.37.57.55,2.37-2.72,2.24.63,3.09,1.35,1.13,1,2,2.07,3.8,1.81,1-.13.88,2.68,2.89,1.21.72-.53.61.77.6,1.26,0,1.72.5,1.64,1.46.53,1.09,1.42,2.75.55,4,1a35.53,35.53,0,0,1,5.84,2.79c2.44,1.39,4.61,3.15,7.69,3.26,1.31,0,2.39,1.73,3.16,2.75,1.6,2.14,4.59,1.61,6,3.78.55.83.66-.13.79-.46.57-1.43,1.53-2.88,1.53-4.32a12.38,12.38,0,0,0-.68-4.36c-1-2.46,0-4.73.36-6.88.3-1.8,2.39-3.28,3.61-5,.76-1,1.89-.34,2.7-.74s1.11-1.38,1.82-1.64,1.28,1,2.18-.13a7.09,7.09,0,0,1,1.91-1c3.07,2.21,7.53-.43,10.29,3,1.44,1.8,3.72.58,5.61.83.36,0,.92-.39.25-.89C539.56,531.31,540.18,530.23,539.86,528.66Zm-218,111c-.9.75-1.07,1.24.34,1.33.87,0,1.49-.5,2.19-.73,1.14-.38.18,1.34,1,1.6a.36.36,0,0,0,.34-.13c1.15-2,3.21,1.21,4.4-.73,0,0,.69.2.76.41.18.56-1.35.68-.52,1.36.42.33,1.25.13,1.9.21,3.21.41,4.28.75,6.64,2.46.78.56,1.33.79,2.09.06s.94-.16,1,.55c.09,1,.48.49,1.12.44.9-.08,2.18-.34,2.75,0,1.15.75,2.29.12,3.32.49A7.15,7.15,0,0,1,352,648.6c1.22,1.32,1.84-.72,2.81-.28,3.77,1.72,8.07-.38,11.82,1.65,1,.56,1.51-1.28,2.56-1,.88.28,1.46,1.28,2.6,1,.61-.16,1.66.05,1.83-.27.52-1-.66-1.24-1.14-1.69a19,19,0,0,0-3.65-3.17c-1.4-.78-1.88-2.83-3.32-3.88a12.05,12.05,0,0,1-1.06-1c-1.65,1.88-2.34-.29-2.75-1a11.44,11.44,0,0,0-4.56-4.59,8.4,8.4,0,0,1-3.66-4.4c-.22-.57-.25-1.49-.66-1.68-3.41-1.64-5.54-4.15-5.93-8,0-.13-.23-.35-.34-.34-2.25.14-1.82-2.29-3-3.27-1-.82-1.09-2.79-1.53-4.27-1.13-3.74-3.93-5.8-7.28-7.32-.28-.12-.39.06-.73.25-1.37.75-2.15.84-2.74.28-1.68-1.62-3.25-3.36-5-4.92-2.29-2.07-3-4.71-3.31-7.65-.38-3.55,1.75-6.27,2.75-9.37.44-1.35.83-2.62,2.72-2.9,1.11-.17,1.74-1.64,3.11-2.12a6.74,6.74,0,0,0,3.11-3.11c.35-.66-.84-1.77-.71-2.94a4.09,4.09,0,0,0-.43-2.81c-1.15-1.9,0-4.46-1.52-6.35,1.9-1.23-.92-2.67.05-3.62,1.45-1.42-.31-2.5-.05-3.72s-.39-2.22.5-3.31c.7-.85-1.37-1.86.08-3.18.9-.81.79-2.64,1.48-3.82.58-1,0-2.41.56-2.89a7.86,7.86,0,0,0,2.24-3.62c.67-1.7,1.86-2.45,3.11-3.45,2.15-1.71,5.42-2.21,6.15-5.55.13-.57,1.15-.22,1.26-.43,1.26-2.5,4-1.6,5.93-2.69,1.3-.75,3-.71,4.43-1.34s2.9-.29,4.31-.88c1.25-.52,2.73,1.28,4.16-.05a1,1,0,0,1,1,0c1.75,1.74,4.54,1.71,6.16,3.12,2.38,2.07,4.38,4.67,6.63,7a43,43,0,0,1,4,5.23c1.35,1.88,2.17,4,4.72,5.07,1.47.59-1.53,1.89-.54,3.28.71,1,2.77-.82,2.89,1.65.2,4.3.63,4.87,4.7,9.94.48.59.39,1.48-.26,1.63-.86.2-1.67.18-1.49,1.35.15.9.91.8,1.55.73,1-.1,1.09.54,1.53,1.3,1.24,2.12,3.23,3.74,5.8,3.61,1.48-.07,2.24,1.38,3.59,1.09,1-.22,1.45.88,2.09.92.92.06,1.8,1.11,2,.92,1.72-1.94,2.53-.16,3.53.76,1.3,1.19,2.27,2.82,4.49,2.56A2.1,2.1,0,0,1,420,577c0,1.17,1.26,1.46,1.72,2.29.55,1,4,.66,1.47,3.16-.28.28.45.49.89.62,1.89.58,2.93,2.77,2.36,3.77-1.11,2,.33,3,1.09,3.07,1.58.21,2,2.18,3.13,2a8.3,8.3,0,0,1,3.71.06,2.38,2.38,0,0,0,2.74-.52,1,1,0,0,1,1.68-.09c.87,1,1.52.82,2.46,0,1.36-1.21,2.95-.88,4.44-.11.42.22.78.75,1.17.76,1.58,0,3.34-.38,3.6,2,2.21-.71,2.3,1.57,3.42,2.41s1.73,2.43,3.4,2.65a.82.82,0,0,1,.72,1.06c-.37,1.63,1.05,2.24,1.8,3.26,1,1.41,3.17,2,3.2,4.16,2.19.82,2.57,3.88,4.59,4.33a7.4,7.4,0,0,1,3.72,2c1.4,1.3,1.45,1.29,3.74-.38a1.57,1.57,0,0,1,1.34-.39c2.49.66,3.44-2.15,5.51-2.42.52-3.2,4-3.37,5.75-5.46.87-1,2.93-1.52,4.36-2.55s3.09-1.88,4.1-3.73c.76-1.4,3.31-.83,4.35-2,.78-.89,2-1.65,2.36-2.41a9,9,0,0,1,3.92-3.84c1.58-1,2.18-3.32,4.44-3.61.54-.08.75-.37.85-1a8.26,8.26,0,0,0-2.4-6,1.38,1.38,0,0,1-.54-1.63c.49-1.91-.1-5.69-1.4-7.14-1.07-1.2-.37-1.13.58-1.28a.93.93,0,0,0,.64-1.47c-1.33-1-.82-2.4-.9-3.66a12.24,12.24,0,0,1,1.84-7.23c.32-.54-.29-1.56-.33-1.49-1.36,2.31-3.43-.61-5,.72-.63.55-1.18,0-1.65-1a5.7,5.7,0,0,0-3-2.78c-1.48-.47-3-.68-3.9-2-1-1.63-3-1.17-4.32-2.07-.12-.08-.29-.11-.41-.2-3.81-2.81-5.41-3.6-8.34-3.78-3.41-.21-5.8-2.84-9-3.6-.36-2.91-3.2-2.62-4.91-3.78-1.28-.86-3.25-.72-3.81-2.64-2.29.5-2.94-1.77-4.45-2.55-.85-.44-1.74-2-3.07-.7-.26.25-.71.18-.68-.2.16-2-1.27-1.36-2.3-1.58-1.25-.28-.73-2-1.82-2.6-.83-.49-1.59-.21-2.35-.38-1.07-.22-.07-2.19-1.59-2-1.76.25-3.11-.07-3.58-2-2.43,0-3.61-2.44-5.76-3-.62-2.56-3.87-1.65-4.88-3.7-.48-1-1.54,2-1.79-.25-.18-1.68-1.45-.82-2.25-1-.52-.15-.56-.73-.81-1-2-2.09-3.74-4.69-7-5a2.14,2.14,0,0,1-1.8-1.48c-.18-2.1-1.91-2.34-3.21-3.11a12.61,12.61,0,0,1-2.8-1.73c-3-3-5.12-3.86-10.57-5.83-.72-.26-2.48-.33-2.49-1.75,0-1.59-1.53-.79-2.06-1.57-.68-1-1.87-.62-2.75-.48-1.82.3-.68-2.12-2.1-2.05-2.3.11-3.72-1.45-5.43-2.63-.91-.63-2-1.68-3.4-1.35-1.59.38-2.34-.74-3.39-1.54-2.85-2.18-5.48-4.67-9.19-5.57-1.21-.3-1.89,1.93-3.34.24-.47-.55-2.41-.83-3.35-1.31-2-1-3.83-2.3-6.26-1.87a.92.92,0,0,1-.75-.48c-.3-2-2.23-1.72-3.39-2.52-4.12-2.83-9.24-3.72-13.13-7-2,.11-2.49-2.47-4.47-2.53-.35,0-1-.49-1,0,.06,1.07-1.56,2-.21,3.12a2.4,2.4,0,0,0-.78,3.11c.82,1.82-3.05.41-1.44,2.34a1.32,1.32,0,0,1,.33,1.35c-1.11,2.21-3.14,3.93-3.47,6.56-2.24-.63-1.19,1.87-2.36,2.5s-2.16,2-3.23,3.09c-1.57,1.51-2.49,1.73-5.59,1.41-.5-.05-1.22,0-1.25.48-.05,1.11-.55,3,.29,3.21,2.62.51,2.08,2.87,3.15,4.21,2.18,2.74,3.41,5.94,4.85,9,1.67,3.58,3.28,7.2,2.72,11.4-.18,1.31-.19,2.66-1.12,3.54-1.41,1.34.3,2.48,0,3.69a.65.65,0,0,1-.35.34c-2.77,1.21-3.81,4.72-7.16,5.28a2.36,2.36,0,0,0-1.49,2.32c-.05,2.27-2.31,4.25-.94,6.76-1.8,2.36-2.37,5.4-4.37,7.7-1.82,2.09-3.45,4-6.17,5.27-3,1.37-5.77,3.35-9.35,2.8a1.2,1.2,0,0,0-.87.27c-1.38,1.22-2.54.88-3.84-.25-.6-.52-2.07.65-2.39-.89-.59-2.87-1.56,1.17-2.26-.14-.12-.24-.48-.35-.74-.52.58-.53,1.36-1,.21-1.77-.8-.52-1.12-1.71-2.29-1.71-.6,0-1.05-.36-.9-.86.56-1.87-1-1.9-1.95-2.66-1.59-1.28-1.78-3.51-2.94-5.13,1.52-1.33.31-1.27-.69-1.44-.44-.08-.49-.47-.19-.68,1.64-1.11-.7-1.64-.46-2.8.17-.82-1.92.11-2.48-.71s1.36-1.33.53-2.38a3.85,3.85,0,0,0-.35-.35c-.72.74-1.62,1.74-1.46-.38a2.67,2.67,0,0,0-1.39-2.43c-1.42-1.13,1.34-1.73.26-2.79a8.85,8.85,0,0,1-2.15-3.62c-.47-1.34-.06-3.36-1.74-4.26,1.53-1.07,1-2.67,1-4.08a21.84,21.84,0,0,1,1.3-6.15c.16-.53.85-.76.11-1.45a31,31,0,0,1-3.37-3.6c-.95-1.21-.08-3-1-4.23a6,6,0,0,1-1-4.09c.05-1.33,0-2.67,0-4,0-.59-.35-1-.86-.89-2.83.79-4.63-1.75-7.16-2.17s-4.52-1.88-6.54-3.6c-1.32-1.12-3.07-2-4.51-3.23s-3.44-1.94-3.42-3.95c0-2.36-2.86-2.67-2.9-4.89,0-.6-1.47-1.23-1.41-1.75s1.28-1.22.62-2a3.29,3.29,0,0,1-.84-2.18c0-2.28-1.16-.13-1.56-.38-.85-.52-.2-1.54-.44-2.28-.17-.51-.72-.51-1.22-.58-1.27-.17-.41-1.86-1.49-2.21,1.11-1.58.58-2.8-.83-3.83-.67-.48-.09-.75.18-1.06.78-.86.26-1.89.37-2.84.12-1.1-2.19-2-.25-3.28a4.81,4.81,0,0,1-.73-3.47c.2-1.07,1.26-2.06,0-3.21-.34-.32.15-1.06.64-1.05,2.2.05,1.53-2,1.21-2.42-.56-.8-.7-1.77-1.29-2.5-1.19-1.48.3-.89.82-1.13s.5-.56.09-1-.62-1.07-.47-1.25c1.83-2.22-.42-2.12-1.16-1.63-1.68,1.11-3.41,1-5.15.87a6.75,6.75,0,0,0-3.61,1c-1.07.58-2.11,1.54-3.56,1.06-1.88-.62-1.16,1.65-2.1,1.95s-2.29-.35-3.33.41a1.66,1.66,0,0,0-.35.35c-1.36,2-3.26,2.28-5.54,2.46-1.12.08-3.26-.62-3.64.87a3.79,3.79,0,0,1-2.93,2.62c-2,.63-3,2.62-5.42,2.79-1.51.11-1.75,2.89-2.69,4.12s-3,1.73-3.53,3.52c-1.35,4.43-3.68,8.51-4.69,13.06-.47,2.13-.47,4.56-1.54,6.33a6.32,6.32,0,0,0-.54,5.11,2.8,2.8,0,0,1,0,1.83,16.18,16.18,0,0,0-.21,4.42c0,1.33-.49,3,.11,3.93.95,1.48-.62,3.19,0,3.61,2,1.35-1.33,4.35,1.8,5-.05.12-.07.28-.16.35-2.11,1.73,2.18,4.19-.66,5.83,2.11,1.61-.25,4.61,1.92,6.2-1.29,2.24,2.18,4.45,0,6.69.24.17.48.51.71.5a1.25,1.25,0,0,1,1.19,2c-1.59,2-.18,3.43.58,5a15.22,15.22,0,0,1,1.43,2.89c.25,1.11-.36,2.6.18,3.41s1.59,1.43,2.29,2.47c1.94,2.85,3.23,6.05,5.36,8.87,1.83,2.41,4,4.84,5.27,7.74s5.76,3.51,6.2,7.35c0,.1.25.17.37.27,4.51,3.79,4.51,3.79,7.4,9.41.11.2.56.46.62.42,3.17-2.71,2.09.48,2.46,1.72.06.21.52.3.79.45,2.17,1.21,4.71,1.8,6.46,3.77a1.3,1.3,0,0,0,1.28,0c1.53-1.51,1.35-.18,1.37.79,0,.66,0,1.58.89,1.35,1.2-.31,2.11,1.25,2.9.65,1.5-1.14,1.7.45,2.12.91.84.91,2-1.44,2.53.42,2.36-.14,3.79.7,3.6,3.35,0,.33.69,1.08.8.31.3-2.23,1-1.33,1.84-.42a11.73,11.73,0,0,0,1.42,1.4c1,.71,1.41-1.22,2.4-.57s.13,1.89.71,2.71c.25.34.45.3.72-.12a1.72,1.72,0,0,1,2.22-.54c2.68,1.48,5.25,3.15,7.86,4.75-.27,1.62,1.61.82,1.86,1.63.15.49-1.34.88-.2,1.79.87.7,1.55,1.25,2.43.17.3-.38.43-.41.72-.09.8.85,1.7,1.61,2.45,2.49.62.72,1.76,1.11,1.73,2.27-.05,2.47,2.21-1.45,1.94.67-.2,1.54,4.14,1.48,1.18,3.76-.11.08.73.74,1.06.48,1.3-1,2.46-.65,2.75.71.32,1.51,1.44,2.2,2.35,3,1.57,1.39,1.73,1.27,1.72,1.81,0,1.9.68,1.81,2.1,1,.88-.51,1.8.5,1.33,1.51s-.84,1.94.71,1.94c1.1,0,1.77.88,2.6,1,2.27.26.23,1.22.41,1.61.5,1.07,1.87,0,2.63.75a1,1,0,0,1,.23.4c.57,2,3.61,2,3.6,4.42,2.33.4,2.32,2.6,3.08,4.14.5,1,.67,2.1,2.22,1.79.58-.12.81.55,1.68,2,1.72,2.86,3.18,6.18,7.41,6,1.36-.07.67,1.33,1.23,1.67.87.54,1.34-1.36,2.39-.54a4,4,0,0,1,.36.35c-2.41,2,1.09,1.19,1.06,2.16,0,.77-.46,1.89.45,2.21.42.15,1-1.09,2-.86a8.2,8.2,0,0,0,1.49,0C322.3,638.08,322.06,638.89,321.83,639.68ZM613.05,338.22c-.16,3.11.66,5.61-1.89,7.12.21,1.51-1.12,2.64-1.1,4a2.67,2.67,0,0,1-1.39,2.42,71.06,71.06,0,0,0-5.9,4.88c-2.29,1.95-4.86,3.66-8.1,3.3-1.91-.21-3.78,2-5.67,0-3.06,2.05-6.18.87-9.15-.06-3.52-1.09-6.91-2.61-10.36-3.95-.26-1.8-1.47-2.05-3-2.14-.69,0-.18-.73.25-.82s1,0,1.26-.53c0,0-.51-.51-.71-.47-1.57.35-2.28-1.17-3.38-1.5-1.35-.41-1.49-1.92-2.73-2.16-.33-.07-2.11-1.43-2.07-1.85.13-1.51-.73-1.62-1.83-1.52a5.24,5.24,0,0,0-2.31.48,18.45,18.45,0,0,1-6,2.42c-3,.4-6-.06-9,.18-1.26.1-2.36-1.53-3.62-.22-1.11-1.21-2.87-1.24-4.08-2.17-1-.73-1.47-.85-2.48-.06-2.29,1.8-7.59,3.24-10.59,3.41-1.71.1-3.55-.75-5.15.52,2.07,1.39,0,3.89,1.43,5.39.71.73.77,2,.45,2.22-1.65,1.23.69,2.49,0,3.19-1.66,1.71.38,2,.83,2.92.3.6-.67.89-.57,1,1.19,1.47-.62,2.67-.28,4.15s-.37,3.49.18,4.94c.9,2.38.81,4.73.93,7.13.06,1.24-.3,2.47.56,3.78.39.6-1.05,2.09-.44,3.32s1.3,2.13,1.82,3.25c.26.55,0,1.53.33,1.83,1.09.9-.1,1.24-.19,1.83-.07.43,1,.76.9,1.58s.27,2-.15,2.41c-1.28,1.29-1.36,3.19-.6,4,1.25,1.35-1.16,2.23.22,3.7s-.34,4.91,2.43,6.36c-1.78,1.11-.47,2.11.07,3.21,1,2.1,1.23,4.19,1,7.25a7,7,0,0,0,.6,3.24c1.84,4.31,4,8.64,3.39,13.6a4.31,4.31,0,0,0,.52,2.27c.8,1.83,1.63,3.69,2.32,5.53s-.33,4.33,2,5.68l-.44.7a2.29,2.29,0,0,0,.55,3.42c.64.53,1.32,1.12,1,2.07-.49,1.46.73,2.38,1,3.6.17.8,1.41,1.14,1,2.06-.64,1.43,1,2.43.51,3.88-.34,1.09.8,2.09.59,3.4s-.6,3,.93,4.07c-1.22,2.29,2,4.45.18,6.75,1.43,1.59.41,3.66,1.05,5.41,2.66.24,1.74,2.27,1.72,3.68,0,1.23,1.32,2.2.15,3.75-1.06,1.38,1,2.86.91,4.51-.19,3.3,1.34,6.44,1,9.75-.11,1,.49,1.46,1,2.1.72.94-1.35,1.5-.53,2.37,1.09,1.16-.06,2.74.73,3.69,1.19,1.43,1.3,2.56,0,3.84,0,0,.38.42.45.68.22.72,2,.71.79,2.19-.5.6,1,1.73.65,2.9-.26.91.35,2-.5,2.8s-.18,1,.55,1c3,0,6,0,9,0A4,4,0,0,1,558,535c.26,1.2,1.06,1.39,1.65.83.85-.8,1.15-.14,1.85.05,1.34.37,2.41,1.82,4,1.17,1.33-.55,2.24.75,3,1.2,2.28,1.39,3.22,4.48,6.3,5.21.61.15.87,1.87,1.23,2.89.15.44.09,1.33.22,1.35,2.49.37,2,2.33,1.67,3.69-.22.89-.59,1.23,0,2.26,1.26,2.06.66,5.67-.91,7.86-.48.66-1.23,1.12-1,2.1a3.23,3.23,0,0,1-1.44,3.41c-.8.67-.42,1,.46,1,1.37,0,.91,1.09,1,1.81,0,.49.39,1.22.55,1.07,2-2,2.41.35,2.36,1.18a9.53,9.53,0,0,0,1.3,4.51,10.82,10.82,0,0,0,2.55,3.2c.38.37,1.45,2.31,2.33,2.76,1.13.58,2.51.8,2,2.64-.14.48.31.85.92.84,1,0,2,0,3,0a3.24,3.24,0,0,1,.87.31,6.73,6.73,0,0,0-.69,1.07c-.21.51-1.45.65-.8,1.37.86,1,.95,1.62,0,2.46-1.29,1.09,1.68,2.36-.12,3.46,1.93,4.23,2,4.23,1.78,7.42-.1,1.41.71,2.09,1.52,2.88l2.18,3.18a26.85,26.85,0,0,0,.83,2.83c.78.81,1.7,1.46,1.55,2.88-.19,1.81,1.9,1.21,2.72,2.24,1.28,1.61-1.64,2.15-.48,3.93.81,1.25,2.61,1.64,2.69,3.25a6.44,6.44,0,0,0,2.37,4.52c.53.5,1,1.36.59,1.66-2.36,1.62.13,2.85.34,4.17.17,1.07,1.06-1.42,1.6-.2.46,1-.36,2.58,1.75,2.79.81.08-.07.69-.39.74-.48.07-.94.08-1.15.59,0,0,.53.25.76.45a18.69,18.69,0,0,1,3.1,2.76c.57.76-.91,1.24-.92,2,0,1.36.39,1.17,1.3.46.59-.45,1.14.54,1.32,1,.52,1.13-.59.58-1,.79s-.6.39-.22,1c.7,1.07,2.07.82,2.83,1.72.43.52.91.83.12,1.45s-1.89,1.38-.27,2.48a7.55,7.55,0,0,1,2.52,3.44c.15.34.75.79,1,.71.6-.16.48-.9.33-1.29-1.44-3.59-.85-7.53-1.94-11.18-.29-1-1.52-2.11,0-3.17,0-4,1.64-7.95,1.06-12.09-.17-1.18-.93-3.12,1.59-3.25.47,0,.33-.33,0-.69-1.18-1.38-.88-2.64.47-3.75.82-.69,1.21-1.32.38-2.45-.7-.95.66-2.58.82-2.6,1.89-.26,1.74-1.53,1.68-2.84a4.1,4.1,0,0,1,0-2c3.43-6.43,6.59-13.16,12.85-17.4,1.62-1.1,1.2-1.43.32-2.41-.38-.42-1.17-.61-1-1.4.08-.38,1-.5.48-1s-1.24-.38-1.63-.78.07-1-.1-1.44c-.38-1-.85-2.76-1.37-2.79-1.66-.09-1.28-1.65-2.08-2.16s0-2.12-1.54-2.11c-2.45,0,1.38-1.92-.61-2.11-1.27-3.51-3.62-6.45-5.16-9.86-1.15-2.52-2.11-5.13-3.23-7.66-.79-1.78-.81-3.72-1.42-5.57-1-3-3-5.55-3.31-8.86a2.67,2.67,0,0,1,.74-2.43c-1.47-.89-1.8-2.61-2.81-3.84-.62-.75-1.19-.56-1.38.12s-2.55-.74-1.22,1.45c.76,1.24-1.16.67-1.74,1.29-1.15,1.23-3.72.72-4.06,3.19-.06.39-.48-.06-.68-.05-3.5.31-3.47.37-5.56,2.27-.82.75-1.29,2.08-2.63,2.06-2.34,0-3.68,1.24-4.6,3.2-.4.86-1.56.54-2,1.09-.89,1.09-1.27.23-1.81-.26a15.27,15.27,0,0,1-1.08,2c-.47.67-1.51,1.52-1.95.77-.85-1.47-2.31,1.08-3-.76-.37-1,.52-4.8,1.62-5a26.27,26.27,0,0,0,8.89-3.94c1.73-1.12,2.74-3.23,5-3.59.76-.11.67-1.89,2.18-1a2.85,2.85,0,0,0,2.61-1c.8-1.35,3.14-.95,3.11-2.57s-2.24-2.21-2.42-4c0,0-.71.12-.94,0-2-1.39-2.74-3.88-4.47-5.55,1.6-1.43-.75-2.69-.14-4.23s-.65-3.65.64-5.23c.94-1.15.18-1.74-.53-2.43a2.47,2.47,0,0,0,1-2.57c-.17-.94.4-2-.37-2.85-.26-.3-.84-.51-.21-1.07,1.26-1.11.7-2.81,1.22-4.15.76-1.94.11-3.92.37-5.85a16.41,16.41,0,0,1,.77-4.68,23.79,23.79,0,0,0,1-6,27.73,27.73,0,0,1,1-5.83c.43-1.32,1.67-2.39,1.18-4-.54-1.81.58-3.39.93-5.08s0-3.36.87-5.16c.74-1.54,1-4.15-2-5-.71-.2-1.67-1.09-1.71-1.71-.14-2.33-1.07-1-1.93-.61-.46.21-1.21-.08-1.18-.52.11-1.44,0-2.56-1.8-2.7-.5-2.31,0-5.13-3.12-6.12a4.64,4.64,0,0,1,.45-.7c.76-.78.59-1.62-.23-2a3.87,3.87,0,0,1-1.94-3.16c0-3.25-3.53-4.14-4.1-6.88a1.42,1.42,0,0,0-1.6-.89c-.62.07-1.66.17-1.65-.55.05-2.29-2.27-2.07-3-2.22-1.42-.28-2.46-1.51-4-1.25-2.13.33-1.22-3.1-3.16-2.9-1.58.15-2.73-.69-4.08-1.07-.51-.14-.56-.87-.76-1-1.59-1-2.72-2.62-4.25-3.64-.82-.55-2.2-.35-3.33-.33s-1.2-.47-1.47-1.4a3.28,3.28,0,0,0-2-2.09c-3.06-.4-4.46-3-6.68-4.48-.47-.32-1.47-.12-1.22-1.05.4-1.44-1.49-2.22-.95-3.56,1-2.53.81-5.33,1.86-7.9a8.88,8.88,0,0,1,6.64-5.49c1.25-.31,3.4.43,3.81-.2,1-1.47,1.92.55,2.64-.36,1.24-1.56,1.9.6,2.87.48,1.56-.17,3.27.69,4.69-.88.24-.28,2.43-1,2.44,1.19,0,.5.74.52,1,.77,2.1,2,5.27,2.09,7.23,4.51.9,1.11,3.23.95,4.54,0,1.82-1.3,3.38-2.94,5.2-4.3,1.63-1.22,4.43-1,5-3.7.08-.42.66-.64,1.22-.59,1.05.09,1.92.1,1.92-1.46,0-.51,1.06-1.26,1.77-1.49,4.32-1.44,11.09-1,15.85-.21a9,9,0,0,1,5.42,2.75c.39.41,1.14.44,1.67.75,3.85,2.24,6.85,5.08,7.23,9.92.11,1.29,1,0,1.16.07,1.68,1,3.12-.3,4.46-.7,1-.28,1.29-.24,1.82.36a2.71,2.71,0,0,1,2.07-1c1.73,0,3.32,1.07,5.21.11s3.91.95,6,1.07a12.14,12.14,0,0,1,6,2.29c1.74,1.26,4,1,5.53,2.39s2.92,3.57,5.55,3.53c0,2.61,3.25,2.6,3.88,4.8.22.76,1.27,1.33,1.22-.27,0-.76,1.42-.79.58-1.91-2.54-3.38-1.19-8-3.5-11.5,1.19-.64.08-1.91.21-2.05,2.23-2.34-1.28-.81-1.2-1.84.21-2.7-2.74-4.35-2.67-6.82.06-2.31-2.46-3.21-2.29-5.07.33-3.57-3.38-5.32-3.48-8.59-2.5-1.19-3.26-3.61-3.47-5.93-.12-1.45-3.43-1.75-1.19-3.73-.11-.11-.21-.28-.35-.34-3.36-1.33-4.3-4.88-6.57-7.21-1.66-1.71-2.23-4.49-4.38-5.59a8.51,8.51,0,0,1-3.59-3c-.79-1.29-2.29-2-2.41-4,0-.87-.65-2.74-2-3.07-2.74-.7-3.94-3-4.48-5.08-.4-1.57-2.78-.58-2.22-2.55.75-2.64-1.55-.35-2-1.15a15.27,15.27,0,0,0-3.54-4.52,1.5,1.5,0,0,1-.43-1.33c0-1.13-.74-2.3-.77-3.1-.09-1.83-2.33-1.75-2.11-2,2-1.91-.5-1.34-.92-1.86s-1.24-1.16-1.13-1.48c.82-2.3-2.27-2.72-2.17-4.7,0-.33-1.85-.94-1.81-1,.62-1.67-1.35-2.62-1.08-4.11.31-1.78-2-1.27-2.33-3-.79-3.74-3.07-7-3.8-10.92a31.85,31.85,0,0,0-3.61-9.45,14.58,14.58,0,0,0-2.23-3.62c-1-1-.47-2.51-.85-3.79A78.28,78.28,0,0,0,598.52,274c-.47-1-1.51-2-1.43-2.87.27-3.07-2-5.22-2.55-8s-2.28-5.08-3.28-7.62c-1.2-3.06-3.78-5.39-4.27-8.73-.07-.54-.35-.93-1-.81-1.38.27-1.82-.4-2.29-1.67s-1.58-3.11-2.47-3.15c-2-.09-2.94-1.35-4-2.49-2.19-2.31-5.19-2.09-7.91-2.62-1.28-.25-2.69,1.86-3.93.68s-3.1,1.8-3.9-.74c-.84,1-1.6,1.46-2.86.32-.28-.26-1.8.69-2.65,1.24-.44.3-1.06.65-1.29.4-1.54-1.72-2.29.82-2.86.62a3.9,3.9,0,0,0-3.5.66c-1.25.69-2.1,3-3.31,2.6-2.54-.91-1.7,1.79-3.07,2.33-2.39.95-4.07,3.43-6.77,4.14-.06,1.48-1.85,2.12-2,3.14-.15,1.24-1.7,1.7-1.31,3.07,0,.09-2-1-2.12,1.09-.07,1.11-1.62,2.12-1.69,3.23-.16,2.55-1.8,4.29-2.83,6.36-.36.71-.13,1.65-1.62,2-1.25.26,1,1.45.43,2.64a10,10,0,0,1-1,1.6c-1.13,1.52-.64,3.7-2.07,5.15a.92.92,0,0,0,.34,1.3c.63.3,1.47.27,1.58-.48.36-2.58,2.3-2.76,4-2.26a8.51,8.51,0,0,0,3.22,0c1.67-.09,3.4-.58,5.22.57,1.64,1.05,4.17-.27,5.94,1.3,1.22-1.66,2.39.47,3.68,0,1.55-.53,2.64.85,3.87,1.43,1.45.69,2.81.88,4.06,0a2.27,2.27,0,0,1,2.27-.42c1.83,1.25,3.49-.94,5.21-.06,2.07-3.05,5.11,2,7.2-.88.32,2,2.33,2.78,3.55,3.3a5.92,5.92,0,0,1,3.6,4c.41,1.71,1.63,2.79,2.06,4.16a32,32,0,0,0,1.64,4.34c.94,1.9,2.36,3.21,4.64,3a19.66,19.66,0,0,1,8.07,1c3.08,1.06,6.41,1.65,8.71,4.34,1.05,1.22,2.13,2.16,2.29,4.12.1,1.28,2.92,2.14,1,4.19,1.71,1.95,1.28,4.54,2,6.67s1.06,4.88,2.57,6.92C611.27,328,612.45,333.43,613.05,338.22ZM453.8,696.77c-.52.31-1.06.74-.2,1.32,2.33,1.59.64,5.24,3.4,6.6-.5,2.86,1,5.17,1.95,7.68,1.48,4.07,4,7.68,5.09,11.9a3,3,0,0,0,1.23,1.47c2,1.3,3,3.47,4.12,5.33,1.41,2.3,3.19,4.37,4.43,6.66.91,1.66,1.14.29,1.66.41,1.1.26.06,1.83.75,2.55s.66-.4,1-.45c1.42-.19.33,1.2,1,1.63,1.14.69,1.55-.85,2.43-.59.16.05.2.56.26.86.2,1.17.82.2,1.14.29,2.16.58,4.49.55,6.5,1.7.44.26.38.39,0,.72-1.33,1.28.47,1.33.61,1.1.89-1.44,2.59-.45,3.51-1.29,1.31-1.2,1-.11,1.23.66s.91.79,1.56.59c.47-.14.71-1.37,1.39-.4.88,1.24,1.78,1.57,3,.49,2.39,2,4.83.6,7.16,0A51.88,51.88,0,0,0,514,743.4c1.16-.51,1.55-2.39,3-2.34s1.83,1.53,2.28,2.73c.07.16.64.06.88.22a16.21,16.21,0,0,1,5.66,6.48c.58,1.32.71,2.21,2.13,1,.33-.28.46-.4.73-.26.87.48,1.27,2.62,2.82.84,1,.71,2,1.48,3.13,2.1,1.48.86,2.75,3.1,4.85.89.2-.21.88.13,1.34.25,4.27,1.18,8.47,1.52,12.4-1.26,1.55-1.1,2.49-3,4.59-3.39-.11-2,1.91-2.77,2.66-4.38s-.52-3.72,1.38-4.86a2.71,2.71,0,0,1,1.43-4c1.58-.52,3.59-2.3,4.82-1.24,1.84,1.58,3,.16,4.26-.22,3.1-.95,6.27-1.64,9.35-2.71,1.86-.64,3.84-.78,5-2.49s3.55-1.65,4.48-4.06a60.68,60.68,0,0,1,3.15-6.16c1.09-2.06,2.87-3.65,3-6.29.08-1.29,2.07-2.37,1.48-3.73-.78-1.8.38-2.63,1-3.9.49-1.05,1.37-2.14.29-3.67a2.68,2.68,0,0,1,.94-3.51c1.22-.86,1.41-2,.49-3.4-1.26-1.91-.46-3.84.18-5.76.11-.3-1.12-.6-.39-1,2.52-1.43,1.54-3.49.42-4.77s0-2.86-1.32-3.46c-2.18-1,.13-2.58-.51-3.48-1.45-2.06-.68-5.26-3.47-6.6-.73-.35-.44-1.17-.43-1.79s-.18-1.06-.69-1.1c-2.93-.26-4.73-2.32-6.89-4-1.68-1.28-4.36-.86-5.77-2.9-2.2,1.69-3.49-.57-5.22-1-1.11-.29-1.67-1.68-3.06-1.19s-2.49-.38-3.38-1.45c-1.3-1.56-2.6-2.37-4.53-.64a3.12,3.12,0,0,1-2.87,0A4,4,0,0,0,561,656c-1.52.2-.56-2-1.54-1.82s-1.46,1.22-2.24,1.8c-.16.13-.62,0-.89-.18-.82-.44-1.58-1-2.43-1.38-1.07-.49-1.74.77-2.92.68a19,19,0,0,0-7.13.73c-2.07.63-4.35.51-6.2,2-.27.21-1.19.15-1.28-.05-.72-1.46-1.63.58-2.14-.11-1.09-1.48-1.42.64-2.35.42s-2-.51-2.79.37c-1,1.16-3-.12-3.83,1.74-.73,1.63-2.43-1.57-3.47.47-.41.8-1.54.38-2.3.28a14.65,14.65,0,0,1-7.64-3.65c-.88-.83-2.12-.91-2.88-1.43-1.53-1-3.47-.19-4.52-1.12-1.38-1.21-3.7,0-4-1-.86-2.9-2.1-1.35-3.43-.76-.19.09-.61-.13-.83-.32-4-3.52-7.65-7.51-9-12.74-.48-1.89-2-2.74-2.52-4.5-.36-1.23,0-3.75-2.58-3.83-1-3.81-4.61-5.4-7.08-7.93-.93-.94-2.43-1.46-3.4-2.55-.5,1.31-1.68,1.85-2.72,2.62s-2.11.89-2.91,1.41c-2.25,1.45-5.27,1.24-7.09,3.48a8.12,8.12,0,0,1-4.81,2.88c-3.34.73-6.22,2.66-9.28,4.13-1.31.63-2,1.1-1.84,2.72.27,2.38-.35,4.87,1.05,7.08-.63,4.43,1.62,8.65,1,13.08a4.49,4.49,0,0,0,.91,3.14,8.6,8.6,0,0,1,1.13,5c-.16,3.21-.51,6.57,1,9.54a20,20,0,0,1,1.81,5.23c.46,2.31.46,4.54,1.66,6.85s.5,5.3,2.44,7.48C454.1,695.92,453.88,696.38,453.8,696.77ZM726,585.16a40.81,40.81,0,0,0,0-5.9c-.66-4.32-1.06-8.63-4.25-12.28-1.89-2.16-3.84-4.34-5.57-6.6-2.33-3-4.57-6.14-7.18-9-4.07-4.46-9.25-7.53-13.8-11.38-1.7.41-.62-2.23-2.59-2.2-1.19,0-2.9-1.15-4-2s-2.56-.81-3.59-1.47c-3.56-2.27-7.61-3.47-11.22-5.48-1.63-.9-3.31-1.75-5-2.53-1.26-.58-2.56-1-3.83-1.66-1.63-.85-3.32-2.45-4.89-2.47-2.79,0-4.48-1.21-6.43-2.88-.88-.76-2.09-1.37-3-2.24-.75,1.08-1.32.28-2.17.06a15,15,0,0,0-5-.08c-1,.08-1.4-1-2-.85-.8.17,0,1.81-1.64,1.94-1,.08-.91,2.26-2.21,2.82-2.11-2.29-1.22,1.11-2.12,1.12L634,523.52c-1.86-1-.49,1.51-1.41,1.36-2.8-.46-3.2,2-4.58,3.4-.68.69-.4,3.46-2.73,1.92-.86,2.23-2.91,2.89-4.8,3.89-1.21.65-2,2.13-3.5,2.41,1.69.91.43,3.16,1.94,4.26.27.19.54,1,.86,1.59a2.12,2.12,0,0,1,0,2.31c-1.81,2.18-.47,2.34,1.36,2.35,1,0,.9.77.85,1.42-.23,3.14,1.28,5.77,2.43,8.5,1,2.27,2.3,4.29,2.76,6.9.41,2.3,2.36,4.32,3.6,6.47a3.28,3.28,0,0,1,.22.91,19.71,19.71,0,0,0,3.27,6.66c1.82,2.73,4.11,5.14,5.44,8.23.44,1-.19,2.21.95,3.14,2.21,1.81,2,3.64.62,6.31-1,1.94-1.29.64-2.07.47a1.71,1.71,0,0,0-1.9,1.26c-.35,2.32-.94,4.09-3.85,3.8-.44,0-.29,1.1-.49,1.21-1.6.89-.25,3-1.64,3.85-1.6,1-1.32,2.49-1.33,4a.79.79,0,0,1-.89.89c-2.87-.13-1.4,2.42-1.89,3.54-.64,1.45-.39,3.18-2.54,3.49-.22,0-.4.37-.6.56,2.65,1.23-1.33,3,.41,4.54.67.58-.83,3.84-1.1,3.62-1.62-1.32-1.78,0-1.21.78.87,1.15,1.06,1.79.08,2.94-.17.2,1.31,2.06.66,2.86-1.1,1.34-1.46,3.27-.79,4,1.52,1.74-1.19,2.88-.15,4.29.17.23,0,.75.14.93,1.78,1.85.1,4.32,1,6.09a6,6,0,0,1,0,5.76,2.37,2.37,0,0,0,.92,3.06c1,.6,1,1.54,1,2.58s-.37,1.93.36,2.84c2.27,2.84,2.83,6.5,4.42,9.68.89,1.8,2.8,2.55,3.29,4.64.59,2.54,2.77,3.67,5.11,4.95a5.44,5.44,0,0,0,6.19-.29c4.35-3.15,7.33-7.57,9.6-12.43-.53-2.89,2.52-5.78,0-8.7-.06-.07.31-.49.47-.76,1.23,1.76,2.52-.79,3.66,0,2.1,1.5,4.79,1,7,2.45a9,9,0,0,0,6.34,1.55,3.2,3.2,0,0,1,2,.05A24.55,24.55,0,0,1,675.7,666c.88.67,1.14-.91,2.39-.55a16.49,16.49,0,0,0,11.35-.46c2.83-1.21,5.53-2.74,8.55-3.51.38-.09.64-.67,1-1-1.09-.94-1.2-1.64.52-1.41s2.54-.48,3.14-2a7.23,7.23,0,0,1,1.3-2.48,31.1,31.1,0,0,0,6.44-11.32,14.52,14.52,0,0,0,.85-5.48c0-1.4,1.84-.14,1.83-1.5,0-2-.4-4.09.72-6-1.58-.62.71-1.44-.12-2.13-1.32-1.11,1.11-1.63.46-2.87-.41-.78-.08-2-.08-3a20.31,20.31,0,0,1,0-3.49c.3-1.76.3-3.93,3.05-3.8a1.58,1.58,0,0,0,1.48-1.13c.46-1.71,1.91-2.56,2.86-3.83,1.59-2.12,1.69-5,3.57-7-.69-2.35,1.26-4.33,1-6.58-.16-1.18,1.53-1.7,1-2.56C725.1,590.94,726.5,587.77,726,585.16ZM488.89,750c-.63.09-1.41-.26-1.81.46-.27.48,1.94.89.12,1.52a4.92,4.92,0,0,0-1.11.53c1,.56.65,1.86,1.42,2.41.18.13.45-.67.52-1.15s.63-1.19.76-.36c.27,1.65.83,1.5,1.86.75,1,2.41,1.7,5.2,5.18,5.18.69,1.63,1,3.51,3.1,4.17.16,0,.18.86-.2,1.32-.21.25-1.18.47-.35,1a1.33,1.33,0,0,0,1.29-.07,6.07,6.07,0,0,0,.75-1.67c1,.47.46,1.38.57,2.09.15,1,1.14,1.11,1.42.78.92-1.12,1.43-.7,2.2.13a10,10,0,0,1,2.51,4.47.91.91,0,0,0,1.6.15c.49-.91.29-2.44,1.86-.7,1.16,1.29,2.17,2.81,4.12,3.3a2.17,2.17,0,0,1,1.34,2.39c-.17,2.13,2.3,2.07,2.78,1.78,1.95-1.17,3.06-.27,4.19,1,.45.53.94.35,1-.13.06-2.06.76-1.17,1.53-.41,1.46,1.45,2.19,3.44,5.12,3.33a7.51,7.51,0,0,1,6.19,3.5c.79,1.39,2.29.94,2.75,2.14,1.18-1.88,2,.52,3.13.3.82-.16.76,2,2.51,1.21,1.21-.52,1.78,1.39,2.79,2,.39.24,1.1.63,1.23.5,1.37-1.35,2.81-.21,3.5.43,1.39,1.29,3.07.24,4.59,1.17s3.14,2.82,5.44,1.68c1.72,1.38,4.15,1.63,5.54,3.53.19.25.46-.2.7-.2,3.22,0,6.13,1.85,9.46,1.53.65-.06,1.42,1.19,2.13,1.83,1.93-2.62,3.77.59,5.71.11,1.05-.27,2.34.32,3.11-.93,1.4,1.66,3.48-.18,4.36.42,1.65,1.12,3-.59,4.61.31a6.35,6.35,0,0,0,5.31,0c1.65-.94,3.05,1,4.55-.44s3.15.28,4.7.11a79.34,79.34,0,0,0,8.34-1.53c2-.45,3.93-1.39,6.09-1,1.49.28,2.46-1.74,4.08-1,.65-1.7,2.46-.48,3.43-1.36-2.16-2,1.07-1.46,1.31-2.58.31-1.43,1-1.41,1.76,0,.39.77.82,1.08,1.41.86,1.18-.45,0-.83-.13-1.27-.35-.83-.43-1.46.8-1.73,1.57-.33,2.23-2.3,4-2.45.26-2,2.24-2.59,3.22-4s2-3.15,2.88-4.81,2.82-2.8,3.8-4.46a6.61,6.61,0,0,0,1.19-2.5c.35-2.6,1.78-4.9,2.43-7.5a59.57,59.57,0,0,1,2.82-7.79,6.73,6.73,0,0,0,.56-4.19c-.55-2.07,2.39-2.77,1.63-4-.87-1.38,1.24-1.84.44-2.34-1.94-1.23.1-2.89-.74-4.43s-.26-3.56-.2-5.38a11.39,11.39,0,0,0-1.47-4.9c-.75-1.7-2.59-2.91-3.33-4.61s-3.08-2.15-2.51-4.37c-2.11.76-1.2-2.25-3-2.34-1,0,.78-2.51-1.24-2.94-.41-.09-.75-1-1.07-1-1,.09.41-3.42-1.77-1.11-1.34-.74-.35-2-.64-3-.41-1.34-1.66-1.95-2.58-2.83-.18-.17-1.33,1.2-1.22.5.35-2.25-1.67-3.05-2.24-4.66-.72-2.06-3.66-2.9-3.21-5.67-2.49-.06-2.86-2.4-3.73-3.88-1.43-2.43-2.33-5.07-5.29-6.27-.79-.32-1.21-1.72-1.6-2.7-.14-.32,1.4-.88.35-1.32-1.52-.65-.84-3-3.12-3.23-1.32-.13-2.46-1.81-3.76-2.69-.29-.2-.88,0-1.33.07-1.44.18-1.47.17-1.12-.86.13-.39.9-.52.63-1.06s-.87-.33-1.33-.24-1,1.46-1.32.44c-.5-1.65-1.17-2.57-3-2.52-2,.06-.9-3.26-3.16-3-1.55.18-.6-2-1.54-1.84-.66.13-1,1-1.83.06A3,3,0,0,1,606,670c0-1-.37-1-1.1-.4-.45.38-1.2.39-1.66.76-.67.54-1.53.95-.44,2.2.42.48,1.38,1.5,1.15,2.43s1.87,1.18.39,2.37c-.51.41.48,1.67.79,2.33,1,2,.85,4.07.87,6.14s-.44,4.46.13,6.47c.64,2.21-2.55,4.14-.15,6.21-1.91,1.77-.66,4-.93,6.07-.1.7-.17,1.31-.78,1.69A3,3,0,0,0,603,709.7c.37,1.9-.53,3.45-1.28,5s-1.27,3.19-1.93,4.7c-.79,1.83-.6,4.27-2.31,5.5-2,1.45-1.06,4.52-3.46,5.64-.27.12-.16,1.18-.39,1.25-2.55.77-3.76,3.42-6.22,4.31a35.82,35.82,0,0,0-6.54,3.51,1.8,1.8,0,0,1-.83.39c-4.84-.19-9.23,2.84-14.16,2-.38-.06-1.19.15-.61.72,1.36,1.32-1.2,2.12-.3,3.31,1.43,1.91-2.93,2.29-1.18,4.35.06.07-.44.71-.75,1-2.1,2.14-4.31,4.18-6.31,6.41-.82.91-2.07.89-2.79,1.74-.92,1.09-2,1.91-3.4,1.41s-2.15,2-3,.94c-1.4-1.72-2.11.69-3.29.14a28.58,28.58,0,0,0-4.51-1.2c-3-.85-6.09-.85-9-2.33-2.21-1.1-4.17-2.81-6.54-3.44-1.55-.41-3.32-.05-1.44-2.33.22-.27.14-.73-.22-.67-2.68.41-3.68-1.85-5.15-3.25-1.1-1.05-1.65-.57-2.85,0a22,22,0,0,1-8.57,2.33c-2.06,0-4.61-2.54-6.32.73a6.1,6.1,0,0,1-.7-.41c-1.19-.94-2.57-.43-3.81-.37s-1.55-2.19-3-.76C491,751.5,490.05,749.33,488.89,750ZM362.51,529.11c-3.14-.88-6,.87-9,1.14-2.6.24-5.78,1.63-7.1,4.11-1.15,2.16-2.88,3.84-4.25,5.65-1.55,2-1.92,4.7-4,6.46-1.39,1.19-.71,3.64-2.14,5,2,2.49.49,5.42,1,8.09.21,1.15-.88,2.81-.76,2.93,2.12,2.15,1.67,5.08,2.26,7.59.82,3.47,2.19,7.08-.41,10.63a5.53,5.53,0,0,1-2.61,2.37c-2.41.94-4.64,1.94-6.09,4.72s-2.28,3.34-1.42,5.53c.2.52,1.39.63.69,1.43-1,1.18-.82,1.31.58,2.32,4.09,2.92,5.93,4.32,9.93,4.79a3.41,3.41,0,0,1,2.8,1.64c2.48,4.29,5.85,8.08,7.18,13,.1.36,1.08.48,1.65.72l-.59,1.41c3,.26,2.77,3.71,4.86,4.93A6.47,6.47,0,0,1,357.6,627c2.3-.22,1.85,2.09,2.24,3,.79,2,3.08,0,3.59,1.85a7.09,7.09,0,0,0,.63,1.22,8.49,8.49,0,0,0,1.82,2.24c1.08,1,3.3.86,3.12,3.13a7.88,7.88,0,0,1,4.11,3.23,5.24,5.24,0,0,0,3.2,1.9c1.49.16-.49,2.86,1.76,1.89,1.07-.46,2.1.78,3.39.66a3.77,3.77,0,0,1,2.37,1.25c1,1.5,2.13,1.19,3.47.63.54-.23,1.6-.21,1.64.54.11,1.93.78.55,1.52.61,1.92.15,3.16-1.43,5.09-1.33a6.15,6.15,0,0,0,4.61-1.75c1.45-1.89,3.41-.58,4.95-1.59a26.92,26.92,0,0,1,5.94-2.49c1-.34,2.24.34,3.21-.74.75-.83,2.14.12,3.12-1,.71-.83,2.76-.71,3.21-1.55.89-1.67,1.62.87,2.72-.28s3.11-1.2,4.77-1.64,3.18-1.77,5-2.42c1.62-.6,3.42-.16,5-1.33,1.32-1,3.2-1.24,4.54-2.21,1.63-1.18,3.3-2.37,5.22-1.77,2.31.71,2-2.71,4.13-2.17.83.21,13.68-7.09,14.29-7.59.87-.74,1.17-1.43.23-2.44-1.31-1.41-3.24-2.23-4.33-3.63-3.7-4.76-8.18-8.8-11.92-13.51a16.22,16.22,0,0,0-3.67-3c-1.29-.89-3.13.06-3.88-1.6-1.44,2.1-2.73-.34-4.13-.16a2.14,2.14,0,0,0-1.7.74c-.77,1.06-1.55,1.53-2.5.14-.19-.29-.56-1.07-1-.57-1.48,1.65-3.81-.22-5,1.09-1.57,1.71-2.31-.21-3.34-.44s-2.77-.82-1-2.46c-2.13-.68-.89-3.09-2.2-4.28a6,6,0,0,1-1.67-2.74c-1.1-3.89-1.54-5.23-3.91-6.35-1.62-.76-2.31-1.56-2.2-3.24a1.42,1.42,0,0,0-.43-.77c-.5.21-.44.7-.58,1.15-.34,1.1-1.11,1.06-1.83.38-.45-.43-1.06-.74-1.16-1.51-.19-1.59-1.08-1.38-2-.59-.49.44-.66.14-1.1,0-2.58-1-5.26-1.78-7.77-2.93a4.16,4.16,0,0,0-2.27-.53c-2.08.25-2.69-1.64-3.94-2.58s-1.29-1.67-.19-2.82c.38-.4-.63-1.71-.83-1.85-2.11-1.43-1.4-5-4.34-5.72-.43-.11-.85-.76-.56-1.2,1.35-2.1,0-3.43-1.36-4.62-1-.84-.44-1.84-.7-2.73s-2.17,0-2-1.59c.48-3.64-1.77-6-3.93-8.38a9,9,0,0,0-3.14-2.1c-1.52-.7-.38-2.54-1.42-3.4-.86-.7-1.31-1.82-2.64-2.09a5.08,5.08,0,0,1-2.83-1.5A5.91,5.91,0,0,0,362.51,529.11ZM555.3,411c.2.35-.79,1.65.13,2.95,1.93,2.73,3.6,5.69,7.44,6a1.14,1.14,0,0,1,1.13.68,3.85,3.85,0,0,0,4,2.3,2.86,2.86,0,0,1,2.56,1.12c1,1.26,2.68,1.64,3.89,2.75s3.22,2.31,4.51,2c2.47-.6,1.57,3,3.61,2.3.14,0,.65.65.66.64,2-1.73,2.45.61,3.64,1.17,4.38,2.06,6.63,6,9.08,9.75,1.77,2.73,1.95,6.21,4,8.82-.06,4.73,4.14,5.7,6.89,8,.68.57,1.52.54,2.25,1.39,1.7,2-1.38,4.27.84,5.9.11.07-.07.59-.17.89,0,.13-.24.31-.36.31-1.79-.07-1.11.36-.63,1.51s.74,2.94-.82,4c1.75,1.4.54,2.64.2,4.22-.3,1.39-1.18,2.55-1.28,4s-1.38,2.58-.9,4.08-1.44,2.5-1,4.1a6.78,6.78,0,0,1-.62,3.92c2,1.48-.32,2.61-.55,3.78-.27,1.43,2,2.46.31,3.76.07,3.72-1.67,7.24-1.15,11a2.92,2.92,0,0,1-.56,2.77c-.75.8,1.22,1.35.6,2.39-1.45,2.44-.17,4.88,0,7.34a12,12,0,0,0,1.81,5.25c1.23,2.16,4,2.41,5.9,3.76a2,2,0,0,0,2.28-.36c1.84-1.77,3.25-4.37,6.52-3.59.09,0,.35-.21.34-.3-.23-1.87,1.76-1.47,2.44-2.41s1.64-2,2.46-3.06c1.83,1.6,2.18-.66,2.76-1.3,2.3-2.58,5.39-4.22,7.63-6.87a69.76,69.76,0,0,1,5.32-5c1.89-1.83,2.59-4.86,5.58-5.59.76-2.46,2.76-3.86,4.45-5.62a32.23,32.23,0,0,0,4.23-6.21c1.73-3,4.94-5,5.79-8.58.1-.41.65-.74,1-1.06a16.18,16.18,0,0,0,3.55-5,19.11,19.11,0,0,1,3.57-5c1.2-1.13,1.15-1.85.44-3.09a1.31,1.31,0,0,1,.34-1.78c.53-.27.81,1.27,1.33.52.4-.58.18-1.57.28-2.37.17-1.43-.53-3,.51-4.27.9-1.11,2.53-2,.51-3.49,1.36-.91.68-2.38,1-3.55s1.36-2.43,1.91-3.7-1.58-1.64-.55-3.42c1.32-2.29,2.62-5,.69-8-.34-.51-1.25-2.66,1.21-3,1-.12.63-.86-.24-.9s-1.2-.49-1-1.22c.09-.42.61-.74.8-1.16.82-1.84-.79-3.62-.17-5.47-2-.06-2.13-2-3.18-3-1.8-1.71-2.48-4.29-4.55-5.63a52.16,52.16,0,0,1-8.7-6.74c-.32-.32-.78-.73-1.17-.73-3.43.05-6.29-1.67-9.35-2.81-1.44,1.47-2.93.33-4-.31-1.34-.8-1.56-.82-2,.72-.15.6-2,1.41-2.22,1.22-2.24-2.23-3.82.08-5.53.74-1.55.6-2.87,1.7-4.23-.29-.59-.87-2.17.32-2.61-.75-.35-.86,0-2-.16-2.94s-2-.06-2-1.59c0-3.08-3.42-4.1-4.2-6.74-3.74-1-6.79-4.12-11.15-3.36-1.41.25-2.6,1-4,1.27-2.15.42-5.18.19-6,3.57-.32,1.4-2.88,1.22-3,3.14a4.18,4.18,0,0,1-1.34-.18c-.46-.22-1.16-1.25-1.18,0,0,2-2.08,1.12-2.73,2.31a14.53,14.53,0,0,1-2.75,2.86c-1.5-1.62-1.94.3-2.84.8a2.12,2.12,0,0,1-1.34.2c-2.82-.54-8.18-3.08-11.3-5.27-1-.72-2.46-.88-3.11-2.13-1-1.89-1.93.92-3.18,0a3.09,3.09,0,0,0-4,.21c-1.55,1.33-2.39-1.78-3.94-.67a4,4,0,0,1-.82.43C555.94,404.61,554.29,406.67,555.3,411ZM702.06,741h3.5c1,0,2.29.35,2.91-.14.79-.62,1.72-.77,2.51-1.29s1.12-2.5,2.45-.64c1.13-.61.13-1.87.73-2.55.77-.86.83.6,1.39.57-.32-1.93,2.22-1.48,2.43-2.9.3-2,2.73-1.65,3.42-3,1.73-3.44,5.27-5.54,6.64-9.24.26-.7,1-1.72,1.55-1.71,2.3,0,1.91-2.2,2.24-3.12a14.64,14.64,0,0,1,2.58-5,26.9,26.9,0,0,0,2.31-3.8c-1.58-1.1,1-1.63.34-2.82s1.38-1.74,1.05-3c2-.47-.21-1.55.31-2.55.59-1.17,3.08-2.63.63-4.39,1-1.61,2-3.19,2.79-4.85a4.53,4.53,0,0,0,.15-1.93c0-1.33-.54-3.26.13-3.87,1.29-1.21.37-2.85,1.46-4,.63-.68-1.19-1.7.06-3.16s-.3-4.14,1.36-5.88c-1.57-1.23-.49-2.32-.11-3.7.53-1.95-.37-4.22,1.11-6.06-1.83-3-.9-6.38-1-9.58a39.66,39.66,0,0,0-1-10.08c-.41-1.51-1.29-2.85-1-4.59.38-2.74-.44-5.29-1.5-7.85s-2.26-5.3-2.31-8c0-3.28-1.74-6.29-1.16-9.58a1.69,1.69,0,0,0-.44-1.32c-2.07-2.83-2.75-6.24-3.47-9.54-.49-2.2-3.28-4.1-1.11-6.76,0-.07-.3-.53-.52-.74s-.7-.58-1.05-.87a3,3,0,0,0-.39.84c-.19,1.95.65,4.11-.4,5.82s-.79,3.65-1.38,5.42c-.64,1.92-1.4,3.75-2.19,5.61-.89,2.08-2.7,3.25-4.14,4.77-2.52,2.66-4.09,5.62-3.93,9.39,0,.94.51,2.12-.32,2.84-1.41,1.23.89,1.6.44,2.86-1.45,4.08-2.5,8.3-3.71,12.47-1.07,3.73-3.14,7-4.75,10.51-.63,1.37-1.1,3.56-2,4-2.64,1.33-3.91,4-6.26,5.4s-5.52,2-6.85,4.94c-2.43,0-4.44,1.75-6.68,1.85-1.52.06-3.11,1.77-4.66.15-1.73,1.33-3.58-.78-5.13.07-1.26.69-2.32.7-3.17-.11a4.43,4.43,0,0,0-4.12-.9c-1.6.27-3-1.25-4.54-.38-.94-1.32-2.66-.51-3.93-1.53-.8-.63-1.93-2.08-2.56-1.87-1.44.48-.22,2.25-.81,3.25-.24.42-1.34.35-1.59.77-.42.72,1,1,.72,2-.38,1.12-2.15,1.45-2,2.66.66,4-3.22,5.67-4.27,8.76-.18.55-1,.48-1.29.24-.94-.89-1.82-1.29-1.43.5.51,2.29-1.45,2.49-2.47,3.4-.77.7-1.42-.59-2-.65-.92-.08-.21,1.68-1,1.78A16.44,16.44,0,0,1,634,685.54c-.12-2.43-2.93-2-3.91-3.78s-2.43-3.26-3.15-5.21a1,1,0,0,0-1.23-.54c-.9.17-.86.9-.73,1.53.35,1.73,1,3.67,2.53,4.34s2.54,1.24,2.45,3c0,.85.45,1,1.15,1.17a2.33,2.33,0,0,1,1.86,2.5c-.06.65-.12,1.35.83,1.45,2.29.24,2.71,2.46,3,3.84a5.56,5.56,0,0,0,3.4,4.22,4.69,4.69,0,0,1,2.77,3.17c.22,1.06-.89,2.6,1.48,2.93,1,.14.76,2.76,2.7,2.86a1,1,0,0,1,.77.47,5.68,5.68,0,0,0,2.32,3.62c1,.71,1.54,2.28,2.57,3.28s1.37,2.92,2.27,4c1.24,1.48,1.66,3.88,3.46,4.47,1.36.44,1.2,1,1.46,2,1,3.75,1.32,3.49,4.27,6.21,1.22,1.12,2.24,0,3.44.79,1.42.91,2.35,2.21,3.69,3.07a2.67,2.67,0,0,0,1.45.1,4.29,4.29,0,0,1,2.64.91,7.23,7.23,0,0,0,5,1.12,2.74,2.74,0,0,1,3.06,1.07,1.83,1.83,0,0,0,1.61.94,4.87,4.87,0,0,1,3.22.72,4.65,4.65,0,0,0,3.82.14c1.27-.54,1.54,1.62,3,.59.64-.46,2.06.79,3.35.56A20.31,20.31,0,0,1,702.06,741ZM334.85,461.68c0-.64-.48-.57-.91-.71a3.53,3.53,0,0,0-2.66-.29c-.6.21-1.63-1.22-2.61-1.8-2.56-1.52-5.38-2.37-8-3.75s-5.55-1.73-8.21-3.08c-2.32-1.18-5.24-1.45-7.34-2.69-3.78-2.21-8.26-3.65-10.88-7.59-.38-.58-1.26-1.18-1.62-.73-1.85,2.35-3.11-.17-4.52-.54-.94-.25-1.32-1.67-2.93-.88-.64.31-2.17-1.62-3.17-1.5-2.21.25-3.41-.87-4.63-2.24-1-1.12-3-2.15-3.61-1.72-1.41,1-2.26-.54-3.27-.14-1.66.67-2.6-1-4.09-1.08s-2.92-1.76-3.69-1.56a14.9,14.9,0,0,1-4.06.61,4.16,4.16,0,0,1-1.4-.24c-.33-.13-.22-.43.16-.7s.68-.77.06-1c-.39-.15-1.26-.26-1.3.31-.15,2.56-2.19,1.89-3.23,1.54-1.59-.53-2.91-2.72-4.4.05-.12-.08-.33-.14-.34-.24-.6-3.87-2.58-.17-3.82-.66-.57-.23-1.49-.11-1.37.83.25,1.84-1.46,3.18-1.09,5.1a4.66,4.66,0,0,1-.52,3.25c-1.12,2-.31,4.48-.79,6.76-.23,1.09.67,2.69-.15,4-.32.5-.39,1,.09,1,1.62-.12,1.36.93,1.45,1.91a13.91,13.91,0,0,0,.45,3.3c.7,2.08,3.64,3.62,1.8,6.56-.27.44,1.46,1.92,1.94,3.06.6,1.43,2.65,1.86,2.68,3.25,0,1.82.37,2.94,2.17,3.59,1.11.4,1,1.58.94,2.57-.07,2.41,2.3-1.77,1.93.66-.29,1.9.84,2.24,2,2.58a8.54,8.54,0,0,1,4.83,2.84A1.49,1.49,0,0,0,262,483c3.58.17,5.79,3.46,9.31,4.11,1.62.3,2.4,1.88,1.85,4.26-.89,3.87,1.11,7.38,3.34,10.49.74,1,1.82,1.94,2,3.17s-.72,2.77.52,4c-1.08,1.18-.46,3.05-1.13,4-1.21,1.71.46,2.83.18,4.27-.44,2.23.14,4.14.91,6.25a50.63,50.63,0,0,0,2.86,5.82c1,2.07,3.17,3.43,3.35,6.15.07,1.1,1.69,2.15,2.44,3.41.63,1.05,1.12,2.42,2.06,3.12,1.28,1,1.05,3.34,2.42,3.4,2,.09,1.68,1.94,2.84,2.66,2.29,1.44,3,2,4.64,1.92s3.07-2.41,4.77-.22c0,0,.61-.19.63-.33.44-3,3.38-3.05,5.14-4.42,2.35-1.81,4.49-3.69,4.81-6.76.12-1.11,2-1.86.83-2.93s.93-2.33-.72-2.89c1.23-.74,1-2,1-3.09s-.25-2.14.16-2.92c.52-1,1.87-.14,2.73-.49,1.28-.54,2.39-1.55,3.7-1.92,2.7-.75,3-2.92,3.39-5.08.26-1.55-.36-3.18.89-4.69.27-.32.05-2.87-.51-3.15-1.86-.91-2.17-2.44-2.32-4.08a6.45,6.45,0,0,0-1-2.62c-1-1.88-4-2.73-3.08-5.63a.54.54,0,0,0-.13-.43c-.82-.84-1.72-1.59-2.45-2.5s-.57-2-2.07-2.1c-.78,0,1.89-2.07-.75-1.9-.14,0,.17-2.2-1.49-2.27,0-.46-.07-1.11.19-1.32.9-.77.66-2.12,1.66-2.88.3-.23-.07-1.29.87-1.4,1.25-.14,2.7.51,3.61-.93,2.72,2.63,4.49-.68,6.71-1.12a2.19,2.19,0,0,0,1.85-2.48,1.72,1.72,0,0,1,.73-1.7,12.6,12.6,0,0,0,3-4.27c.84-1.54.91-3.58,2.25-5-2.55-1.57.87-3.07.06-4.7A1.64,1.64,0,0,1,334.85,461.68ZM514,339.64c-.64,1.45.78,2.34,1,3.57a.84.84,0,0,0,1,.8c3.79-.24,7.53.53,11.11-2.3a7.54,7.54,0,0,1,8.86-.82c1.26.77,2,2.94,4.1,2.09,1.48-.61,2.68,1,4.3.33.62-.28,2.26,1.35,2.86.62,1.74-2.1,5-1.57,6.41-4,.52-.89,1.4-1.45,2.38-.39.81.88,1.86.39,2.8.46,1.11.09,2.47-.31,2.26,1.6,2.66.78,3.54,3.67,5.86,4.91s4,3.6,6.61,4.56c1.1,3.13,4.41,2.13,6.46,3.48,1.2.8,2.66.78,4,1.3s3.16,1.76,5.18.29c1.06-.77,3-.66,4.47-.84,4.87-.62,4.92-.32,7.22-2.62,1.4-1.41,3.68-2.7,3.94-4.3.38-2.29,2.39-2.91,3.15-4.66.47-1.09,1.65-1.69-.53-1.83-.46,0-.48-.63-.09-.65,2.62-.11.8-1.44.7-2.33a23,23,0,0,0-3.66-10.06,2.18,2.18,0,0,1,0-2.69c1.09-1.45.83-2.65-.5-3.78-.64-.54-1.09-1.43-1.8-1.71-2.3-.88-2.63-2.39-1.78-4.46a23.19,23.19,0,0,0-.72-5.08c-2.38,0-.78-1-.64-1.89.18-1,.5-2.29-1.48-2.37-.73,0-1.32-1.46-2.15-2s0-2.29-.95-1.57c-1.94,1.39-1.12-.51-1.49-.95-.76-.92-1.58-1.67-2.93-1.38-3.62.79-7-1.31-10.58-1-1.36.1-2.55-1-4-1.23-.87-.15-.08-1.82-.4-2.71a29.86,29.86,0,0,0-1.38-2.92c-.54-1.11-1.46-2.22-1.5-3.34-.05-1.73-.81-1.84-2.13-1.77-1,0-.71-.3-.44-1.09.84-2.45.73-2.72-1.73-2.81-1.65-.06-2.31-1.12-3.17-2s-1.16-.56-2.21-.23c-1.74.56-3.69.34-5.57,1.07-1.7.66-3.71-.21-5.61,1-1.24.79-1.74-1.7-3.1-1.89-1.12-.16-2,2.2-3.31.34a3.25,3.25,0,0,0-2.94-1.4c-1.25,0-2.89.77-3.75-.42-1.22-1.68-2,.7-3.22,0a9.85,9.85,0,0,1-3.07-2.19c-.29-.38-.41-.34-.73,0-1,1.26-2.52.28-3.72.66-2,.66-4.41,1-6,2.31a6.51,6.51,0,0,0-2,5c.15,1.51-.69,2.69-.43,4.12.51,2.76-1.63,5.25-1,8.07-1.9,1.47-.12,4.73-2.81,5.83.71.8-.16,1.94.17,2.41.72,1,1,1.65-.05,2.47,1.35,2.41-1.07,4.61-.37,7.05.28,1,.45,2.34-.8,3.12,1.08,1,.85,2.29.86,3.53,0,1.66,0,3.33,0,5,0,1.5.62,3.72-.12,4.36-2,1.79.11,2.94.22,4.3S513.31,338.27,514,339.64Zm28,259.73c0-.32,0-.82-.12-.94a5,5,0,0,1-2.1-4.14c-1.49.64-2.61,2.13-4.47,1.89-1,2.52-2.87.68-4.33.8s-2.66,0-4,0a12.22,12.22,0,0,0-3.48.06c-2.09.64-.9-2.26-2.61-2.1-3.29.31-4.64-2.58-5.73-4.68-.88-1.68-1.09-1.07-1.65-.26-.7,1-.87,2.58-2.21,2.93-2.13.56-3,2.43-4.43,3.74s-2.27,2.55-4,3.45c-1.57.83-2.62,2.71-4.64,3.1-.05,2-2.14,2-3.18,3s-1.57,3.29-3.82,2c-.42,2-2.44,2-3.68,2.88s-3,1.3-3.55,2.86a3,3,0,0,1-2.86,2.1,10,10,0,0,0-3.31,1.59c-.81.45-.87,1.26-.89,2.13,0,1.23.87,1,1.57,1.31a17.91,17.91,0,0,1,3.13,2.08c.9.67-1.37,1.6-.22,1.64,2.46.08,4.18.3,3.58,3.39a.93.93,0,0,0,.48.76c2.15.94,3,2.86,3.87,4.82.49,1.05,3.52,5.58,3.57,6.58a2.43,2.43,0,0,0,1,2.08,15.38,15.38,0,0,1,1.94,1.13c.17.15-1.43.69-.43,1.29.63.38,1.24.25,1.6,1.31.67,2,2.74,2.7,4.58,2.72,2.32,0,4.3,1,6.33,1.7.82.31,1.83.65,2.28.32,1.22-.87,1.37-.81,2,.66.56,1.32,2.22,2.17,3.4,3.23,1.71-2,2.49,0,3.45.85A1.63,1.63,0,0,0,521,656c1.53-1.47,3.65-.59,5.37-1.62a19.22,19.22,0,0,1,7.09-2c2.42-.33,5-2.69,7.62-.35.43.38.76-.5,1.18-.65,1.3-.49,3.17-1.64,3.84-1.16,1.42,1,2.67-.58,3.2-.07,1.46,1.41,2.47-.48,3.77-.17.94.23,1.87.21,2.54,1a2.34,2.34,0,0,1,3.07-.86,6.87,6.87,0,0,0,6.72,0,1.08,1.08,0,0,1,1.67,1.07c0,1-.55,3,1.57,1,.19-.18,1.53,2.41,2.5,1.78,1.9-1.26,2.28.55,3.38,1s2.42,1.93,3.48-.23c.41-.84,1.63-1,1.93-.11.37,1.12.29,2,1.5.62a17.73,17.73,0,0,0,2.15,1.84,1.77,1.77,0,0,0,1.46,0c1.08-.5,1.92-1.19,2.44.75.11.42,1.73,1.1,2.63,1.77a2.44,2.44,0,0,0,3.9-1.21c.23-.59-.22-1.71-.91-1.21-2,1.42-2.72-.29-3.7-1.28-.4-.4-.56-1.62-.72-1.6-3.42.42-4.1-3.55-6.8-4.19-.53-.12-1.1-.48-.8-.94,1.34-2.06-3.15-2.57-1.18-4.71-2.29-.13-1.91-3.69-4.47-3.47-.21-1.36-2.31-.19-2.43-1.92-.11-1.47-2.43-.89-2.71-2.27s-1.75-2.37-1.27-4c0-.17-.31-.57-.56-.68-2.24-1-4.42-2.46-6.77-2.88a6.69,6.69,0,0,1-4.16-2.13,5.35,5.35,0,0,0-3.64-2.13c-1.92-.19.28-.9.15-1.42s.45-2-1.09-.88c-1.09.77-1.09-.77-1.76-.94,2.12-1.95-2.31-1.38-1.28-3.18.15-.26-.78-.13-.87.59,0,.29-.18.74-.39.81-1.94.69-3.26-.76-4.73-1.54-1.26-.67-1-1.89-.67-3,.26-1-.48-5-.09-5.87,1-2.1-2.53-3.77-.3-5.82.28-.26-.42-.58-.9-.61-1.07-.08-.83-.48-.31-1.13S540.61,600,542,599.37Zm31-43.63c0-3.48,0-3.49-1.86-6.08a12.46,12.46,0,0,1-1.22-2c-1.74-3.61-3.3-4.43-7.9-5.74a12.83,12.83,0,0,1-5.27-2.82c-2.69-2.57-5.79-3.24-9.24-3.1-2.54.1-3.21.22-4.45-.52-.93-.55-1-.26-1.06.55,0,.45-.23,1.18-.69.69-1.17-1.27-1.81-.15-2.84.13-1.57.42-2.64,2-4.44,1.68-2.13-.36-3.21,1.27-4.56,2.42-.29.25-1.1-.16-1.45.07-1.82,1.19-4.71,1.2-5.58,3.2-1.6,3.67-5.27,5.87-6.43,9.73-.28.95-.71,1.74-1.75,1.75-.4,0-.86-1.25-1.23,0-.18.62,0,1.31,1,1.29.83,0,1.24.89.42.86-1.93-.07-1.27,1.61-2,2.3-1,.91-.63,1.72.82,1.85.25,0,.48.33.72.51-2.1,1.22.2,3.19-.86,4.84-.86,1.34-2.09,3.51.57,4.81.42.21.25.36,0,.72-.92,1.17.75,2.06.41,3.33-.39,1.5,1.28,2.45,1.49,3.83a13.37,13.37,0,0,0,2.39,6c.58.79,1.54,1.33,1.82,2.21.87,2.71,2.68,3.34,5.4,3.82,6.52,1.13,7.49,1.08,11.87-3.4,1-1,2.35-2.21,3.33-2.35,1.36-.18,3.22-.6,4.37,0,1.34.74,3.07-.09,3.67.67,1.32,1.64,2.33-.83,3.2,0,1.91,1.93,2.29-1.41,2.78-1,2.31,2,2.81-2.6,4.82-1.18.11.07.77-.35.75-.43-.72-2.81,4.36-4.64,1.3-7.87-.41-.44.28-.72.76-.66.64.08,1.15-.49,1-.77-1.17-1.62-.51-3.11,0-4.72.12-.41-1.53-1-.19-1.76,2.14-1.26,4.17-2.86,6.48-3.63,1.36-.45,2-.66,1.78-2.09-.16-1,.48-1.75.91-2.63C572.65,558.89,573.56,557.24,573,555.74Zm-4.24,70.08c1.61,1.26,3.06-.42,4.69-.9a15.8,15.8,0,0,0,5.78-2.81c1.93-1.64,4.2-3.15,5-5.84.18-.56.86-1,1.38-1.41,1-.77-1.46-1.39-.22-1.7,2.46-.62,3.09-1.72,1.8-3.9,2.14-1.55-.7-2.72-.32-4.28s0-3.31.1-5a1.27,1.27,0,0,0-.73-1.19c-1.38-.84-1.35-2.13-1.3-3.48s-.55-1.62-1.82-1.06c-1.53.67-3.15,1.54-4.75,1.56a20.7,20.7,0,0,0-9.49,1.81c-.76.33-.84,0-.9-.38-.15-.89-.12-1.79-1.26-.57a1.88,1.88,0,0,1-2.28.17c-1.12-.9-1.13-1-1.65.54a8.15,8.15,0,0,0-.84,3.14c0,.65.12,1.39-.84,1.44-1.44.09-.81.46-.45,1.34.49,1.24-1.93.12-1.68,1.46a3,3,0,0,1-1.67,3.29c-2.68,1.64-2.88,4.95-4.93,7-.56.56-.17.94.23.92,2.33-.09,1.94,2.3,3.07,3.26.57.49.28,1.26,1.09,1.89,2.12,1.64,5.29,1.85,6.52,4.69a1,1,0,0,0,.87.18C565.63,624.48,567,626.64,568.76,625.82ZM578.42,591c-.4,0,.15,1.53.34.59.33-1.67,1.19-1.54,2.36-1.65.54-.05,1.1-.64,1.51-1.1.8-.92-.83-1-.71-1.94s-1.06-1.59-1.77-2.19c-1.24-1.05-1.78-3.29-2.9-3.53-2.52-.55-.11-3.23-2.2-3.9-.78-.25-.93-2.17-1.54-3.23-.71-1.24-2.44-1.7-2.55-3.46,0-.5-.5-.55-1-.11-1,.91-3.61,1.2-2.81,2.57,1,1.81-.29,2.94-.1,4.26.36,2.4-1.61,3.85-1.91,5.7-.38,2.37-1.75,3.72-3.2,5.11-2.93,2.82-6.29,4.7-10.59,3.74-.39-.09-1-.7-1-.64-2.27,2.24-4.15,0-6.13-.56-.53-.16-1.25-1.11-1.11.12.11.92-1.76,1.12-.47,2.25,1.86,1.64,2.13,2,2.29,3.52.09.91,1,1.48.89,2s-1.13,1.11-.69,2.09,2.15-2,1.89.72c-.13,1.32-.53,3,.09,3.91,1.06,1.51.75,3.35,1.82,4.8.48.65.58,1.12,1.13.33,1.05-1.54,2.35-3.07,2.84-4.8a10.59,10.59,0,0,1,2.81-4.84c.55-.55,1.38-.94,1.3-2-.21-2.65,2.5-3.91,3-6.24a.85.85,0,0,1,1.18-.54c1,.79,1.8.85,2.59-.3s1.4-.79,2.45-.12a7.81,7.81,0,0,0,3.71.88c.79,0,.95-2.27,2.53-.63,1,1.08,1.67-1.38,3-.9A11.52,11.52,0,0,0,578.42,591Zm19.75,33.76c.17-3.52-2.5-6.42-3.91-9.83-1-2.46-2-2.19-3.28.27-.52,1-1.28,1.87-1,3.09a1.91,1.91,0,0,1-1.28,2.37c-1.7.2-1.76,1.6-2.36,2.54-.94,1.46-2.92.15-3.89,1.69-.25.4-1.25.19-1.55,1.3-.51,1.88-2.6,2.58-4.09,2.65-1.71.08-2.93,1.33-4.58,1.17-.71-.07-1.29.09-1.26,1,0,.61.38.73.83,1,1.82,1.05,3.78,1.92,4.87,4,.07.14-.62,3.43,1.63,1.19,1.07.65,2.1,1.5,3.14-.11.44-.67,1-1.33,2-1.07,1.75.46,2.75-.66,3.76-1.77a11,11,0,0,1,3.82-2.84,21.23,21.23,0,0,0,7.23-5.23C598.53,625.9,599.35,625.7,598.17,624.76Zm7.18,18.29c.4-.07,1.08,0,1.3-.27.65-.83-.44-1.06-.78-1.33a2.86,2.86,0,0,1-.88-2.65c0-.63.16-1.75-.48-1.72-2.48.12-1-2-1.7-2.75-1-1.07-2.32-1.94-1.84-3.74,0-.09-.39-.3-.61-.45a4,4,0,0,0-.35.84c-.32,1.83-.91.17-1.4.18-1.07,0-.72,1.94-1,1.7-1.66-1.58-2.29.22-2.83.94-1.2,1.63-2.22,3.35-4.59,3.19-.8-.06-1.16.48-1.62.92C587,639.42,585,639.63,583,640c-.71.14-1.75-.48-2,.79-.18,1,.69,1.44,1.27,1.94s2.13.1,1.72,1.7c2.27.74,2.75,3.21,4.43,4.57,3.05,2.49,3.54,2.46,6.31-.11,1-.88.82-2.8,2.16-2.8,1.8,0,2.62-1.13,3.62-2.13C601.92,642.56,603.4,641.9,605.35,643.05Zm-2.8,18a7.91,7.91,0,0,0,5.2-2.22,7.73,7.73,0,0,1,2.68-1.9c1.9-.76,1.82-1.77,1-4-.47-1.3-1.45-2.29-1.58-3.85a3.88,3.88,0,0,0-3.28-3c-.92.11-11,5.48-11.29,6.23-.44,1-1.05,2.42.55,2.69,1.8.29,1.27,2,2.18,2.84s2.63.79,2.88,2.11S601.8,661,602.55,661ZM621,674c-1.42-1.35-.5-3.8-2.43-5-.74-.45-1.77-1.08-1.56-2.29a5.16,5.16,0,0,0-2.31-5.5,1.66,1.66,0,0,1-.71-1.69c.12-1.44-.19-1.83-1.4-.64s-1.85,3.57-4.42,3.55c-.92,0-1,2-.17,3,.7.88,2,.75,2.73,1.74s-1.48,1.45-.27,1.66c1.06.19,1.55,1,2.51,1.23,1.65.35,2.42,2.57,4.63,2.18.4-.08.63,2,1.74,2.58a2.06,2.06,0,0,0,1.32,0C620.84,674.74,620.89,674.26,621,674Z"/><path d="M454.94,584.89c-3.06,1-5.84-1.44-8.95-.9-.83.15-1.06-.67-1.55-1.06-.75-.61-1.45-1.83-2.19-1.84-3.49,0-3.75-2.73-4.81-5-.73-1.6-.53-2,1.09-2.12.5,0,.7-1,.44-1.22-2.14-1.79-.45-3.58.1-5.17a12.15,12.15,0,0,1,4.55-6.48c2.05-1.33,4.28-.11,6.39.46,1,.28,1.74,1.22,3.13,1,1.21-.23,2.42,1.33,3.48,1.36,1.42,0,2.34,1,3.57,1.13,1,.1,1.75,0,1.92,1.48.12,1.12,1.77.16,2.56.73s0,2,1.65,1.9c1.08-.07.54,1.62,1.41,2.26.6.45.14,1.91,1.74,1.74.64-.07.62,1,.51,1.67a11.51,11.51,0,0,1-7.9,9.23A12.71,12.71,0,0,1,454.94,584.89Zm-.8-4.74c1.43-1.42,1.9,1.44,3.36.86a71.84,71.84,0,0,0,6.45-3.49c-.29-1,1.39-1.81,0-3.21s-3.91-2-4.64-4.4c-.35-1.12-1.59-1-2.57-.9-1.34.08-.53-2.43-1.39-1.7-1.66,1.41-2.25.24-3.21-.6-.25-.21-.37-1.07-1.05-.36-1.21,1.27-2.79.5-4.2.63-2.5.23-5.49,3.73-4.88,6.07a12.07,12.07,0,0,0,1.76,3.24c1,1.5,3.19,1.71,3.79,3.61,1.2-1.61,2.56,0,3,.42C452,581.55,452.8,579.22,454.14,580.15Z"/><path d="M565.42,468a3,3,0,0,1,3.65,1.67c.91,2.57,4.34,3.57,4,6.86,0,.39.86,1.34,1.8,1.47,1.58.23,1.35,1.11.56,2-.45.49-.28.71.07,1.08,2.1,2.26,2.5,5.05,2.45,8a23.09,23.09,0,0,0,0,4c.75,4.55-2.14,7.75-4,11.33-.73,1.39-2.29.31-3.41,1.35-1.66,1.54-3.54-.58-5.39-.71-1.31-.09-1.73-1-2.29-2.12a16.74,16.74,0,0,0-2.86-3.31c-.54-.58-.61-.57-.26-2.82.1-.66-.38-.75-.64-1.05-.7-.84-1.92-1.44-.62-2.82.36-.38.11-.81-.75-.83-1.8,0-2.81-.83-2.75-2.61a2.27,2.27,0,0,0-1.17-2,2.3,2.3,0,0,1-.82-2.64c.22-.87,1.72-1.9-.63-1.88-.14,0-.47-.67-.39-.77,1.16-1.47.73-3.35,1.31-5,2.8,0,1.08-3.32,3.08-4.19a19.36,19.36,0,0,0,4.63-3.37A5.36,5.36,0,0,1,565.42,468Zm-7.52,12.08c1.08,4.66,2.16,9.37,5.11,13.28.77,1,.91,2.34,1.94,3.25.47.41-.28,2.16.42,2.11s1.42-.8,2.15.25a14.6,14.6,0,0,0,1.74,1.78c.24.24.64.19.67-.22.12-1.71,5.18-1,2.1-4.24-.26-.28.15-.85.41-1.29a4.78,4.78,0,0,0,0-5c-.36-.61-.75-1.22-.21-1.69,1.27-1.1,0-1.9,0-2.79-.07-1.9-4-2.75-1.34-5.16-.84-.51-2.16-.4-1.91-2.13.41-2.71-1.46.55-1.94-.65-.41-1-1.76-1.36-2-2.65s-1.92-.93-2.77-1.62C560.63,475.45,557.3,476.49,557.9,480.09Z"/><path d="M602,585.5s-1.81-2.82-1.81-2.82c-1.2-.94-1.84-1.93-.25-3.11-1.47-1.28-.72-3-.94-4.54s1-3,.49-3.84c-1-1.7.38-2.7.38-3.9,0-4.12,3.44-6,5.22-8.86.46-.74,1.64-.16,2.06-1.06.21-.47.37-.22.72-.08.81.31.77,2.47,2.52,1,.66-.56,1.44,2,2.33,1.35,1.82-1.3,1.73.76,2.5,1.16s1.3,1.41,2.51,1.22c2-.31,1,2.07,2.22,2.54-1.05.91-1.26,1.5.51,1.47.18,0,.58.56.52.7-1.16,2.57,1,5.24-.09,7.61-.59,1.34-1.3,2.14.1,3.24.15.12.11.86,0,.92-2.39,1.15-1.59,4.82-4.49,5.61-.55.16-.54,3.13-.52,4.42,0,.89.93,2.45-1.25,2.55-.63,0-1.28.95-1.81,1.56-1.09,1.28-2,2-3.57.41-.6-.62-1.22.69-2,.8-.13-2.79-3.9-2.47-4.2-4.62C603,587.84,599.89,587.41,602,585.5Zm1.94-11.16c-.26.71-1,.77-.69,1.39.45.82,1,1.59,1.39,2.43s-1,1.84.48,2.48.4,2.27,1.13,3,2,.58,1.82,2.22a1.88,1.88,0,0,0,2.14,2.09,2.35,2.35,0,0,0,1.82-2c.59-2.56,2.73-4.65,2.27-7.61-.06-.39,1-1.34.67-2.12-.39-1,1.67-1.17.45-2.39-.84-.84.74-1.06,1-1.7.18-.39.42-.5.14-1.1a17.78,17.78,0,0,0-4.64-6.56c-.73-.61-1.93-.4-2.41-1.41-1,1.87-3.14.26-4.41,1.36a5.14,5.14,0,0,0-.7.7,26.78,26.78,0,0,0-.71,5.12C604,571.69,602.73,573.21,603.93,574.34Z"/><path d="M539.9,626.55a8.77,8.77,0,0,1-.86,5.54c-1.56,2.88-2.5,3.11-6.25,3.35-1.77.12-3.62.54-5.46.55s-3.78.12-5.62-.89c-.82-.45-1.69-.19-1.88-1.6a2.22,2.22,0,0,0-2.94-.83c-.38.25-.41.13-.74,0-1.69-.47-2.08-2.12-3.08-3.19-1.19-1.26-3.76.35-3.88-1-.16-1.86-2.36-1.2-2.09-2,.72-2.31-2.12-4.05-.71-6.45.49-.82-.2-2.34,1.54-2.42a19.19,19.19,0,0,1,.15-4,2.41,2.41,0,0,1,1.69-1.54c2.08,0,4.15-.29,6.28.38a98.36,98.36,0,0,0,9.8,2.17c.29.06.35-.64,1.08-.29,2.07,1,3.93,2.32,6.35,2.8,2.1.42,3.12,3,5.2,4.16C539.94,622.12,540.73,624.74,539.9,626.55ZM517.54,618c-2.07,0-3.24,0-4.4,0a1.25,1.25,0,0,0-1.15.65c-1.29,1.7-1.11,3.68-.94,5.57s2.13,0,2.82,1.13c.24.39.79.48,1.18.71,3.83,2.21,7.44,5,12.33,4,.1,0,.29.14.38.26,1.06,1.42,1.91.63,2.76-.25.9,1.42,2.33.91,3.59,1,.37,0,1.22-.26.58-.71-1.89-1.3-1.76-2.68-.74-4.43a1.43,1.43,0,0,0-.39-1.79c-1.27-1-2.2-2.27-3.68-3.12C525.72,618.53,521.1,618.69,517.54,618Z"/></svg>