<svg xmlns="http://www.w3.org/2000/svg" width="1080" height="1080" viewBox="0 0 1080 1080"><defs><style>.a{fill:#f0dfd2;}.b{fill:#fff;}.c{fill:#f15a29;}.d{fill:none;}</style></defs><title>Mushroom 1B</title><path class="a" d="M557.7,470.73s-15.93,26.38-32.1,42.55c-15.3,15.3-44,37.2-44,37.2s7.8-31,6.95-44.6-4.95-23.25-10.05-29.2c-7.53-8.78-16-1.83-16-1.83l-3-1.27s-5.1,7.65-7.65,20.4a35.75,35.75,0,0,0,.87,17.82A394.92,394.92,0,0,1,434,554.33c-12.93,24.86-33.25,41.5-37.13,87-4.67,54.83,22,85,50.88,109.68,26.91,22.95,53,44.32,53,44.32a335.57,335.57,0,0,0,86.28-20c49-18.84,68-51,68-51s-27.9-8.65-42.35-20.55-29.18-28.63-29.18-28.63,33-27.37,43.23-41.82,26.12-36.87,41-51.8c15.3-15.3,33.87-24.23,45.77-37.83s28.05-34,18.7-41.65S712,505.12,706,508.73c-10.63,6.37-20.4,14.15-29.75,20.95s-14.38,9.46-20.4,13.6c-13.6,9.35-12.7,4.35-12.7,4.35s19.22-31.13,30.7-58.75c9.63-23.19,12.6-34.85,16-55.25,3.1-18.62,2.55-27.2-1.7-31.45-3.85-3.85-8.93-1.28-8.93-1.28s3.83-10.62-3-14.87S662,381.85,651.17,395c-8.07,9.78-8.62,14.88-14.57,22.53s-13.2,17.85-19.15,24.65-17.55,23.1-17.55,23.1,0-21-9.5-28.5c-12.33-9.78-27.9-4.25-45.75,0s-26.5,8.8-26.5,8.8-14.45-1.15-21.25,2.25c-7.21,3.6-10.78,5-11,10.2-.43,8.07,5.1,8.35,5.1,8.35s6.06,6.23,22.1,8.1C531.32,476.55,552.17,472,557.7,470.73Z"/><path class="b" d="M459.5,473.58c-2.28-1.14-3.83,6.37-6.8,15.72-2.57,8.07-3.83,21.25-1.28,21.68,4.13.69,12.93-7.66,13.18-14.45C465,485.05,461.2,474.43,459.5,473.58Z"/><path class="b" d="M517.72,449.35c0,10.84-2.55,12.6-14,14.73-7.93,1.47-15.43,3.82-15.85-5.1-.17-3.5-1.17-8.72,9-11.2C512.62,444,517.72,444.25,517.72,449.35Z"/><path class="c" d="M450.15,412.38,435.27,424.7s20.83,17.43,26.78,26.78,9.73,17.7,17.42,27.87c13.18,17.43,22.1,22.53,35.28,37,11.54,12.66,15.72,20,19.55,24.65,2.4,2.94,6,2.55,9.35.85s7.65-3.25,3.82-9.63c-2.76-4.61-16-18.53-22.52-27.17-10.63-14-35.7-39.55-43.35-51.45S460.35,419.18,450.15,412.38Z"/><path class="c" d="M382.15,329.93s42.07,73.52,46.75,86.7c3.06,8.63,6.37,27.17,6.37,27.17s6-2.1,6.17-10.81c0-.67,6.16,9.24,6.16,9.24s5.26-1,3-12.43c-.42-2.12,5.51,5.51,10.63,10.63,1.27,1.27.42-9.08-2.13-16.73,5.53,2.13,7.2-1.15,11.45-2.85-5.1-4.25-1.41-.62-9.72-8.47-15.3-14.45-45.68-96.48-45.68-96.48Z"/><path class="a" d="M383.85,306.13c-23,10.2-18.7,39.1-20.4,61.2s-3.21,27.76-9.35,35.95c-5.1,6.8-16.15,12.05-13.6,16.3s5.1,5.4,12.75,9.65,17,1.55,24.65-4.4,11.2-11.05,18.85-15.3,12.75,1.4,25.5-3.7c12.94-5.18,11.58-10.51,17.7-14,5.95-3.4,4.86,1.23,12.75-4.4,5.95-4.25,4.82-8,10.35-9.35,6.8-1.7,12.6,4.1,20.25-1s0-9.75,7.65-14.85,20.4-3,25.5-10.65-.85-10.2-4.25-9.35c.85-4.25,0-12.3-9.35-9.75-7.34,2-6.8,5.1-17,5.95-8.52.71-36.55-23.4-57.8-31.05C411.58,301.45,395,301.19,383.85,306.13Z"/><path class="d" d="M649.2,529.41c.15-1.12,1.38-2.06,2-3.15a21,21,0,0,0,2.08-4.12c.48-1.55,2.33-1.85,2.69-3.3.81-3.24,2.7-5.89,4.28-8.74,1.34-2.41,2.82-4.76,4-7.35s1.81-5.57,3.46-8.09a8.18,8.18,0,0,0,1.51-3.91c.05-.84,2.06-1.39,2.44-2.84s.5-3.42,1.49-4.3c1.3-1.15-.07-3.91,2.66-4,.23,0-.28-.63-.75-.63s-1.16-.23-.78-.65c1-1.09,1.33-2.5,2.29-3.63.53-.61-1.23-2.28-.12-3.67a21.8,21.8,0,0,0,1.09-2,4.33,4.33,0,0,0,.66-4c-.45-1.47,3-2.55,2.5-3.55-.81-1.69-.08-1.32.89-1.54a.89.89,0,0,0,.42-1.24c-1.63-1.45-.2-3,.48-3.44,2.82-1.77.48-5,2.34-6.94-2.17-2.26.08-3.37,1.16-4.88.31-.42-.06-1.35.89-1.4.49,0,1.2-.28,1-.56s-1.07-.52-1.64-.75a5.64,5.64,0,0,1,.31-.71,4.48,4.48,0,0,0,.27-3.7,31.35,31.35,0,0,1,0-4.54c.42-1.49,1.25-3,1.17-4.47-.21-3.57,2.53-7.11.12-10.7a1.42,1.42,0,0,1,.27-1.33c.92-.87.94-1.55,0-2.47s-.45-1.95-.28-2.83c.64-3.36-1.38-5.34-3.72-6.85-1-.65-2.37-1.59-4.2-.22-2.28,1.7-5.89,1.18-7.71,4l-.68-.68c-1.54,1.46-3,2.95-4.56,4.44,2.33,2.81-1.1,3-2.06,4.26-.26.35-1.26.28-1.11,1.15.42,2.43-1.4,4.1-2,6.17l-2,5.84c0,.49-.14,1.25.1,1.43,1.39,1,.32,1.5-.28,2.17-.32.35-.75.75-.78,1.16a20.34,20.34,0,0,0,0,3.49,4.89,4.89,0,0,1-1.42,3.38c-1.18,1.4,1.41,1.83.4,2.88-1.57,1.61-.65,3.89-1.73,5.8-1.57,2.78-2.19,6-3.83,8.92-1,1.75-2.26,3.87-2.33,6-.08,2.57-1.62,4.38-2.53,6.49a9.51,9.51,0,0,1-2.11,3.06c-1.05.94.75,3.16-2,3.34-1.08.07-.24,2.36-.52,3.61a2.94,2.94,0,0,1-.56,1.26c-2.21,2.51-3.22,5.65-4.58,8.6-3.57.93-2.3,6-5.85,6.9,1.13,2.32-2.74,2.45-2,4.59-1.71,1.34-1.66,4.06-4.15,5a3.44,3.44,0,0,0-1.81,3.46c.25,2.7-2.68.48-3,2.09a1.15,1.15,0,0,0,0,.49c.34,1.42-.75,2.07-1.53,2.87-1.49,1.56-3.64,2.85-4.33,4.7-1.15,3-3.88,2.21-5.8,3.23-.89.48-1.35-.3-1.39-1.35a2.39,2.39,0,0,1,1-2.08c1.09-.92,1.32-2.64,2.88-3.13-1.32-1.18-.73-1.58.64-1.32,1.94.37,1.85.46,1.52-1.66-.11-.73-.47-1.79.41-2.25.39-.21,1.42,1.89,1.58-.41.09-1.23,1.75-.46,2.24-1.47.76-1.59,2.25-2.81,3-4.27s2.38-1.72,2.75-3.26,3.55-2.15,1-4.26c.67-.7,1.67-.72,2.47-1.34,1.14-.88-1.28-2,.08-2,2.49-.09.74-2.25,1.71-2.82s2.27-.94,3.38-1.46c.57-.27.41-.91.31-1.35-.21-1,1-1.5.85-2s-1.29-1.22-.65-2.06c.81-1,2.62-1.93,2.6-2.84,0-1.06,1.81-1.41.61-2.87-.72-.88,1.38-1.59,1.77-2.92.45-1.56,2.41-2.54,1.92-4.73-.23-1,.93-1.51,1.76-2,1.39-.88,2-2.47,2.95-3.7-1.84-1.07.8-1.6.32-2.8-.6-1.46,1.11-2.26,2-3,1.39-1.15.37-3.08,1.64-4.16a1.59,1.59,0,0,1,.59-3c1.82-.35,1-1.37,1.1-2.25.53-4.21,2.35-8.18,2.48-12.45,0-1.49,1.8-2.45,1-4.08,2.17-.89.31-2.33.41-3.48.11-1.43,2.58-2.22,1.29-3.71s1.3-2.31.38-3.87,1.46-3.12,1-5c-.09-.41.78-.47,1.26-.41s1.36,2.16,1.67-.26c.12-.95,1.54-1.47.44-2.91-.89-1.15,1.32-1.43,1.48-2.44s-.29-2.24.19-2.91c.67-.95,1.38,1.21,2.3.48.61-.48,1.57-1.35,1.45-1.8-.79-2.87,1.64-3.84,3.18-4.53s1.77-2,2.67-2.94c1.16-1.19,1-.3,1.28.57.32,1.07.86.77.93-.13.1-1.21.73-1.25,1.64-1,.54.13,3.57-2,3.35-2.17-1.56-1.31.3-2.49,0-3.72,0-2-1.88-4.15-4.08-4.83-1.92-.59-4.15-.17-5.78-1.73-1.35-1.3-1,.1-1.16.72s-.61.65-1.15.64c-2.54-.06-4.88.32-6.22,2.88-3.4,0-4.49,3.25-6.49,5-1.8,1.6-2.54,4.43-4.6,6s-1.75,4.75-4.51,5.58a35.94,35.94,0,0,1-7.41,10.42c-.23.22-.61.54-.57.74.49,2.31-1.55,3.08-2.61,4.44s-2.31,2.43-2.73,3.85c-.51,1.75-2.46,2-3,3.69a16.9,16.9,0,0,1-.76,2.66c-.37.7-1.86.85-2.15,1.54-1.82,4.32-6.47,6.11-8.65,10.31s-6.6,7.27-8.12,12.14c-2.09.94-2.43,3.8-4.42,4.48-1.52.51-1.62,1.16-1.59,2.36.06,2.28-.23,4.35-2.82,5.28-.51.18-.74,1-1.18,1.47-2.09,2.19-3,5.11-4.73,7.57-.71,1-1.51,2-2.21,3.06-.51.77.76,2.18-1.29,2.62-1.52.33-.11,2.58-.88,3.34s-.65,2.14-1.66,2.88a9.22,9.22,0,0,0-2.77,2.83c-.55,1.06-1.7,2-1.43,3.39.47,2.46-1.65-.18-2.09,1.15-1,3.18-3.24,5.71-5.27,8.35-.82,1.07-2.49,1.7-2.53,2.77a4.53,4.53,0,0,1-2.16,3.63c-1.35,1-1.9,2.57-2.74,3.9-.73,1.13,0,3.37,1,3.26,2.69-.28,4.28,1.87,6.56,2.43,3.29.81,6.74,1.53,9.67,3.12,2.48,1.34,4.8,2.87,7.61,3.39,3.27.61,5.52,3.52,8.88,3.89,1.36,1.84,4.13,1.22,5.34,2.64a8.27,8.27,0,0,0,6.28,2.91c.47,0,.93-.06,1.34.39,1,1.1,2.38,2,3.1,3.23,1,1.76,3.09.78,4.2,2.07,2.56,3,6.23,4.73,8.8,7.75,2,2.32,1.8,1.88,4.13-.61a17.37,17.37,0,0,0,2.48-4,9.57,9.57,0,0,1,.73-1.69c3.69-4.32,4.41-5.45,5.62-9.58.18-.59-.13-1.35.72-1.6C648,533.33,648.9,531.75,649.2,529.41ZM650.49,478c.4-.28.73-.95,1.09-.94,1.43,0,3-.51,4.29.38.76.52,1.37.93,2,.08.08-.1-.77-1.27-1.22-1.29-1.34-.05-2-1.48-3.51-1.28-1.8.24-1.25-1.85-2.06-2.72-.58-.63.55-1.39,1.14-1.89a2.82,2.82,0,0,1,1.34-.32c1.42-.2,1.78,1.37,2.77,1.72.79.27,1.56-1.55,2.76-.2s2.23,2.48,4.4,2.65c1.65.13,1.6,3,3.16,4,.81.54.16,1.55.33,2.16,0,.81.14,1.63-.78,1.6s-2.1.64-2.22-1a2.63,2.63,0,0,0-.38-.82c-.2.18-.53.34-.57.56-.09.48.08,1,0,1.48-.28.95.87,2.28-.89,2.89-2.43.83-3,.81-4.34-.78-1.86-2.18-1.86-2.17-4-2.25-.81,0-1.78.17-2.38-.21s-2.16-.78-.69-2.05C651.4,479.16,649.38,478.77,650.49,478ZM629,471.06c0,.61-.32.78-.83,1a26.09,26.09,0,0,0-4.26,1.65c-.78.43-.88-.1-.88-.4,0-1.16-1.23-1-1.41-1.34-.65-1.13-2.41-.41-2.74-2.24-.37-2-1.77.39-2.88-.1-2.14-.95-2.76-2.21-1.27-3.76,1-1,1.78-2.93,3.86-.94.69.66,2.7-.29,3.82.19,2.69,1.14,4.66,3.33,6.58,5.5C629.07,470.67,629,470.9,629,471.06ZM614.4,457.9c1-1.4,2.53.34,3.76-.83s2.64,2.38,4.18.13a1.79,1.79,0,0,1,.67.33,20.78,20.78,0,0,0,6.84,3.92c1.75.57,2,2.81,3.19,4.08.67.72,1.46,1.27.55,2.44a2.43,2.43,0,0,1-3,.95c-1.5-.82-3.51-1.38-4.14-3.1-.79-2.17-2-3.18-4.28-2.83-.8.12-1.14-.31-1.16-1.13,0-.35-.09-1.14-.76-.54a2.45,2.45,0,0,1-1.72.72,9.13,9.13,0,0,1-3.17-1c-1.28-.53-2.3-1-2.35-2.56S613.33,456.68,614.4,457.9Z"/><path class="d" d="M523.17,524.83,520,521.15a13.23,13.23,0,0,1-1.86-.13,1.13,1.13,0,0,0-.88.22c-.52.61.27.73.5,1,.51.68,1.63,1,.34,2.18a16.55,16.55,0,0,0-3.24,3.61c-.85,1.38-2.57,2.19-3.8,3.37-1.53,1.48-3.57,2.47-4.55,4.52-1.42-.2-1.84,1.18-2.78,1.74a12.21,12.21,0,0,0-2.44,1.39,7.54,7.54,0,0,0-1.71,2.82c-.63,1.52-2.33,0-2.38.48-.19,1.66-1.51,1.2-2.26,1.74-1.28.92-3.59.31-3.81,1.4-.42,2.1-2.56,1.61-3.37,3-.67,1.2-2.68-.26-3.57.8s.33,2.24.5,3.38c0,.19-.53.42-.65.7-.95,2.12-2.22,4-2.61,6.45-.27,1.74-2,3.22-2.4,5-1,4.28-3.77,7.81-4.94,11.94-.47,1.64-1.74,1.36-2.47,1.8-1.06.64-.36-1.33-1.28-1.83s-.31-1.38.34-2,1.59-1.25,1.28-2.46c-.82-3.23,2.83-5.43,2-8.68,0-.15.39-.58.63-.61,3.23-.35,2.65-3.4,3.19-5.18,1.24-4,1.43-8.31,3-12.26.22-.54-1.34-1.13-.54-1.29,1.89-.38,1.92-1.62,1.58-2.81s1.44-1.47.61-2.4a2.35,2.35,0,0,1-.35-2.71c.91-2.06,2.34-4,.81-6.34,1.09-1.35,1.09-2.95,1-4.57,2.09-.88-1.6-2.87.77-4,.52-.24-.06-2.83.47-3.1,1.74-.84-1.22-1.82.36-2.7.93-.53.47-2.19.31-3.27-.33-2.25,1.51-4.38.15-6.73-.3-.53,1.6-1.46.36-2.83-1.61-1.77-1.6-4.09-1.47-6.37a54.3,54.3,0,0,0-1.75-6.77c-.7-.71-2-1.47-2-2.11a3.37,3.37,0,0,0-.15-2.19c-.74-1.69-1.31-3.31-3.12-4.11.51-2.38-1.24-3-2.89-3.72.12-2.92-3.33-.59-3.83-2.61-1.74-.08-3.53.35-5.12-.95-.55-.45-1.09.48-1.59.86-.88.68,0,.95.25,1.44a10.53,10.53,0,0,1,1.23,5.51c-.07,1.06-.57,2.3.54,3.26.84.73.35,1.35-.23,2.06a2,2,0,0,0,0,2.67c.47.54.91,1.14.51,1.71-2.13,3-.54,7.4-3.86,9.9l.28.36a2.16,2.16,0,0,1-.79,3c-2,.48-2.59,1.6-2.57,3.49,0,.83-1.06,1-1.48.61-1.05-.95-1.15-1.07-1.63.51-.3,1-.63,2.81-2.58,2.92-.52,0-1.12.93-1.32,1.88-1.13,5.3-2.46,10.57-5,15.42-1.64,3.15-2.18,6.73-4.55,9.66-1.68,2.07-2.35,5-3.41,7.54-1.37,3.27-4,6-4.16,9.79,0,.24-.41.52-.68.7-2.45,1.61-3.17,4.26-4.2,6.76a10.48,10.48,0,0,1-2.85,4.33c-.46.39-1.42.87-1.07,1.5,1.4,2.55-2.29,2.68-2.06,4.6-2.76,2.51-3.89,6.23-6.63,8.81-.8.76-2,2.11-2.08,3-.17,4-4.1,6.22-4.56,10.21-.2,1.75-2.11,3.75-3.77,4.79-2,1.26.66,4.7-2.69,4.94a3.4,3.4,0,0,0-.15,1.3,30.29,30.29,0,0,1-.34,5.11,12.51,12.51,0,0,0-2.11,5.13c-2.78,0-.77,1.54-.62,2.3.32,1.58-1.56,2.43-1.09,4.11.55,1.94-.4,3.73-1.17,5.48-.16.36-1.13.68-.47,1,2.11,1-1.08,2.55.45,3.52-.91,1.16,0,2.56-.18,3.43-.69,2.75-1.19,5.21.35,7.85a3.13,3.13,0,0,1,0,2.89c-1.1,1.22.12,2.64-.84,3.88s2.43,2.71,0,4.14c1.82,1.06.23,3.16,1.33,4.4.48.53,1,1.28.51,1.67-1.47,1.22-.65,2.78-.88,4.05,0,2,.66,3.93.81,5.71.43,5.14,3,9.51,4.37,14.27.61,2.06,2,4,1.78,6.23-.16,2,1,3.59,1.52,5.36s2.65,2.35,2.42,4c-.31,2.24,1.13,3.24,2.27,4.62a6.64,6.64,0,0,1,1.85,4.73c0,.49-.07,1.8.58,1.27,1.74-1.41,2.15.4,2.31,1,.69,2.7,2.76,4.27,4.46,6.17a69.12,69.12,0,0,1,6.52,7.82,8.85,8.85,0,0,0,3.2,3.31c1.58.85,1.47,2.94,2.62,4.16a5.31,5.31,0,0,0,1.16.8,11.91,11.91,0,0,1,4.15,3.4,53.15,53.15,0,0,0,4.56,4.57c.27.25,1.15-.14,1.28.43.52,2.29,2.42,3.29,4,4.62s2.6,2.61,4.62,3.17A3.81,3.81,0,0,1,457,755c.11.61-.34,1.42.39,1.81.54.29.78-1.25,1.37-.53,1.91,2.28,4.67,3.46,6.76,5.55s4.94,3,5.88,6c1.93-.62,1.11,2.72,3,2.1,1.53,2.65,5.23,2.58,6.75,5.48a6.32,6.32,0,0,0,2.33,2.3c1.67.55,1.86,2.18,2.81,2.8,1.5,1,2.91,1.79,3.69,3.5.68,1.5,3.31,1.33,3.16,3.6,1.9.39,2.94,1.94,4.17,3.19,2.29,2.32,2.59,2.44,5.71,2.15.61,0,1.31-.28,1.84.37.88,1.07,1.52.42,2.45-.13s3.07.14,3-2.13c1.51-.6,3.29.58,4.71-.7,1-.89,1.55,1.52,2.81.27s2.74-.71,4.43-.11c1.32.47,2-2.16,3.59-2.59.59-.16.89.31,1.23.65.58.55,1.27.64,1.69,0,1.34-2.08,3.42-1.69,5.34-1.6a14.42,14.42,0,0,0,5.9-.67c.66-.26,1.1-.51,1.74-.08.29.19.46,1.16,1,.35.34-.48,0-1.34.76-1.62s1.87,1,1.94.82c1-1.86,3.22-1.42,4.52-2.48s2.12-2.13,3.59-.38c.19.23,1.25.09,1.23-.4-.1-1.93,1.21-1.54,2.31-1.57,1.77,0,3.72.48,4.86-1.55.29-.5.82-.48,1.31-.45,1.37.11,2.69.09,3.45-1.32.68-1.25,2.3,1.06,2.88-.81a1.32,1.32,0,0,1,1.6-.86c2.19.62,4-.91,6.07-1.13.81-.09,1.23-.44,2.25,0s3.35,1,3.66-1.58c0-.13.59-.31.85-.25,2.19.52,3.9-1.66,6.09-1,1.63-2,3.83-2.14,6.18-2.07.46,0,1-.78,1.43-1.27s0-1.4.73-1.57c.28-.06.7.52,1.05.81.23-.57.39-1.57.72-1.64,3.51-.68,5.93-3,8.29-5.37a2.45,2.45,0,0,1,1.62-.93c1.08-.11,2.56.89,2.95-1.46.18-1.1,2.89,0,3.63-1.78.28-.66,1.27-1.11,1.62-.67,1,1.19,1.51.68,2.19-.16s1.67-1.19,1.41-2.42c1.75.33,2-2.58,2.67-2.05,2,1.45,2,.19,2.57-1.1.39-.85,1.37-2.06,2.06-2.05,3.24.08,3.75-2.32,4.69-4.49A2.51,2.51,0,0,1,636.1,742c.94-.09,1.4-.9,1.86-1.51,3.24-4.32,3.22-4.33,7.68-6.64a1.7,1.7,0,0,0,.36-.35c-2.17-2,.86-2.09,1.25-3.15.31-.83,1.53-.11,2.27-.39,1.3-.5-1.57-1.62.2-1.9,1.11-.18,1.06-.72,1.38-1.53s1.41-.95-.44-1.65A112.26,112.26,0,0,0,638.78,721c-1.93-.5-3.76-1.76-5.68-1.85-2.18-.11-2.64-3.06-4.94-2.46-1-2.46-4.82-2.1-5.3-5.23-.12-.77-.71,0-1,.22-.86.77-1.38.21-2.09-.33-3.28-2.48-6.79-4.7-9.91-7.37-2.94-2.52-6.35-4.5-8.87-7.52-.28-.34-4.6-4.68-4.88-4.8a6.23,6.23,0,0,1-3.86-3.82c-.66-2-1.63-3.93-4.3-3.83a1.82,1.82,0,0,1-.81-.35c.86-2.27-2.17-2.5-2.28-4.54s-1.42-2.42-2.57-.77c-1.29,1.82-4.06,2-4.6,4.48-2.37-.45-3.08,2.39-5.41,2.58a10.11,10.11,0,0,0-5.29,2.7,19,19,0,0,1-5,3.45c.27,1.57-.77,1.51-1.82,1.48-.83,0-1.67,0-2.5,0-.63,0-1.5.18-1.63-.62s-.37-1.63.37-2.32,1.65-1.65,2.49-2.46,1.44-2.07,2.82-.83c2-2.63,6.17-2.69,7.33-6.3.17-.53,1-.69,1.24-.44,1.14,1.3,1.78.46,2.58-.38s1.92-1.78,2.89-2.65c2-1.79,5.2-1.93,6.46-4.73,3.08-.62,4-4.76,7.59-4.66.38,0,1-.9,1.13-1.45a2.47,2.47,0,0,1,1.78-2.1c1.49-.37,2-1.23,2.41-2.6a4.09,4.09,0,0,1,2.06-2.1c3.9-1.78,6.26-5.42,9.64-7.84,1.65-1.18,3.42-2.59,4.15-4.72.18-.51.37-.92,1-.8,1.39.27,1.61-.67,2.31-1.63,1.61-2.19,2.82-4.85,5.25-6.29.67-.4,1.1-1,1.53-1.25,2.06-1.3,2.73-3.76,4.67-5.07,1.25-.85,2.81-1.46,2.26-3.49a1.07,1.07,0,0,1,.51-1.26c.7-.41,2.66.38,2.09-.63-.86-1.53.34-1.61.75-2.2.72-1,.83-3.08,2.09-3,2.76.13-.06-1.92,1.37-2.78,1.76-1.06,2.57-3.6,4.34-5.07.28-.24,1.06-.61.57-1-1.09-.88.15-1.25.18-1.81a2.44,2.44,0,0,1,1.17-2c.93-.6.71-1.76,1.4-2.44s1.44-1.38,2.11-2.13,1.77-1.16,1.41-2.4,3,.58,1.33-1.84c-.63-.92,1.48-.3,1.93-1.31a2.43,2.43,0,0,1,2.35-1.48c.12,0,.34-.51.38-.8.17-1.31,1.28-1.93,2.13-2.59,1.14-.89.67-2.09,1-3.11s2.18,1.95,1.85-.73c2-1.51,2.46-4,3.74-6,.88-1.34,2.78-1.21,3.34-3,.51-1.62,2.82-2.19,3-4.23,0-.46.41-.44.69-.11,1.49,1.76,2.12-.11,3.13-.7,2.24-1.32,3.45-3.82,5.86-5a2.45,2.45,0,0,0,1.15-1.48c.17-.74.31-1.17,1.16-1.18,2.26,0,3.86-1.35,5.29-2.9a6,6,0,0,1,3.65-2,3.65,3.65,0,0,0,3.17-2,8.37,8.37,0,0,1,4.34-3.93c1.86-.71,1.35-3,3.08-3.24s2.67-2.18,4.43-2.6a1,1,0,0,0,.68-.68c.23-1.84,1.73-2.72,2.89-3.79s1.89-2.6,3.3-3.69c1.26-1,2.93-2.67,3-4.61.07-2.47,1-1,1.83-.67.64.22,1.16-.08,1.27-1,.24-2.06.69-4.13,3-4.92a2,2,0,0,0,1-.81c.89-1.1.21-3.43,2.59-3.35.52-1.34.36-3.14,2.38-3.43,1.35-3.94,4.34-6.86,6.31-10.4.87-1.54,2.07-3.37,1.63-5.27-.63-2.68-3.45-4.09-4.36-6.68,0-.08-.3-.1-.45-.09-2.63.14-5.45-.71-7.84.36s-5.19,1.17-6.74,2.85c-1.87,2-4.35,2.62-6.43,4-4.23,2.87-8.86,5.17-12.13,9.27-.36.44-.94.3-1.29.52-2,1.28-3.17,3.72-5.67,4.43-.67,3.18-3.52,3.8-5.9,4.85s-3.78,3.32-6.13,4.32c-1.26,3.36-4.86,3.59-7.36,5.22-1,.67-3,1-3.62,1.84-1.19,1.59-3.09.76-4.27,2-2.76,2.9-7.06,3.63-9.68,6.75-.66.78-1.51.61-2.28.52-1.67-.2-2,.64-1.8,2a.85.85,0,0,1-1.24,1c-1.14-1-1.64-.18-2.62.28-1.84.84-2.9,3-5.36,2.84-1-.08-1,.72,0,.9.74.13.91.44,1.26,1.09.88,1.66,1.8,4,3.25,4.5,2.59.88,2.6,3.55,4.45,4.75.88.58-.7,2.43,1.22,2.7,1.57.21.93,2.3,2.27,2.76.14.05.23.23.35.34.73.64,0,.84-.36.86-1,.07-2.19.82-2.6.74-1.74-.34-3.74-.22-5.16-1.7-1-1-.21-2.23-.51-3.3-.44-1.58-2.21,0-2.89-1.13a.72.72,0,0,1-.08-.46c.37-1.81-1-2.64-2-3.64-2.13-2.08-4.15-4.29-6.16-6.45a21.43,21.43,0,0,0-4.86-4c-1.35-.8-2.39-2-3.87-2.68-1.29-.61-2.12-2.28-3-3.56-.28-.4-.4-.73-1-.84-3.06-.62-3.3-.54-4-2s-3.7-.31-3.47-2.88c-.12.06-.28.09-.35.18-.43.57-1.31,1.13-1.64.68-1.18-1.57-2.91-1.81-4.53-2.44-.85-.33-1.2-1.38-2.35-1.61-.83-.16-1.48-1.22-2.2-1.88-1.17,1.62-1.84.22-2.45-.5-.8-.94-2.18,0-2.69-.72-2.73-3.88-8.66-1.51-11.14-5.79,0-.07-.32,0-.48,0-.81-.06-1.94.19-2.36-.24-.74-.76-1.84-.55-2.5-1.33s-1.3-.19-2.07.15c-1.47.63-.37-1.72-1.41-1.55-2.45.41-4.14-1.45-6.1-2.21a22.93,22.93,0,0,1-7.63-4.56,2.24,2.24,0,0,1-.59-2.66c.48-.72,2.22-1.53,2.57-1.25,1.71,1.4,1.67.26,2.59-.93,3-3.9,6.47-7.49,8.7-11.94,1-2,3.17-2.9,3.95-4.77.86-2.06,2.47-3.55,3.57-5.41,1.89-3.21,3.45-6.63,5.55-9.71.89-1.31,1.3-3,2.75-3.87-1.11-3,1.64-4.1,2.89-6,.6-.91.93-2.67,1.82-2.61,2.69.18.37-1.55,1-2.33,2.27-2.7,2.5-5.5,1.59-9.22-.16-.62,0-1.31-.11-2-.21-1.23,1.51-2.34,0-3.71-1-1-1.56-2.24-.25-3.62.2-.2-6-9.27-6.67-9.64-2.7-1.53-5.67-2.49-8.17-4.51-.83-.67-2.71-.31-4-1.1s-2.33,1.46-3.59.12a1.57,1.57,0,0,1-2.46.35c-1.4-.92-3.16-1.08-4.34.51-.88,1.18-1.5.08-2.19.12-1.46.09-3.23-2-4.45.44-.37.73-1.19.33-1.81.43-1.08.18-2.24-.41-3.26.61-1.17,1.16-3.33-.48-4.39,1.34-2-2.63-2.75.73-4.18.83-4,.26-4,.25-6.17,1.65-.41.25-.71.68-1.27.57-3.49-.66-6.42,1.47-9.67,1.94-.93.13-1.25.91-2.07,1.12s-.88-1.23-2-.76c-1.48.64-1.77,4.41-4.54,1.83,0,0-.54.32-.55.51a18.66,18.66,0,0,1-.06,2.49c-.35,1.58,1.81,2.54,1,4.08-.73,1.38-1.75,2.61-2.6,3.93-2.47,3.81-4.93,7.6-10.16,7.88a2.22,2.22,0,0,0-1.25.55c-.87.76-1.67,1.59-2.49,2.4-.92-1.85-1.76.29-2.69.07-.46-.1-.81.34-.8,1s.32,1,.82,1a2.9,2.9,0,0,1,3,1.31c.81,1.21,1.23.1,1.78-.24.51,1.77,1.74-.39,2.49.46.92,1.05,2.21.53,3.28.44,1.4-.11,2.12,1.35,3.6,1.12a31.9,31.9,0,0,1,5-.06c1.5,0,3,0,4.49,0s3.15-.66,4.42-.47,2.8-1.58,3.86.29c2-1.78,4.76.13,6.57-1,2.28-1.36,4.47-.52,6.67-.86.48-.07,1.12.19,1.47,0,2.6-1.71,6-1,8.45-2.49s6.38-.79,7.61-4.42c2.68.05,4.61-1.68,6.82-2.8.89-.44,2.19-.69,2.6.24s.66,2.91-.21,3.18c-2.45.76-3.32,3.49-5.83,4.08-1.15.27-2.72-.32-3.29.36-1.63,2-4.1,2.37-6,3.78s-1.78,4.73-4.51,5.57c.11,2-.56,4.34-2.18,5-3,1.17-1.26,3.54-2,5.2a.61.61,0,0,1-.35.34c-2.41.56-2.35,4-5.17,4.29-.76.07-2.15,1.7-2,2,1.06,2.06-.82,2.59-1.68,3.57a6.67,6.67,0,0,1-3.44,2.52c-2,.49-.5,2.8-1.77,3.75-.39.3-.7.71-1.07,1.05-1.9,1.79-3.15,4.09-4.74,6.16l2.72,2.87Zm-19.34,87.42a50.39,50.39,0,0,1-2.22,5.54c-.68,1.76-1.86,3.29-1.65,5.33,0,.36-.8.91-.7,1.15.77,1.81-3.36,2.07-1.29,4.2-1.08,1.16-1.64,2.66-2.67,3.9a6.67,6.67,0,0,0-1.5,4.33c-1.93-.08-1.71,2-2.76,2.78-.08.07,0,.34-.05.47-1.1,2-3.06,3.11-4.7,4.56-1.34,1.19-1.55,3.87-3.36,5s-2.7,2.84-3.9,4.35c-1.91,2.43-3,2.55-5.1.7-1.18-1,0-1.52,0-2.23-.06-2.27,2.36-2,3.23-3.58,1.55-2.77,4.54-4.55,6.21-7.43.36-.63,2.35-.29.76-1.9-.2-.21,1.79,0,2-1.5.13-.94,1.42-1.7,2.09-2.6a17.12,17.12,0,0,0,1.42-2.41c1.3-2.62,3.33-4.87,3.49-8.08,0-1,2.61-1,1.94-3.11-.36-1.11,3.13-1.34,1-3.22,1.59-.67.72-2.32,1.33-3.45s1.54-2.28,1.71-3.8a9.39,9.39,0,0,1,1.56-3.32c.62-1-1.74-1.72-.25-2.78,1-.73.63-1.82.57-2.74-.07-1.16,1-2.68.77-2.92-1-1.17-1-2,.18-2.87.41-.31-.41-2.09,1-1,.68.5,2.19-.08,2.09,1.5-.06,1,0,2,0,3.12-.33,1.26.68,2.85-.71,4.1a1.37,1.37,0,0,0-.17,1.28C506.61,607.87,504.32,610.19,503.83,612.25ZM685.73,536a3.41,3.41,0,0,1,2.66.81,22,22,0,0,1,5.47,8.65c.37,1.07.68,2.57-.48,3.66-.46.44-.84,1-1.61.88s-.74-.87-.78-1.51c-.07-.93.33-1.9-.66-2.71a6,6,0,0,1-2.6-4.4c-.06-.82-.89.8-1.22.53s-.47-1.1-.75-1.63c-.43-.82-1-1.59-1.38-2.41C683.62,536.35,683.91,536,685.73,536ZM678,538.74c.19-1.24,1.31-.52,1.67-.67a2.73,2.73,0,0,1,2.87,1c2.14,2.35,4.26,4.5,4.61,8.08.15,1.51,1.82,3.1,2.42,4.9.21.62.64,1.53.12,1.62-1,.15-1.73,1.67-2.66.77-.46-.45-3.44.05-1.17-2-.58-.58-1.15-1.19-1.76-1.75s-1.55-1.23-.21-2.15a1,1,0,0,0-.23-1.3c-2.26-1.63-2.34-5-5.18-6.24C677.61,540.58,677.93,539.48,678,538.74Z"/><path class="d" d="M516.39,448a15.24,15.24,0,0,0-3.07-1.79c-.51,1.85-1.76-1-2.51.45s-1.68-.93-3.15,0c-3.13,1.94-7.43.85-10.53,3.38-2.6-1.28-3,2.2-4.93,2.3-.09,1.4-.82,2-2.2,1.7a.76.76,0,0,0-1,.79c0,1.16-1.37,1.73-1.06,3.08.37,1.65,2.52,2.12,2.4,4,2.17-1.6,1.52.29,1.66,1.31.05.33.06,1.14.8.5,1.91-1.64,5.14,2.43,6.52-1.51l.68.37c.53.57,1.32.8,1.68.2,1.31-2.15,3.36-1.85,5.29-1.69a4.92,4.92,0,0,0,3.82-1.52c2.33-2.3,5.86-4,5.36-8.19C517.36,450.28,517.49,449,516.39,448Z"/><path class="d" d="M453.74,502.79c-.28.51.48,1.12,1,1.49,1.46,1.08,2,1.18,2.38-1a7.28,7.28,0,0,1,3.07-5.27c.43-.27.84-.37.84-1a25.12,25.12,0,0,0-.06-4c-.27-1.59,1.17-2.53,1.17-4.08,0-1.13-1.47-2.2-.65-2.82,1.64-1.26-.89-2.3.07-3.18,1.64-1.5-.91-2.1-.6-3.41a15.49,15.49,0,0,0,0-4c0-.18-.37-.35-.57-.52-.26.26-.59.45-.71.73-1.25,3-2.61,5.91-3.58,9-.2.65-1.8,1.29-.51,2.28.9.69-1.4,1.38.08,2.18.58.32-1.29,1.43.15,2.06-.59.7-1.2,1.4-1.74,2.14,0,.06.35.45.56.68.55.57.64,1.28,0,1.67-2.32,1.4-1.16,3.46-1,5.25C453.72,501.65,454.12,502.13,453.74,502.79Z"/><path d="M737.55,510c-.55-.84-1.43-2.46-1.21-2.65,2.12-1.89,0-3.51-.51-4.81-.69-1.65-2.77-2.61-3.4-4.54-2.49.17-4.82-2.31-7.38-.51-.59.41-1.06.68-1.72.34l-3.92.17c-1.58.33-4,.16-4.58,1.11-1.07,1.67-2.66,1.76-4,2.52-.72.4-1.61-.78-2.51.46-3,4.14-8.3,5.62-11.5,9.59-2.52-.48-2.83,2-4.1,3.13-.74.67-1.35,1.47-2.52,1.2a1.33,1.33,0,0,0-1.56.92c-.44,2-2.28,2.68-3.6,3.32-1.54.74-2,2.35-3.65,3-1.85.77-3.2,2.65-5,3.66s-2.76,3.15-5.07,3.23c.11,3-3.63.91-4.12,3.12-3.34,2-6.77,3.86-10,6.09-1.07.75-1.89-.26-3.06.41s-1.8,2.29-3.55,2.32c-.73,0-1.37,1.35-2.2,1.84a.9.9,0,0,1-1.42-.76c0-.75-.42-2.05.58-2.1,1.63-.09,1.35-1,1.4-2,0-.63.06-1.75.29-1.8,1.3-.31,2-.86,1.7-2.28-.36-1.68,1.62-.71,2.19-2,.78-1.78,1.85-3.6,2.59-5.43s2.69-2.49,3.38-4.52c.82-2.44,2-4.86,2.74-7.34.41-1.42.37-2,1.73-.86,0,0,.91-.62,1-1,.52-3,3-5.12,3.38-8.11.08-.63-.07-1.29.55-1.78,1.81-1.43,2.3-3.72,3.38-5.61s1-4.8,2.72-6.29c2-1.77.88-4.3,2.25-6.17.44-.6.37-1.8,1.19-2.47a5.52,5.52,0,0,0,1.84-3.71c.24-2.26,1.31-4.18,1.84-6.23.39-1.48,1.89-2.89,1.18-4.49-.55-1.27-.94-2.07.86-2.28,1.4-4.25,3-8.45,4.07-12.79.33-1.36,1.64-2.47,1.14-4.06s2-2.65.93-4c-1.4-1.88.89-2.31.95-3.32.15-2.57.86-5.11.9-7.58,0-2,.08-4.1.12-6.16.09-4.62,1.64-9.11,1.11-13.76a1.27,1.27,0,0,1,.34-.84c1-1.19-1.25-2.66.39-3.94.28-.22-2.42-.91-1.06-2.35s-.64-1.91-.77-3c-.43-3.36-.55-3.41-4.18-4.1a1.33,1.33,0,0,1-1-.64c-.75-1.48-1.62-2.52-3.54-2.21-.87.14-.91-.07-.75-.89,1-5,.84-6.39-.38-10-.29-.89-.91-1.72-1.45-1.82a5,5,0,0,1-2.74-1.87c-.58-.59-1.46-.31-2.13-1-.84-.85-2.47,0-3.45-1.31-.66-.85-1.67,1.92-2.7.09-.09-.17-.66-.22-.91-.11a7.79,7.79,0,0,0-2.43,1.32A2.2,2.2,0,0,1,664,383a3.9,3.9,0,0,0-3.44,1.22c-1.74,1.76-4,2.71-5.72,4.47-2,2.08-4.37,3.87-4.94,6.95-3.56,2.88-5.25,7.24-8.39,10.47a32.61,32.61,0,0,0-3.49,5c-.77,1.17-.87,3-2.24,3.5a4,4,0,0,0-2.37,2.5c-.9,2-2.52,3.64-3.46,5.57-1.06,2.18-2.72,3.95-3.73,6-.8,1.6-2.51,1.16-3.08,2.62-.35.9.79,2.51-1.14,2.73-1.67.19-.9,1.49-1,2.3-.15,2-1.71-1.72-2.14.65-.47,2.63-4.29,3.44-4.27,6.77,0,.47-2.24.77-3.22,1.46s.33,2.72-1.43,3.42c-.45.17-1.12.21-1.28.43-1,1.38-2.38,2.79-2.56,4.31-.28,2.37-2.18,2.17-3.37,2.53s0-.84-.13-1c-.92-2.12-.55-4.33-.63-6.5,0-.31,0-.76-.14-.93-2-1.89-2.28-5.14-4-6.71-2-1.81-4-3.72-6.15-5.48-.32-.27-.88-.25-1.33-.37a13.32,13.32,0,0,1-5.93-3.85c-1.62-1.67-4.27-1.43-6.14-2.76-.82,1.25-2.1.61-3.18.77-1.29.2-2.86-.61-3.83.35-1.32,1.31-1.67-1.1-2.87-.4-3,1.74-6.35.88-9.56,1.05a3,3,0,0,0-1.83.44,7.59,7.59,0,0,1-5.84,1.54c-.9-.14-1.77,1.86-2.67,0-.53.66-1.47.74-2,1.15a3.28,3.28,0,0,1-2.68.83c-1.64-.23-2,.57-1.84,2,0,.27-.2.57-.31.85-.23-.13-.65-.28-.64-.39.18-2.13-1.63-1.7-2.35-1.37-4.08,1.91-8.57,2.58-12.69,4.37-2.54,1.1-5.31,1.66-7.93,2.59-1.2.42-2-1.28-2.89-.59-1.26,1-2.56.57-3.79.51-4.54-.2-8.82,1.11-13.18,2-2.38.49-.15,1.15-.2,1.71a3.56,3.56,0,0,1-.13.94c-.19.48-.43.46-.7.07-1.31-1.84-2.25-1.81-4.31-.37a49.79,49.79,0,0,1-5.51,3.51,3,3,0,0,0-1.58,1.94c-1,2.1-1.86,4.23-2.76,6.35a.51.51,0,0,0,.07.45c1.44.94.94,2.4.87,3.63a2.94,2.94,0,0,0,1.25,2.51c3.27,3,7.42,4.64,11.07,7.07.93.61,2.07.1,3.17.91.79.59,1.9,1.63,3.41,1.39,1-.16,2.45-.68,3.21.54s1.91.61,2.83.9a45,45,0,0,0,12.37,1.61c1.41.05,2.22-2.34,3.88-.56,1.32,1.41,3-.86,3.81-.42,2.64,1.42,5-.34,7.41-.12,1.24.12,2.45-1.63,3.68,0,1.17-.79,2.34-1.65,3.61-.15,2.4-1.52,5.58-.85,7.84-2.8a1.11,1.11,0,0,1,1,0c.58.27.27.58,0,1-1.17,2.38-2.79,4.47-4,6.83-1.9,3.68-4.06,7.3-7.61,9.79a4.71,4.71,0,0,0-1.82,2.22c-.79,2.63-2.72,4.34-4.58,6.09-1.31,1.24-2,3.11-3.26,4.08a20.34,20.34,0,0,0-3.35,3.62,11.22,11.22,0,0,1-.81.89l3.55,3.73c1.59-2.07,2.84-4.37,4.74-6.16.37-.34.68-.75,1.07-1.05,1.27-.95-.25-3.26,1.77-3.75a6.67,6.67,0,0,0,3.44-2.52c.86-1,2.74-1.51,1.68-3.57-.14-.27,1.25-1.9,2-2,2.82-.25,2.76-3.73,5.17-4.29a.61.61,0,0,0,.35-.34c.75-1.66-1-4,2-5.2,1.62-.64,2.29-2.93,2.18-5,2.73-.84,2.5-4.07,4.51-5.57s4.36-1.82,6-3.78c.57-.68,2.14-.09,3.29-.36,2.51-.59,3.38-3.32,5.83-4.08.87-.27.61-2.25.21-3.18s-1.71-.68-2.6-.24c-2.21,1.12-4.14,2.85-6.82,2.8-1.23,3.63-5.12,2.85-7.61,4.42s-5.85.78-8.45,2.49c-.35.23-1,0-1.47,0-2.2.34-4.39-.5-6.67.86-1.81,1.09-4.54-.82-6.57,1-1.06-1.87-2.57-.1-3.86-.29s-2.89.52-4.42.47-3,0-4.49,0a31.9,31.9,0,0,0-5,.06c-1.48.23-2.2-1.23-3.6-1.12-1.07.09-2.36.61-3.28-.44-.75-.85-2,1.31-2.49-.46-.55.34-1,1.45-1.78.24a2.9,2.9,0,0,0-3-1.31c-.5.06-.82-.33-.82-1s.34-1.07.8-1c.93.22,1.77-1.92,2.69-.07.82-.81,1.62-1.64,2.49-2.4a2.22,2.22,0,0,1,1.25-.55c5.23-.28,7.69-4.07,10.16-7.88.85-1.32,1.87-2.55,2.6-3.93.81-1.54-1.35-2.5-1-4.08a18.66,18.66,0,0,0,.06-2.49c0-.19.54-.53.55-.51,2.77,2.58,3.06-1.19,4.54-1.83,1.09-.47,1,1,2,.76s1.14-1,2.07-1.12c3.25-.47,6.18-2.6,9.67-1.94.56.11.86-.32,1.27-.57,2.2-1.4,2.21-1.39,6.17-1.65,1.43-.1,2.22-3.46,4.18-.83,1.06-1.82,3.22-.18,4.39-1.34,1-1,2.18-.43,3.26-.61.62-.1,1.44.3,1.81-.43,1.22-2.46,3-.35,4.45-.44.69,0,1.31,1.06,2.19-.12,1.18-1.59,2.94-1.43,4.34-.51a1.57,1.57,0,0,0,2.46-.35c1.26,1.34,2.44-.83,3.59-.12s3.17.43,4,1.1c2.5,2,5.47,3,8.17,4.51.64.37,6.87,9.44,6.67,9.64-1.31,1.38-.78,2.65.25,3.62,1.47,1.37-.25,2.48,0,3.71.1.65,0,1.34.11,2,.91,3.72.68,6.52-1.59,9.22-.65.78,1.67,2.51-1,2.33-.89-.06-1.22,1.7-1.82,2.61-1.25,1.89-4,3-2.89,6-1.45.9-1.86,2.56-2.75,3.87-2.1,3.08-3.66,6.5-5.55,9.71-1.1,1.86-2.71,3.35-3.57,5.41-.78,1.87-3,2.81-3.95,4.77-2.23,4.45-5.68,8-8.7,11.94-.92,1.19-.88,2.33-2.59.93-.35-.28-2.09.53-2.57,1.25a2.24,2.24,0,0,0,.59,2.66,22.93,22.93,0,0,0,7.63,4.56c2,.76,3.65,2.62,6.1,2.21,1-.17-.06,2.18,1.41,1.55.77-.34,1.36-1,2.07-.15s1.76.57,2.5,1.33c.42.43,1.55.18,2.36.24.16,0,.44-.06.48,0,2.48,4.28,8.41,1.91,11.14,5.79.51.73,1.89-.22,2.69.72.61.72,1.28,2.12,2.45.5.72.66,1.37,1.72,2.2,1.88,1.15.23,1.5,1.28,2.35,1.61,1.62.63,3.35.87,4.53,2.44.33.45,1.21-.11,1.64-.68.07-.09.23-.12.35-.18-.23,2.57,2.72,1.26,3.47,2.88s.93,1.39,4,2c.58.11.7.44,1,.84.92,1.28,1.75,2.95,3,3.56,1.48.71,2.52,1.88,3.87,2.68a21.43,21.43,0,0,1,4.86,4c2,2.16,4,4.37,6.16,6.45,1,1,2.42,1.83,2,3.64a.72.72,0,0,0,.08.46c.68,1.13,2.45-.45,2.89,1.13.3,1.07-.46,2.29.51,3.3,1.42,1.48,3.42,1.36,5.16,1.7.41.08,1.63-.67,2.6-.74.34,0,1.09-.22.36-.86-.12-.11-.21-.29-.35-.34-1.34-.46-.7-2.55-2.27-2.76-1.92-.27-.34-2.12-1.22-2.7-1.85-1.2-1.86-3.87-4.45-4.75-1.45-.49-2.37-2.84-3.25-4.5-.35-.65-.52-1-1.26-1.09-1-.18-1-1,0-.9,2.46.2,3.52-2,5.36-2.84,1-.46,1.48-1.29,2.62-.28a.85.85,0,0,0,1.24-1c-.17-1.39.13-2.23,1.8-2,.77.09,1.62.26,2.28-.52,2.62-3.12,6.92-3.85,9.68-6.75,1.18-1.24,3.08-.41,4.27-2,.65-.87,2.59-1.17,3.62-1.84,2.5-1.63,6.1-1.86,7.36-5.22,2.35-1,3.78-3.28,6.13-4.32s5.23-1.67,5.9-4.85c2.5-.71,3.64-3.15,5.67-4.43.35-.22.93-.08,1.29-.52,3.27-4.1,7.9-6.4,12.13-9.27,2.08-1.41,4.56-2,6.43-4,1.55-1.68,4.48-1.84,6.74-2.85s5.21-.22,7.84-.36c.15,0,.42,0,.45.09.91,2.59,3.73,4,4.36,6.68.44,1.9-.76,3.73-1.63,5.27-2,3.54-5,6.46-6.31,10.4-2,.29-1.86,2.09-2.38,3.43-2.38-.08-1.7,2.25-2.59,3.35a2,2,0,0,1-1,.81c-2.3.79-2.75,2.86-3,4.92-.11.92-.63,1.22-1.27,1-.88-.3-1.76-1.8-1.83.67-.06,1.94-1.73,3.64-3,4.61-1.41,1.09-2.1,2.56-3.3,3.69s-2.66,2-2.89,3.79a1,1,0,0,1-.68.68c-1.76.42-2.63,2.3-4.43,2.6s-1.22,2.53-3.08,3.24a8.37,8.37,0,0,0-4.34,3.93,3.65,3.65,0,0,1-3.17,2,6,6,0,0,0-3.65,2c-1.43,1.55-3,2.85-5.29,2.9-.85,0-1,.44-1.16,1.18a2.45,2.45,0,0,1-1.15,1.48c-2.41,1.13-3.62,3.63-5.86,5-1,.59-1.64,2.46-3.13.7-.28-.33-.64-.35-.69.11-.22,2-2.53,2.61-3,4.23-.56,1.82-2.46,1.69-3.34,3-1.28,2-1.75,4.45-3.74,6,.33,2.68-1.53-.2-1.85.73s.11,2.22-1,3.11c-.85.66-2,1.28-2.13,2.59,0,.29-.26.8-.38.8a2.43,2.43,0,0,0-2.35,1.48c-.45,1-2.56.39-1.93,1.31,1.64,2.42-1.67.68-1.33,1.84s-.78,1.7-1.41,2.4-1.4,1.43-2.11,2.13-.47,1.84-1.4,2.44a2.44,2.44,0,0,0-1.17,2c0,.56-1.27.93-.18,1.81.49.4-.29.77-.57,1-1.77,1.47-2.58,4-4.34,5.07-1.43.86,1.39,2.91-1.37,2.78-1.26-.06-1.37,2-2.09,3-.41.59-1.61.67-.75,2.2.57,1-1.39.22-2.09.63a1.07,1.07,0,0,0-.51,1.26c.55,2-1,2.64-2.26,3.49-1.94,1.31-2.61,3.77-4.67,5.07-.43.28-.86.85-1.53,1.25-2.43,1.44-3.64,4.1-5.25,6.29-.7,1-.92,1.9-2.31,1.63-.63-.12-.82.29-1,.8-.73,2.13-2.5,3.54-4.15,4.72-3.38,2.42-5.74,6.06-9.64,7.84a4.09,4.09,0,0,0-2.06,2.1c-.42,1.37-.92,2.23-2.41,2.6a2.47,2.47,0,0,0-1.78,2.1c-.09.55-.75,1.46-1.13,1.45-3.59-.1-4.51,4-7.59,4.66-1.26,2.8-4.46,2.94-6.46,4.73-1,.87-2,1.71-2.89,2.65s-1.44,1.68-2.58.38c-.22-.25-1.07-.09-1.24.44-1.16,3.61-5.35,3.67-7.33,6.3-1.38-1.24-2,.07-2.82.83s-1.63,1.67-2.49,2.46-.48,1.58-.37,2.32,1,.62,1.63.62c.83,0,1.67,0,2.5,0,1.05,0,2.09.09,1.82-1.48a19,19,0,0,0,5-3.45,10.11,10.11,0,0,1,5.29-2.7c2.33-.19,3-3,5.41-2.58.54-2.47,3.31-2.66,4.6-4.48,1.15-1.65,2.46-1.32,2.57.77s3.14,2.27,2.28,4.54a1.82,1.82,0,0,0,.81.35c2.67-.1,3.64,1.82,4.3,3.83a6.23,6.23,0,0,0,3.86,3.82c.28.12,4.6,4.46,4.88,4.8,2.52,3,5.93,5,8.87,7.52,3.12,2.67,6.63,4.89,9.91,7.37.71.54,1.23,1.1,2.09.33.28-.25.87-1,1-.22.48,3.13,4.27,2.77,5.3,5.23,2.3-.6,2.76,2.35,4.94,2.46,1.92.09,3.75,1.35,5.68,1.85a112.26,112.26,0,0,1,11.88,3.91c1.85.7.78.77.44,1.65s-.27,1.35-1.38,1.53c-1.77.28,1.1,1.4-.2,1.9-.74.28-2-.44-2.27.39-.39,1.06-3.42,1.14-1.25,3.15a1.7,1.7,0,0,1-.36.35c-4.46,2.31-4.44,2.32-7.68,6.64-.46.61-.92,1.42-1.86,1.51a2.51,2.51,0,0,0-2.08,1.78c-.94,2.17-1.45,4.57-4.69,4.49-.69,0-1.67,1.2-2.06,2.05-.59,1.29-.6,2.55-2.57,1.1-.72-.53-.92,2.38-2.67,2.05.26,1.23-.82,1.68-1.41,2.42s-1.23,1.35-2.19.16c-.35-.44-1.34,0-1.62.67-.74,1.79-3.45.68-3.63,1.78-.39,2.35-1.87,1.35-2.95,1.46a2.45,2.45,0,0,0-1.62.93c-2.36,2.41-4.78,4.69-8.29,5.37-.33.07-.49,1.07-.72,1.64-.35-.29-.77-.87-1.05-.81-.77.17-.35,1.11-.73,1.57s-1,1.29-1.43,1.27c-2.35-.07-4.55.07-6.18,2.07-2.19-.64-3.9,1.54-6.09,1-.26-.06-.83.12-.85.25-.31,2.61-2.52,2-3.66,1.58s-1.44-.06-2.25,0c-2.07.22-3.88,1.75-6.07,1.13a1.32,1.32,0,0,0-1.6.86c-.58,1.87-2.2-.44-2.88.81-.76,1.41-2.08,1.43-3.45,1.32-.49,0-1,0-1.31.45-1.14,2-3.09,1.5-4.86,1.55-1.1,0-2.41-.36-2.31,1.57,0,.49-1,.63-1.23.4-1.47-1.75-2.35-.64-3.59.38s-3.51.62-4.52,2.48c-.07.14-1-1.16-1.94-.82s-.42,1.14-.76,1.62c-.57.81-.74-.16-1-.35-.64-.43-1.08-.18-1.74.08a14.42,14.42,0,0,1-5.9.67c-1.92-.09-4-.48-5.34,1.6-.42.66-1.11.57-1.69,0-.34-.34-.64-.81-1.23-.65-1.58.43-2.27,3.06-3.59,2.59-1.69-.6-3.14-1.16-4.43.11s-1.82-1.16-2.81-.27c-1.42,1.28-3.2.1-4.71.7.05,2.27-1.95,1.49-3,2.13s-1.57,1.2-2.45.13c-.53-.65-1.23-.42-1.84-.37-3.12.29-3.42.17-5.71-2.15-1.23-1.25-2.27-2.8-4.17-3.19.15-2.27-2.48-2.1-3.16-3.6-.78-1.71-2.19-2.51-3.69-3.5-.95-.62-1.14-2.25-2.81-2.8a6.32,6.32,0,0,1-2.33-2.3c-1.52-2.9-5.22-2.83-6.75-5.48-1.93.62-1.11-2.72-3-2.1-.94-3-3.89-4-5.88-6s-4.85-3.27-6.76-5.55c-.59-.72-.83.82-1.37.53-.73-.39-.28-1.2-.39-1.81a3.81,3.81,0,0,0-2.49-2.85c-2-.56-3.17-2-4.62-3.17s-3.5-2.33-4-4.62c-.13-.57-1-.18-1.28-.43A53.15,53.15,0,0,1,440,739.4a11.91,11.91,0,0,0-4.15-3.4,5.31,5.31,0,0,1-1.16-.8c-1.15-1.22-1-3.31-2.62-4.16a8.85,8.85,0,0,1-3.2-3.31,69.12,69.12,0,0,0-6.52-7.82c-1.7-1.9-3.77-3.47-4.46-6.17-.16-.61-.57-2.42-2.31-1-.65.53-.62-.78-.58-1.27a6.64,6.64,0,0,0-1.85-4.73c-1.14-1.38-2.58-2.38-2.27-4.62.23-1.62-2-2.25-2.42-4s-1.68-3.33-1.52-5.36c.18-2.28-1.17-4.17-1.78-6.23-1.41-4.76-3.94-9.13-4.37-14.27-.15-1.78-.82-3.67-.81-5.71.23-1.27-.59-2.83.88-4.05.47-.39,0-1.14-.51-1.67-1.1-1.24.49-3.34-1.33-4.4,2.45-1.43-.88-3,0-4.14s-.26-2.66.84-3.88a3.13,3.13,0,0,0,0-2.89c-1.54-2.64-1-5.1-.35-7.85.22-.87-.73-2.27.18-3.43-1.53-1,1.66-2.5-.45-3.52-.66-.33.31-.65.47-1,.77-1.75,1.72-3.54,1.17-5.48-.47-1.68,1.41-2.53,1.09-4.11-.15-.76-2.16-2.26.62-2.3a12.51,12.51,0,0,1,2.11-5.13,30.29,30.29,0,0,0,.34-5.11,3.4,3.4,0,0,1,.15-1.3c3.35-.24.65-3.68,2.69-4.94,1.66-1,3.57-3,3.77-4.79.46-4,4.39-6.17,4.56-10.21,0-.93,1.28-2.28,2.08-3,2.74-2.58,3.87-6.3,6.63-8.81-.23-1.92,3.46-2,2.06-4.6-.35-.63.61-1.11,1.07-1.5a10.48,10.48,0,0,0,2.85-4.33c1-2.5,1.75-5.15,4.2-6.76.27-.18.67-.46.68-.7.15-3.8,2.79-6.52,4.16-9.79,1.06-2.56,1.73-5.47,3.41-7.54,2.37-2.93,2.91-6.51,4.55-9.66,2.52-4.85,3.85-10.12,5-15.42.2-1,.8-1.85,1.32-1.88,2-.11,2.28-2,2.58-2.92.48-1.58.58-1.46,1.63-.51.42.38,1.48.22,1.48-.61,0-1.89.55-3,2.57-3.49a2.16,2.16,0,0,0,.79-3l-.28-.36c3.32-2.5,1.73-6.92,3.86-9.9.4-.57,0-1.17-.51-1.71a2,2,0,0,1,0-2.67c.58-.71,1.07-1.33.23-2.06-1.11-1-.61-2.2-.54-3.26a10.53,10.53,0,0,0-1.23-5.51c-.24-.49-1.13-.76-.25-1.44.5-.38,1-1.31,1.59-.86,1.59,1.3,3.38.87,5.12.95.5,2,4-.31,3.83,2.61,1.65.7,3.4,1.34,2.89,3.72,1.81.8,2.38,2.42,3.12,4.11a3.37,3.37,0,0,1,.15,2.19c0,.64,1.27,1.4,2,2.11a54.3,54.3,0,0,1,1.75,6.77c-.13,2.28-.14,4.6,1.47,6.37,1.24,1.37-.66,2.3-.36,2.83,1.36,2.35-.48,4.48-.15,6.73.16,1.08.62,2.74-.31,3.27-1.58.88,1.38,1.86-.36,2.7-.53.27.05,2.86-.47,3.1-2.37,1.08,1.32,3.07-.77,4,0,1.62,0,3.22-1,4.57,1.53,2.35.1,4.28-.81,6.34a2.35,2.35,0,0,0,.35,2.71c.83.93-.91,1.32-.61,2.4s.31,2.43-1.58,2.81c-.8.16.76.75.54,1.29-1.61,3.95-1.8,8.26-3,12.26-.54,1.78,0,4.83-3.19,5.18-.24,0-.66.46-.63.61.8,3.25-2.85,5.45-2,8.68.31,1.21-.58,1.8-1.28,2.46s-1.29,1.47-.34,2,.22,2.47,1.28,1.83c.73-.44,2-.16,2.47-1.8,1.17-4.13,3.91-7.66,4.94-11.94.43-1.75,2.13-3.23,2.4-5,.39-2.42,1.66-4.33,2.61-6.45.12-.28.68-.51.65-.7-.17-1.14-1.45-2.26-.5-3.38s2.9.4,3.57-.8c.81-1.43,2.95-.94,3.37-3,.22-1.09,2.53-.48,3.81-1.4.75-.54,2.07-.08,2.26-1.74.05-.44,1.75,1,2.38-.48a7.54,7.54,0,0,1,1.71-2.82,12.21,12.21,0,0,1,2.44-1.39c.94-.56,1.36-1.94,2.78-1.74,1-2.05,3-3,4.55-4.52,1.23-1.18,2.95-2,3.8-3.37a16.55,16.55,0,0,1,3.24-3.61c1.29-1.14.17-1.5-.34-2.18-.23-.3-1-.42-.5-1a1.13,1.13,0,0,1,.88-.22,13.23,13.23,0,0,0,1.86.13l-2.21-2.59a.74.74,0,0,1-.21.25c-2.49,1.55-2.45,1.55-3.65,3.34-.72,1.07-1.79,1.9-2.53,3-.63.9-2.41.75-2.33,1.38.29,2-1.61,1.23-2.22,2a3.58,3.58,0,0,1-2.34,1.6c-.87.16-.75,1.94-1.78,2.65-.79.54-1.29,1.4-2.5,1.24-2.75-.35.51,1.63-.7,1.91-2.07.47-3.39,2.21-5.23,3.06-1.6.74-3.9.77-3.38,3.54,0,.09-.32.33-.32.33-1.92-1.81-2.32,1.47-3.72,1.11-.82-.21-1,1.64-1.85.53-.4-.54.08-1.18.59-1.7s1.81-1.24,1.26-1.86a2.26,2.26,0,0,1,.15-3.18,5.27,5.27,0,0,0,.93-3.65c0-2,.05-4,0-6a8.67,8.67,0,0,1,.69-3.94c-2.1-1.47.74-2.4.42-3.83s1.79-2.66.69-4c-1.82-2.14,1.71-1.92,1.24-3.38-.29-.91.33-1.95-.35-2.86-1.21-1.61-.79-3.32-.28-5.06,1-3.48,1.19-6.89-.89-10.13-.54-.83-1.38-2.39-1.11-2.66,1.29-1.3-.11-1.93-.3-2.9-.71-3.58-4.64-5.78-4.1-9.83,0-.11-.19-.24-.29-.37-1.27-1.65-3.49-2.55-3.89-4.89-2.41.56-2.93-3.13-5.41-2.41-1-1.51-3.18-.44-4.22-1.9-2,1.41-4.7.26-6.48,1.19s-2.56.64-3.61-.59a3.48,3.48,0,0,0-.69-.5c-.36.36-.86.66-1,1.08-1.79,3.93-4.44,7.45-5.39,11.77a6.15,6.15,0,0,1-1.39,2.89c-1.12,1.16,1.52,1.87,0,3.26-1.69,1.54-1.72,4-1.61,6.29.07,1.45.75,3.45-.32,4.27-1.77,1.36,1.11,2.84-.55,4.1-.4.31-.28,2.05.3,3.23,1.09,2.24,1.36,5,0,6.94a26.68,26.68,0,0,0-4,8.37c-.71,2.46-2.36,4.34-3.08,6.75-.38,1.28.4,2.79-.62,3.71-2.94,2.64-4,6.3-5.77,9.62-.68,1.3-2,2-1,3.85.52,1-1.68.39-1.64,1.1s1,1.65-.23,2.09c-2.38.83-1,4.42-3.8,5-.28.05,1,1,.79,1.9-.28,1.11-1.91.39-1.86,1.11.22,2.64-1.92,3.62-3.25,5.19l-.35.35c-1.14,1,.9,1.37.47,2.37-.64,1.5-2.28,0-2.93,1.12a1.35,1.35,0,0,0-.08,1c.38,1.16-.63,1.84-1.08,2.55-3.06,4.76-6.2,9.47-9.51,14.06-1.13,1.57-1.68,3.39-2.61,4.89s.92,2.89-.47,4.59a11.9,11.9,0,0,0-2.87,5.28,9.42,9.42,0,0,1-2.75,4.7c-1.68,1.37.94,4-2.22,4.79-1.66.42.62,3.83-1.46,5.21,1.88,1.43-1.08,2.72-.12,4.12-2.42,2-2.14,4.52-2.13,7.38,0,2.43-.92,5-.85,7.57,0,.23-.52.43-.66.72a2.21,2.21,0,0,0,.16,2.68c.67.72.37,1.24.14,2.1-.75,2.74-3.21,5.45-.62,8.45-1.55,1.35-1.25,2.73-.06,4.12-2.32,2,.32,2.63,1,3.84.21.39-.07,1.05.14,1.44.66,1.22-1.38,2-.39,3.35s.33,2.88.33,4.34c0,3.23.6,6.42.84,9.59.25,3.34,1.75,6,2.86,8.88s.45,6.45,3.31,8.65a1,1,0,0,1-.11.9c-1.74,1.18-.3,2.14.1,3.25.84,2.34,2.22,4.53,2,7.16,0,.28.21.57.33.86,1-.71,1.75-1.12,1.72.82a4,4,0,0,0,1.17,2.92c1.36,1,.14,2.62,1.34,3.51,2.78,2.08,2.79,6.25,6,8a1,1,0,0,1,.39.81c-.38,2.08,1.27,3.17,2.52,3.86a4.28,4.28,0,0,1,1.73,1.78c.49.73,1.42,1.15,2.09,2,1.35,1.78,2.13,4.09,4.13,5.32a7.71,7.71,0,0,1,3.83,4.84c0,.11.25.23.39.23,3.09.08,3.77,3,5.41,4.73s4.24,2.15,5.26,4.2c2.28,4.61,6.88,6.71,10.28,10.08,1.86-.55.93,2.11,2.08,2,2.31-.33,3.12,1.52,4.37,2.68.65.6,2.12,1.38,1.62,2-1.5,1.91.55,1.08.95,1.49.7.71,1.66,1.29,2.06,2.15.51,1.09,2.33.1,2.38,2s2.2,0,2.78,1.15,1,2.27,1.44,3.4a.41.41,0,0,0,.34.06c3-2.88,1.95,1.74,3.36,1.82-.13,1.12.83,1,1.38,1.43,1,.83,2.06.72,3.14,1,1.33.32-1.57,1.75.2,1.82s.93,1.81,2,2.37a11,11,0,0,1,2.5,2.42c.3.32.5.35.71-.1s-.1-1.56.7-1.42.33,1.14.41,1.76c.22,1.78.85.61,1.37.19.54,1,1.81,2.46,1.5,3-1.06,1.84-.59,2,1.2,1.9,2.06-.18,3,.89,2.93,2.93,0,.49,0,1,.66.84.17,0,.22-.54.34-.83s.25-.56.38-.84c.21.17.61.36.59.5-.28,2.24,1.34,3.81,2.11,5.64.91,2.19,3.15,2.79,5.24,1.7a5.29,5.29,0,0,1,2.61-1c1.28,0,3.09.75,3.77-.32,1.24-1.91,2.53,1.07,3.61-.38.44-.59,1,1.38,1.73.2.93-1.5,2.39-1.41,3.9-1.49s3.11.46,4.68-.85c.93-.78,2.86.27,4.25-.48.19-3.58,1.85.51,2.89-.57,2.31-2.39,6.61.47,8.75-3,.14-.23,1.13-.26,1.41,0,1.57,1.34,2.82.23,4-.52.81-.52,1.41-.8,2.08,0a1.85,1.85,0,0,0,2.23.43c1.22-1.53,3.48-.42,4.72-2.19.59-.83,2.1-2.19,3.72-.91a1.94,1.94,0,0,1,2.6-.76c1.25.7,1.56-1.62,2.93-.52,1,.81,1.27-1,2.06-1.32s.68.48,1.07.55a4.14,4.14,0,0,0,1.29,0c.36-2.45,2.29-1.52,3.69-1.89s1.82-2.47,3.69-1.94c3.59-2.29,7.85-2.1,11.79-2.83a37.66,37.66,0,0,0,9.16-3.29,63,63,0,0,1,7.7-3.19,13.24,13.24,0,0,1,2.7-.7c1.14-.13.12-2.11,1.59-2s1.3-2.13,1.48-1.92c1,1.21,1.51.39,2.29-.07,1.25-.74,1.18-.71,1.57-2.27.67-2.62,1.77.87,2.61-.12.1-.13.29-.22.34-.36.46-1.33,2.4-.76,2.8-2.26.52-2,2.2-.59,3.26-1a1.3,1.3,0,0,0,.7-.57c.79-2.14,2.53-2.53,4.47-2.39,1,.07,1.41-.65,2.1-1,1.55-.83,2.29-2.78,3.52-3.37,3.93-1.86,5.19-6.41,9-8.21,1.06-2.92,4.22-3.72,5.93-6,.54-.7,1.67-.11,2-1.08.78-2.32,2.59-4,4.09-5.75s2.83-4,5-5.46c1.52-1,2.11-3.08,1.89-5.14-.07-.6-.28-1-.8-1a10.07,10.07,0,0,1-2.47-.08,4.72,4.72,0,0,1-1.84-1.56c-.82-1-.9,1.14-1.82.28-3-2.77-7.77-1.39-10.58-4.61,0,0-.23.27-.33.25-2.62-.41-2.6-.43-4.19-1.71s-3.83,0-5.31-1.57c-.33-.35-.5-.81-.74-1a38.24,38.24,0,0,0-3.85-3.34,12.88,12.88,0,0,0-2.05-1.08c-6.56-3.33-12.2-7.94-17.71-12.73-1.13-1-2-2.49-3.24-3.07-1.43-.66-1.81-2.46-3.28-2.7s-.26-2.11-1.58-2c-1.57.1-2.57,0-2.31-2.09.12-1-.89-1.59-1.85-2-1.83-.68-6.18-4.68-6.73-6.11-.61-1.6-.65-1.59,1.5-1.89.31,0,.84-.12.86-.25.31-1.82,1.56-2.63,3.16-3.11.45-2.53,2.58-3.94,4.34-5.11s2.58-3.72,5-4.43c1.22-.35,1.94-2.12,3.51-2.36-.23-2.39,2.77-2.15,3.27-4.06.45-1.68,2.59-1.8,3.45-3.47s2.63-3,4.14-4.28a6.65,6.65,0,0,0,1.73-2.8c.62-1.49,2.32-.09,2.39-.49.4-2.44,3.41-3.06,3.63-5.51,1.79,0,.83-5.21,4.21-2.22a6.72,6.72,0,0,1,.69-.66c1.1-.69.35-1.93.79-2.67.53-.92,2-.73,2.68-1.81,2.31-3.92,5.46-7.25,7.54-11.37,1-1.89,2.86-3.51,3.56-5.52.43-1.23.74-1.88,1.92-2.14-1.24-1.38.21-1.93.8-2.84,1.77-2.73,4.26-4.82,6.39-7.23.88-1,.84-2.43,2-3.23.2-.14-2-1.22,0-1.33,2.23-.12,3.08-1.51,4.09-3,1.16-1.68,1.93-3.94,3.51-5a23.73,23.73,0,0,0,8.44-9c.31-.59.36-1,1.13-1.23a10.4,10.4,0,0,0,3.23-1.81,11,11,0,0,0,3.13-3.19c.83-1.64,1.95.26,3-.71,2.43-2.29,5.4-4,7.83-6.28s5.48-3.74,8-5.91,5.25-3.74,7.43-6.19c2.47-2.77,6.34-4.31,7.35-8.38a.54.54,0,0,1,.35-.34c3-.27,2.81-3.66,4.85-5,2.22-1.4,3.3-3.91,4.67-6a15.65,15.65,0,0,1,1.74-2.25c1.42-1.54,2.63-3.34,4-4.76s.48-4.43,3.32-4.62c-.58-2.5,1.41-3.71,2.89-4.74,2-1.37,1.59-3.8,3.07-5.31.64-.66-2-2.44.81-2.81C738.24,511.58,738,510.6,737.55,510ZM510.81,459.52A4.92,4.92,0,0,1,507,461c-1.93-.16-4-.46-5.29,1.69-.36.6-1.15.37-1.68-.2l-.68-.37c-1.38,3.94-4.61-.13-6.52,1.51-.74.64-.75-.17-.8-.5-.14-1,.51-2.91-1.66-1.31.12-1.87-2-2.34-2.4-4-.31-1.35,1.08-1.92,1.06-3.08a.76.76,0,0,1,1-.79c1.38.27,2.11-.3,2.2-1.7,1.95-.1,2.33-3.58,4.93-2.3,3.1-2.53,7.4-1.44,10.53-3.38,1.47-.92,2.34,1.59,3.15,0s2,1.4,2.51-.45a15.24,15.24,0,0,1,3.07,1.79c1.1,1,1,2.31-.22,3.36C516.67,455.53,513.14,457.22,510.81,459.52ZM645.69,534c-.85.25-.54,1-.72,1.6-1.21,4.13-1.93,5.26-5.62,9.58a9.57,9.57,0,0,0-.73,1.69,17.37,17.37,0,0,1-2.48,4c-2.33,2.49-2.15,2.93-4.13.61-2.57-3-6.24-4.76-8.8-7.75-1.11-1.29-3.18-.31-4.2-2.07-.72-1.26-2.08-2.13-3.1-3.23-.41-.45-.87-.36-1.34-.39a8.27,8.27,0,0,1-6.28-2.91c-1.21-1.42-4-.8-5.34-2.64-3.36-.37-5.61-3.28-8.88-3.89-2.81-.52-5.13-2-7.61-3.39-2.93-1.59-6.38-2.31-9.67-3.12-2.28-.56-3.87-2.71-6.56-2.43-1,.11-1.73-2.13-1-3.26.84-1.33,1.39-2.86,2.74-3.9a4.53,4.53,0,0,0,2.16-3.63c0-1.07,1.71-1.7,2.53-2.77,2-2.64,4.22-5.17,5.27-8.35.44-1.33,2.56,1.31,2.09-1.15-.27-1.38.88-2.33,1.43-3.39a9.22,9.22,0,0,1,2.77-2.83c1-.74.78-2,1.66-2.88s-.64-3,.88-3.34c2-.44.78-1.85,1.29-2.62.7-1,1.5-2,2.21-3.06,1.69-2.46,2.64-5.38,4.73-7.57.44-.46.67-1.29,1.18-1.47,2.59-.93,2.88-3,2.82-5.28,0-1.2.07-1.85,1.59-2.36,2-.68,2.33-3.54,4.42-4.48,1.52-4.87,5.9-7.87,8.12-12.14s6.83-6,8.65-10.31c.29-.69,1.78-.84,2.15-1.54a16.9,16.9,0,0,0,.76-2.66c.55-1.73,2.5-1.94,3-3.69.42-1.42,1.76-2.6,2.73-3.85s3.1-2.13,2.61-4.44c0-.2.34-.52.57-.74A35.94,35.94,0,0,0,645,407.49c2.76-.83,2.51-4.06,4.51-5.58s2.8-4.38,4.6-6c2-1.79,3.09-5,6.49-5,1.34-2.56,3.68-2.94,6.22-2.88.54,0,1-.13,1.15-.64s-.19-2,1.16-.72c1.63,1.56,3.86,1.14,5.78,1.73,2.2.68,4.11,2.8,4.08,4.83.26,1.23-1.6,2.41,0,3.72.22.17-2.81,2.3-3.35,2.17-.91-.21-1.54-.17-1.64,1-.07.9-.61,1.2-.93.13-.26-.87-.12-1.76-1.28-.57-.9.93-1.12,2.25-2.67,2.94s-4,1.66-3.18,4.53c.12.45-.84,1.32-1.45,1.8-.92.73-1.63-1.43-2.3-.48-.48.67,0,1.94-.19,2.91s-2.37,1.29-1.48,2.44c1.1,1.44-.32,2-.44,2.91-.31,2.42-1.09.34-1.67.26s-1.35,0-1.26.41c.42,1.91-2,3.34-1,5s-1.78,2.26-.38,3.87-1.18,2.28-1.29,3.71c-.1,1.15,1.76,2.59-.41,3.48.75,1.63-1,2.59-1,4.08-.13,4.27-2,8.24-2.48,12.45-.1.88.72,1.9-1.1,2.25a1.59,1.59,0,0,0-.59,3c-1.27,1.08-.25,3-1.64,4.16-.93.78-2.64,1.58-2,3,.48,1.2-2.16,1.73-.32,2.8-1,1.23-1.56,2.82-2.95,3.7-.83.53-2,1-1.76,2,.49,2.19-1.47,3.17-1.92,4.73-.39,1.33-2.49,2-1.77,2.92,1.2,1.46-.64,1.81-.61,2.87,0,.91-1.79,1.8-2.6,2.84-.64.84.47,1.39.65,2.06s-1.06,1.06-.85,2c.1.44.26,1.08-.31,1.35-1.11.52-2.33.84-3.38,1.46s.78,2.73-1.71,2.82c-1.36,0,1.06,1.16-.08,2-.8.62-1.8.64-2.47,1.34,2.55,2.11-.65,2.84-1,4.26s-2,1.86-2.75,3.26-2.24,2.68-3,4.27c-.49,1-2.15.24-2.24,1.47-.16,2.3-1.19.2-1.58.41-.88.46-.52,1.52-.41,2.25.33,2.12.42,2-1.52,1.66-1.37-.26-2,.14-.64,1.32-1.56.49-1.79,2.21-2.88,3.13a2.39,2.39,0,0,0-1,2.08c0,1,.5,1.83,1.39,1.35,1.92-1,4.65-.19,5.8-3.23.69-1.85,2.84-3.14,4.33-4.7.78-.8,1.87-1.45,1.53-2.87a1.15,1.15,0,0,1,0-.49c.36-1.61,3.29.61,3-2.09a3.44,3.44,0,0,1,1.81-3.46c2.49-.9,2.44-3.62,4.15-5-.74-2.14,3.13-2.27,2-4.59,3.55-.94,2.28-6,5.85-6.9,1.36-2.95,2.37-6.09,4.58-8.6a2.94,2.94,0,0,0,.56-1.26c.28-1.25-.56-3.54.52-3.61,2.71-.18.91-2.4,2-3.34a9.51,9.51,0,0,0,2.11-3.06c.91-2.11,2.45-3.92,2.53-6.49.07-2.09,1.34-4.21,2.33-6,1.64-2.9,2.26-6.14,3.83-8.92,1.08-1.91.16-4.19,1.73-5.8,1-1.05-1.58-1.48-.4-2.88a4.89,4.89,0,0,0,1.42-3.38,20.34,20.34,0,0,1,0-3.49c0-.41.46-.81.78-1.16.6-.67,1.67-1.18.28-2.17-.24-.18-.08-.94-.1-1.43l2-5.84c.61-2.07,2.43-3.74,2-6.17-.15-.87.85-.8,1.11-1.15,1-1.24,4.39-1.45,2.06-4.26,1.51-1.49,3-3,4.56-4.44l.68.68c1.82-2.86,5.43-2.34,7.71-4,1.83-1.37,3.18-.43,4.2.22,2.34,1.51,4.36,3.49,3.72,6.85-.17.88-.49,2.05.28,2.83s.9,1.6,0,2.47a1.42,1.42,0,0,0-.27,1.33c2.41,3.59-.33,7.13-.12,10.7.08,1.46-.75,3-1.17,4.47a31.35,31.35,0,0,0,0,4.54,4.48,4.48,0,0,1-.27,3.7,5.64,5.64,0,0,0-.31.71c.57.23,1.33.33,1.64.75s-.51.54-1,.56c-1,.05-.58,1-.89,1.4-1.08,1.51-3.33,2.62-1.16,4.88-1.86,1.9.48,5.17-2.34,6.94-.68.42-2.11,2-.48,3.44a.89.89,0,0,1-.42,1.24c-1,.22-1.7-.15-.89,1.54.48,1-2.95,2.08-2.5,3.55a4.33,4.33,0,0,1-.66,4,21.8,21.8,0,0,1-1.09,2c-1.11,1.39.65,3.06.12,3.67-1,1.13-1.34,2.54-2.29,3.63-.38.42.3.66.78.65s1,.62.75.63c-2.73.07-1.36,2.83-2.66,4-1,.88-1.11,2.8-1.49,4.3s-2.39,2-2.44,2.84a8.18,8.18,0,0,1-1.51,3.91c-1.65,2.52-2.32,5.43-3.46,8.09s-2.61,4.94-4,7.35c-1.58,2.85-3.47,5.5-4.28,8.74-.36,1.45-2.21,1.75-2.69,3.3a21,21,0,0,1-2.08,4.12c-.63,1.09-1.86,2-2,3.15C648.9,531.75,648,533.33,645.69,534ZM454.63,495.82c.66-.39.57-1.1,0-1.67-.21-.23-.6-.62-.56-.68.54-.74,1.15-1.44,1.74-2.14-1.44-.63.43-1.74-.15-2.06-1.48-.8.82-1.49-.08-2.18-1.29-1,.31-1.63.51-2.28,1-3.07,2.33-6,3.58-9,.12-.28.45-.47.71-.73.2.17.57.34.57.52a15.49,15.49,0,0,1,0,4c-.31,1.31,2.24,1.91.6,3.41-1,.88,1.57,1.92-.07,3.18-.82.62.65,1.69.65,2.82,0,1.55-1.44,2.49-1.17,4.08a25.12,25.12,0,0,1,.06,4c0,.6-.41.7-.84,1a7.28,7.28,0,0,0-3.07,5.27c-.37,2.16-.92,2.06-2.38,1-.5-.37-1.26-1-1-1.49.38-.66,0-1.14-.08-1.72C453.47,499.28,452.31,497.22,454.63,495.82Z"/><path d="M504.29,604.27c1.39-1.25.38-2.84.71-4.1,0-1.12-.05-2.13,0-3.12.1-1.58-1.41-1-2.09-1.5-1.42-1.06-.6.72-1,1-1.17.91-1.15,1.7-.18,2.87.2.24-.84,1.76-.77,2.92.06.92.45,2-.57,2.74-1.49,1.06.87,1.74.25,2.78a9.39,9.39,0,0,0-1.56,3.32c-.17,1.52-1.07,2.61-1.71,3.8s.26,2.78-1.33,3.45c2.14,1.88-1.35,2.11-1,3.22.67,2.07-1.9,2.08-1.94,3.11-.16,3.21-2.19,5.46-3.49,8.08a17.12,17.12,0,0,1-1.42,2.41c-.67.9-2,1.66-2.09,2.6-.2,1.55-2.19,1.29-2,1.5,1.59,1.61-.4,1.27-.76,1.9-1.67,2.88-4.66,4.66-6.21,7.43-.87,1.54-3.29,1.31-3.23,3.58,0,.71-1.17,1.2,0,2.23,2.11,1.85,3.19,1.73,5.1-.7,1.2-1.51,2.09-3.26,3.9-4.35s2-3.77,3.36-5c1.64-1.45,3.6-2.53,4.7-4.56.07-.13,0-.4.05-.47,1-.79.83-2.86,2.76-2.78a6.67,6.67,0,0,1,1.5-4.33c1-1.24,1.59-2.74,2.67-3.9-2.07-2.13,2.06-2.39,1.29-4.2-.1-.24.73-.79.7-1.15-.21-2,1-3.57,1.65-5.33a50.39,50.39,0,0,0,2.22-5.54c.49-2.06,2.78-4.38.29-6.7A1.37,1.37,0,0,1,504.29,604.27Z"/><path d="M678.52,541c2.84,1.2,2.92,4.61,5.18,6.24a1,1,0,0,1,.23,1.3c-1.34.92-.5,1.49.21,2.15s1.18,1.17,1.76,1.75c-2.27,2.08.71,1.58,1.17,2,.93.9,1.69-.62,2.66-.77.52-.09.09-1-.12-1.62-.6-1.8-2.27-3.39-2.42-4.9-.35-3.58-2.47-5.73-4.61-8.08a2.73,2.73,0,0,0-2.87-1c-.36.15-1.48-.57-1.67.67C677.93,539.48,677.61,540.58,678.52,541Z"/><path d="M685.76,540.28c.28.53.33,1.29.75,1.63s1.16-1.35,1.22-.53a6,6,0,0,0,2.6,4.4c1,.81.59,1.78.66,2.71,0,.64-.13,1.34.78,1.51s1.15-.44,1.61-.88c1.16-1.09.85-2.59.48-3.66a22,22,0,0,0-5.47-8.65,3.41,3.41,0,0,0-2.66-.81c-1.82,0-2.11.35-1.35,1.87C684.8,538.69,685.33,539.46,685.76,540.28Z"/><path d="M651.42,481.79c.6.38,1.57.18,2.38.21,2.09.08,2.09.07,4,2.25,1.36,1.59,1.91,1.61,4.34.78,1.76-.61.61-1.94.89-2.89.13-.46,0-1,0-1.48,0-.22.37-.38.57-.56a2.63,2.63,0,0,1,.38.82c.12,1.68,1.41,1,2.22,1s.83-.79.78-1.6c-.17-.61.48-1.62-.33-2.16-1.56-1.05-1.51-3.89-3.16-4-2.17-.17-3.26-1.36-4.4-2.65s-2,.47-2.76.2c-1-.35-1.35-1.92-2.77-1.72a2.82,2.82,0,0,0-1.34.32c-.59.5-1.72,1.26-1.14,1.89.81.87.26,3,2.06,2.72,1.5-.2,2.17,1.23,3.51,1.28.45,0,1.3,1.19,1.22,1.29-.63.85-1.24.44-2-.08-1.3-.89-2.86-.35-4.29-.38-.36,0-.69.66-1.09.94-1.11.78.91,1.17.24,1.75C649.26,481,651,481.49,651.42,481.79Z"/><path d="M615.33,461.06a9.13,9.13,0,0,0,3.17,1,2.45,2.45,0,0,0,1.72-.72c.67-.6.75.19.76.54,0,.82.36,1.25,1.16,1.13,2.31-.35,3.49.66,4.28,2.83.63,1.72,2.64,2.28,4.14,3.1a2.43,2.43,0,0,0,3-.95c.91-1.17.12-1.72-.55-2.44-1.19-1.27-1.44-3.51-3.19-4.08a20.78,20.78,0,0,1-6.84-3.92,1.79,1.79,0,0,0-.67-.33c-1.54,2.25-3-1.22-4.18-.13s-2.8-.57-3.76.83c-1.07-1.22-1.46-1-1.42.6S614.05,460.53,615.33,461.06Z"/><path d="M622.41,465.08c-1.12-.48-3.13.47-3.82-.19-2.08-2-2.88-.1-3.86.94-1.49,1.55-.87,2.81,1.27,3.76,1.11.49,2.51-1.94,2.88.1.33,1.83,2.09,1.11,2.74,2.24.18.32,1.45.18,1.41,1.34,0,.3.1.83.88.4a26.09,26.09,0,0,1,4.26-1.65c.51-.18.88-.35.83-1,0-.16.07-.39,0-.48C627.07,468.41,625.1,466.22,622.41,465.08Z"/><path d="M477.75,381c-1.28-.31-2.76.52-4.17-.7-.38-.33-1.44-1.7-2.67-.73-1,.74-1.33-.92-2.42-.65s-2.21.05-3.1,1.06-1.61-2-2.74-.17a26.86,26.86,0,0,1-1.87,2.68c-1.25,1.52-2.31,3.33-4,4.49a21.83,21.83,0,0,1-4.78,2.94c-1.64.6-.53.89-.17,1.46,1.67,2.63,3.45,5.22,4.88,8,.5.95,3.49,1.11,1.26,3.14,1,1.05,2.41,1.86,2,3.68a.5.5,0,0,0,.12.43c.75.56,1.82.48,2.43,1.41s-1.19,1.86.44,2.53c.84.34,1.19,1.38,2.38,1.55.94.13.9,1.69.12,1.79-2.94.4-.66,1.41-.2,1.81a2.54,2.54,0,0,0,1.85.27,2.31,2.31,0,0,1,2.73,1.58c.21,1.17,1,1.63,1.55,2.39s1.76,1.13,1.55,2.34c-.16,1-2.49,2.61-3.73,2.71-.66.06-1.33,0-2,0-1.07,0-1.53.13-.55,1.27,1.84,2.13,2.21,5.29,4.9,6.91a3.59,3.59,0,0,1,1.26,2.37c-.08,2.63,2.88,3.18,3.34,5.64.36,2,2.41,3.67,3.87,5.34a44.16,44.16,0,0,1,6.12,10c.63,1.28.34,1.61-.39,2.16-.47.36-1.21.38-1.67.76-.67.55-.87.65-1.16-.34-.65-2.22-3.43-2.66-4.12-5.22-.59-2.15-2.52-3.94-3.84-5.89-.17-.25-.34-.82-.37-.81-3.31,1-2.78-2.26-3.26-3.51-.64-1.72-1.19-3.3-2.66-4.39-1.16-.86.3-1.44.17-1.75-.4-.91-2-.21-2.13-.54-.52-1.65-3.44-2.39-1.81-4.89.41-.63-.41-1.31-1.11-1s-1.68.52-1.48,1.85c.44,2.91-.75,3.49-3.56,3.24-2.09-.19-2.65-2.17-4.52-2.57-1.14-.23-1.16-.41-1.3.67-.36,2.8.18,5.18,2.66,6.92a13.62,13.62,0,0,1,4.18,5.76c.61,1.33.48,2.37,2.32,2.11.93-.13.67.82.9,1.38.86,2.15,3.2,3.52,3.15,6.22,0,.76,1.29.16,1.89,1.09,1.79,2.75,3.18,5.72,5,8.44.77,1.17,1.9,1.82,2.13,3.6.19,1.46,1.87,2.89,3.17,4s1.64,2.72,2.59,4a2.09,2.09,0,0,1-.15,1.87,1.72,1.72,0,0,1-2.24.3c-1-.85-2.6-.83-3-2.66-.16-.8-.39-2.66-2.28-2.5-.32,0-.92-.6-1-1-.83-3.37-3.4-5.43-5.73-7.62-1.08-1,0-2.52-1.33-3.51-1.65-1.2-1.35-4.14-3.87-4.76.23-2.95-2.6-4.2-3.66-6.48s-3.63-3.85-4.54-6.13c-.82-2-1.1-.32-1.72-.33-.95,0-1.36.69-2,1a7.57,7.57,0,0,0-.73-1.69c-.55-.71-1.15-1.68-2.2-.35a6,6,0,0,1-2.28-1.25c-.49-.42,0-1.82-1.26-1.58a2.07,2.07,0,0,0-1.88,1.92c0,2.83-2.26,2.61-3.89,3-1.93.46-2.59-.86-3.41-2.54-1.4-2.86-1.78-5.94-2.7-8.88-1.53-4.89-2.67-9.89-4.09-14.82-.24-.81-1.27-1.34,0-2.27a2.19,2.19,0,0,0-.24-2.29c-.57-.72-.93-1.61-1.44-2.39-.76-1.15.42-2.64-.7-3.71-1.56,2.19-4.23.2-6.27,1.82-1.89,1.49-4.55.49-6.68-.77-.54-.33-.73-1.18-1.55-1.08-.62.08-1.62-.38-1.8.33-.25,1,.85.45,1.28.71.63.37.28.93-.15.9-1.1-.06-2.31.53-3.32-.39-.6-.54-1.22-1.05-1.86-1.55a.51.51,0,0,0-.48,0c-.74.49-1.45,1.41-2.19,0-.57.58-1.56.71-2,1.1-1.77,1.63-4.77,1.7-5.63,4.45-.07.2-.51.35-.8.42-2.35.6-3.86,2.64-6.07,3.48-.5,2.7-3.09,3.7-4.61,5.58a19.73,19.73,0,0,1-11,6.94c-.47.09-.94,0-1.33.43-1.28,1.48-2.64,2.7-4.47.68-1.43,2.18-2.73-.25-4.13-.15-1.21.08-2.28-.46-3.71-.1a7.1,7.1,0,0,1-7.16-1.77,6.08,6.08,0,0,0-2.51-1.2c-1.31-.55-3.25-.36-3.86-1.33-1.43-2.27-4.6-2.92-5.18-5.74-.27-1.29-2.94-.53-1.95-2,1.25-1.86.62-4.46,3.07-5.89,2.69-1.58,4.35-4.54,6.63-6.6,2-1.79,5.1-2.9,6.53-5.23A45.8,45.8,0,0,0,358,391.54c.91-3,1.17-6.1,2.73-8.88a5.81,5.81,0,0,0,.23-2.39c.07-1.65.11-3.29.17-4.94,2.49-.79-1.24-2.71.77-3.91,1.54-.91-1.55-2.11-.28-3.76a3,3,0,0,0-.45-4c-.52-.49-.26-1.21.32-1.68a1.79,1.79,0,0,0,.4-2.24c-1.06-1.12-.92-2.37-.93-3.65,0-4.33-.47-8.74.19-13,.35-2.2,0-4.79,1-6.51,1.34-2.34.29-4.53.84-6.68.65-2.56,1.42-5.08,2.18-7.6.13-.43.4-.33.7.06.55.69.85.68,1.15-.3s-1.59-1.14-.64-1.88c.56-.43,1.38-.61,2.06-1.06s2.11-.47,1.45-1.26c-2.33-2.75.82-2.83,1.69-4,1.58-2.09,2.85-4.34,5.84-5.07,1-.25,1.08-2.95,3.17-2.95,3-3.47,7.26-4.07,11.26-5.41,1.24-.41,2,1.73,3.22,0,.72-1,2-.87,3,.12.33.35.47.45.72.07,2.17-3.28,5,.39,7.42-.6.71-.29,1.46,1.65,2.87.42,1-.92,1.35.78,2,1.2.36.21.38.23.75-.07,1.85-1.49,3.58-.39,5.31.36a22,22,0,0,0,7.91,1.32c.26,0,.43-.38.72,0,1.09,1.49,3,1.72,4.33,2.75a7.75,7.75,0,0,0,5.73,2,4.61,4.61,0,0,1,2.91,1.28c3.82,3.19,5.42,3.77,10.53,5.79,1.7.67,4.37.88,5,3.59.14.6,1.27.92,1.84,1.35,1.14.87,3.08.45,3.42,1.21.65,1.49,1.44,1.57,2.81,1.8s-.79,1.17-.16,1.55,2,0,2.24.45c1,2.12,3.74,1.22,4.87,2.81s3,1.89,4.22,3.16c1.47,1.51,3,2.86,5.29,2.92a1.38,1.38,0,0,1,.5,0c1.14.51,1.89,2.76,3.07,1.85,2-1.51,2,.74,2.92,1a15.16,15.16,0,0,0,2.44.17c.53.05,1.08-.09,1.17-.6.26-1.44,1.08-2.74,2.46-2.28,1.21.4,1.72-2.08,2.82-.38.2.3.48.22.7-.19,1.53-2.8,4.7-2.35,7.06-3.5a1.43,1.43,0,0,1,1.82.3c.57.81.92.41,1.45-.09s1.13-.31,1.7.18a2.34,2.34,0,0,0,1.26.54c3.92.41,6.81,3.65,5.59,7.34-.75,2.26.25,2.26,1.52,2.66.86.28,2.18-.56,2.6.67.6,1.76,2.07,3.44,1.4,5.39-.31.93-.43,1.46.28,2.09s-.09.81-.4.84c-1.14.11-1.55.33-.51,1.31.25.24.13.87.18,1.32-2.59,0-2.89,2.86-4.76,4s-3.58,2.6-6,2.45a1.83,1.83,0,0,0-.89.26c-5.19,2.78-6.53,3.28-12.54,3.68-2.19.15-2.94,2.26-4.85,2.84-1.56.46-.7,2.31-.84,3.56s.21,2.56-.36,3.31-3.34.7,0,1.56c.84.22-.31.62-.36,1-.27,2.41-3.82,2.18-3.85,4.78-1.62-.75-2.58,1.19-4.08,1A22.36,22.36,0,0,0,477.75,381Zm-88.6-75.35-4.77.47c-.54.33-.31.87-.39,1.34s-.06,1.18-.34,1.32c-4.47,2.4-7.15,6.73-10.85,10a4.25,4.25,0,0,0-1.91,2.72c-.09.67-1.18,1.27-2.2,1.65-1.5.56,1.39,1.66.13,2.53-.91.62-.69,1.73-1.36,2.46-.82.89,1.34,1.57.5,2.34-1.67,1.54-1.07,3.47-.85,5.11s-1.16,3.14-.3,4.76c-1.31.76.42,1.93-.42,2.85s.17,2.74-.47,3.23c-1.67,1.27.82,2.35-.07,3.18s-1.33,2.42-.6,3c1.63,1.32-1,1.79-.27,2.84,2.09,3,.81,6.39.87,9.57,0,1-.61,2.14.16,3.16s.09,1.82.13,2.67c.09,2.18-1.57,3.91-1.18,6.1.15.84,1.58,1.56.12,2.75-.66.54.44,2.29-.51,3.21a2,2,0,0,0-.51,2.25,2.41,2.41,0,0,1-.18,2.67c-1.32,2.26-1.38,5.23-3.86,6.9-.12.08,0,.6.1.92.4,2.18,0,5.06-1.1,5.76s-1.7,1.8-2.48,2.3c-1.11.71-.93.77-.86,1.95s-1.81,1.54-3.22,1.44c-.13,0-.33.49-.46.77-2.38,5.26-2.36,5.33-7,7.11a7.62,7.62,0,0,0-2.24,1.81,2.15,2.15,0,0,0-.1,3.38,23.87,23.87,0,0,0,3.2,3.16c1,.74,2.33,1,3.23,1.75s3.06.38,2.92,2.47c1.34.18,2.47-.94,3.89-.55.75.2,1.54-.07,2.26.63a2.87,2.87,0,0,0,3.2.31c1.49-1.75,2.55.3,3.78.28,1.42,0,2.73-1.58,4.24-.35.52.42,1.55.25,1.54-.45,0-1.64,1-1.52,2-1.36,1.73.3.64-1.72,2-2.16,3.45-1.08,6-3.66,8.21-6.5a7.24,7.24,0,0,1,1.41-1.41c1.1-.8-1.16-1.59-.23-1.69,3.65-.37,4.81-5,8.7-4.8.84-1.54,2.63-1.77,3.9-2.73a8.8,8.8,0,0,1,4.7-1.48c.67,0,1.5,1.31,2.39.19s1.26,1.14,1.74.22c.78-1.48,1.32.62,2.21,0,1.74-1.28,3.94,1.63,5.78-.38.08.13.23.26.24.4.18,2,.89,1.57,2.22.76.92-.56,2.07-1.81,3.43-.55,1.39-1.73,3.75,0,5-1.12,3.1-2.81,8.19-3.89,8.42-9.29,1.31-1,1-3.59,3.47-3.54.47,0,1-.84,1.41-1.35,1.66-2,1.64-2,5.54-2.59,1-1.87,3-.74,4.44-1.26,4.26-1.5,7.42-4.34,10.38-7.52,1.94-2.09,2.5-1.63,3.93-3.33,1.57-1.86,2.69.09,4.09-.44,2.35-.91,5.37-1.22,7.56.16,2,1.28,3.71.56,5.51.36a25.78,25.78,0,0,0,4.45-1.27c-1.3-1.58.85-3,.2-4.61-.18-.43,0-1,0-1.49a6.09,6.09,0,0,1,2.12-5.09c.48-.44.57-1.91,2.16-.91,1,.61.49-1.79,1.68-2,.45-.09.87-.54,1.28-.5,2.29.23,4.24-1.67,6.58-1,.05,0,3.32-1.68,3.38-1.69,2-.32,3-3,5.55-2.34,1.13.3,1.28-.55,1.31-1.49a.38.38,0,0,1,.67-.25c1.41,1.8,2.21.28,3.12-.58.72-.68,1.4-1.42,2.13-2.11.9-.85,1.72-1.64.33-2.8a1.33,1.33,0,0,1-.18-1.29c2-2-.28-2-1.22-2.4a1.85,1.85,0,0,0-1.84.31c-.44.36-3.07-.56-3-.9.2-1.71-.69-3.53,1-5.1,1.31-1.22,1.14-2.47-.27-3-1.58-.58-3.11-2.65-5.13-.58-.73.75-1.39-.18-2.05-.64s-1.55-.24-1.53.48c.07,2.48-2.7.66-2.75,1.67-.12,2.49-2.28,1.18-3.15,2.06-1.16,1.16-3,.54-4.23,2s-3.46.19-5.17.63c-1.95.5-2.59-1.87-3.59-1.86-2.45,0-4.08-1.83-6.18-2.08-2.38-.28-3.69-2-5.53-2.95-2.42-1.25-4.92-2.1-5.82-5-2.44,1.7-2.21-.72-2.83-1.83-.22-.39-.42-.32-.71.08-1,1.31-1.53-.39-2.3-.53-1.16-.2-.86-2.57-2.24-2.7a13.55,13.55,0,0,1-3.56-1.11c-.51-.19-.85-.31-1-.82L446.35,319c-2.21-1.45-4.73-2.23-7.1-3.34-1-.47-1.58-1.75-2.53-2.37s-2.5-.73-3.32-1.53-2.32-.47-2.83-1.69c-1.52,1.7-1.93-.39-2.84-.81a2.08,2.08,0,0,0-1.38-.23,3.41,3.41,0,0,1-3.5-1.12c-1.85-1.85-3.94-2.11-6.26-1.89a2.3,2.3,0,0,1-2.09-1c-.53.52-.9,1.34-1.8.27-.54-.63-2.05-.51-2.22-.11-.69,1.53,1.38.37,1.59,1.36.08.42.73.69.9,1.12.24.61-.11,2.06,1.16.69.84-.91,1,1.34,1.8.27a1.28,1.28,0,0,1,2.35.25,4.52,4.52,0,0,0,3.43,2.51c.58.15,1.87.33,2,1,1,3.74,4.63,4,7.15,5.61a5.66,5.66,0,0,1,1.55,1c2.09,2.8,5.51,4.08,7.7,6.72,1.07,1.3,3.48,1.19,3.74,2.83.33,2.14,2.27,2.25,3.33,2.94,2.77,1.81,4.12,4.51,5.76,7.06.51.8-.21,1.58-1.25,1.49-.48-.05-1.19,0-1.38-.23-2-2.86-5.78-3.49-7.82-6.53a13.37,13.37,0,0,0-5.73-5.26c-2.33-1-3.06-4.45-6.33-4.07-.31,0-.75-.62-1-1-.67-.93-1-3.23-2-2.54-2.29,1.51-1-2.65-2.93-1.48-.43.25-1.25-1.68-2.58-1.94-1-.2-2.78-1.06-2.73-1.44.28-2.23-2.23-1.07-2.59-2.42-.44-1.62-1.93.14-2.4-.52-1.1-1.54-3.26-1.51-4.24-3.13-.6-1-1.23,1.24-2.22-.05-.53-.7-1.66-.94-2-2.11-.15-.48-.62.37-1,.55-.66.33-1.32.31-1.64-.37a1.21,1.21,0,0,1,.32-1.35,2.62,2.62,0,0,1,2.55-1.11c.48.1.95,0,.91-.63,0-.14-.56-.38-.81-.34-1.4.27-3-.73-4.21.68-1.23-.74-2.94-1.24-3.87-.58-1.17.84-2.49.56-3.38.61C392.68,304.85,391,306,389.15,305.65ZM460.44,420c.5,0,1,0,1.5,0a1.92,1.92,0,0,0,1.83-1.4c.24-.83-.92-.38-1.33-.69-1.85-1.4-2.63-3.86-4.89-4.87-.7-.32-.36-1.55-.72-1.63-2.11-.48,1.12-2.22-.52-2.34-2.17-.16-.77-1.86-1.35-2.5-3.6-4-5.67-8.93-7.91-13.72-.38-.81-.85-.71-1.46-.88-1.09-.33-2.07,1.78-3.15.09-.23.23-.44.64-.71.68-3.27.48-3.06,4.4-5.57,5.62,0,0,.06.23,0,.34-.59,3.35-.47,3.74-2.05,4.2-2,.58-2.39,3.22-4.7,3.2-.49,0-.67,1-.42,1.22,1.26,1.2,1,2.7.94,4.12s1.77,2.45,1,4.07c1.75,1.64,1,3.55.54,5.4-.11.39-.62.58-.08,1.08a7.39,7.39,0,0,1,2.53,6.43c1.38.9.76,2.35,1.05,3.57s1.34,2.17,1,3.59c-.32,1.24.82,1.71,1.49,2.35.24.23,1.1.31,1.29-.26.42-1.23-.17-3.08,2.08-3,0-3.16,2.17-6.13.84-9.4-.12-.28-.69-.65-.66-.69.73-1,1.79-.42,2.71-.53.72-.08,1.32.11,1.24,1-.19,2.27.4,4.59-.37,6.83a26.88,26.88,0,0,0,.87,5.11c.69.65,1.63,1.92,2.07,1.77A2.44,2.44,0,0,0,449,436c-.17-1.48.06-3-.06-4.49-.17-2,1.16-3.55,1.48-5.4.07-.4.68-1,1-1s.55.67.52,1.17c-.08,1.34,0,3.49,1.2,3.27,1.44-.26,2.39.71,3.6.47.31-.06.71,0,.89-.23.84-.83.37-5.84-.84-6.29-1.85-.69-2-2.61-3.4-3.61a1.73,1.73,0,0,1-.1-2.59,2,2,0,0,1,2.64.21,9.37,9.37,0,0,1,1.39,1.43C458.16,420.07,459.25,420.12,460.44,420Z"/><path d="M500,504.26c0-.33,0-.67,0-1-.05-1,0-1.49-1.28-.6-1.43,1-2.45.34-3.07-1.43a11.54,11.54,0,0,0-3.09-4.24c-1-1-3.37-1-2.57-3.33,0-.1-.13-.37-.23-.38-2.84-.5-2.9-2.56-2.79-4.79,0-.49-1.48-.69-.51-1.35.56-.37,2.13-.47,2.2.15.2,1.57,1.89,1.48,2.29,2.49a5.66,5.66,0,0,0,3.25,3.27c1.32.59,1.15,2.57,3.15,3.14,1.68.47,3.1,2.44,4.26,4,1,1.38,2.9,1.46,3.67,3.37s3.88,2.1,3.75,4.88c0,.16.5.53.72.5,2.69-.33,3.74,2,5,3.46a30.07,30.07,0,0,0,4.29,4.09c4.67,3.65,7.38,8.86,11,13.38,2.75,3.47,5.92,6.62,8,10.61.2.4.53.51.69.26,1.16-1.77,3.39,0,4.85-1.69,2.38-2.74,3-5.41.27-8.59-3.18-3.65-5.16-8.17-9-11.35-2.71-2.22-4.78-5.22-7.07-7.93s-5.67-4.54-7.08-8.06c-2.36-1.14-3.65-3.47-5.09-5.36s-3.46-3.49-4.68-5.52a45.92,45.92,0,0,0-7.44-9.31,1.41,1.41,0,0,1-.43-1.33c.18-1.32-.39-1.79-1.67-1.64a1.09,1.09,0,0,1-1.39-.93c-.62-2.21-2.16-3.85-3.78-5.44a6.28,6.28,0,0,1-2.17-5.09c2-.38,3.67.93,4.68,1.91,2,1.94,5.24,3.17,5.33,6.71,0,.56.34,1,.93.84,2.64-.62,2,2.45,3.61,3.17.68.31-1,1.61.45,2.48a25.65,25.65,0,0,0,2.81,1.71c.43.19,1.07.73,1,1-.43,2.84,3.1,3.46,3.35,6.11.08.89,1.57,2.23,3.25,2.67.8.2.92,2.44,2.23,2.76,1,.25,1.52.49,1.33,1.51s.36,1.94,1,2c2.33.25,1.86,3.77,4.47,3.61.43,0,.54.71.51,1.23s-.15,1.41.56,1.76c4.84,2.39,6.94,7.51,10.83,10.84.48.41.74,1.11,1.53,1.13.3,0,.85.21.84.29-.24,3.27,3.28,4,4.45,6.49s1.78,5.31,3.57,7.54c.83,1-.45,2.65.74,3.68.53.45.34,1-.13,1-2,0-2,1.71-2.78,2.85-.51.77-9,3.73-9.83,4s-.74-.37-1.07-.58c-4.06-2.69-6.54-4.53-8.53-8.8-1.09-2.33-3.35-3.32-4.37-5.67a13.55,13.55,0,0,0-3.93-5.39,8.26,8.26,0,0,1-2.25-3.05c-.33-.68-.32-1.63-1-2.08s-.68.95-1.39.55c-.14-.08-.22-.31-.36-.34-1.91-.44.23-3.4-1.91-3.34-1.89.06-2.62-1.22-3.6-2.23s-2.5-1.7-2.5-3.45c-2.63-.87-4-3.25-5.93-5a1.59,1.59,0,0,0-1.33-.43C498.22,506.23,499.48,505.11,500,504.26Z"/><path d="M389.65,309.15c1.64,2.14,3.53-.67,4.63,0,1.77,1.07,3.45.71,5.17.82a2.34,2.34,0,0,1,1.73.69c2,2.08,5.26,2.39,6.94,4.95.65,1,2-.19,2.68.72,1.27,1.76,4.25,1.74,4.61,4.51.06.44,1.06,1.19,1.44,1.09,2.23-.59,2.14,2.48,4,2.39a7.48,7.48,0,0,0,4.46,4.68c.14.06.39.12.4.2.6,4.26,5,6.1,6.31,9.88a2.81,2.81,0,0,0,2,1.92c.29.09.82.19.83.32.35,4.09,4.43,5.69,6,8.95,1.68,3.58,5.44,5.45,7.15,9a2.82,2.82,0,0,0,2.24,1.73c2.39.19,2.84,2.6,4.29,3.89.72.64.9,1.32.12,2s-1.14,1.51-2.43.71a29.44,29.44,0,0,1-6.09-4.83c-.1-.1-.09-.43-.12-.43-3.38.14-3.48-3.06-4.74-4.9-1.09-1.58-3.09-2.25-3.8-3.81-.79-1.76-2.49-2.88-2.93-4.78-2.24-.46-2.3-2.58-3.12-4.12-2-3.73-5.67-6.1-7.81-9.73a37.28,37.28,0,0,0-2.9-3.76,14.76,14.76,0,0,0-5-4.5,9.3,9.3,0,0,1-4.32-4c-1-1.92-3.12-2.72-4.84-3.89a18.83,18.83,0,0,0-4.83-2.76c-1.73-.52-2.11-3.17-4.39-2.5-1.22-1.32-2.8-.47-4.21-.65-.59-.07-1.76-.33-1.75.34,0,1.16,1.22.45,1.89.62,1.57.41,3.41.33,3.92,2.48.12.5.79.4,1.23.56,3.27,1.14,5.84,3.62,7.74,7.36.77,1.52,3,1.59,3.39,3.5,1.68-.3,1.35,1.41,2.07,2.05s.43,1.88,1.4,2.43c3.4,2,4.48,5.73,6.71,8.59,1.61,2.06,2.57,4.75,5.49,5.74a2.81,2.81,0,0,1,2,3.11c-.22,1.22.74,1.19,1.55,1.26-.38,2,3,1.52,2.37,3.38-.72,2.19,3.49,1.21,2.11,3.63-.11.19.38.82.7,1.15a37.42,37.42,0,0,0,4.63,4.54c1.66,1.2,1.32,4.22,4.13,4.31.25,0,.36,1.16.73,1.61.54.66,1.32,1.65.44,1.95s-1.58,1.24-3.15.7-1.56-1.72-2.38-2.43c-4.07-3.55-8.08-7.27-10.71-12.07-.94-1.72-3.11-2.52-3.38-4.48-.29-2.17-3-2.54-3.11-4.74-.05-.79-1-.62-1.62-.62s-1.12-.05-1.38-.95c-.63-2.21-1.87-4.37-3.87-5.28s0-3.26-2.22-3.89a5.52,5.52,0,0,1-2.8-2.95c-2.05-4.68-6-7.82-9.22-11.46-2.72-3.05-6.86-4.25-10.29-6.4-1.3-.82-1.68,1.26-3.07,1-1.17-.2-1.64-.23-1.54-1.59a3,3,0,0,1,1.11-2.06c.44-.46,1.06-.8,1-1.61s-1.71-1.38-.13-2.21Z"/><path d="M395,358c.37,1-1,1.83-.7,2.83a12,12,0,0,0,1.36,2.43,1.63,1.63,0,0,1,.28.87c-.19,1.27.66,2.79-.42,3.8-1.94,1.8,2.68.45.95,2.19-.89.89.89,1.66.56,2.87a14.22,14.22,0,0,0-.06,4c0,1.27-.34,2.59.92,3.67a1.89,1.89,0,0,1-.29,2.26c-1,.88-.44,1.48,0,2.47.58,1.24-1.28.19-1.49,1a.69.69,0,0,0,0,.35c.24.9,2.4.94,1.16,2.47-1,1.2.42,1.65.6,2.46a16.23,16.23,0,0,1,.06,3.49v1l-1,4.17-.53.72c-1.14-1.18-2.27-2.36-3.41-3.53,1.76-1.11.37-2.06,0-3.22-.67-2.12.92-4.6-.91-6.65a10.55,10.55,0,0,1,.79-1c.43-.59,2.16-1.35-.24-1.58a.92.92,0,0,1-.59-1.5c.51-.68,1.27-1.33.85-2.13-.89-1.71-1.49-3.33-.2-5.08-1.45-1.74-.12-3.95-.85-5.65-.94-2.2-.52-4.46-1-6.59-.4-1.68-.1-3.58-1.39-5.09-.82-1,1-1.68.55-2.88-.35-1-1.43-1.73-1.09-3.07s-.42-2.74-.91-4.1a74.4,74.4,0,0,1-2.95-9.75c-.24-1.13-.84-2-1.08-3.07-.39-1.6.62-3.41-.68-4.9-.72,1.74-.42,3.6-.25,5.34.13,1.36-1.36,1.71-1.2,3.11.15,1.19,1.53,1.7,1.16,3.08a10.38,10.38,0,0,0-.43,4.33c.27,1.45.79,2.78-.23,4.07-.74.93.39,1,.63,1.41a51.85,51.85,0,0,1,5,13.42,19,19,0,0,0,2.11,5.6c.72,1.22,1.05,1.48-.62,1.53-.57,0-.3.57,0,1,1,1.46,0,3.55,1.48,4.87-1.13,1.23-.52,2.62-.52,4,0,.45-.64,1-.35,1.7l.21,5.53c-.2,1.68-.81,3.16-.52,5.06.37,2.36-.53,4.91-1.69,7.19-.33.65,0,1.84-1.27,1.55a2.23,2.23,0,0,1-1.84-2c-.08-1,0-2,0-3s2.15-1.6.58-2.91c-1.23-1,1.56-2.05.2-2.69-1.73-.82,1.21-2-.44-2.55.4-1.22,1-2.23-.18-3.66-.54-.63,1.23-2.39.87-4s.44-3.51-.5-5.3c-.6-1.16,1.39-2.5-.09-4.17-1.05-1.17-.71-3.25-1.29-4.91-.5-1.41-.88-3.12-1.45-4.39-.89-1.95,0-4.78-2.66-5.91.29-2.19-.63-4-1.68-5.81a4.1,4.1,0,0,1,0-2.35c1.33-1.85.38-3.86.69-5.74-2-1,1.55-3.34-1-4.31-.16-.06.18-.83.38-1.28a30.09,30.09,0,0,0,1.78-7.3c.33-2.17.15-4.78,2.12-6.58,1.27-1.16.91-2.71.26-4a2.92,2.92,0,0,1-.55-1.77c.1-.78-.36-1.68.45-2.29a1.21,1.21,0,0,1,.66.56c.3,1,1.58-.34,2.06,1.3.66,2.22,1.13,4.52,1.71,6.74a39.72,39.72,0,0,1,.89,6.58c.29,3.24,1.54,6.14,2.43,9.08.69,2.27,1,4.77,2.38,7,1.23,1.95.89,4.82,2.24,7C395.21,356,395,357,395,358Z"/><path d="M371,402.48c-.71-1.58.71-2.69,1.12-4,.86-2.64,1.7-5.85,1.21-8.6-.19-1.06,1.08-1.35.73-2.45-.29-.9.18-2.05-.12-2.95-.37-1.08,1.36-1.43.62-2.42-1-1.36.69-1.4,1-2.1.17-.35.43-.49.16-.72-1.27-1.11-.72-2.82-1.38-4.12,2-1.48-.67-2.41-.51-3.83.13-1.2-.82-2.34.69-3.46,1-.74.72-1.9-.77-1.8-1.69.11-1.86-.67-1.82-2.05,0-1.08.47-2.31-.66-3.21-.55-.43,1.82-2-.76-1.88-.85,0-.49-1.37-.53-2.14-.08-1.77.33-3.58-1.56-4.89-1.22-.84-.14-1.67.54-2.36-.6-.56-1.17-1.1-1-2.08.44-2.53-.81-5.24.75-7.67-1-1.37-.63-2.95-.76-4.47a5.68,5.68,0,0,1,1.49-4.42c1.66-2,1.7-5,3.52-7,.43-.47.71-1.08,1.16-1.5.68-.63,1.25-1.94,2.36-1.27a1.76,1.76,0,0,1,.2,2.6c-1.47,1.66-.07,5.06-3.42,5.56-.13,0-.37,1.06-.18,1.26.61.65,1.05,1.1.07,1.81a3.08,3.08,0,0,0-1.25,2.49c-.14,1.72,1.53,3.55.91,4.48a5.55,5.55,0,0,0-.66,5.11c.49,1.3,0,2.61.74,3.87s.75,3,1.33,4.42a29.16,29.16,0,0,1,1.66,7.77c.33,2.68,0,2.72,1.51,4.52.2.23.59.52.55.7-.57,2.35,1.22,4.41.93,6.57-.26,2,1.13,3.64.19,5.71s.75,4.44-1,6.62c-.64.81.44,3-.22,3.8-1.25,1.41-.89,2.22.12,3.27-2.38,2.72.67,6.92-2.58,9.42-.8.61-.44,1.55-.38,2.31.1,1.38-.5,1.64-1.73,1.63C371,405,371,405.08,371,402.48Z"/><path d="M414.13,394a3.44,3.44,0,0,1-4-2.85c-.28-2.18-1.71-3.68-2.33-5.6a8,8,0,0,0-1.82-3.24c-.94-.92-.06-2.42-.67-3.36-.7-1.1.14-2.55-1.25-3.59-.56-.41.35-2.14.07-3.56-.6-3.12.23-6.47-1.17-9.55.87-4-1.06-7.48-2.4-11-.37-1-.13-2.18-.66-2.69-2.93-2.83-3.52-7-5.93-10.07s-2.71-7.23-5-10.44c-.31-.45,0-1.31-.05-2a.9.9,0,0,1,.72-1.07,1.16,1.16,0,0,1,.92.14c1.09,1,2.52,1.94,3.05,3.22.31.75,2.21,1.88.38,3.06.08.12.14.32.24.34,1.11.24,2.32.4.76,1.78.65.73,1.69,1.38,1.85,2.21.27,1.35,2.07,1.89,1.91,2.65-.43,2.09,3,1,2.22,3.1-.45,1.27.77,2.35,1.12,3.52.65,2.17,2.19,4.08,3.44,6s.4,2.2,1.62,5.51c1.5,4.1-.69,8.48,1.77,12.25.73,1.14-1.36,2.1-.34,3.3.85,1-.35,2.79,1.35,3.44-1.12,3.6,2.38,6.18,2.11,9.68-.08,1,1,2.33,1.88,3.12s1.2,2.22,1.92,3.27C416.81,392.94,415.81,394.06,414.13,394Z"/><path d="M412.75,349c.8.1,1.93-.36,2.24.57.67,1.95,3.78,2.48,3,5.17-.54,1.87,2.53.67,2.06,2.6-.32,1.28.29,2.34,1.11,3.54,1.11,1.61,3.09,2.88,3.47,4.49a10.08,10.08,0,0,0,3,4.79c.79.85-.78.9-.55,1.39.35.74,1.16.46,1.79.45,1.29,0,1.11.88,1.12,1.68,0,2.31.87.49,1.56.39,1.77-.26,1.47.43.57,1.46-.11.12,1.32,1.12.82,2a5.82,5.82,0,0,1-2.11,2.1c-1.19.64-1.27-1.06-2.09-1.32-2.82-.92-4.39-3.17-5.54-5.63-.77-1.67-2.81-2.23-3.16-4.1a9.28,9.28,0,0,0-2.47-4.49c-1.25-1.4-1.21-3.65-2.87-4.78-.82-.56-.39-1.61-1-2.07-1.2-.83.36-1.27.19-1.77s-1-.85-.85-1.64a2.55,2.55,0,0,0-.81-2.18c-.33-.38,1.35-.91.19-1.75C411.55,349.25,412.5,349.23,412.75,349Z"/><path d="M459.79,357.93c-1.73.56-2.42-.77-3.56-1.83s-3.79-.89-3.26-3.63c-2.66-.14-1.75-2.91-3-4.21s-2.06-2.78-3.25-4.1c-1.64-1.81-2.27-4.9-1.28-5a5,5,0,0,1,4.43,2.27c2.12,2.72,4.81,5.08,6.08,8.36a5.32,5.32,0,0,0,2.8,3.12,4.87,4.87,0,0,1,2.26,1.69c.75,1.06,2.86,1.4,2.68,2C463.21,358.34,461.4,358.12,459.79,357.93Z"/><path d="M477.84,340.66c-.35.35-.7.71-1.06,1a2.07,2.07,0,0,1-.35.22c-1.1-1.92-2,.5-3.2.15-6.25-1.78-12.28-3.86-16.67-9-.72-.85-1.14-1.61.43-2.07,1.27-.37,2.78-2.36,3.31.76.09.48.86,1,1.43,1.23,2.29,1,4.62,1.82,6.46,3.66.88.87,2.2.31,3.32.35,2.66.09,3.9,2.78,6.29,3.34C477.84,340.33,477.83,340.54,477.84,340.66Z"/><path d="M426,385.47c0,2.27-.93,2.5-2.27,2.66-1.6.2.37-2.86-1.88-1.58-1.44.82-.36-1.61-1.39-1.53-2.12.17-1.29-1.38-1.46-2.35-.08-.47,0-1.15-.26-1.37-2.65-2.14-2.44-5.72-4.23-8.25-.63-.9-.15-.78.5-1.1,1.23-.61,2.09,1.8,3.31.28,0-.06.44.17.68.27-1.13,2.31,2.25,2.42,2.17,4.59-.05,1.44,2.1,2.56,2.09,4.59,0,1.07,1.29-1.93,1.78.23C425.35,383.27,426.82,384.36,426,385.47Z"/></svg>