<svg xmlns="http://www.w3.org/2000/svg" width="1080" height="1080" viewBox="0 0 1080 1080"><defs><style>.a{fill:#f0dfd2;}.b{fill:#fff;}.c{fill:#f15a29;}.d{fill:none;}</style></defs><title>Mushroom 9</title><path class="a" d="M557.7,470.73s-10.93,22.38-27.1,38.55c-15.3,15.3-49,41.2-49,41.2s7.8-31,6.95-44.6-4.95-23.25-10.05-29.2c-7.53-8.78-16-1.83-16-1.83l-3-1.27s-5.1,7.65-7.65,20.4a35.75,35.75,0,0,0,.87,17.82A394.92,394.92,0,0,1,434,554.33c-12.93,24.86-33.25,41.5-37.13,87-4.67,54.83,22,85,50.88,109.68,26.91,22.95,53,44.32,53,44.32a335.57,335.57,0,0,0,86.28-20c49-18.84,68-51,68-51s-27.9-8.65-42.35-20.55-29.18-28.63-29.18-28.63,33-27.37,43.23-41.82,26.12-36.87,41-51.8c15.3-15.3,33.87-24.23,45.77-37.83s28.05-34,18.7-41.65S712,505.12,706,508.73c-10.63,6.37-20.4,14.15-29.75,20.95s-14.38,9.46-20.4,13.6c-13.6,9.35-12.7,4.35-12.7,4.35s19.22-31.13,30.7-58.75c9.63-23.19,12.6-34.85,16-55.25,3.1-18.62,2.55-27.2-1.7-31.45-3.85-3.85-8.93-1.28-8.93-1.28s3.83-10.62-3-14.87S662,381.85,651.17,395c-8.07,9.78-8.62,14.88-14.57,22.53s-13.2,17.85-19.15,24.65-17.55,23.1-17.55,23.1,0-21-9.5-28.5c-12.33-9.78-27.9-4.25-45.75,0s-26.5,8.8-26.5,8.8-14.45-1.15-21.25,2.25c-7.21,3.6-10.78,5-11,10.2-.43,8.07,5.1,8.35,5.1,8.35s6.06,6.23,22.1,8.1C531.32,476.55,552.17,472,557.7,470.73Z"/><path class="b" d="M459.5,473.58c-2.28-1.14-3.83,6.37-6.8,15.72-2.57,8.07-3.83,21.25-1.28,21.68,4.13.69,12.93-7.66,13.18-14.45C465,485.05,461.2,474.43,459.5,473.58Z"/><path class="b" d="M517.72,449.35c0,10.84-2.55,13.6-14,15.73-7.93,1.47-15.43,2.82-15.85-6.1-.17-3.5-1.17-6.72,9-9.2C512.62,446,517.72,444.25,517.72,449.35Z"/><path class="c" d="M450.15,412.38,447,418s11.05,24.65,17,34,10.78,21.18,18.47,31.35c13.18,17.43,22.1,22.53,35.28,37C529.29,533,535.18,536.32,539,541c2.41,2.94,6.08,4.43,9,2,6-5,4.47-10.86-1-16-3.92-3.68-15.51-13.33-22-22-10.63-14-35.7-36.55-43.35-48.45S460.35,419.18,450.15,412.38Z"/><path class="a" d="M396,317c-22.95,10.2-22.58,34.89-21,57,1.55,21.67,2.32,41.9,4,52,2,12-1.3,26.54,3,29,7,4,23-11,32-13,9.46-2.1,14.35-6.75,22-11s14.88-1.51,21-5c5.95-3.4,8.11-8.37,16-14,5.95-4.25,4.47-7.62,10-9,6.8-1.7,9.35,3.1,17-2s7-7,8-13c1-5.75-5-6-8-11-23-16-40.85-35.3-58-50C428,315,407.12,312.06,396,317Z"/><polygon class="c" points="434.38 432 439 440 444 438 449 441 454 437 464 432 466 427 472 425 467 416.88 434.38 432"/><path class="d" d="M649.2,529.41c.15-1.12,1.38-2.06,2-3.15a21,21,0,0,0,2.08-4.12c.48-1.55,2.33-1.85,2.69-3.3.81-3.24,2.7-5.89,4.28-8.74,1.34-2.41,2.82-4.76,4-7.35s1.81-5.57,3.46-8.09a8.18,8.18,0,0,0,1.51-3.91c.05-.84,2.06-1.39,2.44-2.84s.5-3.42,1.49-4.3c1.3-1.15-.07-3.91,2.66-4,.23,0-.28-.63-.75-.63s-1.16-.23-.78-.65c1-1.09,1.33-2.5,2.29-3.63.53-.61-1.23-2.28-.12-3.67a21.8,21.8,0,0,0,1.09-2,4.33,4.33,0,0,0,.66-4c-.45-1.47,3-2.55,2.5-3.55-.81-1.69-.08-1.32.89-1.54a.89.89,0,0,0,.42-1.24c-1.63-1.45-.2-3,.48-3.44,2.82-1.77.48-5,2.34-6.94-2.17-2.26.08-3.37,1.16-4.88.31-.42-.06-1.35.89-1.4.49,0,1.2-.28,1-.56s-1.07-.52-1.64-.75a5.64,5.64,0,0,1,.31-.71,4.48,4.48,0,0,0,.27-3.7,31.35,31.35,0,0,1,0-4.54c.42-1.49,1.25-3,1.17-4.47-.21-3.57,2.53-7.11.12-10.7a1.42,1.42,0,0,1,.27-1.33c.92-.87.94-1.55,0-2.47s-.45-1.95-.28-2.83c.64-3.36-1.38-5.34-3.72-6.85-1-.65-2.37-1.59-4.2-.22-2.28,1.7-5.89,1.18-7.71,4l-.68-.68c-1.54,1.46-3,2.95-4.56,4.44,2.33,2.81-1.1,3-2.06,4.26-.26.35-1.26.28-1.11,1.15.42,2.43-1.4,4.1-2,6.17l-2,5.84c0,.49-.14,1.25.1,1.43,1.39,1,.32,1.5-.28,2.17-.32.35-.75.75-.78,1.16a20.34,20.34,0,0,0,0,3.49,4.89,4.89,0,0,1-1.42,3.38c-1.18,1.4,1.41,1.83.4,2.88-1.57,1.61-.65,3.89-1.73,5.8-1.57,2.78-2.19,6-3.83,8.92-1,1.75-2.26,3.87-2.33,6-.08,2.57-1.62,4.38-2.53,6.49a9.51,9.51,0,0,1-2.11,3.06c-1.05.94.75,3.16-2,3.34-1.08.07-.24,2.36-.52,3.61a2.94,2.94,0,0,1-.56,1.26c-2.21,2.51-3.22,5.65-4.58,8.6-3.57.93-2.3,6-5.85,6.9,1.13,2.32-2.74,2.45-2,4.59-1.71,1.34-1.66,4.06-4.15,5a3.44,3.44,0,0,0-1.81,3.46c.25,2.7-2.68.48-3,2.09a1.15,1.15,0,0,0,0,.49c.34,1.42-.75,2.07-1.53,2.87-1.49,1.56-3.64,2.85-4.33,4.7-1.15,3-3.88,2.21-5.8,3.23-.89.48-1.35-.3-1.39-1.35a2.39,2.39,0,0,1,1-2.08c1.09-.92,1.32-2.64,2.88-3.13-1.32-1.18-.73-1.58.64-1.32,1.94.37,1.85.46,1.52-1.66-.11-.73-.47-1.79.41-2.25.39-.21,1.42,1.89,1.58-.41.09-1.23,1.75-.46,2.24-1.47.76-1.59,2.25-2.81,3-4.27s2.38-1.72,2.75-3.26,3.55-2.15,1-4.26c.67-.7,1.67-.72,2.47-1.34,1.14-.88-1.28-2,.08-2,2.49-.09.74-2.25,1.71-2.82s2.27-.94,3.38-1.46c.57-.27.41-.91.31-1.35-.21-1,1-1.5.85-2s-1.29-1.22-.65-2.06c.81-1,2.62-1.93,2.6-2.84,0-1.06,1.81-1.41.61-2.87-.72-.88,1.38-1.59,1.77-2.92.45-1.56,2.41-2.54,1.92-4.73-.23-1,.93-1.51,1.76-2,1.39-.88,2-2.47,2.95-3.7-1.84-1.07.8-1.6.32-2.8-.6-1.46,1.11-2.26,2-3,1.39-1.15.37-3.08,1.64-4.16a1.59,1.59,0,0,1,.59-3c1.82-.35,1-1.37,1.1-2.25.53-4.21,2.35-8.18,2.48-12.45,0-1.49,1.8-2.45,1-4.08,2.17-.89.31-2.33.41-3.48.11-1.43,2.58-2.22,1.29-3.71s1.3-2.31.38-3.87,1.46-3.12,1-5c-.09-.41.78-.47,1.26-.41s1.36,2.16,1.67-.26c.12-.95,1.54-1.47.44-2.91-.89-1.15,1.32-1.43,1.48-2.44s-.29-2.24.19-2.91c.67-.95,1.38,1.21,2.3.48.61-.48,1.57-1.35,1.45-1.8-.79-2.87,1.64-3.84,3.18-4.53s1.77-2,2.67-2.94c1.16-1.19,1-.3,1.28.57.32,1.07.86.77.93-.13.1-1.21.73-1.25,1.64-1,.54.13,3.57-2,3.35-2.17-1.56-1.31.3-2.49,0-3.72,0-2-1.88-4.15-4.08-4.83-1.92-.59-4.15-.17-5.78-1.73-1.35-1.3-1,.1-1.16.72s-.61.65-1.15.64c-2.54-.06-4.88.32-6.22,2.88-3.4,0-4.49,3.25-6.49,5-1.8,1.6-2.54,4.43-4.6,6s-1.75,4.75-4.51,5.58a35.94,35.94,0,0,1-7.41,10.42c-.23.22-.61.54-.57.74.49,2.31-1.55,3.08-2.61,4.44s-2.31,2.43-2.73,3.85c-.51,1.75-2.46,2-3,3.69a16.9,16.9,0,0,1-.76,2.66c-.37.7-1.86.85-2.15,1.54-1.82,4.32-6.47,6.11-8.65,10.31s-6.6,7.27-8.12,12.14c-2.09.94-2.43,3.8-4.42,4.48-1.52.51-1.62,1.16-1.59,2.36.06,2.28-.23,4.35-2.82,5.28-.51.18-.74,1-1.18,1.47-2.09,2.19-3,5.11-4.73,7.57-.71,1-1.51,2-2.21,3.06-.51.77.76,2.18-1.29,2.62-1.52.33-.11,2.58-.88,3.34s-.65,2.14-1.66,2.88a9.22,9.22,0,0,0-2.77,2.83c-.55,1.06-1.7,2-1.43,3.39.47,2.46-1.65-.18-2.09,1.15-1,3.18-3.24,5.71-5.27,8.35-.82,1.07-2.49,1.7-2.53,2.77a4.53,4.53,0,0,1-2.16,3.63c-1.35,1-1.9,2.57-2.74,3.9-.73,1.13,0,3.37,1,3.26,2.69-.28,4.28,1.87,6.56,2.43,3.29.81,6.74,1.53,9.67,3.12,2.48,1.34,4.8,2.87,7.61,3.39,3.27.61,5.52,3.52,8.88,3.89,1.36,1.84,4.13,1.22,5.34,2.64a8.27,8.27,0,0,0,6.28,2.91c.47,0,.93-.06,1.34.39,1,1.1,2.38,2,3.1,3.23,1,1.76,3.09.78,4.2,2.07,2.56,3,6.23,4.73,8.8,7.75,2,2.32,1.8,1.88,4.13-.61a17.37,17.37,0,0,0,2.48-4,9.57,9.57,0,0,1,.73-1.69c3.69-4.32,4.41-5.45,5.62-9.58.18-.59-.13-1.35.72-1.6C648,533.33,648.9,531.75,649.2,529.41ZM650.49,478c.4-.28.73-.95,1.09-.94,1.43,0,3-.51,4.29.38.76.52,1.37.93,2,.08.08-.1-.77-1.27-1.22-1.29-1.34-.05-2-1.48-3.51-1.28-1.8.24-1.25-1.85-2.06-2.72-.58-.63.55-1.39,1.14-1.89a2.82,2.82,0,0,1,1.34-.32c1.42-.2,1.78,1.37,2.77,1.72.79.27,1.56-1.55,2.76-.2s2.23,2.48,4.4,2.65c1.65.13,1.6,3,3.16,4,.81.54.16,1.55.33,2.16,0,.81.14,1.63-.78,1.6s-2.1.64-2.22-1a2.63,2.63,0,0,0-.38-.82c-.2.18-.53.34-.57.56-.09.48.08,1,0,1.48-.28.95.87,2.28-.89,2.89-2.43.83-3,.81-4.34-.78-1.86-2.18-1.86-2.17-4-2.25-.81,0-1.78.17-2.38-.21s-2.16-.78-.69-2.05C651.4,479.16,649.38,478.77,650.49,478ZM629,471.06c0,.61-.32.78-.83,1a26.09,26.09,0,0,0-4.26,1.65c-.78.43-.88-.1-.88-.4,0-1.16-1.23-1-1.41-1.34-.65-1.13-2.41-.41-2.74-2.24-.37-2-1.77.39-2.88-.1-2.14-.95-2.76-2.21-1.27-3.76,1-1,1.78-2.93,3.86-.94.69.66,2.7-.29,3.82.19,2.69,1.14,4.66,3.33,6.58,5.5C629.07,470.67,629,470.9,629,471.06ZM614.4,457.9c1-1.4,2.53.34,3.76-.83s2.64,2.38,4.18.13a1.79,1.79,0,0,1,.67.33,20.78,20.78,0,0,0,6.84,3.92c1.75.57,2,2.81,3.19,4.08.67.72,1.46,1.27.55,2.44a2.43,2.43,0,0,1-3,.95c-1.5-.82-3.51-1.38-4.14-3.1-.79-2.17-2-3.18-4.28-2.83-.8.12-1.14-.31-1.16-1.13,0-.35-.09-1.14-.76-.54a2.45,2.45,0,0,1-1.72.72,9.13,9.13,0,0,1-3.17-1c-1.28-.53-2.3-1-2.35-2.56S613.33,456.68,614.4,457.9Z"/><path class="d" d="M516.39,448a15.24,15.24,0,0,0-3.07-1.79c-.51,1.85-1.76-1-2.51.45s-1.68-.93-3.15,0c-3.13,1.94-7.43.85-10.53,3.38-2.6-1.28-3,2.2-4.93,2.3-.09,1.4-.82,2-2.2,1.7a.76.76,0,0,0-1,.79c0,1.16-1.37,1.73-1.06,3.08.37,1.65,2.52,2.12,2.4,4,2.17-1.6,1.52.29,1.66,1.31.05.33.06,1.14.8.5,1.91-1.64,5.14,2.43,6.52-1.51l.68.37c.53.57,1.32.8,1.68.2,1.31-2.15,3.36-1.85,5.29-1.69a4.92,4.92,0,0,0,3.82-1.52c2.33-2.3,5.86-4,5.36-8.19C517.36,450.28,517.49,449,516.39,448Z"/><path class="d" d="M525.33,529.33,518.18,521a1.12,1.12,0,0,0-.88.22c-.52.61.27.73.5,1,.51.68,1.63,1,.34,2.18a16.55,16.55,0,0,0-3.24,3.61c-.85,1.38-2.57,2.19-3.8,3.37-1.53,1.48-3.57,2.47-4.55,4.52-1.42-.2-1.84,1.18-2.78,1.74a12.21,12.21,0,0,0-2.44,1.39,7.54,7.54,0,0,0-1.71,2.82c-.63,1.52-2.33,0-2.38.48-.19,1.66-1.51,1.2-2.26,1.74-1.28.92-3.59.31-3.81,1.4-.42,2.1-2.56,1.61-3.37,3-.67,1.2-2.68-.26-3.57.8s.33,2.24.5,3.38c0,.19-.53.42-.65.7-.95,2.12-2.22,4-2.61,6.45-.27,1.74-2,3.22-2.4,5-1,4.28-3.77,7.81-4.94,11.94-.47,1.64-1.74,1.36-2.47,1.8-1.06.64-.36-1.33-1.28-1.83s-.31-1.38.34-2,1.59-1.25,1.28-2.46c-.82-3.23,2.83-5.43,2-8.68,0-.15.39-.58.63-.61,3.23-.35,2.65-3.4,3.19-5.18,1.24-4,1.43-8.31,3-12.26.22-.54-1.34-1.13-.54-1.29,1.89-.38,1.92-1.62,1.58-2.81s1.44-1.47.61-2.4a2.35,2.35,0,0,1-.35-2.71c.91-2.06,2.34-4,.81-6.34,1.09-1.35,1.09-2.95,1-4.57,2.09-.88-1.6-2.87.77-4,.52-.24-.06-2.83.47-3.1,1.74-.84-1.22-1.82.36-2.7.93-.53.47-2.19.31-3.27-.33-2.25,1.51-4.38.15-6.73-.3-.53,1.6-1.46.36-2.83-1.61-1.77-1.6-4.09-1.47-6.37a54.3,54.3,0,0,0-1.75-6.77c-.7-.71-2-1.47-2-2.11a3.37,3.37,0,0,0-.15-2.19c-.74-1.69-1.31-3.31-3.12-4.11.51-2.38-1.24-3-2.89-3.72.12-2.92-3.33-.59-3.83-2.61-1.74-.08-3.53.35-5.12-.95-.55-.45-1.09.48-1.59.86-.88.68,0,.95.25,1.44a10.53,10.53,0,0,1,1.23,5.51c-.07,1.06-.57,2.3.54,3.26.84.73.35,1.35-.23,2.06a2,2,0,0,0,0,2.67c.47.54.91,1.14.51,1.71-2.13,3-.54,7.4-3.86,9.9l.28.36a2.16,2.16,0,0,1-.79,3c-2,.48-2.59,1.6-2.57,3.49,0,.83-1.06,1-1.48.61-1.05-.95-1.15-1.07-1.63.51-.3,1-.63,2.81-2.58,2.92-.52,0-1.12.93-1.32,1.88-1.13,5.3-2.46,10.57-5,15.42-1.64,3.15-2.18,6.73-4.55,9.66-1.68,2.07-2.35,5-3.41,7.54-1.37,3.27-4,6-4.16,9.79,0,.24-.41.52-.68.7-2.45,1.61-3.17,4.26-4.2,6.76a10.48,10.48,0,0,1-2.85,4.33c-.46.39-1.42.87-1.07,1.5,1.4,2.55-2.29,2.68-2.06,4.6-2.76,2.51-3.89,6.23-6.63,8.81-.8.76-2,2.11-2.08,3-.17,4-4.1,6.22-4.56,10.21-.2,1.75-2.11,3.75-3.77,4.79-2,1.26.66,4.7-2.69,4.94a3.4,3.4,0,0,0-.15,1.3,30.29,30.29,0,0,1-.34,5.11,12.51,12.51,0,0,0-2.11,5.13c-2.78,0-.77,1.54-.62,2.3.32,1.58-1.56,2.43-1.09,4.11.55,1.94-.4,3.73-1.17,5.48-.16.36-1.13.68-.47,1,2.11,1-1.08,2.55.45,3.52-.91,1.16,0,2.56-.18,3.43-.69,2.75-1.19,5.21.35,7.85a3.13,3.13,0,0,1,0,2.89c-1.1,1.22.12,2.64-.84,3.88s2.43,2.71,0,4.14c1.82,1.06.23,3.16,1.33,4.4.48.53,1,1.28.51,1.67-1.47,1.22-.65,2.78-.88,4.05,0,2,.66,3.93.81,5.71.43,5.14,3,9.51,4.37,14.27.61,2.06,2,4,1.78,6.23-.16,2,1,3.59,1.52,5.36s2.65,2.35,2.42,4c-.31,2.24,1.13,3.24,2.27,4.62a6.64,6.64,0,0,1,1.85,4.73c0,.49-.07,1.8.58,1.27,1.74-1.41,2.15.4,2.31,1,.69,2.7,2.76,4.27,4.46,6.17a69.12,69.12,0,0,1,6.52,7.82,8.85,8.85,0,0,0,3.2,3.31c1.58.85,1.47,2.94,2.62,4.16a5.31,5.31,0,0,0,1.16.8,11.91,11.91,0,0,1,4.15,3.4,53.15,53.15,0,0,0,4.56,4.57c.27.25,1.15-.14,1.28.43.52,2.29,2.42,3.29,4,4.62s2.6,2.61,4.62,3.17A3.81,3.81,0,0,1,457,755c.11.61-.34,1.42.39,1.81.54.29.78-1.25,1.37-.53,1.91,2.28,4.67,3.46,6.76,5.55s4.94,3,5.88,6c1.93-.62,1.11,2.72,3,2.1,1.53,2.65,5.23,2.58,6.75,5.48a6.32,6.32,0,0,0,2.33,2.3c1.67.55,1.86,2.18,2.81,2.8,1.5,1,2.91,1.79,3.69,3.5.68,1.5,3.31,1.33,3.16,3.6,1.9.39,2.94,1.94,4.17,3.19,2.29,2.32,2.59,2.44,5.71,2.15.61,0,1.31-.28,1.84.37.88,1.07,1.52.42,2.45-.13s3.07.14,3-2.13c1.51-.6,3.29.58,4.71-.7,1-.89,1.55,1.52,2.81.27s2.74-.71,4.43-.11c1.32.47,2-2.16,3.59-2.59.59-.16.89.31,1.23.65.58.55,1.27.64,1.69,0,1.34-2.08,3.42-1.69,5.34-1.6a14.42,14.42,0,0,0,5.9-.67c.66-.26,1.1-.51,1.74-.08.29.19.46,1.16,1,.35.34-.48,0-1.34.76-1.62s1.87,1,1.94.82c1-1.86,3.22-1.42,4.52-2.48s2.12-2.13,3.59-.38c.19.23,1.25.09,1.23-.4-.1-1.93,1.21-1.54,2.31-1.57,1.77,0,3.72.48,4.86-1.55.29-.5.82-.48,1.31-.45,1.37.11,2.69.09,3.45-1.32.68-1.25,2.3,1.06,2.88-.81a1.32,1.32,0,0,1,1.6-.86c2.19.62,4-.91,6.07-1.13.81-.09,1.23-.44,2.25,0s3.35,1,3.66-1.58c0-.13.59-.31.85-.25,2.19.52,3.9-1.66,6.09-1,1.63-2,3.83-2.14,6.18-2.07.46,0,1-.78,1.43-1.27s0-1.4.73-1.57c.28-.06.7.52,1.05.81.23-.57.39-1.57.72-1.64,3.51-.68,5.93-3,8.29-5.37a2.45,2.45,0,0,1,1.62-.93c1.08-.11,2.56.89,2.95-1.46.18-1.1,2.89,0,3.63-1.78.28-.66,1.27-1.11,1.62-.67,1,1.19,1.51.68,2.19-.16s1.67-1.19,1.41-2.42c1.75.33,2-2.58,2.67-2.05,2,1.45,2,.19,2.57-1.1.39-.85,1.37-2.06,2.06-2.05,3.24.08,3.75-2.32,4.69-4.49A2.51,2.51,0,0,1,636.1,742c.94-.09,1.4-.9,1.86-1.51,3.24-4.32,3.22-4.33,7.68-6.64a1.7,1.7,0,0,0,.36-.35c-2.17-2,.86-2.09,1.25-3.15.31-.83,1.53-.11,2.27-.39,1.3-.5-1.57-1.62.2-1.9,1.11-.18,1.06-.72,1.38-1.53s1.41-.95-.44-1.65A112.26,112.26,0,0,0,638.78,721c-1.93-.5-3.76-1.76-5.68-1.85-2.18-.11-2.64-3.06-4.94-2.46-1-2.46-4.82-2.1-5.3-5.23-.12-.77-.71,0-1,.22-.86.77-1.38.21-2.09-.33-3.28-2.48-6.79-4.7-9.91-7.37-2.94-2.52-6.35-4.5-8.87-7.52-.28-.34-4.6-4.68-4.88-4.8a6.23,6.23,0,0,1-3.86-3.82c-.66-2-1.63-3.93-4.3-3.83a1.82,1.82,0,0,1-.81-.35c.86-2.27-2.17-2.5-2.28-4.54s-1.42-2.42-2.57-.77c-1.29,1.82-4.06,2-4.6,4.48-2.37-.45-3.08,2.39-5.41,2.58a10.11,10.11,0,0,0-5.29,2.7,19,19,0,0,1-5,3.45c.27,1.57-.77,1.51-1.82,1.48-.83,0-1.67,0-2.5,0-.63,0-1.5.18-1.63-.62s-.37-1.63.37-2.32,1.65-1.65,2.49-2.46,1.44-2.07,2.82-.83c2-2.63,6.17-2.69,7.33-6.3.17-.53,1-.69,1.24-.44,1.14,1.3,1.78.46,2.58-.38s1.92-1.78,2.89-2.65c2-1.79,5.2-1.93,6.46-4.73,3.08-.62,4-4.76,7.59-4.66.38,0,1-.9,1.13-1.45a2.47,2.47,0,0,1,1.78-2.1c1.49-.37,2-1.23,2.41-2.6a4.09,4.09,0,0,1,2.06-2.1c3.9-1.78,6.26-5.42,9.64-7.84,1.65-1.18,3.42-2.59,4.15-4.72.18-.51.37-.92,1-.8,1.39.27,1.61-.67,2.31-1.63,1.61-2.19,2.82-4.85,5.25-6.29.67-.4,1.1-1,1.53-1.25,2.06-1.3,2.73-3.76,4.67-5.07,1.25-.85,2.81-1.46,2.26-3.49a1.07,1.07,0,0,1,.51-1.26c.7-.41,2.66.38,2.09-.63-.86-1.53.34-1.61.75-2.2.72-1,.83-3.08,2.09-3,2.76.13-.06-1.92,1.37-2.78,1.76-1.06,2.57-3.6,4.34-5.07.28-.24,1.06-.61.57-1-1.09-.88.15-1.25.18-1.81a2.44,2.44,0,0,1,1.17-2c.93-.6.71-1.76,1.4-2.44s1.44-1.38,2.11-2.13,1.77-1.16,1.41-2.4,3,.58,1.33-1.84c-.63-.92,1.48-.3,1.93-1.31a2.43,2.43,0,0,1,2.35-1.48c.12,0,.34-.51.38-.8.17-1.31,1.28-1.93,2.13-2.59,1.14-.89.67-2.09,1-3.11s2.18,1.95,1.85-.73c2-1.51,2.46-4,3.74-6,.88-1.34,2.78-1.21,3.34-3,.51-1.62,2.82-2.19,3-4.23,0-.46.41-.44.69-.11,1.49,1.76,2.12-.11,3.13-.7,2.24-1.32,3.45-3.82,5.86-5a2.45,2.45,0,0,0,1.15-1.48c.17-.74.31-1.17,1.16-1.18,2.26,0,3.86-1.35,5.29-2.9a6,6,0,0,1,3.65-2,3.65,3.65,0,0,0,3.17-2,8.37,8.37,0,0,1,4.34-3.93c1.86-.71,1.35-3,3.08-3.24s2.67-2.18,4.43-2.6a1,1,0,0,0,.68-.68c.23-1.84,1.73-2.72,2.89-3.79s1.89-2.6,3.3-3.69c1.26-1,2.93-2.67,3-4.61.07-2.47,1-1,1.83-.67.64.22,1.16-.08,1.27-1,.24-2.06.69-4.13,3-4.92a2,2,0,0,0,1-.81c.89-1.1.21-3.43,2.59-3.35.52-1.34.36-3.14,2.38-3.43,1.35-3.94,4.34-6.86,6.31-10.4.87-1.54,2.07-3.37,1.63-5.27-.63-2.68-3.45-4.09-4.36-6.68,0-.08-.3-.1-.45-.09-2.63.14-5.45-.71-7.84.36s-5.19,1.17-6.74,2.85c-1.87,2-4.35,2.62-6.43,4-4.23,2.87-8.86,5.17-12.13,9.27-.36.44-.94.3-1.29.52-2,1.28-3.17,3.72-5.67,4.43-.67,3.18-3.52,3.8-5.9,4.85s-3.78,3.32-6.13,4.32c-1.26,3.36-4.86,3.59-7.36,5.22-1,.67-3,1-3.62,1.84-1.19,1.59-3.09.76-4.27,2-2.76,2.9-7.06,3.63-9.68,6.75-.66.78-1.51.61-2.28.52-1.67-.2-2,.64-1.8,2a.85.85,0,0,1-1.24,1c-1.14-1-1.64-.18-2.62.28-1.84.84-2.9,3-5.36,2.84-1-.08-1,.72,0,.9.74.13.91.44,1.26,1.09.88,1.66,1.8,4,3.25,4.5,2.59.88,2.6,3.55,4.45,4.75.88.58-.7,2.43,1.22,2.7,1.57.21.93,2.3,2.27,2.76.14.05.23.23.35.34.73.64,0,.84-.36.86-1,.07-2.19.82-2.6.74-1.74-.34-3.74-.22-5.16-1.7-1-1-.21-2.23-.51-3.3-.44-1.58-2.21,0-2.89-1.13a.72.72,0,0,1-.08-.46c.37-1.81-1-2.64-2-3.64-2.13-2.08-4.15-4.29-6.16-6.45a21.43,21.43,0,0,0-4.86-4c-1.35-.8-2.39-2-3.87-2.68-1.29-.61-2.12-2.28-3-3.56-.28-.4-.4-.73-1-.84-3.06-.62-3.3-.54-4-2s-3.7-.31-3.47-2.88c-.12.06-.28.09-.35.18-.43.57-1.31,1.13-1.64.68-1.18-1.57-2.91-1.81-4.53-2.44-.85-.33-1.2-1.38-2.35-1.61-.83-.16-1.48-1.22-2.2-1.88-1.17,1.62-1.84.22-2.45-.5-.8-.94-2.18,0-2.69-.72-2.73-3.88-8.66-1.51-11.14-5.79,0-.07-.32,0-.48,0-.81-.06-1.94.19-2.36-.24-.74-.76-1.84-.55-2.5-1.33s-1.3-.19-2.07.15c-1.47.63-.37-1.72-1.41-1.55-2.45.41-4.14-1.45-6.1-2.21a22.93,22.93,0,0,1-7.63-4.56,2.24,2.24,0,0,1-.59-2.66c.48-.72,2.22-1.53,2.57-1.25,1.71,1.4,1.67.26,2.59-.93,3-3.9,6.47-7.49,8.7-11.94,1-2,3.17-2.9,3.95-4.77.86-2.06,2.47-3.55,3.57-5.41,1.89-3.21,3.45-6.63,5.55-9.71.89-1.31,1.3-3,2.75-3.87-1.11-3,1.64-4.1,2.89-6,.6-.91.93-2.67,1.82-2.61,2.69.18.37-1.55,1-2.33,2.27-2.7,2.5-5.5,1.59-9.22-.16-.62,0-1.31-.11-2-.21-1.23,1.51-2.34,0-3.71-1-1-1.56-2.24-.25-3.62.2-.2-6-9.27-6.67-9.64-2.7-1.53-5.67-2.49-8.17-4.51-.83-.67-2.71-.31-4-1.1s-2.33,1.46-3.59.12a1.57,1.57,0,0,1-2.46.35c-1.4-.92-3.16-1.08-4.34.51-.88,1.18-1.5.08-2.19.12-1.46.09-3.23-2-4.45.44-.37.73-1.19.33-1.81.43-1.08.18-2.24-.41-3.26.61-1.17,1.16-3.33-.48-4.39,1.34-2-2.63-2.75.73-4.18.83-4,.26-4,.25-6.17,1.65-.41.25-.71.68-1.27.57-3.49-.66-6.42,1.47-9.67,1.94-.93.13-1.25.91-2.07,1.12s-.88-1.23-2-.76c-1.48.64-1.77,4.41-4.54,1.83,0,0-.54.32-.55.51a18.66,18.66,0,0,1-.06,2.49c-.35,1.58,1.81,2.54,1,4.08-.73,1.38-1.75,2.61-2.6,3.93-2.47,3.81-4.93,7.6-10.16,7.88a2.22,2.22,0,0,0-1.25.55c-.87.76-1.67,1.59-2.49,2.4-.92-1.85-1.76.29-2.69.07-.46-.1-.81.34-.8,1s.32,1,.82,1a2.9,2.9,0,0,1,3,1.31c.81,1.21,1.23.1,1.78-.24.51,1.77,1.74-.39,2.49.46.92,1.05,2.21.53,3.28.44,1.4-.11,2.12,1.35,3.6,1.12a31.9,31.9,0,0,1,5-.06c1.5,0,3,0,4.49,0s3.15-.66,4.42-.47,2.8-1.58,3.86.29c2-1.78,4.76.13,6.57-1,2.28-1.36,4.47-.52,6.67-.86.48-.07,1.12.19,1.47,0,2.6-1.71,6-1,8.45-2.49s6.38-.79,7.61-4.42c2.68.05,4.61-1.68,6.82-2.8.89-.44,2.19-.69,2.6.24s.66,2.91-.21,3.18c-2.45.76-3.32,3.49-5.83,4.08-1.15.27-2.72-.32-3.29.36-1.63,2-4.1,2.37-6,3.78s-1.78,4.73-4.51,5.57c.11,2-.56,4.34-2.18,5-3,1.17-1.26,3.54-2,5.2a.61.61,0,0,1-.35.34c-2.41.56-2.35,4-5.17,4.29-.76.07-2.15,1.7-2,2,1.06,2.06-.82,2.59-1.68,3.57a6.67,6.67,0,0,1-3.44,2.52c-2,.49-.5,2.8-1.77,3.75-.39.3-.7.71-1.07,1.05a37.86,37.86,0,0,0-4.25,5.5l6.23,5.69Zm-21.5,82.92a50.39,50.39,0,0,1-2.22,5.54c-.68,1.76-1.86,3.29-1.65,5.33,0,.36-.8.91-.7,1.15.77,1.81-3.36,2.07-1.29,4.2-1.08,1.16-1.64,2.66-2.67,3.9a6.67,6.67,0,0,0-1.5,4.33c-1.93-.08-1.71,2-2.76,2.78-.08.07,0,.34-.05.47-1.1,2-3.06,3.11-4.7,4.56-1.34,1.19-1.55,3.87-3.36,5s-2.7,2.84-3.9,4.35c-1.91,2.43-3,2.55-5.1.7-1.18-1,0-1.52,0-2.23-.06-2.27,2.36-2,3.23-3.58,1.55-2.77,4.54-4.55,6.21-7.43.36-.63,2.35-.29.76-1.9-.2-.21,1.79,0,2-1.5.13-.94,1.42-1.7,2.09-2.6a17.12,17.12,0,0,0,1.42-2.41c1.3-2.62,3.33-4.87,3.49-8.08,0-1,2.61-1,1.94-3.11-.36-1.11,3.13-1.34,1-3.22,1.59-.67.72-2.32,1.33-3.45s1.54-2.28,1.71-3.8a9.39,9.39,0,0,1,1.56-3.32c.62-1-1.74-1.72-.25-2.78,1-.73.63-1.82.57-2.74-.07-1.16,1-2.68.77-2.92-1-1.17-1-2,.18-2.87.41-.31-.41-2.09,1-1,.68.5,2.19-.08,2.09,1.5-.06,1,0,2,0,3.12-.33,1.26.68,2.85-.71,4.1a1.37,1.37,0,0,0-.17,1.28C506.61,607.87,504.32,610.19,503.83,612.25ZM685.73,536a3.41,3.41,0,0,1,2.66.81,22,22,0,0,1,5.47,8.65c.37,1.07.68,2.57-.48,3.66-.46.44-.84,1-1.61.88s-.74-.87-.78-1.51c-.07-.93.33-1.9-.66-2.71a6,6,0,0,1-2.6-4.4c-.06-.82-.89.8-1.22.53s-.47-1.1-.75-1.63c-.43-.82-1-1.59-1.38-2.41C683.62,536.35,683.91,536,685.73,536ZM678,538.74c.19-1.24,1.31-.52,1.67-.67a2.73,2.73,0,0,1,2.87,1c2.14,2.35,4.26,4.5,4.61,8.08.15,1.51,1.82,3.1,2.42,4.9.21.62.64,1.53.12,1.62-1,.15-1.73,1.67-2.66.77-.46-.45-3.44.05-1.17-2-.58-.58-1.15-1.19-1.76-1.75s-1.55-1.23-.21-2.15a1,1,0,0,0-.23-1.3c-2.26-1.63-2.34-5-5.18-6.24C677.61,540.58,677.93,539.48,678,538.74Z"/><path class="d" d="M453.74,502.79c-.28.51.48,1.12,1,1.49,1.46,1.08,2,1.18,2.38-1a7.28,7.28,0,0,1,3.07-5.27c.43-.27.84-.37.84-1a25.12,25.12,0,0,0-.06-4c-.27-1.59,1.17-2.53,1.17-4.08,0-1.13-1.47-2.2-.65-2.82,1.64-1.26-.89-2.3.07-3.18,1.64-1.5-.91-2.1-.6-3.41a15.49,15.49,0,0,0,0-4c0-.18-.37-.35-.57-.52-.26.26-.59.45-.71.73-1.25,3-2.61,5.91-3.58,9-.2.65-1.8,1.29-.51,2.28.9.69-1.4,1.38.08,2.18.58.32-1.29,1.43.15,2.06-.59.7-1.2,1.4-1.74,2.14,0,.06.35.45.56.68.55.57.64,1.28,0,1.67-2.32,1.4-1.16,3.46-1,5.25C453.72,501.65,454.12,502.13,453.74,502.79Z"/><path d="M737.55,510c-.55-.84-1.43-2.46-1.21-2.65,2.12-1.89,0-3.51-.51-4.81-.69-1.65-2.77-2.61-3.4-4.54-2.49.17-4.82-2.31-7.38-.51-.59.41-1.06.68-1.72.34l-3.92.17c-1.58.33-4,.16-4.58,1.11-1.07,1.67-2.66,1.76-4,2.52-.72.4-1.61-.78-2.51.46-3,4.14-8.3,5.62-11.5,9.59-2.52-.48-2.83,2-4.1,3.13-.74.67-1.35,1.47-2.52,1.2a1.33,1.33,0,0,0-1.56.92c-.44,2-2.28,2.68-3.6,3.32-1.54.74-2,2.35-3.65,3-1.85.77-3.2,2.65-5,3.66s-2.76,3.15-5.07,3.23c.11,3-3.63.91-4.12,3.12-3.34,2-6.77,3.86-10,6.09-1.07.75-1.89-.26-3.06.41s-1.8,2.29-3.55,2.32c-.73,0-1.37,1.35-2.2,1.84a.9.9,0,0,1-1.42-.76c0-.75-.42-2.05.58-2.1,1.63-.09,1.35-1,1.4-2,0-.63.06-1.75.29-1.8,1.3-.31,2-.86,1.7-2.28-.36-1.68,1.62-.71,2.19-2,.78-1.78,1.85-3.6,2.59-5.43s2.69-2.49,3.38-4.52c.82-2.44,2-4.86,2.74-7.34.41-1.42.37-2,1.73-.86,0,0,.91-.62,1-1,.52-3,3-5.12,3.38-8.11.08-.63-.07-1.29.55-1.78,1.81-1.43,2.3-3.72,3.38-5.61s1-4.8,2.72-6.29c2-1.77.88-4.3,2.25-6.17.44-.6.37-1.8,1.19-2.47a5.52,5.52,0,0,0,1.84-3.71c.24-2.26,1.31-4.18,1.84-6.23.39-1.48,1.89-2.89,1.18-4.49-.55-1.27-.94-2.07.86-2.28,1.4-4.25,3-8.45,4.07-12.79.33-1.36,1.64-2.47,1.14-4.06s2-2.65.93-4c-1.4-1.88.89-2.31.95-3.32.15-2.57.86-5.11.9-7.58,0-2,.08-4.1.12-6.16.09-4.62,1.64-9.11,1.11-13.76a1.27,1.27,0,0,1,.34-.84c1-1.19-1.25-2.66.39-3.94.28-.22-2.42-.91-1.06-2.35s-.64-1.91-.77-3c-.43-3.36-.55-3.41-4.18-4.1a1.33,1.33,0,0,1-1-.64c-.75-1.48-1.62-2.52-3.54-2.21-.87.14-.91-.07-.75-.89,1-5,.84-6.39-.38-10-.29-.89-.91-1.72-1.45-1.82a5,5,0,0,1-2.74-1.87c-.58-.59-1.46-.31-2.13-1-.84-.85-2.47,0-3.45-1.31-.66-.85-1.67,1.92-2.7.09-.09-.17-.66-.22-.91-.11a7.79,7.79,0,0,0-2.43,1.32A2.2,2.2,0,0,1,664,383a3.9,3.9,0,0,0-3.44,1.22c-1.74,1.76-4,2.71-5.72,4.47-2,2.08-4.37,3.87-4.94,6.95-3.56,2.88-5.25,7.24-8.39,10.47a32.61,32.61,0,0,0-3.49,5c-.77,1.17-.87,3-2.24,3.5a4,4,0,0,0-2.37,2.5c-.9,2-2.52,3.64-3.46,5.57-1.06,2.18-2.72,3.95-3.73,6-.8,1.6-2.51,1.16-3.08,2.62-.35.9.79,2.51-1.14,2.73-1.67.19-.9,1.49-1,2.3-.15,2-1.71-1.72-2.14.65-.47,2.63-4.29,3.44-4.27,6.77,0,.47-2.24.77-3.22,1.46s.33,2.72-1.43,3.42c-.45.17-1.12.21-1.28.43-1,1.38-2.38,2.79-2.56,4.31-.28,2.37-2.18,2.17-3.37,2.53s0-.84-.13-1c-.92-2.12-.55-4.33-.63-6.5,0-.31,0-.76-.14-.93-2-1.89-2.28-5.14-4-6.71-2-1.81-4-3.72-6.15-5.48-.32-.27-.88-.25-1.33-.37a13.32,13.32,0,0,1-5.93-3.85c-1.62-1.67-4.27-1.43-6.14-2.76-.82,1.25-2.1.61-3.18.77-1.29.2-2.86-.61-3.83.35-1.32,1.31-1.67-1.1-2.87-.4-3,1.74-6.35.88-9.56,1.05a3,3,0,0,0-1.83.44,7.59,7.59,0,0,1-5.84,1.54c-.9-.14-1.77,1.86-2.67,0-.53.66-1.47.74-2,1.15a3.28,3.28,0,0,1-2.68.83c-1.64-.23-2,.57-1.84,2,0,.27-.2.57-.31.85-.23-.13-.65-.28-.64-.39.18-2.13-1.63-1.7-2.35-1.37-4.08,1.91-8.57,2.58-12.69,4.37-2.54,1.1-5.31,1.66-7.93,2.59-1.2.42-2-1.28-2.89-.59-1.26,1-2.56.57-3.79.51-4.54-.2-8.82,1.11-13.18,2-2.38.49-.15,1.15-.2,1.71a3.56,3.56,0,0,1-.13.94c-.19.48-.43.46-.7.07-1.31-1.84-2.25-1.81-4.31-.37a49.79,49.79,0,0,1-5.51,3.51,3,3,0,0,0-1.58,1.94c-1,2.1-1.86,4.23-2.76,6.35a.51.51,0,0,0,.07.45c1.44.94.94,2.4.87,3.63a2.94,2.94,0,0,0,1.25,2.51c3.27,3,7.42,4.64,11.07,7.07.93.61,2.07.1,3.17.91.79.59,1.9,1.63,3.41,1.39,1-.16,2.45-.68,3.21.54s1.91.61,2.83.9a45,45,0,0,0,12.37,1.61c1.41.05,2.22-2.34,3.88-.56,1.32,1.41,3-.86,3.81-.42,2.64,1.42,5-.34,7.41-.12,1.24.12,2.45-1.63,3.68,0,1.17-.79,2.34-1.65,3.61-.15,2.4-1.52,5.58-.85,7.84-2.8a1.11,1.11,0,0,1,1,0c.58.27.27.58,0,1-1.17,2.38-2.79,4.47-4,6.83-1.9,3.68-4.06,7.3-7.61,9.79a4.71,4.71,0,0,0-1.82,2.22c-.79,2.63-2.72,4.34-4.58,6.09-1.31,1.24-2,3.11-3.26,4.08a20.34,20.34,0,0,0-3.35,3.62,5.27,5.27,0,0,1-.5.56l3.73,3.4a37.86,37.86,0,0,1,4.25-5.5c.37-.34.68-.75,1.07-1.05,1.27-.95-.25-3.26,1.77-3.75a6.67,6.67,0,0,0,3.44-2.52c.86-1,2.74-1.51,1.68-3.57-.14-.27,1.25-1.9,2-2,2.82-.25,2.76-3.73,5.17-4.29a.61.61,0,0,0,.35-.34c.75-1.66-1-4,2-5.2,1.62-.64,2.29-2.93,2.18-5,2.73-.84,2.5-4.07,4.51-5.57s4.36-1.82,6-3.78c.57-.68,2.14-.09,3.29-.36,2.51-.59,3.38-3.32,5.83-4.08.87-.27.61-2.25.21-3.18s-1.71-.68-2.6-.24c-2.21,1.12-4.14,2.85-6.82,2.8-1.23,3.63-5.12,2.85-7.61,4.42s-5.85.78-8.45,2.49c-.35.23-1,0-1.47,0-2.2.34-4.39-.5-6.67.86-1.81,1.09-4.54-.82-6.57,1-1.06-1.87-2.57-.1-3.86-.29s-2.89.52-4.42.47-3,0-4.49,0a31.9,31.9,0,0,0-5,.06c-1.48.23-2.2-1.23-3.6-1.12-1.07.09-2.36.61-3.28-.44-.75-.85-2,1.31-2.49-.46-.55.34-1,1.45-1.78.24a2.9,2.9,0,0,0-3-1.31c-.5.06-.82-.33-.82-1s.34-1.07.8-1c.93.22,1.77-1.92,2.69-.07.82-.81,1.62-1.64,2.49-2.4a2.22,2.22,0,0,1,1.25-.55c5.23-.28,7.69-4.07,10.16-7.88.85-1.32,1.87-2.55,2.6-3.93.81-1.54-1.35-2.5-1-4.08a18.66,18.66,0,0,0,.06-2.49c0-.19.54-.53.55-.51,2.77,2.58,3.06-1.19,4.54-1.83,1.09-.47,1,1,2,.76s1.14-1,2.07-1.12c3.25-.47,6.18-2.6,9.67-1.94.56.11.86-.32,1.27-.57,2.2-1.4,2.21-1.39,6.17-1.65,1.43-.1,2.22-3.46,4.18-.83,1.06-1.82,3.22-.18,4.39-1.34,1-1,2.18-.43,3.26-.61.62-.1,1.44.3,1.81-.43,1.22-2.46,3-.35,4.45-.44.69,0,1.31,1.06,2.19-.12,1.18-1.59,2.94-1.43,4.34-.51a1.57,1.57,0,0,0,2.46-.35c1.26,1.34,2.44-.83,3.59-.12s3.17.43,4,1.1c2.5,2,5.47,3,8.17,4.51.64.37,6.87,9.44,6.67,9.64-1.31,1.38-.78,2.65.25,3.62,1.47,1.37-.25,2.48,0,3.71.1.65,0,1.34.11,2,.91,3.72.68,6.52-1.59,9.22-.65.78,1.67,2.51-1,2.33-.89-.06-1.22,1.7-1.82,2.61-1.25,1.89-4,3-2.89,6-1.45.9-1.86,2.56-2.75,3.87-2.1,3.08-3.66,6.5-5.55,9.71-1.1,1.86-2.71,3.35-3.57,5.41-.78,1.87-3,2.81-3.95,4.77-2.23,4.45-5.68,8-8.7,11.94-.92,1.19-.88,2.33-2.59.93-.35-.28-2.09.53-2.57,1.25a2.24,2.24,0,0,0,.59,2.66,22.93,22.93,0,0,0,7.63,4.56c2,.76,3.65,2.62,6.1,2.21,1-.17-.06,2.18,1.41,1.55.77-.34,1.36-1,2.07-.15s1.76.57,2.5,1.33c.42.43,1.55.18,2.36.24.16,0,.44-.06.48,0,2.48,4.28,8.41,1.91,11.14,5.79.51.73,1.89-.22,2.69.72.61.72,1.28,2.12,2.45.5.72.66,1.37,1.72,2.2,1.88,1.15.23,1.5,1.28,2.35,1.61,1.62.63,3.35.87,4.53,2.44.33.45,1.21-.11,1.64-.68.07-.09.23-.12.35-.18-.23,2.57,2.72,1.26,3.47,2.88s.93,1.39,4,2c.58.11.7.44,1,.84.92,1.28,1.75,2.95,3,3.56,1.48.71,2.52,1.88,3.87,2.68a21.43,21.43,0,0,1,4.86,4c2,2.16,4,4.37,6.16,6.45,1,1,2.42,1.83,2,3.64a.72.72,0,0,0,.08.46c.68,1.13,2.45-.45,2.89,1.13.3,1.07-.46,2.29.51,3.3,1.42,1.48,3.42,1.36,5.16,1.7.41.08,1.63-.67,2.6-.74.34,0,1.09-.22.36-.86-.12-.11-.21-.29-.35-.34-1.34-.46-.7-2.55-2.27-2.76-1.92-.27-.34-2.12-1.22-2.7-1.85-1.2-1.86-3.87-4.45-4.75-1.45-.49-2.37-2.84-3.25-4.5-.35-.65-.52-1-1.26-1.09-1-.18-1-1,0-.9,2.46.2,3.52-2,5.36-2.84,1-.46,1.48-1.29,2.62-.28a.85.85,0,0,0,1.24-1c-.17-1.39.13-2.23,1.8-2,.77.09,1.62.26,2.28-.52,2.62-3.12,6.92-3.85,9.68-6.75,1.18-1.24,3.08-.41,4.27-2,.65-.87,2.59-1.17,3.62-1.84,2.5-1.63,6.1-1.86,7.36-5.22,2.35-1,3.78-3.28,6.13-4.32s5.23-1.67,5.9-4.85c2.5-.71,3.64-3.15,5.67-4.43.35-.22.93-.08,1.29-.52,3.27-4.1,7.9-6.4,12.13-9.27,2.08-1.41,4.56-2,6.43-4,1.55-1.68,4.48-1.84,6.74-2.85s5.21-.22,7.84-.36c.15,0,.42,0,.45.09.91,2.59,3.73,4,4.36,6.68.44,1.9-.76,3.73-1.63,5.27-2,3.54-5,6.46-6.31,10.4-2,.29-1.86,2.09-2.38,3.43-2.38-.08-1.7,2.25-2.59,3.35a2,2,0,0,1-1,.81c-2.3.79-2.75,2.86-3,4.92-.11.92-.63,1.22-1.27,1-.88-.3-1.76-1.8-1.83.67-.06,1.94-1.73,3.64-3,4.61-1.41,1.09-2.1,2.56-3.3,3.69s-2.66,2-2.89,3.79a1,1,0,0,1-.68.68c-1.76.42-2.63,2.3-4.43,2.6s-1.22,2.53-3.08,3.24a8.37,8.37,0,0,0-4.34,3.93,3.65,3.65,0,0,1-3.17,2,6,6,0,0,0-3.65,2c-1.43,1.55-3,2.85-5.29,2.9-.85,0-1,.44-1.16,1.18a2.45,2.45,0,0,1-1.15,1.48c-2.41,1.13-3.62,3.63-5.86,5-1,.59-1.64,2.46-3.13.7-.28-.33-.64-.35-.69.11-.22,2-2.53,2.61-3,4.23-.56,1.82-2.46,1.69-3.34,3-1.28,2-1.75,4.45-3.74,6,.33,2.68-1.53-.2-1.85.73s.11,2.22-1,3.11c-.85.66-2,1.28-2.13,2.59,0,.29-.26.8-.38.8a2.43,2.43,0,0,0-2.35,1.48c-.45,1-2.56.39-1.93,1.31,1.64,2.42-1.67.68-1.33,1.84s-.78,1.7-1.41,2.4-1.4,1.43-2.11,2.13-.47,1.84-1.4,2.44a2.44,2.44,0,0,0-1.17,2c0,.56-1.27.93-.18,1.81.49.4-.29.77-.57,1-1.77,1.47-2.58,4-4.34,5.07-1.43.86,1.39,2.91-1.37,2.78-1.26-.06-1.37,2-2.09,3-.41.59-1.61.67-.75,2.2.57,1-1.39.22-2.09.63a1.07,1.07,0,0,0-.51,1.26c.55,2-1,2.64-2.26,3.49-1.94,1.31-2.61,3.77-4.67,5.07-.43.28-.86.85-1.53,1.25-2.43,1.44-3.64,4.1-5.25,6.29-.7,1-.92,1.9-2.31,1.63-.63-.12-.82.29-1,.8-.73,2.13-2.5,3.54-4.15,4.72-3.38,2.42-5.74,6.06-9.64,7.84a4.09,4.09,0,0,0-2.06,2.1c-.42,1.37-.92,2.23-2.41,2.6a2.47,2.47,0,0,0-1.78,2.1c-.09.55-.75,1.46-1.13,1.45-3.59-.1-4.51,4-7.59,4.66-1.26,2.8-4.46,2.94-6.46,4.73-1,.87-2,1.71-2.89,2.65s-1.44,1.68-2.58.38c-.22-.25-1.07-.09-1.24.44-1.16,3.61-5.35,3.67-7.33,6.3-1.38-1.24-2,.07-2.82.83s-1.63,1.67-2.49,2.46-.48,1.58-.37,2.32,1,.62,1.63.62c.83,0,1.67,0,2.5,0,1.05,0,2.09.09,1.82-1.48a19,19,0,0,0,5-3.45,10.11,10.11,0,0,1,5.29-2.7c2.33-.19,3-3,5.41-2.58.54-2.47,3.31-2.66,4.6-4.48,1.15-1.65,2.46-1.32,2.57.77s3.14,2.27,2.28,4.54a1.82,1.82,0,0,0,.81.35c2.67-.1,3.64,1.82,4.3,3.83a6.23,6.23,0,0,0,3.86,3.82c.28.12,4.6,4.46,4.88,4.8,2.52,3,5.93,5,8.87,7.52,3.12,2.67,6.63,4.89,9.91,7.37.71.54,1.23,1.1,2.09.33.28-.25.87-1,1-.22.48,3.13,4.27,2.77,5.3,5.23,2.3-.6,2.76,2.35,4.94,2.46,1.92.09,3.75,1.35,5.68,1.85a112.26,112.26,0,0,1,11.88,3.91c1.85.7.78.77.44,1.65s-.27,1.35-1.38,1.53c-1.77.28,1.1,1.4-.2,1.9-.74.28-2-.44-2.27.39-.39,1.06-3.42,1.14-1.25,3.15a1.7,1.7,0,0,1-.36.35c-4.46,2.31-4.44,2.32-7.68,6.64-.46.61-.92,1.42-1.86,1.51a2.51,2.51,0,0,0-2.08,1.78c-.94,2.17-1.45,4.57-4.69,4.49-.69,0-1.67,1.2-2.06,2.05-.59,1.29-.6,2.55-2.57,1.1-.72-.53-.92,2.38-2.67,2.05.26,1.23-.82,1.68-1.41,2.42s-1.23,1.35-2.19.16c-.35-.44-1.34,0-1.62.67-.74,1.79-3.45.68-3.63,1.78-.39,2.35-1.87,1.35-2.95,1.46a2.45,2.45,0,0,0-1.62.93c-2.36,2.41-4.78,4.69-8.29,5.37-.33.07-.49,1.07-.72,1.64-.35-.29-.77-.87-1.05-.81-.77.17-.35,1.11-.73,1.57s-1,1.29-1.43,1.27c-2.35-.07-4.55.07-6.18,2.07-2.19-.64-3.9,1.54-6.09,1-.26-.06-.83.12-.85.25-.31,2.61-2.52,2-3.66,1.58s-1.44-.06-2.25,0c-2.07.22-3.88,1.75-6.07,1.13a1.32,1.32,0,0,0-1.6.86c-.58,1.87-2.2-.44-2.88.81-.76,1.41-2.08,1.43-3.45,1.32-.49,0-1,0-1.31.45-1.14,2-3.09,1.5-4.86,1.55-1.1,0-2.41-.36-2.31,1.57,0,.49-1,.63-1.23.4-1.47-1.75-2.35-.64-3.59.38s-3.51.62-4.52,2.48c-.07.14-1-1.16-1.94-.82s-.42,1.14-.76,1.62c-.57.81-.74-.16-1-.35-.64-.43-1.08-.18-1.74.08a14.42,14.42,0,0,1-5.9.67c-1.92-.09-4-.48-5.34,1.6-.42.66-1.11.57-1.69,0-.34-.34-.64-.81-1.23-.65-1.58.43-2.27,3.06-3.59,2.59-1.69-.6-3.14-1.16-4.43.11s-1.82-1.16-2.81-.27c-1.42,1.28-3.2.1-4.71.7.05,2.27-1.95,1.49-3,2.13s-1.57,1.2-2.45.13c-.53-.65-1.23-.42-1.84-.37-3.12.29-3.42.17-5.71-2.15-1.23-1.25-2.27-2.8-4.17-3.19.15-2.27-2.48-2.1-3.16-3.6-.78-1.71-2.19-2.51-3.69-3.5-.95-.62-1.14-2.25-2.81-2.8a6.32,6.32,0,0,1-2.33-2.3c-1.52-2.9-5.22-2.83-6.75-5.48-1.93.62-1.11-2.72-3-2.1-.94-3-3.89-4-5.88-6s-4.85-3.27-6.76-5.55c-.59-.72-.83.82-1.37.53-.73-.39-.28-1.2-.39-1.81a3.81,3.81,0,0,0-2.49-2.85c-2-.56-3.17-2-4.62-3.17s-3.5-2.33-4-4.62c-.13-.57-1-.18-1.28-.43A53.15,53.15,0,0,1,440,739.4a11.91,11.91,0,0,0-4.15-3.4,5.31,5.31,0,0,1-1.16-.8c-1.15-1.22-1-3.31-2.62-4.16a8.85,8.85,0,0,1-3.2-3.31,69.12,69.12,0,0,0-6.52-7.82c-1.7-1.9-3.77-3.47-4.46-6.17-.16-.61-.57-2.42-2.31-1-.65.53-.62-.78-.58-1.27a6.64,6.64,0,0,0-1.85-4.73c-1.14-1.38-2.58-2.38-2.27-4.62.23-1.62-2-2.25-2.42-4s-1.68-3.33-1.52-5.36c.18-2.28-1.17-4.17-1.78-6.23-1.41-4.76-3.94-9.13-4.37-14.27-.15-1.78-.82-3.67-.81-5.71.23-1.27-.59-2.83.88-4.05.47-.39,0-1.14-.51-1.67-1.1-1.24.49-3.34-1.33-4.4,2.45-1.43-.88-3,0-4.14s-.26-2.66.84-3.88a3.13,3.13,0,0,0,0-2.89c-1.54-2.64-1-5.1-.35-7.85.22-.87-.73-2.27.18-3.43-1.53-1,1.66-2.5-.45-3.52-.66-.33.31-.65.47-1,.77-1.75,1.72-3.54,1.17-5.48-.47-1.68,1.41-2.53,1.09-4.11-.15-.76-2.16-2.26.62-2.3a12.51,12.51,0,0,1,2.11-5.13,30.29,30.29,0,0,0,.34-5.11,3.4,3.4,0,0,1,.15-1.3c3.35-.24.65-3.68,2.69-4.94,1.66-1,3.57-3,3.77-4.79.46-4,4.39-6.17,4.56-10.21,0-.93,1.28-2.28,2.08-3,2.74-2.58,3.87-6.3,6.63-8.81-.23-1.92,3.46-2,2.06-4.6-.35-.63.61-1.11,1.07-1.5a10.48,10.48,0,0,0,2.85-4.33c1-2.5,1.75-5.15,4.2-6.76.27-.18.67-.46.68-.7.15-3.8,2.79-6.52,4.16-9.79,1.06-2.56,1.73-5.47,3.41-7.54,2.37-2.93,2.91-6.51,4.55-9.66,2.52-4.85,3.85-10.12,5-15.42.2-1,.8-1.85,1.32-1.88,2-.11,2.28-2,2.58-2.92.48-1.58.58-1.46,1.63-.51.42.38,1.48.22,1.48-.61,0-1.89.55-3,2.57-3.49a2.16,2.16,0,0,0,.79-3l-.28-.36c3.32-2.5,1.73-6.92,3.86-9.9.4-.57,0-1.17-.51-1.71a2,2,0,0,1,0-2.67c.58-.71,1.07-1.33.23-2.06-1.11-1-.61-2.2-.54-3.26a10.53,10.53,0,0,0-1.23-5.51c-.24-.49-1.13-.76-.25-1.44.5-.38,1-1.31,1.59-.86,1.59,1.3,3.38.87,5.12.95.5,2,4-.31,3.83,2.61,1.65.7,3.4,1.34,2.89,3.72,1.81.8,2.38,2.42,3.12,4.11a3.37,3.37,0,0,1,.15,2.19c0,.64,1.27,1.4,2,2.11a54.3,54.3,0,0,1,1.75,6.77c-.13,2.28-.14,4.6,1.47,6.37,1.24,1.37-.66,2.3-.36,2.83,1.36,2.35-.48,4.48-.15,6.73.16,1.08.62,2.74-.31,3.27-1.58.88,1.38,1.86-.36,2.7-.53.27.05,2.86-.47,3.1-2.37,1.08,1.32,3.07-.77,4,0,1.62,0,3.22-1,4.57,1.53,2.35.1,4.28-.81,6.34a2.35,2.35,0,0,0,.35,2.71c.83.93-.91,1.32-.61,2.4s.31,2.43-1.58,2.81c-.8.16.76.75.54,1.29-1.61,3.95-1.8,8.26-3,12.26-.54,1.78,0,4.83-3.19,5.18-.24,0-.66.46-.63.61.8,3.25-2.85,5.45-2,8.68.31,1.21-.58,1.8-1.28,2.46s-1.29,1.47-.34,2,.22,2.47,1.28,1.83c.73-.44,2-.16,2.47-1.8,1.17-4.13,3.91-7.66,4.94-11.94.43-1.75,2.13-3.23,2.4-5,.39-2.42,1.66-4.33,2.61-6.45.12-.28.68-.51.65-.7-.17-1.14-1.45-2.26-.5-3.38s2.9.4,3.57-.8c.81-1.43,2.95-.94,3.37-3,.22-1.09,2.53-.48,3.81-1.4.75-.54,2.07-.08,2.26-1.74.05-.44,1.75,1,2.38-.48a7.54,7.54,0,0,1,1.71-2.82,12.21,12.21,0,0,1,2.44-1.39c.94-.56,1.36-1.94,2.78-1.74,1-2.05,3-3,4.55-4.52,1.23-1.18,2.95-2,3.8-3.37a16.55,16.55,0,0,1,3.24-3.61c1.29-1.14.17-1.5-.34-2.18-.23-.3-1-.42-.5-1a1.12,1.12,0,0,1,.88-.22l-1.43-1.67a6.82,6.82,0,0,0-2.78,2.8c-.72,1.07-1.79,1.9-2.53,3-.63.9-2.41.75-2.33,1.38.29,2-1.61,1.23-2.22,2a3.58,3.58,0,0,1-2.34,1.6c-.87.16-.75,1.94-1.78,2.65-.79.54-1.29,1.4-2.5,1.24-2.75-.35.51,1.63-.7,1.91-2.07.47-3.39,2.21-5.23,3.06-1.6.74-3.9.77-3.38,3.54,0,.09-.32.33-.32.33-1.92-1.81-2.32,1.47-3.72,1.11-.82-.21-1,1.64-1.85.53-.4-.54.08-1.18.59-1.7s1.81-1.24,1.26-1.86a2.26,2.26,0,0,1,.15-3.18,5.27,5.27,0,0,0,.93-3.65c0-2,.05-4,0-6a8.67,8.67,0,0,1,.69-3.94c-2.1-1.47.74-2.4.42-3.83s1.79-2.66.69-4c-1.82-2.14,1.71-1.92,1.24-3.38-.29-.91.33-1.95-.35-2.86-1.21-1.61-.79-3.32-.28-5.06,1-3.48,1.19-6.89-.89-10.13-.54-.83-1.38-2.39-1.11-2.66,1.29-1.3-.11-1.93-.3-2.9-.71-3.58-4.64-5.78-4.1-9.83,0-.11-.19-.24-.29-.37-1.27-1.65-3.49-2.55-3.89-4.89-2.41.56-2.93-3.13-5.41-2.41-1-1.51-3.18-.44-4.22-1.9-2,1.41-4.7.26-6.48,1.19s-2.56.64-3.61-.59a3.48,3.48,0,0,0-.69-.5c-.36.36-.86.66-1,1.08-1.79,3.93-4.44,7.45-5.39,11.77a6.15,6.15,0,0,1-1.39,2.89c-1.12,1.16,1.52,1.87,0,3.26-1.69,1.54-1.72,4-1.61,6.29.07,1.45.75,3.45-.32,4.27-1.77,1.36,1.11,2.84-.55,4.1-.4.31-.28,2.05.3,3.23,1.09,2.24,1.36,5,0,6.94a26.68,26.68,0,0,0-4,8.37c-.71,2.46-2.36,4.34-3.08,6.75-.38,1.28.4,2.79-.62,3.71-2.94,2.64-4,6.3-5.77,9.62-.68,1.3-2,2-1,3.85.52,1-1.68.39-1.64,1.1s1,1.65-.23,2.09c-2.38.83-1,4.42-3.8,5-.28.05,1,1,.79,1.9-.28,1.11-1.91.39-1.86,1.11.22,2.64-1.92,3.62-3.25,5.19l-.35.35c-1.14,1,.9,1.37.47,2.37-.64,1.5-2.28,0-2.93,1.12a1.35,1.35,0,0,0-.08,1c.38,1.16-.63,1.84-1.08,2.55-3.06,4.76-6.2,9.47-9.51,14.06-1.13,1.57-1.68,3.39-2.61,4.89s.92,2.89-.47,4.59a11.9,11.9,0,0,0-2.87,5.28,9.42,9.42,0,0,1-2.75,4.7c-1.68,1.37.94,4-2.22,4.79-1.66.42.62,3.83-1.46,5.21,1.88,1.43-1.08,2.72-.12,4.12-2.42,2-2.14,4.52-2.13,7.38,0,2.43-.92,5-.85,7.57,0,.23-.52.43-.66.72a2.21,2.21,0,0,0,.16,2.68c.67.72.37,1.24.14,2.1-.75,2.74-3.21,5.45-.62,8.45-1.55,1.35-1.25,2.73-.06,4.12-2.32,2,.32,2.63,1,3.84.21.39-.07,1.05.14,1.44.66,1.22-1.38,2-.39,3.35s.33,2.88.33,4.34c0,3.23.6,6.42.84,9.59.25,3.34,1.75,6,2.86,8.88s.45,6.45,3.31,8.65a1,1,0,0,1-.11.9c-1.74,1.18-.3,2.14.1,3.25.84,2.34,2.22,4.53,2,7.16,0,.28.21.57.33.86,1-.71,1.75-1.12,1.72.82a4,4,0,0,0,1.17,2.92c1.36,1,.14,2.62,1.34,3.51,2.78,2.08,2.79,6.25,6,8a1,1,0,0,1,.39.81c-.38,2.08,1.27,3.17,2.52,3.86a4.28,4.28,0,0,1,1.73,1.78c.49.73,1.42,1.15,2.09,2,1.35,1.78,2.13,4.09,4.13,5.32a7.71,7.71,0,0,1,3.83,4.84c0,.11.25.23.39.23,3.09.08,3.77,3,5.41,4.73s4.24,2.15,5.26,4.2c2.28,4.61,6.88,6.71,10.28,10.08,1.86-.55.93,2.11,2.08,2,2.31-.33,3.12,1.52,4.37,2.68.65.6,2.12,1.38,1.62,2-1.5,1.91.55,1.08.95,1.49.7.71,1.66,1.29,2.06,2.15.51,1.09,2.33.1,2.38,2s2.2,0,2.78,1.15,1,2.27,1.44,3.4a.41.41,0,0,0,.34.06c3-2.88,1.95,1.74,3.36,1.82-.13,1.12.83,1,1.38,1.43,1,.83,2.06.72,3.14,1,1.33.32-1.57,1.75.2,1.82s.93,1.81,2,2.37a11,11,0,0,1,2.5,2.42c.3.32.5.35.71-.1s-.1-1.56.7-1.42.33,1.14.41,1.76c.22,1.78.85.61,1.37.19.54,1,1.81,2.46,1.5,3-1.06,1.84-.59,2,1.2,1.9,2.06-.18,3,.89,2.93,2.93,0,.49,0,1,.66.84.17,0,.22-.54.34-.83s.25-.56.38-.84c.21.17.61.36.59.5-.28,2.24,1.34,3.81,2.11,5.64.91,2.19,3.15,2.79,5.24,1.7a5.29,5.29,0,0,1,2.61-1c1.28,0,3.09.75,3.77-.32,1.24-1.91,2.53,1.07,3.61-.38.44-.59,1,1.38,1.73.2.93-1.5,2.39-1.41,3.9-1.49s3.11.46,4.68-.85c.93-.78,2.86.27,4.25-.48.19-3.58,1.85.51,2.89-.57,2.31-2.39,6.61.47,8.75-3,.14-.23,1.13-.26,1.41,0,1.57,1.34,2.82.23,4-.52.81-.52,1.41-.8,2.08,0a1.85,1.85,0,0,0,2.23.43c1.22-1.53,3.48-.42,4.72-2.19.59-.83,2.1-2.19,3.72-.91a1.94,1.94,0,0,1,2.6-.76c1.25.7,1.56-1.62,2.93-.52,1,.81,1.27-1,2.06-1.32s.68.48,1.07.55a4.14,4.14,0,0,0,1.29,0c.36-2.45,2.29-1.52,3.69-1.89s1.82-2.47,3.69-1.94c3.59-2.29,7.85-2.1,11.79-2.83a37.66,37.66,0,0,0,9.16-3.29,63,63,0,0,1,7.7-3.19,13.24,13.24,0,0,1,2.7-.7c1.14-.13.12-2.11,1.59-2s1.3-2.13,1.48-1.92c1,1.21,1.51.39,2.29-.07,1.25-.74,1.18-.71,1.57-2.27.67-2.62,1.77.87,2.61-.12.1-.13.29-.22.34-.36.46-1.33,2.4-.76,2.8-2.26.52-2,2.2-.59,3.26-1a1.3,1.3,0,0,0,.7-.57c.79-2.14,2.53-2.53,4.47-2.39,1,.07,1.41-.65,2.1-1,1.55-.83,2.29-2.78,3.52-3.37,3.93-1.86,5.19-6.41,9-8.21,1.06-2.92,4.22-3.72,5.93-6,.54-.7,1.67-.11,2-1.08.78-2.32,2.59-4,4.09-5.75s2.83-4,5-5.46c1.52-1,2.11-3.08,1.89-5.14-.07-.6-.28-1-.8-1a10.07,10.07,0,0,1-2.47-.08,4.72,4.72,0,0,1-1.84-1.56c-.82-1-.9,1.14-1.82.28-3-2.77-7.77-1.39-10.58-4.61,0,0-.23.27-.33.25-2.62-.41-2.6-.43-4.19-1.71s-3.83,0-5.31-1.57c-.33-.35-.5-.81-.74-1a38.24,38.24,0,0,0-3.85-3.34,12.88,12.88,0,0,0-2.05-1.08c-6.56-3.33-12.2-7.94-17.71-12.73-1.13-1-2-2.49-3.24-3.07-1.43-.66-1.81-2.46-3.28-2.7s-.26-2.11-1.58-2c-1.57.1-2.57,0-2.31-2.09.12-1-.89-1.59-1.85-2-1.83-.68-6.18-4.68-6.73-6.11-.61-1.6-.65-1.59,1.5-1.89.31,0,.84-.12.86-.25.31-1.82,1.56-2.63,3.16-3.11.45-2.53,2.58-3.94,4.34-5.11s2.58-3.72,5-4.43c1.22-.35,1.94-2.12,3.51-2.36-.23-2.39,2.77-2.15,3.27-4.06.45-1.68,2.59-1.8,3.45-3.47s2.63-3,4.14-4.28a6.65,6.65,0,0,0,1.73-2.8c.62-1.49,2.32-.09,2.39-.49.4-2.44,3.41-3.06,3.63-5.51,1.79,0,.83-5.21,4.21-2.22a6.72,6.72,0,0,1,.69-.66c1.1-.69.35-1.93.79-2.67.53-.92,2-.73,2.68-1.81,2.31-3.92,5.46-7.25,7.54-11.37,1-1.89,2.86-3.51,3.56-5.52.43-1.23.74-1.88,1.92-2.14-1.24-1.38.21-1.93.8-2.84,1.77-2.73,4.26-4.82,6.39-7.23.88-1,.84-2.43,2-3.23.2-.14-2-1.22,0-1.33,2.23-.12,3.08-1.51,4.09-3,1.16-1.68,1.93-3.94,3.51-5a23.73,23.73,0,0,0,8.44-9c.31-.59.36-1,1.13-1.23a10.4,10.4,0,0,0,3.23-1.81,11,11,0,0,0,3.13-3.19c.83-1.64,1.95.26,3-.71,2.43-2.29,5.4-4,7.83-6.28s5.48-3.74,8-5.91,5.25-3.74,7.43-6.19c2.47-2.77,6.34-4.31,7.35-8.38a.54.54,0,0,1,.35-.34c3-.27,2.81-3.66,4.85-5,2.22-1.4,3.3-3.91,4.67-6a15.65,15.65,0,0,1,1.74-2.25c1.42-1.54,2.63-3.34,4-4.76s.48-4.43,3.32-4.62c-.58-2.5,1.41-3.71,2.89-4.74,2-1.37,1.59-3.8,3.07-5.31.64-.66-2-2.44.81-2.81C738.24,511.58,738,510.6,737.55,510ZM510.81,459.52A4.92,4.92,0,0,1,507,461c-1.93-.16-4-.46-5.29,1.69-.36.6-1.15.37-1.68-.2l-.68-.37c-1.38,3.94-4.61-.13-6.52,1.51-.74.64-.75-.17-.8-.5-.14-1,.51-2.91-1.66-1.31.12-1.87-2-2.34-2.4-4-.31-1.35,1.08-1.92,1.06-3.08a.76.76,0,0,1,1-.79c1.38.27,2.11-.3,2.2-1.7,1.95-.1,2.33-3.58,4.93-2.3,3.1-2.53,7.4-1.44,10.53-3.38,1.47-.92,2.34,1.59,3.15,0s2,1.4,2.51-.45a15.24,15.24,0,0,1,3.07,1.79c1.1,1,1,2.31-.22,3.36C516.67,455.53,513.14,457.22,510.81,459.52ZM645.69,534c-.85.25-.54,1-.72,1.6-1.21,4.13-1.93,5.26-5.62,9.58a9.57,9.57,0,0,0-.73,1.69,17.37,17.37,0,0,1-2.48,4c-2.33,2.49-2.15,2.93-4.13.61-2.57-3-6.24-4.76-8.8-7.75-1.11-1.29-3.18-.31-4.2-2.07-.72-1.26-2.08-2.13-3.1-3.23-.41-.45-.87-.36-1.34-.39a8.27,8.27,0,0,1-6.28-2.91c-1.21-1.42-4-.8-5.34-2.64-3.36-.37-5.61-3.28-8.88-3.89-2.81-.52-5.13-2-7.61-3.39-2.93-1.59-6.38-2.31-9.67-3.12-2.28-.56-3.87-2.71-6.56-2.43-1,.11-1.73-2.13-1-3.26.84-1.33,1.39-2.86,2.74-3.9a4.53,4.53,0,0,0,2.16-3.63c0-1.07,1.71-1.7,2.53-2.77,2-2.64,4.22-5.17,5.27-8.35.44-1.33,2.56,1.31,2.09-1.15-.27-1.38.88-2.33,1.43-3.39a9.22,9.22,0,0,1,2.77-2.83c1-.74.78-2,1.66-2.88s-.64-3,.88-3.34c2-.44.78-1.85,1.29-2.62.7-1,1.5-2,2.21-3.06,1.69-2.46,2.64-5.38,4.73-7.57.44-.46.67-1.29,1.18-1.47,2.59-.93,2.88-3,2.82-5.28,0-1.2.07-1.85,1.59-2.36,2-.68,2.33-3.54,4.42-4.48,1.52-4.87,5.9-7.87,8.12-12.14s6.83-6,8.65-10.31c.29-.69,1.78-.84,2.15-1.54a16.9,16.9,0,0,0,.76-2.66c.55-1.73,2.5-1.94,3-3.69.42-1.42,1.76-2.6,2.73-3.85s3.1-2.13,2.61-4.44c0-.2.34-.52.57-.74A35.94,35.94,0,0,0,645,407.49c2.76-.83,2.51-4.06,4.51-5.58s2.8-4.38,4.6-6c2-1.79,3.09-5,6.49-5,1.34-2.56,3.68-2.94,6.22-2.88.54,0,1-.13,1.15-.64s-.19-2,1.16-.72c1.63,1.56,3.86,1.14,5.78,1.73,2.2.68,4.11,2.8,4.08,4.83.26,1.23-1.6,2.41,0,3.72.22.17-2.81,2.3-3.35,2.17-.91-.21-1.54-.17-1.64,1-.07.9-.61,1.2-.93.13-.26-.87-.12-1.76-1.28-.57-.9.93-1.12,2.25-2.67,2.94s-4,1.66-3.18,4.53c.12.45-.84,1.32-1.45,1.8-.92.73-1.63-1.43-2.3-.48-.48.67,0,1.94-.19,2.91s-2.37,1.29-1.48,2.44c1.1,1.44-.32,2-.44,2.91-.31,2.42-1.09.34-1.67.26s-1.35,0-1.26.41c.42,1.91-2,3.34-1,5s-1.78,2.26-.38,3.87-1.18,2.28-1.29,3.71c-.1,1.15,1.76,2.59-.41,3.48.75,1.63-1,2.59-1,4.08-.13,4.27-2,8.24-2.48,12.45-.1.88.72,1.9-1.1,2.25a1.59,1.59,0,0,0-.59,3c-1.27,1.08-.25,3-1.64,4.16-.93.78-2.64,1.58-2,3,.48,1.2-2.16,1.73-.32,2.8-1,1.23-1.56,2.82-2.95,3.7-.83.53-2,1-1.76,2,.49,2.19-1.47,3.17-1.92,4.73-.39,1.33-2.49,2-1.77,2.92,1.2,1.46-.64,1.81-.61,2.87,0,.91-1.79,1.8-2.6,2.84-.64.84.47,1.39.65,2.06s-1.06,1.06-.85,2c.1.44.26,1.08-.31,1.35-1.11.52-2.33.84-3.38,1.46s.78,2.73-1.71,2.82c-1.36,0,1.06,1.16-.08,2-.8.62-1.8.64-2.47,1.34,2.55,2.11-.65,2.84-1,4.26s-2,1.86-2.75,3.26-2.24,2.68-3,4.27c-.49,1-2.15.24-2.24,1.47-.16,2.3-1.19.2-1.58.41-.88.46-.52,1.52-.41,2.25.33,2.12.42,2-1.52,1.66-1.37-.26-2,.14-.64,1.32-1.56.49-1.79,2.21-2.88,3.13a2.39,2.39,0,0,0-1,2.08c0,1,.5,1.83,1.39,1.35,1.92-1,4.65-.19,5.8-3.23.69-1.85,2.84-3.14,4.33-4.7.78-.8,1.87-1.45,1.53-2.87a1.15,1.15,0,0,1,0-.49c.36-1.61,3.29.61,3-2.09a3.44,3.44,0,0,1,1.81-3.46c2.49-.9,2.44-3.62,4.15-5-.74-2.14,3.13-2.27,2-4.59,3.55-.94,2.28-6,5.85-6.9,1.36-2.95,2.37-6.09,4.58-8.6a2.94,2.94,0,0,0,.56-1.26c.28-1.25-.56-3.54.52-3.61,2.71-.18.91-2.4,2-3.34a9.51,9.51,0,0,0,2.11-3.06c.91-2.11,2.45-3.92,2.53-6.49.07-2.09,1.34-4.21,2.33-6,1.64-2.9,2.26-6.14,3.83-8.92,1.08-1.91.16-4.19,1.73-5.8,1-1.05-1.58-1.48-.4-2.88a4.89,4.89,0,0,0,1.42-3.38,20.34,20.34,0,0,1,0-3.49c0-.41.46-.81.78-1.16.6-.67,1.67-1.18.28-2.17-.24-.18-.08-.94-.1-1.43l2-5.84c.61-2.07,2.43-3.74,2-6.17-.15-.87.85-.8,1.11-1.15,1-1.24,4.39-1.45,2.06-4.26,1.51-1.49,3-3,4.56-4.44l.68.68c1.82-2.86,5.43-2.34,7.71-4,1.83-1.37,3.18-.43,4.2.22,2.34,1.51,4.36,3.49,3.72,6.85-.17.88-.49,2.05.28,2.83s.9,1.6,0,2.47a1.42,1.42,0,0,0-.27,1.33c2.41,3.59-.33,7.13-.12,10.7.08,1.46-.75,3-1.17,4.47a31.35,31.35,0,0,0,0,4.54,4.48,4.48,0,0,1-.27,3.7,5.64,5.64,0,0,0-.31.71c.57.23,1.33.33,1.64.75s-.51.54-1,.56c-1,.05-.58,1-.89,1.4-1.08,1.51-3.33,2.62-1.16,4.88-1.86,1.9.48,5.17-2.34,6.94-.68.42-2.11,2-.48,3.44a.89.89,0,0,1-.42,1.24c-1,.22-1.7-.15-.89,1.54.48,1-2.95,2.08-2.5,3.55a4.33,4.33,0,0,1-.66,4,21.8,21.8,0,0,1-1.09,2c-1.11,1.39.65,3.06.12,3.67-1,1.13-1.34,2.54-2.29,3.63-.38.42.3.66.78.65s1,.62.75.63c-2.73.07-1.36,2.83-2.66,4-1,.88-1.11,2.8-1.49,4.3s-2.39,2-2.44,2.84a8.18,8.18,0,0,1-1.51,3.91c-1.65,2.52-2.32,5.43-3.46,8.09s-2.61,4.94-4,7.35c-1.58,2.85-3.47,5.5-4.28,8.74-.36,1.45-2.21,1.75-2.69,3.3a21,21,0,0,1-2.08,4.12c-.63,1.09-1.86,2-2,3.15C648.9,531.75,648,533.33,645.69,534ZM454.63,495.82c.66-.39.57-1.1,0-1.67-.21-.23-.6-.62-.56-.68.54-.74,1.15-1.44,1.74-2.14-1.44-.63.43-1.74-.15-2.06-1.48-.8.82-1.49-.08-2.18-1.29-1,.31-1.63.51-2.28,1-3.07,2.33-6,3.58-9,.12-.28.45-.47.71-.73.2.17.57.34.57.52a15.49,15.49,0,0,1,0,4c-.31,1.31,2.24,1.91.6,3.41-1,.88,1.57,1.92-.07,3.18-.82.62.65,1.69.65,2.82,0,1.55-1.44,2.49-1.17,4.08a25.12,25.12,0,0,1,.06,4c0,.6-.41.7-.84,1a7.28,7.28,0,0,0-3.07,5.27c-.37,2.16-.92,2.06-2.38,1-.5-.37-1.26-1-1-1.49.38-.66,0-1.14-.08-1.72C453.47,499.28,452.31,497.22,454.63,495.82Z"/><path d="M504.29,604.27c1.39-1.25.38-2.84.71-4.1,0-1.12-.05-2.13,0-3.12.1-1.58-1.41-1-2.09-1.5-1.42-1.06-.6.72-1,1-1.17.91-1.15,1.7-.18,2.87.2.24-.84,1.76-.77,2.92.06.92.45,2-.57,2.74-1.49,1.06.87,1.74.25,2.78a9.39,9.39,0,0,0-1.56,3.32c-.17,1.52-1.07,2.61-1.71,3.8s.26,2.78-1.33,3.45c2.14,1.88-1.35,2.11-1,3.22.67,2.07-1.9,2.08-1.94,3.11-.16,3.21-2.19,5.46-3.49,8.08a17.12,17.12,0,0,1-1.42,2.41c-.67.9-2,1.66-2.09,2.6-.2,1.55-2.19,1.29-2,1.5,1.59,1.61-.4,1.27-.76,1.9-1.67,2.88-4.66,4.66-6.21,7.43-.87,1.54-3.29,1.31-3.23,3.58,0,.71-1.17,1.2,0,2.23,2.11,1.85,3.19,1.73,5.1-.7,1.2-1.51,2.09-3.26,3.9-4.35s2-3.77,3.36-5c1.64-1.45,3.6-2.53,4.7-4.56.07-.13,0-.4.05-.47,1-.79.83-2.86,2.76-2.78a6.67,6.67,0,0,1,1.5-4.33c1-1.24,1.59-2.74,2.67-3.9-2.07-2.13,2.06-2.39,1.29-4.2-.1-.24.73-.79.7-1.15-.21-2,1-3.57,1.65-5.33a50.39,50.39,0,0,0,2.22-5.54c.49-2.06,2.78-4.38.29-6.7A1.37,1.37,0,0,1,504.29,604.27Z"/><path d="M678.52,541c2.84,1.2,2.92,4.61,5.18,6.24a1,1,0,0,1,.23,1.3c-1.34.92-.5,1.49.21,2.15s1.18,1.17,1.76,1.75c-2.27,2.08.71,1.58,1.17,2,.93.9,1.69-.62,2.66-.77.52-.09.09-1-.12-1.62-.6-1.8-2.27-3.39-2.42-4.9-.35-3.58-2.47-5.73-4.61-8.08a2.73,2.73,0,0,0-2.87-1c-.36.15-1.48-.57-1.67.67C677.93,539.48,677.61,540.58,678.52,541Z"/><path d="M685.76,540.28c.28.53.33,1.29.75,1.63s1.16-1.35,1.22-.53a6,6,0,0,0,2.6,4.4c1,.81.59,1.78.66,2.71,0,.64-.13,1.34.78,1.51s1.15-.44,1.61-.88c1.16-1.09.85-2.59.48-3.66a22,22,0,0,0-5.47-8.65,3.41,3.41,0,0,0-2.66-.81c-1.82,0-2.11.35-1.35,1.87C684.8,538.69,685.33,539.46,685.76,540.28Z"/><path d="M651.42,481.79c.6.38,1.57.18,2.38.21,2.09.08,2.09.07,4,2.25,1.36,1.59,1.91,1.61,4.34.78,1.76-.61.61-1.94.89-2.89.13-.46,0-1,0-1.48,0-.22.37-.38.57-.56a2.63,2.63,0,0,1,.38.82c.12,1.68,1.41,1,2.22,1s.83-.79.78-1.6c-.17-.61.48-1.62-.33-2.16-1.56-1.05-1.51-3.89-3.16-4-2.17-.17-3.26-1.36-4.4-2.65s-2,.47-2.76.2c-1-.35-1.35-1.92-2.77-1.72a2.82,2.82,0,0,0-1.34.32c-.59.5-1.72,1.26-1.14,1.89.81.87.26,3,2.06,2.72,1.5-.2,2.17,1.23,3.51,1.28.45,0,1.3,1.19,1.22,1.29-.63.85-1.24.44-2-.08-1.3-.89-2.86-.35-4.29-.38-.36,0-.69.66-1.09.94-1.11.78.91,1.17.24,1.75C649.26,481,651,481.49,651.42,481.79Z"/><path d="M615.33,461.06a9.13,9.13,0,0,0,3.17,1,2.45,2.45,0,0,0,1.72-.72c.67-.6.75.19.76.54,0,.82.36,1.25,1.16,1.13,2.31-.35,3.49.66,4.28,2.83.63,1.72,2.64,2.28,4.14,3.1a2.43,2.43,0,0,0,3-.95c.91-1.17.12-1.72-.55-2.44-1.19-1.27-1.44-3.51-3.19-4.08a20.78,20.78,0,0,1-6.84-3.92,1.79,1.79,0,0,0-.67-.33c-1.54,2.25-3-1.22-4.18-.13s-2.8-.57-3.76.83c-1.07-1.22-1.46-1-1.42.6S614.05,460.53,615.33,461.06Z"/><path d="M622.41,465.08c-1.12-.48-3.13.47-3.82-.19-2.08-2-2.88-.1-3.86.94-1.49,1.55-.87,2.81,1.27,3.76,1.11.49,2.51-1.94,2.88.1.33,1.83,2.09,1.11,2.74,2.24.18.32,1.45.18,1.41,1.34,0,.3.1.83.88.4a26.09,26.09,0,0,1,4.26-1.65c.51-.18.88-.35.83-1,0-.16.07-.39,0-.48C627.07,468.41,625.1,466.22,622.41,465.08Z"/><path d="M549,536.17c.89-3.78-1.75-6-3.75-8.44-.79-1-3-.87-2.23-3,0-.15-.41-.71-.53-.68-2.57.62-2.78-1.58-3.37-3-.34-.84-.92-1.71-1.46-1.81-1.66-.3-2.39-1.62-3.45-2.57-1.91-1.69-2.89-4.43-5.89-4.91-1.43-.23-.68-3-2.77-2.73-.64-2.56-4.46-2.51-4.53-5.53-2.2-1.53-3.4-4-4.8-6.05-.89-1.33-2.69-1.95-2.89-3.67-.25-2.15-2.41-2.26-3.58-3.38-1.8-1.71-2.63-4.11-4.51-5.68-1-.82-2.83-.9-2.28-3,.1-.39-1-1.25-1.62-1.64-4.47-2.61-6.14-7.44-9-11.3-.53-.7.34-2.42,1.28-2.69.42-.13,1.35-.14,1.27.34-.34,2.07,3,1.37,2.47,3.42,1.52.33,2.71,1,2.77,2.77,2-.4,1.45,2.54,3.4,2.54.87,0,.44,1.38.54,2.15.14,1.19,1.85.4,1.81,1.13-.1,2.39,3.84,1.47,3.19,4.12a48.44,48.44,0,0,0,4.28,4.2c1.45,1.14,2.13,2.82,3.65,4,2.31,1.84,3.3,5.15,6.07,6.79-.88,2.74,2.53,2.39,3,4.17a4.39,4.39,0,0,0,3.6,3.41c.89,3.32,4.55,3.79,6.38,6.25s4.42,4.1,6.23,6.46c3,4,7,7.07,9.62,11.38.67,1.09.89,1.64.22,2.65-.14.2.22.94.54,1.21,2.32,2,1.78,4.54,1,6.75s-1.83,5-5.09,5.2c-.47,0-1-.14-1.36.36-1.56,1.89-3.28,2.21-5.53.93-.47-.26-1.29.72-1.84-.84s-2.21-2.41-3.39-3.59a14.43,14.43,0,0,1-1.4-1.42c-.66-.89-1.76-1.33-2-2.67-.24-1.15-1.08-1.85-2.63-1-.47.24-1.21-1.88-2.67-1.75-.19,0-.44-.4-.62-.64-1.08-1.47-2-3.07-3.88-3.71-.38-2.37-2.71-3.18-3.85-4.92-.39-.6,0-1.71-.45-2.28-.67-.93-.93.74-1.33.5a7.68,7.68,0,0,1-1.78-1.73c-1.21-1.49-2.08-3.77-3.61-4.36-2.62-1-3.16-3.47-4.76-5.12-.8-.82-.67-2.86-2.46-1.06-.35.35-.64.47-.7,0-.32-2.85-2.93-3.78-4.56-5.52-.11-.13-.25-.23-.34-.36-.45-.64-.42-1.43-1-2.11-1-1.09-1.26,0-1.82.29-.24-.57-.52-1.13-.7-1.71-1.12-3.68-4-6-6.81-8.15a16.35,16.35,0,0,1-5.06-7.17c-.41-1-.26-2.79-2.36-3.08-.95-.13-.83-1.88,0-2.91.58-.69,1-1,1.81-.14s.58,2.17,1.71,2.84,1.17,3.15,3.43,2.38c.17.75,2.13.81.85,2.1-.35.35-.42.74,0,.68,2.76-.39,2.88,2.49,4.46,3.54,1.29.86,1.43,3.32,3.78,2.74.56,2.71,3.7,3.57,4.43,6.16.42,1.5,2.67,1.39,2.78,2.22.25,1.87,1.38,1.31,2.4,1.6,1.87.52-.41,1.09-.1,1.48.73.9,1.74,1.58,2.41,2.52s1.59.05,2.12.21c1.43.41,1.12,3,3.15,3-.13,3.19,3.17,3.56,4.61,5.48.52.7.29,1.66,1,2.09.55.32.76-1.16,1.36-.52.38.41,1.79.66.72,1.71-.32.32-.48.52-.2.72,1,.68,3.13-.59,2.86,2.2-.16,1.66,2.06,1.42,3.21,2,.75.4.44,1.19.78,1.56,1.43,1.55,2.29,3.53,4.38,4.61,1.45.76,3,2.11,2.57,4.38-.16.9,2.21,2.57,3.34,2.44.49-.05.69-.53.13-.94s-.5-.76.05-1a1.32,1.32,0,0,1,.93,0,6.6,6.6,0,0,0,2.92,3.74c.81.56,0,2.23,1.34,1.85a1.83,1.83,0,0,0,1.27-1.92c0-.22.38-.71.53-.69C550.33,540.56,548.61,537.7,549,536.17Z"/><path d="M408,350.13c0,.79.11,1.46-.53,1.92s-.27.84.19.93c3.7.67,1.83,4,2.81,6,.13.26-.42,1,.52,1,.63,0,1.09.33,1,.79a7.23,7.23,0,0,0,2.15,6.57c1.56,1.68-.74,3.52.86,4.89.26.23,0,1,.2,1.39.71,1.16,2.28,1.65,2.51,3.2-2.14,1.45.58,2.42.43,3.81-.2,1.79,2,2.68,2.49,4.41.43,1.48,1.59,2.68,1.43,4.42s-.25,3.62,1.64,4.87c.26.18-.74,1.8.54,2.37,1.5.66-.31,1.37.07,2.15s2.67.9.94,2.47c-.06.06.13.5.3.68,1.13,1.19,2.29,2.36,3.44,3.54-1.77,1.47.57,2.26.68,3.46.06.67.16,2.22,1.93,2.22.58,0,.7,2,1.77,2.62l.49,3.83c-1.06.71-1.52,2.41-3,2.27-1.28-.12-.94-1.79-1.7-2.62-.4-.42-.72-1.31-1.21-1.94a19.61,19.61,0,0,1-3.9-7.87c-.33-1.48-.68-2.87-2.36-3.54-1.4-.57.11-2.66-1.46-3.29,2-2.23-.38-2.61-1.49-3.45A2.08,2.08,0,0,1,418,395c.31-2.17-.62-4.13-1.5-5.88a99.85,99.85,0,0,1-6.44-17.31c-.65-2.25-2.39-4.07-2.35-6.55,0-.39-.76-.85-.69-1.17.56-2.5-.87-4.26-2-6.22-.37-.64-1.16-1.05-1.11-2.05.1-1.8.54-4-.25-5.35a27,27,0,0,1-2-4.19c-1-2.76-1-5.88-2.71-8.35s-1.93-5.55-3.55-8c-.43-.66-.1-.89.79-.91s1.91.06,2.08.89c.41,1.93,3.53,2.25,2.72,4.81a1.16,1.16,0,0,0,.46,1.3c2.42,1.93,3.31,4.57,3.53,7.53,1.67,1,.52,3.56,2.46,4.5C408.38,348.46,407.9,349.49,408,350.13Z"/><path d="M415.15,327c2-.06,4,.18,5.11,2.63.41.87,1-1.09,1.86-.63a50,50,0,0,1,4.92,2.59c1.82,1.23,2.71,3.88,5.55,3.5.45,2.25,2.19,2.59,4.07,3.26,1.51.54,2.47,2.38,4.2,3.11a4.76,4.76,0,0,1,2.43,2.43c1,3,4.48,3.49,6,5.92,2.55-.22,2.18,3.33,4.47,3.47,2.32,3.78,5.51,7,7.69,10.81a22.42,22.42,0,0,0,3.25,4.14c.45.47,1.29,1.08,1.21,1.45-.64,2.86,2,3.92,2.87,5.86.73,1.63,2.19,2.58,2.75,4.36.77,2.44,2.65,4.29,4.72,6a81.07,81.07,0,0,1,7.1,7c1.31,1.37-.39.78-.76,1.14-.8.76-1.29.92-2.25.12-.32-.27-.37,2.08-.88,1.61-1.11-1-3-1.36-3.44-2.92-.81-2.59-4-2.48-5.13-4.78-.9-1.76-.77-4.37-3.34-5.07-.58-2.1-3.44-3.1-3.39-5,.07-2.33-2.66-2.76-2.34-5.2.21-1.67-5.83-9.09-7.78-10.83-1.31-1.16-1.83-3.26-4-3.43,1.55-1.15.31-2.15-.5-2.38a2,2,0,0,1-1.75-1.78c-.27-1-1.83-1.3-1.87-2.73,0-.84-.94-.76-1.56-.66-1.26.2-1.77-1.24-3-1.23-.93,0,1.93-2.24-.72-1.75-1.85.34-1.39-1.37-2.1-2-.49-.44-.86-1.16-1.43-1.37-2.07-.74-4-1.44-4.15-4.15,0-.47-.79-.39-1.23-.54-2.47-.83-2.43-.87-4-3.69-.27-.48-.91-.76-1.39-1.13-1.31,1.7-2.29-1.09-3.77-.23-1.09.63-1.47-.36-1.65-1.57-.25-1.68-.89-3.3-3.22-1.7a2.5,2.5,0,0,1-2.27-.84c-.62-1.25-1.06-2.23-2.74-1.85-.43.09-.76-.46-.71-1s.31-.9.88-.92S414.21,327,415.15,327Z"/><path d="M405.05,329c2.48.38,5.52,1.38,6.88,4.78a6.19,6.19,0,0,0,1.31,2c1.41,1.53,3.43,2.55,4.61,4.06s2,3.5,3.4,5.07c1,1.1,1.16,3.46,2.24,3.89,1.88.76,1.62,2.46,2.55,3.48s.42,2.83,2.55,3c1,.08-.47,3.15,2.08,2.94.1,0,.34.26.31.34-.84,3.26,2.81,4.18,3.39,6.5s2.6,3.6,2.64,5.93a1.68,1.68,0,0,0,.3.83c3.29-.46,2.27,2,2.83,3.7.38,1.09,2.23,1.06,3,2.65,1.16,2.4,3.26,4.33,4.95,6.46,1.16,1.48,3.33,2.26,3,4.8-.12.91,1.93.37,1.82,1.08-.34,2.21,2,1.23,2.58,2.38.5.94.55,2.2,1.68,2.83.55.31.9,1,1.47,1.28s1.74-.37,2.27.49c.28.45-1.32.61-.53,1.36.49.47,1.75-.07,1.64,1.25-.06.81.7,1.06,1.12,1.54a22.24,22.24,0,0,1,1.71,1.8,1.35,1.35,0,0,1-.09,1.29c-.51.58-1.24,1.8-1.87,1.24-1.38-1.22-3.46-.48-4.71-2.13-.68-.9-.83-2.53-1.72-2.69-1.67-.3-1.58-.61-.5-1.55A21.18,21.18,0,0,0,454.2,398c-1.37-1-3.66-1.6-4-2.82-.66-2.25-3.13-1.76-3.8-3.36-.43-1.05-1.82-2.1-.52-3.46-2-.52-2.32-2.75-3.81-3.85-1.85-1.36-2.76-3.59-4.34-5.13-1.15-1.12-.09-2.61-1.31-3.53a27.78,27.78,0,0,1-2.84-2.8,5.2,5.2,0,0,1-.57-.76c-.56-.9,1.12-2.45-.85-2.95l-1.41-2.11c-1.6.94.43-3.8-2.12-1.36-1.33-.67,0-2.38-1.37-3.26-.81-.52.12-2.12-1.06-3a5.43,5.43,0,0,1-2.06-3.07c-.23-1.55-1.81-2-2.06-3.16-.21-1-.69-1.05-1.45-1.45-1.35-.71-3.55-1.16-2.65-3.72.42-1.2-.26-2.2-1.24-3-.26-.2-.46-.48-.72-.7-1.56-1.37-2.66-3.34-4.88-3.89.33-2.56-2.29-3.43-3-5.25s-3-1.68-3.64-3.38c-1.59.42-1.18-1.1-1.74-1.7-.87-.94-.79-1.26.47-1.3Z"/><path d="M390,435.76c.2-1-.41-2,.57-2.82,1.8-1.44-1.53-2.33-.5-3.34,1.33-1.29.93-2.73.92-4.14a6.73,6.73,0,0,0-.61-3.75c-1.27-2.19.6-5.1-1.21-7.36.16-4.82,0-6.41-1.89-10.5-.6-1.28.77-2.16.56-2.36a2.5,2.5,0,0,1-.77-2.69c.52-1.45-.84-2.45-.56-3.88.25-1.27-.84-2.36-1.43-3.51a12.11,12.11,0,0,1-1.15-5.05c-.14-3.44-.47-7.05-2.27-10-.86-1.41.57-1.51.4-2.35s-.45-2.34,0-2.92c1.23-1.46.31-2.72-.29-3.63s-1.21-2-.72-2.64c1.62-2.12.61-4.44.94-6.64a55,55,0,0,1,1.39-7.93c.31-1,.88-1.6-.09-2.47a1,1,0,0,1,.11-1.66c2-1.19,1.54-3.09,1.58-4.87,0-.71.11-1.42,1-1.22s2.11.91,1.58,1.7A4.35,4.35,0,0,0,387,345c.59,4.77-1.73,9.32-1,14.08-1.7,1.39.3,2.74.06,4.18-.27,1.62.08,3.34-.1,5s.85,3.64-.81,5.17a1.34,1.34,0,0,0,.12,1.28c1,.72.88,2,1.63,2.89s-.32,2.45.73,3.69c.37.44.05,1.6.23,2.51.32,1.61.1,3.26,1.73,4.31.71.46.36,1.21.4,1.83.17,2.29-.3,4.6.31,6.87a43,43,0,0,1,1.63,6.31,31.68,31.68,0,0,0,1.81,6.26c.54,1.65.13,3.59.28,5.4.22,2.7-.65,5.46.89,8.13.62,1.07-.62,2.8-.42,3.87.24,1.29.86,2.3-.2,3.46a1.08,1.08,0,0,0,.14,1.69,1.94,1.94,0,0,1,.37,2.64c-1.19,1.18-.87,2.49-.75,3.71a4.5,4.5,0,0,1-2,4.2c-.83.69-1.12.32-1-.5a3,3,0,0,0-.95-2.55C391.72,438.15,389,437,390,435.76Z"/><path d="M397.45,370.05c.13-.23.44-.58.37-.68-2.09-3.31-1.66-7.28-2.82-10.82-2.06-1.05,0-3.59-1.72-4.77-.16-4-3.28-7.34-2.28-11.54.26-1.09-1.47-1.52-1-2.55.42-.83,1-1.21,0-2.27-.77-.86.65-1.71,1.36-2.29.47-.39,1.54-.23,1.5.53-.19,3.58,1.3,6.79,2,10.15.14.63-.05,1.41.26,1.89,3.05,4.66,3.93,10.08,5.12,15.33.4,1.76,1.34,3.36,1.47,5,.08,1.07,1.78,1.91.47,3.33-.33.36.95,1.74.71,2.9-.13.64-.3,1.57,0,2,1.32,1.52,2.52,3.08,1.92,5.19-.55,1.94,1,3.28,1.2,5.07.29,2.51,1.53,5,2.43,7.43a39.22,39.22,0,0,1,2.34,8.49,5.37,5.37,0,0,0,1.49,3.31c1.27,1-1,1.57.27,2.72,1.7,1.5,1.18,4.36,2.14,6.52.26.58-.57,1.92.09,3.13.49.9-.2,2.15.7,3.24.28.34-.63,1.81-1.17,2.65-.29.45-2.33-.21-2.45-.77-.95-4.75-3.45-9.17-3-14.23,0-.6.25-1.26-.33-1.86-1.61-1.67-1.57-4.13-2.4-6.15a40.08,40.08,0,0,1-2.17-7.07,3.83,3.83,0,0,0-1.19-2.52c-.26-.21-.71-.51-.68-.69.69-3.84-2.8-6.76-2.24-10.59.4-2.77-1.36-5.08-2.05-7.62C397.52,371,397.32,371.07,397.45,370.05Z"/><path d="M442,361.45c.12-1.12.21-2,1.28-.74.18.2.67.11.85.31.93,1,3.72,1.07,2,3.58,1.95.92,1.59,3.86,4.06,4.47,1,.24,1.68,2.75,1.44,3.81-.06.26-.34.47-.51.71,2.59.34,2.79,2.57,3.48,4.41,2.27-.22,1.71,2,2.28,3,.75,1.31,2.51.83,2.86,2.19.61,2.44,3.41,2.58,4.61,4.47.39.62,1.86.53,2.31,1.47.92,1.9,2.74,3,3.86,4.79.39.59.81,1.2.3,1.68s-.82,2-2.13.64c-.47-.48-1,1-1.94.76-1.13-.28-.38-1.88-1.11-1.85-1.89.07-2.34-2-4.08-2.36a5.38,5.38,0,0,1-3.36-3.41c-.39-1.79-2.81-1.33-2.7-3.35,0-1-1.53-.92-2.32-1.41,1.91-2.83-1.69-2-2.1-3.19a13.6,13.6,0,0,0-2.16-4.11,11,11,0,0,1-1.85-3.21c-1.18-3.7-3.79-6.73-4.84-10.46A12.59,12.59,0,0,1,442,361.45Z"/><path d="M420.51,370.09c.1,1.19,3.5.85,1.58,3.5,1,.49.78,2.39,1.39,2.3,2.29-.36,1.42,1.88,2.3,2.67a5.07,5.07,0,0,1,1.31,3.4,7.9,7.9,0,0,0,2.34,6c.23.21.6.59.54.74-1,2.46,1.5,3.35,2.27,5a23.09,23.09,0,0,0,6.68,8.58c2.11,1.63,1.58,4.63,3.82,6-.42,1.25-.81,2.51-1.28,3.75a1.13,1.13,0,0,1-.94,0c-1.41-1.13-3.52-1.47-3.89-3.8-.29-1.81-2.35-2.47-3.12-4.1-.47-1-1.83-1.43-1.52-2.88a1.76,1.76,0,0,0-1.28-1.9c-2.18-.72-2.62-3-4.07-4.33a5.75,5.75,0,0,1-1.64-5.26c-2.29-2.55-.87-6.64-3.72-9a1.22,1.22,0,0,1-.27-.88,14.62,14.62,0,0,0-2-7.67,2.56,2.56,0,0,1,0-1.48C419.12,370.2,419.49,369.89,420.51,370.09Z"/><path d="M402,419.52a4.58,4.58,0,0,0-.24-1.21c-.51-1.11-3-1.54-1.14-3.46-.74-1.27-.11-3-1.4-4.1,1.11-.87-.58-2.3.64-3.19a1,1,0,0,0,.09-.91c-2.78-2.47.56-2.59,1.44-3.45a.9.9,0,0,1,1.54.87c-.48,2.36,1.35,4.28,1,6.55-.15,1,.63,1.42,1.14,2a3.88,3.88,0,0,1,.64,1c-2.39,2,.71,3.76.32,5.77-.35,1.82-.52,3.88.91,5.54-1.63,1.21.35,2.45,0,3.63-.47,1.47.8,2.36,1,3.58a4.08,4.08,0,0,1-.14,2.39A2.28,2.28,0,0,1,406,436c-.84,0-1.15-.64-1.52-1.1-.89-1.08-2.31-5.29-2.46-7.09-.12-1.57.21-3.12-.95-4.6C400.11,422,401.94,421,402,419.52Z"/><path d="M511.13,384.64C504.29,378,497,371.81,490.31,365c-1.74-1.76-5.07-1.85-5.79-5-1.16.41-1.55-1.11-2.58-1-2.85.24-4.85-1.29-6.67-3.21a4.69,4.69,0,0,0-1.17-.78,38.75,38.75,0,0,1-4.1-3.28c-.91-1.25-1.59-3.19-2.78-3.58-2.32-.77-2.36-3.72-4.71-4.14-.34-2.36-3.45-2.27-4-4.8-.35-1.67-2.47-2.35-4.33-2.5a4.73,4.73,0,0,0-2.92-4.61,7.74,7.74,0,0,1-3.31-2.74c-1.08-1.42-1.7-2.95-4-2.43-1,.22-1.75-.85-1.94-1.82-.3-1.48-1.54-2.16-2.5-2.91-.62-.5-1.9-.15-2.88-.2-1.9-.1,1.82-2-.67-2-1.07,0-1.77-1.3-3.09-1s-.34-2-2.08-2.08c-1.24,0-2.51-1.84-3.65-1.73-1.57.16-2.24-1.41-3.6-1.15s-2.45-1.54-3.67,0c-1.81-2.06-4.76-.05-6.74-1.92a2.82,2.82,0,0,0-2.77.19c-1.06,1-2.15.67-3.24.71-2.55.11-5.24-.43-7.3,1.69A1.65,1.65,0,0,1,398,315c-1.19-.46-1.84,1.19-2.92.61-2.22-1.18-.21,2.1-1.78,1.67-.31-.09-.51,1-1,.5-1.66-1.59-1.7.67-2.47,1-1,.5-2.13-.11-3.16.94-1.56,1.57-2.63,3.87-5.17,4.31-.84,2.2-2.89,3.72-3.46,6.06-.26,1.07-1.22,1.51-1.85,2.23-3.31,3.82-3,8.76-4.09,13.25,1.84.94-.7,2,0,2.66,1.42,1.49.06,2.09-.7,2.93-.53.59-.29,1,0,1.72.89,2.18.87,2.91.69,5.39-.08,1.16,0,2.34,0,3.5,0,1.31.4,3.18-.29,3.81-1.53,1.41.6,1.78.43,2.88-.38,2.34-.52,4.9.91,7,.76,1.14-2,1.58-.3,2.84.82.61-.23,2.25,1.06,3.07.33.2.31,1.26.17,1.86-.77,3.4,2,6.78,0,10.18-.14.25-.16.85,0,1,2,1.45.19,3.83,1.35,5.46,1.3,1.8.6,3.84.53,5.73,0,1.26,1.17,2.33.55,3.35a2.38,2.38,0,0,0,.45,3.45c-2.08,2.24,1.16,4.34.2,6.67-.23.54-1.16.74-.76,1.89a18.85,18.85,0,0,1,1.1,6.8c-.06,2.55,2.12,5.05.59,7.87a1.72,1.72,0,0,0,0,1.47c1.91,2.88.68,6.07.93,9.1.15,1.75.41,3.57-1.47,4.91a1.83,1.83,0,0,0,.14,3c1.22,1,2.44,2.1,3.64,3.09,1.64,1.34,3.73-.16,4.93,1.52a17.19,17.19,0,0,1,3.39-.91c.69-.22,1.26-.84,2.16-.81,3.6.13,6.35-1.68,8.8-4.05,1.92-1.85,3.76-3.78,5.68-5.63.55-.55,1-1.59,1.94-1.27,3.12,1.07,4.81-2.37,7.58-2.28.78-2.1,3.28-1.21,4.44-2.5,1.35-1.48,3.27-1.82,4.89-2.75a45.42,45.42,0,0,1,4.73-1.83c2.64-1.14,3.48-.93,4.14,1.75.49,2,1.87,3.55,2.52,5.46.09.28.63,1.53,1.3.76,1.06-1.22,2.83-.15,3.92-1.65.66-.91,1-2.15,2-2.79.27,1.34,1.56,2.09,2,3.17a7.91,7.91,0,0,0,1.89,2.71c1.3,1.26,2.31,1.12,3.78.1,2-1.42,1.55-3.43,1.64-5.35,0-.32.12-1.2.79-.48s2.19,1.4,2.12,2.57c-.14,2.08,1.52,2.78,2.5,4s4,1.41,1.6,4c-.34.36.33.82.55,1.23,1,1.94,1.75,4,3.52,5.57a5.15,5.15,0,0,1,1.9,4.18c-.1,2.09,1,3.6,2.36,5,.64.67,1.92,1.17,1.59,2.29-.65,2.24,1.79,3.13,1.93,4.7.19,2.31,3.75-.19,3.14,2.57,0,.1.22.36.29.35a2.07,2.07,0,0,0,.66-.32c-.46-1.44.66-2.41,1-3.61a3.32,3.32,0,0,0-.05-1.39c-2.83-.09-1.62-3-3-4.28a8.16,8.16,0,0,1-2.76-4.75c-.46-4.78-4.57-7.79-5.45-12.28-2.61-2.45-3.27-6-4.92-8.95-1.14-2.05-1-2.13,1-2.22,1.31-.06,2.92.33,3.84-.3,1.08-.74.18-2.47.4-3.75,0-.16,0-.36.05-.48a1,1,0,0,1,1.27-.43c.64.44,1.61,1.11,1.6,1.68,0,3.89,2.45,6.68,4.08,9.84-.76,2,1.72,1.08,2.12,2.55,1.59,5.73,5.06,10.44,9.18,14.66.39.4.74,1.33,1.36,1a2.19,2.19,0,0,0,1.36-1.9,10.73,10.73,0,0,0-2.25-6.58c-.57-.77-1.65-1.11-1.78-2.26-.09-.72.5-1.81-.78-2s-1.11-.25-.55-1.34-1.19-.21-1.52-1c-.17-.43-1-.76-1-1.07.2-1.73-1-2.94-1.5-4.4s-3.28-1.61-1.85-3.9c-1.09-.29-1.54-1.57-2.15-1.91-1.68-.93,1.5-2.13-.39-2.63-.6-2.49-2.49-4.27-3.62-6.48-.6-1.17-.57-1.33.57-1.28.94.05,2-.44,2.78.5.44.53.88.37,1-.13.21-1.4,1.2-2.48,1.14-4.08s-1.33-1.12-2-1.62c-1.33-1-1.32-2.93-2.78-3.9-.8-.53.18-.79.46-.76,1.29.17,2-.6,3-1.27a68,68,0,0,0,10.12-9.27,4.65,4.65,0,0,1,3.9-1.52c1.67.07,3.41.3,5-.67,2.21,1.77,3.27-1.28,4.87-1.2,2.51.11,3.15-2.51,4.82-2.91,2.63-.64,3.67-2.65,5.1-4.35.86-1,.7-2.94,2.77-2.88.47,0,.62-.56.66-1.11.13-1.89-.64-4,.89-5.48C512.23,385.45,511.58,385.08,511.13,384.64ZM467.77,425c-.84,0-1.67,0-3.55,0a24.3,24.3,0,0,1-2.87-.18c-1.7-.24-2.39.11-1.8,1.12.76,1.3.29,2.56.42,3.82.08.77.28,1.62-.49,2.29s-1.48,1.65-2.4.48c-1.7-2.15-3.84-.45-5.59-2.47a.94.94,0,0,0-1.3.27c-.15.26-.29.77-.16.89,1,1,.05,1.3,0,2.61s-.15,2.6-.23,3.9c-1.34-.26-1.84-1.57-2.82-2.28-.76-.56-1.74-1.07-2.28-1.57-1.72-1.57-2.46-.18-2.67,1.12-.27,1.67-1,.21-1,1s1.15,1.23-1,1c-.49-.05-2.6.59-1-1,.57-.57,1.17-.74,0-1-1.44-.31-2.45-.51-1.28-.89.72-.24,1.49-1.26,1.91-.86.88.87,1.43.53,1.8-.22,1.4-2.84,6.06-1,6.6-4.49.08-.49,1-.79,1.18-.51,1.31,1.67,2.65-.91,3.79-1,1.31-.14,1.53-2.27,3-2s3-1.69,3.79-2.52L461,422c1-1,2.31,1.27,2-1.45,0-.11.42-.25.64-.38a4.29,4.29,0,0,1,.32.86c.15,1.12.37-.59.77.27.71,1.54,1.54-.85,2.13.11.47.78-.47,2.06.77,2.56.42.17,1.19,0,1.24.5S468.27,425,467.77,425Zm37.46-32.11c-3.57.76-5,3.85-7.13,6.08-.61.63-1.2,1.34-1.73,1-2.31-1.66-4.49.61-6.7.05-2.51-.62-4.65,1-7.06,1.22-1.85.18-3.42,2.29-4.68,4.12-.72,1-.77,2.43-1.94,3.24-.56.39-.94.26-.95-.2-.08-2.16-.81-1-1.55-.38s-.49,1.17-.48,1.81-.25,1.08-1.09,1.24a11.31,11.31,0,0,0-6,3.56c-.92.93-1.77,2.16-2.15-.31,0-.09-.22-.15-.34-.22-.88,2.68-5,1.87-5.44,5.07a1.62,1.62,0,0,1-.43.77c-.51-.19-.38-.79-.6-1.1-.83-1.17-2.53-1.23-2.87,0-.67,2.45-3.53,2.13-4.58,4-.05.09-1.78-1.69-2.18-.49-.58,1.73-1.54,1.8-2.84,1.64-1.57-.2-2.41,2.18-3,1.76-2.21-1.51-2,.47-2.42,1.41-.45,1.13-2.32.72-2.32,2.5,0,.69-.55-.16-.7-.48s-.06-.74-.25-.88c-.72-.49-.67.21-.75.6-.4,1.84-1.26,1.73-2.91,1.24-1.1-.32-2.6.72-3.91,1.18-.78.27-.9,1.93-2.1,1.22-1.61-1-.86.45-1.11.93-.13.25-.48.39-.76.52-1.37.65-3.8-1.59-4.27,1.56a24.54,24.54,0,0,0-4.71,1.85c-.7.45-1.67.26-2.08,1-.3.53,1.19.73.52,1.36-.41.38-.66,1.77-1.73.7l-1.06-1.06a1,1,0,0,0-1.67,0c-.07.09.71.82.61,1-.5,1-1.33,2.36-2.41,1.43-1.87-1.61-2.94.48-3.29,1a24,24,0,0,1-5.5,4.93c-.93.7-1.69.91-1.7,2.31a2,2,0,0,1-2.3,2c-1.86-.27-3.4.69-5.1,1a3.7,3.7,0,0,0-2.06,1c-.9-1.42-2.34-.84-3.59-1s-.73-1.21-.91-2c-.67-1.18,1.73-2.21.1-3.7-.93-.84,1-2.24.4-3.28-.78-1.45-.34-2.88-.45-4.31a33.19,33.19,0,0,1,0-4c.12-2.44-1.41-4.54-1.1-7.1.26-2.16.54-4.46-.82-6.62-.53-.83-.21-2.29-.07-3.44.72-5.93-1.54-11.67-1-17.58.08-.86-1.45-1.69-.08-2.62-1.86-1,.2-1.78.2-2.71,0-2.29-1.55-4.22-1.15-6.59a7.17,7.17,0,0,0-1.29-5.93c-.19-.25-.61-.66-.59-.69,2.23-2.43,0-4.81,0-7.21,0-2.62-1.85-4.91-1.1-7.57-2-1,1-2.52-.34-3.52-1.85-1.35.42-2.19.36-3.32-.08-1.5,0-3,0-4.5,0-1.06,1.69-2.11,0-3.17,1.21-1.22-.36-3.24.09-3.52,1.47-.92-.06-2,.58-3.06s.33-2.86.31-4.34a2.3,2.3,0,0,1,.88-1.64c.42-.48,1.07-1,1.08-1.53a7.23,7.23,0,0,0-.43-3.29c-.53-1.22,1.83-.89,2.25-2.06.36-1,.81-2,1.25-3a1.49,1.49,0,0,1,.52-.75c5.41-2.65,8.63-8,13.82-11,1.34-.77,2.08-1.43,3.17,0,.71-1.27,2.22-.57,3-1.14,1.25-.91,1.46-.93,1.53.65,0,.58.61.3,1,0,1-.85,2.81-.73,3-2.7.09-1.06.78-.87.91.08.11.77.32,1.29,1.15,1.15,2.06-.37,4.05,1.76,6.21.06.64-.5,1.88.83,2,.76,1.48-.73,2.73,2.07,4.22.22.17-.2,1.24-.2,1.25.35.05,2.37,2.18,2.1,3.41,2.53,2.64.91,5.51,1.62,6.48,4.45.7,2.08,2.27-2,2.25.56,0,1.79,1.7,1.19,2.49,1.81,1.43,1.13,2.39,2.82,4.46,3.41,1.49.43,2.47,2.22,4.16,3a8.18,8.18,0,0,1,3.19,2.8c1,1.56,2.49,2.65,3.56,4s2.41,2.6,3.56,3.95a21.79,21.79,0,0,1,3.55,4.53c.56,1.18,2.49,1.39,2.9,2.23.52,1.07,1,2.75,1.68,3.19,2.05,1.38,3.21,4.26,6.12,4.17,1.73,0,1.34,3.25,3.59,2,1.08.91,2.6,1.1,3.57,2.26.82,1,1.65,2.12,3.27,1.76a.72.72,0,0,1,.91.83,1.54,1.54,0,0,0,1,1.56c1.92.75,4.07,1.14,5,3.29.81,1.85,3.09,2.06,4,3.76s3,2.56,4.37,4,3.69,2.41,4.52,4.15c.94,1.95,3.07,2,4.07,3.7C506.81,387.82,506.78,392.57,505.23,392.9Z"/></svg>