<svg xmlns="http://www.w3.org/2000/svg" width="1080" height="1080" viewBox="0 0 1080 1080"><defs><style>.a{fill:#f0dfd2;}.b{fill:#fff;}.c{fill:#f15a29;}.d{fill:none;}</style></defs><title>Mushroom 5</title><path class="a" d="M557.7,470.73s-10.93,22.38-27.1,38.55c-15.3,15.3-49,41.2-49,41.2s7.8-31,6.95-44.6-4.95-23.25-10.05-29.2c-7.53-8.78-16-1.83-16-1.83l-3-1.27s-5.1,7.65-7.65,20.4a129.64,129.64,0,0,0-2.13,20.82A206.31,206.31,0,0,1,434,554.33c-12.93,24.86-32.25,42.5-36.13,88-4.67,54.83,21,84,49.88,108.68,26.91,22.95,53,44.32,53,44.32s42.08-2,86.28-19c49-18.84,68-52,68-52s-28.9-7.65-43.35-19.55-28.18-28.63-28.18-28.63,33-24.37,43.23-38.82,26.12-40.87,41-55.8c15.3-15.3,32.87-24.23,44.77-37.83s29.05-34,19.7-41.65S712,505.12,706,508.73c-10.63,6.37-20.4,14.15-29.75,20.95s-14.38,9.46-20.4,13.6c-13.6,9.35-12.7,4.35-12.7,4.35s19.22-31.13,30.7-58.75c9.63-23.19,12.6-34.85,16-55.25,3.1-18.62,2.55-27.2-1.7-31.45-3.85-3.85-8.93-1.28-8.93-1.28s3.83-10.62-3-14.87S662,381.85,651.17,395c-8.07,9.78-7.62,14.88-13.57,22.53s-13.2,17.85-19.15,24.65-19.55,22.1-19.55,22.1,1-20-8.5-27.5c-12.33-9.78-28.9-2.25-46.75,2s-25.5,6.8-25.5,6.8-14.45-1.15-21.25,2.25c-7.21,3.6-8.78,5-9,10.2-.43,8.07,3.1,8.35,3.1,8.35s6.06,6.23,22.1,8.1C531.32,476.55,552.17,472,557.7,470.73Z"/><path class="b" d="M459.5,473.58c-2.28-1.14-3.83,6.37-6.8,15.72-2.57,8.07-3.83,21.25-1.28,21.68,4.13.69,12.93-7.66,13.18-14.45C465,485.05,461.2,474.43,459.5,473.58Z"/><path class="b" d="M517.72,449.35c0,10.84-2.55,13.6-14,15.73-7.93,1.47-15.43,2.82-15.85-6.1-.17-3.5-1.17-6.72,9-9.2C512.62,446,517.72,444.25,517.72,449.35Z"/><path class="c" d="M450.15,412.38,435.27,424.7s20.83,17.43,26.78,26.78,9.73,16.7,17.42,26.87c13.18,17.43,22.1,24.53,35.28,39,11.54,12.66,17.72,20,21.55,24.65,2.4,2.94,4,2.55,7.35.85s9.65-2.25,5.82-8.63c-2.76-4.61-16-21.53-22.52-30.17-10.63-14-35.7-38.55-43.35-50.45S460.35,419.18,450.15,412.38Z"/><path class="c" d="M382.15,329.93s42.07,73.52,46.75,86.7c3.06,8.63,7.37,28.17,7.37,28.17s5-3.1,5.17-11.81c0-.67,7.16,10.24,7.16,10.24s4.26-2,2-13.43c-.42-2.12,5.51,5.51,10.63,10.63,1.27,1.27.42-8.08-2.13-15.73,5.53,2.13,10.2.85,14.45-.85-5.1-4.25-7.41-3.62-15.72-11.47-15.3-14.45-55.68-96.48-55.68-96.48Z"/><path class="a" d="M388.85,316.13c-23,10.2-22.35,36-18.85,57.87,4,25,7,36.76,7,47,0,13-3.55,26.75-1,31s8,0,14-3c7.83-3.91-1.65,4.95,6-1s14-7,18-11c16.87-16.87,13.29.71,23-9,13-13,12.7-5.85,19-9,10-5,3.11-8.37,11-14,5.95-4.25,6.47.38,12-1,6.8-1.7,7.35-2.9,15-8s.35-3.9,8-9,1.27-1.12,6-9c3-5-1-4-5-7,.85-4.25-5-2-12-6-6.6-3.77-12-8-18-11-7.64-3.82-24-20-39.95-31.62C418.9,312.07,400,311.19,388.85,316.13Z"/><path class="d" d="M648.86,534.36c-1-.61-.74-1.15,0-1.78a10.92,10.92,0,0,0,1.76-1.77c.77-1,2-1.57,2.4-3a38.82,38.82,0,0,1,3-7.74c1.36-2.44,3-4.6,4.08-7.32,1.24-3.25,1.73-3.07,1.84-4.65,0-.48.33-1.18.6-.92,1.43,1.37,1.43.4,1.41-.75,0-1.63-.27-3.34,1.46-4.39,1.2-.73-.06-2.26,1-3.08.81-.61-1.2-1.89.48-2.47s.46-2.48,1.43-3.4a12.77,12.77,0,0,0,1.67-2.83,41.28,41.28,0,0,0,3.81-7.89c.36-1,1-1.92,1.38-2.94s.44-1.84.79-2.67c.45-1,.57-2.4,1.06-3,.87-1.06-.29-2,.28-2.59,1.86-1.79,1-5.29,4.13-6.26.75-.23.13-.72-.16-1a1.08,1.08,0,0,1,0-1.7c2.44-2.32,2.89-5.32,2.62-8.4-.33-3.81,2.78-6.77,2.37-10.57,0-.31.61-.76,1-1,1.31-.9-.3-1.21-.33-1.82a3.84,3.84,0,0,1,.14-1.93c.39-.68,1.23-1.15.67-2.08-.13-.21-.54-.3-.84-.34-.46-.06-1.08-.07-.74-.72,1.46-2.79.49-6.33,2.76-8.86-.93-1.61,1.78-2.67.82-4s-1.07-1.8,0-2.86c.91-.86-1.77-2.09.12-3.14.15-.08.19-.9-.31-1.31a2.79,2.79,0,0,1-.48-3.59c1-1.15-.12-1.58-.11-2.3,0-1-1.1-1.27-1.05-2.09.09-1.68-.37-3-2.24-3.12a6.89,6.89,0,0,1-4.23-1.93s-.49.3-.67.53a8.92,8.92,0,0,1-5.24,2.93c-1.78.34-2.61,4.48-5.13,1.44-.12.11-.35.23-.34.34.17,2.67-4.2,2.46-3.49,5.47-2.77,1.62-2.48,5.05-4.28,7.21-.81,1,0,2.16-1,3.15-1.21,1.24-2.54,6.22-2.39,8.13.11,1.4-1.87,2.4-1,3.53,1.18,1.48.29,2.81-.24,3.64-.94,1.46-1.32,2.49-.05,3.86.49.52.33,1.5-.33,1.59-1,.13-1.65.29-1.45,1.39.34,1.85-.83,3.42-.91,5.1a7.26,7.26,0,0,1-2,5.24c-.65.65.54,2.86-.52,3.13-2.67.69-1.63,3.1-2.38,4.55-.6,1.17-.87,2.54-1.66,3.82a33.91,33.91,0,0,0-2.31,4.53c-.61,1.45-.33,3.23-2.21,4,.32,2.83-1,4.95-3,6.78.79,2.19-1.53,3-2.08,4.64s-1.76,2.58-2.9,3.74-1.8,2.9-2.75,4.33-3.12,3.1-3.09,4.62c0,2.27-1.91,2.54-2.65,3.89-1.59,2.93-3.1,6.2-6.48,7.79-.48.23-1.22.69-1.08,1.51.27,1.62-2.81.58-2,2.59s-1.71,1.09-2.15,2.54c-.9,3-4,3.85-6.66,4.85a2.19,2.19,0,0,1-1.85-.21c-.85-.73,0-1.32.38-2a29.14,29.14,0,0,1,3.59-5.51c1.07-1.24,3.25-1.65,3.38-3.48s3.24-1.69,2.36-4c-.15-.38.42-.75,1-.73.94,0,2.1.34,2-1.34-.1-1.14,2.37-.2,1.58-1.4-1.42-2.18.94-.81,1.18-1.45s1.05-1.06,1.3-2a7.27,7.27,0,0,1,1.88-3.18,3.52,3.52,0,0,0,1-3.1c-.06-.9,3.41,0,1.08-2.13,1.23-1,1.95-2.63,4-2.47,1.18.09,1.18-1,.59-1.68s-.68-.84,0-1.47c2.88-2.75,2.88-7.37,6.33-9.77,1.24-3.5,1.9-7.27,4.6-10.09a1.64,1.64,0,0,0,.4-1.34c-.11-2.91,1.59-5.08,3.2-7.15.72-.91.48-2.3,1.69-2.83-2.54-2.25,1-3.06,1.14-4.71.07-1.08,1.15-1.54,1.83-2.22,1.1-1.1-1.55-1.65-.28-2.81,1-.89.43-2.22.37-3.31-.07-1.38,1.34-2.13,1.1-3.6a9.21,9.21,0,0,1,.87-5.11c.59-1.43-.72-3.86.6-4.64,2.2-1.31-.4-3.16,1.06-4.36,1.11-.91-.31-2.81.79-3.61s1.12-3,2.56-3.13c1.78-.13-.88-3,1.65-2.24.38.12.62-1,.38-1.22-.8-.83-1-1.5.08-2.19a2.41,2.41,0,0,0,1-2.6,2.17,2.17,0,0,1,.8-2.18c1.31-.95,4.05-.42,3.51-3.42-.06-.35,1.05-.34,1.63.16,1.25,1.06,1.69.9,2.21-.86a3.58,3.58,0,0,1,3.18-2.77c3.56-.54,4.66-2.88,4.67-6.7a10.19,10.19,0,0,0-.06-3,7.14,7.14,0,0,0-1.78-3.06c-1-.91-2.66-.89-3.63-2-1.07,1.8-2.09-.44-3.17-.06-.45.16-1.1-.15-1.47.07-1,.56-1.73,1.62-2.72,1.86s-1.28.89-2,1.15c-1.74.59-2.92,2.46-5,2.35.63,1.93-2.73,1.11-2.1,3-1.8,0-1.66,2.42-3.32,2.56-2.39,3.61-5.65,6.7-6.67,11.13-.14.61.06,1.21-.43,1.84-1.83,2.38-3.58,4.83-5.32,7.28a98.36,98.36,0,0,0-6.19,8.95c-1.67,3-4.08,5.5-5.64,8.65-1.12,2.26-3.83,3.68-5.45,5.77s-2.64,4.35-4.9,5.91c-2.53,1.74-2.92,5.51-6,6.88-.13,1.85-2.66,2-2.73,3.77-.08,2-2.19,2.58-2.66,4.44-.36,1.42-2.67,1.72-3.42,3.47-.42,1-1.46,1.62-1.32,3s-1.9.82-2.29,2.48c-.3,1.32-1.7,2.43-1.79,4.27a6.29,6.29,0,0,1-1.85,3.7,13.28,13.28,0,0,0-2.12,2.59c-2,3.38-3.44,7.11-6.37,9.89a1.82,1.82,0,0,0-.51,1.26c.07,1.18-.26,1.59-1.55,1.89s-.05,2-1,3a77.26,77.26,0,0,0-6,6.92c-3,3.83-6.05,7.66-8.16,12.11-.67,1.41,0,1.1,1.08,2s2.53.38,3.55,1.24c1.78,1.49,3.93,2.84,4.29,2.54,1.11-.93,1.74-.6,2.63.32.53.54.81,1.92,2.07,1.28,1.56-.8,2.07,1.56,2.4,1.27,1.33-1.21,2.12-.3,2.5.59,1.06,2.45,1,2.5,2,2.59s2.16-.18,2.85.3,1.75.39,2.07,1c.78,1.49,1.82-.88,2.09.12s.76,1.37,1.74,1.8c.75.33.75,2.35,2.29.8.11-.11.84.12.85.21.1,2.37,1.9,1.54,3.2,1.82,1,.21,2.82.85,2.82,1.29,0,2.84,3,.75,3.55,2.42,2.13-1.77,3.13.68,4.67,1.21a3.43,3.43,0,0,1,2.14,2.29c1,2.32,2-.73,3.1-.25a1.91,1.91,0,0,1,.79.48c1,1.33,2.56,1.83,4,2.48.4.17,1.17.33.86.64-1.59,1.59.31,2.14.91,2.3a4.36,4.36,0,0,1,3.16,2.77c.51,2.16,1.13,1,1.62.28.92-1.32,1.45-.53,2.17.17s.19,1.25.35,1.86a5.3,5.3,0,0,0,.34.86c.22-.14.63-.3.62-.43-.13-1.44,1-2.1,1.9-2.69,1.2-.82.17-1.8.5-2.5a9.43,9.43,0,0,1,2-2.15,8.59,8.59,0,0,1,1.79-1.73c1.42-.75-.49-2,.11-2.07,1.89-.3,1.25-2.29,1.8-2.65,1.49-1-.26-4.81,3.29-3.66C648.49,535,648.71,534.57,648.86,534.36Zm-34.6-77.06c.44-.56,1-1.95,2.11-.5a1.32,1.32,0,0,0,1.28,0c2.48-2.13,4.54.1,6.36,1,1.13.55,2.59,1.91,3.58,2,2.69.35,3.17,2.71,4.76,4a2.29,2.29,0,0,1,.56,2.69c-.31.93-1.46.32-1.9.46-1.64.14-2.84.07-3.79-1.18a7.57,7.57,0,0,0-2.84-2.66c-.8-.31-1.93-1.71-3-.27,0-1.89-1.58-1-2.44-1.44a33.49,33.49,0,0,1-3.72-1.78C614.46,459.16,613.39,458.42,614.26,457.3Zm-.14,6.48c1.27,1,2-1.48,3.25-.06.68.76,2.4,0,3.32,1.09.67-1.06,1.14-.46,1.77.12,1.75,1.61,5.2,1.09,5.57,4.49.07.62,2.05,1.27-.3,1.68-1,.17-1.88,1.11-3.08.9a5.7,5.7,0,0,1-5.1-2c-.68-.86-1.81-.72-2.41-1.4-1-1.16-1.24.56-1.84.38a10,10,0,0,1-3-1.2c-.93-.67.22-2.23-1-3.07C611,464.45,613.19,463.07,614.12,463.78Zm40.16,6.43c3-.48,4.63-.12,6.22,1.56a3.71,3.71,0,0,0,3.42,1.25,1.2,1.2,0,0,1,.83.27c-.16,2.5,1.8,3.67,3.22,5.18-1.53,1.06-.7,2.7-1,4-.18.68-.7.23-1-.11-1.49-1.64-4.23-2-4.35-5.17,0-1.25-2.38-2-3.9-2.17a8.4,8.4,0,0,1-3.39-1.46c-1-.59-2.16-2.08-2-3C652.44,469.3,654.15,470.25,654.28,470.21ZM646.63,478c-.77-.22-.89-1.35-.49-1.51,1.27-.51,2.38-2.08,3.84-1.42a40.22,40.22,0,0,1,7.66,4.24c1.73,1.3,2.42,3.75,4.26,5.15.17.13.07.61.1.93,0,.78-1.68,3.37-2.37,3.47-.21,0-.51-.22-.69-.41-.79-.84-1.51-1.73-2.9-1.45-.89.18-.9-.53-1.07-1.2-.48-1.91-2.34-2.85-3.3-4.5S648.68,478.56,646.63,478Z"/><path class="d" d="M524,528.33,518.56,522c-.48.07-.67.4.08,1.28.27.33-.37,2.16-.79,2.24-2.31.43-2.42,2.94-3.88,3.82-1.7,1-2.89,2.63-4.51,3.57-1.85,1.06-2.91,3.62-5.63,3.11-.23,0-.76.28-.77.44-.05,1.59-1,2.15-2.39,2.56s-1.56,2-3.17,2.08c-.74,0-2,1.72-2,1.68-2.46-2.44-2.47.7-3.15,1.5-1.6,1.89-3.08,3.8-5.5,4.72a2.63,2.63,0,0,0-1.82,3.06c.08.66-.06,1.34,0,2,.19,1.47-.31,2.2-1.87,1.93a.87.87,0,0,0-1.11.66c-.11.65-.06,1.34.92,1.35.72,0,1.31.12.52,1-1.51,1.68-1.05,1.86-2.64,6-.95,2.51-1.25,5.63-3.78,7.42-1.07.75-.82,1.25-.12,2.21.53.73-.51,1.73-1.31,1.33a20.31,20.31,0,0,1-2.79-1.69c-.37-.26-.88-1-.78-1.11,1.29-2.06.7-4.65,1.95-6.7.47-.77,2.13-.71,1.84-1-1.3-1-.07-1.58.16-2.31.73-2.37,2-4.55,2.07-7.17a7.22,7.22,0,0,1,.51-2.91c.75-1.23-.26-3.06,1.59-3.87s-.87-1.85.07-3.13c1.67-2.29,2.9-4.84,1.8-7.94-.54-1.53,1.91-1.41,1.79-1.53-2.26-2.18.61-4.13.22-6.21-.17-.89-.38-2,.67-2.71,1.34-1-.74-1.56-.33-2.78.91-2.69,3.18-5.45.64-8.44,2.59-3-.6-7.11,1.91-10.21a2.57,2.57,0,0,0,0-2.41c-1.37-1.94-.67-4.09-1-6.12a54.43,54.43,0,0,0-1.58-7.84,24.09,24.09,0,0,0-6.31-10.39c-1.07-1-2.69-2-2.94-3.25a1.56,1.56,0,0,0-2.51-1.21c-1,.8-1.38.33-2.29,0a8.09,8.09,0,0,0-3.91,0c-.54.09-1,.88-1.43,1.35a2.06,2.06,0,0,1,.95,2.57c-.46,1.19,1.34,1.85.55,2.88a2.55,2.55,0,0,0-.3,2.72c1,2.38,2.89,4.63.81,7.35-.08.1-.07.43,0,.47,2.59,1.63-.4,4,.82,5.85-1.44,1.2-.09,3.62-1.18,4.26-1.36.79-1.82,1.39-1.68,2.84.16,1.77-.62,2.16-2,1-.52-.43-.91-.34-1,.15-.25,2.1-2.31,2.68-3.29,4.15L454.26,513c-1.19-.12-1.32.6-1.27,1.54.08,1.45-1.38,2.43-1.07,4.1.25,1.33-1.39,2.47-.94,4.07s-2.8.9-2.09,3.12c.25.77-.75,1.94-1.15,2.94-.32.8-2.08,1-1.29,2.08.95,1.36-1.19,1.73-.61,2.81-.56.23-1.33.32-1.65.74s1.18.77.24,1.79-.27,2.81-1.79,3.76c-.85.53.57,2-.83,2.84-1.19.72-1.16,2.61-2.5,3.42-1.15.68-1.29,1.54-.34,2.56.13.14-.06.86-.15.87-2,.23-1.81,2.86-3.54,3.33-.64.18-1.5.09-1.25,1,.4,1.45-1.75,2.5-.88,3.49,1.07,1.22.41,1.71-.36,2.17s-2.12.57-1.83,2.2a4.53,4.53,0,0,1-.29,2.84c-.35.61-2.64.27-.68,1.82a13.67,13.67,0,0,1-2.15,2.09c-1.17.73-3.07,1-.94,2.8-1.78.64,0,3.33-1.65,3.49-2.17.21-1,2.55-2.65,3.14s-1.79,2.54-1.63,4.26c0,.22-.37.69-.55.68-1.88-.15-1.5,2.3-3.36,2.64-2.23.41-.09,3.41-1.77,4.66-.42.32-.4,1.18-.76,1.66a5.72,5.72,0,0,1-1.76,1.74c-1.46.75.65,1.74-.13,2.11-1.85.88-1,3.27-2.58,4.22s-1.2,3-2.07,4.31c-.26.4-.73.7-.89,1.13s1.33.6.53,1.37c-.29.29-.89.22-1.32.4s-.32.41.09.7c1.23.88-.44,1.17-.41,1.83a29.75,29.75,0,0,0,0,3c.14,1-.87,1.3-1,2.09-.37,1.67-.4,3.66-1.38,4.88-1.24,1.56.46,3.81-1.6,4.88,1.45,3.11-1.26,6.16-.12,9.39.3.86-1.7,2.47-.79,3.45,1.43,1.54-.53,2.46-.16,3.78a14.67,14.67,0,0,1,.07,4c0,1.48.38,3.21-.24,4.39-.88,1.68.95,2.8.28,4.3-.3.67.22,1.67-.64,2.22-.42.27-.49.63-.09.69,2.74.42,1,1.35.26,2.14-.34.36-.43.53-.12,1.09,1.48,2.73-.41,6,1.29,8.75a3.37,3.37,0,0,0,.24,4.76c-2.49,1.79.66,3.35.33,5.15-.08.43.65,1.65.7,2.62a16.7,16.7,0,0,0,1.65,3.9,5.81,5.81,0,0,1,.34,1.35c.28,1-.67,1.4-1,2.1a1,1,0,0,0,.43,1.28c.52.18,1.27-1.32,1.27-.56a14.31,14.31,0,0,0,3.26,9.71c.08.09,0,.32,0,.49.15.77-.41,1.72.41,2.31.48.35.95-1.76,1.56-.13.27.71-.09,1.52.51,2.3a14.13,14.13,0,0,1,3.53,8,3.67,3.67,0,0,0,.39.83c1.12-1.36,2.15-.39,2.38.5a4.57,4.57,0,0,0,1.89,2.71c1.3.89,1.09,3.67,3.72,2.94.38-.11.61.58.63,1.12,0,.72-.19,1.34.89,1.92,1.88,1,2,3.78,4.09,4.83-.73,2.15,3.12,2.27,2,4.6,0,0,.56.51.75.45,1.81-.56,2.12.75,2.65,1.94a11.59,11.59,0,0,0,4.73,5.18,17.28,17.28,0,0,1,5.33,5.09c1.41,2.22,3.56,3.41,5.2,5.2,1.13,1.24,4.09,1.18,3.3,4,2.45.35,2.7,2.84,4.09,4.21.12.12.31.36.35.34.65-.38,1.38-1.87,1.61.37.18,1.67,2-1.61,2.29.54,2.63.9,3.91,3.75,6.59,4.59.89,2.81,4.56,2.82,5.54,5.54,2.17-.05,2.57,2.45,4.25,3s2.43,1.79,3.36,3.15,2.53,2.27,3.88,3.32a38,38,0,0,0,3.33,2.74c1.1.68,1.67,2.65,3,3.54a25.21,25.21,0,0,1,6.5,5.68c2.45,3.35,5.65,2.68,8.9,2.42.65-1.4,2.22-.33,3-1.08,1.52-1.41,3.86-.17,5.29-1.74,1.55,1.68,3.11.21,4.67,0,.49-.07,1,.43,1.29.39,1.18-.17,2.29.45,3.61-.28s2.82-1.58,4.52-1.12c1,.29,2.32-.91,2.44-.78a2.51,2.51,0,0,0,2.72.74,17.35,17.35,0,0,1,7.1-1l7-2.85c1.26.29,1.76-1.31,3-1.18,1.11.12,2.34.29,3.09-.94,1.48,1.8,1.43.13,1.78-.76.14-.33.38-.15.72.15a3.22,3.22,0,0,0,1.19.55c1.35-2.63,4.4-1.46,6.4-2.83a5.42,5.42,0,0,1,4.49-1.13c.79.23,1.11-1.62,2.34-.28.88.94,1.24-.19,1.75-1.18.64-1.26,2.41-.49,3.67-.5,1.68,0,2.15-2.92,3.6-1.94,1.77,1.21,2.42,1.2,2.85-.87,2.07,0,3.8-1.65,6-1.25a3.57,3.57,0,0,0,3.84-1.58A3.26,3.26,0,0,1,596.5,770c1.32.2,2.44.16,2.81-1.66.12-.58,1.58-1.31,2.35-1.23,1.58.15,2.36-.77,3.42-1.56.6-.43,2.19.76,2.07-1.18,1.41-.4,3-.47,3.44-2.35,2.26,1.16,2.15-2.3,4.1-2.06,1.4.18,1.31-.27,4.1-1.9a68.55,68.55,0,0,0,14.21-11c1-1,2.09-2,3.14-2.89,1.24-1.1,2.07-2.77,3.19-4.14.68-.82,3.17-.61,1.91-2.76,2.52-1,3.44-3.57,5.27-5.21,3-2.69,3.44-3,4.83-5.85.27-.54,1.12-1.1-.16-1.15-1.06,0-1.5-1-2.56-1.17s-1.47-1.37-2.9-.29c-1.09.83-.2-1.62-1.38-1.59-.32,0-.79,0-.93.13-.64.83-1,.71-1.83,0s-2.63.55-2.78-1.75c-.06-1-2,.19-2.54-.74-.8-1.49-1.34.61-2.22,0-1.35-1-3.16-1-4.55-2.41-1-1-3-.94-3.72-2.86-.32-.87-.61.12-.76.44s.18,1.51-.93.76-1.74-2.74-3.43-2.51c-2.34.32-1.44-2.32-2.82-2.72s-2.67-1.78-4.41-1.42a108.27,108.27,0,0,0-10.84-8.84c-1.13-4.41-6.84-4.74-8.07-9.07-2,0-2.45-2-3.84-2.79s-1.36-3.06-3.43-3.61c-1.55-.41-1.63-2.59-2.78-3.8-2-2.06-2.07-2.45-3.78-.86-.84.79-2.55.63-2.6,1.77-.11,2.45-2.22.57-3,1.61a7.14,7.14,0,0,1-2.47,2.45c-4.77,2.21-8.93,5.61-14,7.21-.58.18-.78,1.53-1.86.39a2.4,2.4,0,0,1-.71-2.67c1-1.78,2.84-3.71,4.63-3.22,1.54.42,2-.5,2.11-.9,1-2.72,4-2.72,5.67-4.46.18-.19,1.44,1.91,1.54-.4,0-.51.44-.77,1-.75.94,0,1.87.31,2-1.32.1-1,1.36-1.58,2.56-1.85a11.54,11.54,0,0,0,6.25-4.21,7.59,7.59,0,0,1,4.43-2.54,4.32,4.32,0,0,0,2.12-1c4.21-3.51,6.91-8.79,12.51-10.72.19-.06,0-1.47.88-1.32,2.39.38-1-2.13,1.18-2.15,1.11,0,2.18-1.21,3.55-1,.1,0,.23-.22.35-.33.48-.47,0,0-.28-.31-1.13-1.7.47-2,1.24-2.18.93-.25,1.82-.18,2.62-1s.11-2.27,2-2.24c1.26,0,1.31-2,2.13-3s1.87-1.89,2.82-2.84c2.51,2.34,1.1-1.47,2.46-1.57,2.67-.2,2.52-4.36,5.54-4.48.18,0,.52-.5.49-.74-.29-3.06,3.79-4,3.4-7.1,2.39-2,3.47-4.79,4.72-7.55.52-1.14.88-3.36,3.25-2.61.12,0,.58-.48.54-.54-1.08-1.93.29-3.06,1.41-4.19a7.13,7.13,0,0,0,1.93-3.74c.25-1.12.78-3.11,2.32-3.34.62-.09,1,1.31,1.59-.51.89-2.6,2.16-5.5,4.19-7.13,1.63-1.3,2.63-2.38,3-4.31.28-1.55,2.52-1.9,2.59-3.3a3.45,3.45,0,0,1,2-3.15,8.3,8.3,0,0,0,3.68-4c1.8-3.53,5.52-5.33,7.28-8.79,1.61.26.84-1.86,1.61-1.86,2.66,0,4.08-2.31,6.25-3.06,1-.33,1-.73,1.41-1.48.71-1.38,1.2-3.47,3.75-2.65,1.1.35,1.7-.91,2.27-1.62a10.43,10.43,0,0,1,4.47-3.55c3-1.2,5.08-4.21,8.34-5.22a1.22,1.22,0,0,0,.69-.7c1.14-3.39,4.52-4.16,7.07-5.74A9.65,9.65,0,0,0,707,547c.87-1.39,1.06-3.12,2.93-4.08,1.54-.78,2.31-3,3.78-4,4.17-3.07,6.5-7.73,10-11.37a14.4,14.4,0,0,0,3-4.69,12.73,12.73,0,0,1,2.43-4.5c1.28-1.37.81-3.83,2.82-4.82-.64-1.89,1.65-3.17,1-5.09a10.13,10.13,0,0,0-2.56-4.45c-.67-.64-1.56-1.12-1.53-2.39,0-.6-1.06-.81-1.58-.32-.83.78-1.51,1.22-2.45.2-.75-.82-1.33,0-2.07.17-1.74.47-3.09,1.81-4.56,2.23-1.86.53-3.4,1.83-5.14,2.06s-.53,2.5-2,2.08c-.9-.24-1.08,1.72-2.42.44-.56-.54-.51,1.75-1.64,2.12-2.62.86-4.14,3.11-5.91,5-1.11,1.18-3,1-3.66,1.85-.88,1-1.61,2.33-2.64,3.33a1.55,1.55,0,0,1-.86.32c-3.86.57-6.09,3.18-8,6.28a4.19,4.19,0,0,1-2.12,1.81c-1.41.58-2.73,1.85-4,2.33-2.23.84-3.16,3.08-5.4,3.9-1.1.41-3.19,0-3.32,1.25-.22,2.08-2.25,1.41-3,2.67s-2.45,1.89-3.78,2.75a1.43,1.43,0,0,1-1,0c-1.63-.43-2.26.44-2.72,1.83-.12.35-.75,1.45-1.3.88-1.57-1.61-2.23-.12-3.18.66a16.74,16.74,0,0,0-2.2,1.73c-1.61,2.2-5.67,1-6.13,4.58-.08.56-.86.33-1.33.32-2.52,0-2.52,0-3.81.86-2.09,1.44-2.16,2.23-.55,3.79.6.59,2.35,0,1.87,1.61-.3,1.08,1.16,1.85.72,2.45-1.69,2.29,1.75.64,1.31,1.81-.92,2.4,1.92,3.14,2.23,5.11.18,1.13,1.06-1.39,1.62-.2a6.73,6.73,0,0,1,.18,2.38c-.31,1.09.71,2.55-.7,3.14-1.13.47-1.68-.81-2.33-1.48-2.31-2.36-6-3.66-6-7.83,0-.21-.38-.53-.64-.61-4.05-1.33-4.92-6.6-9.3-7.52,0,0,.05-.38,0-.46-1.37-1.24-2.75-2.48-4.16-3.69A3.1,3.1,0,0,0,626,551a11.45,11.45,0,0,1-5.35-3.82c-.73-.83-1.35-2-2.58-2.15s-2.83.45-3.54-1.07c-1-2.13-2.4.08-3.51-.45a32.2,32.2,0,0,1-3.74-1.8c-1.58-1-4.38-.52-4.5-3.45-1,.14-1.53-1.09-2.78-.84-1.41.29-2.43-.26-3.27-2-.75-1.52-3.45.47-4.9-1.13s-3.27-1.74-4.94-2.53a12.49,12.49,0,0,1-4-3.43,1.11,1.11,0,0,0-1.35-.33c-1.66.68-2.62-1.37-4.09-1-1.87.47-2.3-1.76-3.11-1.87-3.73-.49-6.45-3.39-9.86-4-2.42-.41-3.17-1.62-4.11-3.3-.66-1.18-.56-1.79.89-1.89s3.62.65,4.43-1.26c1.07-2.52,3.91-4,4.23-6.72.18-1.58,2.74-.52,2.14-2.59-.46-1.59,1.42-2,2.12-3.09a8.25,8.25,0,0,1,3.11-3.12c1.37-.67.09-2.74,1.08-3,3-.66,3-3.43,4.1-5.32a57.87,57.87,0,0,1,5.66-8.67,14.27,14.27,0,0,0,2.79-5.31,14.78,14.78,0,0,1,2.5-5,15.94,15.94,0,0,1,2.38-2.47c.9-.82.12-2.58,1-4.05a6,6,0,0,0-.13-5.23c-1.06-2-.76-4-.26-6.07.09-.36.94-.71.17-1-2.76-1.21-.53-4.49-2.56-6,.77-2.66-1.79-4.31-2-6.66-2.45-.52-3.91-2.55-5.76-3.92-1.07-.79-2.58.12-3.07-1-.76-1.72-2.3-1.18-3.23-1-1.48.23-2.88-1.11-4-.44-2.16,1.35-4.41.74-6.63.91-1,.07-1.93-.17-2.68.83-.93,1.25-1.78-1.64-2.72-.2A3.43,3.43,0,0,1,560,437c-2.23-.47-4.06,1.44-6.08,1-1.77-.42.14,2-1.92,1.75-3.46-.46-6.84,1.6-10.44,1.33-3.92,2.4-8.55,1.86-12.73,3.09a3.55,3.55,0,0,1-2.72,0,2.12,2.12,0,0,0-2.26.51c-.48.45-.79,2.15-2.12.72-.4-.44-1.59-.87-1.35.5.15.85,1.63,1.13,1.63,2.31,0,.15,0,.4-.08.46-1.43.93-.91,2.38-.89,3.62a7.43,7.43,0,0,1-2.26,5.59,20.12,20.12,0,0,0-2.85,3.29c-1.23,1.95-4,2-5.53,3.83-2.09-2.58-2.14.77-3.22,1.11a29.46,29.46,0,0,0-3.94,1.34c-.65.32-1.59,1-1.19,1.94.71,1.62,1-.41,1.64-.3s1,0,1.3.5l5,1.52h5.5c1.56,2.58,3.09-.9,4.69,0,.39.21,1-.05,1.48,0,1.4.27,2.69,1.64,4.24.05.42-.44,1,.28,1.11,1.08s.82,1.18.9.12c.13-1.69,1.21-1.19,2.1-1.26,4.86-.36,9.69.11,14.62-.78a72.32,72.32,0,0,0,14.06-3.59c1.77-.71,3.84-.14,5.34-1.62,1.27-1.26,3.32-.75,4.68-2s3.52.36,4.46-1.7c.19-.42.35-.24.72,0,1,.74,1.6,3.66.78,4.43-1.37,1.28-4.06.28-4.78,2.77-.16.55-.82.48-1.3.43a7.32,7.32,0,0,0-5.8,1.7c-4.46-.06-4.34,4.45-6.6,6.6,1.53,1.13-.39,2-.24,3.08s-2.41.29-1.54,1.36c1.1,1.36-.62,1.51-.55,2.4,0,.64-.33,1.91-2.14,1.31-1.56-.52-.06,1.73-1,2.34s-.57,2.31-1.79,2.73-.33,2.86-2.39,2.52c-.14,0-.51.44-.54.69-.44,4.08-4.07,6-6.27,8.77-.82,1-3.08,1.66-3.54,3-.53,1.53-3.14,1.75-2.32,4,.08.23-.72,1.25-1.74,1.45l2.52,3.35Zm-19,69.2c0,.66,0,1.33,0,2.91-1.38,4.22-1.27,9.55-3.31,14.71-1.85,4.67-4.32,9.32-4.73,14.55a3.9,3.9,0,0,1-1,2.53c-2.21,1.8-2.51,4.69-4.19,6.88s-2.52,4.86-5.41,6.18c-1.21.56,0,2.61-1,4s-2.91-.51-3.54,1.85c-.54,2-3.82,2.47-5.76,1.4-1.16-.64-1.25-1.7-.4-2.78,2-2.55,5.27-4,6.39-7.35.18-.54.81-.51,1.3-.44,1.32.18,1.89-.41,1.61-1.67a1.92,1.92,0,0,1,1.84-2.64c1.91-.23-.46-2.23,1.34-2.83,1.1-.37,1.93-2,2.56-3.16a13.11,13.11,0,0,0,1.24-4c.23-1.53,1.83-3.08.07-4.7-.26-.24.11-1.08.6-.83.66.33,1,1.34,1.42-.29a32.81,32.81,0,0,1,2.62-7.89c.78-1.43-.9-2-.32-2.81.72-1.05,1.81-1.71,1.75-3.33,0-.94.78-2,1.43-2.85a2.18,2.18,0,0,0,.45-1.81c-.45-2.44,1.39-4.12,2-6.19.43-1.6,1.49-1,2.3-1S505,596.88,505,597.53Zm181.9-63c.54-.49,1.24-.91,1.68-.42,1.41,1.59,4.89,1,4.59,4.45,0,.68,2.9.33,1.6,2s.47,1.8.89,2.52c.64,1.12.31,2.25.3,3.36a2.44,2.44,0,0,1-2.79,2.54c-1.26.13-1-1.4-1.28-1.49-2-.6,1.24-2.41-.79-3-1.26-.34-.87-2-1.76-2.74-1.65-1.42-2.05-3.42-2.61-5.42C686.5,535.56,686.18,535.21,686.9,534.57Zm-4.57,4.65c.83-.67,1.45,0,2,.63,1.54,1.62,3.31,3,4.26,5.17a6.84,6.84,0,0,1,.41,1.8c-1.43,1.39.1,2.76,0,4.14-.06,1-.06,2-1.06,2.55s-1.73-.73-2.73-.84c-.46,0-1.27-1-1.18-1.38.81-3.36-2.07-5.48-2.72-8.34a18.27,18.27,0,0,1-.35-1.82C680.9,540.12,681.75,539.7,682.33,539.22Z"/><path class="d" d="M453.55,502.94c-1.11,1,1.07,1.45.44,2.35s-1.26,1.5-1,2.59a3.23,3.23,0,0,0,.28.88c.17.27.37.06.71-.22a75.76,75.76,0,0,0,8.37-8.34,2.09,2.09,0,0,0,.58-2.22c-.59-1.23,1.46-1.85.38-3.37-.71-1-.28-2.85-.31-4.32s.42-2.87-.1-4a13,13,0,0,1-.86-6.61c.07-1.15-.88-1.68-1-2.59-.08-.47-.11-1.07-.62-1a1.61,1.61,0,0,0-1,1,21.69,21.69,0,0,1-3.2,7.18.35.35,0,0,0,0,.34c1.74,1.36-1.15,2.23-.34,3.82.6,1.17-.93,2.5-1.61,3.71-.39.68.42.68.59,1.36-1.75.46.89,2.33-1.12,3.34-1.44.73-1,2.64-.29,3.92C453.86,501.64,454.34,502.2,453.55,502.94Z"/><path class="d" d="M515.51,446.91a5.7,5.7,0,0,0-4,1.26c-2.12,1.64-4.86-.11-6.83,1.77-.53.52-1.41-.28-2.12-.76s-1.52-.28-1.6.94-.7.89-1.1.23c-1.07-1.76-1.95-1.09-2.85.12-.35.47-.62.41-1.07,0-.92-.79-1.66-.91-2,.62a2.69,2.69,0,0,1-2,1.92c-2.29.8-3,2.88-2.93,4.92s2.94,2.48,3.11,4.69c.05.59.86.24,1.31.37,2.51.72,2.75.8,5.45-.53.94-.46,1-.24,1.07.56a7.21,7.21,0,0,0,.68,1.54,8.45,8.45,0,0,1,1.12-1.85c.69-.63,1.1-1.63,2.26-1.75s2.59.44,3.85-.36a10.13,10.13,0,0,1,3.33-1.56c1.45-.28-1.18-1.94,1.13-2.27,1.76-.25,2.82-2.91,4.92-3.65.87-.3.53-.86,0-1.4s-.12-1.06.11-1.7C518.47,447.1,518.29,447.18,515.51,446.91Z"/><path d="M738.14,507.44c-.18-1.92-1.94-2.82-2-4.17-.15-2.9-2.34-3.45-4.06-4.82a12.3,12.3,0,0,0-6.51-2.42c-.49-.07-1.79,0-1.31.56,1.35,1.73,0,1.14-.84,1.46-1,.42-1.27-1.28-2.44-.62-.8.44-2.14-.46-2.8.89s-2.76-.12-3.39,1.42c-.53,1.3-2.41.74-2.8,2.26-.52,1.95-2.22.56-3.27,1a6.69,6.69,0,0,0-1.13.89c-1,.77-1.51,2.26-3.12,2.13-.18,1.92-1.57,1.92-3,2.15A1.93,1.93,0,0,0,700,510a2,2,0,0,1-1.43,1.82c-2,.12-2.55,2.29-4.44,2.69-1.4.3-2,2.29-3.93,2.61-1.62.26-1.77,3-3.42,3.49s-2,2.53-3.75,2.86a5.82,5.82,0,0,0-3.44,2.49c-.84,1.13-2.45.86-3.18,2-1.95-.74-.81,2.2-2.59,2.08-1.93-.14-2.76,2.29-4.84,2.6-1.06.15-2,1.65-2.81,2.71-.92,1.26-2.76-.17-3.45,1.39s-2.93.73-3.27,1.48a4.48,4.48,0,0,1-3.9,2.68c-2.12.24-2.83,2.47-4.82,2.93a2.09,2.09,0,0,1-2.4-1.1c-.61-.79.46-1.06.82-1.34.78-.63,1.71-.77,2.17-2a21.66,21.66,0,0,0,.72-2.71c.24-1.1,1.81-.44,2.27-1.46.19-.42.8-.58.7-1.22-.33-2.18-.13-4.13,2.41-4.91.73-2.88,3.81-4.65,3.66-8a3.47,3.47,0,0,1,1.33-2.82c1.88-.81,2.41-2.15,2.6-3.93s2-3.13,2-5.17c.09-1.69,2.22-2.93,1.86-4.65-.53-2.47,2-2.73,2.56-4.41.74-2.35,2.24-4.31,2.7-6.92.4-2.29,2.36-4.31,3.61-6.46a1.79,1.79,0,0,0,.2-.91,4.81,4.81,0,0,1,.8-3.5c-2.26-2.19,2.44-.63,1.21-2.26a4.71,4.71,0,0,0,1-4.07c-.31-1.34,3.3-.65,1.21-2.62,1.8-3.28,2.27-7.1,4-10.35,1.06-2.05.59-4.3,1.78-6.29.75-1.27-.24-3.13.57-4.75a14.83,14.83,0,0,0,1.46-4.87c.15-1.33.52-2.62.61-4,.2-3.13,1.52-6.13,1.48-9.35,0-1.9-.16-3.75.88-5.64.88-1.59-.06-3.61.85-5.64,1.09-2.43-.22-5.6.89-8.33-1.54-3.47.51-7.81-2.6-10.94-.12-.12.23-.89.52-1.22s.44-.71.2-.69c-2.51.14-3.68-1.8-5.2-3.2,0,0-.31.1-.33.19-.89,3.86-1.71.16-2.47-.08s-1.83-.48-2.32,0c-1.32,1.19-1.43.68-1.46-.69a6.77,6.77,0,0,1,.89-3.15c.41-.85.33-2.06,1-3-1.62-1-.22-2.93-1.12-4-.56-.68-.56-2-1-2-2-.1-2.31-2-2.56-2.92-.38-1.42-1.14-1.1-2-1.47-2.63-1.19-5.14,2.87-7.69.06-1.38,1.84-3.7.21-5,1.18s-3,1.44-3.87,2.74c-1.18,1.71-3.48,1.87-4.55,3.53a9.08,9.08,0,0,1-4.08,3.24,7,7,0,0,0-3.35,4c-.5,1.41-1.2,3.06-2.73,3.86-2.42,1.25-1.51,4.59-3.8,6A6,6,0,0,0,640,408c-.61,2.6-1.46,5.13-3.5,7,.42,2-2.31,1.54-2.6,3.38-.22,1.44-2.17,2.17-2.94,3.74-1.09,2.22-2.75,4.15-4.07,6.29s-2.48,4.7-4.27,6.13-2.46,4.52-5.38,4.72c-1.34,3.35-3.9,5.8-6.2,8.43.25,2-2.35,1-2.55,2.35-.24,1.62-2,2.25-2.35,3.52-.46,1.85-2,2.5-3,3.77-.24.32-1,.87-1,.19,0-1.6-1.52-2-2.08-3.12,2.22-.88-.28-2.4.48-3.48,1.1-1.55.4-2-1.18-2-.42,0-1.74-.26-1-.62,1.36-.65-1.61-2.69,1-2.4.44.05.62-.48.12-.95-1.09-1-2.15-2.09-3.18-3.17-.69-.72.16-.67.49-.82s.75-.06.87-.26c.47-.71-.21-.74-.61-.73a2.44,2.44,0,0,1-1.85-1.32c.57-1.11,1-2-.9-1.69-1,.15-1.44-.65-2-1.19-.85-.81-1.59-1.73-2.5-2.45-1.48-1.19-3.12-3.23-4.58-3.13-2,.13-3.38.11-4.79-1.22a1,1,0,0,0-1,0c-1.71,1.76-3.6,2.21-5.79,1-1.29,1.43-3,1.06-4.58,1-3.09-.16-6,1-8.93,1.49-1,.17-2.74-1.16-3.25,1-.17.73-1.12.43-1.75.52-1.09.17-2.35-.55-3.26.55-1.48,1.78-2.11-1.33-3.42-.57-.12.07-.39-.06-.48,0-1.69,1.58-4.09,1.6-5.9,2.6a16,16,0,0,1-4.42,1.52c-1.34.32-2.23,1.31-3.92.36-1.28-.72-2.46,1.38-3.95,1.49a1.26,1.26,0,0,1-.8-.45,1.43,1.43,0,0,0-1.73-.38,69,69,0,0,0-7.77,2.94c-1.44.75-2.43,1.41-3.83.17-.83-.73-1.43,0-2.07.54-.42.36-.93,1.45-1.32.92-1.13-1.53-1.5.57-2.35.31-1-.31-1.94.84-2.57.82-1.26,0-2.68,1.34-3.29.6-1.3-1.6-2.1,1-3.25,0-1.66-1.44-2.14.65-3.09,1.29-.77.51-2,.53-2.29.15-1.27-1.64-2.15-.44-3.28.09-4.9,2.31-6.59,6.57-7.25,11.44a4.78,4.78,0,0,0,2.15,5.18c1.43,1,1.67,2.71,2.78,3.89.5.53-.3,1.68.43,2.26.2.15,1.09-.63,1.34-.48.69.43,1.21,1.63,1.8,1.63a12.6,12.6,0,0,1,8.93,3.93c.06.06.94-.75,1-.7,1.34,1.37,3.07,1,4.59.81,1.74-.19,2.82,1.78,4.6,1.08.92-.36,1.5,1,2,.82a14.78,14.78,0,0,1,10.79,0c3-2.36,7,.59,10.19-1.77a3.07,3.07,0,0,1,3.26.27c.55.45,1.23,1,1.69.54,1.88-1.82,4.15-.41,6.14-.94s3.78-1.33,5.68-2a5,5,0,0,1,1.5,0c1.42.05,1.16.51.41,1.32-.4.42-.34,1.33-.77,1.64-1.51,1.1-2.27,2.9-3,4.32-.76,1.59-2.28,2.52-2.82,4.33s-2.53,2.92-3.3,4.62-1.86,3.38-3.33,4c-2,.85-1.68,2.77-2.74,3.86a114.8,114.8,0,0,0-9,10.08l2.85,3.8c1-.2,1.82-1.22,1.74-1.45-.82-2.29,1.79-2.51,2.32-4,.46-1.34,2.72-2,3.54-3,2.2-2.81,5.83-4.69,6.27-8.77,0-.25.4-.71.54-.69,2.06.34,1.11-2.09,2.39-2.52s.79-2.09,1.79-2.73-.56-2.86,1-2.34c1.81.6,2.19-.67,2.14-1.31-.07-.89,1.65-1,.55-2.4-.87-1.07,1.69-.25,1.54-1.36s1.77-1.95.24-3.08c2.26-2.15,2.14-6.66,6.6-6.6a7.32,7.32,0,0,1,5.8-1.7c.48.05,1.14.12,1.3-.43.72-2.49,3.41-1.49,4.78-2.77.82-.77.2-3.69-.78-4.43-.37-.28-.53-.46-.72,0-.94,2.06-3.24.59-4.46,1.7s-3.41.73-4.68,2c-1.5,1.48-3.57.91-5.34,1.62a72.32,72.32,0,0,1-14.06,3.59c-4.93.89-9.76.42-14.62.78-.89.07-2-.43-2.1,1.26-.08,1.06-.8.8-.9-.12s-.69-1.52-1.11-1.08c-1.55,1.59-2.84.22-4.24-.05-.48-.09-1.09.17-1.48,0-1.6-.86-3.13,2.62-4.69,0H510l-5-1.52c-.33-.47-.82-.42-1.3-.5s-.93,1.92-1.64.3c-.4-.92.54-1.62,1.19-1.94a29.46,29.46,0,0,1,3.94-1.34c1.08-.34,1.13-3.69,3.22-1.11,1.49-1.83,4.3-1.88,5.53-3.83a20.12,20.12,0,0,1,2.85-3.29,7.43,7.43,0,0,0,2.26-5.59c0-1.24-.54-2.69.89-3.62.09-.06.08-.31.08-.46,0-1.18-1.48-1.46-1.63-2.31-.24-1.37,1-.94,1.35-.5,1.33,1.43,1.64-.27,2.12-.72a2.12,2.12,0,0,1,2.26-.51,3.55,3.55,0,0,0,2.72,0c4.18-1.23,8.81-.69,12.73-3.09,3.6.27,7-1.79,10.44-1.33,2.06.27.15-2.17,1.92-1.75,2,.47,3.85-1.44,6.08-1a3.43,3.43,0,0,0,3.93-1.33c.94-1.44,1.79,1.45,2.72.2.75-1,1.72-.76,2.68-.83,2.22-.17,4.47.44,6.63-.91,1.09-.67,2.49.67,4,.44.93-.14,2.47-.68,3.23,1,.49,1.12,2,.21,3.07,1,1.85,1.37,3.31,3.4,5.76,3.92.23,2.35,2.79,4,2,6.66,2,1.47-.2,4.75,2.56,6,.77.33-.08.68-.17,1-.5,2-.8,4,.26,6.07a6,6,0,0,1,.13,5.23c-.87,1.47-.09,3.23-1,4.05a15.94,15.94,0,0,0-2.38,2.47,14.78,14.78,0,0,0-2.5,5,14.27,14.27,0,0,1-2.79,5.31,57.87,57.87,0,0,0-5.66,8.67c-1.1,1.89-1.1,4.66-4.1,5.32-1,.22.29,2.29-1.08,3a8.25,8.25,0,0,0-3.11,3.12c-.7,1.05-2.58,1.5-2.12,3.09.6,2.07-2,1-2.14,2.59-.32,2.76-3.16,4.2-4.23,6.72-.81,1.91-2.85,1.15-4.43,1.26s-1.55.71-.89,1.89c.94,1.68,1.69,2.89,4.11,3.3,3.41.58,6.13,3.48,9.86,4,.81.11,1.24,2.34,3.11,1.87,1.47-.37,2.43,1.68,4.09,1a1.11,1.11,0,0,1,1.35.33,12.49,12.49,0,0,0,4,3.43c1.67.79,3.6,1.05,4.94,2.53s4.15-.39,4.9,1.13c.84,1.71,1.86,2.26,3.27,2,1.25-.25,1.75,1,2.78.84.12,2.93,2.92,2.41,4.5,3.45a32.2,32.2,0,0,0,3.74,1.8c1.11.53,2.5-1.68,3.51.45.71,1.52,2.29.89,3.54,1.07s1.85,1.32,2.58,2.15A11.45,11.45,0,0,0,626,551a3.1,3.1,0,0,1,.85.35c1.41,1.21,2.79,2.45,4.16,3.69.09.08,0,.46,0,.46,4.38.92,5.25,6.19,9.3,7.52.26.08.64.4.64.61,0,4.17,3.72,5.47,6,7.83.65.67,1.2,1.95,2.33,1.48,1.41-.59.39-2.05.7-3.14a6.73,6.73,0,0,0-.18-2.38c-.56-1.19-1.44,1.33-1.62.2-.31-2-3.15-2.71-2.23-5.11.44-1.17-3,.48-1.31-1.81.44-.6-1-1.37-.72-2.45.48-1.66-1.27-1-1.87-1.61-1.61-1.56-1.54-2.35.55-3.79,1.29-.89,1.29-.88,3.81-.86.47,0,1.25.24,1.33-.32.46-3.6,4.52-2.38,6.13-4.58a16.74,16.74,0,0,1,2.2-1.73c1-.78,1.61-2.27,3.18-.66.55.57,1.18-.53,1.3-.88.46-1.39,1.09-2.26,2.72-1.83a1.43,1.43,0,0,0,1,0c1.33-.86,3-1.52,3.78-2.75s2.83-.59,3-2.67c.13-1.21,2.22-.84,3.32-1.25,2.24-.82,3.17-3.06,5.4-3.9,1.29-.48,2.61-1.75,4-2.33a4.19,4.19,0,0,0,2.12-1.81c1.86-3.1,4.09-5.71,8-6.28a1.55,1.55,0,0,0,.86-.32c1-1,1.76-2.3,2.64-3.33.69-.81,2.55-.67,3.66-1.85,1.77-1.87,3.29-4.12,5.91-5,1.13-.37,1.08-2.66,1.64-2.12,1.34,1.28,1.52-.68,2.42-.44,1.52.42.41-1.87,2-2.08s3.28-1.53,5.14-2.06c1.47-.42,2.82-1.76,4.56-2.23.74-.21,1.32-1,2.07-.17.94,1,1.62.58,2.45-.2.52-.49,1.59-.28,1.58.32,0,1.27.86,1.75,1.53,2.39a10.13,10.13,0,0,1,2.56,4.45c.64,1.92-1.65,3.2-1,5.09-2,1-1.54,3.45-2.82,4.82a12.73,12.73,0,0,0-2.43,4.5,14.4,14.4,0,0,1-3,4.69c-3.52,3.64-5.85,8.3-10,11.37-1.47,1.08-2.24,3.25-3.78,4-1.87,1-2.06,2.69-2.93,4.08a9.65,9.65,0,0,1-3.36,3.17c-2.55,1.58-5.93,2.35-7.07,5.74a1.22,1.22,0,0,1-.69.7c-3.26,1-5.31,4-8.34,5.22a10.43,10.43,0,0,0-4.47,3.55c-.57.71-1.17,2-2.27,1.62-2.55-.82-3,1.27-3.75,2.65-.38.75-.46,1.15-1.41,1.48-2.17.75-3.59,3-6.25,3.06-.77,0,0,2.12-1.61,1.86-1.76,3.46-5.48,5.26-7.28,8.79a8.3,8.3,0,0,1-3.68,4,3.45,3.45,0,0,0-2,3.15c-.07,1.4-2.31,1.75-2.59,3.3-.36,1.93-1.36,3-3,4.31-2,1.63-3.3,4.53-4.19,7.13-.63,1.82-1,.42-1.59.51-1.54.23-2.07,2.22-2.32,3.34a7.13,7.13,0,0,1-1.93,3.74c-1.12,1.13-2.49,2.26-1.41,4.19,0,.06-.42.58-.54.54-2.37-.75-2.73,1.47-3.25,2.61-1.25,2.76-2.33,5.53-4.72,7.55.39,3.08-3.69,4-3.4,7.1,0,.24-.31.73-.49.74-3,.12-2.87,4.28-5.54,4.48-1.36.1,0,3.91-2.46,1.57-1,1-1.94,1.84-2.82,2.84s-.87,3-2.13,3c-1.91,0-1.34,1.54-2,2.24s-1.69.75-2.62,1c-.77.2-2.37.48-1.24,2.18.24.35.76-.16.28.31-.12.11-.25.35-.35.33-1.37-.22-2.44,1-3.55,1-2.13,0,1.21,2.53-1.18,2.15-.92-.15-.69,1.26-.88,1.32-5.6,1.93-8.3,7.21-12.51,10.72a4.32,4.32,0,0,1-2.12,1,7.59,7.59,0,0,0-4.43,2.54,11.54,11.54,0,0,1-6.25,4.21c-1.2.27-2.46.8-2.56,1.85-.17,1.63-1.1,1.35-2,1.32-.6,0-1,.24-1,.75-.1,2.31-1.36.21-1.54.4-1.69,1.74-4.71,1.74-5.67,4.46-.15.4-.57,1.32-2.11.9-1.79-.49-3.64,1.44-4.63,3.22a2.4,2.4,0,0,0,.71,2.67c1.08,1.14,1.28-.21,1.86-.39,5.07-1.6,9.23-5,14-7.21a7.14,7.14,0,0,0,2.47-2.45c.75-1,2.86.84,3-1.61,0-1.14,1.76-1,2.6-1.77,1.71-1.59,1.81-1.2,3.78.86,1.15,1.21,1.23,3.39,2.78,3.8,2.07.55,1.89,2.77,3.43,3.61s1.84,2.83,3.84,2.79c1.23,4.33,6.94,4.66,8.07,9.07a108.27,108.27,0,0,1,10.84,8.84c1.74-.36,2.93,1,4.41,1.42s.48,3,2.82,2.72c1.69-.23,2.25,1.71,3.43,2.51s.73-.34.93-.76.44-1.31.76-.44c.7,1.92,2.72,1.84,3.72,2.86,1.39,1.42,3.2,1.41,4.55,2.41.88.65,1.42-1.45,2.22,0,.49.93,2.48-.25,2.54.74.15,2.3,2,1.09,2.78,1.75s1.19.79,1.83,0c.14-.18.61-.12.93-.13,1.18,0,.29,2.42,1.38,1.59,1.43-1.08,1.95.15,2.9.29s1.5,1.13,2.56,1.17c1.28.05.43.61.16,1.15-1.39,2.8-1.81,3.16-4.83,5.85-1.83,1.64-2.75,4.23-5.27,5.21,1.26,2.15-1.23,1.94-1.91,2.76-1.12,1.37-2,3-3.19,4.14-1,.93-2.17,1.91-3.14,2.89a68.55,68.55,0,0,1-14.21,11c-2.79,1.63-2.7,2.08-4.1,1.9-2-.24-1.84,3.22-4.1,2.06-.4,1.88-2,2-3.44,2.35.12,1.94-1.47.75-2.07,1.18-1.06.79-1.84,1.71-3.42,1.56-.77-.08-2.23.65-2.35,1.23-.37,1.82-1.49,1.86-2.81,1.66a3.26,3.26,0,0,0-3.42,1.43,3.57,3.57,0,0,1-3.84,1.58c-2.18-.4-3.91,1.2-6,1.25-.43,2.07-1.08,2.08-2.85.87-1.45-1-1.92,1.91-3.6,1.94-1.26,0-3-.76-3.67.5-.51,1-.87,2.12-1.75,1.18-1.23-1.34-1.55.51-2.34.28a5.42,5.42,0,0,0-4.49,1.13c-2,1.37-5,.2-6.4,2.83a3.22,3.22,0,0,1-1.19-.55c-.34-.3-.58-.48-.72-.15-.35.89-.3,2.56-1.78.76-.75,1.23-2,1.06-3.09.94-1.27-.13-1.77,1.47-3,1.18l-7,2.85a17.35,17.35,0,0,0-7.1,1,2.51,2.51,0,0,1-2.72-.74c-.12-.13-1.39,1.07-2.44.78-1.7-.46-3.25.42-4.52,1.12s-2.43.11-3.61.28c-.25,0-.8-.46-1.29-.39-1.56.2-3.12,1.67-4.67,0-1.43,1.57-3.77.33-5.29,1.74-.82.75-2.39-.32-3,1.08-3.25.26-6.45.93-8.9-2.42a25.21,25.21,0,0,0-6.5-5.68c-1.32-.89-1.89-2.86-3-3.54a38,38,0,0,1-3.33-2.74c-1.35-1.05-2.94-2-3.88-3.32s-1.67-2.61-3.36-3.15-2.08-3.05-4.25-3c-1-2.72-4.65-2.73-5.54-5.54-2.68-.84-4-3.69-6.59-4.59-.33-2.15-2.11,1.13-2.29-.54-.23-2.24-1-.75-1.61-.37,0,0-.23-.22-.35-.34-1.39-1.37-1.64-3.86-4.09-4.21.79-2.82-2.17-2.76-3.3-4-1.64-1.79-3.79-3-5.2-5.2a17.28,17.28,0,0,0-5.33-5.09,11.59,11.59,0,0,1-4.73-5.18c-.53-1.19-.84-2.5-2.65-1.94-.19.06-.76-.41-.75-.45,1.08-2.33-2.77-2.45-2-4.6-2.06-1-2.21-3.81-4.09-4.83-1.08-.58-.85-1.2-.89-1.92,0-.54-.25-1.23-.63-1.12-2.63.73-2.42-2-3.72-2.94a4.57,4.57,0,0,1-1.89-2.71c-.23-.89-1.26-1.86-2.38-.5a3.67,3.67,0,0,1-.39-.83,14.13,14.13,0,0,0-3.53-8c-.6-.78-.24-1.59-.51-2.3-.61-1.63-1.08.48-1.56.13-.82-.59-.26-1.54-.41-2.31,0-.17.07-.4,0-.49a14.31,14.31,0,0,1-3.26-9.71c0-.76-.75.74-1.27.56a1,1,0,0,1-.43-1.28c.3-.7,1.25-1.1,1-2.1a5.81,5.81,0,0,0-.34-1.35,16.7,16.7,0,0,1-1.65-3.9c-.05-1-.78-2.19-.7-2.62.33-1.8-2.82-3.36-.33-5.15a3.37,3.37,0,0,1-.24-4.76c-1.7-2.74.19-6-1.29-8.75-.31-.56-.22-.73.12-1.09.72-.79,2.48-1.72-.26-2.14-.4-.06-.33-.42.09-.69.86-.55.34-1.55.64-2.22.67-1.5-1.16-2.62-.28-4.3.62-1.18.21-2.91.24-4.39a14.67,14.67,0,0,0-.07-4c-.37-1.32,1.59-2.24.16-3.78-.91-1,1.09-2.59.79-3.45-1.14-3.23,1.57-6.28.12-9.39,2.06-1.07.36-3.32,1.6-4.88,1-1.22,1-3.21,1.38-4.88.18-.79,1.19-1.08,1-2.09a29.75,29.75,0,0,1,0-3c0-.66,1.64-1,.41-1.83-.41-.29-.49-.53-.09-.7s1-.11,1.32-.4c.8-.77-.73-.84-.53-1.37s.63-.73.89-1.13c.87-1.35.44-3.32,2.07-4.31s.73-3.34,2.58-4.22c.78-.37-1.33-1.36.13-2.11a5.72,5.72,0,0,0,1.76-1.74c.36-.48.34-1.34.76-1.66,1.68-1.25-.46-4.25,1.77-4.66,1.86-.34,1.48-2.79,3.36-2.64.18,0,.57-.46.55-.68-.16-1.72-.13-3.62,1.63-4.26s.48-2.93,2.65-3.14c1.66-.16-.13-2.85,1.65-3.49-2.13-1.78-.23-2.07.94-2.8a13.67,13.67,0,0,0,2.15-2.09c-2-1.55.33-1.21.68-1.82a4.53,4.53,0,0,0,.29-2.84c-.29-1.63.93-1.66,1.83-2.2s1.43-.95.36-2.17c-.87-1,1.28-2,.88-3.49-.25-.93.61-.84,1.25-1,1.73-.47,1.5-3.1,3.54-3.33.09,0,.28-.73.15-.87-1-1-.81-1.88.34-2.56,1.34-.81,1.31-2.7,2.5-3.42,1.4-.84,0-2.31.83-2.84,1.52-1,.88-2.79,1.79-3.76s-.55-1.37-.24-1.79,1.09-.51,1.65-.74c-.58-1.08,1.56-1.45.61-2.81-.79-1.12,1-1.28,1.29-2.08.4-1,1.4-2.17,1.15-2.94-.71-2.22,2.57-1.42,2.09-3.12s1.19-2.74.94-4.07c-.31-1.67,1.15-2.65,1.07-4.1-.05-.94.08-1.66,1.27-1.54l4.48-2.24c1-1.47,3-2.05,3.29-4.15.06-.49.45-.58,1-.15,1.36,1.14,2.14.75,2-1-.14-1.45.32-2.05,1.68-2.84,1.09-.64-.26-3.06,1.18-4.26-1.22-1.81,1.77-4.22-.82-5.85-.08,0-.09-.37,0-.47,2.08-2.72.19-5-.81-7.35a2.55,2.55,0,0,1,.3-2.72c.79-1-1-1.69-.55-2.88a2.06,2.06,0,0,0-.95-2.57c.47-.47.89-1.26,1.43-1.35a8.09,8.09,0,0,1,3.91,0c.91.32,1.31.79,2.29,0a1.56,1.56,0,0,1,2.51,1.21c.25,1.23,1.87,2.22,2.94,3.25A24.09,24.09,0,0,1,484.39,490a54.43,54.43,0,0,1,1.58,7.84c.3,2-.4,4.18,1,6.12a2.57,2.57,0,0,1,0,2.41c-2.51,3.1.68,7.2-1.91,10.21,2.54,3,.27,5.75-.64,8.44-.41,1.22,1.67,1.82.33,2.78-1.05.75-.84,1.82-.67,2.71.39,2.08-2.48,4-.22,6.21.12.12-2.33,0-1.79,1.53,1.1,3.1-.13,5.65-1.8,7.94-.94,1.28,1.68,2.35-.07,3.13s-.84,2.64-1.59,3.87a7.22,7.22,0,0,0-.51,2.91c0,2.62-1.34,4.8-2.07,7.17-.23.73-1.46,1.27-.16,2.31.29.24-1.37.18-1.84,1-1.25,2-.66,4.64-1.95,6.7-.1.15.41.85.78,1.11a20.31,20.31,0,0,0,2.79,1.69c.8.4,1.84-.6,1.31-1.33-.7-1-.95-1.46.12-2.21,2.53-1.79,2.83-4.91,3.78-7.42,1.59-4.16,1.13-4.34,2.64-6,.79-.87.2-1-.52-1-1,0-1-.7-.92-1.35a.87.87,0,0,1,1.11-.66c1.56.27,2.06-.46,1.87-1.93-.08-.66.06-1.34,0-2a2.63,2.63,0,0,1,1.82-3.06c2.42-.92,3.9-2.83,5.5-4.72.68-.8.69-3.94,3.15-1.5,0,0,1.3-1.64,2-1.68,1.61-.09,2-1.72,3.17-2.08s2.34-1,2.39-2.56c0-.16.54-.49.77-.44,2.72.51,3.78-2,5.63-3.11,1.62-.94,2.81-2.53,4.51-3.57,1.46-.88,1.57-3.39,3.88-3.82.42-.08,1.06-1.91.79-2.24-.75-.88-.56-1.21-.08-1.28l-2-2.37a6.79,6.79,0,0,1-.92.37c-.51.17-.41.87-.64,1.16a60.11,60.11,0,0,1-14.55,12.72,10,10,0,0,0-2.65,1.92,11.63,11.63,0,0,1-5,3.66c-2,.8-3.21,2.49-5,3.31a1.52,1.52,0,0,1-.91.19c-.31-.09-.81,0-.52-.85.76-2.36.9-5,1.79-7.26a16.38,16.38,0,0,0,.88-7.11c-.07-1.14.73-1.72,1.06-2.59.43-1.16-1.11-2.1-.65-2.92,1.36-2.38-.16-5,.75-7.2a7.88,7.88,0,0,0-.09-7.23,1.1,1.1,0,0,1,0-1c1.46-1.69,1-3.71.94-5.6,0-1.43.7-3.16-.54-4.23-1.4-1.19,1.6-2.62-.42-3.53.48-1.76-.79-2.67-1.74-3.8a3.06,3.06,0,0,1-.24-1.87,2.58,2.58,0,0,0-.84-2.17,9,9,0,0,1-2.26-4.57c-.31-1.3-1-3-2.06-3.54-2.59-1.32-4.22-3.57-6.23-5.44a9.15,9.15,0,0,0-3.66-2c-1.52-.47-3.24.25-4.84-.42s-2.78.4-4.09.88c-.48.18-1,.44-1-.09-.05-1.84-.52-.77-1.53-.62-3,.44-2.94,4-5.51,4.67.14,1.48-1.67,2.45-1,4.09.27.69-.34,1.15-.7,1.7-.86,1.28-1.24,2.8-2,4.16-.66,1.1-2,2.47-1.18,3.94s-2,2.77-.11,4.18c-1.58,1.08-1,2.75-.87,4.1.19,1.74-1.94,3.26-1,4.5,1.27,1.6-.64,2.5-.15,3.78.26.71-.14,1.61.68,2.23.62.48.59,1.56,0,1.61-2.11.17-1.89,1.72-1.56,2.79a5.21,5.21,0,0,1-.84,4.91,4.94,4.94,0,0,0-1.22,2.46c-.12,4.91-3.29,8.64-4.87,13-.5,1.35-2.27.57-2.31,2.53a10.38,10.38,0,0,1-2.75,6.32,16.11,16.11,0,0,0-2.95,5.73,11.74,11.74,0,0,1-1.41,3.46c-1,1.51-1.38,3.42-2.68,4.88-.63.7,1.17,1.74.67,1.81-1.58.2-1.48,2-2.5,2.28s-1.44.29-.51,1.36a2,2,0,0,1-.16,2.67c-2.5-2.33-1.08,1.94-2.47,1.47.09,2-2.44,2.48-2.51,4.47a6.13,6.13,0,0,1-2.6,4.3c-1.82,1.54-1.54,4.16-3.3,5.67-1.28,1.09-.89,3.29-2.62,4.13-2,1-1.65,3.1-2.33,4.72a14.62,14.62,0,0,0-.77,1.69c-.31,1.08-2.54,1.5-1.07,3.22a13.66,13.66,0,0,0-2.63,3.91c-.56,1.31-.86,2.65-1.94,3.72-.26.25-.36,1.16-.19,1.27,1.73,1.19.26,2.13,0,3.27-.35,1.35-.29,2.71-.92,4.13s-3.84,2.4-1.24,4.66c-2.18,1.13-.79,3.84-2.26,5.22-1.18,1.11-2,2-.14,3.21.61.38.28.72-.08,1.06a6,6,0,0,0-1.37,1.43c-.19.4,1.45.66.51,1.36-1.55,1.16-1.74,2.65-1.58,4.37.1,1.14-.34,2.7.26,3.35,2.18,2.39-2.2.67-1.32,2.35.57,1.1-.42,2.68.39,3.83a3.33,3.33,0,0,1,0,4.43c-.49.61-.11,1.1,0,1.73a4.17,4.17,0,0,1-.22,3.55c-1.05,1.61,1.39,2.84.89,4.52a4.34,4.34,0,0,1-.36.86,6.93,6.93,0,0,0-.16,6c.21.59.87,1.3.36,1.68-1.52,1.12,1.65,3.07-.79,3.87A5.88,5.88,0,0,0,397,671c-1.54,1.56.36,3.06.07,4.68-.32,1.78,0,3.66-.1,5.49-.13,1.65.6,2,2,1.83.87-.08,1.17.24.48,1s-2,1.27-1.41,2.36c2,3.67,2.25,8.09,5.15,11.4.77.89,2.52,2.08.85,3.85-.33.35.06,1,.84,1.39,2.58,1.28,4.68,3.05,4.1,6.41-.17,1,.46,1.5,1.05,2.07a5.62,5.62,0,0,1,1.95,4.19c0,.51.07,1.21.53,1.23,2.75.09,3.35,2.14,4.16,4.16a3,3,0,0,0,1.74,1.71c1.71.32,1.93,1.91,2.86,2.7a19.76,19.76,0,0,1,4.47,5.65c.62,1.12,2.62,1.48,2.92,2.21,1.16,2.74,3.3,4.39,5.39,6.19a2.26,2.26,0,0,1,1,1.6c.11,1.33,2.19,1.55,2,3.17,3.57,1.8,5.42,5.7,8.83,7.48,1.33.7.91,1.84,1.85,2.48s2.73.59,3.12,2,1.06,2.69,2.8,2.75c.94,0-.39,2.44,1.4,1.36,1.22-.74,1.26.52,1.76.87.8.57,1.36,1.49,2.16,2.06,1,.72,2.42,1,3.1,2.15s2.17,1.31,3.11,2.13,1.8,2,2.87,2.77,2.28,1,3.33,1.6.59,2.59,2.61,2c2.35-.68-1.31,2.27,1.17,2.05,1.3-.11,1.95,1.61,2.92,2.47,1.36,1.23,2.4,3.1,4,3.73s1.94,2.47,3.67,3c1.43.46,2.07,2.37,3.44,3.44,3.16,2.47,6.55,4.87,8.14,8.89a2.67,2.67,0,0,0,2.39,1.43c1.27.13,2.46-1.3,3.32-.51,1.63,1.49,2.2-1.16,3.44-.58,1-1.59,2.43.11,3.61-.45.16-.08,1.13.75,1.64.25.91-.87,2.52-1.72,3.07-1.38,1.61,1,2.47-1.46,3.88-.52.11.08.89-.81,1-.74,4,2.87,7.94-2.14,11.92-.16,1.06-1.67,2.1-1,3.2,0a1.06,1.06,0,0,0,.89-.1c.85-3.19,2.59-1.77,4.27-.9a.92.92,0,0,0,.86-.23c.7-1,2.22-.58,2.79-1.73,1.07,2,2.23,0,3.16-.15,2.58-.41,4.88-2.08,7.69-1.92.65,0,1.16-.87,2.07-1,1.06-.19,1.52-2.44,3.21-1,1.13-1.51,2.75-.66,4.15-.84,1.06-.14,2.43.39,2.32-1.58,0-.47,1-.65,1.22-.41,1.17,1.45,1.9.46,2.54-.43.83-1.15,1.23.5,1.77.22,1.11-.57,1.9-1.75,3.5-1.23s1.78-2.22,3.5-1.59,2.68-.83,4-1.26c.7-.23,1.32-.9,2.18-.73,3.09.6,5-2.85,8-2.35,1.06-1.53,2.82-1.29,4.23-1.86s2.79-.4,4-1.3a54.51,54.51,0,0,1,13.06-7.08c2-.81,3.45-2.77,5.82-2.84.75-2.6,3.35-3,5.24-4.09a17.4,17.4,0,0,0,4.44-3.66c.65-.75.76-1.76,2.07-2.13,1-.28,1.73-1.5,2.49-2.38s1.72-1.34,1.93-2.72,2,1.41,2.3-.52c.39-2.38,3.19-2.44,4.06-4.74.8-2.14,3.33-3.62,5.09-5.38.48-.48,1.15-.86,1.39-1.43,1.33-3.2,3.89-5.44,5.91-8.09,1-1.37,3-2,3.27-4,0-.46,1.24-.58.4-1.42-1.71-1.71-3.59-3.56-5.88-3.83-1.92-.23-3.51-1.4-5.57-1.27-1.8.12-3.16-2.44-5.14-1.82-2.48.77-3.36-1.62-5.18-2.11a29.27,29.27,0,0,1-8.73-4.31c-1.29-.87-2.42-2.33-3.9-2.53a13.73,13.73,0,0,1-3.06-1.14,20.56,20.56,0,0,1-2.93-1.38c-1.09-.61-3-.89-3-2.11,0-2.52-1.32-.45-1.89-.76-1.11-.6-1-2-1.77-2.76a4.79,4.79,0,0,0-1.11-1c-3.25-1.7-6.36-3.53-8-7.1-.42-.91-4.19-3.55-5.28-3.87-.51-.14-1-.23-1.07-.75-.44-2.15-2.66-2.84-3.65-4.49-.62-1-2.89-.32-2.38-2.43.42-1.74-2.47-1.13-2.25-3,0-.43-.8-1.25-.74-2.13.08-1.29.4-1.31,1.31-.46a1.2,1.2,0,0,0,2-.59c.54-1.65,2.16-2,3.19-3.09,1.27-1.28,2-3.17,3.82-3.83s2.47-3,4.58-3.21c.54,0,1-.17,1.11-.68.36-1.79,1.7-2.52,3.1-3.4s2.25-2.16,3.67-3c1.75-1,3.81-2.33,4.63-4,1-2.13,2.65-3,4.45-3.84.61-.29,1.12-.28,1.2-1.14.12-1.44,2-.67,2.47-1.88a5,5,0,0,1,2.14-3,8.23,8.23,0,0,0,4.2-4.65c.45-1.55,2.57-2,2.12-3.62-.6-2.19,2.4-1.49,2.48-3.48,0-1.1,1.88-2.21,3-3.17s1.42-2.09,2.15-3.11-.25-2.78,1.36-3.44c-.84-2,2.89-1,2.07-3.07,2.14-2,3.47-4.53,4.88-7s4.28-4,4.31-7.21c3.35-1.52,2.92-6.33,6.59-7.59a35.12,35.12,0,0,1,7.81-9.75c.88-.81,1.16-2.56,1.76-2.65,1.54-.21,1.61-1.35,2-2.22.62-1.42,1.6-1.71,3-2.26,2-.76,4.72-1.58,4.67-4.83a2,2,0,0,1,2.34-2c2.7.2,4.48-1.38,6.21-3.12,1.93-1.93,3.64-4.18,6.48-4.86.74-.18,1-.77,1.52-1.16,1.15-.9,1.9-2.9,3.3-2.75,2.68.28,1.82-1.6,2.26-2.77.22-.59.88-.27,1.34-.36.78-.14,1.64.36,2.35-.35,1.71-1.72,3.78-3.09,5.48-4.72,2.4-2.3,3.35-6,6.65-7.59.82-2.71,3.18-4.27,5.19-5.73a7.3,7.3,0,0,0,2.52-3,8.07,8.07,0,0,1,2.63-3.38c2.61-2.06,4.16-4.88,5.57-7.72s3.38-5.63,4.53-8.62S738.47,511.06,738.14,507.44Zm-220.86-55.7c.56.54.9,1.1,0,1.4-2.1.74-3.16,3.4-4.92,3.65-2.31.33.32,2-1.13,2.27a10.13,10.13,0,0,0-3.33,1.56c-1.26.8-2.57.22-3.85.36s-1.57,1.12-2.26,1.75a8.45,8.45,0,0,0-1.12,1.85A7.21,7.21,0,0,1,500,463c-.08-.8-.13-1-1.07-.56-2.7,1.33-2.94,1.25-5.45.53-.45-.13-1.26.22-1.31-.37-.17-2.21-3.07-2.7-3.11-4.69s.64-4.12,2.93-4.92a2.69,2.69,0,0,0,2-1.92c.33-1.53,1.07-1.41,2-.62.45.39.72.45,1.07,0,.9-1.21,1.78-1.88,2.85-.12.4.66,1,.9,1.1-.23s.88-1.44,1.6-.94,1.59,1.28,2.12.76c2-1.88,4.71-.13,6.83-1.77a5.7,5.7,0,0,1,4-1.26c2.78.27,3,.19,1.88,3.13C517.16,450.68,516.74,451.22,517.28,451.74Zm127.84,86.89c-.55.36.09,2.35-1.8,2.65-.6.1,1.31,1.32-.11,2.07a8.59,8.59,0,0,0-1.79,1.73,9.43,9.43,0,0,0-2,2.15c-.33.7.7,1.68-.5,2.5-.86.59-2,1.25-1.9,2.69,0,.13-.4.29-.62.43A5.3,5.3,0,0,1,636,552c-.16-.61.25-1.27-.35-1.86s-1.25-1.49-2.17-.17c-.49.7-1.11,1.88-1.62-.28a4.36,4.36,0,0,0-3.16-2.77c-.6-.16-2.5-.71-.91-2.3.31-.31-.46-.47-.86-.64-1.42-.65-3-1.15-4-2.48a1.91,1.91,0,0,0-.79-.48c-1.1-.48-2.07,2.57-3.1.25a3.43,3.43,0,0,0-2.14-2.29c-1.54-.53-2.54-3-4.67-1.21-.53-1.67-3.58.42-3.55-2.42,0-.44-1.79-1.08-2.82-1.29-1.3-.28-3.1.55-3.2-1.82,0-.09-.74-.32-.85-.21-1.54,1.55-1.54-.47-2.29-.8-1-.43-1.43-.71-1.74-1.8s-1.31,1.37-2.09-.12c-.32-.61-1.37-.52-2.07-1s-1.88-.22-2.85-.3-.91-.14-2-2.59c-.38-.89-1.17-1.8-2.5-.59-.33.29-.84-2.07-2.4-1.27-1.26.64-1.54-.74-2.07-1.28-.89-.92-1.52-1.25-2.63-.32-.36.3-2.51-1.05-4.29-2.54-1-.86-2.35-.29-3.55-1.24s-1.75-.58-1.08-2c2.11-4.45,5.14-8.28,8.16-12.11a77.26,77.26,0,0,1,6-6.92c1-1-.17-2.73,1-3s1.62-.71,1.55-1.89a1.82,1.82,0,0,1,.51-1.26c2.93-2.78,4.4-6.51,6.37-9.89a13.28,13.28,0,0,1,2.12-2.59,6.29,6.29,0,0,0,1.85-3.7c.09-1.84,1.49-2.95,1.79-4.27.39-1.66,2.43-1.1,2.29-2.48s.9-2,1.32-3c.75-1.75,3.06-2,3.42-3.47.47-1.86,2.58-2.44,2.66-4.44.07-1.74,2.6-1.92,2.73-3.77,3.07-1.37,3.46-5.14,6-6.88,2.26-1.56,3.33-3.88,4.9-5.91s4.33-3.51,5.45-5.77c1.56-3.15,4-5.63,5.64-8.65a98.36,98.36,0,0,1,6.19-8.95c1.74-2.45,3.49-4.9,5.32-7.28.49-.63.29-1.23.43-1.84,1-4.43,4.28-7.52,6.67-11.13,1.66-.14,1.52-2.6,3.32-2.56-.63-1.93,2.73-1.11,2.1-3,2.1.11,3.28-1.76,5-2.35.77-.26,1.18-.94,2-1.15s1.76-1.3,2.72-1.86c.37-.22,1,.09,1.47-.07,1.08-.38,2.1,1.86,3.17.06,1,1.13,2.62,1.11,3.63,2a7.14,7.14,0,0,1,1.78,3.06,10.19,10.19,0,0,1,.06,3c0,3.82-1.11,6.16-4.67,6.7a3.58,3.58,0,0,0-3.18,2.77c-.52,1.76-1,1.92-2.21.86-.58-.5-1.69-.51-1.63-.16.54,3-2.2,2.47-3.51,3.42a2.17,2.17,0,0,0-.8,2.18,2.41,2.41,0,0,1-1,2.6c-1.11.69-.88,1.36-.08,2.19.24.25,0,1.34-.38,1.22-2.53-.75.13,2.11-1.65,2.24-1.44.1-1.34,2.25-2.56,3.13s.32,2.7-.79,3.61c-1.46,1.2,1.14,3-1.06,4.36-1.32.78,0,3.21-.6,4.64a9.21,9.21,0,0,0-.87,5.11c.24,1.47-1.17,2.22-1.1,3.6.06,1.09.59,2.42-.37,3.31-1.27,1.16,1.38,1.71.28,2.81-.68.68-1.76,1.14-1.83,2.22-.12,1.65-3.68,2.46-1.14,4.71-1.21.53-1,1.92-1.69,2.83-1.61,2.07-3.31,4.24-3.2,7.15a1.64,1.64,0,0,1-.4,1.34c-2.7,2.82-3.36,6.59-4.6,10.09-3.45,2.4-3.45,7-6.33,9.77-.66.63-.48.87,0,1.47s.59,1.77-.59,1.68c-2.06-.16-2.78,1.49-4,2.47,2.33,2.09-1.14,1.23-1.08,2.13a3.52,3.52,0,0,1-1,3.1,7.27,7.27,0,0,0-1.88,3.18c-.25.91-1,1.27-1.3,2s-2.6-.73-1.18,1.45c.79,1.2-1.68.26-1.58,1.4.14,1.68-1,1.38-2,1.34-.59,0-1.16.35-1,.73.88,2.32-2.22,2.15-2.36,4s-2.31,2.24-3.38,3.48a29.14,29.14,0,0,0-3.59,5.51c-.38.72-1.23,1.31-.38,2a2.19,2.19,0,0,0,1.85.21c2.68-1,5.76-1.87,6.66-4.85.44-1.45,2.92-.59,2.15-2.54s2.28-1,2-2.59c-.14-.82.6-1.28,1.08-1.51,3.38-1.59,4.89-4.86,6.48-7.79.74-1.35,2.68-1.62,2.65-3.89,0-1.52,2-3.05,3.09-4.62s1.58-3.13,2.75-4.33,2.38-2.22,2.9-3.74,2.87-2.45,2.08-4.64c2-1.83,3.28-3.95,3-6.78,1.88-.76,1.6-2.54,2.21-4a33.91,33.91,0,0,1,2.31-4.53c.79-1.28,1.06-2.65,1.66-3.82.75-1.45-.29-3.86,2.38-4.55,1.06-.27-.13-2.48.52-3.13a7.26,7.26,0,0,0,2-5.24c.08-1.68,1.25-3.25.91-5.1-.2-1.1.47-1.26,1.45-1.39.66-.09.82-1.07.33-1.59-1.27-1.37-.89-2.4.05-3.86.53-.83,1.42-2.16.24-3.64-.9-1.13,1.08-2.13,1-3.53-.15-1.91,1.18-6.89,2.39-8.13,1-1,.15-2.18,1-3.15,1.8-2.16,1.51-5.59,4.28-7.21-.71-3,3.66-2.8,3.49-5.47,0-.11.22-.23.34-.34,2.52,3,3.35-1.1,5.13-1.44a8.92,8.92,0,0,0,5.24-2.93c.18-.23.63-.57.67-.53a6.89,6.89,0,0,0,4.23,1.93c1.87.1,2.33,1.44,2.24,3.12,0,.82,1.05,1.1,1.05,2.09,0,.72,1.15,1.15.11,2.3a2.79,2.79,0,0,0,.48,3.59c.5.41.46,1.23.31,1.31-1.89,1.05.79,2.28-.12,3.14-1.1,1.06-.9,1.68,0,2.86s-1.75,2.37-.82,4c-2.27,2.53-1.3,6.07-2.76,8.86-.34.65.28.66.74.72.3,0,.71.13.84.34.56.93-.28,1.4-.67,2.08a3.84,3.84,0,0,0-.14,1.93c0,.61,1.64.92.33,1.82-.41.28-1.05.73-1,1,.41,3.8-2.7,6.76-2.37,10.57.27,3.08-.18,6.08-2.62,8.4a1.08,1.08,0,0,0,0,1.7c.29.3.91.79.16,1-3.11,1-2.27,4.47-4.13,6.26-.57.55.59,1.53-.28,2.59-.49.6-.61,2-1.06,3-.35.83-.47,1.77-.79,2.67s-1,1.91-1.38,2.94a41.28,41.28,0,0,1-3.81,7.89,12.77,12.77,0,0,1-1.67,2.83c-1,.92.29,2.82-1.43,3.4s.33,1.86-.48,2.47c-1.11.82.15,2.35-1,3.08-1.73,1-1.49,2.76-1.46,4.39,0,1.15,0,2.12-1.41.75-.27-.26-.57.44-.6.92-.11,1.58-.6,1.4-1.84,4.65-1,2.72-2.72,4.88-4.08,7.32a38.82,38.82,0,0,0-3,7.74c-.43,1.43-1.63,2-2.4,3a10.92,10.92,0,0,1-1.76,1.77c-.78.63-1,1.17,0,1.78-.15.21-.37.63-.45.61C644.86,533.82,646.61,537.67,645.12,538.63Zm-191.39-41.7c2-1-.63-2.88,1.12-3.34-.17-.68-1-.68-.59-1.36.68-1.21,2.21-2.54,1.61-3.71-.81-1.59,2.08-2.46.34-3.82a.35.35,0,0,1,0-.34,21.69,21.69,0,0,0,3.2-7.18,1.61,1.61,0,0,1,1-1c.51-.11.54.49.62,1,.15.91,1.1,1.44,1,2.59a13,13,0,0,0,.86,6.61c.52,1.09.06,2.63.1,4s-.4,3.31.31,4.32c1.08,1.52-1,2.14-.38,3.37a2.09,2.09,0,0,1-.58,2.22,75.76,75.76,0,0,1-8.37,8.34c-.34.28-.54.49-.71.22a3.23,3.23,0,0,1-.28-.88c-.27-1.09.43-1.8,1-2.59s-1.55-1.31-.44-2.35c.79-.74.31-1.3-.11-2.09C452.76,499.57,452.29,497.66,453.73,496.93Z"/><path d="M504.24,596c-.81,0-1.87-.6-2.3,1-.57,2.07-2.41,3.75-2,6.19a2.18,2.18,0,0,1-.45,1.81c-.65.85-1.47,1.91-1.43,2.85.06,1.62-1,2.28-1.75,3.33-.58.83,1.1,1.38.32,2.81a32.81,32.81,0,0,0-2.62,7.89c-.41,1.63-.76.62-1.42.29-.49-.25-.86.59-.6.83,1.76,1.62.16,3.17-.07,4.7a13.11,13.11,0,0,1-1.24,4c-.63,1.2-1.46,2.79-2.56,3.16-1.8.6.57,2.6-1.34,2.83a1.92,1.92,0,0,0-1.84,2.64c.28,1.26-.29,1.85-1.61,1.67-.49-.07-1.12-.1-1.3.44-1.12,3.34-4.38,4.8-6.39,7.35-.85,1.08-.76,2.14.4,2.78,1.94,1.07,5.22.63,5.76-1.4.63-2.36,2.58-.43,3.54-1.85s-.23-3.48,1-4c2.89-1.32,3.73-4,5.41-6.18s2-5.08,4.19-6.88a3.9,3.9,0,0,0,1-2.53c.41-5.23,2.88-9.88,4.73-14.55,2-5.16,1.93-10.49,3.31-14.71,0-1.58,0-2.25,0-2.91S505.15,596,504.24,596Z"/><path d="M689.34,541.81c.89.76.5,2.4,1.76,2.74,2,.55-1.23,2.36.79,3,.31.09,0,1.62,1.28,1.49a2.44,2.44,0,0,0,2.79-2.54c0-1.11.34-2.24-.3-3.36-.42-.72-2.28-.77-.89-2.52s-1.65-1.3-1.6-2c.3-3.48-3.18-2.86-4.59-4.45-.44-.49-1.14-.07-1.68.42-.72.64-.4,1-.17,1.82C687.29,538.39,687.69,540.39,689.34,541.81Z"/><path d="M684.07,551.29c-.09.37.72,1.33,1.18,1.38,1,.11,1.6,1.47,2.73.84S689,552,689,551c.08-1.38-1.45-2.75,0-4.14a6.84,6.84,0,0,0-.41-1.8c-1-2.15-2.72-3.55-4.26-5.17-.57-.6-1.19-1.3-2-.63-.58.48-1.43.9-1.33,1.91a18.27,18.27,0,0,0,.35,1.82C682,545.81,684.88,547.93,684.07,551.29Z"/><path d="M615.19,459.63a33.49,33.49,0,0,0,3.72,1.78c.86.4,2.46-.45,2.44,1.44,1.1-1.44,2.23,0,3,.27a7.57,7.57,0,0,1,2.84,2.66c.95,1.25,2.15,1.32,3.79,1.18.44-.14,1.59.47,1.9-.46a2.29,2.29,0,0,0-.56-2.69c-1.59-1.28-2.07-3.64-4.76-4-1-.13-2.45-1.49-3.58-2-1.82-.88-3.88-3.11-6.36-1a1.32,1.32,0,0,1-1.28,0c-1.12-1.45-1.67-.06-2.11.5C613.39,458.42,614.46,459.16,615.19,459.63Z"/><path d="M651.67,481.28c1,1.65,2.82,2.59,3.3,4.5.17.67.18,1.38,1.07,1.2,1.39-.28,2.11.61,2.9,1.45.18.19.48.44.69.41.69-.1,2.41-2.69,2.37-3.47,0-.32.07-.8-.1-.93-1.84-1.4-2.53-3.85-4.26-5.15a40.22,40.22,0,0,0-7.66-4.24c-1.46-.66-2.57.91-3.84,1.42-.4.16-.28,1.29.49,1.51C648.68,478.56,650.62,479.48,651.67,481.28Z"/><path d="M612.34,467.77a10,10,0,0,0,3,1.2c.6.18.84-1.54,1.84-.38.6.68,1.73.54,2.41,1.4a5.7,5.7,0,0,0,5.1,2c1.2.21,2.1-.73,3.08-.9,2.35-.41.37-1.06.3-1.68-.37-3.4-3.82-2.88-5.57-4.49-.63-.58-1.1-1.18-1.77-.12-.92-1.05-2.64-.33-3.32-1.09-1.26-1.42-2,1-3.25.06-.93-.71-3.17.67-2.81.92C612.56,465.54,611.41,467.1,612.34,467.77Z"/><path d="M654.27,473.61a8.4,8.4,0,0,0,3.39,1.46c1.52.19,3.86.92,3.9,2.17.12,3.16,2.86,3.53,4.35,5.17.32.34.84.79,1,.11.34-1.35-.49-3,1-4-1.42-1.51-3.38-2.68-3.22-5.18a1.2,1.2,0,0,0-.83-.27,3.71,3.71,0,0,1-3.42-1.25c-1.59-1.68-3.27-2-6.22-1.56-.13,0-1.84-.91-2,.4C652.11,471.53,653.29,473,654.27,473.61Z"/><path d="M478.34,406c-.63-.19-1.52.4-2.21-.35a5.46,5.46,0,0,0-.71-.56c-2,3.05-5.05,1.58-7.69,1.94-.52.07-.72.46-.75,1.05a8.78,8.78,0,0,1-2.56,6c-.7.67-.59,1.71.28,1.9,3.62.79,6.66,2.38,8.56,5.74.11.19.58.16.86.29,1.78.82,2.66,1.79.93,3.62-.46.48.36,1.69-.48,2.25-.43.29-.69,1.57-1.35.76-1.45-1.78-2.22.47-3.35.38-.62,0-1.34-.25-1.82.43.89.56.66,2.12,1.33,2.32,2.73.81,3.53,2.91,4.17,5.26.16.59.31,1.47.72,1.66,2.3,1.07,3.08,3.25,4.15,5.23,2.64-.42,2.65,1.87,3.63,3.31,1.1,1.61,3.05,2.74,3.81,4.44.59,1.32,1.59,2,2.36,3,.51.66,1.18,1.17.52,2.08s-2,1.82-2.92,1.15c-1.31-.94-2.87-1.65-3.84-3.1-2-3-5.32-4.81-6.84-8.17-3.22-.64-3.41-3.81-4.84-5.91-1.08-1.58-2.62-2.81-3.47-4.47-1-2-2.2-.56-3.06-.18a10,10,0,0,0-2.58,2.24c-1.12,1.08-1.92,1.34-2.21-.63-.13-.86-1-.78-1.59-.68-2,.33-2.73-.45-2.42-2.41,0-.16-.45-.58-.66-.56a1.93,1.93,0,0,0-1.27.47A2.78,2.78,0,0,0,455,439c2.22.45-.35,1.29.28,1.78a1.63,1.63,0,0,1,.77,1.68c2,.36,2.1,2.49,3.4,3.51,3.93,3.09,3.9,3.12,6.63,8.57a5.84,5.84,0,0,0,1.39,1.42c.71.66.72,1.23.16,2.1-.44.67.14,1.16.95,1,.48-.11,1-2,1.44,0,.25,1.07,1.44,1.74,1.06,3.09-.46,1.62,2.18.34,2.06,2.08-.06.8.8,1.59.19,2.64-.11.2,1.89-.07,1.84,1.61,0,.7,1.15,1.41-.08,2.23-.12.08-.46,2,1,.82.65-.51,1,0,.9.27a11.79,11.79,0,0,1-1.18,3c-.4.7-2.63.49-2.94-.45-.62-1.87-2.3-2.91-3-4.74-.64-1.57-3.2-2.47-3.56-4-.41-1.73-1.47-2.77-2.14-4.15s-2.35-1.95-2.43-4c0-1.2-1.35-2.74-2.58-3.89a11.88,11.88,0,0,1-3-4.21c-.76-2-2.61-2.89-3.77-4.44a2.12,2.12,0,0,0-1.65-.86c-1.23-.11-2.82.7-3.6-.63-.89-1.5-2.62-2.34-3.07-4.13a3.33,3.33,0,0,0-.58-1.25c-.26-.34-.9-.85-1-.77a1,1,0,0,0-.07,1.65c2,1.81-1.32,3.09-.44,4.77-1.08.71-1.51,2.16-3,2.42-1.87.33-3-.1-3.88-2-.78-1.67-1.95-3.46-1.89-5.16.11-2.84-2.16-4.16-3.14-6.25-.42-.91-1.31-1.05-2.07.35-.85,1.58-1.9,1.53-2.85-.07-.43-.72-1.25-1.1-1.36-.85-.75,1.66-1.93,2.05-3.66,2s-1.79,2-2.65,3-2.28,1.77-3.22,3.05c-.81,1.12-2.19,1.94-3,3.2a1.68,1.68,0,0,1-1.71.69,12.44,12.44,0,0,0-3,0c-1.08.21-2.46-.84-3.24.69,1.89,2.2-1.47.58-1.27,1.78.31,1.83-1.6,2.31-2.46,3.44-.57.75-1.71,2-2,1.84-2-1-3.85.91-5.76.21a1.08,1.08,0,0,1-.41-.22c-.54-.61-.12-2.38-1.64-1.7-.69.31-.92,1.54-1.5,2.24-1.51,1.82-3.2,3.48-5.87,2.65-1.25-.39-2.24,1.25-3.33.43-1.92-1.45-4.08-2.62-5.63-4.56-.61-.77-.09-1.61-.33-2.36-.38-1.18,1.19-1.54,1-2.59s-1.28-1.43-1-2.59c.36-1.53-.56-3.2.79-4.71.51-.57.21-1.89.22-2.87,0-1.5,0-3,0-4.5,0-1.3-.38-3,.29-3.82,1.39-1.64-1.37-2.38-.44-3.93.28-.48,1.47-1.42.74-2.32-.86-1.06-1-2.1-.14-3.06s.47-1.66-.25-2.49c-.13-.15.52-1,.79-1.47.58-1.09,1.37-2.18-.37-3-.68-.33-.71-1-.63-1.72.36-3.11-.39-6.09-1-9.08-.21-1.06-1.25-2-.07-3.24.38-.39-.24-1.47-.43-2.21-.33-1.31-2.69-2.29-.81-4.13.61-.59-.49-1-.87-1.34-1.41-1.12-1.55-2.59-2-4.23-.63-2.56-.57-5.24-1.73-7.76-.7-1.51-.42-3.67,0-5.41.25-1.08-2.25-2.85.69-3.28-.1-.23-.14-.58-.32-.68-.42-.24-1.81-.07-1.17-.62,1.19-1-.69-1.64,0-2.21,1.25-1,.07-2.93,1.55-3.79-1.79-1.13-.44-2.14.07-3.22a.91.91,0,0,0-.21-.88c-1.57-1.07-.15-2.87-1-4.08-1.2-1.62,1.32-2.55.91-3.41-.7-1.49.76-2.48.33-3.61-.49-1.3,1.71-2.38.09-3.74-.44-.38.39-1.12.58-1.68.51-1.46,1.07-3,1.58-4.36.66-1.81.14-3.91,1.34-5.42,2.66-3.35,3.54-8,7.42-10.4,1.06-.66,2.13-1.09,2.42-2.45.05-.28.46-.47.67-.72,1.08-1.23,3.15.59,3.89-1.13.55-1.28,1-2.32,2.59-2.34.47-1.88,2.3.78,2.82-.83.59-1.8,2.62.6,3.21-1.13,1.43.54,2.37-.8,3.59-1s2.74.26,4-.1c4.12-1.2,7.71,1.5,11.65,1.34,1.4,1.72,3.85-.32,5,1.12,1.38,1.74,2.83-1.32,3.95.4,0,0,.55-1,1-.55,3.36,3.48,8.57,4.11,11.8,7.75a2.19,2.19,0,0,0,2.09,1c1.43-.23,1.84,1.18,2.74,1.82s.57,2.2,1.76,2.78a17.42,17.42,0,0,1,2.83,1.68c1.51,1.12,3.29,1.83,4.1,3.76.63,1.53,3.3,1.34,3.14,3.61,2.1,1.4,2.9,4.66,6.2,4.34.57,2,2.75,2.29,3.88,3.72,3.44,4.4,8.8,6.32,12.88,9.9,2.75-.16,4.06,2.29,6.06,3.45,4,2.35,8.22,4.41,12.11,7,1.84,1.2,3.31,3.09,5.78,3s3.75,2.28,6.17,2.05,3.12,2.14,4.58,3.33c1.88,1.54.85,3.14.4,5.14-.81,3.62-3.21,6.36-4.27,9.77-.26.85-1.58,1.24-2,1.8-1.75,2.32-4.74,3.31-6,6.18-1.06,2.38-4.42,2.89-5.31,5.63-2.06-2-2.59,1.15-4.14,1.41s-2.94,2-4.72,1.62c-1.33-.3-.08,3.71-2.21,1.12C480.77,406.15,479.63,406.09,478.34,406Zm-4.82-4a9.09,9.09,0,0,0,7.7-2,7.51,7.51,0,0,1,1.58-1,44,44,0,0,0,10.35-6.47,57.66,57.66,0,0,0,5.09-5.3c1.13-1.18,2.55-2,3.58-3.39s1.86-3.15,3.16-4.14-.56-2.6.94-3.29c-1.31-1-1-3.29-3.48-3.55-1.89-.19-3.59-1.77-5.49-2.34a30.17,30.17,0,0,1-6-2.37c-1.13-.61-1.37-2.34-2.78-2.12-1.63.25-2.28-1-3.34-1.68-1.23-.8-1.76-3.88-4.17-1.52,0,0-.6-.3-.59-.44.15-2.32-2-2.6-3.25-3-2.17-.63-3.12-3.06-5.86-3-2.41.05-3.61-2.74-5.25-4.35-1.07-1.05-2.7-1.08-3.53-2.41a18.69,18.69,0,0,0-2.5-3.44c-.88-.87-1.42-2.48-3.06-2.2-2.95.51-4.31-1.88-5.38-3.6-.79-1.27-1.81-2.23-2.66-3.36-1.49-2-4.14-2.54-5.74-4-3.35-3.13-7-5.86-10.38-9-.64-.6-.94-3-2.77-1.18-.8-1-1.17-2.35-3-2-.52.1-1.48-1-2.56-.88-1.55.21-.85-2.14-1.52-1.84-1,.45-1.56,1.38-1.55-.57,0-.14-.44-.45-.61-.4-.91.22-.94,2.28-2.48,1.19-1.06-.75-2.27-.08-3.34-.4-1.62-.48-3.19-1.13-4.78-1.71l-5.53-1c-1,1.55-2.35-1.63-3.55.44s-1.81,1.2-1.7-.73c0-.28-.22-.56-.35-.85-.21.16-.61.32-.6.47.05,2-1.72,2-2.83,2.8-.74.53-1.05.46-1.45-.16-1.46-2.29-1.45.31-2.16.52-1.65.51-2.6,4.35-5.11,1.27a1,1,0,0,0-.94,0c-1.48,1.76-4.15,2.53-5.1,4.31-1.28,2.41-3.38,4.45-3.79,7.42-.24,1.77-1.33,3.43-2,5.13-4.28.87,1,3.08-.61,4.34a1.58,1.58,0,0,0-.5.79c-.66,2.93-2.32,5.9-1.34,8.81a5.56,5.56,0,0,1-.24,3.71c-1.13,4.1-1.6,8.05,0,12.22.68,1.81,0,4.09-.37,6-.28,1.54-.46,2.46.33,3.9.39.71,1.34,1.45,1.14,2.51-.79,4.15,2.2,7.58,2.21,11.57,1.34.71-1.09,2.75,1.17,3.23a1,1,0,0,1,.48,1.62c-.68.72-.92,1.2,0,1.81a3,3,0,0,1,1,3.92c-1.39,1.73-.71,2.56.53,3.62.33.28.83.69.13,1-1.9.93-.2,2.56-.65,3.4-.84,1.54-1.73,2.46.81,2.9.53.09.47,1.07.23,1.27-1.52,1.24-1,2.18.24,3.18.28.24,1,.55.58,1-1.53,1.59.05,3.74-.84,5.14-1.13,1.81-.3,3.17.09,4.74.07.3.07.88-.06.93-2.19.93-.22,2.39-.31,3.52-.08,1-.68,2,.05,3.2,1.78,2.83-2.18,5.24-.85,8.18.11.24-.71.93-1.13,1.38s-1.17,1,.12,1.18c1.51.22,1.57,1,.75,1.93-.63.74-.8,1.31-.08,2.08,2.15,2.32,3.64,2,6.9.34a22,22,0,0,0,5.83-4c.66-.64.68.18.78.54.15.53,0,1.54.95.65a2.56,2.56,0,0,1,2.3-.49c2.85.27,3.9.08,4.66-1.84.34-.86.9-1.66,1.26-2.48s1.65-1.32,2.29-2.44c.41-.71,2.34-.68,3.18,0,2.19,1.71,2.39.56,2.38-1.35,0-1,.93-.62,1.37-.93,1.43-1,3.12-1.56,4.29-3,.79-1-1.41-1.6-.27-1.7,1.85-.15,2.38-2,4.05-2.43,1.27-.37,2.63.23,3.9-.67a4.16,4.16,0,0,1,2.39-.88c2.94.23,8,0,9.72-1.44,1.46-1.25,2,.78,2.79.16,1.23-1,2.62-1.71,2.84-3.69.18-1.69,2.38-3.42,4.08-4.31.84-.44,1.44-1.32,2.24-1.85,1.3-.88,1.75,1.43,3,.9.29-.12.85.12,1,0,1.11-1.52,2.72-1.07,4.1-.92,1.84.19,2-2.21,3.68-2.07a2.36,2.36,0,0,0,2.8-2.07c.32-1.52,1.87-1.53,2.77-2.3,1.24-1.08-.38-2.36-.29-3.71.22-3.39,3.37-3.92,5-5.86a1,1,0,0,1,.93,0C469.87,402.84,471.86,401.59,473.52,402Zm-10.3,22c1.88,0,2.71,0,3.55,0,.5,0,1.17-.09,1.13-.54s-.82-.33-1.24-.5c-1.24-.5-.3-1.78-.77-2.56-.59-1-1.42,1.43-2.13-.11-.4-.86-1.62-1.15-1.77-2.27a4.29,4.29,0,0,0-.32-.86c-.22.13-.65.27-.64.38.28,2.72-2.26.89-3.24,1.93A4.36,4.36,0,0,1,454,421c-1.48-.27-2.78.68-4.1.82-1.13.12-2.38,1.86-3.69.19-.22-.28-1.1,0-1.18.51-.54,3.5-4.2,4.65-5.6,7.49-.37.75-.92,1.09-1.8.22-.42-.4-1.19.62-1.91.86-1.17.38-1.25,1.52.19,1.84,1.17.25,1.48,1.06.91,1.63-1.61,1.59.34,2.27.83,2.32,2.16.23.48-.74.5-1.41s1.81-.36,2.08-2c.21-1.3,1.72-2.15,3.44-.58.54.5,1.52,1,2.28,1.57,1,.71,1.48,2,2.82,2.28.08-1.3.15-2.6.23-3.9a4.33,4.33,0,0,0-1-3.61c-.13-.12,0-.63.16-.89a.94.94,0,0,1,1.3-.27c1.75,2,4.89,1.32,6.59,3.47.92,1.17,1.65.16,2.4-.48s.57-1.52.49-2.29c-.13-1.26.34-2.52-.42-3.82-.59-1,.1-1.36,1.8-1.12A24.3,24.3,0,0,0,463.22,424Z"/><path d="M539.89,545.88c-1.94.85-3.26-1.17-5.12-.93-1.23.16-.49-1.29-1.12-1.84-4.81-4.19-7.77-10-12.38-14.35-.71-.67-1.54-1.27-1.28-2.47.22-1-.92-1.32-1.15-2-.49-1.47-2.67-.69-3-2.71-.19-1.2-1.94-2.16-3-3.22a22,22,0,0,1-3.13-3.21,45,45,0,0,0-7.14-8c-1.32-1.24-2.94-1.88-2.73-4.38.14-1.61-.95.48-1.41.15a5.22,5.22,0,0,1-1.74-1.76c-1-2.16-3.1-3.38-4.18-5.28-1.17-2.09-3.52-2.81-4.6-5a32.07,32.07,0,0,0-4.3-5.72c-.45-.55-.91-1.13-.5-1.7.63-.87,1.3-.06,2,.1,2.89.62,4.5,3,6.4,4.74,1.06,1,1.47,2.64,3.23,3,.41.1.77.63,1.05,1,.55.77-.37,2,.72,2.6.87-1.43,1.47-.46,2.12.22a13,13,0,0,1,2.9,3.8c.51,1.17.76,2.65,2.57,3.13,1.3.33,1.42,2.26,2.55,3.2.94.77,2.11,1.46,2.37,3,.18,1,1.14,1,1.85.28s1-.56,1.1.4c.07.62-.25,1.28.31,1.87,1.27,1.35,2.29,3,3.73,4.11a23.51,23.51,0,0,1,7,7.86c.85,1.66,2.08,3.12,3,4.76.66,1.19,1.45-1.66,2,.17a7.22,7.22,0,0,0,1.28,2.93c.58.61,2,.51,2.31,1.49,1,3.18,4,4.88,5.34,7.7.3.64.34,1.18,1.18,1.14,2.24-.09,4.68.65,6.25-1.84a2,2,0,0,1,2-1.18c.62.1,1.54.17,1.56-.66,0-1.09.64-3-.44-3.15-2.46-.27-2.46-2.38-3.41-3.66-4.13-5.58-8.06-11.31-12.07-17-2-2.78-3.62-5.84-6.66-7.64-1.39-.82-1.44-2.43-2.41-3.54-3.07-3.51-6.4-6.82-9-10.76-3.19-.68-2.83-4.42-4.9-5.79-1.32-.87.71-2.86-1.72-3.11-1.16-.12-2-2.18-3.23-3-3-1.94-4.36-5.19-6.64-7.68-.41-.45-.43-.72,0-1.08s.81-1.16,1.6-.93a3,3,0,0,1,1.16.78,41.87,41.87,0,0,1,3.86,3.91c.94,1.19,3.14,1,3.16,3.09,1.45-.08,1.51,1.21,2.09,2a16.87,16.87,0,0,0,2.09,2.14,12.61,12.61,0,0,0,2.19,2c.59.35,1.46-.27.79,1.28s1.41.23,1.82.79c1,1.36,2.41,2.78,2.55,4.28.17,1.68,1.91,1.46,2,2.12.13,1.83,1.23,1.56,2.36,1.6.28,0,.54.29.81.45-.28.47-.85.36-1.19.57-1.18.71-1.12,1.31.05,2,1.36.75,2.91,1.11,4.06,2.33,1,1.06,1.21,2.94,3.08,3.14-1.86,1.67-.09,2,1,2.51,2,.91,3.13,2.85,4.73,4.23.63.55-1.28,1.36.12,2.14a11.65,11.65,0,0,1,2.14,2.08,14.05,14.05,0,0,1,2.09,2.14c1.68,2.63,4.65,4.37,5.08,7.91.14,1.22,1-.87,1.65-.21s-.28,2,.72,2.7-.79,1.16-.22,1.75,1,1.31,2,1.31a.91.91,0,0,1,.74,1.41c-1.24.95-.72,1.64.19,2.16,1.13.65,1.07,1.95,1.61,2.87a3.08,3.08,0,0,1-.69,4c-2,1.71-2.92,5.08-6.54,4.53C543.31,545.46,542,546.61,539.89,545.88Z"/><path d="M410.85,343.66c-2.05,1.67-.14,2.54.8,3.43s-1.35,1.06-.26,1.8a1.7,1.7,0,0,1,.61,1.75c-.13,1.68-.11,3.25,1.49,4.4,1.1.78.33,2.33,1.31,3.49s-.27,3.17,1.51,4.35c1.37.9.39,3.12,2.11,4.14,1.27.75.05,2.92,1.58,3.8-.59,2.31,1,3.54,2.29,5.07,1.08,1.27,1.41,3.27,2.61,4.33a11.08,11.08,0,0,1,2.46,3.44c1.28,2.4,1.8,5.23,3.56,7.3a27.35,27.35,0,0,1,4.44,6.81c.44,1,2.42,1.93,2.26,2.45-.52,1.7,3.89-.44,1.6,2.26-.21.25,1.77.71,2.49,1.64s1.4,1.65,1.33,3c-.09,2,0,1.8-2.18,1.34s-3.87-1.23-4.46-3.54c-4-2.77-5.1-7.87-8.84-10.84-.3-2.25-1.89-3.88-2.89-5.79a55.48,55.48,0,0,0-3.59-6c-3-4.33-4.53-9.56-8-13.65.07-2.91-2.78-5.05-2.1-8.14.3-1.4-1.41-1.77-1.74-2.76-1.51-4.55-2.93-9.14-4.19-13.76-.45-1.64-.18-1.75-.87-2.22-3-2.09-3.76-5.76-6-8.37,2.15-2.53-2.27-.52-1.46-2.12-.7-.15-.68.31-.72.79-.07.88-1.39,1.61.08,2.69a4.46,4.46,0,0,1,1.9,4.15c-.22,1.76.32,2.39,2.17,2.21,1.12-.11.64.51.24,1.12a2.05,2.05,0,0,0,.34,3c1.1.8,1.19,1.58.31,2.59a.92.92,0,0,0,.17.87c3.71,1.86,1.9,6.67,4.8,8.94a4.14,4.14,0,0,0,.51,4.47c1.12,1.6.13,3.55.52,5.28a59.05,59.05,0,0,0,1.65,5.81c.58,1.75.51,3.52,1.9,5.28a9,9,0,0,1,1.45,6.84c-.32,1.63.31,2,1.58.83.43.66,1.21,1,1.44,1.91.52,2.25,1.42,4.43,1.89,6.69.22,1.08.68,1.08,1.52,1.37,1.26.44-.53.91-.25,1.7.66,1.94,3.05,2.94,2.8,5.34-.24,2.19,1.95,3.13,2.63,4.91a31.09,31.09,0,0,0,3.11,5.2,15,15,0,0,0,1.1,1.42c-1.39.66-.47,2.13-1.07,3.05a1,1,0,0,1-1.33.21c-2.26-1.43-4.35-3.12-4.39-6.05,0-1.4-.74-2.69-1.58-2.74-2.2-.14-2-2.19-2.3-3.07a11,11,0,0,0-2.24-4.58,4.33,4.33,0,0,1-1-2.1c-.85-3.45-2.36-6.7-3.44-10.08a21.62,21.62,0,0,0-3.7-6.94c-.69-.85-1.29-1.53-.21-2.43.68-.56,0-.75-.24-1.06-1.89-2.81-1.56-2.89-2.63-7.2-.42-1.73,0-3.75-.86-5-1.11-1.62-.22-3.38-.94-4.63-2.05-3.55-2.15-7.49-2.92-11.3a1.36,1.36,0,0,0-.18-.43c-.94-1.44-2.57-2.86-2.63-4.34s-1.82-3-.35-4.63c0,0-.57-.41-.65-.69-.74-2.54-3.14-4.15-3.36-7.17a11.21,11.21,0,0,0-2.67-6.83l.51-3.83c1.05-1.19,2.07-.92,3.44-.32a9.81,9.81,0,0,1,4.71,4,7,7,0,0,0,2.32,2.94c1.18.62.12,3.14,2.36,2.51-.22,2.06,1.49,3.34,2.62,4.23,1.37,1.08,1.94,2.69,3.28,3.64s-.31,3.64,2.4,3.44C410.81,343.31,410.83,343.53,410.85,343.66Z"/><path d="M388.07,326.78c.65,1.57-1.73,2.77-1,4.37.87,2,0,3.81-.09,5.69-.16,3.1,1.28,5.91,1.33,9,1.5,1-1.2,2,.07,3.18a5,5,0,0,1,1.53,3.28c0,1.43,1.44,2.1,1.18,3.6a7.38,7.38,0,0,0,.67,3.66c.53,1.53.28,3.85,1.37,4.87,1.63,1.51,0,3.59,1.58,5,.53.46.31,1.86.29,2.82,0,2.46,2.11-1.77,2,.67a5,5,0,0,0,.81,2.68c.38.7,1.94,2,.21,3.1-.14.09-.11.79.06.92,2,1.5,2.58,4,4,5.83,1.12,1.51,1,3.27,1.88,4.77.78,1.29,2.85,2,2.08,4.12,1.33,1.12.9,2.65,1,4.08.09,1.12-.77,2.86,1.57,2.79.13,0,.38.51.39.79,0,1.17,0,2.33,0,3.5s-.23,2.34,1,3.08c-1.32.73-.19,1.39-.09,2.18.15,1.17,1.16,2.71,1,3-1,1.46.34,2.82-.15,4.14-.13.35-1.21.8-.35,1,2.65.56,1.34,1.55.74,2.93-.32.73-2.17,2.15.11,3.06.22.09,1,.4.47,1a3.71,3.71,0,0,1-1.5,1.17c-.74.19-3.25-2.31-2.95-2.55,2.15-1.66-.15-3-.39-4.29-1-5.18-1.07-10.63-3.67-15.43-.52-1,.23-1.42.63-2.1.15-.26-.53-1-.81-1.5-.68-1.27,2-2.78-.39-4-1.37-.72,0-2.9-1.56-3.87-.31-.18-.2-1-1.08-1.23s-2-.47-1.4-2.11c.51-1.45-1.51-.74-2.07-1.69s.05-1,.31-1.48c1-1.92-1.35-1.28-1.63-2.07a6.81,6.81,0,0,1-.15-2.92c.17-1.45-.76-2.12-1.76-2.62-.55-.28-1.4-.07-1.26-1.05.29-2.06-.69-3.67-1.77-5.27a1.25,1.25,0,0,1,.21-1.72c.29-.33.32-.87.56-1.25.82-1.33-3.57.08-1.14-2.28.66-.65.35-2.36-.89-3-1.62-.77-.3-3-1.42-3.33-2-.59-1.93-1.09-.85-2.6.28-.39-1-1.73-1.26-2.7s-1.94-1.87-.71-3.08-1.24-1.77-.27-2.8a1.64,1.64,0,0,0,.33-.67c-1.64-1.16-2.06-2.31-.09-3.57.49-.32.13-.91.25-1.34.3-1.08-3.32.58-1.19-1.83a2.83,2.83,0,0,0,0-3.23c-1-1.21-.92-2,.2-2.83-.22-.18-.43-.49-.67-.53-.89-.13-2-.44-.53-1.15,1.75-.84-.14-2.53,1.14-3.26-.4-2.47,1.05-4.64,1.11-7,0-.64-.16-1.37.72-1.56s1.43.65,2,1.21S387.83,325.81,388.07,326.78Z"/><path d="M432.16,368.31c-.35,1.82-.39,1.94,2.17,2.83,1.18.41,1,1.54,1.25,2.14.82,1.9.09,4.64,3.25,5.05-1.65,1.87,1.28,2.3,1.15,3.67-.06.64.54.79.71,1.21.4,1,2.3.48,2.06,1.37s-.38,1,.06,1.84c1.41,2.63,4.94,3.37,5.65,6.54,1-.88,1.49,1.73,2.83.39.65-.65,1,1.07,1.7,1.09,1.38,0-.06,2.74,2.13,2,1.51-.51.63,1.71,1.73,2a1.93,1.93,0,0,1-.09,1.27c-1.18,1.52-4.71,1.88-6.06.46-2.69-2.86-6.18-4.75-8.84-7.68a46.48,46.48,0,0,1-7.15-9.56c-1.3-2.54-3.24-4.83-3.87-7.89-.48-2.29-2.77-4.15-3.65-6.43A40.82,40.82,0,0,0,421.45,358c-.61-.78-.32-1.54-.45-2.32-.28-1.63-1.71-3.64-2.93-5.2a31,31,0,0,1-3.05-5.21c-.73-1.45-1-3.15-2.91-3.74-.47-.14-1.32-.72-1.08-1.48.62-1.95-1.48-1.76-1.91-2.64s0-2.23-1.19-3-.91-2.54-2.75-2.85c-1.19-.2-1.45-1.73-1.13-2.9a2.43,2.43,0,0,1,1.28-1.41c.68-.29.9.65,1.38,1,.64.42-.12,1.61,1.17,1.82,2.57.43,3.47,2.51,4.43,4.66.5,1.1.86,2.78,2.69,2.8-.11,1.32-.19,2.63,1.7,2.7-.52,2.54,2.18,2.68,3.06,4.14s1.46,3.38,2.26,5a16.15,16.15,0,0,0,1.68,2.79c.69.91,2.18,1.71,2.16,2.54,0,1.67.8,2,1.93,2.75.71.46.72,2,.94,3a11,11,0,0,0,3.35,6.12C432.77,367.17,433.23,367.7,432.16,368.31Z"/><path d="M475.94,388c-2-.07-4.17-1.43-6-3.49a14,14,0,0,0-2.26-1.63c-1.76-1.33-4.27-2.13-4.71-4.8,0-.16,0-.48,0-.48-2.59-.42-3.67-2.3-4.41-4.51-3.89-1.35-5.08-5-6.45-8.23-.63-1.48-2.66,1.22-2.12-1.1.43-1.88-2-2.23-1.95-3.66.11-1.71-2.89-.58-2.07-2.59-3.64-4.31-7.15-8.76-11-12.9-2.64-2.85-6-5.06-7.64-8.76-.68-1.53-2.15,1-2.93-.77a3.37,3.37,0,0,0-2.56-2.11,2.5,2.5,0,0,1-1.17-.76c-1.08-1-2.12-2.11-3.18-3.17-1.24,1.87-2.4-.78-3.68-.09-.19.1-.75-.48-1.14-.73-1.35-.87-.09-1.3.35-1.75.67-.7,1.88,1.15,2.45-.45,1.12,2.62,4,1.52,5.87,2.74,1,.68,3,0,3,2.14,1.82.15,2.12,2.9,4.43,2.55.39-.06,2.85.22,2.2,2.36-.22.71.27,1,1.05,1.24,2.82.92,2.8,1,4.95,4.48,1.86-.23,1.56,2.12,2.89,2.45,1.82.47,2,1.38,1.13,2.92a2.44,2.44,0,0,0,.27,1.84c.1.2.87.21,1.29.12s.41-.38.09-.7-1.09-.47-.31-1a1.05,1.05,0,0,1,.92-.11c.54.35,1.32.77,1.42,1.27a4.62,4.62,0,0,0,1.84,2.74c.92.77-.11,2.06.72,2.67.47.35,1.87-1.53,1.84.81,0,.72,1.3,1.39,1.85,2.19,1.31,1.89,3.09,3.4,3.41,6a6.08,6.08,0,0,0,2.67,3.86c.62.42,1.12.61,1.72.11.44-.37.76-1.18,1.24.05,1.65,4.21,4.75,7.06,8.52,9.45.83.52,3.32,1.28,1.59,3.42,1.66.08,2.33,2.26,3.51,2.24,2.37-.05,3.07,1.29,3.72,3,.29.76,1.92.81,1.15,2.11A2.37,2.37,0,0,1,475.94,388Z"/><path d="M377,371c1.41-.19,2.27.15,2,1.79a4.28,4.28,0,0,0,1.57,4.37c.6.49-.76,1.57.35,2.54.84.73,1.05,2.18,1.58,3.29s1.06,1.89,1.47,2.88,1.58,2.16,1,3.56,1.4,1.7,1.06,3.1c-.46,1.94.65,3.81,1.5,5.31,1,1.83-.58,4,1.25,5.52,1,.85-1,1.76-.49,2.31.86.89.56,1.81.7,2.74.25,1.71-.81,3.68,1,5.08a7.55,7.55,0,0,0-.92,5.55c.36,1.56,1,3.29.53,4.62-.36,1,.12,1.22.27,1.85.1.39-.94.72-.23,1.81a3.37,3.37,0,0,1-.39,4c-.71.87-1.55,2.22-.29,3.55.26.28-.44,1.09-.53.91-.87-1.59-3.05-.08-3.85-1.71-.21-.42-.88-.82-.56-1.23a3.46,3.46,0,0,0,.18-4.6c2.16-1.1-1.13-3.19.79-4.33-.42-1.9-.89-3.78-.26-5.72-1.67-1,.4-1.44.36-2.28s-1.63-.95-.65-1.89a2,2,0,0,0,.35-2.67c-1.67-2.13-.51-4.47-.74-6.68-.14-1.28.07-4.21-.39-4.49-2-1.17-1.87-3.06-1.62-4.82a7.5,7.5,0,0,0-1.25-5c-.75-1.26-1.4-2.23-.25-3.44.48-.52.28-.95-.17-.95-1.08,0-1.06-.63-1.46-1.41-1.88-3.73-1.67-7.94-3-11.75C375.43,371.42,374.73,370.55,377,371Z"/><path d="M468.94,393.59c-.7.39-1.16,1.8-1.86,1.33-1.57-1-3.61-.35-4.89-1.38-1.11-.9-3.68.39-3.47-2.32-2.53,1.4-1.94-2.32-4.13-2.46-1.93-.12-2.77-3.47-5.26-3.93-.5-2-2.54-2.75-3.49-4.43-1.69-3-3.19-6.11-5.55-8.68-.35-.39-.28-1.23-.27-1.86,0-.95,1.09-1.14,1.35-.82,2.5,3.12,6.85,4.71,7.63,9.23,2.05,2,3.53,4.64,6.44,5.77,1.14.44,2.06,1.71,3.18,1.87,2,.29,1.21.81.4,1.57.46.47,1.24,1.4,1.32,1.34,2.25-1.6,3.4,1.11,5.19,1.38,1.06.15,1.91,1.73,2.84,2.67C468.58,393.09,468.74,393.34,468.94,393.59Z"/><path d="M399.82,420.44c-1,1.8-1.39,3.37,0,5a2.52,2.52,0,0,1-.81,1c-1.2.76-1,1.46,0,2.12,1.4.9.52,1.64-.26,2.09a2.46,2.46,0,0,1-3.81-2c-.29-2.52.61-5.12-.93-7.59-.7-1.12,1.05-2.53.05-4.17-.6-1-1.36-2.7-.12-4.08-1.4-1.29-1-3-1-4.56a5.45,5.45,0,0,1,.22-1.9c.22-.54.89-.39,1.31-.23s.28.9.49,1.25c1.84,3,3.23,6.12,2.94,9.72a2.73,2.73,0,0,0,1.11,2.55A6.15,6.15,0,0,1,399.82,420.44Z"/><path d="M485.66,371.07a25.7,25.7,0,0,1-13.2-5.29c-.79-.64-2.55-.09-2.45-1.81.05-1-1.71-1.46-.91-2.51s1.6.27,2.38.4c1.32.23,2.57.21,3.4,1.49a1.33,1.33,0,0,0,1.21.67c4-.11,7.22,1.63,10.39,3.76.14.1,1.33-.81,2,.2.31.44,1.3-.65,1.47.52a2.2,2.2,0,0,1-.66,1.72C488.44,371.42,487.24,370.85,485.66,371.07Z"/></svg>