<svg xmlns="http://www.w3.org/2000/svg" width="1080" height="1080" viewBox="0 0 1080 1080"><defs><style>.a{fill:#f0dfd2;}.b{fill:#fff;}.c{fill:#f15a29;}.d{fill:none;}</style></defs><title>Mushroom 10</title><path class="a" d="M557.7,470.73s-10.93,22.38-27.1,38.55c-15.3,15.3-45,39.2-45,39.2s1.8-29,.95-42.6S482.1,483,477,477c-7.52-8.78-14.53-2.15-14.53-2.15l-3-1.27s-5.1,7.65-7.65,20.4c-2,10,.87,14.82.87,14.82s-7.67,24.28-18.72,45.53c-12.93,24.86-32.25,41.5-36.13,87-4.67,54.83,21,83,49.88,107.68,26.91,22.95,53,46.32,53,46.32a335.57,335.57,0,0,0,86.28-20c49-18.84,68-51,68-51s-27.9-8.65-42.35-20.55-29.18-28.63-29.18-28.63,35-27.37,45.23-41.82,21.12-34.87,36-49.8c15.3-15.3,36.87-26.23,48.77-39.83s28.05-34,18.7-41.65S712,505.12,706,508.73c-10.63,6.37-20.4,15.15-29.75,21.95s-14.38,8.46-20.4,12.6c-13.6,9.35-12.7,4.35-12.7,4.35s19.22-31.13,30.7-58.75c9.63-23.19,12.6-34.85,16-55.25,3.1-18.62,2.55-27.2-1.7-31.45-3.85-3.85-8.93-1.28-8.93-1.28s3.83-10.62-3-14.87S666,379.85,655.17,393c-8.07,9.78-12.62,16.88-18.57,24.53s-13.2,17.85-19.15,24.65-17.55,23.1-17.55,23.1,0-20-9.5-27.5c-12.33-9.78-27.9-5.25-45.75-1s-26.5,8.8-26.5,8.8-14.45-1.15-21.25,2.25c-7.21,3.6-10.78,5-11,10.2-.43,8.07,5.1,8.35,5.1,8.35s6.06,6.23,22.1,8.1C531.32,476.55,552.17,472,557.7,470.73Z"/><path class="b" d="M459.5,473.58c-2.28-1.14-3.83,6.37-6.8,15.72-2.57,8.07-3.83,21.25-1.28,21.68,4.13.69,12.93-7.66,13.18-14.45C465,485.05,461.2,474.43,459.5,473.58Z"/><path class="b" d="M517.72,449.35c0,10.84-2.55,13.6-14,15.73-7.93,1.47-15.43,2.82-15.85-6.1-.17-3.5-1.17-6.72,9-9.2C512.62,446,517.72,444.25,517.72,449.35Z"/><path class="c" d="M453,408l-17.73,16.7s20.83,17.43,26.78,26.78S471.31,469.83,479,480c13.17,17.43,18.82,18.55,32,33,11.54,12.66,19.47,27.3,23.3,32,2.4,2.94,6,2.55,9.35.85s8.17-8.45,4.35-14.83c-2.77-4.61-15.46-18.36-22-27-10.62-14-34.35-35.1-42-47S463.2,414.8,453,408Z"/><path class="c" d="M382.15,329.93s42.07,73.52,46.75,86.7C432,425.26,440,440,440,440s1.22,1.7,1.44-7c0-.67,8.56,8,8.56,8s2.86.25.57-11.2c-.42-2.12,5.51,5.51,10.63,10.63,1.27,1.27.42-8.08-2.13-15.73,5.53,2.13,10.2.85,14.45-.85-5.1-4.25-7.41-3.62-15.72-11.47-15.3-14.45-55.68-96.48-55.68-96.48Z"/><path class="a" d="M387.85,311.13C364.9,321.33,367.7,337.9,366,360s5,20,4,54c-.29,10-3.55,24.75-1,29s6.32,10.65,13,5c13-11,12.67-.33,17-9,5-10,7-5,11-9,13-13,14.29.71,24-9,8-8,9.88-6.51,16-10,5.95-3.4,1.11-.37,9-6,5.95-4.25,6.47-4.62,12-6,6.8-1.7,12.35-2.9,20-8s10-10,13-17c3.62-8.45-1,5,1-4s-8.6-6.85-12-6c.85-4.25,2-1-6-4-7.12-2.67-18-10-22-12-7.64-3.82-18.07-25.37-38-36C412,304,399,306.19,387.85,311.13Z"/><path class="d" d="M515.6,447.05c-1.23,0-2.47-.36-3.8.45-.66.4-2.16-.43-3-1.24-.27-.26-.48-.23-.71.18l-4.16,2.16c-.33.53-1.17.56-1.29.37-1.29-2.07-2.52-.44-3.69,0-3.11,1.29-7.15.75-9,4.54-.11.22-.52.32-.8.44-2.34,1-2.47,1-1.59,2.95.27.6.65,1.06.24,1.85-.09.24-1,.48-.5.89a47.85,47.85,0,0,0,5.18,4.13c.36.24,1.5-1.4,1.89-.77,1.18,1.91,2.41.28,3.58.35.68,0,3.91-.59,4.07-.93.95-2.07,2.36-.63,3.47-.4.73.15,1.21,1.79,1.72-.37.17-.73,1.57-1.9,2.53-2.46,1.59-.95,5.28-2.53,5.26-3-.1-2.38,1.71-4,2.41-6C518,448.36,517.52,447.07,515.6,447.05Z"/><path class="d" d="M524.67,533.67l-6-8.94a9.21,9.21,0,0,1-1.57,1.11c-1.55.83-1.06,3.35-3.59,3.31-1.54,0-2.33,2.51-3.55,3.18-3.07,1.68-4.79,5.28-8.57,5.85a1.58,1.58,0,0,0-1,1c-.35,1.51-1.15,1.87-2.7,1.92-.82,0-.62,2.6-2.59,1.88-.57-.2-.79.28-1.07.72-1.47,2.34-4.7,3.15-5.39,6.18-.12-.06-.26-.19-.35-.17-2.52.83-3.36,1.18-3.15,2.17.6,2.86-1.68,4.7-2.25,7.15-.65,2.77-2.25,5.39-3.55,8-1.17,2.35-2.73,4.43-3.39,7.11-.46,1.87-1.44,3.88-3.87,4.32-.6.11-2.16-.68-1.89-1,.6-.82,1.29-1.34.39-2.48s.69-1.43,1.13-2.07c.81-1.19-.29-2.7.7-3.71a6.58,6.58,0,0,0,2.07-3.15c.21-1-.23-2.38,1.5-2.47-.2-2.79,2.82-4.53,2.22-7.67-.32-1.73.83,0,1.31.05s1.73.16,1.26-.55c-.61-.94.14-1.37.09-1.82-.12-1-1.21-1.8-1.45-2.8-.29-1.17,2.35-.7,1.66-2.46-.28-.71.42-1.13.78-1.67s-1.14-1-.53-1.33c2-1,1.49-3.11,2.38-4.58.62-1,1.22-2.83.74-3.65-1.23-2.16.07-3.74.68-5.42.32-.87,1.2-1.47-.07-2.2.87-1.61-1.78-2.78-.84-4,1.56-2,.7-4.14.77-6.18s.47-4.1-.8-6.17a3.87,3.87,0,0,1,.44-4.17c.49-.58.73-1.25.14-1.69-1-.78-.76-1.8-.68-2.72.29-3.77-.52-7.41-1-11.1a2.16,2.16,0,0,0-.77-1.69c-1-.74-1-1.91-1.37-2.93A47.45,47.45,0,0,0,478.1,483c-1.2-2.14-4-3-4.32-5.69-3.12-.37-5.78-2.59-9-2.26a.94.94,0,0,0-.65,1.5c3.53,4.82.5,10.82,3.1,15.76.34,2.85-1.91,5.31-1.18,8.13-1.44,1.68-1.51,4.44-3.53,5.44a5.22,5.22,0,0,0-2.54,2.45,10.41,10.41,0,0,1-4.27,3.63c-1,.57-2.74-.79-3.35-.49-1.06.53.27,2.4-.77,3.57s-.36,2.83-.53,4.26c-.07.63.14,1.68-.57,1.66-2.13,0-1.36,1.46-1.42,2.43-.1,1.78.3,3.65-1.67,4.83-1,.6,1.3.93.24,1.77-.63.48-1.55,1.25-1.5,1.82.19,2.18-1.26,3.92-1.35,6-2.61,1-1.14,3.82-2.39,5.54-.77,1.05-.65,2.6-1.76,3.79-.85.9-1.14,2.55-1.72,3.73-1.16,2.35-1.25,5.22-3.32,7.14a18.35,18.35,0,0,0-2.1,2.13c-.67.86-.83,2-1.75,2.8-.67.57-.82,1.76-1.5,2.32-.95.78-1.08,1.92-1.7,2.83-.74,1.09-1.4.66-2.14.1-.73,1.06-.16,2.25-.39,3.35-.05.27-.52.44-.66.72-.67,1.32-3.83,1.81-1.45,4.2a1.68,1.68,0,0,1-.46.68c-2.26,1.9-3.08,5.1-5.68,6.61s-2.24,4.6-4.22,6.29c-.78.66-.13,1.75-.55,2.25-1.26,1.47-.66,3.89-2.62,4.93-.67,3.21-2.59,6.07-3.12,9.16-.41,2.32-1.78,4.56-1.21,7-2.77,1.79-1.09,5-2.23,7a8.22,8.22,0,0,0-.78,5.88,1.83,1.83,0,0,1-.55,1.78c-1,.89-.06,2.42-1.31,3.53-.66.59.42,3.15-.24,3.74-1.55,1.37.87,2.41,0,3.2-1.26,1.11-.78,2.43-.83,3.68a34.51,34.51,0,0,1-.09,5c-.32,1.62,1.38,3,.36,4.56,1.54,1.1-.61,1.67-.46,2.81.17,1.35.87,2.36,1.16,3.57a.53.53,0,0,1-.12.44c-1.19.94-1,1.7-.06,2.84.51.6-.32,2-.25,2.62.29,2.42-1.92,4.9.19,7.23a1.87,1.87,0,0,1,.23,1.38c-.43,2.64.79,5.06.93,7.59.07,1.39,1.56,2.12,1.11,3.59a2.51,2.51,0,0,0,1.3,2.93c1.21.75-1,2.28.8,2.89.84.28,1,1.22.88,2.1a8.89,8.89,0,0,0,2.09,7.11c.78,1,0,3,2.23,3.22,1.54.19.26,2.47,1.73,3.66,2.52,2.07,3,6,5.95,7.87-.42,1.54.45,3.21,1.52,3.22,2.7,0,.62,2.6,2.07,3.16,2.15.85,2.64,3.39,4.5,4.62,1.24.82,1.49,2.37,1.88,3.69.47,1.62,3.4-.58,3,2.08a7.6,7.6,0,0,1,4.47,4.56c2.22.28,3.46,2.11,4.41,3.62s3,2.13,3.23,4c.25,1.74,2.74.61,3,2.7.18,1.2,1.73,2.44,3,3.2,4.36,2.69,8.75,5.31,12.16,9.24,2.44.24,3.15,3.07,5.52,3.59s2.82,3.16,4.51,4.53c1.12.91,3,1.18,3.16,3.07,2.08-.05,2.32,1.8,3.16,3,2.33-.81,2.19,1.76,3.39,2.48,3.23,2,5.38,5.13,8.32,7.42,1.75,1.37,2.82,3.73,4.45,4.92a60.32,60.32,0,0,1,5.39,4.91c2.2,2.06,4.85,3.11,7.44,2,2.26-1,4.86,0,6.81-1.69,3.43.43,6.62-1.65,10.08-1,.73.14,1.16-.34,1.73-.66a8.52,8.52,0,0,1,5.45-1.37,2.46,2.46,0,0,0,2.67-.78c.94-1.25,1.74,1.59,2.74.2a3,3,0,0,1,3.42-1.36c2.08.6,3.65-1,5.59-1.11a5,5,0,0,0,2.84-1.45c.88-.83,2.34.07,2.67-.7.76-1.76,2,1.2,2.56-.44,3.84-1.18,7.85-2,11.49-3.63,3.88-1.74,8.19-1.7,12-3.64,3-1.52,6.5-1.63,9.57-3.52a25.46,25.46,0,0,1,9-3.31,25,25,0,0,0,7.09-2.31c3.48-1.67,6.32-4.57,10.36-5.21a1.94,1.94,0,0,0,1.21-1.42c.09-1.15,1-.95,1.49-1.38a9,9,0,0,1,4.18-2.16c1.42-.29,2.13-2.17,3.74-3,1-.47,1.44-2.22,3.17-1.81,0-1.87,1.72-2.22,2.81-2.68,2.55-1.09,4.13-3.1,5.59-5.19.44-.63.78-1.57,1.4-1.86,2.29-1,3-3.51,4.64-5.07.35-.32.21-1.43,1.09-1.16,2.34.72,2.74-1.3,4-2.4a32.19,32.19,0,0,0,5.12-5.25c1.11-1.58,1.1-1.47-.66-2.47-.69-.39-1.18-1-2.13-.93-1.67.2-3.28.15-4.38-1.49-.56-.85-1.51-.38-2.29-.49a15,15,0,0,1-2.79-.48c-5.14-1.73-9.75-4.65-14.82-6.49a3,3,0,0,1-2.12-2.31c-.4-1.62-2.6.12-3.23-1.48-.8-2-3.21-.86-4.6-2.36-1.09-1.18-2.18-2.44-3.32-3.61-1.36-1.39-3.44-1.8-4.57-3.51-.73-1.09-2-1.51-3.05-2.22s-1.45-2-2.18-3c-1.31-1.82-3.07-2.94-5.46-4.65-.82-.59-2.47-.32-2.51-1.78s-1.16-.81-1.66-1.26c-.83-.76.8-.91.53-1.36-.53-.86-1.52-.28-2.28-.49-.25-.06-.64-.53-.59-.63,1.11-2.38-1.93-2.28-2.4-4s-2.61-2.6-3.45-4.36c-1.57,1-3.18,2-4.73,3.06a176.1,176.1,0,0,1-16.83,10,3.91,3.91,0,0,1-4.29,0c-1.64-.76-1.84-1.15-.67-2.25a14,14,0,0,1,2.6-2c1.08-.64,2.37.27,2.5-.24a4,4,0,0,1,2-2.58c.25-.14.69.07,1,0a17.8,17.8,0,0,0,5.74-3,24.39,24.39,0,0,1,3.7-2c1.13-.67,1.28-2.14,2.8-2.7.91-.34,1.9,1.65,2,0s1.81-1,1.86-1.66c.16-2.29,2.3-1.75,3.42-2.62.42-.32,1.42.23,1.75-.5,1.54-3.4,5.5-4.33,7.41-7.34a3,3,0,0,1,1.5-1.17c2-.64,2.81-3.48,4.44-3.6,2.54-.18,3-2,4.06-3.36,1.29-1.59,4.24-1.87,3.92-4.79a1.75,1.75,0,0,1,.84-.27c1,0,1.73.16,2-1.38.21-1,1.55-1.94,2.69-2.67,2.14-1.36,4.52-2.64,6.06-4.54,1.89-2.31,3.17-5.13,5.42-7.21.84-.78.57-2.65,2.4-2.42.26-1.35,2.09-2.44,2-3.09-.51-2.48,2.27-3.12,2.36-5.14.1-2.25,2.34-3,3.45-4.56a2.3,2.3,0,0,0,.31-.67c-1.64-.93.33-1.48.25-2.29-.11-1.15,1.16-1.48,1.69-2.27a14.83,14.83,0,0,0,2.06-3.15c.44-1.27,0-3,2.13-3a7.24,7.24,0,0,1,1.81-3.73c2.45-3,5-6,7.71-8.71,1.5-1.52,1.77-4.17,4.46-4.73.38-.07-.34-2.6,1.74-2.55,0-1.9,2-1.7,2.77-2.77.56-.76,1.53-1.14,1.64-2.34.1-1,4.12-4.37,5.16-4.76,1.79-.67-.48-1.3-.11-1.5,1.14-.66.73-2.08,1.7-2.87,1.28-1,2.22-2.58,4-.65.25.27.92,0,1.21-.49,1.4-2.25,1.38-2.32,2-2.46,1.07-.24,2.12-1.11,1.92-1.86-.64-2.36,1.67-2.76,2.42-2.82,2.29-.17,3.44-1.65,4.82-3s2.47-2.76,4.64-1.4c.52.33,1-.22,1.28-1,.62-1.42.79-3.59,3.37-3,.39.08.47-.69.59-1.17.33-1.25,2-.68,2.58-1.83.42-.86.51-1.89,2-2.21,1.28-.28,1.92-2.78,3.33-2.62,2.7.29,1.79-1.63,2.26-2.78.23-.58.88-.27,1.34-.34,2.14-.35,3-2.26,4.37-3.6.17-.17-1.81-.89.06-1.41a4.55,4.55,0,0,0,3.29-5.13c-.13-.84.24-.7.56-.85s4-2.75,4.17-3.2c.46-1.34,2.25-1.78,2.09-3.67-.21-2.36,2.68-.24,3.28-1.93.31-.87,1.64-1.15,1.65-2.32,0-1-.21-1.83,1.39-2,1.28-.12-1-1.35.41-2.45,1.93-1.48,2.4-4.22,3.35-6.52.58-1.41.24-3.34,1.73-4.26s.3-1.75.13-2.65c-.2-1.08.51-2.43-.71-3.19-2.59-1.64-4.94-4.39-8.52-2.12-2.15-1.36-4.06,2.06-6.24.32-1,1.85-3.76,0-4.29,1.38-1.32,3.35-5.12,3.75-6.85,6.57-1.19,1.94-3.36,3.1-4.94,4.82-1.32,1.43-4.34,1.21-5.36,3.1-1.21,2.25-3.13,2.85-5.15,3.73-1,.44-1.68,1.59-2.5,2.41l-2.83,2.83c-.82.82-2,1.51-2.39,2.51-.5,1.32-2.7-1.59-2.23,1.08-1.84.89-2.82,2.91-4.91,3.58-1.75.56-3.29,1.74-5,2.32-1.27.42-.61,4.69-3.46,1.73-1.71,1-2.6,3.47-5.19,3-.09,0-.38.51-.39.79-.06,1.18-1.29,1.46-1.7,2.3-.71,1.47-1.53-.53-2.13.12-3.65,3.91-8.74,5.45-13.13,8.15a13,13,0,0,0-2.83,1.7c-2.11,2.16-2.19,2.07-.24,4.78.17.24.16.77.34.83,4.12,1.28,4.85,5.93,8.06,8.1a1.5,1.5,0,0,1,.35.36,2.36,2.36,0,0,1,.12,2.32c-.59,1.19-.87-1.13-1.76-.24-1.05,1.07-2.66-1.22-4,.58-.46.63-1.64-.68-1.28-2.22.2-.87-.16-1.12-.76-1.78-2-2.24-5.41-3.17-6.22-6.52,0-.18-.6-.19-.8-.4-1.69-1.83-5.18-2-5.09-5.5,0-.15-.61-.53-.75-.46-2.29,1.22-1.84-2-3.59-2.17-1.22-.09-1.88-2.06-3.51-2.28-1.39-.2-.38-3-2.33-2.54-2.8.61-.38-1.95-1.55-2.36-.51-.18-1-1.2-1.22.1-.41,2.05-1.34,1.52-2.25.44a11.08,11.08,0,0,1-1.42-2.4c-.68-1.43-1.59.43-2.11-.14-2.07-2.28-5.57-2.87-7-5.92-.13-.28-.46-.48-.69-.71-2.48,2.9-3.22-1.8-5.2-1.26a11.82,11.82,0,0,1-.69-1.63c-2.33,2.78-2.66-2.08-4.63-1.21-.89.4-1.48-.91-2.53-1.1s-1.55-2.27-3.2-1.05a7.1,7.1,0,0,0-3.71-2c-1.23-.3-2.15-2-3.81-.79a12.38,12.38,0,0,0-7.25-3c-.13,0-.38-.57-.32-.64,1.49-1.59.2-1.38-.81-1.2-.38.07-.94.74-1,.66-1.11-.92-2.75-1-3.69-1.88-1.27-1.14-2.67.25-3.89-.86-1.56-1.42-1.68-2.5-.41-4,.86-1,2.69-.72,3-2.7.15-1.06,2.54-2,2.48-2.85-.13-2,2.91-1.12,2.27-3.06a16.13,16.13,0,0,0,3.89-5.88c.87-2.26,3.61-3.19,4-5.76,1.81-.64,1.61-2.77,2.65-3.77,2.38-2.26,3-5.59,5.22-7.95.93-1,2.61-2,2.49-3.9,2.15-.17,1.85-2.82,3.48-3.46,1.79-.69-.27-2.58,1.46-3.66,2.72-1.69,2.86-4.79,2.74-7.8,0-1.14-2.15-2-.44-3.34s-.93-2-.71-3.43c.72-4.84-.65-9.49-1.74-14.19a5.83,5.83,0,0,0-2.48-3.93,13,13,0,0,1-2.71-1.86c-1.35-1.44-3.1-2-4.93-2.6a13.86,13.86,0,0,0-4.63-.88c-1.58,0-3.08-2.33-4.74-.15-1.79-1.36-3.81,0-5.43-.36a10.35,10.35,0,0,0-6.38.42,14.71,14.71,0,0,1-2.4.89c-1.77-2.36-3.12,1.19-4.85.26-1.42-.75-3,1.33-4.68,0-.39-.32-.82.25-.92.8s.1,1.51-.94.71c-2.16-1.67-3.79,1-5.77.66A19,19,0,0,1,530.36,443c-1.36,0-2.64,1.67-4.08.19C525.06,445.42,523,445,521,445c-.89,0-1.24.38-.45,1a3.79,3.79,0,0,1,1.5,3.41c0,1.49-2,2.56-1,4.06,1.11,1.76-3.29,1.19-1.19,3.14-1.19,1.29-2.79,2.28-3.18,4.18-1.7-.11-2.15,2-3.6,2.13-1,.11-1.42,1.48-2.58,1.05-.53,1.71-2.33-.31-2.35.48-.05,1.5-1,1.42-1.83,1.71-.38.12-.49,1-1.05.53-1.64-1.38-1.95.39-2.18,1.12-.37,1.16.7,1.29,1.53,1.13,1.26-.24,1.73,1.25,3.1,1.11s3.32-.81,4.64.76c2.08-2.1,2.93.26,4.21,1.13.22.15.84.13.94,0,1-1.57,2.08-.9,3.15-.1,1.14-1.51,2.76-.65,4.15-.82.62-.08,1.78,0,1.84.2.74,3,2.2.58,3.17.35.54-.13,1-.62,1.75-.59a22.26,22.26,0,0,1,4.48.08c1.53.37,2.77-1.26,4.28-.27s2.26-1.54,4-.88c2.71,1,5.57-.38,8-1.16,2.62-.85,5.87,0,8-2.49.23-.28.91-.28,1.37-.25a7.72,7.72,0,0,0,5.74-1.88c1.44-1.24,3.56-.81,5.18-2,.87-.67,2,0,2.77,1.51.92,1.69-.85,2.1-.66,3.2-1,.07-2,.15-2.92.18-1.34.05-.19,2-1.59,2a14.4,14.4,0,0,0-3.48.06,17.33,17.33,0,0,0-2.85,1.56c-.77.37-1.84-.93-2.51.38-2-.71-2.14,1.22-3,2.15-1.37,1.39-.35,3.83-2.64,5-1,.52-1.29,2.69-1.86,4.07s-2.72,1.89-3.76,3.32c1,.85,1.39,1.39-.47,1.55-.57,0-1.61,1.3-1.48,1.69.77,2.32-2.26,2.72-2.13,4.71.14,2.17-1.89,3.1-3.2,4.08-1.7,1.26-1.45,3.16-2.41,4.57a1.7,1.7,0,0,1-.35.36c-.85.7-2.08.74-2.8,1.75-.56.78-1.37,1.31-1.23,2.51.33,2.74-1.66-.61-1.92.69a4.35,4.35,0,0,1-2.08,3.37l8.36,9.51Zm-20.32,69.47c-.53.36-.36.89-.34,1.35.1,1.72,2.22,3.45,0,5.17.35,1.84-.91,3.33-1.36,5-.26.93,1.12,2.33-.63,2.9s-.52,2.41-1.4,3.41c-.68.78.68,2.2-.84,2.82s-.31,2.17-1.06,3c-.3.36-.92.59-.7,1.2.76,2.08-1.25,2.78-1.88,4.14-.55,1.19-2,.39-2.11,1.53-.09.82.33,2-.08,2.43-1.52,1.43-2.2,3.67-3.67,4.75s-1.77,2.82-3.27,3.78a23.23,23.23,0,0,0-3.93,3.82,10.74,10.74,0,0,1-5.52,3.59c-.6.13-.8,1.41-1.84.29a2.66,2.66,0,0,1-.63-2.71,2.91,2.91,0,0,1,1.64-1.76c2.92-.93,3.91-3.56,5.19-5.82.54-.94,1.07-1.38,1.7-.84,1.46,1.28,1.47.46,1.31-.75-.06-.48-1.08-.46-.51-1.45.68-1.18,3.26-.51,2.6-2.83-.5-1.73,2.73-.62,2-2.58,1.23-.87,1.15-2.52,2.35-3.56,1.91-1.64,1.37-4.69,3.51-6.56,1.75-1.54,1.33-4.38,2-6.59.74-2.52,2.82-4.6,2.5-7.56-.06-.51.64-1.68.66-2.64a7.59,7.59,0,0,0-.05-2.48c-.35-1,1.83-1.32.41-2.33,1-2.06.42-4.29.75-6.4a2.34,2.34,0,0,1,1.38-1.36c.33-.12.36.74.54,1.13.8,1.68,2.17,3.12,2.05,4.59S505.38,602.43,504.35,603.14ZM686.51,536c.89-.44,5.22,1.28,5.34,2.44.26,2.61,1.7,4.59,2.85,6.75a3.12,3.12,0,0,0,.25.35c-1.59,1-.58,2.73-1.06,4-.28.75-.83.13-1-.19-.58-1.18-1.56,1.88-1.87-.18-.11-.75-.64-1.07-.91-1.61s1.09-.54.58-1.39c-.86-1.45-1.61-3-2.46-4.42-.24-.41-.76-.66-1-1.06C685.88,538.63,685.57,536.47,686.51,536Zm-3.73,4c1.06.06,2-.29,2.43,1.49a13.89,13.89,0,0,0,2,4.09c.85,1.21.72,1.71,0,2.89-.4.67,1.74,1.23,1.77,2.54a8.23,8.23,0,0,0,0,1.49c.2,1-.49,1.48-1.07,2-1,1-1.06-.71-1.9-.61a1.85,1.85,0,0,1-2-1.73c.59-3.81-1.73-6.58-3.05-9.73C680.38,540.94,681.13,540,682.78,540Z"/><path class="d" d="M646.37,535.22c2.11-.13,1.28-1.77,1.78-2.76.37-.74,2.34-.39,1-2.31-1-1.4,1.47-.83,2-2a72.67,72.67,0,0,1,5.15-8.86c.79-1.2,2.24-2,1.75-3.78,2.07-.41,2.21-1.87,2-3.59,0-.37.44-.8.7-1.19.71-1.06,2.9-2.05,2.13-3-1.9-2.24,1.18-1.6,1-2.27-.46-2.38,1.28-3.83,2.06-5.68,1.52-3.56,2.14-7.5,4.93-10.51a3.52,3.52,0,0,0,1-2c-.26-3.26,1.9-5.56,3.07-8.25.61-1.42,1.32-2.79,2-4.18a9.26,9.26,0,0,0,1.11-4.3c-.08-1.7.82-2.92,1.87-4.15.75-.89-1.3-1.42-.54-2.37s1.25-1.85,1.87-2.7c1-1.3.62-2.51.66-3.75s0-2.6,1.33-3.48c1.09-.71.91-1.55,0-2.42-.26-.25-.36-1.14-.19-1.28,1.41-1.06,1.44-2.22,1-3.86-.19-.75.82-2,1.58-2.74,1.28-1.19-1.2-1.81-.26-2.8s.67-2.59.46-3.76c-.3-1.66,1.24-2.57,1.12-4.1-.36-4.69,1.46-9,2.66-13.38.44-1.59.79-3.29-.15-4.67a3,3,0,0,1-.47-2.76c.83-2,0-3.66-.6-5.48-1.05-3-1-3.09-3.5-2.88a2.9,2.9,0,0,1-2.58-1.09c-.31-.34-.66-1.39-1.38-.43-1.92,2.57-5.24.81-7.51,2.44-.46.33-3.49,1.47-3.47,2,.1,3-2.19,4.87-3.61,7-3.08,4.62-5.25,9.55-5.39,14.77,0,1.23-.13,2.33-1.24,3-1.89,1.14-1.9,2.91-1.8,4.77,0,1,.4,2.3-.08,2.93-.76,1-.74,1.52.07,2.22.19.78-.29,1.22-.76,1.7a4.17,4.17,0,0,0-1.28,2c-.86,3.46-.48,7.27-2.9,10.31-.32.41-.1,1.31,0,2a5,5,0,0,1-.94,3.13c-1.26,2.28-.86,5.3-3.07,7.22.83,2.3-1.69,3.41-1.9,5.18a11.79,11.79,0,0,1-2.43,5.47,22.84,22.84,0,0,0-3.52,6.08c-1.4,4.26-4.94,6.91-6.88,10.67-.55,1.05-2.78.15-2.23,1.95.64,2.08-1.65,1.43-2.09,2.59a12.12,12.12,0,0,1-4.73,6.45,2.49,2.49,0,0,0-1.24,2.49c.14.73-.25,1-1,1.28a5.57,5.57,0,0,0-3.33,3.82A4.46,4.46,0,0,1,615.5,517c-1.89.15-1.94.78-1,2.11.83,1.1-.52,1.31-.94,1.69s-.59-.33-.63-.81c0-.29-.26-.81-.37-.8-.56,0-.61.5-.62,1a.77.77,0,0,1-.92.85c-.3,0-.75-.11-.85-.31-.61-1.23.23-6.25,1.41-6.57a6.72,6.72,0,0,0,4-3.45c.82-1.45,3.25-2,2.58-4.33,0-.07.22-.21.34-.31,1.23,1.79,2.07.14,2.41-.54,1.63-3.26,4.87-5.37,6.11-8.89.2-.57,1.14-1.45,1.27-1.37,1.16.66,2,1,1.68-.9-.15-1,.65-1.43,1.2-2,1-1.06,2.32-2,1.81-3.75,1.94-1.88,1.31-5.5,4.47-6.6.29-.1.63-1,.49-1.21-1.77-2.11,0-1.63,1.19-1.79,2.13-.28-.76-1.08.18-1.9,3.46-3,4.35-7.51,6.29-11.37,1.65-3.26,2.29-7,3.38-10.59-1.49-2,3.21-2.56,1.1-4.71a3.83,3.83,0,0,0,.9-4.8c1.84-1.06.31-3.18,1.36-4.43,1.26-1.49.45-3.17.6-4.75a4.62,4.62,0,0,1,.76-1.7,17.58,17.58,0,0,0,2.12-8.54c-.09-1.58,2.49-2.72.51-4.33.83-1.39,1.65-2.79,2.48-4.17a1.33,1.33,0,0,1,.35-.36c1.34-.85-.34-2.2.69-3.44.79-1,2.6-1.69,2.16-3.57-.15-.64,0-1.55.94-1.27,2.34.72,2.33-1.51,2.84-2.49,1.36-2.6,3.86-5.35,6.6-5.42,1.59,0,2.62-1.3,4.08-1.11s1.42-.73,1.56-1.8-1.72-1.51-.16-2.78c1.07-.86-1.39-1.6-.92-3,1-2.85-1.49-4.2-3.19-4.94-2-.86-4.52-3.18-6.77,0-.68.95-.94-.16-1.41-.35-.64-.26-1.55-.22-1.54.52,0,1.66-1,1.37-2,1.35s-1.05.5-1.08,1.23.36,1.69-1,1.81c-1.08.09-1.81,1.06-3.09,1.06-2,0,0,2.39-1.51,3.08-.85.4-1.44,1.61-2.26,1.75-2.24.38.11,1.52-.32,1.69a12.55,12.55,0,0,0-3.13,2.13c-1.09.86.85,2.17-.78,2.92-2.49,1.14-2,5-4.9,5.85.58,2.5-1.71,3.31-2.82,4.83a31.47,31.47,0,0,0-3.13,4.7c-1.21,2.5-5.4,9.23-7.46,10.79-1.49,1.12-1,3.64-2.14,4-2.06.66-1.84,2.8-3.37,3.73s-3.34,2.31-3.78,3.85c-.61,2.18-2.52,2.23-3.62,3.44a6.6,6.6,0,0,0-1.76,2.27,7.31,7.31,0,0,1-2.14,3.61c-1.12.87-.82,3-2.57,3.23-2.43.28-.16,3.11-2.29,3.76-1.32.4-1.32,2.36-1.95,3.6-.28.56-.83,1.4-1.27,1.4-2,0-2.49,2.19-2.51,2.87,0,1.79-1,2.68-2,3.75-.44.46-1.08,1-1.13,1.51-.16,1.95-.58,3.64-2.71,4.31.12,2.45-1.88,3.58-3.15,5.21a44.71,44.71,0,0,0-4.09,5.3,142.86,142.86,0,0,1-9,14.26c-.38.53-.45,1.08-1.24,1.08-1.31,0-.68,1.25-1.1,1.86-.88,1.25-1.17,3.5-2.24,3.91-1.93.74-1.76,2.32-2.47,3.54a1.45,1.45,0,0,1-1.11.72,3.82,3.82,0,0,0-2.5,2.2c-.46,1.08-2,2-1.23,3.34.55,1,1.84.24,2.78.42.62.12,1.24-.16,1.89.29,1.31.9,2.91,1.43,3.8,2.86,1.15,1.86,3.68-.18,4.78,1.76a2.37,2.37,0,0,0,.71.7,11.57,11.57,0,0,0,4.52,1.21c.38,0,.93-.91,1-.59.43,2.5,2.29,1.67,3.75,1.76.63,0,1.57-.14,1.56.69,0,1.7,1.11,1.29,2,1.31a2.87,2.87,0,0,1,2.25.66c.9.88,1.51,2.53,3,2.27s1.89,1.41,3.09,1.06.15,3.52,2.18,1c.73.66,1.37,1.75,2.19,1.89,1.17.21,1.59,1.06,2.35,1.63s1.29,2.18,2.47.47c.73.67,1.37,1.75,2.19,1.9,1.16.22,1.6,1.06,2.35,1.64,3,2.35,5.8,5.18,9.14,6.94a18,18,0,0,1,7.25,7.42c.24.42.69,1,1,1s.42-.7.56-1.14c.3-.94,1.83-1.68.38-2.85-.71-.58,0-.92.3-.87,1.89.28,1.74-1.79,1.84-2.29.45-2.2,2-3.45,3.47-4.7.31-.25,1-.33,1-.81-.33-2.41,2.22-3.84,2-6.18A1.86,1.86,0,0,1,646.37,535.22Zm3.78-64.69c.37-.77,1-2.14,2.66-1.27,2.73,1.45,5.75,2.33,8.22,4.27,1.1.86,3.34,0,3.46,2.41a3.12,3.12,0,0,1,.35,2.11,1.45,1.45,0,0,0-.92,1.23c-.14,1.06-1,.91-1.84.32-1-.73-1.81-2.73-2.74-2.23-2,1.08-1.92-1.5-2.92-1.31-1.91.36-1-2-2.09-2s-2.11-.8-3.1-.95C649.14,472.78,649.84,471.16,650.15,470.53Zm-.47,6.44a47,47,0,0,0,9,2.3c.56.1.7,1.68,2,2a4,4,0,0,1,2.09,2.38c.17.47-1.89-.12-1.84,1.57,0,1-1.21,1.13-1.73.35-1-1.44-2.88-1.4-3.86-2.76-.64-.88-1.48-1.34-2.37-.27-.52.63-.74.07-1.06-.18-.73-.58-1.14-1.67-2.4-1.4-1.52.32-1.49-.69-1.51-1.76C648,477.72,649.33,477.66,649.68,477Zm-21.63-7c-.81,0-1.61.17-2.24-.64-.47-.62-1.51-.6-1.62,0-.49,2.85-1.62,1.25-2.91.67s-2.5-1.54-4-1.05c-1.75.55-2-.78-2.68-1.87-.95-1.48.66-1.45,1-2.13a6.59,6.59,0,0,1,1.37-1.43c.33-.34.65-.72,1.06-.1.8,1.21,1.59,1.48,3,.58,1.23-.79,2.18,1.13,3.54.95,2.3-.31,3.63.53,3.52,3.07,0,.4.42.82.94,1.78C629,470,628.5,470,628.05,470Zm-13.83-13c2.16.36,4-.71,5.72-1.26.73.47,1.3.6.64,1.17s-.28,1.42.34,1c1.67-1.16,2.77-.11,4,.54a2.26,2.26,0,0,1,.77.55c.65.8,2.31-2.62,2.36.57,2-.44,1.41,2.19,2.9,2.44s1.69,1.63,2.35,2.69.81,1.47,0,2.5c-1.08,1.48-1.53-.41-2.29-.21-1.77.46-.6-3.28-3.15-2.12-.64.29-2-.94-3-1.44a25.18,25.18,0,0,0-3.78-1.73c-2.24-.64-4.37-1.83-6.79-1.7-1.1.06-1.43-.39-1.39-1.44C613,457.68,613,456.81,614.22,457Z"/><path class="d" d="M453,504.93c-.19.41,0,.88.73.93.63-1.46,2-.67,3-.86.31-.06.77,0,.88-.22.33-.52.35-1.31.77-1.66,2.55-2.1,4.32-4.48,3.58-8a1.1,1.1,0,0,1,.29-.86c1-.84.65-1.43.07-2.48a4.4,4.4,0,0,1,.2-4.09c.42-.89-1-2.63-1.58-4,2.31-2.23-1.19-4.43,0-6.68.29-.55-.24-.92-.76-1-.75-.08-1.34.19-1.2,1.07.18,1.09-.67,1.75-.94,2.61-.66,2.06-2.34,3.7-2.14,6.15.16,1.91-2.55,3.46-1,5.72-1.37,2-1.36,4.45-1.89,6.7S454,502.68,453,504.93Z"/><path d="M737.68,508.14c-1.15-2-1.14-4.4-2.34-6.55a6.19,6.19,0,0,0-5.55-3.57c-1.47-.08-3.38-.48-4.34.25-1.66,1.26-2.42-1.27-3.89-.36a5.44,5.44,0,0,1-2,.95c-1.16,0-1.55,1.13-2.58,1.17s-2.32-.47-3.2.71c-.68.91-2.79-.8-2.85,1.68,0,1.14-1.76-1.33-2.42.47-.12.33-1.16.23-1.56,1.26-1.38,3.55-6.34,3.88-7.43,7.84,0,0-.33,0-.48,0a110.25,110.25,0,0,0-10.57,7c-.71.77-2.07,1.91-2.61,1.92-1.62,0,1.17,2-1.17,2.14-3.06.17-4.17,3.79-6.91,4.93a15.11,15.11,0,0,0-3.89,2.64,8,8,0,0,1-4.55,2.35c-1.8.18-1.7,2.4-3,3.28a3.21,3.21,0,0,1-2.23.67,2.92,2.92,0,0,0-2.62,1,6.55,6.55,0,0,1-2.61,2.1,17.5,17.5,0,0,0-4.76,2.95c-1.36,1.1-3.26,1.4-4.16,3.34-.57,1.22-2.58,1-3.48.35s.71-1,1-1.64c.22-.42.65-.72.55-1.28-.49-2.81,2.18-4.4,2.74-6.88a10.17,10.17,0,0,1,1.69-2.76c.21-.31,1.47,1.91,1.57-.37a12.14,12.14,0,0,1,3.69-8c1.22-1.3,2.41-2.44,2.57-4.48.08-1.09,1.27-2.11,2-3.12s1.19-2.62,2.44-3.52c.27-.2.12-.93.29-1.35,1.19-2.84,3.23-5.62,3.41-8.51.2-3.29,3.89-5.13,2.81-8.59,2.94-2.29,2.67-6.26,4.69-9.07.64-.89,1.56-2,1.12-3.54-.38-1.33.69-2.51,1.36-3.38.82-1.07-1.26-2.92,1.08-3.26a37.54,37.54,0,0,0,4.68-11.58c.52-2.05,0-4.64,1.11-5.95,2.21-2.51,1.89-5.61,3-8.3.14-.34,1.09-.47.32-1.06-1.92-1.46,1.94-3.42-.43-4.83,2.82-2.16.44-6.48,3.53-8.54.32-.21.07-.36-.14-.72-1.56-2.6-.35-4.9,1-7.08a1.41,1.41,0,0,0-.21-2.09c-.82-.79-.32-1.38.27-2.07.81-.92-.38-3.22,2.08-3,1.17-1.9-2.14-2.54-1.39-3.36,1-1.1-.56-1.49,0-2.25,1.59-2.31,1.15-4.76.77-7.4a13.39,13.39,0,0,0-5.29-9.24c-1.1-.82-3-2-4.64-1.05a2.71,2.71,0,0,1-2.7.38c-1.22-.85.15-1.55.46-2.37s.08-2,.08-3.39c.2-1.7.39-4.26-1.16-5.51-2.12-1.72-3.45-4.95-7-4.57-.94-1.41-2.75-.57-3.89-1.49-.34-.28-1-.61-1.27-.47-3.34,1.59-7.37,1.67-10,4.76-2,2.3-5.44,3.36-5.93,7-2.46-.18-1.12,2.48-2.1,3-2.16,1.1-2.67,2.76-2.64,4.89s-.76,1.08-1.52.4c-.19-.17-3.49,2.42-3.45,2.85.24,2.25-1.37,3.21-2.91,4.07-.59.33-1,.4-1.15,1.19-.93,4.11-3.64,7.19-6,10.56-1,1.48-3.52,2.15-3,4.63-2.7,1-1.38,5.78-5.36,5.79-.49,0-1,1.4-1.43,2.22s-.36,1.51-1.07,2.07c-.47.39-1.19.73-1.13,1.51.09,1.32-1.13.82-1.63,1.26-.86.77.79.92.52,1.37-.52.86-1.52.27-2.27.48-.51.14-.66.6-.64,1.15s.13,1.81-.45,1.72c-2.2-.35-1.3,1.9-2.37,2.58a16.27,16.27,0,0,1-3.16,2c2.7,2.35-.92,1.31-1.3,2-.93,1.78-3.35,2.76-2.71,5.4.15.6-.34.87-.66,1.22-.66.7-1,1.76-1.54,2.3-.79.83-2.09,1.29-3,2.21-.74.72-1.88.33-1.74-.53.59-3.64-1.21-7.06-.9-10.58.09-1.1-2-1.7-.41-2.79-.71-1-.34-2.65-1-3.32-1-1-.25-2.36-1-3.11a19.93,19.93,0,0,0-3.07-2.17c-.26-.19-.68-.52-.65-.71.42-2.12-2.21-1-2.48-2.41-1.68.32-2.75-.62-3.77-1.76-.89-1-1.79-2.18-3.14-.47a1,1,0,0,1-.89.16c-1-.48-1.88-1.11-2.86-1.57s-1.73,1.08-2.92.62a12.69,12.69,0,0,0-3.06-1.16c-1.2-.17-2.1,1.84-3.25.29a3.21,3.21,0,0,1-3.49.75c-1.37-.57-2.46,2.06-3.69.11-1.28,2.2-3,.44-4.48.4-1.88,0-3.4,3-5.47.61-1.78,1.93-3.93,1.83-6.18,1.12-1.52,1.64-4.88.34-5.51,3.47-.12.59-1.14.53-1.26.35-.82-1.2-1.39-.46-2.25,0s-2.36-.5-3.27.53c-1.15,1.31-3.61-.41-3.9,1.08-.39,2-1.93,1.77-2.39,1.35-1.15-1-1.91.16-2.74,0-1.6-.24-2.52,1.46-4.1,1.09s-2.93.7-3.81,1.53c-1.67,1.59-2.55-1.58-3.84-.31-1.57,1.55-3.62.08-5.15.83a12.22,12.22,0,0,1-5.62.94c-2.09,0-4.36-.59-5.81,1.73a1.36,1.36,0,0,1-1.28.11c-.69-.8-1-.47-1.84,0-3.45,1.81-7.29,3-9,7.05a1.58,1.58,0,0,1-1.49,1.12c-.6-.05-1,.22-1.05.74-.39,4.62.09,9,3.67,12.47.48.47.91.91,1.67.81,1.56-.21,2.89,0,3.1,1.95,3.62,1.33,7.36,2.29,10.85,4,1.22.59,2.74-.23,4.18.86,1.13.86,2.91.12,4.33-.48-.22,2.54,2.19,1.16,3.07,2.06.28.29.47.4,1.07.25,3.46-.83,7-1.4,10.4.22a1.37,1.37,0,0,0,1.71-.4c.67-.67,1.92-.41,2.41-1.43a2.8,2.8,0,0,0,2.57,1c.52,0,1,.55,1.55.85.71-1.51,2.35-.59,3.46-1.34s2.51,1.3,3.23.36c1-1.29,2,.19,3.05-.56.89-.64,2.57-.06,3.79-.42s2.11-1.34,3.26-1.77a4.81,4.81,0,0,1,3.34.06c-.41.92-.75,1.88-1.24,2.76-1.12,2-3.09,3.37-4,5.76-.72,1.9-2.69,3.49-3.45,5.56s-3.46,2.58-3.1,5.16c.06.41-.81.37-1.18.58-.68.38-1.74,1.11-1.68,1.57.34,2.54-1.78,3.39-3,4.79-1.44,1.61-3.14,3-4.54,4.63-.88,1-2.34,1.58-3.2,2.62l3.66,4.16a4.35,4.35,0,0,0,2.08-3.37c.26-1.3,2.25,2.05,1.92-.69-.14-1.2.67-1.73,1.23-2.51.72-1,1.95-1.05,2.8-1.75a1.7,1.7,0,0,0,.35-.36c1-1.41.71-3.31,2.41-4.57,1.31-1,3.34-1.91,3.2-4.08-.13-2,2.9-2.39,2.13-4.71-.13-.39.91-1.65,1.48-1.69,1.86-.16,1.44-.7.47-1.55,1-1.43,3.23-2,3.76-3.32s.85-3.55,1.86-4.07c2.29-1.17,1.27-3.61,2.64-5,.9-.93,1-2.86,3-2.15.67-1.31,1.74,0,2.51-.38a17.33,17.33,0,0,1,2.85-1.56,14.4,14.4,0,0,1,3.48-.06c1.4,0,.25-2,1.59-2,1,0,1.94-.11,2.92-.18-.19-1.1,1.58-1.51.66-3.2-.81-1.49-1.9-2.18-2.77-1.51-1.62,1.23-3.74.8-5.18,2a7.72,7.72,0,0,1-5.74,1.88c-.46,0-1.14,0-1.37.25-2.1,2.5-5.35,1.64-8,2.49-2.41.78-5.27,2.16-8,1.16-1.76-.66-2.47,1.9-4,.88s-2.75.64-4.28.27a22.26,22.26,0,0,0-4.48-.08c-.71,0-1.21.46-1.75.59-1,.23-2.43,2.62-3.17-.35-.06-.21-1.22-.28-1.84-.2-1.39.17-3-.69-4.15.82-1.07-.8-2.12-1.47-3.15.1-.1.16-.72.18-.94,0-1.28-.87-2.13-3.23-4.21-1.13-1.32-1.57-3.13-.9-4.64-.76s-1.84-1.35-3.1-1.11c-.83.16-1.9,0-1.53-1.13.23-.73.54-2.5,2.18-1.12.56.47.67-.41,1.05-.53.86-.29,1.78-.21,1.83-1.71,0-.79,1.82,1.23,2.35-.48,1.16.43,1.56-.94,2.58-1.05,1.45-.16,1.9-2.24,3.6-2.13.39-1.9,2-2.89,3.18-4.18-2.1-1.95,2.3-1.38,1.19-3.14-.94-1.5,1-2.57,1-4.06a3.79,3.79,0,0,0-1.5-3.41c-.79-.66-.44-1,.45-1,2,0,4,.42,5.27-1.78,1.44,1.48,2.72-.19,4.08-.19a19,19,0,0,0,11.93-3.82c2,.3,3.61-2.33,5.77-.66,1,.8.84-.21.94-.71s.53-1.12.92-.8c1.64,1.34,3.26-.74,4.68,0,1.73.93,3.08-2.62,4.85-.26a14.71,14.71,0,0,0,2.4-.89,10.35,10.35,0,0,1,6.38-.42c1.62.35,3.64-1,5.43.36,1.66-2.18,3.16.14,4.74.15a13.86,13.86,0,0,1,4.63.88c1.83.64,3.58,1.16,4.93,2.6a13,13,0,0,0,2.71,1.86,5.83,5.83,0,0,1,2.48,3.93c1.09,4.7,2.46,9.35,1.74,14.19-.22,1.45,2.53,2,.71,3.43s.4,2.2.44,3.34c.12,3,0,6.11-2.74,7.8-1.73,1.08.33,3-1.46,3.66-1.63.64-1.33,3.29-3.48,3.46.12,1.87-1.56,2.93-2.49,3.9-2.27,2.36-2.84,5.69-5.22,7.95-1,1-.84,3.13-2.65,3.77-.4,2.57-3.14,3.5-4,5.76a16.13,16.13,0,0,1-3.89,5.88c.64,1.94-2.4,1.07-2.27,3.06.06.88-2.33,1.79-2.48,2.85-.28,2-2.11,1.66-3,2.7-1.27,1.54-1.15,2.62.41,4,1.22,1.11,2.62-.28,3.89.86.94.85,2.58,1,3.69,1.88.09.08.65-.59,1-.66,1-.18,2.3-.39.81,1.2-.06.07.19.63.32.64a12.38,12.38,0,0,1,7.25,3c1.66-1.19,2.58.49,3.81.79a7.1,7.1,0,0,1,3.71,2c1.65-1.22,2.18.86,3.2,1.05s1.64,1.5,2.53,1.1c2-.87,2.3,4,4.63,1.21a11.82,11.82,0,0,0,.69,1.63c2-.54,2.72,4.16,5.2,1.26.23.23.56.43.69.71,1.42,3,4.92,3.64,7,5.92.52.57,1.43-1.29,2.11.14a11.08,11.08,0,0,0,1.42,2.4c.91,1.08,1.84,1.61,2.25-.44.27-1.3.71-.28,1.22-.1,1.17.41-1.25,3,1.55,2.36,2-.43.94,2.34,2.33,2.54,1.63.22,2.29,2.19,3.51,2.28,1.75.14,1.3,3.39,3.59,2.17.14-.07.75.31.75.46-.09,3.5,3.4,3.67,5.09,5.5.2.21.76.22.8.4.81,3.35,4.22,4.28,6.22,6.52.6.66,1,.91.76,1.78-.36,1.54.82,2.85,1.28,2.22,1.33-1.8,2.94.49,4-.58.89-.89,1.17,1.43,1.76.24a2.36,2.36,0,0,0-.12-2.32,1.5,1.5,0,0,0-.35-.36c-3.21-2.17-3.94-6.82-8.06-8.1-.18-.06-.17-.59-.34-.83-2-2.71-1.87-2.62.24-4.78a13,13,0,0,1,2.83-1.7c4.39-2.7,9.48-4.24,13.13-8.15.6-.65,1.42,1.35,2.13-.12.41-.84,1.64-1.12,1.7-2.3,0-.28.3-.81.39-.79,2.59.45,3.48-2,5.19-3,2.85,3,2.19-1.31,3.46-1.73,1.74-.58,3.28-1.76,5-2.32,2.09-.67,3.07-2.69,4.91-3.58-.47-2.67,1.73.24,2.23-1.08.39-1,1.57-1.69,2.39-2.51l2.83-2.83c.82-.82,1.51-2,2.5-2.41,2-.88,3.94-1.48,5.15-3.73,1-1.89,4-1.67,5.36-3.1,1.58-1.72,3.75-2.88,4.94-4.82,1.73-2.82,5.53-3.22,6.85-6.57.53-1.36,3.24.47,4.29-1.38,2.18,1.74,4.09-1.68,6.24-.32,3.58-2.27,5.93.48,8.52,2.12,1.22.76.51,2.11.71,3.19.17.9,1.37,1.71-.13,2.65s-1.15,2.85-1.73,4.26c-.95,2.3-1.42,5-3.35,6.52-1.42,1.1.87,2.33-.41,2.45-1.6.15-1.39,1-1.39,2,0,1.17-1.34,1.45-1.65,2.32-.6,1.69-3.49-.43-3.28,1.93.16,1.89-1.63,2.33-2.09,3.67-.15.45-3.74,3-4.17,3.2s-.69,0-.56.85A4.55,4.55,0,0,1,710,543c-1.87.52.11,1.24-.06,1.41-1.33,1.34-2.23,3.25-4.37,3.6-.46.07-1.11-.24-1.34.34-.47,1.15.44,3.07-2.26,2.78-1.41-.16-2,2.34-3.33,2.62-1.48.32-1.57,1.35-2,2.21-.57,1.15-2.25.58-2.58,1.83-.12.48-.2,1.25-.59,1.17-2.58-.56-2.75,1.61-3.37,3-.33.75-.76,1.3-1.28,1-2.17-1.36-3.34.13-4.64,1.4s-2.53,2.82-4.82,3c-.75.06-3.06.46-2.42,2.82.2.75-.85,1.62-1.92,1.86-.63.14-.61.21-2,2.46-.29.47-1,.76-1.21.49-1.75-1.93-2.69-.4-4,.65-1,.79-.56,2.21-1.7,2.87-.37.2,1.9.83.11,1.5-1,.39-5.06,3.79-5.16,4.76-.11,1.2-1.08,1.58-1.64,2.34-.78,1.07-2.82.87-2.77,2.77-2.08-.05-1.36,2.48-1.74,2.55-2.69.56-3,3.21-4.46,4.73-2.72,2.76-5.26,5.71-7.71,8.71a7.24,7.24,0,0,0-1.81,3.73c-2.11.07-1.69,1.77-2.13,3a14.83,14.83,0,0,1-2.06,3.15c-.53.79-1.8,1.12-1.69,2.27.08.81-1.89,1.36-.25,2.29a2.3,2.3,0,0,1-.31.67c-1.11,1.56-3.35,2.31-3.45,4.56-.09,2-2.87,2.66-2.36,5.14.13.65-1.7,1.74-2,3.09-1.83-.23-1.56,1.64-2.4,2.42-2.25,2.08-3.53,4.9-5.42,7.21-1.54,1.9-3.92,3.18-6.06,4.54-1.14.73-2.48,1.64-2.69,2.67-.31,1.54-1.07,1.34-2,1.38a1.75,1.75,0,0,0-.84.27c.32,2.92-2.63,3.2-3.92,4.79-1.07,1.31-1.52,3.18-4.06,3.36-1.63.12-2.39,3-4.44,3.6a3,3,0,0,0-1.5,1.17c-1.91,3-5.87,3.94-7.41,7.34-.33.73-1.33.18-1.75.5-1.12.87-3.26.33-3.42,2.62,0,.68-1.81,0-1.86,1.66s-1-.34-2,0c-1.52.56-1.67,2-2.8,2.7a24.39,24.39,0,0,0-3.7,2,17.8,17.8,0,0,1-5.74,3c-.3.1-.74-.11-1,0a4,4,0,0,0-2,2.58c-.13.51-1.42-.4-2.5.24a14,14,0,0,0-2.6,2c-1.17,1.1-1,1.49.67,2.25a3.91,3.91,0,0,0,4.29,0,176.1,176.1,0,0,0,16.83-10c1.55-1.07,3.16-2,4.73-3.06.84,1.76,3,2.77,3.45,4.36s3.51,1.6,2.4,4c0,.1.34.57.59.63.76.21,1.75-.37,2.28.49.27.45-1.36.6-.53,1.36.5.45,1.63-.06,1.66,1.26s1.69,1.19,2.51,1.78c2.39,1.71,4.15,2.83,5.46,4.65.73,1,1.21,2.37,2.18,3s2.32,1.13,3.05,2.22c1.13,1.71,3.21,2.12,4.57,3.51,1.14,1.17,2.23,2.43,3.32,3.61,1.39,1.5,3.8.34,4.6,2.36.63,1.6,2.83-.14,3.23,1.48a3,3,0,0,0,2.12,2.31c5.07,1.84,9.68,4.76,14.82,6.49a15,15,0,0,0,2.79.48c.78.11,1.73-.36,2.29.49,1.1,1.64,2.71,1.69,4.38,1.49.95-.11,1.44.54,2.13.93,1.76,1,1.77.89.66,2.47a32.19,32.19,0,0,1-5.12,5.25c-1.24,1.1-1.64,3.12-4,2.4-.88-.27-.74.84-1.09,1.16-1.69,1.56-2.35,4-4.64,5.07-.62.29-1,1.23-1.4,1.86-1.46,2.09-3,4.1-5.59,5.19-1.09.46-2.83.81-2.81,2.68-1.73-.41-2.2,1.34-3.17,1.81-1.61.78-2.32,2.66-3.74,3a9,9,0,0,0-4.18,2.16c-.51.43-1.4.23-1.49,1.38a1.94,1.94,0,0,1-1.21,1.42c-4,.64-6.88,3.54-10.36,5.21a25,25,0,0,1-7.09,2.31,25.46,25.46,0,0,0-9,3.31c-3.07,1.89-6.56,2-9.57,3.52-3.81,1.94-8.12,1.9-12,3.64-3.64,1.63-7.65,2.45-11.49,3.63-.54,1.64-1.8-1.32-2.56.44-.33.77-1.79-.13-2.67.7a5,5,0,0,1-2.84,1.45c-1.94.1-3.51,1.71-5.59,1.11a3,3,0,0,0-3.42,1.36c-1,1.39-1.8-1.45-2.74-.2a2.46,2.46,0,0,1-2.67.78,8.52,8.52,0,0,0-5.45,1.37c-.57.32-1,.8-1.73.66-3.46-.65-6.65,1.43-10.08,1-1.95,1.7-4.55.69-6.81,1.69-2.59,1.15-5.24.1-7.44-2a60.32,60.32,0,0,0-5.39-4.91c-1.63-1.19-2.7-3.55-4.45-4.92-2.94-2.29-5.09-5.46-8.32-7.42-1.2-.72-1.06-3.29-3.39-2.48-.84-1.24-1.08-3.09-3.16-3-.19-1.89-2-2.16-3.16-3.07-1.69-1.37-2.19-4-4.51-4.53s-3.08-3.35-5.52-3.59c-3.41-3.93-7.8-6.55-12.16-9.24-1.23-.76-2.78-2-3-3.2-.3-2.09-2.79-1-3-2.7-.27-1.91-2.28-2.53-3.23-4s-2.19-3.34-4.41-3.62a7.6,7.6,0,0,0-4.47-4.56c.37-2.66-2.56-.46-3-2.08-.39-1.32-.64-2.87-1.88-3.69-1.86-1.23-2.35-3.77-4.5-4.62-1.45-.56.63-3.14-2.07-3.16-1.07,0-1.94-1.68-1.52-3.22-3-1.9-3.43-5.8-5.95-7.87-1.47-1.19-.19-3.47-1.73-3.66-2.27-.27-1.45-2.21-2.23-3.22a8.89,8.89,0,0,1-2.09-7.11c.16-.88,0-1.82-.88-2.1-1.83-.61.41-2.14-.8-2.89a2.51,2.51,0,0,1-1.3-2.93c.45-1.47-1-2.2-1.11-3.59-.14-2.53-1.36-4.95-.93-7.59a1.87,1.87,0,0,0-.23-1.38c-2.11-2.33.1-4.81-.19-7.23-.07-.64.76-2,.25-2.62-.95-1.14-1.13-1.9.06-2.84a.53.53,0,0,0,.12-.44c-.29-1.21-1-2.22-1.16-3.57-.15-1.14,2-1.71.46-2.81,1-1.59-.68-2.94-.36-4.56a34.51,34.51,0,0,0,.09-5c.05-1.25-.43-2.57.83-3.68.91-.79-1.51-1.83,0-3.2.66-.59-.42-3.15.24-3.74,1.25-1.11.31-2.64,1.31-3.53a1.83,1.83,0,0,0,.55-1.78,8.22,8.22,0,0,1,.78-5.88c1.14-2-.54-5.26,2.23-7-.57-2.49.8-4.73,1.21-7,.53-3.09,2.45-6,3.12-9.16,2-1,1.36-3.46,2.62-4.93.42-.5-.23-1.59.55-2.25,2-1.69,1.71-4.82,4.22-6.29s3.42-4.71,5.68-6.61a1.68,1.68,0,0,0,.46-.68c-2.38-2.39.78-2.88,1.45-4.2.14-.28.61-.45.66-.72.23-1.1-.34-2.29.39-3.35.74.56,1.4,1,2.14-.1.62-.91.75-2,1.7-2.83.68-.56.83-1.75,1.5-2.32.92-.8,1.08-1.94,1.75-2.8a18.35,18.35,0,0,1,2.1-2.13c2.07-1.92,2.16-4.79,3.32-7.14.58-1.18.87-2.83,1.72-3.73,1.11-1.19,1-2.74,1.76-3.79,1.25-1.72-.22-4.52,2.39-5.54.09-2.06,1.54-3.8,1.35-6,0-.57.87-1.34,1.5-1.82,1.06-.84-1.25-1.17-.24-1.77,2-1.18,1.57-3.05,1.67-4.83.06-1-.71-2.47,1.42-2.43.71,0,.5-1,.57-1.66.17-1.43-.57-3,.53-4.26s-.29-3,.77-3.57c.61-.3,2.31,1.06,3.35.49a10.41,10.41,0,0,0,4.27-3.63,5.22,5.22,0,0,1,2.54-2.45c2-1,2.09-3.76,3.53-5.44-.73-2.82,1.52-5.28,1.18-8.13-2.6-4.94.43-10.94-3.1-15.76a.94.94,0,0,1,.65-1.5c3.27-.33,5.93,1.89,9,2.26.36,2.68,3.12,3.55,4.32,5.69a47.45,47.45,0,0,1,2.79,5.86c.4,1,.37,2.19,1.37,2.93a2.16,2.16,0,0,1,.77,1.69c.48,3.69,1.29,7.33,1,11.1-.08.92-.34,1.94.68,2.72.59.44.35,1.11-.14,1.69a3.87,3.87,0,0,0-.44,4.17c1.27,2.07.88,4.13.8,6.17s.79,4.15-.77,6.18c-.94,1.21,1.71,2.38.84,4,1.27.73.39,1.33.07,2.2-.61,1.68-1.91,3.26-.68,5.42.48.82-.12,2.61-.74,3.65-.89,1.47-.36,3.62-2.38,4.58-.61.3.9.77.53,1.33s-1.06,1-.78,1.67c.69,1.76-1.95,1.29-1.66,2.46.24,1,1.33,1.82,1.45,2.8.05.45-.7.88-.09,1.82.47.71-.74.56-1.26.55s-1.63-1.78-1.31-.05c.6,3.14-2.42,4.88-2.22,7.67-1.73.09-1.29,1.43-1.5,2.47a6.58,6.58,0,0,1-2.07,3.15c-1,1,.11,2.52-.7,3.71-.44.64-2.07.87-1.13,2.07s.21,1.66-.39,2.48c-.27.36,1.29,1.15,1.89,1,2.43-.44,3.41-2.45,3.87-4.32.66-2.68,2.22-4.76,3.39-7.11,1.3-2.61,2.9-5.23,3.55-8,.57-2.45,2.85-4.29,2.25-7.15-.21-1,.63-1.34,3.15-2.17.09,0,.23.11.35.17.69-3,3.92-3.84,5.39-6.18.28-.44.5-.92,1.07-.72,2,.72,1.77-1.86,2.59-1.88,1.55,0,2.35-.41,2.7-1.92a1.58,1.58,0,0,1,1-1c3.78-.57,5.5-4.17,8.57-5.85,1.22-.67,2-3.21,3.55-3.18,2.53,0,2-2.48,3.59-3.31a9.21,9.21,0,0,0,1.57-1.11L515.47,520s0,.06-.06.1c-.61,2-2.12,3.25-3.57,4.5s-2.27,3.09-4.56,3.5c-1.86.34-2.12,2.94-3.78,3.89-.13.07-.33,0-.49,0-1.54.09-1.78,2.37-3.68,2-2.18-.38-1.9,2.15-3.15,3a43,43,0,0,0-7.95,6.21c-.22.24-.45,1.11-1,.44a1.76,1.76,0,0,1-.2-1.39c.37-1.34.61-3,1.32-3.9,1.3-1.7-1.64-2.49-.38-3.89.26-.28-.12-.92.36-1.34,1.18-1,2.59-2.1.84-3.82,2.12-1.34-.55-2.48-.16-3.74.19-.61,2.12-1.42-.29-1.62-.86-.07-.92-.93-.63-1.51.4-.82,2-1.3,1.62-2.09s-1.13-1.51-.13-2.47-.83-1-.65-1.92,1.9-1.67.94-2.46c-1.26-1-.62-2.42-1.28-3.54s.4-2.52.55-3.81c.23-1.95-1.54-3.79-.15-5.68-2-1.74-.25-4.21-1.14-6a14.35,14.35,0,0,1-1.88-6.73c0-.24-.38-.71-.53-.7-1.62.2-1.47-.89-1.44-1.89a4.13,4.13,0,0,0-2.24-4.13c-.47-.24-.87-.43-.76-1a3.4,3.4,0,0,0-2.53-3.78c-2.1-.41-1.34-3.13-3.13-3.15-3.07-.05-5.4-3.13-8.66-2-1.1.38-1.81-1.27-2.41-.66-1.31,1.31-1.93.26-2.89-.31a.9.9,0,0,0-1.38.83c-.06,1.36-1.22,2-2.08,2.6-1.56,1.09-2.84,2.12-3,4.24a7.22,7.22,0,0,1-1.18,3c-1.63,2.74-3.24,5.46-2.77,8.86a4.12,4.12,0,0,1-.33,1.34c-.46,2.27-3.06,4.35-.69,6.94.32.35-.35.82-.52,1.24-.56,1.44-1,2.93-1.45,4.4,1.92,1,.27,3.16,1.41,4.41.3.34.53.49.17,1.09-1,1.62-.91,1.67-.59,4.51,0,.33.15.79,0,1-.92,1.09-2.33,1.9-2.41,3.5a10.46,10.46,0,0,1-.82,3.84,53.14,53.14,0,0,1-2.74,5.37c1.09,4.22-3.7,6.62-3.31,10.62-2,1.68-2.1,4.1-2.75,6.37-.59,2.05-1.78,3.93-2.52,6a3.46,3.46,0,0,1-2.42,2.41c.51,1.43-.82,2.39-.94,3.59-.14,1.42-2.34.28-2.11,2.08.28,2.12-1.11,3.63-2.59,4.89s-1.54,4-4.16,4.2c.53,2.8-2.37,3.64-3.22,5.67-.71,1.71-2.65,2.87-2.07,5.2.12.47-.82,1.36-1.45,1.82-1.5,1.1-1.62,3.14-3.14,4.24a7.15,7.15,0,0,0-3.1,4.17c-.22,1.16-1.27,1.77-1.31,3,0,.75-1.54,1.24-.57,2.46,1.62,2.06-2,.34-1.35,1.81,1.16,2.63-1.44,4.09-2.18,6.1s-.66,3.93-1.61,5.83c-.68,1.38-1.92,3.68-.2,5.57-1.42,1.89-1,4.66-3,6.26-1.38,1.14-1.3,2.08,0,3.17.34.27,1.42,1.11.43,1.26-1.45.22-1.13,1.07-1.58,1.86a8.36,8.36,0,0,0-.84,5.62c.38,2.25-1.29,4-1.1,6.1a26,26,0,0,1,0,4.5c-.09,1.29.55,2.71-.31,3.85-1.11,1.46.84,2.32.45,3.85-.74,2.9.74,6.12-1,9,1.85,4.1.42,8.43.83,12.64.13,1.32-.52,3.14.14,3.9,1.29,1.48.51,3.13,1.12,4.58s1.16,3.17,1.73,4.76c-2.24,2,1.67,2.16,1.07,3.79-.42,1.14.22,1.75,1.52,1.8.52,0,.63,1.08.41,1.22-1.52,1-.34,2.12.1,2.66,1,1.21.56,2.79,1.39,4s1.55,2.43.57,4a.73.73,0,0,0,.66,1,1.89,1.89,0,0,1,1.93,1.25c.45,1.69,2,2.84,1.92,4.81-.08,2.3,3.21,2.84,3.3,4.65.12,2.27,1.68,3.07,2.75,4.42.59.74,1,1.7,1.54,2.32,1.81,2.26,3.2,4.87,5.5,6.79,1.91,1.59,3.57,3.5,5.33,5.26s3.65,3.44,5.27,5.34c1.44,1.68,4.27,2.25,4.24,5.15a1.05,1.05,0,0,0,.45,0c1.7-.39.53,2.4,2.61,2.21,1-.08,2,2.15,3.19,2.94,2.33,1.49,3.58,4.12,6.18,5.36,1.37.66,2.08,2.49,3.86,2.76-.15,2.62,2.54,1.17,3.44,2.39a24.06,24.06,0,0,0,2.45,2.5c.81.81,1.6,1.67,2.46,2.44.7.62,1.89.43,2.41,1.42.68,1.28,2,.87,3.05,1.08s-2.05,2,.7,2c.86,0,1.75,1.38,2.53,2.21s2.12,1.39,2.15,2.58c.06,2.55,1.87-1,2.05.67.36,3.28,4.41,3.4,5.3,6.22,2.69.34,3.49,3.19,5.71,4.29,2,1,3,3.3,5,4.42s2.45,4.07,4.88,4.89c-.21,2.32,3.35,1.52,3.3,4.13,0,1,1.82,2.46,3.35.51a.79.79,0,0,1,1.28.66c.11,1.44.24,1.47.78,1.17,1.09-.6,2.12-1.31,3.24-1.85s2,.94,2.93.63a19.68,19.68,0,0,0,2.83-1.63c.24-.13.83-.1.93.07,1,1.63,2.08.69,3.15.1,1,1.78,2.33-.29,3.07.19,1.76,1.18,1.63-.93,2.52-1.18,1.14-.31,2.49,0,3.42-1,1,1.32,1.89.91,2.77-.16a14.47,14.47,0,0,1,1-1c1.17,2.84,3.36-1.49,5,.75.68,1,1.59-.1,1.56-1.35,0-.58-.29-2.1,1.07-.78.84.82,1.83.11,2.76.62,1.32.72,1.69.46,1.39-1.4-.16-1,.61-.94.85-1.41.38-.75.77-.11,1,.19,1.07,1.29,2,1.93,3.58.42,1.12-1.07,3.17-.62,4.32-2.07,1.38-1.73,2.91-1.29,4.43-.09.06,0,.43-.4.69-.53a18.31,18.31,0,0,1,5.39-1.57c1.61-.25,3.73,0,4.9-1.74.71-1.07,1.35-1,2.2-.1.2.23,1.19.17,1.24-.38.1-1.21.56-1.51,1.79-1.66a5.83,5.83,0,0,0,3.73-1.81c1.26,1.71,2.42,0,3.62,0,1.63,0,2.64-1.92,3.2-1.72,1.45.52,2.48.71,3.68-.36.25-.22,1-.1,1-.64,0-.36-.72-.93-.64-1,.49-.61,1.09-.54,1.67,0,.28.27.41.68,1.08.25,2.69-1.72,5.92-1.8,8.87-2.72a22.13,22.13,0,0,0,7.8-4c.87-.73,2.68-1.53,3.53-1.12.68.33,1.65.44,1.64-.1,0-1.68,1.46-1.38,2.14-2.07.93-1,1.77-1.85,3.37-1.62.79.12.7-.89.69-1.53,0-2,.56-.91,1.52-.51,1.19.51,1.94-.29,1.82-2-.08-1.21.57-1.47,1.39-1.64.33-.08.9,1,1,.45.27-2.43,1.41-.92,2.38-.75s1.84.31,2-1.32c.21-2.38,1.71-3.73,4.26-3.65.58,0,1.77-.24,1.51-.5-2.13-2.09,2.57-1.29,1.27-3.35-.94-1.49,2.89-.76,2.19-2.92,0-.14.62-.15.64.26.07,1.28.42,2.12,1.4.6s1.58-3.54,4.18-3.17c.49.07.68-1,.26-1.62-.19-.27-.69-.66-.67-.68.62-.74,1.27-1.45,1.93-2.15s1.43-.59,2.06.14.72,0,.89-.33c.69-1.39,1.39-2.76,2-4.18.16-.41.1-1,.66-.91s.66,1.11,1.44.29c.6-.62.69-1.73,1.1-2,1.51-1,.1-3,1.69-3.9.7-.39,1-.74,1.14.33.07.67.11,1.41,1,.58.7-.65,1.66-1.31.59-2.4-.67-.68-.55-.86.37-1.12,2.27-.63.62-2.49,1-3.74s-.74-1-1.46-1.32A50,50,0,0,0,648.2,720c-4.47-1.23-9.1-2-13.14-4.48-1.73-1-3.64-1.71-5.29-3-1.32-1.07-3.77-.71-4.06-3.23,0-.12-.57-.17-.87-.25a13.24,13.24,0,0,1-7-3.66c-.79-.86-2.12.3-2.68-.72-.35-.65-.08-1.66-.44-2.3-.5-.86-1.24,1.43-1.66.19-.68-2-2.18-2.85-3.81-3.93-1.17-.77-2.44-2.08-3.57-2.21-2.6-.29-1.37-2.53-2.32-3.63-1.42-1.64-4.39-1.64-4.64-4.46,0-.34-.36-.18-.69.14-2,1.86-1.64-.72-2.45-1.19-1.4-.81.45-2.91-1.48-3.21-1.68-.27-2.14-2.51-4-2.4.52-1.91-1.63-2.29-2-3.56-.29-.91-1.63-1.44-1.05-2.54.47-.9,1.59-.22,2.23-.57a12.09,12.09,0,0,0,2.21-1.92c1.41-1.32,2.55-3,4.53-3.54.14-2.29,3.66-1.94,3.48-4.47,3.21-.39,4.63-3.22,6.68-5.1,1.19-1.08,2.51-2,3.63-3.2,1.27-1.32,3.18-2.38,3.74-3.94.77-2.16,2.43-3,4-3.64a8.11,8.11,0,0,0,2.34-1.56c1.67-1.52,3.44-3,3.55-5.53,2.21.07,1.71-3,4.1-3.29,2.22-.29,2.16-3.27,3.21-5,.17-.28.44-.66.7-.68.86-.08,1.12-.47,1.64-1.24,1.74-2.61,3.65-5.1,4.63-8.11.66-2,2.65-3.2,3.16-5.18s.65-3.56,2.69-4.94c1.41-1,1.52-3.82,3.34-4.94,1.37-.84,0-2.31.47-2.42,1.25-.28,1.89-1.16,2.75-1.87,1.11-.93,1.55-2.81,2.57-3.24,2.36-1,.95-2.75,1.24-4.09s1.06-1.39,1.66-.83c.85.8,1.19.51,1.84-.13s.46-1.84,1.37-2.47a18.31,18.31,0,0,0,2.15-2.08,11,11,0,0,0,1.17-2c.57-.8.57-1.95,1.35-2.4.32-.19,1.48,1.86,1.51-.44,3.21-2.36,4-7.53,9.1-7.71,1,0,.62-1,.95-1.35,1.91-2,3.39-4.74,6.1-5.53a10.8,10.8,0,0,0,5.57-3.41c.62-.74,1.57-.42,2.08-1s-1.57-1.38-.16-1.56c1.66-.21,3.45-.65,4.23-1.71.94-1.29,3.5-.69,3.25-3,2-.22,2.65-1.84,3.48-3.28,1.94,2.18,1.91-1.21,3.29-1.19,1.88,0,2.18-1.56,2.14-3.18,0-.5.44-.8,1-.74a3.46,3.46,0,0,0,2.23-.67c1.49-.92,1.21-3.46,3.44-3.55.12-2.42,3-2.32,3.73-3.87,1.22-2.45,3.3-4,5.06-5.88.94-1,1.88-1.86,1.49-3.4a1.63,1.63,0,0,1,1-2c1.87-.53,3.52-1.08,3.4-3.47,1.93.32,2.1-1.69,2.28-2.45a30.21,30.21,0,0,1,4.54-9.1,22.77,22.77,0,0,0,3.77-9C737.08,509,738.24,509.13,737.68,508.14ZM517.37,450.2c-.7,2-2.51,3.62-2.41,6,0,.51-3.67,2.09-5.26,3-1,.56-2.36,1.73-2.53,2.46-.51,2.16-1,.52-1.72.37-1.11-.23-2.52-1.67-3.47.4-.16.34-3.39,1-4.07.93-1.17-.07-2.4,1.56-3.58-.35-.39-.63-1.53,1-1.89.77a47.85,47.85,0,0,1-5.18-4.13c-.47-.41.41-.65.5-.89.41-.79,0-1.25-.24-1.85-.88-1.93-.75-2,1.59-2.95.28-.12.69-.22.8-.44,1.86-3.79,5.9-3.25,9-4.54,1.17-.49,2.4-2.12,3.69,0,.12.19,1,.16,1.29-.37l4.16-2.16c.23-.41.44-.44.71-.18.87.81,2.37,1.64,3,1.24,1.33-.81,2.57-.46,3.8-.45C517.52,447.07,518,448.36,517.37,450.2Zm125.6,93c.06.48-.64.56-1,.81-1.52,1.25-3,2.5-3.47,4.7-.1.5.05,2.57-1.84,2.29-.31,0-1,.29-.3.87,1.45,1.17-.08,1.91-.38,2.85-.14.44-.09,1.14-.56,1.14s-.8-.58-1-1a18,18,0,0,0-7.25-7.42c-3.34-1.76-6.12-4.59-9.14-6.94-.75-.58-1.19-1.42-2.35-1.64-.82-.15-1.46-1.23-2.19-1.9-1.18,1.71-1.72.09-2.47-.47s-1.18-1.42-2.35-1.63c-.82-.14-1.46-1.23-2.19-1.89-2,2.49-1.09-1.34-2.18-1s-1.7-1.29-3.09-1.06-2.09-1.39-3-2.27A2.87,2.87,0,0,0,596,528c-.92,0-2,.39-2-1.31,0-.83-.93-.65-1.56-.69-1.46-.09-3.32.74-3.75-1.76-.06-.32-.61.55-1,.59a11.57,11.57,0,0,1-4.52-1.21,2.37,2.37,0,0,1-.71-.7c-1.1-1.94-3.63.1-4.78-1.76-.89-1.43-2.49-2-3.8-2.86-.65-.45-1.27-.17-1.89-.29-.94-.18-2.23.55-2.78-.42-.74-1.32.77-2.26,1.23-3.34a3.82,3.82,0,0,1,2.5-2.2,1.45,1.45,0,0,0,1.11-.72c.71-1.22.54-2.8,2.47-3.54,1.07-.41,1.36-2.66,2.24-3.91.42-.61-.21-1.86,1.1-1.86.79,0,.86-.55,1.24-1.08a142.86,142.86,0,0,0,9-14.26,44.71,44.71,0,0,1,4.09-5.3c1.27-1.63,3.27-2.76,3.15-5.21,2.13-.67,2.55-2.36,2.71-4.31.05-.53.69-1.05,1.13-1.51,1-1.07,2-2,2-3.75,0-.68.52-2.84,2.51-2.87.44,0,1-.84,1.27-1.4.63-1.24.63-3.2,1.95-3.6,2.13-.65-.14-3.48,2.29-3.76,1.75-.2,1.45-2.36,2.57-3.23a7.31,7.31,0,0,0,2.14-3.61,6.6,6.6,0,0,1,1.76-2.27c1.1-1.21,3-1.26,3.62-3.44.44-1.54,2.25-2.93,3.78-3.85s1.31-3.07,3.37-3.73c1.12-.36.65-2.88,2.14-4,2.06-1.56,6.25-8.29,7.46-10.79a31.47,31.47,0,0,1,3.13-4.7c1.11-1.52,3.4-2.33,2.82-4.83,2.93-.89,2.41-4.71,4.9-5.85,1.63-.75-.31-2.06.78-2.92a12.55,12.55,0,0,1,3.13-2.13c.43-.17-1.92-1.31.32-1.69.82-.14,1.41-1.35,2.26-1.75,1.47-.69-.48-3.08,1.51-3.08,1.28,0,2-1,3.09-1.06,1.36-.12,1-1.07,1-1.81s.17-1.25,1.08-1.23,2,.31,2-1.35c0-.74.9-.78,1.54-.52.47.19.73,1.3,1.41.35,2.25-3.14,4.79-.82,6.77,0,1.7.74,4.16,2.09,3.19,4.94-.47,1.39,2,2.13.92,3-1.56,1.27.28,1.85.16,2.78s0,2-1.56,1.8-2.49,1.07-4.08,1.11c-2.74.07-5.24,2.82-6.6,5.42-.51,1-.5,3.21-2.84,2.49-.92-.28-1.09.63-.94,1.27.44,1.88-1.37,2.6-2.16,3.57-1,1.24.65,2.59-.69,3.44a1.33,1.33,0,0,0-.35.36c-.83,1.38-1.65,2.78-2.48,4.17,2,1.61-.6,2.75-.51,4.33a17.58,17.58,0,0,1-2.12,8.54,4.62,4.62,0,0,0-.76,1.7c-.15,1.58.66,3.26-.6,4.75-1.05,1.25.48,3.37-1.36,4.43a3.83,3.83,0,0,1-.9,4.8c2.11,2.15-2.59,2.71-1.1,4.71-1.09,3.55-1.73,7.33-3.38,10.59-1.94,3.86-2.83,8.4-6.29,11.37-.94.82,1.95,1.62-.18,1.9-1.21.16-3-.32-1.19,1.79.14.17-.2,1.11-.49,1.21-3.16,1.1-2.53,4.72-4.47,6.6.51,1.79-.79,2.69-1.81,3.75-.55.57-1.35,1-1.2,2,.28,1.89-.52,1.56-1.68.9-.13-.08-1.07.8-1.27,1.37-1.24,3.52-4.48,5.63-6.11,8.89-.34.68-1.18,2.33-2.41.54-.12.1-.36.24-.34.31.67,2.29-1.76,2.88-2.58,4.33a6.72,6.72,0,0,1-4,3.45c-1.18.32-2,5.34-1.41,6.57.1.2.55.28.85.31a.77.77,0,0,0,.92-.85c0-.49.06-.95.62-1,.11,0,.35.51.37.8,0,.48.27,1.15.63.81s1.77-.59.94-1.69c-1-1.33-.94-2,1-2.11a4.46,4.46,0,0,0,4.12-3.08,5.57,5.57,0,0,1,3.33-3.82c.78-.27,1.17-.55,1-1.28a2.49,2.49,0,0,1,1.24-2.49,12.12,12.12,0,0,0,4.73-6.45c.44-1.16,2.73-.51,2.09-2.59-.55-1.8,1.68-.9,2.23-1.95,1.94-3.76,5.48-6.41,6.88-10.67a22.84,22.84,0,0,1,3.52-6.08,11.79,11.79,0,0,0,2.43-5.47c.21-1.77,2.73-2.88,1.9-5.18,2.21-1.92,1.81-4.94,3.07-7.22a5,5,0,0,0,.94-3.13c-.07-.65-.29-1.55,0-2,2.42-3,2-6.85,2.9-10.31a4.17,4.17,0,0,1,1.28-2c.47-.48.95-.92.76-1.7-.81-.7-.83-1.23-.07-2.22.48-.63.13-1.93.08-2.93-.1-1.86-.09-3.63,1.8-4.77,1.11-.66,1.21-1.76,1.24-3,.14-5.22,2.31-10.15,5.39-14.77,1.42-2.13,3.71-4,3.61-7,0-.5,3-1.64,3.47-2,2.27-1.63,5.59.13,7.51-2.44.72-1,1.07.09,1.38.43A2.9,2.9,0,0,0,685,404c2.55-.21,2.45-.11,3.5,2.88.63,1.82,1.43,3.45.6,5.48a3,3,0,0,0,.47,2.76c.94,1.38.59,3.08.15,4.67-1.2,4.39-3,8.69-2.66,13.38.12,1.53-1.42,2.44-1.12,4.1.21,1.17.61,2.62-.46,3.76s1.54,1.61.26,2.8c-.76.72-1.77,2-1.58,2.74.42,1.64.39,2.8-1,3.86-.17.14-.07,1,.19,1.28.91.87,1.09,1.71,0,2.42-1.34.88-1.3,2.12-1.33,3.48s.29,2.45-.66,3.75c-.62.85-1.17,1.83-1.87,2.7s1.29,1.48.54,2.37c-1.05,1.23-2,2.45-1.87,4.15a9.26,9.26,0,0,1-1.11,4.3c-.67,1.39-1.38,2.76-2,4.18-1.17,2.69-3.33,5-3.07,8.25a3.52,3.52,0,0,1-1,2c-2.79,3-3.41,7-4.93,10.51-.78,1.85-2.52,3.3-2.06,5.68.13.67-2.95,0-1,2.27.77.91-1.42,1.9-2.13,3-.26.39-.74.82-.7,1.19.17,1.72,0,3.18-2,3.59.49,1.77-1,2.58-1.75,3.78a72.67,72.67,0,0,0-5.15,8.86c-.53,1.14-3,.57-2,2,1.39,1.92-.58,1.57-1,2.31-.5,1,.33,2.63-1.78,2.76a1.86,1.86,0,0,0-1.37,1.84C645.19,539.4,642.64,540.83,643,543.24Zm-189.92-45c.53-2.25.52-4.68,1.89-6.7-1.56-2.26,1.15-3.81,1-5.72-.2-2.45,1.48-4.09,2.14-6.15.27-.86,1.12-1.52.94-2.61-.14-.88.45-1.15,1.2-1.07.52.06,1.05.43.76,1-1.16,2.25,2.34,4.45,0,6.68.59,1.35,2,3.09,1.58,4a4.4,4.4,0,0,0-.2,4.09c.58,1.05.91,1.64-.07,2.48a1.1,1.1,0,0,0-.29.86c.74,3.56-1,5.94-3.58,8-.42.35-.44,1.14-.77,1.66-.11.18-.57.16-.88.22-1.07.19-2.41-.6-3,.86-.71-.05-.92-.52-.73-.93C454,502.68,452.53,500.43,453.05,498.26Z"/><path d="M503,595.23c-.18-.39-.21-1.25-.54-1.13a2.34,2.34,0,0,0-1.38,1.36c-.33,2.11.21,4.34-.75,6.4,1.42,1-.76,1.37-.41,2.33a7.59,7.59,0,0,1,.05,2.48c0,1-.72,2.13-.66,2.64.32,3-1.76,5-2.5,7.56-.65,2.21-.23,5-2,6.59-2.14,1.87-1.6,4.92-3.51,6.56-1.2,1-1.12,2.69-2.35,3.56.74,2-2.49.85-2,2.58.66,2.32-1.92,1.65-2.6,2.83-.57,1,.45,1,.51,1.45.16,1.21.15,2-1.31.75-.63-.54-1.16-.1-1.7.84-1.28,2.26-2.27,4.89-5.19,5.82a2.91,2.91,0,0,0-1.64,1.76,2.66,2.66,0,0,0,.63,2.71c1,1.12,1.24-.16,1.84-.29a10.74,10.74,0,0,0,5.52-3.59,23.23,23.23,0,0,1,3.93-3.82c1.5-1,1.79-2.7,3.27-3.78s2.15-3.32,3.67-4.75c.41-.4,0-1.61.08-2.43.12-1.14,1.56-.34,2.11-1.53.63-1.36,2.64-2.06,1.88-4.14-.22-.61.4-.84.7-1.2.75-.88-.37-2.45,1.06-3s.16-2,.84-2.82c.88-1-.33-2.85,1.4-3.41s.37-2,.63-2.9c.45-1.62,1.71-3.11,1.36-5,2.23-1.72.11-3.45,0-5.17,0-.46-.19-1,.34-1.35,1-.71.53-1.8.73-3.32S503.83,596.91,503,595.23Z"/><path d="M684.08,552.21a1.85,1.85,0,0,0,2,1.73c.84-.1.93,1.57,1.9.61.58-.57,1.27-1,1.07-2a8.23,8.23,0,0,1,0-1.49c0-1.31-2.17-1.87-1.77-2.54.71-1.18.84-1.68,0-2.89a13.89,13.89,0,0,1-2-4.09c-.46-1.78-1.37-1.43-2.43-1.49-1.65,0-2.4.94-1.75,2.48C682.35,545.63,684.67,548.4,684.08,552.21Z"/><path d="M688.25,541.77c.85,1.46,1.6,3,2.46,4.42.51.85-.83.88-.58,1.39s.8.86.91,1.61c.31,2.06,1.29-1,1.87.18.15.32.7.94,1,.19.48-1.29-.53-3,1.06-4a3.12,3.12,0,0,1-.25-.35c-1.15-2.16-2.59-4.14-2.85-6.75-.12-1.16-4.45-2.88-5.34-2.44s-.63,2.63.72,4.71C687.49,541.11,688,541.36,688.25,541.77Z"/><path d="M614.37,460c2.42-.13,4.55,1.06,6.79,1.7a25.18,25.18,0,0,1,3.78,1.73c1,.5,2.36,1.73,3,1.44,2.55-1.16,1.38,2.58,3.15,2.12.76-.2,1.21,1.69,2.29.21.76-1,.58-1.5,0-2.5s-.87-2.44-2.35-2.69-.9-2.88-2.9-2.44c-.05-3.19-1.71.23-2.36-.57a2.26,2.26,0,0,0-.77-.55c-1.26-.65-2.36-1.7-4-.54-.62.43-1.07-.35-.34-1s.09-.7-.64-1.17c-1.67.55-3.56,1.62-5.72,1.26-1.21-.21-1.21.66-1.24,1.55C612.94,459.62,613.27,460.07,614.37,460Z"/><path d="M651.23,473.1c1,.15,1.88,1,3.1.95s.18,2.37,2.09,2c1-.19.89,2.39,2.92,1.31.93-.5,1.75,1.5,2.74,2.23.79.59,1.7.74,1.84-.32a1.45,1.45,0,0,1,.92-1.23,3.12,3.12,0,0,0-.35-2.11c-.12-2.38-2.36-1.55-3.46-2.41-2.47-1.94-5.49-2.82-8.22-4.27-1.63-.87-2.29.5-2.66,1.27S649.14,472.78,651.23,473.1Z"/><path d="M624.51,465c-1.36.18-2.31-1.74-3.54-.95-1.4.9-2.19.63-3-.58-.41-.62-.73-.24-1.06.1a6.59,6.59,0,0,0-1.37,1.43c-.34.68-1.95.65-1,2.13.7,1.09.93,2.42,2.68,1.87,1.55-.49,2.8.48,4,1.05s2.42,2.18,2.91-.67c.11-.64,1.15-.66,1.62,0,.63.81,1.43.66,2.24.64.45,0,1,0,.92-.13-.52-1-1-1.38-.94-1.78C628.14,465.54,626.81,464.7,624.51,465Z"/><path d="M649.49,481c1.26-.27,1.67.82,2.4,1.4.32.25.54.81,1.06.18.89-1.07,1.73-.61,2.37.27,1,1.36,2.89,1.32,3.86,2.76.52.78,1.76.69,1.73-.35,0-1.69,2-1.1,1.84-1.57a4,4,0,0,0-2.09-2.38c-1.33-.35-1.47-1.93-2-2a47,47,0,0,1-9-2.3c-.35.69-1.72.75-1.7,2.26C648,480.3,648,481.31,649.49,481Z"/><path d="M506.54,369.17a21.79,21.79,0,0,1-4.49,12.11c-.69,1-.54,3.12-2.67,2.84-.55,1.27-.7,2.65-1.3,4-.79,1.73-1.22-.15-1.49,0-1.3.86-2.8,1.39-3.89,2.64a14.25,14.25,0,0,1-4.83,4c-1,.44-1-.9-1.4-.59s-.4,1.18-.77,1.64c-1,1.27-2.59,1.67-4.05,2.26-3.58,1.45-7.63,1.52-10.94,3.75a2.34,2.34,0,0,1-.9.23c-1.59.21-3.33-.55-4.78.51-1.19.86-1.44,2.54-3.1,3.19a5.64,5.64,0,0,0-2.71,2.8c-.18.4,1.6,1.47,2.14,2.43.72,1.3,1.22,2.45,3.11,2.15.62-.1.53,1,.53,1.66s.1,1.2,1,1.28c3.59.31,5.33,3.75,8.39,5.07,1.32.57.57,2.43.51,3.66a5.11,5.11,0,0,1-1.22,2.94c-1,1.08-1.6-.47-2.43-.66a11,11,0,0,0-2,0,1.38,1.38,0,0,0-1.29.51c.43.17,1.05.21,1.27.52,1.81,2.57,3.29,5.4,5.7,7.53.2.18.13.88-.32,1.33-1.32,1.34.12,1.1.74,1.09s1.58-2.14,1.58.3c0,2.2,1.92,3.21,2.82,4.82,1.22,2.18,2.76,4.19,3.16,6.69.22,1.37,1.39,1.77,2,2.68-1.17.78-.83,1.5.13,2.11a2.15,2.15,0,0,1,.85,2.61,3.06,3.06,0,0,1-1.55,1.76c-.94.38-1-.87-1.47-1.21-2.57-2-3-5.22-4.86-7.57s-3.14-5.05-4.9-7.44-2.74-5.21-4.16-7.78a5.82,5.82,0,0,0-.41-.83c-.31-.38-.68-1-1-1s-.61.62-.54,1.12a3.77,3.77,0,0,1-1.57,3.86c-.77.58-1.4,1.68-2.22,1.81-1.17.2-2.07-1.33-3.59-1-.68.15-.54-.95-.63-1.57a3.93,3.93,0,0,0-3.12-3.29c-.84-.23-3.06-.55-.88,1.43-2.21,2-.58,3.37.81,4.85s2.25,3.49,3.81,5c.44.42,2.15,1.71.61,3.07,0,0,.58,1.15,1,1.31,1.16.39.52-.7.75-1.11s.57-.53,1-.09a6,6,0,0,1,1.14,2c.32.73.6.94.12,1.86s1.81,0,1.75,1.46c0,.74-.46,1.91.62,2.1,1.93.34,1.7,1,.74,2.25-.33.43-.77-.2-.35.29a1.94,1.94,0,0,0,1.27.49c1.48,0,2.33.31,1.28,2a11.47,11.47,0,0,0,1,4c1.88.44,1.63,2.36,2.51,3.4a17.89,17.89,0,0,1,2.62,4,9.93,9.93,0,0,0,1.84,2.73c1.49,1.59,1.37,1.52-.24,3.21-.95,1-1.27.26-1.8-.27L473,476.53c-1-.61-2.74-.62-2-2.58-1.77-1.59-1.56-4.09-2.63-5.88s-2.67-3.14-3.34-5.14c-.17-.53-.32-.85-.88-.93-2.29-.33-2.18-2-2.17-3.72,0-.78-.35-1.65-.37-2.29-.06-2.08-1.95-2.8-2.67-4.35a7.49,7.49,0,0,0-2.36-2.5c-.83-.61-.07-2.48-2-2.24-.58.07-3.34-1.89-4.24-1.87-1.61,0-2.94-.26-3.31-2.1-.4-2-3,.09-3.46-1.89a1.18,1.18,0,0,0-.55,1.2c0,.65,1.27.94.74,1.44-1.28,1.23-.07,4.21-2.51,4.2-1.84,0-3.44-1.44-4.77-2.89-.5-.54-.06-.7.11-1.09.69-1.55.33-2.83-.42-4.47-1-2.19-2.27-4.49-2.13-7.1.06-1.12-.58-1.11-1.44-1.42-1.1-.39-.48-1.74-.56-2.66-.24-2.81-1.78-4.37-4-3.08s-4.64-.25-6.35,1.66c0,0-.46-.24-.68-.4-1-.73-1.52-.7-2,.72-.61,1.79-1.82,2.66-3.61.9a.85.85,0,0,0-1.29.87c.2,1.35-.54,2.89-1.38,2.8-2.11-.23-2.76,1.58-4,2.4-1.58,1.07-3.1.71-4.66.89a2.87,2.87,0,0,0-.83.31c1.05,3.09-4,2.63-3.26,5.63.25,1-.88,2-1.75,2-3.13.07-6,1.48-9,1.65-.46,0-1.07-.91-1.13.28-.1,2-3.11.89-3.09,3.16,0,2-2.59,1.65-3.41,3-1,1.63-3.16.43-4.25,1.95-.33.46-1.08-.37-1.61-.75-1.93-1.34-3.87-2.67-5.89-3.88-1-.6-2.86-.49-1.2-2.47.81-1-.43-.64-.82-.86-1.16-.63-1.92-1.18-.85-2.76.6-.9-2.15-2.36,0-3.65-1.61-1.25.45-2.34.15-3.65a11,11,0,0,1,0-4.47c.83-4.14.67-8.39,1.47-12.53.24-1.26-.76-2.5-.56-3.9s-.33-2.82.14-4a3.94,3.94,0,0,0,0-3.24c-.38-1-.08-2.3-.08-3.47,0-1.33.08-2.67,0-4s.58-2.64-.77-3.69,1.4-1.66.24-2.76c-1-.93,1.65-1.7.22-2.76s-.16-1.87.28-2.82c.26-.55,0-1.12-.87-1.39-1.61-.48-2-2.3-2.87-3.48a3.26,3.26,0,0,1,.7-4,2.9,2.9,0,0,0,0-2.84c-1.35-1.59-1.16-2.79,0-4.28.32-.4.09-1.3-.89-1.32-.74,0-1.34-.17-.54-1a1.24,1.24,0,0,0-.1-2.07,1.86,1.86,0,0,1-.35-2.26c1.72-1.72.84-3.79.85-5.64s.88-3.65-.61-5.21c1.17-2.57.47-5.31.71-8,.2-2.21-.83-4.61,1-6.58-1.17-2.78.67-5.18.9-7.76.14-1.66.53-2.59,2.05-3.06-2.54-1.88,1.62-1.26.84-2.08-1.55-1.61.48-1.75.88-2.5,1-1.78,1.75-3.93,3.25-5.07s2.34-2.79,3.72-4c1.11-.94,1.93-2.33,3.75-1.85a1.86,1.86,0,0,0,1.76-.58,17.63,17.63,0,0,1,7.16-3.4c1.09-.22,2.82.79,2.81-1.57,0-.51.81-.34,1.27-.45,1.26-.28,2.43.78,3.42.55s1.63-1.57,2.53-2.31a1.44,1.44,0,0,1,1.36-.18c1.45,1.07,2.81,0,4.2,0a28,28,0,0,0,4.49,0c3-.52,5.63,1.55,8.59,1.06a1.13,1.13,0,0,1,.85.33c2.62,3.07,6.44,3.68,9.95,5a5.46,5.46,0,0,1,2.38,1.42c2.42,2.95,5.7,4.87,8.54,7.29,2.61,2.21,5.21,4.41,7.63,6.81,2.45-.33.35,1.95,1.46,2.51a8.93,8.93,0,0,1,3.5,2.43c.85,1.17,2.35,1.81,2.72,3.38.07.29.33.79.45.78,3.22-.41,3.17,3.14,5.17,4.24s4.26,1.93,5.42,3.59c2.24,3.19,6.17,4.37,8.19,7.79.74,1.24,2.81,1.94,4.42,2.35a4.27,4.27,0,0,1,2.31,1.63c.88,1,1.09-.88,1.81-.26a3.58,3.58,0,0,1,1.41,2.42c2.1-1.11,3.39,1,5.12,1.33,3.95.85,7.52,3,11.75,3.14,1.59.07,3.54,1.7,4.52,3.16C506.24,366.32,507.27,368.08,506.54,369.17ZM386.52,313a1.45,1.45,0,0,0-1.73.69c-1.15,1.93-2.59,3.32-5.06,3.31-.87,0-.52,1-.82,1.48-.53.8-2.11.41-2.13,2.09,0,.6-1.13,1.29-2.27,1.53s.23,2.53-1.1,2.87c-1.73.45-.46,3.07-2.69,3.08-1,0-.6.48.11,1,1.64,1.13,1.72,2.13.19,2.88a5.59,5.59,0,0,0-1.86,1.49c-.42.5-.28,1.49.46,1.54,2.09.13,1.15.81.39,1.54-.59.57-1.57,1.38-.9,2,1.81,1.69.5,2.6-.69,3.45-.42.3-1.32-.07-1.42.88-.13,1.25,1.12.87,1.52,1.32a5.59,5.59,0,0,1,1.06,2.72c.06.38-2.48-.43-.92,1.48.24.3-.27,1.64.31,2.51a.78.78,0,0,1-.61,1.11c-2.19.08-1,.81-.36,1.55s2.5.2,2,2.08c-.17.69-2,5.91-1.8,6.76.68,2.28-.37,3.93-1.2,5.76-.08.17.21.57.4.8.89,1,2.71,1.88.67,3.48a4.71,4.71,0,0,0,.87,1c1.24.78.88,1.41,0,2.15-1.23,1-1.05,1.48.56,1.45.17,0,.48.48.49.74a14.77,14.77,0,0,1-.05,4c-.31,1.3,1.69,2.45.1,3.7,1.36.91,1,2.3,1,3.57,0,3.53-.13,7,1.74,10.28.71,1.24.35,2.87.11,4.32-.07.38-.94.54-.62,1.05,1.06,1.67,1.31,3.24-.19,4.78,1.84,1.59.68,3.71,1,5.57.14,1-.08,2,0,3,.38,3.15.14,4.61-1.21,6.68-.22.33-1.08.55-.52,1a2.66,2.66,0,0,1,.61,3.17c-.55,1.24,0,2.21,0,3.21-.17,2.64-1.79,5.21.11,7.87.35.48-.35.83-.65,1.19a1.18,1.18,0,0,0,.06,1.72,11,11,0,0,0,7.8,4.08c1.37,0,2.76.41,3.28-1.79.32-1.36,3.15-1.48,2.68-3.8a1.29,1.29,0,0,1,.79-.37c1.94.06,3.86-.86,5.59-.83,2.77,0,4.32-1.84,6.45-2.72.73-.3,1-1.1,1.08-2,.47-3.37,2.06-4.57,5.54-5.52,1.89-.51,4.14-.6,5.45-2.48.51-.74,2.14,0,2-1.6-.14-1.38,2.09-.28,2.08-2.08s1,.67,1.9-.12c2.41-2,5.1-3.89,8.48-1.69.24.15.82.18.95,0,1.62-1.89,3.76-.59,5.61-1,.61-.13,1.27.23,1.86-.37.91-.93,1.81-2.25,2.92-2.51,1.46-.34,1.71-2,3.14-2.13,1.62-.15,1.29-1.94,2.19-2.83s2.43-.1,2.76-.8c.88-1.84,2.41-2.1,4.06-2.36.62-.1,1.38.34,1.86-.34,1.36-1.94,3.8-2.16,5.6-3.44.72-.51,2.11-.69,2.27-1.52.52-2.54,2.73-2.77,4.45-3.69s2.79-3.12,5-3.71a4.66,4.66,0,0,1,1.37-.29,20.31,20.31,0,0,0,8.17-2c2.56-1.07,5.46-1.29,7.74-3,1.26-1,2.66-1.69,3.93-2.67,1.69-1.29,3.19-3.09,5.59-3.34A2.23,2.23,0,0,0,496,383.7a2.82,2.82,0,0,1,.23-1.39c.6-.8,1.13,1.41,1.68.19A5.61,5.61,0,0,0,498,380a1.52,1.52,0,0,1,1.06-1.52c1.9-.59,2.26-2.26,2.95-3.74,1.87-4,.34-8-3.87-8.64-2-.31-3.89-1.61-6.07-1.16a2.21,2.21,0,0,1-2.57-1c-.61-1-1.67-.76-2.57-1.05a31.73,31.73,0,0,1-7.21-3c-1.48-.95-3-1.59-4.53-2.38s-2.56-3-4.88-2.72c-3-2.69-6.3-5.14-9-8.15a73.45,73.45,0,0,0-5.8-5.39c-1.24-1.12-2.68-1.82-3.64-3.46s-3.41-1.7-3.86-3.82a1.05,1.05,0,0,0-.84-1c-2.76-.78-4.11-2.92-5.22-5.34-.26-.57-.8-1.35-1.29-1.41-1.86-.22-1.87-2.69-3.68-2.86,0-2.65-3.19-1.74-3.67-2.81-1.09-2.43-3.43-2.48-5.13-3.47-2.74-1.58-5.75-2.65-7.82-5.22-.67-.82-1.43-1.42-2.41-.36-.81.88-1.12-.17-1.38-.5A3,3,0,0,0,414,310c-1.28-.07-2.65.54-3.85-.32s-2.32-1.05-3.42.13c-1.14-1.54-2.78,1.39-3.8-.38-.91-1.57-1.82-.82-3-.46-2,.56-3.89,1.63-6.07,1.07a2.14,2.14,0,0,0-2.47,1.2c-.78,1.34-2.29.29-3.06,1.08C387.73,312.86,388.05,315,386.52,313Zm63.48,116a6.53,6.53,0,0,1,0-1c.11-.73-.46-1.8.71-2.05s1.23.53,1.35,1.47c.08.62.64.28,1-.06.72-.68,1.95-.65,1.82.22-.3,1.95,2.36.73,2.23,2.61-.09,1.29,1.6.78,2.41.62s.77-2.44-.2-2.81c-1.84-.71-1.75-2.92-3.33-3.68.61-1-1.53-1.53-.47-2.33.77-.58,1.45.87,2,.84,1.61-.06,3.57,1.85,4.9-.74.19-.37,1.55-.15,2.36-.16.5,0,1.12-.1,1-.58s-1.07-.23-1.22-.46c-.69-1.05-1.44-2.06-2.1-3.09s-3-.22-2.54-2.34a3.3,3.3,0,0,1-2.41-2.41c-.41-1.35-2.9-.72-2.78-2.78,0-.45-.6-.48-.64,0-.23,2.85-4.06,1-4.5,3.47-1.87.72-3.72,1.49-5.61,2.15-.77.27-1.05-.62-1.57-1-.35.69-1,1.36-1,2.06-.18,2.56-2,4-3.59,5.54-.47.46-.9,1-1.42,1.4a1.59,1.59,0,0,0-.44,1.8c.45,1.47.76,3.14,1.69,4.26a4.33,4.33,0,0,1,1.29,3.51c-.05.47-.16,1.14.41,1.27.28.06.67-.56,1.05-.81a3.69,3.69,0,0,0,1.53-3.87.93.93,0,0,1,.63-1.14,1.48,1.48,0,0,1,1.33.38A2.63,2.63,0,0,1,445,432c-.15,1.71,1,2.93,1.76,4.27.52.87,1.37.74,2.19.74,1.36,0,1.13-1.05,1-1.76-.22-1.18,1.1-2.4.69-2.91C449.76,431.24,450.16,430.16,450,429.07Z"/><path d="M481.9,482c1.35-.19,2.25.16,2.28,1.67a6.77,6.77,0,0,1,4.39,3.61c.78,1.49,2.34,2.07,3,3.65.75,1.82,2.85,2.67,4.24,4.08,2.09,2.11,3.84,4.55,6.14,6.47,2,1.67,4.37,3,5.55,5.51,2.34.21,1.91,3.23,3.83,3.81s2.46,2.64,3.59,4,1.57,3.32,2.37,5a48.46,48.46,0,0,0,6.92,8.22c.24.19.69.28.76.51.54,1.81,1.13,3.41,2.93,4.58,1.31.85,1.93,2.69,3.14,3.79a60.93,60.93,0,0,1,4.45,5.09c.88,1,1.73,2.32,2.86,2.72s1.61-1.54,3-1.83c.89-.19,1.27-.46,2.26,0,1.17.57,2-.69,2.34-1.85s-.72-3.11,1.7-3.21c-.44-1.1-.33-2.61-.87-3.34-1.41-1.91-2.4-4.21-3.95-5.82s-1.39-4.63-4.36-4.68c-.3-2.28-2.84-3-3.5-5.06a8.93,8.93,0,0,0-.39-.83c-.69-1.68-3.38-1.52-3.53-3.43-.17-2.22-2.39-2.67-3.09-4.25-1.12-2.52-2.4-4.9-4.65-6.56-2.67-2-4.49-4.59-6.34-7.28s-4.5-4.61-6.49-7.27a39.09,39.09,0,0,0-6.17-6.38c-1.2-1-1-3.77-3.68-2.94a.45.45,0,0,1-.38-.24c-.81-3.81-4.56-5.65-6-9-.4-.91-.68-2.17.26-2.6.67-.3,2.33-1,2.53,1.1.18,1.81,1.57-1.35,2.36.51s3.37,2.59,3.81,4.93a1.07,1.07,0,0,0,.68.68c1.93.43,2.1,3.15,3.5,3.35,2.45.36,2.22,3.41,4.45,3.63.8,3.1,3.58,4.52,5.58,6.61,1.19,1.25,3.13,2.13,2.58,4.42,1.69.86,1.54,3.43,3.73,3.92.73.16,1.7,1.86,2.35,3.13s2.53,2,3,3.71c.14.57.7,1.42,1.13,1.47,2.38.24,3.27,1.61,3.92,3.77.52,1.74,3.3,2.33,2.91,4.79,2.57,1.29,2.61,5.09,5.71,5.82.65.15,1.26,0,1.31,1,.12,2.46,3.9,3.12,3,6.19-.24.85.79.7,1.41.84,1.24.28,2.41,2,1.88,3s-.69,2.78-.23,3.26c1.22,1.26.37,3.24,1.82,4.24-1.72,1.95-2,4.51-2.92,6.79-.57,1.42-1.78-1.47-2.48.48-.34.93-.49,2.26-1.67,2.8-.28.13-.76.41-.83.33-1.76-1.88-3.56.51-5.17,0s-3.12-2-5.2-2c-.49,0-1.08-1.38-1.43-2.2-.45-1-1.66-.41-2.3-1.45-2.38-3.82-5.62-7-8.54-10.4-1.23-1.44-3.4-2.21-3.4-4.59,0-2.2-2.34-2.78-3.16-4.68-2.05-4.73-6.29-8.2-8.54-12.88-.63-1.32-2.62,1.5-2.29-1.05-3.19-1.48-4.47-5-7.5-6.8-1.88-1.1-3.1-3.19-4.4-5.08a30.61,30.61,0,0,0-4.69-5.07c-1.73-1.57-2.9-3.83-4.69-5.49-.94-.87-1.85-1.67-1.82-3.28C480.92,482.88,479.32,481.48,481.9,482Z"/><path d="M382.85,349.38c-2.59,2.18.1,4.76.28,7.28a12.83,12.83,0,0,0,2.29,6.93c1,1.24-1.52,2,.26,2.69.94.38-.2,1.9.73,2.64,1.14.9.58,2.18.53,3.25s.41,2.27,1.26,2.43c1.88.34-1.49,2.37,1,2.5,1.24.06-.38,1.72.68,2.69.71.66-.19,2.36.84,3.62a3,3,0,0,1-.31,3.61c-.51.57,0,.71.15,1.09a81,81,0,0,1,4.61,13.58l.08,3.54c-.19,1.15-1.22,2.47,1.12,2.85,1.13.19-.3,1.1-.19,1.22.95,1.07.73,2.33.82,3.56.15,2.39-.54,4.82.9,7.14.52.84-.29,2.46.17,3.4.59,1.22-1.5,1.42-.52,2.93.71,1.09-1.52,1.36-2.4,2.05-1.25,1-1.55,1-2.3-.69s-1.44-2.82.1-4.22c-1.61-1.12.85-2.89-.83-4.41-.86-.77.22-3.39-.48-4.69s-.52-1.82.23-2.9c.47-.68,0-2,.15-2.92s-1.56-2.05-.13-3.14c-1.6-1.58-1.52-3.69-2.07-5.66s-1.7-3.6-2.19-5.57c-.4-1.62-2.89-2.92-.67-4.93a1,1,0,0,0-.15-.88,4,4,0,0,1-1.77-4.74c.46-1.83-1.52-2.91-1.05-4.6a4.76,4.76,0,0,0-1.18-4.4c-1.4-1.09.65-2.12-.6-3.12-.71-.58-.06-2.53-1.5-3.3-1.15-.61-.71-1.75-.71-2.69a31.56,31.56,0,0,0-1-5.26c-.56-2-2.4-3.89-1-6.25-1.28-1.72-1-3.28-.11-5.21.78-1.7-.51-3.92.6-5.75.28-.45.37-.61,0-1.09-1.57-2.13.3-3.2,1.5-4.45a2.23,2.23,0,0,1,.7-.31,2.51,2.51,0,0,1,.28.88c-.07,1.52,0,3,1.48,3.89.5.32.49.67,0,1.06-1.29,1.1.24,2.85-1,4.1-.93.91.31.72.75.87S383.16,348.33,382.85,349.38Z"/><path d="M388.46,324.08c.38,1.11,1.76,1.69,2.53,2.87.17.26.13.71.34.85,4.18,2.86,7.13,4.95,8.91,9.14,2.3,5.43,6.18,10,7.82,15.76a15,15,0,0,0,2.59,4.41,33.07,33.07,0,0,1,4,6.86c1,2.4,1.76,5,3.79,6.93.37.33.72.67.61,1.24-.33,1.83.87,2.91,1.72,4.32a40.14,40.14,0,0,1,1.81,3.72c2.15,4.67,5.27,8.77,7.55,13.36a13.21,13.21,0,0,0,5.78,6.31c1.21.58.85,1.54,1.54,2.07s.34.63-.3,1.15c-2.29,1.82-4.18.61-6-.55-1.22-.77-1.32-2.66-3.12-3.14s-1.1-2.56-1.58-3.79a11.2,11.2,0,0,0-2.67-4.39c-2.94-2.75-3.92-6.84-6.64-9.78-.5-.54-.23-2,0-2.92.24-1.18-3.09.51-1.29-1.8,1.06-1.38-.67-1.92-1.3-2.73s-.34-2.18-2-2.17c-.71,0,0-.71.33-.77s.95-.08,1.26-.54c-.27-.17-.53-.45-.8-.47-1.16,0-2.25-1.16-2.08-1.67.92-2.84-2.45-4.11-2.26-6.72,0-.5-1.52-1.42-2.26-2.36-2.48-3.2-2.74-7.23-4.56-10.65-1.09-2.06-1.06-4.81-3.75-5.84.15-2.1-3-2.6-2.42-5.09.13-.59-1.92-.94-2.19-2.43-.21-1.16-1.73-2.32-1.55-3.27.53-2.73-1.36-3.31-3-3.94s-1.39-2.24-2-3.36C386.88,324.39,387.48,323.89,388.46,324.08Z"/><path d="M453,396.4c.22,3-1.26.38-1.8.64a3,3,0,0,1-3.22,0c-1-.63-2-1.06-2-2.41-2.33-.16-2.4-2.94-4.29-3.69-.85-.34-2-1.07-1.65-2.12.66-2.16-2.94-1.63-2.24-4.14.38-1.33-1.92-2.39-3.05-3.55-1.51-1.54-1.72-4-3.56-5.5-.53-.43-.25-1.17.3-1.67.78-.71.63-1.38-.08-2.06s-1.6-1.71-2.49-2.45a6.24,6.24,0,0,1-2.06-4.17c-.57-3.16-2.15-6.13-2.77-9.28-.3-1.55-2.55-.41-2.08-2,.38-1.34-1-2-1-3.09a1,1,0,0,0-.09-.46c-.67-1.12-2.39.42-2.91-1.11-.27-.8.67-2.09-1-2.32-.29,0-.82-.21-.82-.33-.11-3.44-2.36-4.92-5.16-6.26-1.25-.6-2-2.26-3-3.39-1.29-1.43-2.19-3.28-4.31-3.84-.67-.17-.81-.94-.74-1.66,0-.46.13-1.4-.31-1.29-3.18.79-3.73-3.58-6.7-3.28-1.2.12-1.71-1.38-2.6-2.08s.13-.79.35-1,.4-1,1-.59c3.36,1.95,7.33,2.84,10,6,1.18,1.39,3,2.4,3.75,4,.87,1.8,2.21-1,2.41.46.17,1.19,1.11,1.56,1.56,2.37.62,1.15,2,.92,2.82,1.71,2.43,2.21,3.63,5.43,6.31,7.39-.36,2.43,2.1,2.73,3.08,4.14A10.81,10.81,0,0,1,426,352.2c.19.58-.15,1.32.51,1.78,3.21,2.2,2.87,6.14,4.52,9.11-.82,2.08,3,1.89,2,4.07,1.43,1.19.44,3.54,2.22,4.58a1.82,1.82,0,0,1,.81,1.66,6.81,6.81,0,0,0,2.73,4.84,3.13,3.13,0,0,1,1.25,3c-.14,1.09,0,1.91,1.5,1.85.45,0,1.07.8,1.39,1.35,3.37,5.77,3.27,5.92,8.43,9.23C452.61,394.49,453.27,395,453,396.4Z"/><path d="M464.62,383.08c-2.06-.87-5.13-.81-6.22-3.37-.69-1.65-2.62-2.45-2.6-4.41a3.7,3.7,0,0,1-3.11-3.11c-2,.1-1.89-1.85-2.61-2.85a17,17,0,0,1-2.54-5.39c-.55-2-3.27-2.92-2.54-5.45-2.63-.21-2.13-2.81-2.84-4.23-.88-1.74-2.38-2.65-3.46-4s-.47-3.25-2.7-3.9c-1.43-.41-1.59-2.6-2.8-3.76s-3.17-2-3.23-4.11c-2.31-.1-1.87-3.73-4.46-3.47-.94-1.6-1.83-3.24-2.85-4.79-.34-.52-1.41,1.94-1.68-.31s-1.27.86-1.83-.23c-.95-1.8-3.08-2.67-4-4.27-.59-1.06-.89-1.39-2-1.42-1.53,0-2.1-1.46-3-2.35s.13-1.39.64-2c.66-.81,1-.29,1.43.19a13.7,13.7,0,0,0,4.15,2.19,3.75,3.75,0,0,1,3.46,1.36c4.08,4.44,8.84,8.25,12.26,13.3.28.41.64.92,1.06,1,2.21.62,3.1,2.37,4.23,4.15,1.52,2.38,4.69,3.63,4.86,7,2.09-1.64,1.84.93,2.39,1.54.88,1,1,2.76,1.91,3.61,1.26,1.13,1,2.64,1.73,3.82,2,3.46,4.32,6.79,5.66,10.63,3.78,2.83,6,7.39,10.33,9.62a13.45,13.45,0,0,1,2.19,2,2.13,2.13,0,0,1,.43,2.29C466.73,383.45,465.64,382.85,464.62,383.08Z"/><path d="M423,411.48c-1.2.73-.93,1.94-1.05,3,0,.42-.4.32-.68.25a6.42,6.42,0,0,1-4.26-4.67c-.1-1,.47-2.13-.3-2.86-1.62-1.51,0-3.5-1-5.11-.88-1.45-2-2.85-1.71-4.79.26-1.45-1.74-1.81-1.74-2.72,0-1.7-1.49-2.89-1.22-4.53a2.94,2.94,0,0,0-1.37-3,5,5,0,0,1-1.76-3.8c-.19-1.59-2.48-2.38-2.43-4.35-1.77.09-1.32-.37-.65-1.52.26-.45-1-1.77-1.52-2.69-.39-.66-2-1.05-.46-2.12-2.64-1.62-1.29-4.66-2.44-6.86-1.06-2-1.53-4.38-2.6-6.4-.46-.86-.72-1.24.11-1.81-1.47-1.13-.35-3.49-2.24-4.53A2.54,2.54,0,0,1,394,350.8c.21-3.12-3.5-4.52-3.32-7.62-2-1.26-1.71-3.64-2.61-5.43-.22-.45-1.8-1-.45-1.7.87-.48,1.55.45,2,1.09q3.94,5.85,7.78,11.78c.61.94-.37,2.27,1.1,3.31A3.93,3.93,0,0,1,400,356c3.19,4.34,3,10.17,6.14,14.41,1.28,1.73,0,3.8,1.89,5.34,1.44,1.18,2.2,3.35,2.92,5.21s2.31,3.07,2.05,5.15c2.82,3.11,3.22,7.34,4.88,11,2,4.47,3.2,9.34,4.75,14C422.68,411.26,422.86,411.36,423,411.48Z"/><path d="M402.54,389.76c-.91,1.46,0,1.91.26,2.61a28.74,28.74,0,0,1,2.35,8.56,45.18,45.18,0,0,0,1,7.05c.54,2.39-.1,4.57-.51,6.6-.3,1.48,0,1,.84,1.54,1.71,1-.53,1.81-.48,2.81s-.48,1.1-1.23,1.06c-.14,0-.39-.06-.42-.15-.19-.65-1.74-.67-.92-1.74.58-.75.57-1.07-.41-1.09a1.08,1.08,0,0,1-1-1.72c1.3-1.83,0-3.57-.21-5.19-.27-2-1.76-3.77.12-5.71.25-.26.16-1,0-1.46-.6-1.73-1.55-3.18-1.28-5.33.23-1.76-1.49-3.69-1.59-5.59-.12-2.14-1-3.94-1.53-5.9s-1.13-3.86-1.76-5.76c-.14-.43-.58-.75-.81-1.16-.65-1.18,1.44-2.28.32-3.27a7.11,7.11,0,0,1-2.15-3.6c-.33-1.36-1.26-2.29-1.54-3.37-.42-1.58-.45-3.15-1.64-4.52-1-1.15-.58-2.83-1-4.24a1,1,0,0,1,.21-.88c.61-.56.9.24,1,.48,1.22,2.66,4.14,4.52,3.75,7.92-.12,1,.73,1.38,1.22,2,1.74,2.24,2.34,5,3.5,7.54.4.85-1.38,1.34-.56,2.4.59.76,1.54,1.19,1.86,2.22C400.87,384.65,401.78,387.4,402.54,389.76Z"/><path d="M386.72,407.62c-1.7,1.39-.11,2.39.34,3.31.63,1.27.95,2.13-.48,3.05-.84.53-.5,1,.42,1a3.08,3.08,0,0,1,.86.34c-2.33,2.41.15,4.73.22,7.1.06,1.78-.8,3-1.51,4.4-.5.95-1.57,1.5-1.81,2.77a1.78,1.78,0,0,1-1.84,1.36c-1.6-.25-.74-1.54-.9-2.37-.31-1.56.66-3.33-.65-4.72-.65-.68.17-.74.31-1.07.9-2.14,1.05-2.77.34-6.23-.22-1.11,1.61-1.93.09-3.27-.52-.46-.65-2.54.63-3.57-1.19-2.05-.91-4.33-.66-6.46s-.72-4.18-1.46-5.93.63-2.14.82-3.17c.08-.42,1.59-.47,2.2,0,.81.65-.79,1.21-.53,1.3,1.87.61-.65,1.79.43,2.57,1.64,1.19-.58,1.85-.56,2.87,0,.6.26,1,.77,1,2.31.11.23,1.11.39,1.59.27.81,2.21,0,1.83,1.63C385.72,406.28,387.06,407.35,386.72,407.62Z"/><path d="M435.92,356c.61-.12,1.15.28,1,.7-.44,1.73.59,2.2,1.89,2.67s1.16,1.84,1.7,2.77c.87,1.54.54,3.81,3.16,4.13.94.11-2,1.41.26,1.73,1.82.25.09,1,.22,1.34a2.79,2.79,0,0,0,1.53,1.59,6,6,0,0,1,3.95,3.44c1.3,2.85,3.72,4.43,5.66,6.56.8.88,2.29.63,2.62,1.78.26.89.1,1.77.82,2.68s0,1.81-1.33,1.61c-.32-.06-.79.1-1-.07-2.59-2.68-6.61-3.73-8.43-7.2-.9-1.7-3.61-1.69-3.45-4.51.12-2.14-2.76-3.09-3.49-5-.47-1.2-1.37-1.76-2-2.65-.29-.4-1-.75-1-1.06.38-3.42-2.08-5.81-3.08-8.71a2.44,2.44,0,0,1,.12-1.43C435.21,356.2,435.66,356.13,435.92,356Z"/><path d="M467.22,359c1.16.25.45,2.57,2.57,2.11.95-.2,2.37.73,3.24,1.52s1.89,2.08,1.86,3.12c-.09,2.34,2.06-.64,2.2,1.15.07.89.24,3,2.38,1.29.54-.42.14,2.38,1.95,1.8.62,1.42.83,3.08,2.55,3.84.18.08.08,1.28-.19,1.82-.36.7-1.19.28-1.81.32-1,.07-1.38-1.44-2.54-1.05-.23-2.44-2.11-1.66-3.57-2-1.91-.43.3-1,.1-1.44-.35-.71-1.32-.22-1.72-.54-1.31-1.06-3.11-1.66-4.1-2.73-1.43-1.53-2.16-3.75-3.73-5.35-.92-.93-.32-2.2-.36-3.3C466,359.15,466.65,358.88,467.22,359Z"/></svg>