<svg xmlns="http://www.w3.org/2000/svg" width="1080" height="1080" viewBox="0 0 1080 1080"><defs><style>.a{fill:#f0dfd2;}.b{fill:#fff;}.c{fill:#f15a29;}.d{fill:none;}</style></defs><title>Mushroom 11</title><path class="a" d="M557.7,470.73s-10.93,22.38-27.1,38.55c-15.3,15.3-49,41.2-49,41.2s7.8-31,6.95-44.6-4.95-23.25-10.05-29.2c-7.53-8.78-16-1.83-16-1.83l-3-1.27s-5.1,7.65-7.65,20.4a129.64,129.64,0,0,0-2.13,20.82A206.31,206.31,0,0,1,434,554.33c-12.93,24.86-32.25,42.5-36.13,88-4.67,54.83,21,84,49.88,108.68,26.91,22.95,53,44.32,53,44.32s42.08-2,86.28-19c49-18.84,68-52,68-52s-28.9-7.65-43.35-19.55-28.18-28.63-28.18-28.63,33-24.37,43.23-38.82,26.12-40.87,41-55.8c15.3-15.3,32.87-24.23,44.77-37.83s29.05-34,19.7-41.65S712,505.12,706,508.73c-10.63,6.37-20.4,14.15-29.75,20.95s-14.38,9.46-20.4,13.6c-13.6,9.35-12.7,4.35-12.7,4.35s19.22-31.13,30.7-58.75c9.63-23.19,12.6-34.85,16-55.25,3.1-18.62,2.55-27.2-1.7-31.45-3.85-3.85-8.93-1.28-8.93-1.28s3.83-10.62-3-14.87S662,381.85,651.17,395c-8.07,9.78-7.62,14.88-13.57,22.53s-13.2,17.85-19.15,24.65-19.55,22.1-19.55,22.1,1-20-8.5-27.5c-12.33-9.78-28.9-2.25-46.75,2s-25.5,6.8-25.5,6.8-14.45-1.15-21.25,2.25c-7.21,3.6-8.78,5-9,10.2-.43,8.07,3.1,8.35,3.1,8.35s6.06,6.23,22.1,8.1C531.32,476.55,552.17,472,557.7,470.73Z"/><path class="b" d="M459.5,473.58c-2.28-1.14-3.83,6.37-6.8,15.72-2.57,8.07-3.83,21.25-1.28,21.68,4.13.69,12.93-7.66,13.18-14.45C465,485.05,461.2,474.43,459.5,473.58Z"/><path class="b" d="M517.72,449.35c0,10.84-2.55,13.6-14,15.73-7.93,1.47-15.43,2.82-15.85-6.1-.17-3.5-1.17-6.72,9-9.2C512.62,446,517.72,444.25,517.72,449.35Z"/><path class="c" d="M450.15,412.38,435.27,424.7S457.8,444.75,462,455c5.95,14.52,13.31,17.83,21,28,13.17,17.43,15.82,17.55,29,32,11.54,12.66,21.18,26.32,25,31,2.41,2.94,3.25,1.53,6.65-.17s8.17-7.45,4.35-13.83c-2.77-4.61-27.46-33.36-34-42-10.62-14-25.35-24.1-33-36S460.35,419.18,450.15,412.38Z"/><path class="c" d="M382.15,329.93s42.07,73.52,46.75,86.7C432,425.26,438,441,438,441s3.22.7,3.44-8c0-.67,7.56,9,7.56,9s3.86-.75,1.57-12.2c-.42-2.12,5.51,5.51,10.63,10.63,1.27,1.27.42-8.08-2.13-15.73,5.53,2.13,10.2.85,14.45-.85-5.1-4.25-9.21-12-17.52-19.85-15.3-14.45-53.88-88.1-53.88-88.1Z"/><path class="a" d="M381,306c-22.95,10.2-24,31-24,52,0,22.17,3,37,1,46-1.84,8.3-8.11,20.17-7,25,3,13,3.51,11.12,12,9,8-2,9.12-3.39,14.9-11.17C380,424,387.57,438.57,395,420c2-5,6.77,4.56,13-11,2-5,12.38,7.15,23-7,3-4,10.11,3.63,18-2,5.95-4.25,5.47-10.62,11-12,6.8-1.7,6.35-7.9,14-13s7.35,4.1,15-1,13.9-2.35,19-10c4-6-1-7-4-9,.85-4.25,1.35-10.55-8-8-7.33,2-4.07,6.48-14,4-24-6-39.32-28.93-59-40C407,302,392.12,301.06,381,306Z"/><path class="d" d="M515.51,446.91a5.7,5.7,0,0,0-4,1.26c-2.12,1.64-4.86-.11-6.83,1.77-.53.52-1.41-.28-2.12-.76s-1.52-.28-1.6.94-.7.89-1.1.23c-1.07-1.76-1.95-1.09-2.85.12-.35.47-.62.41-1.07,0-.92-.79-1.66-.91-2,.62a2.69,2.69,0,0,1-2,1.92c-2.29.8-3,2.88-2.93,4.92s2.94,2.48,3.11,4.69c.05.59.86.24,1.31.37,2.51.72,2.75.8,5.45-.53.94-.46,1-.24,1.07.56a7.21,7.21,0,0,0,.68,1.54,8.45,8.45,0,0,1,1.12-1.85c.69-.63,1.1-1.63,2.26-1.75s2.59.44,3.85-.36a10.13,10.13,0,0,1,3.33-1.56c1.45-.28-1.18-1.94,1.13-2.27,1.76-.25,2.82-2.91,4.92-3.65.87-.3.53-.86,0-1.4s-.12-1.06.11-1.7C518.47,447.1,518.29,447.18,515.51,446.91Z"/><path class="d" d="M648.86,534.36c-1-.61-.74-1.15,0-1.78a10.92,10.92,0,0,0,1.76-1.77c.77-1,2-1.57,2.4-3a38.82,38.82,0,0,1,3-7.74c1.36-2.44,3-4.6,4.08-7.32,1.24-3.25,1.73-3.07,1.84-4.65,0-.48.33-1.18.6-.92,1.43,1.37,1.43.4,1.41-.75,0-1.63-.27-3.34,1.46-4.39,1.2-.73-.06-2.26,1-3.08.81-.61-1.2-1.89.48-2.47s.46-2.48,1.43-3.4a12.77,12.77,0,0,0,1.67-2.83,41.28,41.28,0,0,0,3.81-7.89c.36-1,1-1.92,1.38-2.94s.44-1.84.79-2.67c.45-1,.57-2.4,1.06-3,.87-1.06-.29-2,.28-2.59,1.86-1.79,1-5.29,4.13-6.26.75-.23.13-.72-.16-1a1.08,1.08,0,0,1,0-1.7c2.44-2.32,2.89-5.32,2.62-8.4-.33-3.81,2.78-6.77,2.37-10.57,0-.31.61-.76,1-1,1.31-.9-.3-1.21-.33-1.82a3.84,3.84,0,0,1,.14-1.93c.39-.68,1.23-1.15.67-2.08-.13-.21-.54-.3-.84-.34-.46-.06-1.08-.07-.74-.72,1.46-2.79.49-6.33,2.76-8.86-.93-1.61,1.78-2.67.82-4s-1.07-1.8,0-2.86c.91-.86-1.77-2.09.12-3.14.15-.08.19-.9-.31-1.31a2.79,2.79,0,0,1-.48-3.59c1-1.15-.12-1.58-.11-2.3,0-1-1.1-1.27-1.05-2.09.09-1.68-.37-3-2.24-3.12a6.89,6.89,0,0,1-4.23-1.93s-.49.3-.67.53a8.92,8.92,0,0,1-5.24,2.93c-1.78.34-2.61,4.48-5.13,1.44-.12.11-.35.23-.34.34.17,2.67-4.2,2.46-3.49,5.47-2.77,1.62-2.48,5.05-4.28,7.21-.81,1,0,2.16-1,3.15-1.21,1.24-2.54,6.22-2.39,8.13.11,1.4-1.87,2.4-1,3.53,1.18,1.48.29,2.81-.24,3.64-.94,1.46-1.32,2.49-.05,3.86.49.52.33,1.5-.33,1.59-1,.13-1.65.29-1.45,1.39.34,1.85-.83,3.42-.91,5.1a7.26,7.26,0,0,1-2,5.24c-.65.65.54,2.86-.52,3.13-2.67.69-1.63,3.1-2.38,4.55-.6,1.17-.87,2.54-1.66,3.82a33.91,33.91,0,0,0-2.31,4.53c-.61,1.45-.33,3.23-2.21,4,.32,2.83-1,4.95-3,6.78.79,2.19-1.53,3-2.08,4.64s-1.76,2.58-2.9,3.74-1.8,2.9-2.75,4.33-3.12,3.1-3.09,4.62c0,2.27-1.91,2.54-2.65,3.89-1.59,2.93-3.1,6.2-6.48,7.79-.48.23-1.22.69-1.08,1.51.27,1.62-2.81.58-2,2.59s-1.71,1.09-2.15,2.54c-.9,3-4,3.85-6.66,4.85a2.19,2.19,0,0,1-1.85-.21c-.85-.73,0-1.32.38-2a29.14,29.14,0,0,1,3.59-5.51c1.07-1.24,3.25-1.65,3.38-3.48s3.24-1.69,2.36-4c-.15-.38.42-.75,1-.73.94,0,2.1.34,2-1.34-.1-1.14,2.37-.2,1.58-1.4-1.42-2.18.94-.81,1.18-1.45s1.05-1.06,1.3-2a7.27,7.27,0,0,1,1.88-3.18,3.52,3.52,0,0,0,1-3.1c-.06-.9,3.41,0,1.08-2.13,1.23-1,1.95-2.63,4-2.47,1.18.09,1.18-1,.59-1.68s-.68-.84,0-1.47c2.88-2.75,2.88-7.37,6.33-9.77,1.24-3.5,1.9-7.27,4.6-10.09a1.64,1.64,0,0,0,.4-1.34c-.11-2.91,1.59-5.08,3.2-7.15.72-.91.48-2.3,1.69-2.83-2.54-2.25,1-3.06,1.14-4.71.07-1.08,1.15-1.54,1.83-2.22,1.1-1.1-1.55-1.65-.28-2.81,1-.89.43-2.22.37-3.31-.07-1.38,1.34-2.13,1.1-3.6a9.21,9.21,0,0,1,.87-5.11c.59-1.43-.72-3.86.6-4.64,2.2-1.31-.4-3.16,1.06-4.36,1.11-.91-.31-2.81.79-3.61s1.12-3,2.56-3.13c1.78-.13-.88-3,1.65-2.24.38.12.62-1,.38-1.22-.8-.83-1-1.5.08-2.19a2.41,2.41,0,0,0,1-2.6,2.17,2.17,0,0,1,.8-2.18c1.31-.95,4.05-.42,3.51-3.42-.06-.35,1.05-.34,1.63.16,1.25,1.06,1.69.9,2.21-.86a3.58,3.58,0,0,1,3.18-2.77c3.56-.54,4.66-2.88,4.67-6.7a10.19,10.19,0,0,0-.06-3,7.14,7.14,0,0,0-1.78-3.06c-1-.91-2.66-.89-3.63-2-1.07,1.8-2.09-.44-3.17-.06-.45.16-1.1-.15-1.47.07-1,.56-1.73,1.62-2.72,1.86s-1.28.89-2,1.15c-1.74.59-2.92,2.46-5,2.35.63,1.93-2.73,1.11-2.1,3-1.8,0-1.66,2.42-3.32,2.56-2.39,3.61-5.65,6.7-6.67,11.13-.14.61.06,1.21-.43,1.84-1.83,2.38-3.58,4.83-5.32,7.28a98.36,98.36,0,0,0-6.19,8.95c-1.67,3-4.08,5.5-5.64,8.65-1.12,2.26-3.83,3.68-5.45,5.77s-2.64,4.35-4.9,5.91c-2.53,1.74-2.92,5.51-6,6.88-.13,1.85-2.66,2-2.73,3.77-.08,2-2.19,2.58-2.66,4.44-.36,1.42-2.67,1.72-3.42,3.47-.42,1-1.46,1.62-1.32,3s-1.9.82-2.29,2.48c-.3,1.32-1.7,2.43-1.79,4.27a6.29,6.29,0,0,1-1.85,3.7,13.28,13.28,0,0,0-2.12,2.59c-2,3.38-3.44,7.11-6.37,9.89a1.82,1.82,0,0,0-.51,1.26c.07,1.18-.26,1.59-1.55,1.89s-.05,2-1,3a77.26,77.26,0,0,0-6,6.92c-3,3.83-6.05,7.66-8.16,12.11-.67,1.41,0,1.1,1.08,2s2.53.38,3.55,1.24c1.78,1.49,3.93,2.84,4.29,2.54,1.11-.93,1.74-.6,2.63.32.53.54.81,1.92,2.07,1.28,1.56-.8,2.07,1.56,2.4,1.27,1.33-1.21,2.12-.3,2.5.59,1.06,2.45,1,2.5,2,2.59s2.16-.18,2.85.3,1.75.39,2.07,1c.78,1.49,1.82-.88,2.09.12s.76,1.37,1.74,1.8c.75.33.75,2.35,2.29.8.11-.11.84.12.85.21.1,2.37,1.9,1.54,3.2,1.82,1,.21,2.82.85,2.82,1.29,0,2.84,3,.75,3.55,2.42,2.13-1.77,3.13.68,4.67,1.21a3.43,3.43,0,0,1,2.14,2.29c1,2.32,2-.73,3.1-.25a1.91,1.91,0,0,1,.79.48c1,1.33,2.56,1.83,4,2.48.4.17,1.17.33.86.64-1.59,1.59.31,2.14.91,2.3a4.36,4.36,0,0,1,3.16,2.77c.51,2.16,1.13,1,1.62.28.92-1.32,1.45-.53,2.17.17s.19,1.25.35,1.86a5.3,5.3,0,0,0,.34.86c.22-.14.63-.3.62-.43-.13-1.44,1-2.1,1.9-2.69,1.2-.82.17-1.8.5-2.5a9.43,9.43,0,0,1,2-2.15,8.59,8.59,0,0,1,1.79-1.73c1.42-.75-.49-2,.11-2.07,1.89-.3,1.25-2.29,1.8-2.65,1.49-1-.26-4.81,3.29-3.66C648.49,535,648.71,534.57,648.86,534.36Zm-34.6-77.06c.44-.56,1-1.95,2.11-.5a1.32,1.32,0,0,0,1.28,0c2.48-2.13,4.54.1,6.36,1,1.13.55,2.59,1.91,3.58,2,2.69.35,3.17,2.71,4.76,4a2.29,2.29,0,0,1,.56,2.69c-.31.93-1.46.32-1.9.46-1.64.14-2.84.07-3.79-1.18a7.57,7.57,0,0,0-2.84-2.66c-.8-.31-1.93-1.71-3-.27,0-1.89-1.58-1-2.44-1.44a33.49,33.49,0,0,1-3.72-1.78C614.46,459.16,613.39,458.42,614.26,457.3Zm-.14,6.48c1.27,1,2-1.48,3.25-.06.68.76,2.4,0,3.32,1.09.67-1.06,1.14-.46,1.77.12,1.75,1.61,5.2,1.09,5.57,4.49.07.62,2.05,1.27-.3,1.68-1,.17-1.88,1.11-3.08.9a5.7,5.7,0,0,1-5.1-2c-.68-.86-1.81-.72-2.41-1.4-1-1.16-1.24.56-1.84.38a10,10,0,0,1-3-1.2c-.93-.67.22-2.23-1-3.07C611,464.45,613.19,463.07,614.12,463.78Zm40.16,6.43c3-.48,4.63-.12,6.22,1.56a3.71,3.71,0,0,0,3.42,1.25,1.2,1.2,0,0,1,.83.27c-.16,2.5,1.8,3.67,3.22,5.18-1.53,1.06-.7,2.7-1,4-.18.68-.7.23-1-.11-1.49-1.64-4.23-2-4.35-5.17,0-1.25-2.38-2-3.9-2.17a8.4,8.4,0,0,1-3.39-1.46c-1-.59-2.16-2.08-2-3C652.44,469.3,654.15,470.25,654.28,470.21ZM646.63,478c-.77-.22-.89-1.35-.49-1.51,1.27-.51,2.38-2.08,3.84-1.42a40.22,40.22,0,0,1,7.66,4.24c1.73,1.3,2.42,3.75,4.26,5.15.17.13.07.61.1.93,0,.78-1.68,3.37-2.37,3.47-.21,0-.51-.22-.69-.41-.79-.84-1.51-1.73-2.9-1.45-.89.18-.9-.53-1.07-1.2-.48-1.91-2.34-2.85-3.3-4.5S648.68,478.56,646.63,478Z"/><path class="d" d="M525,531.67l-6.31-8.09c0,.62-.49,1.89-.84,1.95-2.31.43-2.42,2.94-3.88,3.82-1.7,1-2.89,2.63-4.51,3.57-1.85,1.06-2.91,3.62-5.63,3.11-.23,0-.76.28-.77.44-.05,1.59-1,2.15-2.39,2.56s-1.56,2-3.17,2.08c-.74,0-2,1.72-2,1.68-2.46-2.44-2.47.7-3.15,1.5-1.6,1.89-3.08,3.8-5.5,4.72a2.63,2.63,0,0,0-1.82,3.06c.08.66-.06,1.34,0,2,.19,1.47-.31,2.2-1.87,1.93a.87.87,0,0,0-1.11.66c-.11.65-.06,1.34.92,1.35.72,0,1.31.12.52,1-1.51,1.68-1.05,1.86-2.64,6-.95,2.51-1.25,5.63-3.78,7.42-1.07.75-.82,1.25-.12,2.21.53.73-.51,1.73-1.31,1.33a20.31,20.31,0,0,1-2.79-1.69c-.37-.26-.88-1-.78-1.11,1.29-2.06.7-4.65,1.95-6.7.47-.77,2.13-.71,1.84-1-1.3-1-.07-1.58.16-2.31.73-2.37,2-4.55,2.07-7.17a7.22,7.22,0,0,1,.51-2.91c.75-1.23-.26-3.06,1.59-3.87s-.87-1.85.07-3.13c1.67-2.29,2.9-4.84,1.8-7.94-.54-1.53,1.91-1.41,1.79-1.53-2.26-2.18.61-4.13.22-6.21-.17-.89-.38-2,.67-2.71,1.34-1-.74-1.56-.33-2.78.91-2.69,3.18-5.45.64-8.44,2.59-3-.6-7.11,1.91-10.21a2.57,2.57,0,0,0,0-2.41c-1.37-1.94-.67-4.09-1-6.12a54.43,54.43,0,0,0-1.58-7.84,24.09,24.09,0,0,0-6.31-10.39c-1.07-1-2.69-2-2.94-3.25a1.56,1.56,0,0,0-2.51-1.21c-1,.8-1.38.33-2.29,0a8.09,8.09,0,0,0-3.91,0c-.54.09-1,.88-1.43,1.35a2.06,2.06,0,0,1,.95,2.57c-.46,1.19,1.34,1.85.55,2.88a2.55,2.55,0,0,0-.3,2.72c1,2.38,2.89,4.63.81,7.35-.08.1-.07.43,0,.47,2.59,1.63-.4,4,.82,5.85-1.44,1.2-.09,3.62-1.18,4.26-1.36.79-1.82,1.39-1.68,2.84.16,1.77-.62,2.16-2,1-.52-.43-.91-.34-1,.15-.25,2.1-2.31,2.68-3.29,4.15L454.26,513c-1.19-.12-1.32.6-1.27,1.54.08,1.45-1.38,2.43-1.07,4.1.25,1.33-1.39,2.47-.94,4.07s-2.8.9-2.09,3.12c.25.77-.75,1.94-1.15,2.94-.32.8-2.08,1-1.29,2.08.95,1.36-1.19,1.73-.61,2.81-.56.23-1.33.32-1.65.74s1.18.77.24,1.79-.27,2.81-1.79,3.76c-.85.53.57,2-.83,2.84-1.19.72-1.16,2.61-2.5,3.42-1.15.68-1.29,1.54-.34,2.56.13.14-.06.86-.15.87-2,.23-1.81,2.86-3.54,3.33-.64.18-1.5.09-1.25,1,.4,1.45-1.75,2.5-.88,3.49,1.07,1.22.41,1.71-.36,2.17s-2.12.57-1.83,2.2a4.53,4.53,0,0,1-.29,2.84c-.35.61-2.64.27-.68,1.82a13.67,13.67,0,0,1-2.15,2.09c-1.17.73-3.07,1-.94,2.8-1.78.64,0,3.33-1.65,3.49-2.17.21-1,2.55-2.65,3.14s-1.79,2.54-1.63,4.26c0,.22-.37.69-.55.68-1.88-.15-1.5,2.3-3.36,2.64-2.23.41-.09,3.41-1.77,4.66-.42.32-.4,1.18-.76,1.66a5.72,5.72,0,0,1-1.76,1.74c-1.46.75.65,1.74-.13,2.11-1.85.88-1,3.27-2.58,4.22s-1.2,3-2.07,4.31c-.26.4-.73.7-.89,1.13s1.33.6.53,1.37c-.29.29-.89.22-1.32.4s-.32.41.09.7c1.23.88-.44,1.17-.41,1.83a29.75,29.75,0,0,0,0,3c.14,1-.87,1.3-1,2.09-.37,1.67-.4,3.66-1.38,4.88-1.24,1.56.46,3.81-1.6,4.88,1.45,3.11-1.26,6.16-.12,9.39.3.86-1.7,2.47-.79,3.45,1.43,1.54-.53,2.46-.16,3.78a14.67,14.67,0,0,1,.07,4c0,1.48.38,3.21-.24,4.39-.88,1.68.95,2.8.28,4.3-.3.67.22,1.67-.64,2.22-.42.27-.49.63-.09.69,2.74.42,1,1.35.26,2.14-.34.36-.43.53-.12,1.09,1.48,2.73-.41,6,1.29,8.75a3.37,3.37,0,0,0,.24,4.76c-2.49,1.79.66,3.35.33,5.15-.08.43.65,1.65.7,2.62a16.7,16.7,0,0,0,1.65,3.9,5.81,5.81,0,0,1,.34,1.35c.28,1-.67,1.4-1,2.1a1,1,0,0,0,.43,1.28c.52.18,1.27-1.32,1.27-.56a14.31,14.31,0,0,0,3.26,9.71c.08.09,0,.32,0,.49.15.77-.41,1.72.41,2.31.48.35.95-1.76,1.56-.13.27.71-.09,1.52.51,2.3a14.13,14.13,0,0,1,3.53,8,3.67,3.67,0,0,0,.39.83c1.12-1.36,2.15-.39,2.38.5a4.57,4.57,0,0,0,1.89,2.71c1.3.89,1.09,3.67,3.72,2.94.38-.11.61.58.63,1.12,0,.72-.19,1.34.89,1.92,1.88,1,2,3.78,4.09,4.83-.73,2.15,3.12,2.27,2,4.6,0,0,.56.51.75.45,1.81-.56,2.12.75,2.65,1.94a11.59,11.59,0,0,0,4.73,5.18,17.28,17.28,0,0,1,5.33,5.09c1.41,2.22,3.56,3.41,5.2,5.2,1.13,1.24,4.09,1.18,3.3,4,2.45.35,2.7,2.84,4.09,4.21.12.12.31.36.35.34.65-.38,1.38-1.87,1.61.37.18,1.67,2-1.61,2.29.54,2.63.9,3.91,3.75,6.59,4.59.89,2.81,4.56,2.82,5.54,5.54,2.17-.05,2.57,2.45,4.25,3s2.43,1.79,3.36,3.15,2.53,2.27,3.88,3.32a38,38,0,0,0,3.33,2.74c1.1.68,1.67,2.65,3,3.54a25.21,25.21,0,0,1,6.5,5.68c2.45,3.35,5.65,2.68,8.9,2.42.65-1.4,2.22-.33,3-1.08,1.52-1.41,3.86-.17,5.29-1.74,1.55,1.68,3.11.21,4.67,0,.49-.07,1,.43,1.29.39,1.18-.17,2.29.45,3.61-.28s2.82-1.58,4.52-1.12c1,.29,2.32-.91,2.44-.78a2.51,2.51,0,0,0,2.72.74,17.35,17.35,0,0,1,7.1-1l7-2.85c1.26.29,1.76-1.31,3-1.18,1.11.12,2.34.29,3.09-.94,1.48,1.8,1.43.13,1.78-.76.14-.33.38-.15.72.15a3.22,3.22,0,0,0,1.19.55c1.35-2.63,4.4-1.46,6.4-2.83a5.42,5.42,0,0,1,4.49-1.13c.79.23,1.11-1.62,2.34-.28.88.94,1.24-.19,1.75-1.18.64-1.26,2.41-.49,3.67-.5,1.68,0,2.15-2.92,3.6-1.94,1.77,1.21,2.42,1.2,2.85-.87,2.07,0,3.8-1.65,6-1.25a3.57,3.57,0,0,0,3.84-1.58A3.26,3.26,0,0,1,596.5,770c1.32.2,2.44.16,2.81-1.66.12-.58,1.58-1.31,2.35-1.23,1.58.15,2.36-.77,3.42-1.56.6-.43,2.19.76,2.07-1.18,1.41-.4,3-.47,3.44-2.35,2.26,1.16,2.15-2.3,4.1-2.06,1.4.18,1.31-.27,4.1-1.9a68.55,68.55,0,0,0,14.21-11c1-1,2.09-2,3.14-2.89,1.24-1.1,2.07-2.77,3.19-4.14.68-.82,3.17-.61,1.91-2.76,2.52-1,3.44-3.57,5.27-5.21,3-2.69,3.44-3,4.83-5.85.27-.54,1.12-1.1-.16-1.15-1.06,0-1.5-1-2.56-1.17s-1.47-1.37-2.9-.29c-1.09.83-.2-1.62-1.38-1.59-.32,0-.79,0-.93.13-.64.83-1,.71-1.83,0s-2.63.55-2.78-1.75c-.06-1-2,.19-2.54-.74-.8-1.49-1.34.61-2.22,0-1.35-1-3.16-1-4.55-2.41-1-1-3-.94-3.72-2.86-.32-.87-.61.12-.76.44s.18,1.51-.93.76-1.74-2.74-3.43-2.51c-2.34.32-1.44-2.32-2.82-2.72s-2.67-1.78-4.41-1.42a108.27,108.27,0,0,0-10.84-8.84c-1.13-4.41-6.84-4.74-8.07-9.07-2,0-2.45-2-3.84-2.79s-1.36-3.06-3.43-3.61c-1.55-.41-1.63-2.59-2.78-3.8-2-2.06-2.07-2.45-3.78-.86-.84.79-2.55.63-2.6,1.77-.11,2.45-2.22.57-3,1.61a7.14,7.14,0,0,1-2.47,2.45c-4.77,2.21-8.93,5.61-14,7.21-.58.18-.78,1.53-1.86.39a2.4,2.4,0,0,1-.71-2.67c1-1.78,2.84-3.71,4.63-3.22,1.54.42,2-.5,2.11-.9,1-2.72,4-2.72,5.67-4.46.18-.19,1.44,1.91,1.54-.4,0-.51.44-.77,1-.75.94,0,1.87.31,2-1.32.1-1,1.36-1.58,2.56-1.85a11.54,11.54,0,0,0,6.25-4.21,7.59,7.59,0,0,1,4.43-2.54,4.32,4.32,0,0,0,2.12-1c4.21-3.51,6.91-8.79,12.51-10.72.19-.06,0-1.47.88-1.32,2.39.38-1-2.13,1.18-2.15,1.11,0,2.18-1.21,3.55-1,.1,0,.23-.22.35-.33.48-.47,0,0-.28-.31-1.13-1.7.47-2,1.24-2.18.93-.25,1.82-.18,2.62-1s.11-2.27,2-2.24c1.26,0,1.31-2,2.13-3s1.87-1.89,2.82-2.84c2.51,2.34,1.1-1.47,2.46-1.57,2.67-.2,2.52-4.36,5.54-4.48.18,0,.52-.5.49-.74-.29-3.06,3.79-4,3.4-7.1,2.39-2,3.47-4.79,4.72-7.55.52-1.14.88-3.36,3.25-2.61.12,0,.58-.48.54-.54-1.08-1.93.29-3.06,1.41-4.19a7.13,7.13,0,0,0,1.93-3.74c.25-1.12.78-3.11,2.32-3.34.62-.09,1,1.31,1.59-.51.89-2.6,2.16-5.5,4.19-7.13,1.63-1.3,2.63-2.38,3-4.31.28-1.55,2.52-1.9,2.59-3.3a3.45,3.45,0,0,1,2-3.15,8.3,8.3,0,0,0,3.68-4c1.8-3.53,5.52-5.33,7.28-8.79,1.61.26.84-1.86,1.61-1.86,2.66,0,4.08-2.31,6.25-3.06,1-.33,1-.73,1.41-1.48.71-1.38,1.2-3.47,3.75-2.65,1.1.35,1.7-.91,2.27-1.62a10.43,10.43,0,0,1,4.47-3.55c3-1.2,5.08-4.21,8.34-5.22a1.22,1.22,0,0,0,.69-.7c1.14-3.39,4.52-4.16,7.07-5.74A9.65,9.65,0,0,0,707,547c.87-1.39,1.06-3.12,2.93-4.08,1.54-.78,2.31-3,3.78-4,4.17-3.07,6.5-7.73,10-11.37a14.4,14.4,0,0,0,3-4.69,12.73,12.73,0,0,1,2.43-4.5c1.28-1.37.81-3.83,2.82-4.82-.64-1.89,1.65-3.17,1-5.09a10.13,10.13,0,0,0-2.56-4.45c-.67-.64-1.56-1.12-1.53-2.39,0-.6-1.06-.81-1.58-.32-.83.78-1.51,1.22-2.45.2-.75-.82-1.33,0-2.07.17-1.74.47-3.09,1.81-4.56,2.23-1.86.53-3.4,1.83-5.14,2.06s-.53,2.5-2,2.08c-.9-.24-1.08,1.72-2.42.44-.56-.54-.51,1.75-1.64,2.12-2.62.86-4.14,3.11-5.91,5-1.11,1.18-3,1-3.66,1.85-.88,1-1.61,2.33-2.64,3.33a1.55,1.55,0,0,1-.86.32c-3.86.57-6.09,3.18-8,6.28a4.19,4.19,0,0,1-2.12,1.81c-1.41.58-2.73,1.85-4,2.33-2.23.84-3.16,3.08-5.4,3.9-1.1.41-3.19,0-3.32,1.25-.22,2.08-2.25,1.41-3,2.67s-2.45,1.89-3.78,2.75a1.43,1.43,0,0,1-1,0c-1.63-.43-2.26.44-2.72,1.83-.12.35-.75,1.45-1.3.88-1.57-1.61-2.23-.12-3.18.66a16.74,16.74,0,0,0-2.2,1.73c-1.61,2.2-5.67,1-6.13,4.58-.08.56-.86.33-1.33.32-2.52,0-2.52,0-3.81.86-2.09,1.44-2.16,2.23-.55,3.79.6.59,2.35,0,1.87,1.61-.3,1.08,1.16,1.85.72,2.45-1.69,2.29,1.75.64,1.31,1.81-.92,2.4,1.92,3.14,2.23,5.11.18,1.13,1.06-1.39,1.62-.2a6.73,6.73,0,0,1,.18,2.38c-.31,1.09.71,2.55-.7,3.14-1.13.47-1.68-.81-2.33-1.48-2.31-2.36-6-3.66-6-7.83,0-.21-.38-.53-.64-.61-4.05-1.33-4.92-6.6-9.3-7.52,0,0,.05-.38,0-.46-1.37-1.24-2.75-2.48-4.16-3.69A3.1,3.1,0,0,0,626,551a11.45,11.45,0,0,1-5.35-3.82c-.73-.83-1.35-2-2.58-2.15s-2.83.45-3.54-1.07c-1-2.13-2.4.08-3.51-.45a32.2,32.2,0,0,1-3.74-1.8c-1.58-1-4.38-.52-4.5-3.45-1,.14-1.53-1.09-2.78-.84-1.41.29-2.43-.26-3.27-2-.75-1.52-3.45.47-4.9-1.13s-3.27-1.74-4.94-2.53a12.49,12.49,0,0,1-4-3.43,1.11,1.11,0,0,0-1.35-.33c-1.66.68-2.62-1.37-4.09-1-1.87.47-2.3-1.76-3.11-1.87-3.73-.49-6.45-3.39-9.86-4-2.42-.41-3.17-1.62-4.11-3.3-.66-1.18-.56-1.79.89-1.89s3.62.65,4.43-1.26c1.07-2.52,3.91-4,4.23-6.72.18-1.58,2.74-.52,2.14-2.59-.46-1.59,1.42-2,2.12-3.09a8.25,8.25,0,0,1,3.11-3.12c1.37-.67.09-2.74,1.08-3,3-.66,3-3.43,4.1-5.32a57.87,57.87,0,0,1,5.66-8.67,14.27,14.27,0,0,0,2.79-5.31,14.78,14.78,0,0,1,2.5-5,15.94,15.94,0,0,1,2.38-2.47c.9-.82.12-2.58,1-4.05a6,6,0,0,0-.13-5.23c-1.06-2-.76-4-.26-6.07.09-.36.94-.71.17-1-2.76-1.21-.53-4.49-2.56-6,.77-2.66-1.79-4.31-2-6.66-2.45-.52-3.91-2.55-5.76-3.92-1.07-.79-2.58.12-3.07-1-.76-1.72-2.3-1.18-3.23-1-1.48.23-2.88-1.11-4-.44-2.16,1.35-4.41.74-6.63.91-1,.07-1.93-.17-2.68.83-.93,1.25-1.78-1.64-2.72-.2A3.43,3.43,0,0,1,560,437c-2.23-.47-4.06,1.44-6.08,1-1.77-.42.14,2-1.92,1.75-3.46-.46-6.84,1.6-10.44,1.33-3.92,2.4-8.55,1.86-12.73,3.09a3.55,3.55,0,0,1-2.72,0,2.12,2.12,0,0,0-2.26.51c-.48.45-.79,2.15-2.12.72-.4-.44-1.59-.87-1.35.5.15.85,1.63,1.13,1.63,2.31,0,.15,0,.4-.08.46-1.43.93-.91,2.38-.89,3.62a7.43,7.43,0,0,1-2.26,5.59,20.12,20.12,0,0,0-2.85,3.29c-1.23,1.95-4,2-5.53,3.83-2.09-2.58-2.14.77-3.22,1.11a29.46,29.46,0,0,0-3.94,1.34c-.65.32-1.59,1-1.19,1.94.71,1.62,1-.41,1.64-.3s1,0,1.3.5l5,1.52h5.5c1.56,2.58,3.09-.9,4.69,0,.39.21,1-.05,1.48,0,1.4.27,2.69,1.64,4.24.05.42-.44,1,.28,1.11,1.08s.82,1.18.9.12c.13-1.69,1.21-1.19,2.1-1.26,4.86-.36,9.69.11,14.62-.78a72.32,72.32,0,0,0,14.06-3.59c1.77-.71,3.84-.14,5.34-1.62,1.27-1.26,3.32-.75,4.68-2s3.52.36,4.46-1.7c.19-.42.35-.24.72,0,1,.74,1.6,3.66.78,4.43-1.37,1.28-4.06.28-4.78,2.77-.16.55-.82.48-1.3.43a7.32,7.32,0,0,0-5.8,1.7c-4.46-.06-4.34,4.45-6.6,6.6,1.53,1.13-.39,2-.24,3.08s-2.41.29-1.54,1.36c1.1,1.36-.62,1.51-.55,2.4,0,.64-.33,1.91-2.14,1.31-1.56-.52-.06,1.73-1,2.34s-.57,2.31-1.79,2.73-.33,2.86-2.39,2.52c-.14,0-.51.44-.54.69-.44,4.08-4.07,6-6.27,8.77-.82,1-3.08,1.66-3.54,3-.53,1.53-3.14,1.75-2.32,4a2.34,2.34,0,0,1-2.26,1.48,2.22,2.22,0,0,0-1.16.15l6.2,7.17Zm-20,65.86c0,.66,0,1.33,0,2.91-1.38,4.22-1.27,9.55-3.31,14.71-1.85,4.67-4.32,9.32-4.73,14.55a3.9,3.9,0,0,1-1,2.53c-2.21,1.8-2.51,4.69-4.19,6.88s-2.52,4.86-5.41,6.18c-1.21.56,0,2.61-1,4s-2.91-.51-3.54,1.85c-.54,2-3.82,2.47-5.76,1.4-1.16-.64-1.25-1.7-.4-2.78,2-2.55,5.27-4,6.39-7.35.18-.54.81-.51,1.3-.44,1.32.18,1.89-.41,1.61-1.67a1.92,1.92,0,0,1,1.84-2.64c1.91-.23-.46-2.23,1.34-2.83,1.1-.37,1.93-2,2.56-3.16a13.11,13.11,0,0,0,1.24-4c.23-1.53,1.83-3.08.07-4.7-.26-.24.11-1.08.6-.83.66.33,1,1.34,1.42-.29a32.81,32.81,0,0,1,2.62-7.89c.78-1.43-.9-2-.32-2.81.72-1.05,1.81-1.71,1.75-3.33,0-.94.78-2,1.43-2.85a2.18,2.18,0,0,0,.45-1.81c-.45-2.44,1.39-4.12,2-6.19.43-1.6,1.49-1,2.3-1S505,596.88,505,597.53Zm181.9-63c.54-.49,1.24-.91,1.68-.42,1.41,1.59,4.89,1,4.59,4.45,0,.68,2.9.33,1.6,2s.47,1.8.89,2.52c.64,1.12.31,2.25.3,3.36a2.44,2.44,0,0,1-2.79,2.54c-1.26.13-1-1.4-1.28-1.49-2-.6,1.24-2.41-.79-3-1.26-.34-.87-2-1.76-2.74-1.65-1.42-2.05-3.42-2.61-5.42C686.5,535.56,686.18,535.21,686.9,534.57Zm-4.57,4.65c.83-.67,1.45,0,2,.63,1.54,1.62,3.31,3,4.26,5.17a6.84,6.84,0,0,1,.41,1.8c-1.43,1.39.1,2.76,0,4.14-.06,1-.06,2-1.06,2.55s-1.73-.73-2.73-.84c-.46,0-1.27-1-1.18-1.38.81-3.36-2.07-5.48-2.72-8.34a18.27,18.27,0,0,1-.35-1.82C680.9,540.12,681.75,539.7,682.33,539.22Z"/><path class="d" d="M453.55,502.94c-1.11,1,1.07,1.45.44,2.35s-1.26,1.5-1,2.59a3.23,3.23,0,0,0,.28.88c.17.27.37.06.71-.22a75.76,75.76,0,0,0,8.37-8.34,2.09,2.09,0,0,0,.58-2.22c-.59-1.23,1.46-1.85.38-3.37-.71-1-.28-2.85-.31-4.32s.42-2.87-.1-4a13,13,0,0,1-.86-6.61c.07-1.15-.88-1.68-1-2.59-.08-.47-.11-1.07-.62-1a1.61,1.61,0,0,0-1,1,21.69,21.69,0,0,1-3.2,7.18.35.35,0,0,0,0,.34c1.74,1.36-1.15,2.23-.34,3.82.6,1.17-.93,2.5-1.61,3.71-.39.68.42.68.59,1.36-1.75.46.89,2.33-1.12,3.34-1.44.73-1,2.64-.29,3.92C453.86,501.64,454.34,502.2,453.55,502.94Z"/><path d="M738.14,507.44c-.18-1.92-1.94-2.82-2-4.17-.15-2.9-2.34-3.45-4.06-4.82a12.3,12.3,0,0,0-6.51-2.42c-.49-.07-1.79,0-1.31.56,1.35,1.73,0,1.14-.84,1.46-1,.42-1.27-1.28-2.44-.62-.8.44-2.14-.46-2.8.89s-2.76-.12-3.39,1.42c-.53,1.3-2.41.74-2.8,2.26-.52,1.95-2.22.56-3.27,1a6.69,6.69,0,0,0-1.13.89c-1,.77-1.51,2.26-3.12,2.13-.18,1.92-1.57,1.92-3,2.15A1.93,1.93,0,0,0,700,510a2,2,0,0,1-1.43,1.82c-2,.12-2.55,2.29-4.44,2.69-1.4.3-2,2.29-3.93,2.61-1.62.26-1.77,3-3.42,3.49s-2,2.53-3.75,2.86a5.82,5.82,0,0,0-3.44,2.49c-.84,1.13-2.45.86-3.18,2-1.95-.74-.81,2.2-2.59,2.08-1.93-.14-2.76,2.29-4.84,2.6-1.06.15-2,1.65-2.81,2.71-.92,1.26-2.76-.17-3.45,1.39s-2.93.73-3.27,1.48a4.48,4.48,0,0,1-3.9,2.68c-2.12.24-2.83,2.47-4.82,2.93a2.09,2.09,0,0,1-2.4-1.1c-.61-.79.46-1.06.82-1.34.78-.63,1.71-.77,2.17-2a21.66,21.66,0,0,0,.72-2.71c.24-1.1,1.81-.44,2.27-1.46.19-.42.8-.58.7-1.22-.33-2.18-.13-4.13,2.41-4.91.73-2.88,3.81-4.65,3.66-8a3.47,3.47,0,0,1,1.33-2.82c1.88-.81,2.41-2.15,2.6-3.93s2-3.13,2-5.17c.09-1.69,2.22-2.93,1.86-4.65-.53-2.47,2-2.73,2.56-4.41.74-2.35,2.24-4.31,2.7-6.92.4-2.29,2.36-4.31,3.61-6.46a1.79,1.79,0,0,0,.2-.91,4.81,4.81,0,0,1,.8-3.5c-2.26-2.19,2.44-.63,1.21-2.26a4.71,4.71,0,0,0,1-4.07c-.31-1.34,3.3-.65,1.21-2.62,1.8-3.28,2.27-7.1,4-10.35,1.06-2.05.59-4.3,1.78-6.29.75-1.27-.24-3.13.57-4.75a14.83,14.83,0,0,0,1.46-4.87c.15-1.33.52-2.62.61-4,.2-3.13,1.52-6.13,1.48-9.35,0-1.9-.16-3.75.88-5.64.88-1.59-.06-3.61.85-5.64,1.09-2.43-.22-5.6.89-8.33-1.54-3.47.51-7.81-2.6-10.94-.12-.12.23-.89.52-1.22s.44-.71.2-.69c-2.51.14-3.68-1.8-5.2-3.2,0,0-.31.1-.33.19-.89,3.86-1.71.16-2.47-.08s-1.83-.48-2.32,0c-1.32,1.19-1.43.68-1.46-.69a6.77,6.77,0,0,1,.89-3.15c.41-.85.33-2.06,1-3-1.62-1-.22-2.93-1.12-4-.56-.68-.56-2-1-2-2-.1-2.31-2-2.56-2.92-.38-1.42-1.14-1.1-2-1.47-2.63-1.19-5.14,2.87-7.69.06-1.38,1.84-3.7.21-5,1.18s-3,1.44-3.87,2.74c-1.18,1.71-3.48,1.87-4.55,3.53a9.08,9.08,0,0,1-4.08,3.24,7,7,0,0,0-3.35,4c-.5,1.41-1.2,3.06-2.73,3.86-2.42,1.25-1.51,4.59-3.8,6A6,6,0,0,0,640,408c-.61,2.6-1.46,5.13-3.5,7,.42,2-2.31,1.54-2.6,3.38-.22,1.44-2.17,2.17-2.94,3.74-1.09,2.22-2.75,4.15-4.07,6.29s-2.48,4.7-4.27,6.13-2.46,4.52-5.38,4.72c-1.34,3.35-3.9,5.8-6.2,8.43.25,2-2.35,1-2.55,2.35-.24,1.62-2,2.25-2.35,3.52-.46,1.85-2,2.5-3,3.77-.24.32-1,.87-1,.19,0-1.6-1.52-2-2.08-3.12,2.22-.88-.28-2.4.48-3.48,1.1-1.55.4-2-1.18-2-.42,0-1.74-.26-1-.62,1.36-.65-1.61-2.69,1-2.4.44.05.62-.48.12-.95-1.09-1-2.15-2.09-3.18-3.17-.69-.72.16-.67.49-.82s.75-.06.87-.26c.47-.71-.21-.74-.61-.73a2.44,2.44,0,0,1-1.85-1.32c.57-1.11,1-2-.9-1.69-1,.15-1.44-.65-2-1.19-.85-.81-1.59-1.73-2.5-2.45-1.48-1.19-3.12-3.23-4.58-3.13-2,.13-3.38.11-4.79-1.22a1,1,0,0,0-1,0c-1.71,1.76-3.6,2.21-5.79,1-1.29,1.43-3,1.06-4.58,1-3.09-.16-6,1-8.93,1.49-1,.17-2.74-1.16-3.25,1-.17.73-1.12.43-1.75.52-1.09.17-2.35-.55-3.26.55-1.48,1.78-2.11-1.33-3.42-.57-.12.07-.39-.06-.48,0-1.69,1.58-4.09,1.6-5.9,2.6a16,16,0,0,1-4.42,1.52c-1.34.32-2.23,1.31-3.92.36-1.28-.72-2.46,1.38-3.95,1.49a1.26,1.26,0,0,1-.8-.45,1.43,1.43,0,0,0-1.73-.38,69,69,0,0,0-7.77,2.94c-1.44.75-2.43,1.41-3.83.17-.83-.73-1.43,0-2.07.54-.42.36-.93,1.45-1.32.92-1.13-1.53-1.5.57-2.35.31-1-.31-1.94.84-2.57.82-1.26,0-2.68,1.34-3.29.6-1.3-1.6-2.1,1-3.25,0-1.66-1.44-2.14.65-3.09,1.29-.77.51-2,.53-2.29.15-1.27-1.64-2.15-.44-3.28.09-4.9,2.31-6.59,6.57-7.25,11.44a4.78,4.78,0,0,0,2.15,5.18c1.43,1,1.67,2.71,2.78,3.89.5.53-.3,1.68.43,2.26.2.15,1.09-.63,1.34-.48.69.43,1.21,1.63,1.8,1.63a12.6,12.6,0,0,1,8.93,3.93c.06.06.94-.75,1-.7,1.34,1.37,3.07,1,4.59.81,1.74-.19,2.82,1.78,4.6,1.08.92-.36,1.5,1,2,.82a14.78,14.78,0,0,1,10.79,0c3-2.36,7,.59,10.19-1.77a3.07,3.07,0,0,1,3.26.27c.55.45,1.23,1,1.69.54,1.88-1.82,4.15-.41,6.14-.94s3.78-1.33,5.68-2a5,5,0,0,1,1.5,0c1.42.05,1.16.51.41,1.32-.4.42-.34,1.33-.77,1.64-1.51,1.1-2.27,2.9-3,4.32-.76,1.59-2.28,2.52-2.82,4.33s-2.53,2.92-3.3,4.62-1.86,3.38-3.33,4c-2,.85-1.68,2.77-2.74,3.86a105.5,105.5,0,0,0-10.08,11.48l2.22,2.58a2.22,2.22,0,0,1,1.16-.15,2.34,2.34,0,0,0,2.26-1.48c-.82-2.29,1.79-2.51,2.32-4,.46-1.34,2.72-2,3.54-3,2.2-2.81,5.83-4.69,6.27-8.77,0-.25.4-.71.54-.69,2.06.34,1.11-2.09,2.39-2.52s.79-2.09,1.79-2.73-.56-2.86,1-2.34c1.81.6,2.19-.67,2.14-1.31-.07-.89,1.65-1,.55-2.4-.87-1.07,1.69-.25,1.54-1.36s1.77-1.95.24-3.08c2.26-2.15,2.14-6.66,6.6-6.6a7.32,7.32,0,0,1,5.8-1.7c.48.05,1.14.12,1.3-.43.72-2.49,3.41-1.49,4.78-2.77.82-.77.2-3.69-.78-4.43-.37-.28-.53-.46-.72,0-.94,2.06-3.24.59-4.46,1.7s-3.41.73-4.68,2c-1.5,1.48-3.57.91-5.34,1.62a72.32,72.32,0,0,1-14.06,3.59c-4.93.89-9.76.42-14.62.78-.89.07-2-.43-2.1,1.26-.08,1.06-.8.8-.9-.12s-.69-1.52-1.11-1.08c-1.55,1.59-2.84.22-4.24-.05-.48-.09-1.09.17-1.48,0-1.6-.86-3.13,2.62-4.69,0H510l-5-1.52c-.33-.47-.82-.42-1.3-.5s-.93,1.92-1.64.3c-.4-.92.54-1.62,1.19-1.94a29.46,29.46,0,0,1,3.94-1.34c1.08-.34,1.13-3.69,3.22-1.11,1.49-1.83,4.3-1.88,5.53-3.83a20.12,20.12,0,0,1,2.85-3.29,7.43,7.43,0,0,0,2.26-5.59c0-1.24-.54-2.69.89-3.62.09-.06.08-.31.08-.46,0-1.18-1.48-1.46-1.63-2.31-.24-1.37,1-.94,1.35-.5,1.33,1.43,1.64-.27,2.12-.72a2.12,2.12,0,0,1,2.26-.51,3.55,3.55,0,0,0,2.72,0c4.18-1.23,8.81-.69,12.73-3.09,3.6.27,7-1.79,10.44-1.33,2.06.27.15-2.17,1.92-1.75,2,.47,3.85-1.44,6.08-1a3.43,3.43,0,0,0,3.93-1.33c.94-1.44,1.79,1.45,2.72.2.75-1,1.72-.76,2.68-.83,2.22-.17,4.47.44,6.63-.91,1.09-.67,2.49.67,4,.44.93-.14,2.47-.68,3.23,1,.49,1.12,2,.21,3.07,1,1.85,1.37,3.31,3.4,5.76,3.92.23,2.35,2.79,4,2,6.66,2,1.47-.2,4.75,2.56,6,.77.33-.08.68-.17,1-.5,2-.8,4,.26,6.07a6,6,0,0,1,.13,5.23c-.87,1.47-.09,3.23-1,4.05a15.94,15.94,0,0,0-2.38,2.47,14.78,14.78,0,0,0-2.5,5,14.27,14.27,0,0,1-2.79,5.31,57.87,57.87,0,0,0-5.66,8.67c-1.1,1.89-1.1,4.66-4.1,5.32-1,.22.29,2.29-1.08,3a8.25,8.25,0,0,0-3.11,3.12c-.7,1.05-2.58,1.5-2.12,3.09.6,2.07-2,1-2.14,2.59-.32,2.76-3.16,4.2-4.23,6.72-.81,1.91-2.85,1.15-4.43,1.26s-1.55.71-.89,1.89c.94,1.68,1.69,2.89,4.11,3.3,3.41.58,6.13,3.48,9.86,4,.81.11,1.24,2.34,3.11,1.87,1.47-.37,2.43,1.68,4.09,1a1.11,1.11,0,0,1,1.35.33,12.49,12.49,0,0,0,4,3.43c1.67.79,3.6,1.05,4.94,2.53s4.15-.39,4.9,1.13c.84,1.71,1.86,2.26,3.27,2,1.25-.25,1.75,1,2.78.84.12,2.93,2.92,2.41,4.5,3.45a32.2,32.2,0,0,0,3.74,1.8c1.11.53,2.5-1.68,3.51.45.71,1.52,2.29.89,3.54,1.07s1.85,1.32,2.58,2.15A11.45,11.45,0,0,0,626,551a3.1,3.1,0,0,1,.85.35c1.41,1.21,2.79,2.45,4.16,3.69.09.08,0,.46,0,.46,4.38.92,5.25,6.19,9.3,7.52.26.08.64.4.64.61,0,4.17,3.72,5.47,6,7.83.65.67,1.2,1.95,2.33,1.48,1.41-.59.39-2.05.7-3.14a6.73,6.73,0,0,0-.18-2.38c-.56-1.19-1.44,1.33-1.62.2-.31-2-3.15-2.71-2.23-5.11.44-1.17-3,.48-1.31-1.81.44-.6-1-1.37-.72-2.45.48-1.66-1.27-1-1.87-1.61-1.61-1.56-1.54-2.35.55-3.79,1.29-.89,1.29-.88,3.81-.86.47,0,1.25.24,1.33-.32.46-3.6,4.52-2.38,6.13-4.58a16.74,16.74,0,0,1,2.2-1.73c1-.78,1.61-2.27,3.18-.66.55.57,1.18-.53,1.3-.88.46-1.39,1.09-2.26,2.72-1.83a1.43,1.43,0,0,0,1,0c1.33-.86,3-1.52,3.78-2.75s2.83-.59,3-2.67c.13-1.21,2.22-.84,3.32-1.25,2.24-.82,3.17-3.06,5.4-3.9,1.29-.48,2.61-1.75,4-2.33a4.19,4.19,0,0,0,2.12-1.81c1.86-3.1,4.09-5.71,8-6.28a1.55,1.55,0,0,0,.86-.32c1-1,1.76-2.3,2.64-3.33.69-.81,2.55-.67,3.66-1.85,1.77-1.87,3.29-4.12,5.91-5,1.13-.37,1.08-2.66,1.64-2.12,1.34,1.28,1.52-.68,2.42-.44,1.52.42.41-1.87,2-2.08s3.28-1.53,5.14-2.06c1.47-.42,2.82-1.76,4.56-2.23.74-.21,1.32-1,2.07-.17.94,1,1.62.58,2.45-.2.52-.49,1.59-.28,1.58.32,0,1.27.86,1.75,1.53,2.39a10.13,10.13,0,0,1,2.56,4.45c.64,1.92-1.65,3.2-1,5.09-2,1-1.54,3.45-2.82,4.82a12.73,12.73,0,0,0-2.43,4.5,14.4,14.4,0,0,1-3,4.69c-3.52,3.64-5.85,8.3-10,11.37-1.47,1.08-2.24,3.25-3.78,4-1.87,1-2.06,2.69-2.93,4.08a9.65,9.65,0,0,1-3.36,3.17c-2.55,1.58-5.93,2.35-7.07,5.74a1.22,1.22,0,0,1-.69.7c-3.26,1-5.31,4-8.34,5.22a10.43,10.43,0,0,0-4.47,3.55c-.57.71-1.17,2-2.27,1.62-2.55-.82-3,1.27-3.75,2.65-.38.75-.46,1.15-1.41,1.48-2.17.75-3.59,3-6.25,3.06-.77,0,0,2.12-1.61,1.86-1.76,3.46-5.48,5.26-7.28,8.79a8.3,8.3,0,0,1-3.68,4,3.45,3.45,0,0,0-2,3.15c-.07,1.4-2.31,1.75-2.59,3.3-.36,1.93-1.36,3-3,4.31-2,1.63-3.3,4.53-4.19,7.13-.63,1.82-1,.42-1.59.51-1.54.23-2.07,2.22-2.32,3.34a7.13,7.13,0,0,1-1.93,3.74c-1.12,1.13-2.49,2.26-1.41,4.19,0,.06-.42.58-.54.54-2.37-.75-2.73,1.47-3.25,2.61-1.25,2.76-2.33,5.53-4.72,7.55.39,3.08-3.69,4-3.4,7.1,0,.24-.31.73-.49.74-3,.12-2.87,4.28-5.54,4.48-1.36.1,0,3.91-2.46,1.57-1,1-1.94,1.84-2.82,2.84s-.87,3-2.13,3c-1.91,0-1.34,1.54-2,2.24s-1.69.75-2.62,1c-.77.2-2.37.48-1.24,2.18.24.35.76-.16.28.31-.12.11-.25.35-.35.33-1.37-.22-2.44,1-3.55,1-2.13,0,1.21,2.53-1.18,2.15-.92-.15-.69,1.26-.88,1.32-5.6,1.93-8.3,7.21-12.51,10.72a4.32,4.32,0,0,1-2.12,1,7.59,7.59,0,0,0-4.43,2.54,11.54,11.54,0,0,1-6.25,4.21c-1.2.27-2.46.8-2.56,1.85-.17,1.63-1.1,1.35-2,1.32-.6,0-1,.24-1,.75-.1,2.31-1.36.21-1.54.4-1.69,1.74-4.71,1.74-5.67,4.46-.15.4-.57,1.32-2.11.9-1.79-.49-3.64,1.44-4.63,3.22a2.4,2.4,0,0,0,.71,2.67c1.08,1.14,1.28-.21,1.86-.39,5.07-1.6,9.23-5,14-7.21a7.14,7.14,0,0,0,2.47-2.45c.75-1,2.86.84,3-1.61,0-1.14,1.76-1,2.6-1.77,1.71-1.59,1.81-1.2,3.78.86,1.15,1.21,1.23,3.39,2.78,3.8,2.07.55,1.89,2.77,3.43,3.61s1.84,2.83,3.84,2.79c1.23,4.33,6.94,4.66,8.07,9.07a108.27,108.27,0,0,1,10.84,8.84c1.74-.36,2.93,1,4.41,1.42s.48,3,2.82,2.72c1.69-.23,2.25,1.71,3.43,2.51s.73-.34.93-.76.44-1.31.76-.44c.7,1.92,2.72,1.84,3.72,2.86,1.39,1.42,3.2,1.41,4.55,2.41.88.65,1.42-1.45,2.22,0,.49.93,2.48-.25,2.54.74.15,2.3,2,1.09,2.78,1.75s1.19.79,1.83,0c.14-.18.61-.12.93-.13,1.18,0,.29,2.42,1.38,1.59,1.43-1.08,1.95.15,2.9.29s1.5,1.13,2.56,1.17c1.28.05.43.61.16,1.15-1.39,2.8-1.81,3.16-4.83,5.85-1.83,1.64-2.75,4.23-5.27,5.21,1.26,2.15-1.23,1.94-1.91,2.76-1.12,1.37-2,3-3.19,4.14-1,.93-2.17,1.91-3.14,2.89a68.55,68.55,0,0,1-14.21,11c-2.79,1.63-2.7,2.08-4.1,1.9-2-.24-1.84,3.22-4.1,2.06-.4,1.88-2,2-3.44,2.35.12,1.94-1.47.75-2.07,1.18-1.06.79-1.84,1.71-3.42,1.56-.77-.08-2.23.65-2.35,1.23-.37,1.82-1.49,1.86-2.81,1.66a3.26,3.26,0,0,0-3.42,1.43,3.57,3.57,0,0,1-3.84,1.58c-2.18-.4-3.91,1.2-6,1.25-.43,2.07-1.08,2.08-2.85.87-1.45-1-1.92,1.91-3.6,1.94-1.26,0-3-.76-3.67.5-.51,1-.87,2.12-1.75,1.18-1.23-1.34-1.55.51-2.34.28a5.42,5.42,0,0,0-4.49,1.13c-2,1.37-5,.2-6.4,2.83a3.22,3.22,0,0,1-1.19-.55c-.34-.3-.58-.48-.72-.15-.35.89-.3,2.56-1.78.76-.75,1.23-2,1.06-3.09.94-1.27-.13-1.77,1.47-3,1.18l-7,2.85a17.35,17.35,0,0,0-7.1,1,2.51,2.51,0,0,1-2.72-.74c-.12-.13-1.39,1.07-2.44.78-1.7-.46-3.25.42-4.52,1.12s-2.43.11-3.61.28c-.25,0-.8-.46-1.29-.39-1.56.2-3.12,1.67-4.67,0-1.43,1.57-3.77.33-5.29,1.74-.82.75-2.39-.32-3,1.08-3.25.26-6.45.93-8.9-2.42a25.21,25.21,0,0,0-6.5-5.68c-1.32-.89-1.89-2.86-3-3.54a38,38,0,0,1-3.33-2.74c-1.35-1.05-2.94-2-3.88-3.32s-1.67-2.61-3.36-3.15-2.08-3.05-4.25-3c-1-2.72-4.65-2.73-5.54-5.54-2.68-.84-4-3.69-6.59-4.59-.33-2.15-2.11,1.13-2.29-.54-.23-2.24-1-.75-1.61-.37,0,0-.23-.22-.35-.34-1.39-1.37-1.64-3.86-4.09-4.21.79-2.82-2.17-2.76-3.3-4-1.64-1.79-3.79-3-5.2-5.2a17.28,17.28,0,0,0-5.33-5.09,11.59,11.59,0,0,1-4.73-5.18c-.53-1.19-.84-2.5-2.65-1.94-.19.06-.76-.41-.75-.45,1.08-2.33-2.77-2.45-2-4.6-2.06-1-2.21-3.81-4.09-4.83-1.08-.58-.85-1.2-.89-1.92,0-.54-.25-1.23-.63-1.12-2.63.73-2.42-2-3.72-2.94a4.57,4.57,0,0,1-1.89-2.71c-.23-.89-1.26-1.86-2.38-.5a3.67,3.67,0,0,1-.39-.83,14.13,14.13,0,0,0-3.53-8c-.6-.78-.24-1.59-.51-2.3-.61-1.63-1.08.48-1.56.13-.82-.59-.26-1.54-.41-2.31,0-.17.07-.4,0-.49a14.31,14.31,0,0,1-3.26-9.71c0-.76-.75.74-1.27.56a1,1,0,0,1-.43-1.28c.3-.7,1.25-1.1,1-2.1a5.81,5.81,0,0,0-.34-1.35,16.7,16.7,0,0,1-1.65-3.9c-.05-1-.78-2.19-.7-2.62.33-1.8-2.82-3.36-.33-5.15a3.37,3.37,0,0,1-.24-4.76c-1.7-2.74.19-6-1.29-8.75-.31-.56-.22-.73.12-1.09.72-.79,2.48-1.72-.26-2.14-.4-.06-.33-.42.09-.69.86-.55.34-1.55.64-2.22.67-1.5-1.16-2.62-.28-4.3.62-1.18.21-2.91.24-4.39a14.67,14.67,0,0,0-.07-4c-.37-1.32,1.59-2.24.16-3.78-.91-1,1.09-2.59.79-3.45-1.14-3.23,1.57-6.28.12-9.39,2.06-1.07.36-3.32,1.6-4.88,1-1.22,1-3.21,1.38-4.88.18-.79,1.19-1.08,1-2.09a29.75,29.75,0,0,1,0-3c0-.66,1.64-1,.41-1.83-.41-.29-.49-.53-.09-.7s1-.11,1.32-.4c.8-.77-.73-.84-.53-1.37s.63-.73.89-1.13c.87-1.35.44-3.32,2.07-4.31s.73-3.34,2.58-4.22c.78-.37-1.33-1.36.13-2.11a5.72,5.72,0,0,0,1.76-1.74c.36-.48.34-1.34.76-1.66,1.68-1.25-.46-4.25,1.77-4.66,1.86-.34,1.48-2.79,3.36-2.64.18,0,.57-.46.55-.68-.16-1.72-.13-3.62,1.63-4.26s.48-2.93,2.65-3.14c1.66-.16-.13-2.85,1.65-3.49-2.13-1.78-.23-2.07.94-2.8a13.67,13.67,0,0,0,2.15-2.09c-2-1.55.33-1.21.68-1.82a4.53,4.53,0,0,0,.29-2.84c-.29-1.63.93-1.66,1.83-2.2s1.43-.95.36-2.17c-.87-1,1.28-2,.88-3.49-.25-.93.61-.84,1.25-1,1.73-.47,1.5-3.1,3.54-3.33.09,0,.28-.73.15-.87-1-1-.81-1.88.34-2.56,1.34-.81,1.31-2.7,2.5-3.42,1.4-.84,0-2.31.83-2.84,1.52-1,.88-2.79,1.79-3.76s-.55-1.37-.24-1.79,1.09-.51,1.65-.74c-.58-1.08,1.56-1.45.61-2.81-.79-1.12,1-1.28,1.29-2.08.4-1,1.4-2.17,1.15-2.94-.71-2.22,2.57-1.42,2.09-3.12s1.19-2.74.94-4.07c-.31-1.67,1.15-2.65,1.07-4.1-.05-.94.08-1.66,1.27-1.54l4.48-2.24c1-1.47,3-2.05,3.29-4.15.06-.49.45-.58,1-.15,1.36,1.14,2.14.75,2-1-.14-1.45.32-2.05,1.68-2.84,1.09-.64-.26-3.06,1.18-4.26-1.22-1.81,1.77-4.22-.82-5.85-.08,0-.09-.37,0-.47,2.08-2.72.19-5-.81-7.35a2.55,2.55,0,0,1,.3-2.72c.79-1-1-1.69-.55-2.88a2.06,2.06,0,0,0-.95-2.57c.47-.47.89-1.26,1.43-1.35a8.09,8.09,0,0,1,3.91,0c.91.32,1.31.79,2.29,0a1.56,1.56,0,0,1,2.51,1.21c.25,1.23,1.87,2.22,2.94,3.25A24.09,24.09,0,0,1,484.39,490a54.43,54.43,0,0,1,1.58,7.84c.3,2-.4,4.18,1,6.12a2.57,2.57,0,0,1,0,2.41c-2.51,3.1.68,7.2-1.91,10.21,2.54,3,.27,5.75-.64,8.44-.41,1.22,1.67,1.82.33,2.78-1.05.75-.84,1.82-.67,2.71.39,2.08-2.48,4-.22,6.21.12.12-2.33,0-1.79,1.53,1.1,3.1-.13,5.65-1.8,7.94-.94,1.28,1.68,2.35-.07,3.13s-.84,2.64-1.59,3.87a7.22,7.22,0,0,0-.51,2.91c0,2.62-1.34,4.8-2.07,7.17-.23.73-1.46,1.27-.16,2.31.29.24-1.37.18-1.84,1-1.25,2-.66,4.64-1.95,6.7-.1.15.41.85.78,1.11a20.31,20.31,0,0,0,2.79,1.69c.8.4,1.84-.6,1.31-1.33-.7-1-.95-1.46.12-2.21,2.53-1.79,2.83-4.91,3.78-7.42,1.59-4.16,1.13-4.34,2.64-6,.79-.87.2-1-.52-1-1,0-1-.7-.92-1.35a.87.87,0,0,1,1.11-.66c1.56.27,2.06-.46,1.87-1.93-.08-.66.06-1.34,0-2a2.63,2.63,0,0,1,1.82-3.06c2.42-.92,3.9-2.83,5.5-4.72.68-.8.69-3.94,3.15-1.5,0,0,1.3-1.64,2-1.68,1.61-.09,2-1.72,3.17-2.08s2.34-1,2.39-2.56c0-.16.54-.49.77-.44,2.72.51,3.78-2,5.63-3.11,1.62-.94,2.81-2.53,4.51-3.57,1.46-.88,1.57-3.39,3.88-3.82.35-.06.84-1.33.84-1.95l-2.85-3.66-.24.09c-.51.17-.41.87-.64,1.16a60.11,60.11,0,0,1-14.55,12.72,10,10,0,0,0-2.65,1.92,11.63,11.63,0,0,1-5,3.66c-2,.8-3.21,2.49-5,3.31a1.52,1.52,0,0,1-.91.19c-.31-.09-.81,0-.52-.85.76-2.36.9-5,1.79-7.26a16.38,16.38,0,0,0,.88-7.11c-.07-1.14.73-1.72,1.06-2.59.43-1.16-1.11-2.1-.65-2.92,1.36-2.38-.16-5,.75-7.2a7.88,7.88,0,0,0-.09-7.23,1.1,1.1,0,0,1,0-1c1.46-1.69,1-3.71.94-5.6,0-1.43.7-3.16-.54-4.23-1.4-1.19,1.6-2.62-.42-3.53.48-1.76-.79-2.67-1.74-3.8a3.06,3.06,0,0,1-.24-1.87,2.58,2.58,0,0,0-.84-2.17,9,9,0,0,1-2.26-4.57c-.31-1.3-1-3-2.06-3.54-2.59-1.32-4.22-3.57-6.23-5.44a9.15,9.15,0,0,0-3.66-2c-1.52-.47-3.24.25-4.84-.42s-2.78.4-4.09.88c-.48.18-1,.44-1-.09-.05-1.84-.52-.77-1.53-.62-3,.44-2.94,4-5.51,4.67.14,1.48-1.67,2.45-1,4.09.27.69-.34,1.15-.7,1.7-.86,1.28-1.24,2.8-2,4.16-.66,1.1-2,2.47-1.18,3.94s-2,2.77-.11,4.18c-1.58,1.08-1,2.75-.87,4.1.19,1.74-1.94,3.26-1,4.5,1.27,1.6-.64,2.5-.15,3.78.26.71-.14,1.61.68,2.23.62.48.59,1.56,0,1.61-2.11.17-1.89,1.72-1.56,2.79a5.21,5.21,0,0,1-.84,4.91,4.94,4.94,0,0,0-1.22,2.46c-.12,4.91-3.29,8.64-4.87,13-.5,1.35-2.27.57-2.31,2.53a10.38,10.38,0,0,1-2.75,6.32,16.11,16.11,0,0,0-2.95,5.73,11.74,11.74,0,0,1-1.41,3.46c-1,1.51-1.38,3.42-2.68,4.88-.63.7,1.17,1.74.67,1.81-1.58.2-1.48,2-2.5,2.28s-1.44.29-.51,1.36a2,2,0,0,1-.16,2.67c-2.5-2.33-1.08,1.94-2.47,1.47.09,2-2.44,2.48-2.51,4.47a6.13,6.13,0,0,1-2.6,4.3c-1.82,1.54-1.54,4.16-3.3,5.67-1.28,1.09-.89,3.29-2.62,4.13-2,1-1.65,3.1-2.33,4.72a14.62,14.62,0,0,0-.77,1.69c-.31,1.08-2.54,1.5-1.07,3.22a13.66,13.66,0,0,0-2.63,3.91c-.56,1.31-.86,2.65-1.94,3.72-.26.25-.36,1.16-.19,1.27,1.73,1.19.26,2.13,0,3.27-.35,1.35-.29,2.71-.92,4.13s-3.84,2.4-1.24,4.66c-2.18,1.13-.79,3.84-2.26,5.22-1.18,1.11-2,2-.14,3.21.61.38.28.72-.08,1.06a6,6,0,0,0-1.37,1.43c-.19.4,1.45.66.51,1.36-1.55,1.16-1.74,2.65-1.58,4.37.1,1.14-.34,2.7.26,3.35,2.18,2.39-2.2.67-1.32,2.35.57,1.1-.42,2.68.39,3.83a3.33,3.33,0,0,1,0,4.43c-.49.61-.11,1.1,0,1.73a4.17,4.17,0,0,1-.22,3.55c-1.05,1.61,1.39,2.84.89,4.52a4.34,4.34,0,0,1-.36.86,6.93,6.93,0,0,0-.16,6c.21.59.87,1.3.36,1.68-1.52,1.12,1.65,3.07-.79,3.87A5.88,5.88,0,0,0,397,671c-1.54,1.56.36,3.06.07,4.68-.32,1.78,0,3.66-.1,5.49-.13,1.65.6,2,2,1.83.87-.08,1.17.24.48,1s-2,1.27-1.41,2.36c2,3.67,2.25,8.09,5.15,11.4.77.89,2.52,2.08.85,3.85-.33.35.06,1,.84,1.39,2.58,1.28,4.68,3.05,4.1,6.41-.17,1,.46,1.5,1.05,2.07a5.62,5.62,0,0,1,1.95,4.19c0,.51.07,1.21.53,1.23,2.75.09,3.35,2.14,4.16,4.16a3,3,0,0,0,1.74,1.71c1.71.32,1.93,1.91,2.86,2.7a19.76,19.76,0,0,1,4.47,5.65c.62,1.12,2.62,1.48,2.92,2.21,1.16,2.74,3.3,4.39,5.39,6.19a2.26,2.26,0,0,1,1,1.6c.11,1.33,2.19,1.55,2,3.17,3.57,1.8,5.42,5.7,8.83,7.48,1.33.7.91,1.84,1.85,2.48s2.73.59,3.12,2,1.06,2.69,2.8,2.75c.94,0-.39,2.44,1.4,1.36,1.22-.74,1.26.52,1.76.87.8.57,1.36,1.49,2.16,2.06,1,.72,2.42,1,3.1,2.15s2.17,1.31,3.11,2.13,1.8,2,2.87,2.77,2.28,1,3.33,1.6.59,2.59,2.61,2c2.35-.68-1.31,2.27,1.17,2.05,1.3-.11,1.95,1.61,2.92,2.47,1.36,1.23,2.4,3.1,4,3.73s1.94,2.47,3.67,3c1.43.46,2.07,2.37,3.44,3.44,3.16,2.47,6.55,4.87,8.14,8.89a2.67,2.67,0,0,0,2.39,1.43c1.27.13,2.46-1.3,3.32-.51,1.63,1.49,2.2-1.16,3.44-.58,1-1.59,2.43.11,3.61-.45.16-.08,1.13.75,1.64.25.91-.87,2.52-1.72,3.07-1.38,1.61,1,2.47-1.46,3.88-.52.11.08.89-.81,1-.74,4,2.87,7.94-2.14,11.92-.16,1.06-1.67,2.1-1,3.2,0a1.06,1.06,0,0,0,.89-.1c.85-3.19,2.59-1.77,4.27-.9a.92.92,0,0,0,.86-.23c.7-1,2.22-.58,2.79-1.73,1.07,2,2.23,0,3.16-.15,2.58-.41,4.88-2.08,7.69-1.92.65,0,1.16-.87,2.07-1,1.06-.19,1.52-2.44,3.21-1,1.13-1.51,2.75-.66,4.15-.84,1.06-.14,2.43.39,2.32-1.58,0-.47,1-.65,1.22-.41,1.17,1.45,1.9.46,2.54-.43.83-1.15,1.23.5,1.77.22,1.11-.57,1.9-1.75,3.5-1.23s1.78-2.22,3.5-1.59,2.68-.83,4-1.26c.7-.23,1.32-.9,2.18-.73,3.09.6,5-2.85,8-2.35,1.06-1.53,2.82-1.29,4.23-1.86s2.79-.4,4-1.3a54.51,54.51,0,0,1,13.06-7.08c2-.81,3.45-2.77,5.82-2.84.75-2.6,3.35-3,5.24-4.09a17.4,17.4,0,0,0,4.44-3.66c.65-.75.76-1.76,2.07-2.13,1-.28,1.73-1.5,2.49-2.38s1.72-1.34,1.93-2.72,2,1.41,2.3-.52c.39-2.38,3.19-2.44,4.06-4.74.8-2.14,3.33-3.62,5.09-5.38.48-.48,1.15-.86,1.39-1.43,1.33-3.2,3.89-5.44,5.91-8.09,1-1.37,3-2,3.27-4,0-.46,1.24-.58.4-1.42-1.71-1.71-3.59-3.56-5.88-3.83-1.92-.23-3.51-1.4-5.57-1.27-1.8.12-3.16-2.44-5.14-1.82-2.48.77-3.36-1.62-5.18-2.11a29.27,29.27,0,0,1-8.73-4.31c-1.29-.87-2.42-2.33-3.9-2.53a13.73,13.73,0,0,1-3.06-1.14,20.56,20.56,0,0,1-2.93-1.38c-1.09-.61-3-.89-3-2.11,0-2.52-1.32-.45-1.89-.76-1.11-.6-1-2-1.77-2.76a4.79,4.79,0,0,0-1.11-1c-3.25-1.7-6.36-3.53-8-7.1-.42-.91-4.19-3.55-5.28-3.87-.51-.14-1-.23-1.07-.75-.44-2.15-2.66-2.84-3.65-4.49-.62-1-2.89-.32-2.38-2.43.42-1.74-2.47-1.13-2.25-3,0-.43-.8-1.25-.74-2.13.08-1.29.4-1.31,1.31-.46a1.2,1.2,0,0,0,2-.59c.54-1.65,2.16-2,3.19-3.09,1.27-1.28,2-3.17,3.82-3.83s2.47-3,4.58-3.21c.54,0,1-.17,1.11-.68.36-1.79,1.7-2.52,3.1-3.4s2.25-2.16,3.67-3c1.75-1,3.81-2.33,4.63-4,1-2.13,2.65-3,4.45-3.84.61-.29,1.12-.28,1.2-1.14.12-1.44,2-.67,2.47-1.88a5,5,0,0,1,2.14-3,8.23,8.23,0,0,0,4.2-4.65c.45-1.55,2.57-2,2.12-3.62-.6-2.19,2.4-1.49,2.48-3.48,0-1.1,1.88-2.21,3-3.17s1.42-2.09,2.15-3.11-.25-2.78,1.36-3.44c-.84-2,2.89-1,2.07-3.07,2.14-2,3.47-4.53,4.88-7s4.28-4,4.31-7.21c3.35-1.52,2.92-6.33,6.59-7.59a35.12,35.12,0,0,1,7.81-9.75c.88-.81,1.16-2.56,1.76-2.65,1.54-.21,1.61-1.35,2-2.22.62-1.42,1.6-1.71,3-2.26,2-.76,4.72-1.58,4.67-4.83a2,2,0,0,1,2.34-2c2.7.2,4.48-1.38,6.21-3.12,1.93-1.93,3.64-4.18,6.48-4.86.74-.18,1-.77,1.52-1.16,1.15-.9,1.9-2.9,3.3-2.75,2.68.28,1.82-1.6,2.26-2.77.22-.59.88-.27,1.34-.36.78-.14,1.64.36,2.35-.35,1.71-1.72,3.78-3.09,5.48-4.72,2.4-2.3,3.35-6,6.65-7.59.82-2.71,3.18-4.27,5.19-5.73a7.3,7.3,0,0,0,2.52-3,8.07,8.07,0,0,1,2.63-3.38c2.61-2.06,4.16-4.88,5.57-7.72s3.38-5.63,4.53-8.62S738.47,511.06,738.14,507.44Zm-220.86-55.7c.56.54.9,1.1,0,1.4-2.1.74-3.16,3.4-4.92,3.65-2.31.33.32,2-1.13,2.27a10.13,10.13,0,0,0-3.33,1.56c-1.26.8-2.57.22-3.85.36s-1.57,1.12-2.26,1.75a8.45,8.45,0,0,0-1.12,1.85A7.21,7.21,0,0,1,500,463c-.08-.8-.13-1-1.07-.56-2.7,1.33-2.94,1.25-5.45.53-.45-.13-1.26.22-1.31-.37-.17-2.21-3.07-2.7-3.11-4.69s.64-4.12,2.93-4.92a2.69,2.69,0,0,0,2-1.92c.33-1.53,1.07-1.41,2-.62.45.39.72.45,1.07,0,.9-1.21,1.78-1.88,2.85-.12.4.66,1,.9,1.1-.23s.88-1.44,1.6-.94,1.59,1.28,2.12.76c2-1.88,4.71-.13,6.83-1.77a5.7,5.7,0,0,1,4-1.26c2.78.27,3,.19,1.88,3.13C517.16,450.68,516.74,451.22,517.28,451.74Zm127.84,86.89c-.55.36.09,2.35-1.8,2.65-.6.1,1.31,1.32-.11,2.07a8.59,8.59,0,0,0-1.79,1.73,9.43,9.43,0,0,0-2,2.15c-.33.7.7,1.68-.5,2.5-.86.59-2,1.25-1.9,2.69,0,.13-.4.29-.62.43A5.3,5.3,0,0,1,636,552c-.16-.61.25-1.27-.35-1.86s-1.25-1.49-2.17-.17c-.49.7-1.11,1.88-1.62-.28a4.36,4.36,0,0,0-3.16-2.77c-.6-.16-2.5-.71-.91-2.3.31-.31-.46-.47-.86-.64-1.42-.65-3-1.15-4-2.48a1.91,1.91,0,0,0-.79-.48c-1.1-.48-2.07,2.57-3.1.25a3.43,3.43,0,0,0-2.14-2.29c-1.54-.53-2.54-3-4.67-1.21-.53-1.67-3.58.42-3.55-2.42,0-.44-1.79-1.08-2.82-1.29-1.3-.28-3.1.55-3.2-1.82,0-.09-.74-.32-.85-.21-1.54,1.55-1.54-.47-2.29-.8-1-.43-1.43-.71-1.74-1.8s-1.31,1.37-2.09-.12c-.32-.61-1.37-.52-2.07-1s-1.88-.22-2.85-.3-.91-.14-2-2.59c-.38-.89-1.17-1.8-2.5-.59-.33.29-.84-2.07-2.4-1.27-1.26.64-1.54-.74-2.07-1.28-.89-.92-1.52-1.25-2.63-.32-.36.3-2.51-1.05-4.29-2.54-1-.86-2.35-.29-3.55-1.24s-1.75-.58-1.08-2c2.11-4.45,5.14-8.28,8.16-12.11a77.26,77.26,0,0,1,6-6.92c1-1-.17-2.73,1-3s1.62-.71,1.55-1.89a1.82,1.82,0,0,1,.51-1.26c2.93-2.78,4.4-6.51,6.37-9.89a13.28,13.28,0,0,1,2.12-2.59,6.29,6.29,0,0,0,1.85-3.7c.09-1.84,1.49-2.95,1.79-4.27.39-1.66,2.43-1.1,2.29-2.48s.9-2,1.32-3c.75-1.75,3.06-2,3.42-3.47.47-1.86,2.58-2.44,2.66-4.44.07-1.74,2.6-1.92,2.73-3.77,3.07-1.37,3.46-5.14,6-6.88,2.26-1.56,3.33-3.88,4.9-5.91s4.33-3.51,5.45-5.77c1.56-3.15,4-5.63,5.64-8.65a98.36,98.36,0,0,1,6.19-8.95c1.74-2.45,3.49-4.9,5.32-7.28.49-.63.29-1.23.43-1.84,1-4.43,4.28-7.52,6.67-11.13,1.66-.14,1.52-2.6,3.32-2.56-.63-1.93,2.73-1.11,2.1-3,2.1.11,3.28-1.76,5-2.35.77-.26,1.18-.94,2-1.15s1.76-1.3,2.72-1.86c.37-.22,1,.09,1.47-.07,1.08-.38,2.1,1.86,3.17.06,1,1.13,2.62,1.11,3.63,2a7.14,7.14,0,0,1,1.78,3.06,10.19,10.19,0,0,1,.06,3c0,3.82-1.11,6.16-4.67,6.7a3.58,3.58,0,0,0-3.18,2.77c-.52,1.76-1,1.92-2.21.86-.58-.5-1.69-.51-1.63-.16.54,3-2.2,2.47-3.51,3.42a2.17,2.17,0,0,0-.8,2.18,2.41,2.41,0,0,1-1,2.6c-1.11.69-.88,1.36-.08,2.19.24.25,0,1.34-.38,1.22-2.53-.75.13,2.11-1.65,2.24-1.44.1-1.34,2.25-2.56,3.13s.32,2.7-.79,3.61c-1.46,1.2,1.14,3-1.06,4.36-1.32.78,0,3.21-.6,4.64a9.21,9.21,0,0,0-.87,5.11c.24,1.47-1.17,2.22-1.1,3.6.06,1.09.59,2.42-.37,3.31-1.27,1.16,1.38,1.71.28,2.81-.68.68-1.76,1.14-1.83,2.22-.12,1.65-3.68,2.46-1.14,4.71-1.21.53-1,1.92-1.69,2.83-1.61,2.07-3.31,4.24-3.2,7.15a1.64,1.64,0,0,1-.4,1.34c-2.7,2.82-3.36,6.59-4.6,10.09-3.45,2.4-3.45,7-6.33,9.77-.66.63-.48.87,0,1.47s.59,1.77-.59,1.68c-2.06-.16-2.78,1.49-4,2.47,2.33,2.09-1.14,1.23-1.08,2.13a3.52,3.52,0,0,1-1,3.1,7.27,7.27,0,0,0-1.88,3.18c-.25.91-1,1.27-1.3,2s-2.6-.73-1.18,1.45c.79,1.2-1.68.26-1.58,1.4.14,1.68-1,1.38-2,1.34-.59,0-1.16.35-1,.73.88,2.32-2.22,2.15-2.36,4s-2.31,2.24-3.38,3.48a29.14,29.14,0,0,0-3.59,5.51c-.38.72-1.23,1.31-.38,2a2.19,2.19,0,0,0,1.85.21c2.68-1,5.76-1.87,6.66-4.85.44-1.45,2.92-.59,2.15-2.54s2.28-1,2-2.59c-.14-.82.6-1.28,1.08-1.51,3.38-1.59,4.89-4.86,6.48-7.79.74-1.35,2.68-1.62,2.65-3.89,0-1.52,2-3.05,3.09-4.62s1.58-3.13,2.75-4.33,2.38-2.22,2.9-3.74,2.87-2.45,2.08-4.64c2-1.83,3.28-3.95,3-6.78,1.88-.76,1.6-2.54,2.21-4a33.91,33.91,0,0,1,2.31-4.53c.79-1.28,1.06-2.65,1.66-3.82.75-1.45-.29-3.86,2.38-4.55,1.06-.27-.13-2.48.52-3.13a7.26,7.26,0,0,0,2-5.24c.08-1.68,1.25-3.25.91-5.1-.2-1.1.47-1.26,1.45-1.39.66-.09.82-1.07.33-1.59-1.27-1.37-.89-2.4.05-3.86.53-.83,1.42-2.16.24-3.64-.9-1.13,1.08-2.13,1-3.53-.15-1.91,1.18-6.89,2.39-8.13,1-1,.15-2.18,1-3.15,1.8-2.16,1.51-5.59,4.28-7.21-.71-3,3.66-2.8,3.49-5.47,0-.11.22-.23.34-.34,2.52,3,3.35-1.1,5.13-1.44a8.92,8.92,0,0,0,5.24-2.93c.18-.23.63-.57.67-.53a6.89,6.89,0,0,0,4.23,1.93c1.87.1,2.33,1.44,2.24,3.12,0,.82,1.05,1.1,1.05,2.09,0,.72,1.15,1.15.11,2.3a2.79,2.79,0,0,0,.48,3.59c.5.41.46,1.23.31,1.31-1.89,1.05.79,2.28-.12,3.14-1.1,1.06-.9,1.68,0,2.86s-1.75,2.37-.82,4c-2.27,2.53-1.3,6.07-2.76,8.86-.34.65.28.66.74.72.3,0,.71.13.84.34.56.93-.28,1.4-.67,2.08a3.84,3.84,0,0,0-.14,1.93c0,.61,1.64.92.33,1.82-.41.28-1.05.73-1,1,.41,3.8-2.7,6.76-2.37,10.57.27,3.08-.18,6.08-2.62,8.4a1.08,1.08,0,0,0,0,1.7c.29.3.91.79.16,1-3.11,1-2.27,4.47-4.13,6.26-.57.55.59,1.53-.28,2.59-.49.6-.61,2-1.06,3-.35.83-.47,1.77-.79,2.67s-1,1.91-1.38,2.94a41.28,41.28,0,0,1-3.81,7.89,12.77,12.77,0,0,1-1.67,2.83c-1,.92.29,2.82-1.43,3.4s.33,1.86-.48,2.47c-1.11.82.15,2.35-1,3.08-1.73,1-1.49,2.76-1.46,4.39,0,1.15,0,2.12-1.41.75-.27-.26-.57.44-.6.92-.11,1.58-.6,1.4-1.84,4.65-1,2.72-2.72,4.88-4.08,7.32a38.82,38.82,0,0,0-3,7.74c-.43,1.43-1.63,2-2.4,3a10.92,10.92,0,0,1-1.76,1.77c-.78.63-1,1.17,0,1.78-.15.21-.37.63-.45.61C644.86,533.82,646.61,537.67,645.12,538.63Zm-191.39-41.7c2-1-.63-2.88,1.12-3.34-.17-.68-1-.68-.59-1.36.68-1.21,2.21-2.54,1.61-3.71-.81-1.59,2.08-2.46.34-3.82a.35.35,0,0,1,0-.34,21.69,21.69,0,0,0,3.2-7.18,1.61,1.61,0,0,1,1-1c.51-.11.54.49.62,1,.15.91,1.1,1.44,1,2.59a13,13,0,0,0,.86,6.61c.52,1.09.06,2.63.1,4s-.4,3.31.31,4.32c1.08,1.52-1,2.14-.38,3.37a2.09,2.09,0,0,1-.58,2.22,75.76,75.76,0,0,1-8.37,8.34c-.34.28-.54.49-.71.22a3.23,3.23,0,0,1-.28-.88c-.27-1.09.43-1.8,1-2.59s-1.55-1.31-.44-2.35c.79-.74.31-1.3-.11-2.09C452.76,499.57,452.29,497.66,453.73,496.93Z"/><path d="M504.24,596c-.81,0-1.87-.6-2.3,1-.57,2.07-2.41,3.75-2,6.19a2.18,2.18,0,0,1-.45,1.81c-.65.85-1.47,1.91-1.43,2.85.06,1.62-1,2.28-1.75,3.33-.58.83,1.1,1.38.32,2.81a32.81,32.81,0,0,0-2.62,7.89c-.41,1.63-.76.62-1.42.29-.49-.25-.86.59-.6.83,1.76,1.62.16,3.17-.07,4.7a13.11,13.11,0,0,1-1.24,4c-.63,1.2-1.46,2.79-2.56,3.16-1.8.6.57,2.6-1.34,2.83a1.92,1.92,0,0,0-1.84,2.64c.28,1.26-.29,1.85-1.61,1.67-.49-.07-1.12-.1-1.3.44-1.12,3.34-4.38,4.8-6.39,7.35-.85,1.08-.76,2.14.4,2.78,1.94,1.07,5.22.63,5.76-1.4.63-2.36,2.58-.43,3.54-1.85s-.23-3.48,1-4c2.89-1.32,3.73-4,5.41-6.18s2-5.08,4.19-6.88a3.9,3.9,0,0,0,1-2.53c.41-5.23,2.88-9.88,4.73-14.55,2-5.16,1.93-10.49,3.31-14.71,0-1.58,0-2.25,0-2.91S505.15,596,504.24,596Z"/><path d="M689.34,541.81c.89.76.5,2.4,1.76,2.74,2,.55-1.23,2.36.79,3,.31.09,0,1.62,1.28,1.49a2.44,2.44,0,0,0,2.79-2.54c0-1.11.34-2.24-.3-3.36-.42-.72-2.28-.77-.89-2.52s-1.65-1.3-1.6-2c.3-3.48-3.18-2.86-4.59-4.45-.44-.49-1.14-.07-1.68.42-.72.64-.4,1-.17,1.82C687.29,538.39,687.69,540.39,689.34,541.81Z"/><path d="M684.07,551.29c-.09.37.72,1.33,1.18,1.38,1,.11,1.6,1.47,2.73.84S689,552,689,551c.08-1.38-1.45-2.75,0-4.14a6.84,6.84,0,0,0-.41-1.8c-1-2.15-2.72-3.55-4.26-5.17-.57-.6-1.19-1.3-2-.63-.58.48-1.43.9-1.33,1.91a18.27,18.27,0,0,0,.35,1.82C682,545.81,684.88,547.93,684.07,551.29Z"/><path d="M615.19,459.63a33.49,33.49,0,0,0,3.72,1.78c.86.4,2.46-.45,2.44,1.44,1.1-1.44,2.23,0,3,.27a7.57,7.57,0,0,1,2.84,2.66c.95,1.25,2.15,1.32,3.79,1.18.44-.14,1.59.47,1.9-.46a2.29,2.29,0,0,0-.56-2.69c-1.59-1.28-2.07-3.64-4.76-4-1-.13-2.45-1.49-3.58-2-1.82-.88-3.88-3.11-6.36-1a1.32,1.32,0,0,1-1.28,0c-1.12-1.45-1.67-.06-2.11.5C613.39,458.42,614.46,459.16,615.19,459.63Z"/><path d="M651.67,481.28c1,1.65,2.82,2.59,3.3,4.5.17.67.18,1.38,1.07,1.2,1.39-.28,2.11.61,2.9,1.45.18.19.48.44.69.41.69-.1,2.41-2.69,2.37-3.47,0-.32.07-.8-.1-.93-1.84-1.4-2.53-3.85-4.26-5.15a40.22,40.22,0,0,0-7.66-4.24c-1.46-.66-2.57.91-3.84,1.42-.4.16-.28,1.29.49,1.51C648.68,478.56,650.62,479.48,651.67,481.28Z"/><path d="M612.34,467.77a10,10,0,0,0,3,1.2c.6.18.84-1.54,1.84-.38.6.68,1.73.54,2.41,1.4a5.7,5.7,0,0,0,5.1,2c1.2.21,2.1-.73,3.08-.9,2.35-.41.37-1.06.3-1.68-.37-3.4-3.82-2.88-5.57-4.49-.63-.58-1.1-1.18-1.77-.12-.92-1.05-2.64-.33-3.32-1.09-1.26-1.42-2,1-3.25.06-.93-.71-3.17.67-2.81.92C612.56,465.54,611.41,467.1,612.34,467.77Z"/><path d="M654.27,473.61a8.4,8.4,0,0,0,3.39,1.46c1.52.19,3.86.92,3.9,2.17.12,3.16,2.86,3.53,4.35,5.17.32.34.84.79,1,.11.34-1.35-.49-3,1-4-1.42-1.51-3.38-2.68-3.22-5.18a1.2,1.2,0,0,0-.83-.27,3.71,3.71,0,0,1-3.42-1.25c-1.59-1.68-3.27-2-6.22-1.56-.13,0-1.84-.91-2,.4C652.11,471.53,653.29,473,654.27,473.61Z"/><path d="M394.89,301c1.56-.37,3.5.66,5.07-.56.92-.71,1,.27,1.45.42s.6,1.48,1.39.77c2.1-1.9,3.71,0,5.07.9s2.33,1.55,3.93,1.47a9.08,9.08,0,0,1,8.07,3.38,9.61,9.61,0,0,0,4,2.52c1.14.51,2,1,2.18,2.25.06.33.11,1.22.81.47.9-1,1.58-.78,2.44.08a27.24,27.24,0,0,1,2.21,3.07c.52.68,2.15-.07,3,1.11s2.61,1.37,3.21,3.12a3.82,3.82,0,0,0,3,2.2c1.39.25,1.09,2,2.22,2.82,5.82,4.13,11.6,8.32,17.38,12.49,1.89,1.37,4,3,6.53,3.48.44.08,1,.24,1.23.56,1.62,2.67,5.46,2.15,7,4.91.17.31.82.47,1.26.49,1.78.08,3.32.12,5,1.49,1.1.92,3.92,2,5-1.15.08-.23.88-.18,1.33-.33,1.38-.47,3.07-.52,3.43-2.44,1.23.28,1.9-2.38,3.47-.64.23.25,1.16.31,1.28-.21.8-3.38,2.7-1.52,3-.25.52,2.12,1.09.92,2,.6a9.27,9.27,0,0,1,2.48-.06c1.53-.06,2.69.57,2.69,2.14s1.8,2.82.18,4.77c-1.13,1.37.53,3.29,1.21,4.85.29.66,1-1.47,1.63-.17.25.53.17,1,.85,1.48,1.91,1.37,1.45,2,1.42,4.31-.06,5.69-4.53,6.85-8.32,8.51-1.4.62-3.3.82-4.11,2-1.45,2.08-4.19,1.59-5.65,3.45s-4,1.59-5.92,2.59c-2.69,1.39-5.7.76-8.34-.57-2.41-1.22-4.24,1-6.44.75-.12,0-.38.49-.44.78-.55,3-3.25,4.57-4.62,7.07a5.56,5.56,0,0,1-4.63,3.22c-1.32.07-2.63,1.53-4.18,1.84-1.73.35-.85,3.33-3.14,3.07-.48,1.47-1.05,2.92-1.42,4.41s.88,2.19,1.75,2.73c4.67,2.84,6.62,8.09,10.51,11.6,2.66,2.39,4.92,5.17,8,7.13,2.37,1.49,2.28,2.39.49,4.75-.87,1.13-1.32,3-3.45,2.32-1-.3-1.33.85-2.08,1-.94.16-1.76.16-.55,1.25,3.38,3.08,4.76,7.27,6.28,11.39.62,1.66,2.38,2.46,3,4.16.79,2,1.12,2.1,2.92,3.71a5.32,5.32,0,0,1,2.18,3.63,3.25,3.25,0,0,0,2.72,3.24c0,1.51,1.29,2.17,2.12,3.12-1.62,1.17-.17,1.78.49,2.47.51.53.78,1.11.34,1.7s-1,.38-1.7,0A21.6,21.6,0,0,1,478,452.5c-1-2.12-3.29-3.52-3.18-6.18-2.57-1.27-3.52-3.61-4.24-6.17a2.11,2.11,0,0,0-1.48-1.1c-1.65-.27-.63-.72-.31-1.41a2.15,2.15,0,0,0-.34-2.68c-.34-.31-.7-.57-1.06-.85a2.7,2.7,0,0,0-.37.84,18.77,18.77,0,0,1,0,2c-.41,1.92-1.73,2.33-3.42,1.13-.51-.37-.71-1.16-1.56-1.07-3.09.32-5.13-1.48-7-3.53-.52-.56-1.25-.78-1.66-.2-.52.73.62.86.85,1.38s1,.76.6,1c-2.69,1.57-.76,2.65.21,4,.81,1.14.62,2.74,2.5,3.47,1.54.61,2.4,2.57,2.47,4.35s.12,3,2.35,2.54c.19,0,.6.3.69.55.41,1.11-.84,3,.9,3.33,2.29.46.34,2.68,1.89,3.5,1,.53,1.62,1.92,2.13,3a38.23,38.23,0,0,1,1.45,4.39c2.06-.21,1.49,2.17,2.76,2.8a1.84,1.84,0,0,1,.89,2.11c-.11.76.35,1.68-.55,2.23-.6.36-3-.24-3.45-.83-1.79-2.57-4.15-4.92-4.85-8-.37-1.6-2.13-.65-2.18-2.05a8.28,8.28,0,0,0-.47-3.3c-1.57-3.56-4.47-6.39-5.5-10.22-.28-1.07-2.24-.17-2.15-2.09,0-.92-1.33-2.09-2.71-.29-1,1.32-2.78-.27-2.93-.71-.87-2.63-3.94-3.83-4.24-6.76,0-.31-.12-1.17-.84-.42-.34.37-.95.67-1,1.07-.46,2.82-1.09,4.91-1.92,5.88s-1.48.83-2.22-.11c-.87-1.11-.25-3.26-2.61-3.44-.81-.06.16-.69.37-.94.38-.46.43-1.17.18-1.34-2.24-1.55-2-4.63-4.14-6.37-1.59-1.28-1.29-3.83-1.6-5.73-.33-2.07-.7-3.76-2.35-5.08-.35-.29-.87-.9-.77-1.13.61-1.46,1.67-3.5-.45-3.88-2.46-.44-1-2.37-2-3.24-1.82-1.63-3.3-4.05-6.35-2.1a1.9,1.9,0,0,1-1.85-.17c-1.26-1.39-2.82-.51-4.21-.78-1.72-.33-2.5.26-2.2,2.12.16,1,.24,2-1.38,2-.41,0-2.51.93-.68,2.3-1,1-1.6,2.37-3.25,2.63-.8.12-.78.9-.56,1.55.16.47,1.38.76.36,1.36a1,1,0,0,1-1.47-.75c-.12-.62.07-2-1-.34-.93,1.43-1.74,1.6-3.35,1.23-2.18-.51-4.12,0-5.06,2-1,2.15-2.77,3.57-4.32,5.2-1.24,1.33-2.48,2.88-4.46,1-2.06.67-4.12,1.55-6.13-.12-.06,0-.25,0-.35.06-1.09.6-1,2-1.8,2.72s-2.44-.81-2.55,1.33a2,2,0,0,1-1.2,1.43c-1.34.45-3.41.27-3.62,1.84-.26,2-2.47,1.3-2.94,2.74-.06.17-.47,1.18-1,.38-1.38-2.11-2.17-.63-3.63.06-1.64.77-3.89.29-5.87.26-.5,0-.78-.52-.68-1.09.26-1.53-.41-2.1-1.91-1.89-1.25.18-1.93-.09-2.32-1.61-.47-1.82-2.92-3.19-1.15-5.49.73-.95-.37-1.13-.69-1.38a2.41,2.41,0,0,1-.91-2.63c1-3.68,1.39-7.44,2-11.18,2.74-1.51,1.2-5.27,3.68-7,.52-.37.23-1.85.32-2.81.13-1.28,2.64-.53,2.08-2.61-.26-1-.59-2.29.43-3.27a2.71,2.71,0,0,0,.39-3.18c-1.46-1.31-.06-2.57-.37-3.6-.4-1.33-.93-2.35.23-3.46-2-2.78.12-6.13-1.47-9.2a8.78,8.78,0,0,1,.09-7.2c.69-1.43-1.87-3,.56-3.9-1.61-1.25.56-2.35.14-3.72s.21-3.19-1-4.6c-.33-.38.05-1.31-.07-1.95-.34-1.87.94-4-.93-5.62.46-1.55,1.07-2.94.05-4.7-.82-1.41.42-3.2.38-4.83,0-1.27.85-2.6-.17-3.83,1.63-1.22-.33-3.71,1.69-4.8-.37-1.68.79-3.1.89-4.59.19-2.63,2.13-4.2,3.24-6.17,1.53-2.7,2.19-6,4.78-8-.35-2.2,2.26-1.42,2.78-2.77a16,16,0,0,1,1.45-3.38c.74-1.09,2.28-.23,3.47-1.34a20.33,20.33,0,0,1,7.13-4.37C384.3,303.16,390.54,300.3,394.89,301ZM484,373c2.84.18,5.68-.25,7.57-2.22,1.38-1.45,3.23-1.36,4.53-2.42a12.66,12.66,0,0,1,5-2.47c1.88-.51,3.93-1.2,5-3.4,1-1.88,1-3.11-1.17-3.37-2.33-.28-3.25-2.47-5.29-3-1-.25-.69-1.38-.65-2.18.06-1.06.47-.89,1.12-.32,1.46,1.31,1.9-.46,2.75-1-1.41-.79-.33-2.56-1.22-3.36s-2.31-1.48-2.89-1.15c-2.2,1.26-4.84,1.22-6.93,2.59-.76.49-1.3,1.2.29,1.3a.81.81,0,0,1,.87.92c-.05,1.19-1.71,1.9-2.86,2.18-1.65.4-3.13-1.76-4.69-.1-1.55-.67-3.07-1.74-4.68-1.91-2.81-.29-4.86-2-7.23-3.11-3.35-1.56-6.63-3.29-10-4.89-2.3-1.11-3.87-3.17-6.19-4.33a63.88,63.88,0,0,1-8.31-5.26c-1.21-.84-2-2.43-3.25-3a8.87,8.87,0,0,1-3.39-2.6c-.95-1.27-2.74-1.48-3.43-3-.61-1.32-2.86-1-2.95-2.67-.14-2.51-2.44-.51-3.42-1.89-1.42-2-2.64-4.83-6.05-4.36-.43.05-.45-.71-.62-1.15a3.08,3.08,0,0,0-2-1.86,5.51,5.51,0,0,1-3.64-3.11,1.29,1.29,0,0,0-1-.66c-3.19-.61-3.18-.66-4.55-1.94-.42-.39-1-1.4-1.35-1-1.84,1.9-2.48-.14-3.53-.89A1.46,1.46,0,0,0,409,307c-2.06.27-3.67-.7-5.28-1.77-.33-.22-1.13-.29-1.3-.09-1.33,1.62-2.25.64-3.15-.41-.48-.56-.89-.92-1.42-.09,0,0-5,1.32-5.11,1.34-1.7.34-3.64-.78-5.16.86-.19.2-1,.1-1.3-.14-1.46-1.13-2.3-1.2-2.29,1,0,1.44-.76,1.74-1.84.89-2.08-1.66-3.3,1.28-5.13.87,1.64,1.17.06,1.69-.45,2.48-.78,1.19-1.93,1-3.08,1.08a.38.38,0,0,0-.25.67c1.52,1.18-.2,2-.59,2-3.57.71-4.61,3.67-6.3,6.27-2.23,3.42-3.39,7.29-5.33,10.81a7.32,7.32,0,0,0-1.05,4.08c.12,1.92.5,4-1.64,5.32-.63.38-.51,1.19.1,1.66.81.63.53,1.48.58,2.27.08,1.38-.7,2.63-.12,4.21s0,3.29.15,4.95c.09,1.4-.67,3,.91,4.11-.41,2.94,1.4,6.31-1.65,8.76-.33.27-.28.42.11.72,1.15.89.79,2.29.5,3.21-.39,1.23,1.69,1.94.27,3.3-1.11,1.07.65,2,1,2.93.57,1.59-1.36,2.41-.4,4.34s.59,4.62,1.13,7c.32,1.41.84,3.28-.68,4.66a1.35,1.35,0,0,0,0,1.28c1.34,1,.31,2.63.88,3.65.69,1.27-1.84,1.66-.45,2.88,1.64,1.44-1.43,2-.74,3.42.09.17-.75,1-.74,1,2,1.67-.37,2.38-.62,3.54-.38,1.77-2.54,2.34-2.47,4,.15,3.29-2.94,5.77-2.11,9.18.07.29-.62.71-.82,1.13-1.22,2.63-1.28,2.77-.08,5.09.35.69,1.19,1.15.95,2.11-.38,1.51.54,2.38,1.43,3.42,1.16,1.35,2.08,1.17,3.16.08,2,2.59,3.79-.76,5.72-.12.14,0,.62-.46.59-.52-.2-.39-.8-.94-.73-1a1,1,0,0,1,1.65-.07,1.39,1.39,0,0,0,2.09.3c1.43-.93,3.41-1.26,3.1-3.66-.13-1,.63-1,1.29-1,1.25.15,1.66-.33,1.87-1.57A1.85,1.85,0,0,1,376,426c2.07.22,4.15-.47,6.26.59,1.57.79,3.1-.82,4.72-1.06.59-2.59,3.58-3.7,4-6.33.19-1.16.7-1.26,1.61-1.23,1.16,0,2.47.35,3.47-.06,2.12-.86,5.4.13,6-3.44a.41.41,0,0,1,.69-.27c1.74,1.56,1.34,0,1.1-.84-.18-.59-1.54-1.19.24-1.37.6-.05.76-.35,1-.86,1.71-4.44,2.62-5,8.05-5.15,1.15-1.71,3.23,1.2,4.3-.87,1.49,1.38,3.46.39,5,1,1,.38,1.36.82,2.22-.14a40.58,40.58,0,0,1,5.33-5.24c1-.77,2.28-2.35,3.65-1.51,1.21.73,1.72.86,2.89,0a3.2,3.2,0,0,1,3.27.07,5.5,5.5,0,0,0,5.44.12A20.73,20.73,0,0,0,450,396c2.29-1.87,1.79-4.91,2.95-7.27.77-1.54,2-2.47,4.37-3,2.92-.62,6.28-1.19,7.5-4.25,1.46-3.65,4.71-5.38,7.19-7.89,1-1,2.6-2.19,4.24-1.58,1.33.5,2.22,1.52,3.94.46C481,372,482.64,373.29,484,373Zm-42.18,54.29c.6,1,3,.35,2.25,2.58a6.08,6.08,0,0,0,0,2.48c.12,1.14,2.09.12,2,1.58s1.67.68,2,1.59c.16.43-.22,1.14.38,1.3s.47-.52.67-.87a7.07,7.07,0,0,0,.43-6.86,6.14,6.14,0,0,1-.43-2.81A2,2,0,0,1,451.1,424c1.32-.05.65,1.18.92,1.84,1.55,3.83,5.47,4.42,8.58,6.09.36.2,1.19.17,1.27-.38.19-1.44.49-3-.21-4.3-.23-.41-2.11-.15-2.17-.41-.51-2.6-2.72-2.73-4.55-3.48-.35-.14-.82-.75-.75-1,.12-.42.61-.76,1-1.06a1.64,1.64,0,0,1,.85-.32,20.63,20.63,0,0,0,2.49,0c1-.17,1.49,1,2,.84s1.26-1.31,2-.62a7.26,7.26,0,0,0,2.09,1c.29.13.46.61.72.65a1.72,1.72,0,0,0,1.31-.17c.27-.28.23-.89.27-1.36a1.39,1.39,0,0,0-.44-1.31c-1.08-.95-1.89-2.24-3.48-2.46.07-1.79-1.5-2.46-2.5-3.43-1.4-1.35-3.44-3.16-3.49-4.45a3.92,3.92,0,0,0-2.47-3.39,2.5,2.5,0,0,1-1.7-2.33c-.2-1.32-2.79-2.12-4-1.29-2.61,1.73-5.81,1.05-8.55,2.26a2,2,0,0,1-2.29-.38c-1.5-1.55-4,.54-5.42-1.4,0,0-.59.27-.59.43,0,1.76-1.7,2.31-2.58,3.43-.59.75-.4,1.92-1.39,2.42.43.63.7,1.43,1.05,2,.85,1.34,1.93,2.56,1.86,4.22-.09,2.18.8,3.89,1.82,5.76,1.38,2.54,3,5.28,3,8.14,0,2.54,2.49,3.32,2.7,5.44a2,2,0,0,0,.94,0c.17-.06.34-.62.3-.64-1.08-.73-.28-1.15.15-1.82.7-1.09-1.08-1.52-.92-2.54a4.09,4.09,0,0,1,.36-.84c2.23,1.64,1.47-.37,1.65-1.31C441.09,427.47,441.11,426.69,441.79,427.28Z"/><path d="M550.55,532c-.92.69.1.94.3,1.41.67,1.61-.32,3.37.95,5.14s-2.79,2.32-1.83,4.57c.09.22-4.72,3.36-5.52,4-1.4,1.19-3.2,1.19-4.78,1.78-.87.33-2.22.71-2.94-1.39-.51-1.52-2.83-2.34-3.4-4.51-.23-.87-1.94-1.45-3.07-2-.57-.25-1.19-.09-1.3-1-.16-1.37-1-3-1.43-2.93-1.19.29-1.56-1.12-2.59-1.07-2.47.11,1.46-2-.67-2-1.22,0-1.63-1-2.34-1.61-1.2-1-2.17-2.32-3.82-2.88-1-.35-1.31-1.26-.14-2.12.2-.14.23-1.14-.36-1.26-2.17-.44-2.25-2.8-3.75-4-1.28-1-2-2.77-2.84-4.25-.69-1.19-2.55-1.55-2.24-3.56a1.25,1.25,0,0,0-2.35-.45,8.27,8.27,0,0,0-3.43-2.5c-.11-2.88-4.18-3.18-4.09-6.34,0-.85-.32-3.15-2.4-1.26a2.58,2.58,0,0,1-1.52-2.09,8,8,0,0,0-.21-2.41c-.34-1.09-1.49,1.95-1.77-.26-.1-.79,0-1.52-.62-2.27-.82-.91-1.73-.78-2.7-.8-1.45,0,1.53-2.44-1.19-2.16-.65.06-2.35-1.38-2.44-2.79s-.2-2.18-1.73-2.25a7.83,7.83,0,0,1,.76-3.37c1-.7,1.4,1.2,2.4.57a7.41,7.41,0,0,0,2.11,3.13c1.24,1.11,2.19,2.91,3.6,3.38,1.7.56,1.57,2.29,2.74,2.87,1.37.67,2.42,1.25,2.13,3.1-.09.64,1.19.29,1.6.73.69.74-.8.86-.54,1.38.38.73,1.29.14,1.79.44,1.41.88,3.05,1.67,4,3,.77,1,3.06,1.41,2.1,3.51,1.11.85,1,3.31,3.37,2.51,3.22,2.73,6,5.77,6.63,10.17.17,1.11.22,1,2.56,2,.41.17,1.94.57.86,2.13-.48.69,2.33,1,2.07,2.68,2.11-1,2.14,1.69,3.57,2s1.06,2.8,2.68,2.91c2.23.16,1.23,2.28,2.23,3.2,2,1.82,2.88,4.73,6,5.39.65.14,2,1.38-.3,1.49-.2,0-.38.37-.57.56.93.35,1.89,1.07,2.76,1,1.64-.19,3-1.5,4.95-.63,1,.45,1.78-.78,2.14-1.6a7.28,7.28,0,0,0,.06-2.48c0-.78.09-.86,1.15-.16.83.54.82-.21.82-.51,0-.75.37-2.14-.57-2.08-1.93.12-1.85-1.75-1.9-2.25-.24-2.39-1.94-3.62-3.29-5.19-.82-.95-2.22-1.42-2.27-3.08,0-1-2.57-.15-1.94-2.08-1.19-.79-1.68-2.41-3.46-2.61-.48,0-2.43-1-.59-2.34-.44-.47-1.15-1.42-1.28-1.35-2.51,1.45-2.77-.32-2.61-2s-3-.71-2.18-3.13c.47-1.36-1.7-1.56-2.45-2.36-1.7-1.82-4.71-2.8-4.5-6.12,0-.45-.92-.9-1.23-1.46-.59-1.06-2.6-1.57-2.51-1.65,1.73-1.52-.38-1.83-.79-2.56s-.44-2.05-2-2.23c-.56-.06-1-1.77-1.37-2.79-.59-1.86-1.17.17-1.44,0-.63-.43-1.62-1.33-1.49-1.7.58-1.58-1.15-2.26-1.13-3.62,0-1.71-2.23,1.89-1.9-.66.18-1.35-1.37-2.06-1-3.07.67-1.79-2.82.21-1.55-1.9,1.12-1.84-1.89-.16-1.61-1.9.3-1.9-1.87-.5-2.51-1.24-.46-.53-2.14-.91-.62-2.1.25-.19,0-.75-.23-.65-2.09.76-1-2.37-3.08-2.32-1.21,0,.39-2.79-1.07-3.84-.4-.29-.48-.52-.08-.71a1.52,1.52,0,0,1,.91-.18c2.28.67,3.74,2.45,5.33,4,.68.69.4,2.12,2.06,2.19.53,0,.56,1.94,2.06,2,.46,0,1.07.82,1.3,1.39a11.79,11.79,0,0,0,6.28,6.38c.28.13.74.46.72.52-.94,2.14,1.66,2.21,2.07,3.59s1.77,2.42,2.93,3.24c1.53,1.1.51,3.16,2,4.23a4.14,4.14,0,0,1,2.09,3.65c0,1.9,1-.7,1.9.12,2,1.77,3,4.27,4.85,6.06.37.35-1.24.72-.52,1.34.56.47,1.48.38,2.07,1.06.3.35,1.52-1.92,1.58.36a2.55,2.55,0,0,0,.84,2.17c.6.51.9,1.63,1.26,1.9,2.63,2,3.92,5.33,7,6.71,1,.44,1.42,1.33,2.23,1.85,1.24.8-.17,1.19-.19,1.78,0,.23.53.43.65.71.65,1.57,1.68-.91,2.07.14.33.87-.11,2,.21,2.92.39,1.08,1.47,1.51,2.6,1.88C550.61,529.55,550.75,530.46,550.55,532Z"/><path d="M377.38,315.12l.35.11c-.78,1.8,3.19,2,1.36,4.18,1.41.67-.36,1.9.59,2.89s.1,2.35-.65,3.43a1,1,0,0,0,.13.91c2,2.51.56,4.84-.48,7.1-.33.73-1.08,1.2-.36,2.09,2.25,2.77,1.47,6.67,3.53,9.52-1.44,2.38,1.8,3.33,1.68,5.54-.08,1.51,1.76,2.9,1.62,4.76,3.46,4,2.55,9.5,4.76,13.94-1.22,1.05-1,1.36.58,1.48.61.05.78,1.08.29,1.62-1.27,1.37-1,2.51.16,3.81.79.84,2.5,1.31,1.21,3.31-.4.62.62,2.63,1.76,3.6-1.64,1.58-.33,3-.05,4.66a15.07,15.07,0,0,0,1.59,4.87c.15.27.58.67.52.75-1.81,2.46.32,4.23,1,6.28.23.72-.15,1.22-1,.51-1.09-.91-1.59.54-1.67.84-.29,1.1.79.44,1.2.7a6.24,6.24,0,0,1,1.07,1.05c.52.55.51.57-.89,1.1s-1.87,1.67-2.8,2.51a1.22,1.22,0,0,1-1.36.27,1.07,1.07,0,0,1-.29-1.66c.18-.27.71-.57.66-.69-.54-1.37-2.25-2.19-1-4.32.72-1.24.08-3.25.14-4.91s.05-3.19-1.48-4.42c-1.18-.94-.4-2.48-.5-3.75-.15-1.92.34-3.89-1.61-5.38-.89-.67,1.46-1.6.5-2.29a4.55,4.55,0,0,1-1.71-3.95c0-1.73-.91-3.08-1.38-4.49a32.25,32.25,0,0,1-.89-5.13c-.28-1.65-1.57-2.92-2.08-4.63-.58-1.95.57-4.05-.83-5.82-.25-.31.21-1.12-.37-1.31-2.39-.78-2-3.09-2.92-4.7s-.17-3-.94-4.12-1.76-2-2-3.73c-.17-1.2-.88-1.87.1-3.27,1.09-1.57-1.52-3.09-.93-5,.46-1.49,1.93-3.2.92-4.5-1.21-1.57.39-2.49.16-3.76a30.94,30.94,0,0,1-.07-4,1.31,1.31,0,0,1,.64-1.23c1.58-.94,1.38-2.46,1.4-3.94A2.35,2.35,0,0,1,377.38,315.12Z"/><path d="M395.38,313c-2.2,0-3.7,0-5.2,0-.79,0-1.24-.27-1.18-1.12,0-.49-.11-1.08.12-1.45a1,1,0,0,1,1.65-.14c.86.95,1.56,1,2.45,0,.59-.61,4.94-1.58,5.44-1,.93,1,2.09-.75,3,.62.45.65,2.13-.27,3.23.46s2.24,1.05,3.32,1.63,2.08,1.69,3.21,1.84c1.57.2,2,1.88,3.15,2.06,1.38.21,1.75,1.6,2.74,1.85,1.41.35,2,1.61,3.13,2.15,5.38,2.67,6.74,8.62,10.39,12.7,1.1,1.22,2.21,2.75,3.35,3.9a33.62,33.62,0,0,1,6.08,8.55,19.76,19.76,0,0,0,8.24,9c.52,3,3.47,3.52,5.44,4.85,1.38.93,1.2,3.11,3.55,3.36,1.22.13,2.76,1.23,4.12,2a9.12,9.12,0,0,1,1.79,1.73c.73.72.41.82-.42,1.11-1.39.48-4.7.6-5.73-.32-1.58-1.4-3.1-2.75-5.38-2.75a2.1,2.1,0,0,1-1.8-1.49c-.28-.81-.27-1.3-1.36-1.56-1.85-.44-2.57-2.49-4-3.5s-3.44-1.67-3.77-3.91c-.23-1.49-2.21,2-2-.67.1-1.12-.58-1.76-1-2.6a45.36,45.36,0,0,0-6.39-8.25c-.22-.21-.61-.45-.6-.66.09-1.86-.43-3.21-2.56-3.37.14-3.4-3.09-4.68-4.55-7.09a44.75,44.75,0,0,0-15.1-14.6c-1-.59-2.1-.5-3.13-.88C402.17,314.12,398.74,311.9,395.38,313Z"/><path d="M384.9,314c1,.24,2-.17,3.22.49,2,1.14-.5,2.65.48,3.46s1.91-2.2,3.36-.5c.65.75,2.07,1.65,1.93,2.13-1,3.49,3.9,4.37,3.22,7.72-.12.57,1.06,1.67,1.87,2.12,2.83,1.54,2.58,5.17,4.93,7-2.23,2.08,2.83,3.78.31,5.89-.08.06-.11.31-.07.33.78.52,1.78.53,2.44,1.4.82,1.08-.8,1.08-.65,1.94s.94,1.58,1.24,2.51,1,1.64.81,2.64c-.31,1.84.65,2.68,2.12,3.59,1.72,1.08.29,1.24-.67,1.35.3,1.59.59,3.18.88,4.76l.71-.35c.27-.15.54-.45.81-.45,1.45,0,1.05.48.41,1.31-.39.5.27.68.76.67s1.17.25.74.66c-1.22,1.15-.57,1.78.18,2.85,2,2.92,2.31,6.75,4.65,9.55a1.19,1.19,0,0,1,.14,1.71c-.35.44-1.24.87,0,1.23,1.69.47,2.49,1.7,3.31,3.18s1.07,3.64,3.54,4.07c1,.17-.44,3.15,2.08,2.94a6.65,6.65,0,0,1-1.85,3.48c-.87.74-1.44.25-2.07-.39-1.51-1.55-3-3.13-4.61-4.57a3.68,3.68,0,0,1-1.2-3c0-1.15-2.48-.21-2-2.09s-2.13-2.11-1.95-3.66-.91-2.41-1.88-3.22c-1.65-1.4-.89-4.22-3.16-5.21,2.26-1.68-2.23-3.2-.12-4.88-.74-1.83-1.14-3.92-2.32-5.41a10.67,10.67,0,0,1-2.49-7c0-1.7-1.36-2.85-1.18-4.6.06-.65-1.23-1.43.11-2.15a10.88,10.88,0,0,1-1.74-1.79,17,17,0,0,1-1.25-3c-.77-2.2-.84-4.73-3-6.25-.76-5.07-5.37-8-7-12.58-.83-2.28-3.64-3.17-4.4-5.68-.1-.33-1.83-.13-2.8-.25-.52-.06-.8-.38-.79-1a.85.85,0,0,1,.83-1C383.48,314,384.15,314,384.9,314Z"/><path d="M373,376.33a3.31,3.31,0,0,0-.27-4c-1.66-1.86-.07-4.32-1.59-6.4-1.05-1.43,1.07-4.47-2.08-5.45,1.61-1.25-.35-2.4-.23-3.7.1-1-1.45-1.88.05-3.25,1.07-1-1.22-1.62-.94-3,.76-3.63-1-7.47,1-11.11.61-1.09-1.8-2.5,0-4.2a5.13,5.13,0,0,0,1.12-4.5c-.09-.47,2.07-.95,2.54-.61s.32.4.16.72c-1.2,2.45-.61,4.85-.24,7.43.25,1.7-1,3.65.34,5.44-1.62,1.68-.51,3.77-.84,5.64,2.06,1.19.09,3.8,1.89,5.29.57.47,0,2.22.13,3.37s-.74,3.08,1.66,3.25c.42,0,.34.38-.06.69-.75.59-.66,1.15-.23,2.07,1.63,3.43,2,7.21,2.59,10.91.31,1.91,3.21,10.21,4.54,12.1.35.49.43.78-.1,1s-2.15-.19-.77,1.09a4.09,4.09,0,0,1,1.38,3.47c-.1,3.49-.06,7,0,10.48,0,1.09-.23,2.16.63,3.26a3.07,3.07,0,0,1-.1,3.62,8.3,8.3,0,0,1-4.7,3.07c-.51.13-.92-.31-.84-.91s-.32-1.36.3-1.86a2.74,2.74,0,0,0,.6-3.19c-.4-1.33-1.69-2.47.09-3.69-1-1.56-.43-3-.14-4.69s-.71-3.34-1.06-5c-.29-1.37-1.27-2.43-.1-3.84.55-.67-.21-.64-.59-.77s-.59-.18-.88-.27c1.67-3.73-3.49-7.05-.62-10.91.76-1-.52-.85-.9-.79C373,377.32,372.89,377.31,373,376.33Z"/><path d="M409.73,331c.54-.07,1.06,0,1.26.54,2.2,5.68,6.14,10.41,8.8,15.82,1,2.05,3.16,3.82,2.23,6.58a1,1,0,0,0,.3.84c2,1,.81,3.1,1.66,4.5a32.59,32.59,0,0,1,2.24,5.06,22.54,22.54,0,0,0,2.31,4.5c1,1.39-.55,2.59-.29,2.73,2.72,1.46,2.39,5.56,5.65,6.39.51.13,1.14.26,1.07.7-.31,1.7,1.69,1,1.77,1.67s-.82,1.26.16,2.16,1.59-.79,1.74-.27c.36,1.29,1.31,1.79,2.25,2.39A14.37,14.37,0,0,0,438.3,388c-.18.29-1.35.2-1.86-.09a7.08,7.08,0,0,1-1.78-1.72c-2.5-3-5.27-5.68-7.72-8.7-.3-.37-.91-.74-.89-1.1a8,8,0,0,0-1.91-5.73c-1.23-1.45-.57-3.75-2.13-5.1,0-4.16-3.27-7.59-2.88-11.72.16-1.77-3,.35-1.61-1.88.59-1-.37-2.11-.91-2.68-2.58-2.69-3.07-6.5-5.28-9.31-.77-1,1.34-1,.29-1.82a6.46,6.46,0,0,1-1.4-1.41c-1-1.38-.34-3.2-1.19-4.67C408.74,331.52,409.24,331.16,409.73,331Z"/><path d="M389.85,346c.93.1,2,2,1.46,3.1s-.42,1.78.38,2c2.56.84,2.3,3.35,3.28,5.1.52.92-.94,2.63,1.51,2.91,1.12.13,0,2.5,1.41,3.32.49.28,1.22.7,1.1,1.51-.63,4.19,3,7.21,3.08,11.24,0,.63.94,1.26,1.49,1.85.83.87-.65,1.21-.48,1.37a5.67,5.67,0,0,0,1.95,1.09c1.73.58-.07,1.63.42,2.52,1.76,3.25,1.47,7.32,4.23,10.26,1,1,.14,5.27-.82,6.36-.67.75-.71-.24-1.06-.36-1.61-.59,0-3-1.48-3.19-2.15-.25-.75-2-1.37-2.49-1.52-1.22-.46-3.57-2.36-4.6-1.23-.67-.48-2.12-.56-3.22s0-2-1.53-1.84c-.42,0-.74-.91-.46-1.2,1-1.09.62-1.77-.34-2.59s-2.2-1.48-.72-2.89a1,1,0,0,0-.14-.89c-1.8-1.15-1.34-3.19-2-4.66-.77-1.63-.47-3.76-2.45-5.1-1.17-.79.32-3.62-1.86-4.62.65-2.44-2-3.93-1.67-6.57.3-2.32-1.94-4.53-1.83-7.14C389,346.61,389,345.93,389.85,346Z"/><path d="M457,373.11c.06,1.76-.56,2.53-1.84,1.81-2-1.11-4.35-.55-6.21-1.89-1.17-.85-2.84-1-3.3-2.79a1.77,1.77,0,0,0-1.92-1.24c-1.16.16-1.76-.15-1.87-1.53a2,2,0,0,0-1.78-1.45,2,2,0,0,1-1.84-1.37c0-2.51-1.86-3.65-3.26-5.17-.31-.34-.6-.7-.9-1.06.73-.49.76-1.34,1.11-2s2.45-.62,2.94.31a17.85,17.85,0,0,0,3.21,4.16c1,1,.82,3.31,3.11,3.13.43,1.57,1.35,2.4,3.06,2,1.38,3.21,4.6,3.11,7.25,3.95C456.44,370.49,457.19,371.39,457,373.11Z"/><path d="M438.1,370.39c.57-.73.8.05,1,.29,1.32,1.26,2.55,2.62,3.9,3.85,1.9,1.73,3.38,3.91,5.89,5a3.43,3.43,0,0,1,2.09,2.56c.18,1.17-.25,1.79-1.43,1.91s-2.17-1.19-3.78-.21c-.84.51-2.09-1.72-3.17-2.69a24.12,24.12,0,0,1-6-8C435.94,371.64,436.39,370.72,438.1,370.39Z"/></svg>