<svg xmlns="http://www.w3.org/2000/svg" width="1080" height="1080" viewBox="0 0 1080 1080"><defs><style>.a{fill:#f0dfd2;}.b{fill:#fff;}.c{fill:#f15a29;}.d{fill:none;}</style></defs><title>Mushroom 7</title><path class="a" d="M557.7,470.73s-10.93,22.38-27.1,38.55c-15.3,15.3-45,39.2-45,39.2s1.8-29,.95-42.6S482.1,483,477,477c-7.52-8.78-14.53-2.15-14.53-2.15l-3-1.27s-5.1,7.65-7.65,20.4c-2,10,.87,14.82.87,14.82s-7.67,24.28-18.72,45.53c-12.93,24.86-32.25,41.5-36.13,87-4.67,54.83,21,83,49.88,107.68,26.91,22.95,53,46.32,53,46.32a335.57,335.57,0,0,0,86.28-20c49-18.84,68-51,68-51s-27.9-8.65-42.35-20.55-29.18-28.63-29.18-28.63,35-27.37,45.23-41.82,21.12-34.87,36-49.8c15.3-15.3,36.87-26.23,48.77-39.83s28.05-34,18.7-41.65S712,505.12,706,508.73c-10.63,6.37-20.4,15.15-29.75,21.95s-14.38,8.46-20.4,12.6c-13.6,9.35-12.7,4.35-12.7,4.35s19.22-31.13,30.7-58.75c9.63-23.19,12.6-34.85,16-55.25,3.1-18.62,2.55-27.2-1.7-31.45-3.85-3.85-8.93-1.28-8.93-1.28s3.83-10.62-3-14.87S666,379.85,655.17,393c-8.07,9.78-12.62,16.88-18.57,24.53s-13.2,17.85-19.15,24.65-17.55,23.1-17.55,23.1,0-20-9.5-27.5c-12.33-9.78-27.9-5.25-45.75-1s-26.5,8.8-26.5,8.8-14.45-1.15-21.25,2.25c-7.21,3.6-10.78,5-11,10.2-.43,8.07,5.1,8.35,5.1,8.35s6.06,6.23,22.1,8.1C531.32,476.55,552.17,472,557.7,470.73Z"/><path class="b" d="M459.5,473.58c-2.28-1.14-3.83,6.37-6.8,15.72-2.57,8.07-3.83,21.25-1.28,21.68,4.13.69,12.93-7.66,13.18-14.45C465,485.05,461.2,474.43,459.5,473.58Z"/><path class="b" d="M517.72,449.35c0,10.84-2.55,13.6-14,15.73-7.93,1.47-15.43,2.82-15.85-6.1-.17-3.5-1.17-6.72,9-9.2C512.62,446,517.72,444.25,517.72,449.35Z"/><path class="c" d="M450.15,412.38,435.27,424.7s19.83,17.43,25.78,26.78,10.73,21.7,18.42,31.87c13.18,17.43,22.1,22.53,35.28,37,11.54,12.66,17.72,18,21.55,22.65,2.4,2.94,4,4.55,7.35,2.85s9.65-6.25,5.82-12.63c-2.76-4.61-21.93-28.56-28.47-37.2-10.62-14-29.75-27.52-37.4-39.42S460.35,419.18,450.15,412.38Z"/><path class="a" d="M385.85,322.13c-23,10.2-21,34.93-17.85,56.87,2.55,17.67,7.52,35.07,10,45,3,12,14.45,35.75,17,40s7-2,14-10c6.38-7.29-1.56-8,12-9,13-1,22.88-.51,29-4,5.95-3.4,15-5,14-14-.81-7.27,3.47-6.62,9-8,6.8-1.7,6-6,11-8,10.59-4.23-13-22-19-28s-19-31-35-47S397,317.19,385.85,322.13Z"/><path class="d" d="M646.37,535.22c2.11-.13,1.28-1.77,1.78-2.76.37-.74,2.34-.39,1-2.31-1-1.4,1.47-.83,2-2a72.67,72.67,0,0,1,5.15-8.86c.79-1.2,2.24-2,1.75-3.78,2.07-.41,2.21-1.87,2-3.59,0-.37.44-.8.7-1.19.71-1.06,2.9-2.05,2.13-3-1.9-2.24,1.18-1.6,1-2.27-.46-2.38,1.28-3.83,2.06-5.68,1.52-3.56,2.14-7.5,4.93-10.51a3.52,3.52,0,0,0,1-2c-.26-3.26,1.9-5.56,3.07-8.25.61-1.42,1.32-2.79,2-4.18a9.26,9.26,0,0,0,1.11-4.3c-.08-1.7.82-2.92,1.87-4.15.75-.89-1.3-1.42-.54-2.37s1.25-1.85,1.87-2.7c1-1.3.62-2.51.66-3.75s0-2.6,1.33-3.48c1.09-.71.91-1.55,0-2.42-.26-.25-.36-1.14-.19-1.28,1.41-1.06,1.44-2.22,1-3.86-.19-.75.82-2,1.58-2.74,1.28-1.19-1.2-1.81-.26-2.8s.67-2.59.46-3.76c-.3-1.66,1.24-2.57,1.12-4.1-.36-4.69,1.46-9,2.66-13.38.44-1.59.79-3.29-.15-4.67a3,3,0,0,1-.47-2.76c.83-2,0-3.66-.6-5.48-1.05-3-1-3.09-3.5-2.88a2.9,2.9,0,0,1-2.58-1.09c-.31-.34-.66-1.39-1.38-.43-1.92,2.57-5.24.81-7.51,2.44-.46.33-3.49,1.47-3.47,2,.1,3-2.19,4.87-3.61,7-3.08,4.62-5.25,9.55-5.39,14.77,0,1.23-.13,2.33-1.24,3-1.89,1.14-1.9,2.91-1.8,4.77,0,1,.4,2.3-.08,2.93-.76,1-.74,1.52.07,2.22.19.78-.29,1.22-.76,1.7a4.17,4.17,0,0,0-1.28,2c-.86,3.46-.48,7.27-2.9,10.31-.32.41-.1,1.31,0,2a5,5,0,0,1-.94,3.13c-1.26,2.28-.86,5.3-3.07,7.22.83,2.3-1.69,3.41-1.9,5.18a11.79,11.79,0,0,1-2.43,5.47,22.84,22.84,0,0,0-3.52,6.08c-1.4,4.26-4.94,6.91-6.88,10.67-.55,1.05-2.78.15-2.23,1.95.64,2.08-1.65,1.43-2.09,2.59a12.12,12.12,0,0,1-4.73,6.45,2.49,2.49,0,0,0-1.24,2.49c.14.73-.25,1-1,1.28a5.57,5.57,0,0,0-3.33,3.82A4.46,4.46,0,0,1,615.5,517c-1.89.15-1.94.78-1,2.11.83,1.1-.52,1.31-.94,1.69s-.59-.33-.63-.81c0-.29-.26-.81-.37-.8-.56,0-.61.5-.62,1a.77.77,0,0,1-.92.85c-.3,0-.75-.11-.85-.31-.61-1.23.23-6.25,1.41-6.57a6.72,6.72,0,0,0,4-3.45c.82-1.45,3.25-2,2.58-4.33,0-.07.22-.21.34-.31,1.23,1.79,2.07.14,2.41-.54,1.63-3.26,4.87-5.37,6.11-8.89.2-.57,1.14-1.45,1.27-1.37,1.16.66,2,1,1.68-.9-.15-1,.65-1.43,1.2-2,1-1.06,2.32-2,1.81-3.75,1.94-1.88,1.31-5.5,4.47-6.6.29-.1.63-1,.49-1.21-1.77-2.11,0-1.63,1.19-1.79,2.13-.28-.76-1.08.18-1.9,3.46-3,4.35-7.51,6.29-11.37,1.65-3.26,2.29-7,3.38-10.59-1.49-2,3.21-2.56,1.1-4.71a3.83,3.83,0,0,0,.9-4.8c1.84-1.06.31-3.18,1.36-4.43,1.26-1.49.45-3.17.6-4.75a4.62,4.62,0,0,1,.76-1.7,17.58,17.58,0,0,0,2.12-8.54c-.09-1.58,2.49-2.72.51-4.33.83-1.39,1.65-2.79,2.48-4.17a1.33,1.33,0,0,1,.35-.36c1.34-.85-.34-2.2.69-3.44.79-1,2.6-1.69,2.16-3.57-.15-.64,0-1.55.94-1.27,2.34.72,2.33-1.51,2.84-2.49,1.36-2.6,3.86-5.35,6.6-5.42,1.59,0,2.62-1.3,4.08-1.11s1.42-.73,1.56-1.8-1.72-1.51-.16-2.78c1.07-.86-1.39-1.6-.92-3,1-2.85-1.49-4.2-3.19-4.94-2-.86-4.52-3.18-6.77,0-.68.95-.94-.16-1.41-.35-.64-.26-1.55-.22-1.54.52,0,1.66-1,1.37-2,1.35s-1.05.5-1.08,1.23.36,1.69-1,1.81c-1.08.09-1.81,1.06-3.09,1.06-2,0,0,2.39-1.51,3.08-.85.4-1.44,1.61-2.26,1.75-2.24.38.11,1.52-.32,1.69a12.55,12.55,0,0,0-3.13,2.13c-1.09.86.85,2.17-.78,2.92-2.49,1.14-2,5-4.9,5.85.58,2.5-1.71,3.31-2.82,4.83a31.47,31.47,0,0,0-3.13,4.7c-1.21,2.5-5.4,9.23-7.46,10.79-1.49,1.12-1,3.64-2.14,4-2.06.66-1.84,2.8-3.37,3.73s-3.34,2.31-3.78,3.85c-.61,2.18-2.52,2.23-3.62,3.44a6.6,6.6,0,0,0-1.76,2.27,7.31,7.31,0,0,1-2.14,3.61c-1.12.87-.82,3-2.57,3.23-2.43.28-.16,3.11-2.29,3.76-1.32.4-1.32,2.36-1.95,3.6-.28.56-.83,1.4-1.27,1.4-2,0-2.49,2.19-2.51,2.87,0,1.79-1,2.68-2,3.75-.44.46-1.08,1-1.13,1.51-.16,1.95-.58,3.64-2.71,4.31.12,2.45-1.88,3.58-3.15,5.21a44.71,44.71,0,0,0-4.09,5.3,142.86,142.86,0,0,1-9,14.26c-.38.53-.45,1.08-1.24,1.08-1.31,0-.68,1.25-1.1,1.86-.88,1.25-1.17,3.5-2.24,3.91-1.93.74-1.76,2.32-2.47,3.54a1.45,1.45,0,0,1-1.11.72,3.82,3.82,0,0,0-2.5,2.2c-.46,1.08-2,2-1.23,3.34.55,1,1.84.24,2.78.42.62.12,1.24-.16,1.89.29,1.31.9,2.91,1.43,3.8,2.86,1.15,1.86,3.68-.18,4.78,1.76a2.37,2.37,0,0,0,.71.7,11.57,11.57,0,0,0,4.52,1.21c.38,0,.93-.91,1-.59.43,2.5,2.29,1.67,3.75,1.76.63,0,1.57-.14,1.56.69,0,1.7,1.11,1.29,2,1.31a2.87,2.87,0,0,1,2.25.66c.9.88,1.51,2.53,3,2.27s1.89,1.41,3.09,1.06.15,3.52,2.18,1c.73.66,1.37,1.75,2.19,1.89,1.17.21,1.59,1.06,2.35,1.63s1.29,2.18,2.47.47c.73.67,1.37,1.75,2.19,1.9,1.16.22,1.6,1.06,2.35,1.64,3,2.35,5.8,5.18,9.14,6.94a18,18,0,0,1,7.25,7.42c.24.42.69,1,1,1s.42-.7.56-1.14c.3-.94,1.83-1.68.38-2.85-.71-.58,0-.92.3-.87,1.89.28,1.74-1.79,1.84-2.29.45-2.2,2-3.45,3.47-4.7.31-.25,1-.33,1-.81-.33-2.41,2.22-3.84,2-6.18A1.86,1.86,0,0,1,646.37,535.22Zm3.78-64.69c.37-.77,1-2.14,2.66-1.27,2.73,1.45,5.75,2.33,8.22,4.27,1.1.86,3.34,0,3.46,2.41a3.12,3.12,0,0,1,.35,2.11,1.45,1.45,0,0,0-.92,1.23c-.14,1.06-1,.91-1.84.32-1-.73-1.81-2.73-2.74-2.23-2,1.08-1.92-1.5-2.92-1.31-1.91.36-1-2-2.09-2s-2.11-.8-3.1-.95C649.14,472.78,649.84,471.16,650.15,470.53Zm-.47,6.44a47,47,0,0,0,9,2.3c.56.1.7,1.68,2,2a4,4,0,0,1,2.09,2.38c.17.47-1.89-.12-1.84,1.57,0,1-1.21,1.13-1.73.35-1-1.44-2.88-1.4-3.86-2.76-.64-.88-1.48-1.34-2.37-.27-.52.63-.74.07-1.06-.18-.73-.58-1.14-1.67-2.4-1.4-1.52.32-1.49-.69-1.51-1.76C648,477.72,649.33,477.66,649.68,477Zm-21.63-7c-.81,0-1.61.17-2.24-.64-.47-.62-1.51-.6-1.62,0-.49,2.85-1.62,1.25-2.91.67s-2.5-1.54-4-1.05c-1.75.55-2-.78-2.68-1.87-.95-1.48.66-1.45,1-2.13a6.59,6.59,0,0,1,1.37-1.43c.33-.34.65-.72,1.06-.1.8,1.21,1.59,1.48,3,.58,1.23-.79,2.18,1.13,3.54.95,2.3-.31,3.63.53,3.52,3.07,0,.4.42.82.94,1.78C629,470,628.5,470,628.05,470Zm-13.83-13c2.16.36,4-.71,5.72-1.26.73.47,1.3.6.64,1.17s-.28,1.42.34,1c1.67-1.16,2.77-.11,4,.54a2.26,2.26,0,0,1,.77.55c.65.8,2.31-2.62,2.36.57,2-.44,1.41,2.19,2.9,2.44s1.69,1.63,2.35,2.69.81,1.47,0,2.5c-1.08,1.48-1.53-.41-2.29-.21-1.77.46-.6-3.28-3.15-2.12-.64.29-2-.94-3-1.44a25.18,25.18,0,0,0-3.78-1.73c-2.24-.64-4.37-1.83-6.79-1.7-1.1.06-1.43-.39-1.39-1.44C613,457.68,613,456.81,614.22,457Z"/><path class="d" d="M525,530.67,519.48,524a11.65,11.65,0,0,1-2.4,1.84c-1.55.83-1.06,3.35-3.59,3.31-1.54,0-2.33,2.51-3.55,3.18-3.07,1.68-4.79,5.28-8.57,5.85a1.58,1.58,0,0,0-1,1c-.35,1.51-1.15,1.87-2.7,1.92-.82,0-.62,2.6-2.59,1.88-.57-.2-.79.28-1.07.72-1.47,2.34-4.7,3.15-5.39,6.18-.12-.06-.26-.19-.35-.17-2.52.83-3.36,1.18-3.15,2.17.6,2.86-1.68,4.7-2.25,7.15-.65,2.77-2.25,5.39-3.55,8-1.17,2.35-2.73,4.43-3.39,7.11-.46,1.87-1.44,3.88-3.87,4.32-.6.11-2.16-.68-1.89-1,.6-.82,1.29-1.34.39-2.48s.69-1.43,1.13-2.07c.81-1.19-.29-2.7.7-3.71a6.58,6.58,0,0,0,2.07-3.15c.21-1-.23-2.38,1.5-2.47-.2-2.79,2.82-4.53,2.22-7.67-.32-1.73.83,0,1.31.05s1.73.16,1.26-.55c-.61-.94.14-1.37.09-1.82-.12-1-1.21-1.8-1.45-2.8-.29-1.17,2.35-.7,1.66-2.46-.28-.71.42-1.13.78-1.67s-1.14-1-.53-1.33c2-1,1.49-3.11,2.38-4.58.62-1,1.22-2.83.74-3.65-1.23-2.16.07-3.74.68-5.42.32-.87,1.2-1.47-.07-2.2.87-1.61-1.78-2.78-.84-4,1.56-2,.7-4.14.77-6.18s.47-4.1-.8-6.17a3.87,3.87,0,0,1,.44-4.17c.49-.58.73-1.25.14-1.69-1-.78-.76-1.8-.68-2.72.29-3.77-.52-7.41-1-11.1a2.16,2.16,0,0,0-.77-1.69c-1-.74-1-1.91-1.37-2.93A47.45,47.45,0,0,0,478.1,483c-1.2-2.14-4-3-4.32-5.69-3.12-.37-5.78-2.59-9-2.26a.94.94,0,0,0-.65,1.5c3.53,4.82.5,10.82,3.1,15.76.34,2.85-1.91,5.31-1.18,8.13-1.44,1.68-1.51,4.44-3.53,5.44a5.22,5.22,0,0,0-2.54,2.45,10.41,10.41,0,0,1-4.27,3.63c-1,.57-2.74-.79-3.35-.49-1.06.53.27,2.4-.77,3.57s-.36,2.83-.53,4.26c-.07.63.14,1.68-.57,1.66-2.13,0-1.36,1.46-1.42,2.43-.1,1.78.3,3.65-1.67,4.83-1,.6,1.3.93.24,1.77-.63.48-1.55,1.25-1.5,1.82.19,2.18-1.26,3.92-1.35,6-2.61,1-1.14,3.82-2.39,5.54-.77,1.05-.65,2.6-1.76,3.79-.85.9-1.14,2.55-1.72,3.73-1.16,2.35-1.25,5.22-3.32,7.14a18.35,18.35,0,0,0-2.1,2.13c-.67.86-.83,2-1.75,2.8-.67.57-.82,1.76-1.5,2.32-.95.78-1.08,1.92-1.7,2.83-.74,1.09-1.4.66-2.14.1-.73,1.06-.16,2.25-.39,3.35-.05.27-.52.44-.66.72-.67,1.32-3.83,1.81-1.45,4.2a1.68,1.68,0,0,1-.46.68c-2.26,1.9-3.08,5.1-5.68,6.61s-2.24,4.6-4.22,6.29c-.78.66-.13,1.75-.55,2.25-1.26,1.47-.66,3.89-2.62,4.93-.67,3.21-2.59,6.07-3.12,9.16-.41,2.32-1.78,4.56-1.21,7-2.77,1.79-1.09,5-2.23,7a8.22,8.22,0,0,0-.78,5.88,1.83,1.83,0,0,1-.55,1.78c-1,.89-.06,2.42-1.31,3.53-.66.59.42,3.15-.24,3.74-1.55,1.37.87,2.41,0,3.2-1.26,1.11-.78,2.43-.83,3.68a34.51,34.51,0,0,1-.09,5c-.32,1.62,1.38,3,.36,4.56,1.54,1.1-.61,1.67-.46,2.81.17,1.35.87,2.36,1.16,3.57a.53.53,0,0,1-.12.44c-1.19.94-1,1.7-.06,2.84.51.6-.32,2-.25,2.62.29,2.42-1.92,4.9.19,7.23a1.87,1.87,0,0,1,.23,1.38c-.43,2.64.79,5.06.93,7.59.07,1.39,1.56,2.12,1.11,3.59a2.51,2.51,0,0,0,1.3,2.93c1.21.75-1,2.28.8,2.89.84.28,1,1.22.88,2.1a8.89,8.89,0,0,0,2.09,7.11c.78,1,0,3,2.23,3.22,1.54.19.26,2.47,1.73,3.66,2.52,2.07,3,6,5.95,7.87-.42,1.54.45,3.21,1.52,3.22,2.7,0,.62,2.6,2.07,3.16,2.15.85,2.64,3.39,4.5,4.62,1.24.82,1.49,2.37,1.88,3.69.47,1.62,3.4-.58,3,2.08a7.6,7.6,0,0,1,4.47,4.56c2.22.28,3.46,2.11,4.41,3.62s3,2.13,3.23,4c.25,1.74,2.74.61,3,2.7.18,1.2,1.73,2.44,3,3.2,4.36,2.69,8.75,5.31,12.16,9.24,2.44.24,3.15,3.07,5.52,3.59s2.82,3.16,4.51,4.53c1.12.91,3,1.18,3.16,3.07,2.08-.05,2.32,1.8,3.16,3,2.33-.81,2.19,1.76,3.39,2.48,3.23,2,5.38,5.13,8.32,7.42,1.75,1.37,2.82,3.73,4.45,4.92a60.32,60.32,0,0,1,5.39,4.91c2.2,2.06,4.85,3.11,7.44,2,2.26-1,4.86,0,6.81-1.69,3.43.43,6.62-1.65,10.08-1,.73.14,1.16-.34,1.73-.66a8.52,8.52,0,0,1,5.45-1.37,2.46,2.46,0,0,0,2.67-.78c.94-1.25,1.74,1.59,2.74.2a3,3,0,0,1,3.42-1.36c2.08.6,3.65-1,5.59-1.11a5,5,0,0,0,2.84-1.45c.88-.83,2.34.07,2.67-.7.76-1.76,2,1.2,2.56-.44,3.84-1.18,7.85-2,11.49-3.63,3.88-1.74,8.19-1.7,12-3.64,3-1.52,6.5-1.63,9.57-3.52a25.46,25.46,0,0,1,9-3.31,25,25,0,0,0,7.09-2.31c3.48-1.67,6.32-4.57,10.36-5.21a1.94,1.94,0,0,0,1.21-1.42c.09-1.15,1-.95,1.49-1.38a9,9,0,0,1,4.18-2.16c1.42-.29,2.13-2.17,3.74-3,1-.47,1.44-2.22,3.17-1.81,0-1.87,1.72-2.22,2.81-2.68,2.55-1.09,4.13-3.1,5.59-5.19.44-.63.78-1.57,1.4-1.86,2.29-1,3-3.51,4.64-5.07.35-.32.21-1.43,1.09-1.16,2.34.72,2.74-1.3,4-2.4a32.19,32.19,0,0,0,5.12-5.25c1.11-1.58,1.1-1.47-.66-2.47-.69-.39-1.18-1-2.13-.93-1.67.2-3.28.15-4.38-1.49-.56-.85-1.51-.38-2.29-.49a15,15,0,0,1-2.79-.48c-5.14-1.73-9.75-4.65-14.82-6.49a3,3,0,0,1-2.12-2.31c-.4-1.62-2.6.12-3.23-1.48-.8-2-3.21-.86-4.6-2.36-1.09-1.18-2.18-2.44-3.32-3.61-1.36-1.39-3.44-1.8-4.57-3.51-.73-1.09-2-1.51-3.05-2.22s-1.45-2-2.18-3c-1.31-1.82-3.07-2.94-5.46-4.65-.82-.59-2.47-.32-2.51-1.78s-1.16-.81-1.66-1.26c-.83-.76.8-.91.53-1.36-.53-.86-1.52-.28-2.28-.49-.25-.06-.64-.53-.59-.63,1.11-2.38-1.93-2.28-2.4-4s-2.61-2.6-3.45-4.36c-1.57,1-3.18,2-4.73,3.06a176.1,176.1,0,0,1-16.83,10,3.91,3.91,0,0,1-4.29,0c-1.64-.76-1.84-1.15-.67-2.25a14,14,0,0,1,2.6-2c1.08-.64,2.37.27,2.5-.24a4,4,0,0,1,2-2.58c.25-.14.69.07,1,0a17.8,17.8,0,0,0,5.74-3,24.39,24.39,0,0,1,3.7-2c1.13-.67,1.28-2.14,2.8-2.7.91-.34,1.9,1.65,2,0s1.81-1,1.86-1.66c.16-2.29,2.3-1.75,3.42-2.62.42-.32,1.42.23,1.75-.5,1.54-3.4,5.5-4.33,7.41-7.34a3,3,0,0,1,1.5-1.17c2-.64,2.81-3.48,4.44-3.6,2.54-.18,3-2,4.06-3.36,1.29-1.59,4.24-1.87,3.92-4.79a1.75,1.75,0,0,1,.84-.27c1,0,1.73.16,2-1.38.21-1,1.55-1.94,2.69-2.67,2.14-1.36,4.52-2.64,6.06-4.54,1.89-2.31,3.17-5.13,5.42-7.21.84-.78.57-2.65,2.4-2.42.26-1.35,2.09-2.44,2-3.09-.51-2.48,2.27-3.12,2.36-5.14.1-2.25,2.34-3,3.45-4.56a2.3,2.3,0,0,0,.31-.67c-1.64-.93.33-1.48.25-2.29-.11-1.15,1.16-1.48,1.69-2.27a14.83,14.83,0,0,0,2.06-3.15c.44-1.27,0-3,2.13-3a7.24,7.24,0,0,1,1.81-3.73c2.45-3,5-6,7.71-8.71,1.5-1.52,1.77-4.17,4.46-4.73.38-.07-.34-2.6,1.74-2.55,0-1.9,2-1.7,2.77-2.77.56-.76,1.53-1.14,1.64-2.34.1-1,4.12-4.37,5.16-4.76,1.79-.67-.48-1.3-.11-1.5,1.14-.66.73-2.08,1.7-2.87,1.28-1,2.22-2.58,4-.65.25.27.92,0,1.21-.49,1.4-2.25,1.38-2.32,2-2.46,1.07-.24,2.12-1.11,1.92-1.86-.64-2.36,1.67-2.76,2.42-2.82,2.29-.17,3.44-1.65,4.82-3s2.47-2.76,4.64-1.4c.52.33,1-.22,1.28-1,.62-1.42.79-3.59,3.37-3,.39.08.47-.69.59-1.17.33-1.25,2-.68,2.58-1.83.42-.86.51-1.89,2-2.21,1.28-.28,1.92-2.78,3.33-2.62,2.7.29,1.79-1.63,2.26-2.78.23-.58.88-.27,1.34-.34,2.14-.35,3-2.26,4.37-3.6.17-.17-1.81-.89.06-1.41a4.55,4.55,0,0,0,3.29-5.13c-.13-.84.24-.7.56-.85s4-2.75,4.17-3.2c.46-1.34,2.25-1.78,2.09-3.67-.21-2.36,2.68-.24,3.28-1.93.31-.87,1.64-1.15,1.65-2.32,0-1-.21-1.83,1.39-2,1.28-.12-1-1.35.41-2.45,1.93-1.48,2.4-4.22,3.35-6.52.58-1.41.24-3.34,1.73-4.26s.3-1.75.13-2.65c-.2-1.08.51-2.43-.71-3.19-2.59-1.64-4.94-4.39-8.52-2.12-2.15-1.36-4.06,2.06-6.24.32-1,1.85-3.76,0-4.29,1.38-1.32,3.35-5.12,3.75-6.85,6.57-1.19,1.94-3.36,3.1-4.94,4.82-1.32,1.43-4.34,1.21-5.36,3.1-1.21,2.25-3.13,2.85-5.15,3.73-1,.44-1.68,1.59-2.5,2.41l-2.83,2.83c-.82.82-2,1.51-2.39,2.51-.5,1.32-2.7-1.59-2.23,1.08-1.84.89-2.82,2.91-4.91,3.58-1.75.56-3.29,1.74-5,2.32-1.27.42-.61,4.69-3.46,1.73-1.71,1-2.6,3.47-5.19,3-.09,0-.38.51-.39.79-.06,1.18-1.29,1.46-1.7,2.3-.71,1.47-1.53-.53-2.13.12-3.65,3.91-8.74,5.45-13.13,8.15a13,13,0,0,0-2.83,1.7c-2.11,2.16-2.19,2.07-.24,4.78.17.24.16.77.34.83,4.12,1.28,4.85,5.93,8.06,8.1a1.5,1.5,0,0,1,.35.36,2.36,2.36,0,0,1,.12,2.32c-.59,1.19-.87-1.13-1.76-.24-1.05,1.07-2.66-1.22-4,.58-.46.63-1.64-.68-1.28-2.22.2-.87-.16-1.12-.76-1.78-2-2.24-5.41-3.17-6.22-6.52,0-.18-.6-.19-.8-.4-1.69-1.83-5.18-2-5.09-5.5,0-.15-.61-.53-.75-.46-2.29,1.22-1.84-2-3.59-2.17-1.22-.09-1.88-2.06-3.51-2.28-1.39-.2-.38-3-2.33-2.54-2.8.61-.38-1.95-1.55-2.36-.51-.18-1-1.2-1.22.1-.41,2.05-1.34,1.52-2.25.44a11.08,11.08,0,0,1-1.42-2.4c-.68-1.43-1.59.43-2.11-.14-2.07-2.28-5.57-2.87-7-5.92-.13-.28-.46-.48-.69-.71-2.48,2.9-3.22-1.8-5.2-1.26a11.82,11.82,0,0,1-.69-1.63c-2.33,2.78-2.66-2.08-4.63-1.21-.89.4-1.48-.91-2.53-1.1s-1.55-2.27-3.2-1.05a7.1,7.1,0,0,0-3.71-2c-1.23-.3-2.15-2-3.81-.79a12.38,12.38,0,0,0-7.25-3c-.13,0-.38-.57-.32-.64,1.49-1.59.2-1.38-.81-1.2-.38.07-.94.74-1,.66-1.11-.92-2.75-1-3.69-1.88-1.27-1.14-2.67.25-3.89-.86-1.56-1.42-1.68-2.5-.41-4,.86-1,2.69-.72,3-2.7.15-1.06,2.54-2,2.48-2.85-.13-2,2.91-1.12,2.27-3.06a16.13,16.13,0,0,0,3.89-5.88c.87-2.26,3.61-3.19,4-5.76,1.81-.64,1.61-2.77,2.65-3.77,2.38-2.26,3-5.59,5.22-7.95.93-1,2.61-2,2.49-3.9,2.15-.17,1.85-2.82,3.48-3.46,1.79-.69-.27-2.58,1.46-3.66,2.72-1.69,2.86-4.79,2.74-7.8,0-1.14-2.15-2-.44-3.34s-.93-2-.71-3.43c.72-4.84-.65-9.49-1.74-14.19a5.83,5.83,0,0,0-2.48-3.93,13,13,0,0,1-2.71-1.86c-1.35-1.44-3.1-2-4.93-2.6a13.86,13.86,0,0,0-4.63-.88c-1.58,0-3.08-2.33-4.74-.15-1.79-1.36-3.81,0-5.43-.36a10.35,10.35,0,0,0-6.38.42,14.71,14.71,0,0,1-2.4.89c-1.77-2.36-3.12,1.19-4.85.26-1.42-.75-3,1.33-4.68,0-.39-.32-.82.25-.92.8s.1,1.51-.94.71c-2.16-1.67-3.79,1-5.77.66A19,19,0,0,1,530.36,443c-1.36,0-2.64,1.67-4.08.19C525.06,445.42,523,445,521,445c-.89,0-1.24.38-.45,1a3.79,3.79,0,0,1,1.5,3.41c0,1.49-2,2.56-1,4.06,1.11,1.76-3.29,1.19-1.19,3.14-1.19,1.29-2.79,2.28-3.18,4.18-1.7-.11-2.15,2-3.6,2.13-1,.11-1.42,1.48-2.58,1.05-.53,1.71-2.33-.31-2.35.48-.05,1.5-1,1.42-1.83,1.71-.38.12-.49,1-1.05.53-1.64-1.38-1.95.39-2.18,1.12-.37,1.16.7,1.29,1.53,1.13,1.26-.24,1.73,1.25,3.1,1.11s3.32-.81,4.64.76c2.08-2.1,2.93.26,4.21,1.13.22.15.84.13.94,0,1-1.57,2.08-.9,3.15-.1,1.14-1.51,2.76-.65,4.15-.82.62-.08,1.78,0,1.84.2.74,3,2.2.58,3.17.35.54-.13,1-.62,1.75-.59a22.26,22.26,0,0,1,4.48.08c1.53.37,2.77-1.26,4.28-.27s2.26-1.54,4-.88c2.71,1,5.57-.38,8-1.16,2.62-.85,5.87,0,8-2.49.23-.28.91-.28,1.37-.25a7.72,7.72,0,0,0,5.74-1.88c1.44-1.24,3.56-.81,5.18-2,.87-.67,2,0,2.77,1.51.92,1.69-.85,2.1-.66,3.2-1,.07-2,.15-2.92.18-1.34.05-.19,2-1.59,2a14.4,14.4,0,0,0-3.48.06,17.33,17.33,0,0,0-2.85,1.56c-.77.37-1.84-.93-2.51.38-2-.71-2.14,1.22-3,2.15-1.37,1.39-.35,3.83-2.64,5-1,.52-1.29,2.69-1.86,4.07s-2.72,1.89-3.76,3.32c1,.85,1.39,1.39-.47,1.55-.57,0-1.61,1.3-1.48,1.69.77,2.32-2.26,2.72-2.13,4.71.14,2.17-1.89,3.1-3.2,4.08-1.7,1.26-1.45,3.16-2.41,4.57a1.7,1.7,0,0,1-.35.36c-.85.7-2.08.74-2.8,1.75-.56.78-1.37,1.31-1.23,2.51.33,2.74-1.66-.61-1.92.69-.32,1.69-1,2.94-2.47,3.55l4.75,6.33Zm-20.65,72.47c-.53.36-.36.89-.34,1.35.1,1.72,2.22,3.45,0,5.17.35,1.84-.91,3.33-1.36,5-.26.93,1.12,2.33-.63,2.9s-.52,2.41-1.4,3.41c-.68.78.68,2.2-.84,2.82s-.31,2.17-1.06,3c-.3.36-.92.59-.7,1.2.76,2.08-1.25,2.78-1.88,4.14-.55,1.19-2,.39-2.11,1.53-.09.82.33,2-.08,2.43-1.52,1.43-2.2,3.67-3.67,4.75s-1.77,2.82-3.27,3.78a23.23,23.23,0,0,0-3.93,3.82,10.74,10.74,0,0,1-5.52,3.59c-.6.13-.8,1.41-1.84.29a2.66,2.66,0,0,1-.63-2.71,2.91,2.91,0,0,1,1.64-1.76c2.92-.93,3.91-3.56,5.19-5.82.54-.94,1.07-1.38,1.7-.84,1.46,1.28,1.47.46,1.31-.75-.06-.48-1.08-.46-.51-1.45.68-1.18,3.26-.51,2.6-2.83-.5-1.73,2.73-.62,2-2.58,1.23-.87,1.15-2.52,2.35-3.56,1.91-1.64,1.37-4.69,3.51-6.56,1.75-1.54,1.33-4.38,2-6.59.74-2.52,2.82-4.6,2.5-7.56-.06-.51.64-1.68.66-2.64a7.59,7.59,0,0,0-.05-2.48c-.35-1,1.83-1.32.41-2.33,1-2.06.42-4.29.75-6.4a2.34,2.34,0,0,1,1.38-1.36c.33-.12.36.74.54,1.13.8,1.68,2.17,3.12,2.05,4.59S505.38,602.43,504.35,603.14ZM686.51,536c.89-.44,5.22,1.28,5.34,2.44.26,2.61,1.7,4.59,2.85,6.75a3.12,3.12,0,0,0,.25.35c-1.59,1-.58,2.73-1.06,4-.28.75-.83.13-1-.19-.58-1.18-1.56,1.88-1.87-.18-.11-.75-.64-1.07-.91-1.61s1.09-.54.58-1.39c-.86-1.45-1.61-3-2.46-4.42-.24-.41-.76-.66-1-1.06C685.88,538.63,685.57,536.47,686.51,536Zm-3.73,4c1.06.06,2-.29,2.43,1.49a13.89,13.89,0,0,0,2,4.09c.85,1.21.72,1.71,0,2.89-.4.67,1.74,1.23,1.77,2.54a8.23,8.23,0,0,0,0,1.49c.2,1-.49,1.48-1.07,2-1,1-1.06-.71-1.9-.61a1.85,1.85,0,0,1-2-1.73c.59-3.81-1.73-6.58-3.05-9.73C680.38,540.94,681.13,540,682.78,540Z"/><path class="d" d="M453,504.93c-.19.41,0,.88.73.93.63-1.46,2-.67,3-.86.31-.06.77,0,.88-.22.33-.52.35-1.31.77-1.66,2.55-2.1,4.32-4.48,3.58-8a1.1,1.1,0,0,1,.29-.86c1-.84.65-1.43.07-2.48a4.4,4.4,0,0,1,.2-4.09c.42-.89-1-2.63-1.58-4,2.31-2.23-1.19-4.43,0-6.68.29-.55-.24-.92-.76-1-.75-.08-1.34.19-1.2,1.07.18,1.09-.67,1.75-.94,2.61-.66,2.06-2.34,3.7-2.14,6.15.16,1.91-2.55,3.46-1,5.72-1.37,2-1.36,4.45-1.89,6.7S454,502.68,453,504.93Z"/><path class="d" d="M515.6,447.05c-1.23,0-2.47-.36-3.8.45-.66.4-2.16-.43-3-1.24-.27-.26-.48-.23-.71.18l-4.16,2.16c-.33.53-1.17.56-1.29.37-1.29-2.07-2.52-.44-3.69,0-3.11,1.29-7.15.75-9,4.54-.11.22-.52.32-.8.44-2.34,1-2.47,1-1.59,2.95.27.6.65,1.06.24,1.85-.09.24-1,.48-.5.89a47.85,47.85,0,0,0,5.18,4.13c.36.24,1.5-1.4,1.89-.77,1.18,1.91,2.41.28,3.58.35.68,0,3.91-.59,4.07-.93.95-2.07,2.36-.63,3.47-.4.73.15,1.21,1.79,1.72-.37.17-.73,1.57-1.9,2.53-2.46,1.59-.95,5.28-2.53,5.26-3-.1-2.38,1.71-4,2.41-6C518,448.36,517.52,447.07,515.6,447.05Z"/><path d="M737.68,508.14c-1.15-2-1.14-4.4-2.34-6.55a6.19,6.19,0,0,0-5.55-3.57c-1.47-.08-3.38-.48-4.34.25-1.66,1.26-2.42-1.27-3.89-.36a5.44,5.44,0,0,1-2,.95c-1.16,0-1.55,1.13-2.58,1.17s-2.32-.47-3.2.71c-.68.91-2.79-.8-2.85,1.68,0,1.14-1.76-1.33-2.42.47-.12.33-1.16.23-1.56,1.26-1.38,3.55-6.34,3.88-7.43,7.84,0,0-.33,0-.48,0a110.25,110.25,0,0,0-10.57,7c-.71.77-2.07,1.91-2.61,1.92-1.62,0,1.17,2-1.17,2.14-3.06.17-4.17,3.79-6.91,4.93a15.11,15.11,0,0,0-3.89,2.64,8,8,0,0,1-4.55,2.35c-1.8.18-1.7,2.4-3,3.28a3.21,3.21,0,0,1-2.23.67,2.92,2.92,0,0,0-2.62,1,6.55,6.55,0,0,1-2.61,2.1,17.5,17.5,0,0,0-4.76,2.95c-1.36,1.1-3.26,1.4-4.16,3.34-.57,1.22-2.58,1-3.48.35s.71-1,1-1.64c.22-.42.65-.72.55-1.28-.49-2.81,2.18-4.4,2.74-6.88a10.17,10.17,0,0,1,1.69-2.76c.21-.31,1.47,1.91,1.57-.37a12.14,12.14,0,0,1,3.69-8c1.22-1.3,2.41-2.44,2.57-4.48.08-1.09,1.27-2.11,2-3.12s1.19-2.62,2.44-3.52c.27-.2.12-.93.29-1.35,1.19-2.84,3.23-5.62,3.41-8.51.2-3.29,3.89-5.13,2.81-8.59,2.94-2.29,2.67-6.26,4.69-9.07.64-.89,1.56-2,1.12-3.54-.38-1.33.69-2.51,1.36-3.38.82-1.07-1.26-2.92,1.08-3.26a37.54,37.54,0,0,0,4.68-11.58c.52-2.05,0-4.64,1.11-5.95,2.21-2.51,1.89-5.61,3-8.3.14-.34,1.09-.47.32-1.06-1.92-1.46,1.94-3.42-.43-4.83,2.82-2.16.44-6.48,3.53-8.54.32-.21.07-.36-.14-.72-1.56-2.6-.35-4.9,1-7.08a1.41,1.41,0,0,0-.21-2.09c-.82-.79-.32-1.38.27-2.07.81-.92-.38-3.22,2.08-3,1.17-1.9-2.14-2.54-1.39-3.36,1-1.1-.56-1.49,0-2.25,1.59-2.31,1.15-4.76.77-7.4a13.39,13.39,0,0,0-5.29-9.24c-1.1-.82-3-2-4.64-1.05a2.71,2.71,0,0,1-2.7.38c-1.22-.85.15-1.55.46-2.37s.08-2,.08-3.39c.2-1.7.39-4.26-1.16-5.51-2.12-1.72-3.45-4.95-7-4.57-.94-1.41-2.75-.57-3.89-1.49-.34-.28-1-.61-1.27-.47-3.34,1.59-7.37,1.67-10,4.76-2,2.3-5.44,3.36-5.93,7-2.46-.18-1.12,2.48-2.1,3-2.16,1.1-2.67,2.76-2.64,4.89s-.76,1.08-1.52.4c-.19-.17-3.49,2.42-3.45,2.85.24,2.25-1.37,3.21-2.91,4.07-.59.33-1,.4-1.15,1.19-.93,4.11-3.64,7.19-6,10.56-1,1.48-3.52,2.15-3,4.63-2.7,1-1.38,5.78-5.36,5.79-.49,0-1,1.4-1.43,2.22s-.36,1.51-1.07,2.07c-.47.39-1.19.73-1.13,1.51.09,1.32-1.13.82-1.63,1.26-.86.77.79.92.52,1.37-.52.86-1.52.27-2.27.48-.51.14-.66.6-.64,1.15s.13,1.81-.45,1.72c-2.2-.35-1.3,1.9-2.37,2.58a16.27,16.27,0,0,1-3.16,2c2.7,2.35-.92,1.31-1.3,2-.93,1.78-3.35,2.76-2.71,5.4.15.6-.34.87-.66,1.22-.66.7-1,1.76-1.54,2.3-.79.83-2.09,1.29-3,2.21-.74.72-1.88.33-1.74-.53.59-3.64-1.21-7.06-.9-10.58.09-1.1-2-1.7-.41-2.79-.71-1-.34-2.65-1-3.32-1-1-.25-2.36-1-3.11a19.93,19.93,0,0,0-3.07-2.17c-.26-.19-.68-.52-.65-.71.42-2.12-2.21-1-2.48-2.41-1.68.32-2.75-.62-3.77-1.76-.89-1-1.79-2.18-3.14-.47a1,1,0,0,1-.89.16c-1-.48-1.88-1.11-2.86-1.57s-1.73,1.08-2.92.62a12.69,12.69,0,0,0-3.06-1.16c-1.2-.17-2.1,1.84-3.25.29a3.21,3.21,0,0,1-3.49.75c-1.37-.57-2.46,2.06-3.69.11-1.28,2.2-3,.44-4.48.4-1.88,0-3.4,3-5.47.61-1.78,1.93-3.93,1.83-6.18,1.12-1.52,1.64-4.88.34-5.51,3.47-.12.59-1.14.53-1.26.35-.82-1.2-1.39-.46-2.25,0s-2.36-.5-3.27.53c-1.15,1.31-3.61-.41-3.9,1.08-.39,2-1.93,1.77-2.39,1.35-1.15-1-1.91.16-2.74,0-1.6-.24-2.52,1.46-4.1,1.09s-2.93.7-3.81,1.53c-1.67,1.59-2.55-1.58-3.84-.31-1.57,1.55-3.62.08-5.15.83a12.22,12.22,0,0,1-5.62.94c-2.09,0-4.36-.59-5.81,1.73a1.36,1.36,0,0,1-1.28.11c-.69-.8-1-.47-1.84,0-3.45,1.81-7.29,3-9,7.05a1.58,1.58,0,0,1-1.49,1.12c-.6-.05-1,.22-1.05.74-.39,4.62.09,9,3.67,12.47.48.47.91.91,1.67.81,1.56-.21,2.89,0,3.1,1.95,3.62,1.33,7.36,2.29,10.85,4,1.22.59,2.74-.23,4.18.86,1.13.86,2.91.12,4.33-.48-.22,2.54,2.19,1.16,3.07,2.06.28.29.47.4,1.07.25,3.46-.83,7-1.4,10.4.22a1.37,1.37,0,0,0,1.71-.4c.67-.67,1.92-.41,2.41-1.43a2.8,2.8,0,0,0,2.57,1c.52,0,1,.55,1.55.85.71-1.51,2.35-.59,3.46-1.34s2.51,1.3,3.23.36c1-1.29,2,.19,3.05-.56.89-.64,2.57-.06,3.79-.42s2.11-1.34,3.26-1.77a4.81,4.81,0,0,1,3.34.06c-.41.92-.75,1.88-1.24,2.76-1.12,2-3.09,3.37-4,5.76-.72,1.9-2.69,3.49-3.45,5.56s-3.46,2.58-3.1,5.16c.06.41-.81.37-1.18.58-.68.38-1.74,1.11-1.68,1.57.34,2.54-1.78,3.39-3,4.79-1.44,1.61-3.14,3-4.54,4.63-.87,1-2.33,1.57-3.19,2.61l3.26,4.35c1.51-.61,2.15-1.86,2.47-3.55.26-1.3,2.25,2.05,1.92-.69-.14-1.2.67-1.73,1.23-2.51.72-1,1.95-1.05,2.8-1.75a1.7,1.7,0,0,0,.35-.36c1-1.41.71-3.31,2.41-4.57,1.31-1,3.34-1.91,3.2-4.08-.13-2,2.9-2.39,2.13-4.71-.13-.39.91-1.65,1.48-1.69,1.86-.16,1.44-.7.47-1.55,1-1.43,3.23-2,3.76-3.32s.85-3.55,1.86-4.07c2.29-1.17,1.27-3.61,2.64-5,.9-.93,1-2.86,3-2.15.67-1.31,1.74,0,2.51-.38a17.33,17.33,0,0,1,2.85-1.56,14.4,14.4,0,0,1,3.48-.06c1.4,0,.25-2,1.59-2,1,0,1.94-.11,2.92-.18-.19-1.1,1.58-1.51.66-3.2-.81-1.49-1.9-2.18-2.77-1.51-1.62,1.23-3.74.8-5.18,2a7.72,7.72,0,0,1-5.74,1.88c-.46,0-1.14,0-1.37.25-2.1,2.5-5.35,1.64-8,2.49-2.41.78-5.27,2.16-8,1.16-1.76-.66-2.47,1.9-4,.88s-2.75.64-4.28.27a22.26,22.26,0,0,0-4.48-.08c-.71,0-1.21.46-1.75.59-1,.23-2.43,2.62-3.17-.35-.06-.21-1.22-.28-1.84-.2-1.39.17-3-.69-4.15.82-1.07-.8-2.12-1.47-3.15.1-.1.16-.72.18-.94,0-1.28-.87-2.13-3.23-4.21-1.13-1.32-1.57-3.13-.9-4.64-.76s-1.84-1.35-3.1-1.11c-.83.16-1.9,0-1.53-1.13.23-.73.54-2.5,2.18-1.12.56.47.67-.41,1.05-.53.86-.29,1.78-.21,1.83-1.71,0-.79,1.82,1.23,2.35-.48,1.16.43,1.56-.94,2.58-1.05,1.45-.16,1.9-2.24,3.6-2.13.39-1.9,2-2.89,3.18-4.18-2.1-1.95,2.3-1.38,1.19-3.14-.94-1.5,1-2.57,1-4.06a3.79,3.79,0,0,0-1.5-3.41c-.79-.66-.44-1,.45-1,2,0,4,.42,5.27-1.78,1.44,1.48,2.72-.19,4.08-.19a19,19,0,0,0,11.93-3.82c2,.3,3.61-2.33,5.77-.66,1,.8.84-.21.94-.71s.53-1.12.92-.8c1.64,1.34,3.26-.74,4.68,0,1.73.93,3.08-2.62,4.85-.26a14.71,14.71,0,0,0,2.4-.89,10.35,10.35,0,0,1,6.38-.42c1.62.35,3.64-1,5.43.36,1.66-2.18,3.16.14,4.74.15a13.86,13.86,0,0,1,4.63.88c1.83.64,3.58,1.16,4.93,2.6a13,13,0,0,0,2.71,1.86,5.83,5.83,0,0,1,2.48,3.93c1.09,4.7,2.46,9.35,1.74,14.19-.22,1.45,2.53,2,.71,3.43s.4,2.2.44,3.34c.12,3,0,6.11-2.74,7.8-1.73,1.08.33,3-1.46,3.66-1.63.64-1.33,3.29-3.48,3.46.12,1.87-1.56,2.93-2.49,3.9-2.27,2.36-2.84,5.69-5.22,7.95-1,1-.84,3.13-2.65,3.77-.4,2.57-3.14,3.5-4,5.76a16.13,16.13,0,0,1-3.89,5.88c.64,1.94-2.4,1.07-2.27,3.06.06.88-2.33,1.79-2.48,2.85-.28,2-2.11,1.66-3,2.7-1.27,1.54-1.15,2.62.41,4,1.22,1.11,2.62-.28,3.89.86.94.85,2.58,1,3.69,1.88.09.08.65-.59,1-.66,1-.18,2.3-.39.81,1.2-.06.07.19.63.32.64a12.38,12.38,0,0,1,7.25,3c1.66-1.19,2.58.49,3.81.79a7.1,7.1,0,0,1,3.71,2c1.65-1.22,2.18.86,3.2,1.05s1.64,1.5,2.53,1.1c2-.87,2.3,4,4.63,1.21a11.82,11.82,0,0,0,.69,1.63c2-.54,2.72,4.16,5.2,1.26.23.23.56.43.69.71,1.42,3,4.92,3.64,7,5.92.52.57,1.43-1.29,2.11.14a11.08,11.08,0,0,0,1.42,2.4c.91,1.08,1.84,1.61,2.25-.44.27-1.3.71-.28,1.22-.1,1.17.41-1.25,3,1.55,2.36,2-.43.94,2.34,2.33,2.54,1.63.22,2.29,2.19,3.51,2.28,1.75.14,1.3,3.39,3.59,2.17.14-.07.75.31.75.46-.09,3.5,3.4,3.67,5.09,5.5.2.21.76.22.8.4.81,3.35,4.22,4.28,6.22,6.52.6.66,1,.91.76,1.78-.36,1.54.82,2.85,1.28,2.22,1.33-1.8,2.94.49,4-.58.89-.89,1.17,1.43,1.76.24a2.36,2.36,0,0,0-.12-2.32,1.5,1.5,0,0,0-.35-.36c-3.21-2.17-3.94-6.82-8.06-8.1-.18-.06-.17-.59-.34-.83-2-2.71-1.87-2.62.24-4.78a13,13,0,0,1,2.83-1.7c4.39-2.7,9.48-4.24,13.13-8.15.6-.65,1.42,1.35,2.13-.12.41-.84,1.64-1.12,1.7-2.3,0-.28.3-.81.39-.79,2.59.45,3.48-2,5.19-3,2.85,3,2.19-1.31,3.46-1.73,1.74-.58,3.28-1.76,5-2.32,2.09-.67,3.07-2.69,4.91-3.58-.47-2.67,1.73.24,2.23-1.08.39-1,1.57-1.69,2.39-2.51l2.83-2.83c.82-.82,1.51-2,2.5-2.41,2-.88,3.94-1.48,5.15-3.73,1-1.89,4-1.67,5.36-3.1,1.58-1.72,3.75-2.88,4.94-4.82,1.73-2.82,5.53-3.22,6.85-6.57.53-1.36,3.24.47,4.29-1.38,2.18,1.74,4.09-1.68,6.24-.32,3.58-2.27,5.93.48,8.52,2.12,1.22.76.51,2.11.71,3.19.17.9,1.37,1.71-.13,2.65s-1.15,2.85-1.73,4.26c-.95,2.3-1.42,5-3.35,6.52-1.42,1.1.87,2.33-.41,2.45-1.6.15-1.39,1-1.39,2,0,1.17-1.34,1.45-1.65,2.32-.6,1.69-3.49-.43-3.28,1.93.16,1.89-1.63,2.33-2.09,3.67-.15.45-3.74,3-4.17,3.2s-.69,0-.56.85A4.55,4.55,0,0,1,710,543c-1.87.52.11,1.24-.06,1.41-1.33,1.34-2.23,3.25-4.37,3.6-.46.07-1.11-.24-1.34.34-.47,1.15.44,3.07-2.26,2.78-1.41-.16-2,2.34-3.33,2.62-1.48.32-1.57,1.35-2,2.21-.57,1.15-2.25.58-2.58,1.83-.12.48-.2,1.25-.59,1.17-2.58-.56-2.75,1.61-3.37,3-.33.75-.76,1.3-1.28,1-2.17-1.36-3.34.13-4.64,1.4s-2.53,2.82-4.82,3c-.75.06-3.06.46-2.42,2.82.2.75-.85,1.62-1.92,1.86-.63.14-.61.21-2,2.46-.29.47-1,.76-1.21.49-1.75-1.93-2.69-.4-4,.65-1,.79-.56,2.21-1.7,2.87-.37.2,1.9.83.11,1.5-1,.39-5.06,3.79-5.16,4.76-.11,1.2-1.08,1.58-1.64,2.34-.78,1.07-2.82.87-2.77,2.77-2.08-.05-1.36,2.48-1.74,2.55-2.69.56-3,3.21-4.46,4.73-2.72,2.76-5.26,5.71-7.71,8.71a7.24,7.24,0,0,0-1.81,3.73c-2.11.07-1.69,1.77-2.13,3a14.83,14.83,0,0,1-2.06,3.15c-.53.79-1.8,1.12-1.69,2.27.08.81-1.89,1.36-.25,2.29a2.3,2.3,0,0,1-.31.67c-1.11,1.56-3.35,2.31-3.45,4.56-.09,2-2.87,2.66-2.36,5.14.13.65-1.7,1.74-2,3.09-1.83-.23-1.56,1.64-2.4,2.42-2.25,2.08-3.53,4.9-5.42,7.21-1.54,1.9-3.92,3.18-6.06,4.54-1.14.73-2.48,1.64-2.69,2.67-.31,1.54-1.07,1.34-2,1.38a1.75,1.75,0,0,0-.84.27c.32,2.92-2.63,3.2-3.92,4.79-1.07,1.31-1.52,3.18-4.06,3.36-1.63.12-2.39,3-4.44,3.6a3,3,0,0,0-1.5,1.17c-1.91,3-5.87,3.94-7.41,7.34-.33.73-1.33.18-1.75.5-1.12.87-3.26.33-3.42,2.62,0,.68-1.81,0-1.86,1.66s-1-.34-2,0c-1.52.56-1.67,2-2.8,2.7a24.39,24.39,0,0,0-3.7,2,17.8,17.8,0,0,1-5.74,3c-.3.1-.74-.11-1,0a4,4,0,0,0-2,2.58c-.13.51-1.42-.4-2.5.24a14,14,0,0,0-2.6,2c-1.17,1.1-1,1.49.67,2.25a3.91,3.91,0,0,0,4.29,0,176.1,176.1,0,0,0,16.83-10c1.55-1.07,3.16-2,4.73-3.06.84,1.76,3,2.77,3.45,4.36s3.51,1.6,2.4,4c0,.1.34.57.59.63.76.21,1.75-.37,2.28.49.27.45-1.36.6-.53,1.36.5.45,1.63-.06,1.66,1.26s1.69,1.19,2.51,1.78c2.39,1.71,4.15,2.83,5.46,4.65.73,1,1.21,2.37,2.18,3s2.32,1.13,3.05,2.22c1.13,1.71,3.21,2.12,4.57,3.51,1.14,1.17,2.23,2.43,3.32,3.61,1.39,1.5,3.8.34,4.6,2.36.63,1.6,2.83-.14,3.23,1.48a3,3,0,0,0,2.12,2.31c5.07,1.84,9.68,4.76,14.82,6.49a15,15,0,0,0,2.79.48c.78.11,1.73-.36,2.29.49,1.1,1.64,2.71,1.69,4.38,1.49.95-.11,1.44.54,2.13.93,1.76,1,1.77.89.66,2.47a32.19,32.19,0,0,1-5.12,5.25c-1.24,1.1-1.64,3.12-4,2.4-.88-.27-.74.84-1.09,1.16-1.69,1.56-2.35,4-4.64,5.07-.62.29-1,1.23-1.4,1.86-1.46,2.09-3,4.1-5.59,5.19-1.09.46-2.83.81-2.81,2.68-1.73-.41-2.2,1.34-3.17,1.81-1.61.78-2.32,2.66-3.74,3a9,9,0,0,0-4.18,2.16c-.51.43-1.4.23-1.49,1.38a1.94,1.94,0,0,1-1.21,1.42c-4,.64-6.88,3.54-10.36,5.21a25,25,0,0,1-7.09,2.31,25.46,25.46,0,0,0-9,3.31c-3.07,1.89-6.56,2-9.57,3.52-3.81,1.94-8.12,1.9-12,3.64-3.64,1.63-7.65,2.45-11.49,3.63-.54,1.64-1.8-1.32-2.56.44-.33.77-1.79-.13-2.67.7a5,5,0,0,1-2.84,1.45c-1.94.1-3.51,1.71-5.59,1.11a3,3,0,0,0-3.42,1.36c-1,1.39-1.8-1.45-2.74-.2a2.46,2.46,0,0,1-2.67.78,8.52,8.52,0,0,0-5.45,1.37c-.57.32-1,.8-1.73.66-3.46-.65-6.65,1.43-10.08,1-1.95,1.7-4.55.69-6.81,1.69-2.59,1.15-5.24.1-7.44-2a60.32,60.32,0,0,0-5.39-4.91c-1.63-1.19-2.7-3.55-4.45-4.92-2.94-2.29-5.09-5.46-8.32-7.42-1.2-.72-1.06-3.29-3.39-2.48-.84-1.24-1.08-3.09-3.16-3-.19-1.89-2-2.16-3.16-3.07-1.69-1.37-2.19-4-4.51-4.53s-3.08-3.35-5.52-3.59c-3.41-3.93-7.8-6.55-12.16-9.24-1.23-.76-2.78-2-3-3.2-.3-2.09-2.79-1-3-2.7-.27-1.91-2.28-2.53-3.23-4s-2.19-3.34-4.41-3.62a7.6,7.6,0,0,0-4.47-4.56c.37-2.66-2.56-.46-3-2.08-.39-1.32-.64-2.87-1.88-3.69-1.86-1.23-2.35-3.77-4.5-4.62-1.45-.56.63-3.14-2.07-3.16-1.07,0-1.94-1.68-1.52-3.22-3-1.9-3.43-5.8-5.95-7.87-1.47-1.19-.19-3.47-1.73-3.66-2.27-.27-1.45-2.21-2.23-3.22a8.89,8.89,0,0,1-2.09-7.11c.16-.88,0-1.82-.88-2.1-1.83-.61.41-2.14-.8-2.89a2.51,2.51,0,0,1-1.3-2.93c.45-1.47-1-2.2-1.11-3.59-.14-2.53-1.36-4.95-.93-7.59a1.87,1.87,0,0,0-.23-1.38c-2.11-2.33.1-4.81-.19-7.23-.07-.64.76-2,.25-2.62-.95-1.14-1.13-1.9.06-2.84a.53.53,0,0,0,.12-.44c-.29-1.21-1-2.22-1.16-3.57-.15-1.14,2-1.71.46-2.81,1-1.59-.68-2.94-.36-4.56a34.51,34.51,0,0,0,.09-5c.05-1.25-.43-2.57.83-3.68.91-.79-1.51-1.83,0-3.2.66-.59-.42-3.15.24-3.74,1.25-1.11.31-2.64,1.31-3.53a1.83,1.83,0,0,0,.55-1.78,8.22,8.22,0,0,1,.78-5.88c1.14-2-.54-5.26,2.23-7-.57-2.49.8-4.73,1.21-7,.53-3.09,2.45-6,3.12-9.16,2-1,1.36-3.46,2.62-4.93.42-.5-.23-1.59.55-2.25,2-1.69,1.71-4.82,4.22-6.29s3.42-4.71,5.68-6.61a1.68,1.68,0,0,0,.46-.68c-2.38-2.39.78-2.88,1.45-4.2.14-.28.61-.45.66-.72.23-1.1-.34-2.29.39-3.35.74.56,1.4,1,2.14-.1.62-.91.75-2,1.7-2.83.68-.56.83-1.75,1.5-2.32.92-.8,1.08-1.94,1.75-2.8a18.35,18.35,0,0,1,2.1-2.13c2.07-1.92,2.16-4.79,3.32-7.14.58-1.18.87-2.83,1.72-3.73,1.11-1.19,1-2.74,1.76-3.79,1.25-1.72-.22-4.52,2.39-5.54.09-2.06,1.54-3.8,1.35-6,0-.57.87-1.34,1.5-1.82,1.06-.84-1.25-1.17-.24-1.77,2-1.18,1.57-3.05,1.67-4.83.06-1-.71-2.47,1.42-2.43.71,0,.5-1,.57-1.66.17-1.43-.57-3,.53-4.26s-.29-3,.77-3.57c.61-.3,2.31,1.06,3.35.49a10.41,10.41,0,0,0,4.27-3.63,5.22,5.22,0,0,1,2.54-2.45c2-1,2.09-3.76,3.53-5.44-.73-2.82,1.52-5.28,1.18-8.13-2.6-4.94.43-10.94-3.1-15.76a.94.94,0,0,1,.65-1.5c3.27-.33,5.93,1.89,9,2.26.36,2.68,3.12,3.55,4.32,5.69a47.45,47.45,0,0,1,2.79,5.86c.4,1,.37,2.19,1.37,2.93a2.16,2.16,0,0,1,.77,1.69c.48,3.69,1.29,7.33,1,11.1-.08.92-.34,1.94.68,2.72.59.44.35,1.11-.14,1.69a3.87,3.87,0,0,0-.44,4.17c1.27,2.07.88,4.13.8,6.17s.79,4.15-.77,6.18c-.94,1.21,1.71,2.38.84,4,1.27.73.39,1.33.07,2.2-.61,1.68-1.91,3.26-.68,5.42.48.82-.12,2.61-.74,3.65-.89,1.47-.36,3.62-2.38,4.58-.61.3.9.77.53,1.33s-1.06,1-.78,1.67c.69,1.76-1.95,1.29-1.66,2.46.24,1,1.33,1.82,1.45,2.8.05.45-.7.88-.09,1.82.47.71-.74.56-1.26.55s-1.63-1.78-1.31-.05c.6,3.14-2.42,4.88-2.22,7.67-1.73.09-1.29,1.43-1.5,2.47a6.58,6.58,0,0,1-2.07,3.15c-1,1,.11,2.52-.7,3.71-.44.64-2.07.87-1.13,2.07s.21,1.66-.39,2.48c-.27.36,1.29,1.15,1.89,1,2.43-.44,3.41-2.45,3.87-4.32.66-2.68,2.22-4.76,3.39-7.11,1.3-2.61,2.9-5.23,3.55-8,.57-2.45,2.85-4.29,2.25-7.15-.21-1,.63-1.34,3.15-2.17.09,0,.23.11.35.17.69-3,3.92-3.84,5.39-6.18.28-.44.5-.92,1.07-.72,2,.72,1.77-1.86,2.59-1.88,1.55,0,2.35-.41,2.7-1.92a1.58,1.58,0,0,1,1-1c3.78-.57,5.5-4.17,8.57-5.85,1.22-.67,2-3.21,3.55-3.18,2.53,0,2-2.48,3.59-3.31a11.65,11.65,0,0,0,2.4-1.84l-3.66-4.43a1,1,0,0,0-.41.53c-.61,2-2.12,3.25-3.57,4.5s-2.27,3.09-4.56,3.5c-1.86.34-2.12,2.94-3.78,3.89-.13.07-.33,0-.49,0-1.54.09-1.78,2.37-3.68,2-2.18-.38-1.9,2.15-3.15,3a43,43,0,0,0-7.95,6.21c-.22.24-.45,1.11-1,.44a1.76,1.76,0,0,1-.2-1.39c.37-1.34.61-3,1.32-3.9,1.3-1.7-1.64-2.49-.38-3.89.26-.28-.12-.92.36-1.34,1.18-1,2.59-2.1.84-3.82,2.12-1.34-.55-2.48-.16-3.74.19-.61,2.12-1.42-.29-1.62-.86-.07-.92-.93-.63-1.51.4-.82,2-1.3,1.62-2.09s-1.13-1.51-.13-2.47-.83-1-.65-1.92,1.9-1.67.94-2.46c-1.26-1-.62-2.42-1.28-3.54s.4-2.52.55-3.81c.23-1.95-1.54-3.79-.15-5.68-2-1.74-.25-4.21-1.14-6a14.35,14.35,0,0,1-1.88-6.73c0-.24-.38-.71-.53-.7-1.62.2-1.47-.89-1.44-1.89a4.13,4.13,0,0,0-2.24-4.13c-.47-.24-.87-.43-.76-1a3.4,3.4,0,0,0-2.53-3.78c-2.1-.41-1.34-3.13-3.13-3.15-3.07-.05-5.4-3.13-8.66-2-1.1.38-1.81-1.27-2.41-.66-1.31,1.31-1.93.26-2.89-.31a.9.9,0,0,0-1.38.83c-.06,1.36-1.22,2-2.08,2.6-1.56,1.09-2.84,2.12-3,4.24a7.22,7.22,0,0,1-1.18,3c-1.63,2.74-3.24,5.46-2.77,8.86a4.12,4.12,0,0,1-.33,1.34c-.46,2.27-3.06,4.35-.69,6.94.32.35-.35.82-.52,1.24-.56,1.44-1,2.93-1.45,4.4,1.92,1,.27,3.16,1.41,4.41.3.34.53.49.17,1.09-1,1.62-.91,1.67-.59,4.51,0,.33.15.79,0,1-.92,1.09-2.33,1.9-2.41,3.5a10.46,10.46,0,0,1-.82,3.84,53.14,53.14,0,0,1-2.74,5.37c1.09,4.22-3.7,6.62-3.31,10.62-2,1.68-2.1,4.1-2.75,6.37-.59,2.05-1.78,3.93-2.52,6a3.46,3.46,0,0,1-2.42,2.41c.51,1.43-.82,2.39-.94,3.59-.14,1.42-2.34.28-2.11,2.08.28,2.12-1.11,3.63-2.59,4.89s-1.54,4-4.16,4.2c.53,2.8-2.37,3.64-3.22,5.67-.71,1.71-2.65,2.87-2.07,5.2.12.47-.82,1.36-1.45,1.82-1.5,1.1-1.62,3.14-3.14,4.24a7.15,7.15,0,0,0-3.1,4.17c-.22,1.16-1.27,1.77-1.31,3,0,.75-1.54,1.24-.57,2.46,1.62,2.06-2,.34-1.35,1.81,1.16,2.63-1.44,4.09-2.18,6.1s-.66,3.93-1.61,5.83c-.68,1.38-1.92,3.68-.2,5.57-1.42,1.89-1,4.66-3,6.26-1.38,1.14-1.3,2.08,0,3.17.34.27,1.42,1.11.43,1.26-1.45.22-1.13,1.07-1.58,1.86a8.36,8.36,0,0,0-.84,5.62c.38,2.25-1.29,4-1.1,6.1a26,26,0,0,1,0,4.5c-.09,1.29.55,2.71-.31,3.85-1.11,1.46.84,2.32.45,3.85-.74,2.9.74,6.12-1,9,1.85,4.1.42,8.43.83,12.64.13,1.32-.52,3.14.14,3.9,1.29,1.48.51,3.13,1.12,4.58s1.16,3.17,1.73,4.76c-2.24,2,1.67,2.16,1.07,3.79-.42,1.14.22,1.75,1.52,1.8.52,0,.63,1.08.41,1.22-1.52,1-.34,2.12.1,2.66,1,1.21.56,2.79,1.39,4s1.55,2.43.57,4a.73.73,0,0,0,.66,1,1.89,1.89,0,0,1,1.93,1.25c.45,1.69,2,2.84,1.92,4.81-.08,2.3,3.21,2.84,3.3,4.65.12,2.27,1.68,3.07,2.75,4.42.59.74,1,1.7,1.54,2.32,1.81,2.26,3.2,4.87,5.5,6.79,1.91,1.59,3.57,3.5,5.33,5.26s3.65,3.44,5.27,5.34c1.44,1.68,4.27,2.25,4.24,5.15a1.05,1.05,0,0,0,.45,0c1.7-.39.53,2.4,2.61,2.21,1-.08,2,2.15,3.19,2.94,2.33,1.49,3.58,4.12,6.18,5.36,1.37.66,2.08,2.49,3.86,2.76-.15,2.62,2.54,1.17,3.44,2.39a24.06,24.06,0,0,0,2.45,2.5c.81.81,1.6,1.67,2.46,2.44.7.62,1.89.43,2.41,1.42.68,1.28,2,.87,3.05,1.08s-2.05,2,.7,2c.86,0,1.75,1.38,2.53,2.21s2.12,1.39,2.15,2.58c.06,2.55,1.87-1,2.05.67.36,3.28,4.41,3.4,5.3,6.22,2.69.34,3.49,3.19,5.71,4.29,2,1,3,3.3,5,4.42s2.45,4.07,4.88,4.89c-.21,2.32,3.35,1.52,3.3,4.13,0,1,1.82,2.46,3.35.51a.79.79,0,0,1,1.28.66c.11,1.44.24,1.47.78,1.17,1.09-.6,2.12-1.31,3.24-1.85s2,.94,2.93.63a19.68,19.68,0,0,0,2.83-1.63c.24-.13.83-.1.93.07,1,1.63,2.08.69,3.15.1,1,1.78,2.33-.29,3.07.19,1.76,1.18,1.63-.93,2.52-1.18,1.14-.31,2.49,0,3.42-1,1,1.32,1.89.91,2.77-.16a14.47,14.47,0,0,1,1-1c1.17,2.84,3.36-1.49,5,.75.68,1,1.59-.1,1.56-1.35,0-.58-.29-2.1,1.07-.78.84.82,1.83.11,2.76.62,1.32.72,1.69.46,1.39-1.4-.16-1,.61-.94.85-1.41.38-.75.77-.11,1,.19,1.07,1.29,2,1.93,3.58.42,1.12-1.07,3.17-.62,4.32-2.07,1.38-1.73,2.91-1.29,4.43-.09.06,0,.43-.4.69-.53a18.31,18.31,0,0,1,5.39-1.57c1.61-.25,3.73,0,4.9-1.74.71-1.07,1.35-1,2.2-.1.2.23,1.19.17,1.24-.38.1-1.21.56-1.51,1.79-1.66a5.83,5.83,0,0,0,3.73-1.81c1.26,1.71,2.42,0,3.62,0,1.63,0,2.64-1.92,3.2-1.72,1.45.52,2.48.71,3.68-.36.25-.22,1-.1,1-.64,0-.36-.72-.93-.64-1,.49-.61,1.09-.54,1.67,0,.28.27.41.68,1.08.25,2.69-1.72,5.92-1.8,8.87-2.72a22.13,22.13,0,0,0,7.8-4c.87-.73,2.68-1.53,3.53-1.12.68.33,1.65.44,1.64-.1,0-1.68,1.46-1.38,2.14-2.07.93-1,1.77-1.85,3.37-1.62.79.12.7-.89.69-1.53,0-2,.56-.91,1.52-.51,1.19.51,1.94-.29,1.82-2-.08-1.21.57-1.47,1.39-1.64.33-.08.9,1,1,.45.27-2.43,1.41-.92,2.38-.75s1.84.31,2-1.32c.21-2.38,1.71-3.73,4.26-3.65.58,0,1.77-.24,1.51-.5-2.13-2.09,2.57-1.29,1.27-3.35-.94-1.49,2.89-.76,2.19-2.92,0-.14.62-.15.64.26.07,1.28.42,2.12,1.4.6s1.58-3.54,4.18-3.17c.49.07.68-1,.26-1.62-.19-.27-.69-.66-.67-.68.62-.74,1.27-1.45,1.93-2.15s1.43-.59,2.06.14.72,0,.89-.33c.69-1.39,1.39-2.76,2-4.18.16-.41.1-1,.66-.91s.66,1.11,1.44.29c.6-.62.69-1.73,1.1-2,1.51-1,.1-3,1.69-3.9.7-.39,1-.74,1.14.33.07.67.11,1.41,1,.58.7-.65,1.66-1.31.59-2.4-.67-.68-.55-.86.37-1.12,2.27-.63.62-2.49,1-3.74s-.74-1-1.46-1.32A50,50,0,0,0,648.2,720c-4.47-1.23-9.1-2-13.14-4.48-1.73-1-3.64-1.71-5.29-3-1.32-1.07-3.77-.71-4.06-3.23,0-.12-.57-.17-.87-.25a13.24,13.24,0,0,1-7-3.66c-.79-.86-2.12.3-2.68-.72-.35-.65-.08-1.66-.44-2.3-.5-.86-1.24,1.43-1.66.19-.68-2-2.18-2.85-3.81-3.93-1.17-.77-2.44-2.08-3.57-2.21-2.6-.29-1.37-2.53-2.32-3.63-1.42-1.64-4.39-1.64-4.64-4.46,0-.34-.36-.18-.69.14-2,1.86-1.64-.72-2.45-1.19-1.4-.81.45-2.91-1.48-3.21-1.68-.27-2.14-2.51-4-2.4.52-1.91-1.63-2.29-2-3.56-.29-.91-1.63-1.44-1.05-2.54.47-.9,1.59-.22,2.23-.57a12.09,12.09,0,0,0,2.21-1.92c1.41-1.32,2.55-3,4.53-3.54.14-2.29,3.66-1.94,3.48-4.47,3.21-.39,4.63-3.22,6.68-5.1,1.19-1.08,2.51-2,3.63-3.2,1.27-1.32,3.18-2.38,3.74-3.94.77-2.16,2.43-3,4-3.64a8.11,8.11,0,0,0,2.34-1.56c1.67-1.52,3.44-3,3.55-5.53,2.21.07,1.71-3,4.1-3.29,2.22-.29,2.16-3.27,3.21-5,.17-.28.44-.66.7-.68.86-.08,1.12-.47,1.64-1.24,1.74-2.61,3.65-5.1,4.63-8.11.66-2,2.65-3.2,3.16-5.18s.65-3.56,2.69-4.94c1.41-1,1.52-3.82,3.34-4.94,1.37-.84,0-2.31.47-2.42,1.25-.28,1.89-1.16,2.75-1.87,1.11-.93,1.55-2.81,2.57-3.24,2.36-1,.95-2.75,1.24-4.09s1.06-1.39,1.66-.83c.85.8,1.19.51,1.84-.13s.46-1.84,1.37-2.47a18.31,18.31,0,0,0,2.15-2.08,11,11,0,0,0,1.17-2c.57-.8.57-1.95,1.35-2.4.32-.19,1.48,1.86,1.51-.44,3.21-2.36,4-7.53,9.1-7.71,1,0,.62-1,.95-1.35,1.91-2,3.39-4.74,6.1-5.53a10.8,10.8,0,0,0,5.57-3.41c.62-.74,1.57-.42,2.08-1s-1.57-1.38-.16-1.56c1.66-.21,3.45-.65,4.23-1.71.94-1.29,3.5-.69,3.25-3,2-.22,2.65-1.84,3.48-3.28,1.94,2.18,1.91-1.21,3.29-1.19,1.88,0,2.18-1.56,2.14-3.18,0-.5.44-.8,1-.74a3.46,3.46,0,0,0,2.23-.67c1.49-.92,1.21-3.46,3.44-3.55.12-2.42,3-2.32,3.73-3.87,1.22-2.45,3.3-4,5.06-5.88.94-1,1.88-1.86,1.49-3.4a1.63,1.63,0,0,1,1-2c1.87-.53,3.52-1.08,3.4-3.47,1.93.32,2.1-1.69,2.28-2.45a30.21,30.21,0,0,1,4.54-9.1,22.77,22.77,0,0,0,3.77-9C737.08,509,738.24,509.13,737.68,508.14ZM517.37,450.2c-.7,2-2.51,3.62-2.41,6,0,.51-3.67,2.09-5.26,3-1,.56-2.36,1.73-2.53,2.46-.51,2.16-1,.52-1.72.37-1.11-.23-2.52-1.67-3.47.4-.16.34-3.39,1-4.07.93-1.17-.07-2.4,1.56-3.58-.35-.39-.63-1.53,1-1.89.77a47.85,47.85,0,0,1-5.18-4.13c-.47-.41.41-.65.5-.89.41-.79,0-1.25-.24-1.85-.88-1.93-.75-2,1.59-2.95.28-.12.69-.22.8-.44,1.86-3.79,5.9-3.25,9-4.54,1.17-.49,2.4-2.12,3.69,0,.12.19,1,.16,1.29-.37l4.16-2.16c.23-.41.44-.44.71-.18.87.81,2.37,1.64,3,1.24,1.33-.81,2.57-.46,3.8-.45C517.52,447.07,518,448.36,517.37,450.2Zm125.6,93c.06.48-.64.56-1,.81-1.52,1.25-3,2.5-3.47,4.7-.1.5.05,2.57-1.84,2.29-.31,0-1,.29-.3.87,1.45,1.17-.08,1.91-.38,2.85-.14.44-.09,1.14-.56,1.14s-.8-.58-1-1a18,18,0,0,0-7.25-7.42c-3.34-1.76-6.12-4.59-9.14-6.94-.75-.58-1.19-1.42-2.35-1.64-.82-.15-1.46-1.23-2.19-1.9-1.18,1.71-1.72.09-2.47-.47s-1.18-1.42-2.35-1.63c-.82-.14-1.46-1.23-2.19-1.89-2,2.49-1.09-1.34-2.18-1s-1.7-1.29-3.09-1.06-2.09-1.39-3-2.27A2.87,2.87,0,0,0,596,528c-.92,0-2,.39-2-1.31,0-.83-.93-.65-1.56-.69-1.46-.09-3.32.74-3.75-1.76-.06-.32-.61.55-1,.59a11.57,11.57,0,0,1-4.52-1.21,2.37,2.37,0,0,1-.71-.7c-1.1-1.94-3.63.1-4.78-1.76-.89-1.43-2.49-2-3.8-2.86-.65-.45-1.27-.17-1.89-.29-.94-.18-2.23.55-2.78-.42-.74-1.32.77-2.26,1.23-3.34a3.82,3.82,0,0,1,2.5-2.2,1.45,1.45,0,0,0,1.11-.72c.71-1.22.54-2.8,2.47-3.54,1.07-.41,1.36-2.66,2.24-3.91.42-.61-.21-1.86,1.1-1.86.79,0,.86-.55,1.24-1.08a142.86,142.86,0,0,0,9-14.26,44.71,44.71,0,0,1,4.09-5.3c1.27-1.63,3.27-2.76,3.15-5.21,2.13-.67,2.55-2.36,2.71-4.31.05-.53.69-1.05,1.13-1.51,1-1.07,2-2,2-3.75,0-.68.52-2.84,2.51-2.87.44,0,1-.84,1.27-1.4.63-1.24.63-3.2,1.95-3.6,2.13-.65-.14-3.48,2.29-3.76,1.75-.2,1.45-2.36,2.57-3.23a7.31,7.31,0,0,0,2.14-3.61,6.6,6.6,0,0,1,1.76-2.27c1.1-1.21,3-1.26,3.62-3.44.44-1.54,2.25-2.93,3.78-3.85s1.31-3.07,3.37-3.73c1.12-.36.65-2.88,2.14-4,2.06-1.56,6.25-8.29,7.46-10.79a31.47,31.47,0,0,1,3.13-4.7c1.11-1.52,3.4-2.33,2.82-4.83,2.93-.89,2.41-4.71,4.9-5.85,1.63-.75-.31-2.06.78-2.92a12.55,12.55,0,0,1,3.13-2.13c.43-.17-1.92-1.31.32-1.69.82-.14,1.41-1.35,2.26-1.75,1.47-.69-.48-3.08,1.51-3.08,1.28,0,2-1,3.09-1.06,1.36-.12,1-1.07,1-1.81s.17-1.25,1.08-1.23,2,.31,2-1.35c0-.74.9-.78,1.54-.52.47.19.73,1.3,1.41.35,2.25-3.14,4.79-.82,6.77,0,1.7.74,4.16,2.09,3.19,4.94-.47,1.39,2,2.13.92,3-1.56,1.27.28,1.85.16,2.78s0,2-1.56,1.8-2.49,1.07-4.08,1.11c-2.74.07-5.24,2.82-6.6,5.42-.51,1-.5,3.21-2.84,2.49-.92-.28-1.09.63-.94,1.27.44,1.88-1.37,2.6-2.16,3.57-1,1.24.65,2.59-.69,3.44a1.33,1.33,0,0,0-.35.36c-.83,1.38-1.65,2.78-2.48,4.17,2,1.61-.6,2.75-.51,4.33a17.58,17.58,0,0,1-2.12,8.54,4.62,4.62,0,0,0-.76,1.7c-.15,1.58.66,3.26-.6,4.75-1.05,1.25.48,3.37-1.36,4.43a3.83,3.83,0,0,1-.9,4.8c2.11,2.15-2.59,2.71-1.1,4.71-1.09,3.55-1.73,7.33-3.38,10.59-1.94,3.86-2.83,8.4-6.29,11.37-.94.82,1.95,1.62-.18,1.9-1.21.16-3-.32-1.19,1.79.14.17-.2,1.11-.49,1.21-3.16,1.1-2.53,4.72-4.47,6.6.51,1.79-.79,2.69-1.81,3.75-.55.57-1.35,1-1.2,2,.28,1.89-.52,1.56-1.68.9-.13-.08-1.07.8-1.27,1.37-1.24,3.52-4.48,5.63-6.11,8.89-.34.68-1.18,2.33-2.41.54-.12.1-.36.24-.34.31.67,2.29-1.76,2.88-2.58,4.33a6.72,6.72,0,0,1-4,3.45c-1.18.32-2,5.34-1.41,6.57.1.2.55.28.85.31a.77.77,0,0,0,.92-.85c0-.49.06-.95.62-1,.11,0,.35.51.37.8,0,.48.27,1.15.63.81s1.77-.59.94-1.69c-1-1.33-.94-2,1-2.11a4.46,4.46,0,0,0,4.12-3.08,5.57,5.57,0,0,1,3.33-3.82c.78-.27,1.17-.55,1-1.28a2.49,2.49,0,0,1,1.24-2.49,12.12,12.12,0,0,0,4.73-6.45c.44-1.16,2.73-.51,2.09-2.59-.55-1.8,1.68-.9,2.23-1.95,1.94-3.76,5.48-6.41,6.88-10.67a22.84,22.84,0,0,1,3.52-6.08,11.79,11.79,0,0,0,2.43-5.47c.21-1.77,2.73-2.88,1.9-5.18,2.21-1.92,1.81-4.94,3.07-7.22a5,5,0,0,0,.94-3.13c-.07-.65-.29-1.55,0-2,2.42-3,2-6.85,2.9-10.31a4.17,4.17,0,0,1,1.28-2c.47-.48.95-.92.76-1.7-.81-.7-.83-1.23-.07-2.22.48-.63.13-1.93.08-2.93-.1-1.86-.09-3.63,1.8-4.77,1.11-.66,1.21-1.76,1.24-3,.14-5.22,2.31-10.15,5.39-14.77,1.42-2.13,3.71-4,3.61-7,0-.5,3-1.64,3.47-2,2.27-1.63,5.59.13,7.51-2.44.72-1,1.07.09,1.38.43A2.9,2.9,0,0,0,685,404c2.55-.21,2.45-.11,3.5,2.88.63,1.82,1.43,3.45.6,5.48a3,3,0,0,0,.47,2.76c.94,1.38.59,3.08.15,4.67-1.2,4.39-3,8.69-2.66,13.38.12,1.53-1.42,2.44-1.12,4.1.21,1.17.61,2.62-.46,3.76s1.54,1.61.26,2.8c-.76.72-1.77,2-1.58,2.74.42,1.64.39,2.8-1,3.86-.17.14-.07,1,.19,1.28.91.87,1.09,1.71,0,2.42-1.34.88-1.3,2.12-1.33,3.48s.29,2.45-.66,3.75c-.62.85-1.17,1.83-1.87,2.7s1.29,1.48.54,2.37c-1.05,1.23-2,2.45-1.87,4.15a9.26,9.26,0,0,1-1.11,4.3c-.67,1.39-1.38,2.76-2,4.18-1.17,2.69-3.33,5-3.07,8.25a3.52,3.52,0,0,1-1,2c-2.79,3-3.41,7-4.93,10.51-.78,1.85-2.52,3.3-2.06,5.68.13.67-2.95,0-1,2.27.77.91-1.42,1.9-2.13,3-.26.39-.74.82-.7,1.19.17,1.72,0,3.18-2,3.59.49,1.77-1,2.58-1.75,3.78a72.67,72.67,0,0,0-5.15,8.86c-.53,1.14-3,.57-2,2,1.39,1.92-.58,1.57-1,2.31-.5,1,.33,2.63-1.78,2.76a1.86,1.86,0,0,0-1.37,1.84C645.19,539.4,642.64,540.83,643,543.24Zm-189.92-45c.53-2.25.52-4.68,1.89-6.7-1.56-2.26,1.15-3.81,1-5.72-.2-2.45,1.48-4.09,2.14-6.15.27-.86,1.12-1.52.94-2.61-.14-.88.45-1.15,1.2-1.07.52.06,1.05.43.76,1-1.16,2.25,2.34,4.45,0,6.68.59,1.35,2,3.09,1.58,4a4.4,4.4,0,0,0-.2,4.09c.58,1.05.91,1.64-.07,2.48a1.1,1.1,0,0,0-.29.86c.74,3.56-1,5.94-3.58,8-.42.35-.44,1.14-.77,1.66-.11.18-.57.16-.88.22-1.07.19-2.41-.6-3,.86-.71-.05-.92-.52-.73-.93C454,502.68,452.53,500.43,453.05,498.26Z"/><path d="M503,595.23c-.18-.39-.21-1.25-.54-1.13a2.34,2.34,0,0,0-1.38,1.36c-.33,2.11.21,4.34-.75,6.4,1.42,1-.76,1.37-.41,2.33a7.59,7.59,0,0,1,.05,2.48c0,1-.72,2.13-.66,2.64.32,3-1.76,5-2.5,7.56-.65,2.21-.23,5-2,6.59-2.14,1.87-1.6,4.92-3.51,6.56-1.2,1-1.12,2.69-2.35,3.56.74,2-2.49.85-2,2.58.66,2.32-1.92,1.65-2.6,2.83-.57,1,.45,1,.51,1.45.16,1.21.15,2-1.31.75-.63-.54-1.16-.1-1.7.84-1.28,2.26-2.27,4.89-5.19,5.82a2.91,2.91,0,0,0-1.64,1.76,2.66,2.66,0,0,0,.63,2.71c1,1.12,1.24-.16,1.84-.29a10.74,10.74,0,0,0,5.52-3.59,23.23,23.23,0,0,1,3.93-3.82c1.5-1,1.79-2.7,3.27-3.78s2.15-3.32,3.67-4.75c.41-.4,0-1.61.08-2.43.12-1.14,1.56-.34,2.11-1.53.63-1.36,2.64-2.06,1.88-4.14-.22-.61.4-.84.7-1.2.75-.88-.37-2.45,1.06-3s.16-2,.84-2.82c.88-1-.33-2.85,1.4-3.41s.37-2,.63-2.9c.45-1.62,1.71-3.11,1.36-5,2.23-1.72.11-3.45,0-5.17,0-.46-.19-1,.34-1.35,1-.71.53-1.8.73-3.32S503.83,596.91,503,595.23Z"/><path d="M684.08,552.21a1.85,1.85,0,0,0,2,1.73c.84-.1.93,1.57,1.9.61.58-.57,1.27-1,1.07-2a8.23,8.23,0,0,1,0-1.49c0-1.31-2.17-1.87-1.77-2.54.71-1.18.84-1.68,0-2.89a13.89,13.89,0,0,1-2-4.09c-.46-1.78-1.37-1.43-2.43-1.49-1.65,0-2.4.94-1.75,2.48C682.35,545.63,684.67,548.4,684.08,552.21Z"/><path d="M688.25,541.77c.85,1.46,1.6,3,2.46,4.42.51.85-.83.88-.58,1.39s.8.86.91,1.61c.31,2.06,1.29-1,1.87.18.15.32.7.94,1,.19.48-1.29-.53-3,1.06-4a3.12,3.12,0,0,1-.25-.35c-1.15-2.16-2.59-4.14-2.85-6.75-.12-1.16-4.45-2.88-5.34-2.44s-.63,2.63.72,4.71C687.49,541.11,688,541.36,688.25,541.77Z"/><path d="M614.37,460c2.42-.13,4.55,1.06,6.79,1.7a25.18,25.18,0,0,1,3.78,1.73c1,.5,2.36,1.73,3,1.44,2.55-1.16,1.38,2.58,3.15,2.12.76-.2,1.21,1.69,2.29.21.76-1,.58-1.5,0-2.5s-.87-2.44-2.35-2.69-.9-2.88-2.9-2.44c-.05-3.19-1.71.23-2.36-.57a2.26,2.26,0,0,0-.77-.55c-1.26-.65-2.36-1.7-4-.54-.62.43-1.07-.35-.34-1s.09-.7-.64-1.17c-1.67.55-3.56,1.62-5.72,1.26-1.21-.21-1.21.66-1.24,1.55C612.94,459.62,613.27,460.07,614.37,460Z"/><path d="M651.23,473.1c1,.15,1.88,1,3.1.95s.18,2.37,2.09,2c1-.19.89,2.39,2.92,1.31.93-.5,1.75,1.5,2.74,2.23.79.59,1.7.74,1.84-.32a1.45,1.45,0,0,1,.92-1.23,3.12,3.12,0,0,0-.35-2.11c-.12-2.38-2.36-1.55-3.46-2.41-2.47-1.94-5.49-2.82-8.22-4.27-1.63-.87-2.29.5-2.66,1.27S649.14,472.78,651.23,473.1Z"/><path d="M624.51,465c-1.36.18-2.31-1.74-3.54-.95-1.4.9-2.19.63-3-.58-.41-.62-.73-.24-1.06.1a6.59,6.59,0,0,0-1.37,1.43c-.34.68-1.95.65-1,2.13.7,1.09.93,2.42,2.68,1.87,1.55-.49,2.8.48,4,1.05s2.42,2.18,2.91-.67c.11-.64,1.15-.66,1.62,0,.63.81,1.43.66,2.24.64.45,0,1,0,.92-.13-.52-1-1-1.38-.94-1.78C628.14,465.54,626.81,464.7,624.51,465Z"/><path d="M649.49,481c1.26-.27,1.67.82,2.4,1.4.32.25.54.81,1.06.18.89-1.07,1.73-.61,2.37.27,1,1.36,2.89,1.32,3.86,2.76.52.78,1.76.69,1.73-.35,0-1.69,2-1.1,1.84-1.57a4,4,0,0,0-2.09-2.38c-1.33-.35-1.47-1.93-2-2a47,47,0,0,1-9-2.3c-.35.69-1.72.75-1.7,2.26C648,480.3,648,481.31,649.49,481Z"/><path d="M484.38,459c-.56-.89-1.62-.81-1.78-1.05a49.33,49.33,0,0,0-7.5-9.35c.85-2.16-1.73-2.44-2.21-4s-2.53-2.79-2.72-4.31-2.45-1.1-1.86-1.91c.93-1.29.43-1.79-.17-2.9s-.29-2-1.53-.59c-.77.84-1.54,1.9-2.77.48-.69-.79-.83.17-.81.44.11,1.68-2,1.91-2.16,3.65s-2.83,1-3.95,2.17c-.33.32-1.26,1.33-.42,1.25,2.68-.27,1.74,3.44,4.14,3.35.53,0,.56,1,0,1.62-.22.24-.59.46-.63.73-.1.64-.13,1.34.83,1.44a.94.94,0,0,0,1.12-.67c.11-.47,0-1,0-1.49a2.81,2.81,0,0,1,.44-.81c.18.23.52.47.52.69-.06,2.91,2.32,5.22,2,8.17-.17,1.6,1.7.69,2,1.6s-.34,2,.71,2.72a5,5,0,0,1,1.54,2.35c.34.8.71,1.13-.05,1.86-.23.23.78.41.9.6,1.13,1.76,3.33,3,2.93,5.56-.16,1,.31,1.61,1.37,1.39,1.25-.25,1.81.65,2.42,1.38.22.26.1.88,0,1.32-.17.83-1.9-.33-1.5,1,.15.54.84,1,.69,1.71-.09.46-.05,1.08-.33,1.34a1,1,0,0,1-1.65-.29c-.94-1.82-3.47-1.89-4.12-4.22-.48-1.73-2.15-3.1-2.83-4.81-.58-1.46-1.35-2.77-2-4.16s-1-3.24-2.93-3.69c.86-1.4-2-2.7-.12-4.12-2.62-3.15-4.44-6.79-6.41-10.34-.74-1.34-3.25-1.4-2.79-3.8.08-.42-2.21-.53-2.76.06a1.3,1.3,0,0,1-1.2.6,4.37,4.37,0,0,0-3.91,1.49,3.72,3.72,0,0,1-4.16.37c-1.87-1.27-3.1-.63-4.79.08-3,1.26-6.44,1.13-9.32,2.87a1.44,1.44,0,0,1-1.31,0,4.87,4.87,0,0,0-5.42-.14c-.36.19-.66.45-.69.05-.28-3.11-2-.6-2.83-.58-2.65.05-2.69.29-2.11,2.68.09.36.76.27.45,1.08-.74,1.95-3.38,2.64-3.2,5.1-1.2,0-2.68.93-2.18,1.69,1.57,2.4-1.4.7-1.47,1.83-.05.75-1.22,1.52-2,2.1a12.23,12.23,0,0,0-2.17,2c-1.84,2.18-5,2.19-7.49,3.43-1.53-.92-3.4-1.05-4.32-3.22s-1-4.64-2.88-6.3c.48-1.77-1.05-2.55-1.72-3.8-1.82-3.39-4.12-6.6-4.36-10.71-.07-1.11-1.26-2.12-1.68-3.27A91.84,91.84,0,0,1,378,429.54a91.7,91.7,0,0,0-3.6-12.51c-.48-1.24.1-1.63.39-2.49a2.72,2.72,0,0,0-1.17-2.3c-2-1.11-.48-3.32-1.65-4.53-1.49-1.53-1-3.39-.93-5.1a19.93,19.93,0,0,0-1.55-7.39c-.46-1.31,1.75-2.32-.21-3.68-1-.66-.76-2.91-1.33-4.34a14,14,0,0,0-1.88-3.75,2,2,0,0,1,.26-2.3c.22-.22.41-.47.61-.7-1.84-1.4-2.62-3-1.25-5.22.25-.42-1.89.34-1.33-1a1.8,1.8,0,0,0,0-1.47c-.32-1.45.54-3.15-.43-4.5s-.22-2.88.1-4.18c.4-1.56-1.14-2.71-.42-4.33.56-1.26,1-2.82-.42-4-.24-.21,0-.38.23-.72.87-1.11,1.56-2.32.85-3.81,1.59-1.11-.22-3.31,1.41-4.41-1.15-1.44.68-2.65.3-4.06a2.1,2.1,0,0,1,1.65-2.63c2.22-.32.86-1,.34-1.63a.51.51,0,0,1,0-.48c2.67-2.05,1.8-6.43,5.17-7.94a1.17,1.17,0,0,0,.8-1.49c-.17-1,.41-2,1.06-2,2.61-.18,3.08-2.95,4.86-3.82,3.86-1.89,7.68-4.13,12-4.63,1.07-.12,2-1.34,2.87-.67a2.81,2.81,0,0,0,2.77.51c3.33-1.32,6.45-.16,9.2,1.21,1.81.9,3.91.1,5.37,1.53a8.87,8.87,0,0,0,4.5,2.41c.91.18-.55,2.55,1.4,1.35s2.29-1.29,2.9.41c1,2.7,3.08,3.92,5.4,5.2A30,30,0,0,1,437,340.46c-.72,2,1.55,1.43,2.2,2.47,1.48,2.38,2.24,5.12,4.31,7.32a41.94,41.94,0,0,1,4.46,6.58,5.71,5.71,0,0,0,1,1.57c4.3,3.54,6.5,8.68,9.8,13,2,2.63,3.65,5.62,6.12,7.92a14.53,14.53,0,0,1,2.82,3.84c1,1.83,3,2.68,4.45,4s2.68,3.26,5.11,2.88a.58.58,0,0,1,.43.15c1.11,1.15,2.45,2.13,2.83,3.82,2-.11,2.49,2.54,4.48,2.48,0,2,2.38,2.43,2.7,3.85.38,1.68,1.59,3.11,1.38,5-.09.81-.92,3.81-1,4.67-.18,2.9-4.09,2.85-4.26,5.69,0,.58-.9.18-1.3.38-1.78.9-4.3.53-5.18,3-1.23-.28-1.73,1.52-3.09,1-1.05-.38-1.46,1.32-2.58,1-.6,2.58-3.73,1.75-4.93,3.68-.59.95-1,1.47-.13,2.47a62.1,62.1,0,0,1,4.93,6,30.11,30.11,0,0,1,2,4.16c1.43,3,3.65,5.4,4.85,8.48.48,1.25.64,3.45,3,3.25,2.13,2.14,2.32,5.46,4.54,7.59C486,456.72,485,458.09,484.38,459ZM382,337.11c-.33-1.62-.08-3,1.38-3.95.59-.37,1.68-.15,1.55.42-.51,2.24,1.72,4.07,1,6.07-.65,1.77,2,2.6.86,4-1.52,1.8.9,2.26,1,3.51,0,.37.2.89.26,1.36.58,4.51,2,8.85,2.85,13.28.43,2.31,1.84,4.59,1.11,7-.29,1,1.69,1.14.45,2.4-.65.66,1,1.69.61,2.88s.66,1.74.91,2.6c.3,1.08-.07,2.33.11,3.47.15.88,1.27,1.46,1,2.59s1.19,1.44,1,2.59c-.12.9-.35,1.9.52,2.78.59.59-.77,1.61.31,2.6a5.36,5.36,0,0,1,1.19,2.45c.63,3.39,2.58,6.52,1.95,10.18-.07.44.11,1.31.25,1.33,1.76.22,1.53,1.43,1.82,2.73.61,2.72,2.5,5.13,2,8.15,2.75,2.07,2.05,5.48,3.17,8.19.71,1.71,1.92,3.35,1.69,5.27-.22,1.75.63,3.13,1.24,4.5.48,1.05,1.72,2.88,1.5,3-1.65,1.21.06,2.21,0,3.25-.1,1.62.61,1.61,2.12,2.64,1.8,1.23,4.06-.62,5.49,1.31,1.45-2.16,3.73,1.62,5.22-.73.13-.21.86-.14,1.32.24,2.27,1.88,4.64.6,6-.87,1.18-1.31,2.46-.29,3.31-1.08s1.39,1.4,2.23,0c.24-.41,1.5-.24,2.3-.3,1-.08,2,.28,2.7-.79,0,0,.64.19.64.29-.06,1.62.45,1.77,1.44.56A2.44,2.44,0,0,1,447,440c1.67.36.38-2.22,2.09-2,2.61.28,4.8-1.22,7.17-2,3.66-1.16,6.43-6.51,5.12-10.09-.36-1-.76-2.23,0-2.64,2.13-1.14,3.21-3.36,5.57-4.4,4-1.75,8.25-3.1,11.33-6.54.65-.73,1.9-1,2.92-1.32,2.81-1,3.18-1.42,2.79-4.06-.13-.88-.63-1.53-.29-2.66.24-.82-1.13-2.07-1.65-3.2-.26-.55,0-1.38-.35-1.83-.46-.63-1,1.46-1.64.16-.25-.54,0-1.53-.89-1.38-1.62.27-2.26-1.33-3.34-1.59-1.93-.46-1.74-2.54-3.1-3.22-1.53-.76-3.28-1.13-4.46-2.5-.5-.58-.73-.5-1.46-.14-1.32.65-.43-1-1-1.34-1.28-.77-.69-2.07-.77-3.16-.15-2.21-2.7-.2-2.93-1.6s-.87-2.35-2-2.41c-1.79-.1-.77-1.92-1.89-2.51-.67-.35-2.53-3.95-3.39-4.53-.41-.28-1-.4-.82-1,.59-2.18-1.12-2.76-2.27-4-2-2.28-4.44-4.56-4.76-8-.16-1.77-.78-.55-1.37-.24a1.46,1.46,0,0,1-1.31-.08c-.58-.55.33-.66.47-1,.33-.84.32-1.25-.72-1.79-1.93-1-4.33-2.16-2.38-5.09.55-.82-.24-.86-.49-.81-1.76.38-.67-3-3.14-2.17-1.16.4.25-2-1.27-2.71A2.86,2.86,0,0,1,435,345c.18-.94-.94-1.78-1.41-1.8-2.52-.1-.75-1.19-.56-1.95.13-.51-.15-1.22-.57-1.16-4.06.65-5.14-3.88-8.46-4.82-1.82-.51-3-3-4.68-4.37a44.63,44.63,0,0,0-8.14-5.69c-1.3-.63-3.33-.17-4.21-1.8s-3.12,2.07-3.16-1.09c-2.93-.86-6.16.58-9-1.23a1.4,1.4,0,0,0-1.77.45c-.1.14-.23.34-.35.35-1.29,0-2.58,1.1-3.51,1a4.88,4.88,0,0,0-5.22,2.95c-.9,2.24-4,1.6-4.3,4.05,0,.13-3.22,3.23-3.29,3.3-.7.86.86,1,.55,1.38s-1.58.52-1.58.75c0,1.63-2.3,1.65-2.17,2.47.25,1.56-1.32,2.31-1.11,3.6.25,1.49-.9,2.09-1.72,2.78-1.31,1.12.94,1.79.09,3.26a17.73,17.73,0,0,0-1.73,5.7c-.27,1.75.31,3.88.34,5.86,0,.5.21,1.27,0,1.46-1.49,1.15-.89,2.71-1,4.13s-.5,3,.13,3.9c.8,1.15.16,2.29.66,3.43.36.81,1.52,2.13.32,3.69-.82,1.06,1.48,2.32.91,4s.39,3.43,1.07,5c1.15,2.72,2.94,5.37,1.28,8.45-.36.67,0,.78.24,1.08.44.49,1.4,1.18,1.29,1.4-1,2.12,2.34,4.11.13,6.25a1.88,1.88,0,0,0,.15,1.84c2.88,2.54,2.07,6.47,3.63,9.54.6,1.18.76,3,1.35,4.42s-.25,3,.87,3.76c1.51,1-.87,3.12,1.41,3.68.72.18.57,1.09.54,1.74-.18,3.61,1.2,6.69,2.89,9.81.78,1.44,2,2.95,2,4.62s2.61,3.42.19,5.21c.18.2.33.56.53.58.66.08,1.37,0,1.36,1a5,5,0,0,0,3,4.67c-.42,2.41,1.09,4.17,1.9,6.21a7.53,7.53,0,0,0,2.09,2.62c.9.89,3.91.72,3.85.06-.17-2,2.13-1.06,2.11-2.1-.07-2.49,2.12-.74,2.84-1.67.3-.39.8-.65,1-1.08s-1.12-.75-.53-1.36c.39-.41,1.12-.47,1.67-.76a2.45,2.45,0,0,0,.71-.69c2.15-2.93,2.1-6.48,2.89-9.81.42-1.78-2.27-1.8-1.56-3.48-2.86-2.9-2.22-7.48-5-10.42-.06-2.4.65-5-2-6.66.7-.69,1.28-1.19.57-2.45-1.38-2.42-3.21-4.79-2.61-7.9a1.12,1.12,0,0,0-.64-1.22c-1.6-.95-1.47-2.49-1.33-3.95a2.74,2.74,0,0,0-1.13-2.55,2,2,0,0,1-.92-1.62c.13-3.06-1-5.94-2.11-8.62-1.19-2.89-.15-6.46-2.84-8.84-.25-.22,0-1,0-1.47-.05-2.24.63-4.71-1.88-6.22.16-1.79-1.42-3.81-.92-4.94.91-2.05-1.17-3.51-.26-5.24-1.45-1.58-1.08-3.67-1.57-5.52-.57-2.12-.71-4.32-1.22-6.46-.94-3.94-1.16-8-2.95-11.8a2.68,2.68,0,0,1-.16-1.9A7.24,7.24,0,0,0,382,337.11Z"/><path d="M539.7,548c-1.56.48-2.67-.19-3.3-2.06-.44-1.3-1.35-.48-2.08-.13-.09-3-2.53-4.36-4.24-6.24.7-2-2.5-1-2.25-3.07.1-.81-1.77-1.81-2.61-2.83s-1.59-2.37-2.52-3.44c-1.08-1.25-2.33-2.37-3.51-3.55s-2.77-2-3-3.21c-.43-2-2.75-2.07-3-3.17-.34-1.62-2.9-1-2.34-3-2.77-.67-3.51-4-6.51-4.65-1.93-.39-2-3.48-4.2-4.06-.16-1.69-1.19-2.35-2.75-2.84-1.15-.37,1.38-1,.19-1.65-.52-.28-1.3,0-1.93-.17s-.52-.65-.67-1.12c-.92-2.77-1.06-2.87-4.55-4.94a2.85,2.85,0,0,1-.36-.34c-1.47-1.3-1.32-3.84-2.88-4.72a8.85,8.85,0,0,1-3.82-3.91,1.47,1.47,0,0,1,.28-2.09c.77-.72-.13-.79-.43-.82-1.51-.18-1.55-.88-.8-1.94s1.17-1.07,2.22-.19a5.36,5.36,0,0,1,1.49,1.36c.65,1,.48,2.86,2.52,3,1.22.07-1.94,1.48.24,1.76,1.35.17,1.9,1.28,2.61,2.1s2,.6,2.41,1.39c1.65,3,4.67,5.19,5.13,8.87.05.44.8.87.86.2.24-2.69,1.11-.88,1.83-.33a3,3,0,0,1,1.3,3c-.08.62,0,1.87.43,1.71,2.18-.75,2.21,1.72,3.59,2.15,2.82.86,4.85,2.88,6.88,4.93a52.7,52.7,0,0,1,5.13,5.93c1,1.32,3,2,3.6,3.44.73,1.59,2.11,2.44,2.9,3.8.67,1.13.93,2.42,2.69,1.89.19,0,.58.27.75.5.66,1-1.39,1.51-.52,2.36.61.58,2.41-.49,2.42.8,0,1.69,1.46,1,2,1.65,1.34,1.88,2.3,4.32,4.1,5.48,1.32.85.83,2.26,1.92,2.82-1.4,1.3-.31,1.82.63,1.22,1.6-1,2.93-1.81,4.86-.91.65.31,1.59.22,1.71-1.06a2.09,2.09,0,0,1,1.1-1.48c1.28-.52,2.09-1,1.91-2.7-.24-2.36-.36-2.12-2.24-4.54-2.08-2.68-5.48-4.56-5.84-8.46,0-.14-.1-.37-.2-.4-3.72-1-4.46-4.88-7-7-1.71-1.46-3.55-3-3.75-5.41s-2.18,1.73-2-.66c.07-1.09-1.38-1.44-1-2.58.56-1.84-1.85-1.32-1.87-2.1,0-1.14-1.19-1.54-1.15-2.57a1,1,0,0,0-.38-.81c-1.11-.53-2.26-1-3.4-1.44a1.63,1.63,0,0,0-.45-2.5,19.85,19.85,0,0,1-2.83-2.82c-.71-.83-1.83-1.28-2-2.68-.14-1.24-2.05-1.52-2-3.18,0-.91-2,0-1.94-1.58.13-2.09-3-1.22-3-3.17,0-1.57-1-2.66-1.69-3.8a21.15,21.15,0,0,0-3.45-3.58c-.47-.47-.94-1.33-1.42-1.33-5,0-4.56-4.56-6.21-7.33-.4-.66.25-.73.69-.71a1.37,1.37,0,0,1,.86.31c1.34,1.35,4.06.93,4.48,3.46,2.32-.28,3.76,1.31,4.74,2.88,1.13,1.82,2.94,3.12,3.81,4.91.56,1.14.87,1.47,2,1.43,1.41-.06,1.79,1.31,2.68,2s-.1,1-.35,1.41a1.3,1.3,0,0,0-.12.45c0,.8.29,1.18,1.13,1.17.62,0,1.42-.28,1.78.45a4.1,4.1,0,0,1,.09,1.46c0,.67.13,1.41,1,.56.46-.45,1-.37,1,.11-.1,1.9,1,3.25,1.86,4.75,1.16,2,1.13,1.92,4.23,3.28.78.35,3.24.24,1.46,2.34-.39.47-.46.82,0,1.06,2.34,1.14,2.16,3.8,3.4,5.61.31.45,0,1.14.93,1.41,2.61.78,2.83.79,3.07,1.82.51,2.19,2.8,2.52,4,4,.68.83,1.41,1,.6,2-.63.75-.48.86.41,1.12,3.11.92,4.06,1.85,5,5,.21.72,1,1,1,1.57,0,2.07.77,1.19,1.52.4.35.35.72.68,1.06,1,.94,1-1.67,1.78-.22,2.74.9.6,2.27-.21,3.08,1.06.6,1,2.1,1.5.64,3-.38.39.15,1.07,1,1.2,1.22.18,1.71,1.45,2.61,2.13a1.1,1.1,0,0,1,.27,1.35C552.47,543.82,548.12,547.8,539.7,548Z"/><path d="M398.61,360.1c.26-.54.42-.76.38-.81-1.52-1.88-1.49-4.53-2.76-6.33s-2.31-3.23-2.37-5.6c0-1.71-1.26-3.43-2.11-5.07-.5-1-2.46-1.9-1.64-2.66,1.44-1.32-.31-1.89-.12-2.79.12-.62-.18-1.32.47-1.81.38-.3.71-.67,1.07-1a6.37,6.37,0,0,1,.46.8c1.78,4.63,4.74,8.67,6.65,13.25.94,2.27,2.46,4.23,2.88,6.83.36,2.23,1.77,4.29,2.71,6.34s2.69,4.23,3.14,6.69a19,19,0,0,0,3.76,8.4c.91,1.16-.42,2.08.6,3,.72.65.65,2.11,1.32,2.88,1,1.13.84,2.35,1,3.63.19,1.72,2.83,2.45,2,4.66,1.8,1.53,1.31,4.22,2.86,5.79s1.05,4,3,5.33c.79.53.68,2.16.6,3.36-.2,2.82,1.82,4.94,2.69,7.39.8,2.28.31,5.19,2.59,6.91,2.05,1.55,1.88,4.22,3.06,6.26.91,1.57,2.45,2.43,3.31,4,1.16,2.14,1.18,2.71-1.06,3.8-1.3.64-3,.28-3-.88a2.82,2.82,0,0,0-2.15-3.1,1.81,1.81,0,0,1-1-1.57c-.51-3.93-2.79-7.17-4.38-10.67-.78-1.74-1.85-3.31-1.6-5.34.05-.47.11-1.22-.15-1.41-3.21-2.31-2.32-6.92-5.28-9.33-.79-.65-.46-1.49-.57-2.27-.19-1.4-.83-2.24-1.9-4.3a77.94,77.94,0,0,1-2.91-7.29c-.68-1.7-1.46-3.39-2.16-5.1-1.23-3-1.78-6.21-3.41-9.09s-2.51-6-3.75-8.94c-.41-1,.11-3-2.2-3.18C397.45,360.84,398.61,360.11,398.61,360.1Z"/><path d="M452.3,385.19a1.8,1.8,0,0,1,1.6,1.29c-.29,2.67,1.67,4,3.09,5.67s1.48,4.23,3.88,5.39c.83.4,1,3.11,1.48,3.13,1.76.06,1.33,2.34,2.5,2.26,1.71-.12.59,2.68,2.61,2.17.52-.13-1,1.71,1.07,2.17,1.78.38-.58,1.67-.56,2.71,0,1.27-.87,1.22-1.65.79-.51-.27-.78-1-1.44-.17a1,1,0,0,1-1.65,0c-.08-.09.57-.66.61-1,.05-.57-.51-.52-.94-.65a2.58,2.58,0,0,1-1.91-2c-.56-2.32-2.56-3.79-3.67-5.86a32.56,32.56,0,0,0-4.31-5.77c-2.08-2.36-3.25-5.46-5.71-7.59-.77-.67,1.32-1,.24-1.78a24.82,24.82,0,0,1-2.13-2.1c-.59-.59-1.23-1.14-1.76-1.78s-1.42-1.19-1.72-2.29c-.41-1.56-2-2.46-2.85-3.74s-1.63-2.71-3.38-3.11c-.52-.12-.51-.78-.75-1.05-2.09-2.28-3.28-5.21-6.22-7-2-1.21-3.39-3.78-4.67-6-1.05-1.79-2.72-3.36-3.35-5.08-.85-2.3-2.46-3.45-4.07-4.7s-2.09-3.92-4.47-4.64c-.49-.15-.81-1-1.17-1.47-1.45-2.16-2.4-4.68-5.12-5.85a4.48,4.48,0,0,1-2.19-3c-.28-1,.45-2.61,1.09-2.17,1.41,1,3.88,0,4.41,2.56.25,1.24,1.45-1.93,1.81.24.12.74-.42,2,.67,2.05,1.68.08,1.34,1.11,1.31,2,0,.61.32.79.76,1.06,2.48,1.51,5.09,2.94,5.26,6.36,2.91.71,3.19,3.53,4.45,5.57,3.25-1,2.11,2.42,3.39,3.44s1.41,3.84,2.56,4.24c2,.7,1.61,2.49,2.59,3.51.21.22.32.78.46.77,3.81-.13,3.66,5.07,7.23,5.35.59.05.62,1.36,1,2a4.57,4.57,0,0,0,2.14,2.05c2.46,1.47,4.43,3.37,4.23,6.63-.15,2.5,1.73-1.17,2,.66.27,1.64,2.82,2.21,2.07,4.62C450.78,386.33,451.79,385.69,452.3,385.19Z"/><path d="M392.78,329a3.08,3.08,0,0,1,2.67.86c.87,1,1.3,2.57,2.16,3a3.85,3.85,0,0,1,2.46,2.54,3,3,0,0,0,1.74,1.55c.63.25,1.34.25,1.17,1.13-.28,1.4.76,2,1.46,2.91,2.13,2.71,2.79,6.37,5.56,8.68.39,3,2.32,5.06,3.93,7.38.34.5,1.15,1.06,1,1.52-.86,2.92,2.56,4.43,2.23,7.11,3,2.87,2.58,7.28,4.79,10.51.31.46-.16,1.31.5,1.79,2.1,1.52,2.65,4,3,6.2.47,2.61,1.86,4.58,2.94,6.81.66,1.38,1.85,2.6,1.57,4.35a1.63,1.63,0,0,0,0,1c.86,1.32,1.77,2.6,2.68,3.89a7.38,7.38,0,0,1,1.38,1.93c.42,1.21-1.62,2.23-.48,2.72a5.54,5.54,0,0,1,2.3,1.62,32.09,32.09,0,0,1,2.1,3.61c1.15,2,1.23,4.7,3.59,6,1.08,4,4,6.79,6.71,9.7,1.15,1.23.56,3.08,1.67,4.32.08.08-.21.73-.39.77-.78.13-2.08.5-2.26-.17-.89-3.2-4-4-6-5.92-.7-.67-1.63-1.25-1.3-2.46.52-1.84-2.45-1.18-1.9-2,1.49-2.26-1.55-2.58-1.39-4.11-1.38-.12-1.9-.8-1.74-2.21a4.53,4.53,0,0,0-1.3-4,9.86,9.86,0,0,1-2.54-4.86c-.28-1.64-.4-2.51-2.25-2.17-.55.1-1.13-.5-.84-.86,1.28-1.57-.07-2.27-.71-3.43a17.8,17.8,0,0,1-1.66-3.77c-.65-2.59-3.51-4.36-2.69-7.42.11-.42.25-1.05-.33-1.34-2.68-1.38-2.55-4.32-3.41-6.59-.73-1.9-1-4-2.61-5.4-.77-.67-.61-1.45-.63-2.25s.25-1.82-1.36-2c-1.28-.16-1.53-1.85-2.19-2.91s.1-.88.67-1c.87-.18,1.2-.88.17-.91-2-.06-2-2-2.11-2.71-.36-1.76-.15-3.56-1.93-4.8-.13-.1,1.24-1.87-.87-1.59-.65.08-1.49.05-1.35-.9a6.59,6.59,0,0,0-1.47-4.87c-.85-1.12.38-3.68-2.32-3.48-.41-3.68-4.44-5.78-4.24-9.73,0-.49,0-.78-.7-.84-2.14-.2-2.21-.25-2.28-1.83-.1-2.26-.85-.78-1.57-.38-.35.19-1.21.24-1.28-.34a3.52,3.52,0,0,0-1.47-2.4c-.56-.46-.95-1-.67-1.7S392.14,329,392.78,329Z"/><path d="M386.84,428.66c.65-1.27-.46-1.78-1.11-2.4-.9-.85-1.1-1.61-.06-2.42a1,1,0,0,0,.27-1.32c-.84-.79-3.35-.78-1.15-2.81-1.08-1.17-.58-2.65-.82-4-.61-3.4-1.88-6.68-2-10.18-1.41-1-1.23-2.05-.09-3.13-1.54-1.11-.64-2.74-.92-4.12-.22-1.07-1.3-2.12,0-3.18-1.7-1.54,1-3.41-.38-5s-.29-3.51-.62-5.24a1.35,1.35,0,0,0-.11-.46,27,27,0,0,1-2-2.64c-.54-1.05.27-2.11-.25-2.54-1.12-.91,0-2.32-1-3.12a2.56,2.56,0,0,1-.49-3.18c1.39-1.8.71-2.89-.69-4-.38-.3-.47-.48-.12-.71,2.19-1.4-1.29-3-.16-3.65,2.23-1.21-.93-3,.76-3.95-1.7-2-.56-4.36-.89-6.54-.2-1.28.69-3.1-.37-3.76-1.54-.95.84-1.5-.25-2.73-1.58-1.78,1.25-4,.85-6.28a2.19,2.19,0,0,1,.83-.29c.6-.07.85.29.95.84.18,1.09-.47,2.26.56,3.29.59.6-.56,1.49.31,2.57s-.43,3,.81,4.65c.72.94-.2,2.58.18,4s.79,3.29-.5,4.7c-.33.35-.21.4-.1.74.28.83,2.57.79,1,2.49-1.18,1.27,1.37,2,.79,3.48-.5,1.2.57,2.06,1,3.08.2.55-.35.84-.6,1.24-.67,1.07-.35,1.94.19,3.1.69,1.5,2.79,3.13.65,5.11-.06.05.45.65.63,1,.84,1.82,1.57,3.69,2.53,5.44.32.59.91,1.17.58,1.74-1.73,2.93.89,5.8,0,8.69-.47,1.56,1.42,3.27.86,4-1.39,1.73.79,2.77.25,4.32-.42,1.22-.63,3,.89,4.05-.34,4.39,1.2,8.4,2.54,12.45.37,1.13-1.72,2.59.46,3.48-.1,1.47,1.62,2.46,1.06,4.05,2.16,1.6.32,3.15-.08,4.7-.09.36-.16,1-.89.37-1.75-1.45-2.36-3.72-4-5.26Z"/><path d="M439.94,395.46a1.19,1.19,0,0,0-.44-1.46,1.22,1.22,0,0,1,.05-2.05c.34-.3.7-.56,1.06-.84.13.27.38.55.37.83-.07,1.89.95,3.3,2.09,4.6,1.88,2.16,2.21,5,3.8,7.42s4.12,4.37,4.32,7.65c0,.62,1,1.4,1.7,1.72a5,5,0,0,1,3.12,5.12c0,.55,1.47.63.57,1.37-.4.34-1.64.41-1.83.14-1.25-1.83-4.37-1.56-4.76-4.28a.69.69,0,0,0-.22-.4c-3.1-2.66-5.66-5.64-6-10-2.06-1.6-2.62-4-2.72-6.3C441,397.62,438.06,397.58,439.94,395.46Z"/><path d="M420.13,435a3,3,0,0,1-2.91-1.25A23.93,23.93,0,0,1,412,421.53a2.93,2.93,0,0,0-1-2c1-.6,1-1.55,1-2.57s.48-.91,1.1-.31c1.24,1.2,3.61,4.76,3.84,6.24a2.16,2.16,0,0,0,1,1.57c1.15.78,1.11,1.88,1.07,3s-.29,2.33,1.59,2.87c.78.22.61,2.5,1.33,3.76C422.31,434.74,421.74,435.05,420.13,435Z"/></svg>