<svg width="1203" height="250" viewBox="0 0 1203 250" fill="none" xmlns="http://www.w3.org/2000/svg">
<path d="M236 68.0674L252.346 58.5295C253.618 62.0973 256.005 65.1532 259.149 67.2383C262.293 69.3234 266.024 70.3252 269.781 70.0931C278.792 70.0931 281.056 66.5059 281.056 63.2984C281.056 58.1497 276.32 56.1239 263.872 52.6633C251.424 49.2027 239.479 43.0832 239.479 27.3416C239.479 11.5999 253.016 2.01984 267.35 2.01984C273.682 1.79641 279.938 3.46442 285.33 6.81382C290.723 10.1632 295.01 15.0443 297.653 20.8423L281.642 30.4224C280.596 27.4784 278.638 24.9504 276.058 23.2106C273.477 21.4709 270.41 20.6111 267.308 20.7579C261.357 20.7579 258.423 23.7121 258.423 27.0462C258.423 30.3802 260.435 33.5032 273.344 37.4281C286.253 41.3529 300 45.8686 300 63.3406C300 79.4621 287.217 89 269.194 89C251.172 89 240.61 80.3484 236 68.0674Z" fill="black"/>
<path d="M308 57.6669C307.968 51.437 309.754 45.3372 313.133 40.1389C316.512 34.9405 321.333 30.8771 326.984 28.4624C332.636 26.0477 338.866 25.3901 344.886 26.573C350.905 27.7558 356.445 30.7258 360.803 35.1075C365.162 39.4891 368.143 45.0857 369.372 51.1893C370.6 57.293 370.019 63.6296 367.703 69.398C365.387 75.1663 361.44 80.1073 356.36 83.5961C351.281 87.0849 345.297 88.9649 339.166 88.9982H338.959C334.937 89.0425 330.946 88.2814 327.213 86.7583C323.48 85.2351 320.079 82.9798 317.204 80.1211C314.33 77.2623 312.037 73.8562 310.458 70.0972C308.879 66.3381 308.044 62.2998 308 58.2128V57.6669ZM352.434 57.6669C352.377 54.9722 351.538 52.3545 350.024 50.1419C348.509 47.9293 346.385 46.2203 343.918 45.2289C341.452 44.2376 338.752 44.008 336.158 44.5691C333.563 45.1301 331.189 46.4567 329.333 48.3827C327.478 50.3087 326.223 52.7484 325.726 55.396C325.229 58.0436 325.512 60.7813 326.54 63.2661C327.568 65.7508 329.295 67.8721 331.504 69.3639C333.713 70.8558 336.306 71.6519 338.959 71.6525C340.687 71.7028 342.407 71.4053 344.021 70.7771C345.635 70.1489 347.111 69.2025 348.363 67.9923C349.616 66.7821 350.62 65.3321 351.319 63.7258C352.017 62.1195 352.396 60.3886 352.434 58.6328V57.6669Z" fill="black"/>
<path d="M377 57.0773C377.02 50.2785 379.307 43.6727 383.513 38.2667C387.719 32.8608 393.613 28.9512 400.297 27.134C406.98 25.3168 414.086 25.6916 420.532 28.2013C426.978 30.711 432.41 35.2179 436 41.0351L420.23 49.9937C419.14 47.9113 417.463 46.1797 415.399 45.0051C413.334 43.8305 410.968 43.2624 408.583 43.3685C406.752 43.3685 404.939 43.722 403.247 44.4089C401.556 45.0957 400.019 46.1024 398.724 47.3715C397.429 48.6406 396.403 50.1473 395.702 51.8054C395.001 53.4636 394.64 55.2408 394.64 57.0356C394.64 58.8304 395.001 60.6076 395.702 62.2658C396.403 63.924 397.429 65.4306 398.724 66.6997C400.019 67.9688 401.556 68.9755 403.247 69.6624C404.939 70.3492 406.752 70.7027 408.583 70.7027C410.966 70.8047 413.327 70.2197 415.375 69.0199C417.422 67.8202 419.066 66.0584 420.102 63.9525L435.872 72.7861C433.152 77.4756 429.195 81.3617 424.417 84.0374C419.638 86.7131 414.213 88.08 408.71 87.9949C400.511 88.1411 392.584 85.1127 386.648 79.5667C380.711 74.0206 377.245 66.4041 377 58.369V57.0773Z" fill="black"/>
<path d="M441.001 10.86C440.969 8.74021 441.556 6.65839 442.688 4.87906C443.819 3.09973 445.445 1.70322 447.358 0.866971C449.271 0.0307193 451.385 -0.207522 453.432 0.182523C455.478 0.572568 457.364 1.57329 458.851 3.05753C460.338 4.54177 461.357 6.44254 461.781 8.51829C462.204 10.5941 462.012 12.7511 461.228 14.7154C460.445 16.6796 459.106 18.3624 457.381 19.5499C455.657 20.7374 453.624 21.3761 451.542 21.3846V21.3846C448.785 21.3745 446.141 20.2689 444.172 18.3032C442.203 16.3375 441.066 13.667 441.001 10.86V10.86ZM442.772 26.7518H460.231V86H442.772V26.7518Z" fill="black"/>
<path d="M503.411 72.8799C505.507 72.9778 507.602 72.6552 509.572 71.9312C511.542 71.2071 513.346 70.0963 514.88 68.6641L529.175 76.8848C526.165 80.9001 522.203 84.1042 517.647 86.2088C513.091 88.3135 508.083 89.2527 503.074 88.9419C482.665 88.9419 470.015 75.2407 470.015 57.4924C469.764 49.4065 472.731 41.5512 478.264 35.6481C483.797 29.7451 491.445 26.2758 499.532 26.0007H501.64C505.599 25.973 509.525 26.7252 513.194 28.2144C516.862 29.7036 520.201 31.9006 523.021 34.68C525.84 37.4595 528.084 40.7669 529.625 44.4134C531.165 48.0599 531.972 51.9742 532 55.9326C532 56.4806 532 56.9865 532 57.4924C531.993 59.8849 531.753 62.2711 531.283 64.617H489.116C491.393 70.8142 496.875 72.8799 503.411 72.8799ZM514.374 51.1688C513.509 48.4486 511.801 46.0742 509.496 44.3891C507.192 42.7041 504.411 41.7959 501.556 41.7959C498.701 41.7959 495.919 42.7041 493.615 44.3891C491.31 46.0742 489.602 48.4486 488.737 51.1688H514.374Z" fill="black"/>
<path d="M562.978 44.0931V64.6989C562.978 69.7268 567.316 70.1801 575 69.7268V85.5521C552.112 87.9012 545.461 81.0188 545.461 64.6989V44.0931H536V27.3199H545.419V16.2339L562.936 11V27.4847H574.959V44.2579L562.978 44.0931Z" fill="black"/>
<path d="M642 27.1255L622.023 84.5082C615.446 103.287 605.065 110.774 588.686 109.937V93.2077C596.958 93.2077 600.722 90.6146 603.286 83.379L580 27H599.481L612.468 63.1779L623.47 27L642 27.1255Z" fill="black"/>
<path d="M676 57.6669C675.968 51.437 677.754 45.3372 681.133 40.1389C684.512 34.9405 689.333 30.8771 694.984 28.4624C700.636 26.0477 706.866 25.3901 712.886 26.573C718.905 27.7558 724.445 30.7258 728.803 35.1075C733.161 39.4891 736.143 45.0857 737.372 51.1893C738.6 57.293 738.019 63.6296 735.703 69.398C733.387 75.1663 729.44 80.1073 724.36 83.5961C719.28 87.0849 713.297 88.9649 707.166 88.9982H706.959C702.937 89.0425 698.946 88.2814 695.213 86.7583C691.48 85.2351 688.079 82.9798 685.204 80.1211C682.33 77.2623 680.037 73.8562 678.458 70.0972C676.879 66.3381 676.044 62.2998 676 58.2128V57.6669ZM720.434 57.6669C720.377 54.9722 719.538 52.3545 718.023 50.1419C716.509 47.9293 714.385 46.2203 711.918 45.2289C709.452 44.2376 706.752 44.008 704.157 44.5691C701.563 45.1301 699.189 46.4567 697.333 48.3827C695.478 50.3087 694.223 52.7484 693.726 55.396C693.229 58.0436 693.512 60.7813 694.54 63.2661C695.568 65.7508 697.295 67.8721 699.504 69.3639C701.713 70.8558 704.306 71.6519 706.959 71.6525C708.687 71.7028 710.407 71.4053 712.021 70.7771C713.635 70.1489 715.111 69.2025 716.363 67.9923C717.616 66.7821 718.62 65.3321 719.319 63.7258C720.017 62.1195 720.396 60.3886 720.434 58.6328V57.6669Z" fill="black"/>
<path d="M768.192 27.2537H779V44.1749H768.192V86H750.767V44.1749H743V27.2537H750.767C750.767 10.6234 759.726 0.894704 779 2.1004V19.0217C772.507 18.4396 768.192 20.4353 768.192 27.2537Z" fill="black"/>
<path d="M295 175.341L311.101 165.889C312.34 169.44 314.685 172.487 317.783 174.569C320.881 176.651 324.564 177.656 328.275 177.432C337.151 177.432 339.381 173.919 339.381 170.699C339.381 165.638 334.716 163.631 322.454 160.202C310.193 156.772 298.385 150.834 298.385 135.109C298.385 119.385 311.679 110.017 325.839 110.017C332.063 109.811 338.208 111.467 343.509 114.776C348.81 118.086 353.031 122.903 355.647 128.627L339.917 137.953C338.881 135.04 336.951 132.538 334.411 130.815C331.87 129.092 328.852 128.237 325.798 128.376C319.936 128.376 317.046 131.346 317.046 134.649C317.046 137.953 319.027 141.048 331.743 144.937C344.459 148.826 358 153.301 358 170.615C358 186.549 345.408 196 327.656 196C309.904 196 299.541 187.552 295 175.341Z" fill="black"/>
<path d="M431 164.041C431 181.542 418.35 195.052 403.005 195.052C399.742 195.225 396.481 194.674 393.456 193.438C390.43 192.202 387.715 190.312 385.502 187.902V217H368V134.652H385.751V140.181C387.963 137.771 390.679 135.881 393.705 134.645C396.73 133.409 399.991 132.858 403.253 133.031C418.35 133.031 431 146.541 431 164.041ZM413.415 164.041C413.349 161.284 412.473 158.607 410.897 156.347C409.32 154.087 407.112 152.343 404.551 151.335C401.99 150.327 399.188 150.099 396.498 150.68C393.808 151.26 391.349 152.624 389.429 154.6C387.509 156.576 386.213 159.076 385.705 161.787C385.197 164.497 385.498 167.298 386.572 169.838C387.645 172.377 389.442 174.543 391.738 176.063C394.035 177.583 396.727 178.39 399.479 178.383C403 178.588 406.459 177.394 409.107 175.059C411.755 172.725 413.377 169.438 413.622 165.912C413.664 165.345 413.664 164.775 413.622 164.208L413.415 164.041Z" fill="black"/>
<path d="M439 118.724C439 116.603 439.616 114.529 440.77 112.766C441.923 111.002 443.563 109.628 445.482 108.816C447.4 108.005 449.512 107.792 451.548 108.206C453.585 108.62 455.456 109.641 456.925 111.141C458.393 112.641 459.393 114.551 459.798 116.632C460.203 118.712 459.995 120.868 459.201 122.828C458.406 124.787 457.06 126.462 455.334 127.64C453.607 128.819 451.577 129.447 449.5 129.447V129.447C446.722 129.425 444.064 128.289 442.099 126.282C440.135 124.276 439.022 121.561 439 118.724ZM440.729 134.662H458.188V194H440.729V134.662Z" fill="black"/>
<path d="M508 133.013V153.356C500.701 152.13 490.376 155.133 490.376 166.975V194H473V134.198H490.749V144.855C492.021 141.271 494.378 138.192 497.479 136.063C500.58 133.934 504.265 132.866 508 133.013Z" fill="black"/>
<path d="M515 118.724C515 116.603 515.616 114.529 516.77 112.766C517.923 111.002 519.563 109.628 521.482 108.816C523.4 108.005 525.512 107.792 527.548 108.206C529.585 108.62 531.456 109.641 532.925 111.141C534.393 112.641 535.393 114.551 535.798 116.632C536.203 118.712 535.995 120.868 535.201 122.828C534.406 124.787 533.06 126.462 531.334 127.64C529.607 128.819 527.577 129.447 525.5 129.447V129.447C522.722 129.425 520.064 128.289 518.099 126.282C516.135 124.276 515.022 121.561 515 118.724V118.724ZM516.771 134.662H534.229V194H516.771V134.662Z" fill="black"/>
<path d="M568.939 151.521V172.394C568.939 177.445 573.291 177.946 581 177.445V193.558C558.039 195.896 551.367 188.966 551.367 172.435V151.563H542V134.531H551.367V123.343L568.939 118V134.698H581V151.813L568.939 151.521Z" fill="black"/>
<path d="M649 134V194.294H631.109V188.623C629.071 191.103 626.484 193.061 623.557 194.335C620.631 195.61 617.448 196.166 614.27 195.957C602.272 195.957 592 187.429 592 171.012V134H609.849V168.369C609.709 169.666 609.824 170.978 610.187 172.23C610.55 173.482 611.154 174.649 611.964 175.664C612.774 176.678 613.774 177.52 614.906 178.142C616.039 178.763 617.282 179.152 618.563 179.285C619.109 179.348 619.66 179.348 620.205 179.285C626.773 179.285 631.277 175.447 631.277 166.876V134H649Z" fill="black"/>
<path d="M722 134.677V194.323H704.438V188.713C702.237 191.157 699.532 193.076 696.517 194.33C693.502 195.584 690.252 196.144 687 195.969C671.633 195.969 659 182.259 659 164.5C659 146.741 671.633 133.031 687 133.031C690.252 132.856 693.502 133.416 696.517 134.67C699.532 135.924 702.237 137.843 704.438 140.287V134.677H722ZM704.438 164.5C704.373 161.702 703.498 158.986 701.923 156.692C700.348 154.398 698.144 152.629 695.586 151.606C693.028 150.583 690.23 150.351 687.543 150.941C684.857 151.53 682.401 152.914 680.483 154.919C678.566 156.924 677.272 159.461 676.765 162.212C676.257 164.963 676.558 167.805 677.63 170.382C678.702 172.959 680.497 175.157 682.79 176.699C685.083 178.242 687.773 179.061 690.521 179.053C692.276 179.132 694.029 178.858 695.68 178.245C697.33 177.632 698.846 176.693 700.139 175.481C701.432 174.27 702.478 172.811 703.215 171.187C703.953 169.563 704.369 167.807 704.438 166.019C704.479 165.513 704.479 165.005 704.438 164.5V164.5Z" fill="black"/>
<path d="M735 107H754V194H735V107Z" fill="black"/>
<path d="M815 111V194H797V111H815Z" fill="black"/>
<path d="M886 157.585V194H868.19V160.186C868.461 157.61 867.697 155.033 866.067 153.019C864.437 151.006 862.073 149.721 859.495 149.446C858.951 149.383 858.401 149.383 857.857 149.446C851.304 149.446 846.81 153.222 846.81 161.654V194H829V134.678H846.81V140.258C848.843 137.818 851.424 135.892 854.344 134.638C857.264 133.384 860.44 132.837 863.612 133.042C875.793 133.042 886 141.559 886 157.585Z" fill="black"/>
<path d="M896 164.327C896.082 157.456 898.366 150.798 902.509 145.355C906.653 139.912 912.43 135.979 918.973 134.147C925.516 132.316 932.469 132.685 938.786 135.2C945.103 137.715 950.443 142.239 954 148.091L938.505 157.163C937.423 155.046 935.762 153.288 933.72 152.101C931.678 150.913 929.341 150.345 926.989 150.465C923.346 150.465 919.852 151.93 917.277 154.538C914.701 157.145 913.253 160.682 913.253 164.37C913.253 168.058 914.701 171.594 917.277 174.202C919.852 176.809 923.346 178.274 926.989 178.274C929.342 178.4 931.681 177.834 933.724 176.646C935.767 175.458 937.427 173.697 938.505 171.576L954 180.564C951.311 185.324 947.41 189.266 942.703 191.98C937.996 194.694 932.656 196.08 927.24 195.994C923.215 196.073 919.213 195.348 915.464 193.861C911.715 192.374 908.292 190.153 905.391 187.327C902.49 184.5 900.168 181.123 898.556 177.388C896.945 173.652 896.076 169.632 896 165.557V164.327Z" fill="black"/>
<path d="M959 118.724C959 116.603 959.586 114.529 960.685 112.766C961.784 111.002 963.346 109.628 965.173 108.816C967 108.005 969.011 107.792 970.951 108.206C972.891 108.62 974.673 109.641 976.071 111.141C977.47 112.641 978.422 114.551 978.808 116.632C979.194 118.712 978.996 120.868 978.239 122.828C977.482 124.787 976.2 126.462 974.556 127.64C972.911 128.819 970.978 129.447 969 129.447V129.447C966.354 129.425 963.823 128.289 961.952 126.282C960.081 124.276 959.021 121.561 959 118.724V118.724ZM960.686 134.662H977.314V194H960.686V134.662Z" fill="black"/>
<path d="M1036 176.455C1036 190.174 1024.41 196 1011.91 196C1000.32 196 991.425 191.483 987 181.816L1002.08 172.993C1002.69 175.148 1004 177.023 1005.79 178.305C1007.58 179.588 1009.74 180.201 1011.91 180.043C1016.01 180.043 1018.18 178.734 1018.18 176.328C1018.18 169.785 989.499 173.204 989.499 152.562C989.499 139.56 1000.15 133.016 1012.2 133.016C1016.72 132.851 1021.21 133.939 1025.18 136.166C1029.16 138.394 1032.49 141.679 1034.81 145.681L1019.98 154.123C1019.32 152.565 1018.23 151.239 1016.85 150.309C1015.46 149.38 1013.85 148.886 1012.2 148.889C1009.21 148.889 1007.36 150.071 1007.36 152.224C1007.53 158.894 1036 154.377 1036 176.455Z" fill="black"/>
<path d="M1044 118.724C1044 116.603 1044.65 114.529 1045.85 112.766C1047.06 111.002 1048.78 109.628 1050.79 108.816C1052.8 108.005 1055.01 107.792 1057.15 108.206C1059.28 108.62 1061.24 109.641 1062.78 111.141C1064.32 112.641 1065.36 114.551 1065.79 116.632C1066.21 118.712 1066 120.868 1065.16 122.828C1064.33 124.787 1062.92 126.462 1061.11 127.64C1059.3 128.819 1057.18 129.447 1055 129.447V129.447C1052.09 129.425 1049.3 128.289 1047.25 126.282C1045.19 124.276 1044.02 121.561 1044 118.724V118.724ZM1045.81 134.662H1064.1V194H1045.81V134.662Z" fill="black"/>
<path d="M1073 164.127C1072.98 157.798 1074.8 151.604 1078.24 146.328C1081.68 141.052 1086.58 136.93 1092.33 134.485C1098.08 132.04 1104.41 131.38 1110.52 132.59C1116.64 133.8 1122.26 136.825 1126.68 141.282C1131.11 145.739 1134.13 151.428 1135.37 157.631C1136.61 163.833 1136.01 170.269 1133.65 176.126C1131.29 181.982 1127.27 186.996 1122.11 190.534C1116.94 194.071 1110.86 195.972 1104.63 195.998C1100.54 196.048 1096.48 195.281 1092.69 193.739C1088.89 192.197 1085.43 189.911 1082.51 187.011C1079.58 184.111 1077.25 180.654 1075.64 176.837C1074.03 173.021 1073.18 168.919 1073.13 164.768L1073 164.127ZM1118.17 164.127C1118.09 161.398 1117.23 158.753 1115.68 156.52C1114.14 154.288 1111.98 152.569 1109.47 151.576C1106.97 150.584 1104.24 150.364 1101.61 150.942C1098.98 151.52 1096.58 152.872 1094.71 154.828C1092.84 156.785 1091.57 159.259 1091.07 161.941C1090.58 164.623 1090.87 167.395 1091.91 169.91C1092.96 172.425 1094.71 174.571 1096.95 176.08C1099.19 177.589 1101.81 178.395 1104.5 178.396C1106.26 178.47 1108.02 178.187 1109.68 177.564C1111.33 176.94 1112.85 175.988 1114.13 174.763C1115.42 173.538 1116.46 172.065 1117.18 170.43C1117.9 168.794 1118.29 167.029 1118.34 165.238C1118.36 164.868 1118.36 164.497 1118.34 164.127H1118.17Z" fill="black"/>
<path d="M1203 157.585V194H1185.19V160.186C1185.46 157.61 1184.7 155.033 1183.07 153.019C1181.44 151.006 1179.07 149.721 1176.5 149.446C1175.95 149.383 1175.4 149.383 1174.86 149.446C1168.35 149.446 1163.81 153.222 1163.81 161.654V194H1146V134.678H1163.81V140.258C1165.84 137.818 1168.42 135.892 1171.34 134.638C1174.26 133.384 1177.44 132.837 1180.61 133.042C1192.67 133.042 1203 141.559 1203 157.585Z" fill="black"/>
<path d="M217.339 176.273C214.025 179.554 210.405 182.511 206.53 185.104C202.882 187.471 199.066 189.569 195.112 191.38C189.569 193.99 183.195 196.378 177.015 198.683C174.243 199.682 171.749 200.627 169.172 201.46C161.714 203.878 154.443 206.839 147.416 210.318C146.038 211.024 144.845 212.045 143.935 213.3C143.025 214.554 142.423 216.006 142.178 217.538C141.928 220.204 142.288 222.891 143.231 225.397C145.558 231.363 148.916 236.872 153.153 241.669C153.784 242.394 154.194 243.285 154.335 244.236C154.476 245.188 154.342 246.159 153.948 247.037C153.554 247.914 152.917 248.659 152.113 249.184C151.309 249.71 150.371 249.993 149.412 250C148.707 249.978 148.012 249.828 147.361 249.556C144.783 248.389 124.912 239.087 117.014 225.313C115.677 222.997 114.74 220.472 114.242 217.843C113.625 214.326 113.886 210.709 115.003 207.318C116.121 203.926 118.059 200.864 120.644 198.405C120.702 198.301 120.777 198.207 120.866 198.127C132.257 186.242 147.97 180.605 163.213 175.19C169.671 172.913 175.962 170.608 181.754 167.942C189.04 164.938 195.591 160.391 200.96 154.613C201.821 153.447 202.374 152.081 202.567 150.642C203.141 147.165 202.658 143.595 201.182 140.396C200.38 138.598 199.167 137.015 197.641 135.775C196.114 134.535 194.317 133.673 192.396 133.259L186.271 122.707H186.438C197.246 122.318 205.837 127.122 210.216 136.036C214.595 144.95 213.597 155.224 208.637 161.028V161.195C202.57 167.803 195.174 173.046 186.936 176.579C180.424 179.661 173.467 182.132 166.677 184.576C156.035 188.408 145.06 192.324 136.192 198.461C133.309 200.441 130.643 202.722 128.238 205.264C126.724 206.551 125.561 208.202 124.859 210.062C124.156 211.922 123.936 213.931 124.219 215.9C125.141 219.508 127.063 222.781 129.762 225.341C131.203 226.873 132.75 228.302 134.391 229.617C133.882 228.218 133.456 226.79 133.116 225.341C132.328 222.297 132.131 219.129 132.534 216.011C132.998 213.026 134.132 210.185 135.851 207.703C137.569 205.221 139.827 203.163 142.455 201.682C144.487 200.518 146.588 199.479 148.746 198.572C153.486 196.489 159.499 194.323 166.068 191.99C174.133 189.019 182.863 185.909 190.318 182.549C194.105 180.923 197.741 178.962 201.182 176.69C205.247 173.974 208.969 170.776 212.267 167.165C219.223 159.417 224.572 148.31 218.059 135.258C211.768 122.651 200.073 116.625 183.14 117.236L177.597 107.545C207.445 104.574 220.969 118.652 227.094 130.732C234.577 146.338 230.919 162.666 217.339 176.273Z" fill="#191614"/>
<path d="M227.155 214.823C226.714 215.6 226.08 216.245 225.316 216.691C224.553 217.138 223.687 217.37 222.806 217.364H152.709C159.024 214.393 165.497 211.782 172.096 209.542C174.201 208.751 176.306 208.017 178.494 207.17H214.082L206.992 194.687C208.493 193.832 209.945 192.889 211.34 191.863C212.697 190.847 214.11 189.915 215.273 189.039L227.182 209.739C227.613 210.516 227.837 211.393 227.832 212.285C227.827 213.177 227.594 214.051 227.155 214.823Z" fill="#191614"/>
<path d="M105.697 217.364H5.02663C4.14584 217.373 3.27864 217.147 2.51343 216.71C1.74821 216.273 1.1124 215.64 0.670855 214.876C0.229308 214.113 -0.00218255 213.246 1.55086e-05 212.363C0.00221357 211.481 0.238004 210.614 0.68335 209.853L74.6025 83.4367C78.0882 82.6052 82.9018 81.552 87.826 80.665L13.7409 207.359H106.527C105.589 210.605 105.307 214.007 105.697 217.364V217.364Z" fill="#191614"/>
<path d="M193.35 151.033C190.932 153.352 188.232 155.363 185.312 157.02L136.084 73.8472L141.646 72.4127C143.141 71.9902 144.601 71.4553 146.013 70.8127L193.35 151.033Z" fill="#191614"/>
<path d="M113.913 176.108C84.6494 176.108 61.4994 152.841 60.5545 151.878C59.6313 150.956 59.1133 149.711 59.1133 148.413C59.1133 147.115 59.6313 145.869 60.5545 144.947C61.4994 143.957 84.6494 120.69 113.913 120.69C143.178 120.69 166.328 143.957 167.3 144.947C168.21 145.876 168.719 147.119 168.719 148.413C168.719 149.707 168.21 150.949 167.3 151.878C166.411 152.841 143.205 176.108 113.913 176.108ZM71.6153 148.385C78.8133 154.408 95.2378 166.152 113.913 166.152C132.589 166.152 149.069 154.436 156.239 148.413C149.041 142.39 132.589 130.563 113.913 130.563C95.2378 130.563 78.7855 142.39 71.6153 148.385Z" fill="#191614"/>
<path d="M113.608 175.493C108.31 175.493 103.132 173.922 98.7267 170.978C94.3218 168.035 90.8886 163.852 88.8612 158.957C86.8339 154.063 86.3034 148.677 87.337 143.481C88.3705 138.285 90.9216 133.513 94.6676 129.767C98.4137 126.02 103.186 123.469 108.382 122.436C113.578 121.402 118.964 121.933 123.858 123.96C128.753 125.987 132.936 129.421 135.879 133.826C138.823 138.23 140.394 143.409 140.394 148.707V148.707C140.394 155.811 137.572 162.624 132.548 167.647C127.525 172.671 120.712 175.493 113.608 175.493ZM113.608 131.955C110.289 131.955 107.045 132.94 104.286 134.783C101.527 136.627 99.3761 139.247 98.1061 142.313C96.8362 145.379 96.5039 148.753 97.1513 152.008C97.7987 155.263 99.3968 158.253 101.743 160.599C104.09 162.946 107.08 164.544 110.335 165.191C113.589 165.839 116.963 165.506 120.029 164.236C123.095 162.966 125.716 160.816 127.559 158.056C129.403 155.297 130.387 152.053 130.387 148.735C130.387 144.284 128.619 140.017 125.473 136.87C122.326 133.723 118.058 131.955 113.608 131.955V131.955Z" fill="#191614"/>
<path d="M113.916 154.557C117.317 154.557 120.074 151.8 120.074 148.399C120.074 144.998 117.317 142.241 113.916 142.241C110.516 142.241 107.759 144.998 107.759 148.399C107.759 151.8 110.516 154.557 113.916 154.557Z" fill="#191614"/>
<path d="M155.588 45.6479C153.957 50.2225 151.163 54.2919 147.482 57.4545C145.521 59.1317 143.332 60.522 140.981 61.5841C134.725 63.828 128.223 65.3166 121.615 66.0185C117.825 66.6282 113.786 67.2103 109.553 67.82L104.02 68.596C90.1874 70.5915 75.6355 72.9196 69.0235 76.4948L68.2489 76.9383C60.5026 81.2341 53.5032 87.8581 54.9142 93.5674C55.2486 94.9549 55.6549 96.3241 56.1315 97.6692L50.0174 108.09C47.7176 104.327 46.0625 100.206 45.1207 95.8955C42.3542 84.0888 53.2266 73.557 64.4864 67.6814C68.215 65.8209 72.1532 64.4158 76.2164 63.4964C85.3183 61.2238 96.8271 59.5332 108.115 57.9534L110.604 57.6208L116.137 56.7894C123.152 56.0235 130.074 54.566 136.803 52.4381C138.882 51.5662 140.763 50.2843 142.336 48.6688C144.077 46.8377 145.407 44.6548 146.237 42.2666C148.314 36.364 147.976 29.8778 145.297 24.224C143.609 20.8705 136.72 9.97845 117.216 10.3665C94.0052 10.8099 83.8244 16.4915 83.6584 18.681C83.9904 19.3462 86.1483 21.2308 95.6651 20.5102L98.4317 20.2885C99.5383 20.2885 100.673 20.1222 101.779 20.0668C111.324 19.3462 120.619 18.9027 125.71 20.0668C125.847 20.0391 125.988 20.0391 126.125 20.0668C135.835 22.6997 139.072 29.1019 138.823 34.2015C138.741 36.1079 138.189 37.9644 137.218 39.606C136.15 41.4172 134.692 42.9667 132.949 44.1414C131.207 45.3162 129.225 46.0865 127.148 46.3962L119.402 47.7542C109.636 49.3617 94.2542 51.8561 81.1962 55.1542C75.3679 56.471 69.6585 58.2694 64.1267 60.5309C37.2914 72.6147 34.9952 87.9412 36.0188 95.9509C36.8238 103.996 39.682 111.699 44.3184 118.317L38.979 127.463C31.6827 118.967 27.1977 108.411 26.1423 97.2535C24.759 86.4446 27.3595 66.1848 60.0876 51.4403C69.1554 47.7602 78.5601 44.9755 88.1679 43.1258V43.1258C98.7637 40.8254 109.608 39.0517 117.77 37.7213C120.896 37.2225 123.303 36.779 125.267 36.4464C127.674 36.003 128.78 34.7281 128.836 33.6749C128.891 32.6217 127.287 30.6262 123.496 29.6285C119.098 28.409 105.21 29.6285 99.2063 30.0165L96.4398 30.2382H95.5545C86.3696 30.7925 80.2003 29.4068 76.7144 25.887C75.6353 24.8064 74.806 23.5018 74.285 22.0652C73.764 20.6285 73.5639 19.0949 73.6989 17.5724C74.7225 1.99648 107.119 0.250422 117.05 0.0287007C134.286 -0.525603 148.174 6.98521 154.288 19.4293C156.246 23.4897 157.37 27.9026 157.593 32.4064C157.817 36.9102 157.135 41.4131 155.588 45.6479V45.6479Z" fill="#191614"/>
<path d="M73.3048 32.6348C72.1398 32.6233 71.0153 32.2059 70.1252 31.4543C69.2351 30.7028 68.6352 29.6644 68.4288 28.518C68.2224 27.3717 68.4225 26.1892 68.9946 25.1746C69.5668 24.1599 70.475 23.3766 71.5629 22.9597L79.6641 19.9466C80.8913 19.5502 82.2242 19.6429 83.3847 20.2052C84.5453 20.7675 85.4439 21.756 85.8932 22.9646C86.3425 24.1732 86.3078 25.5086 85.7963 26.6922C85.2848 27.8759 84.336 28.8164 83.1478 29.3176L75.0466 32.3308C74.4903 32.5407 73.8994 32.6439 73.3048 32.6348V32.6348Z" fill="#191614"/>
<path d="M99.4464 20.936C101.997 20.936 104.065 18.7305 104.065 16.0098C104.065 13.2892 101.997 11.0837 99.4464 11.0837C96.8958 11.0837 94.8281 13.2892 94.8281 16.0098C94.8281 18.7305 96.8958 20.936 99.4464 20.936Z" fill="#191614"/>
</svg>
