<svg width="660" height="900" viewBox="0 0 660 900" fill="none" xmlns="http://www.w3.org/2000/svg">
<g clip-path="url(#clip0_8_362)">
<path d="M500.372 253.196C500.343 249.311 500.313 245.425 500.283 241.54H494.193C494.193 245.667 494.193 249.433 494.193 253.197C496.223 253.225 498.253 253.252 500.283 253.28V253.196H500.372V253.196Z" fill="#2E2E2E"/>
<path d="M558.974 47.0511H553.067V52.9791C555.176 52.9791 557.077 52.9791 558.974 52.9794V47.0511Z" fill="#2E2E2E"/>
<path d="M429.307 270.585H441.575V270.499L441.621 270.542L441.576 270.499H441.666C441.666 268.674 441.666 266.849 441.666 265.023H441.579V264.937C437.49 264.937 433.4 264.937 429.31 264.937L429.311 265.022H429.221C429.221 266.848 429.221 268.674 429.221 270.5L429.307 270.498V270.585Z" fill="#2E2E2E"/>
<path d="M429.306 293.976V288.504H435.401V288.414H435.486V276.622H429.307V270.585H429.22V270.5C427.395 270.529 425.57 270.558 423.745 270.588V293.977C425.571 294.006 427.396 294.035 429.222 294.064V293.976H429.306V293.976Z" fill="#2E2E2E"/>
<path d="M482.372 141.593H477.063V146.919H482.372V141.593Z" fill="#2E2E2E"/>
<path d="M564.985 53.0669H559.062V58.3892H564.985V53.0669Z" fill="#2E2E2E"/>
<path d="M493.927 153.087V147.006C489.961 147.006 486.21 147.006 482.46 147.006C482.461 149.033 482.462 151.06 482.462 153.087H493.927V153.087Z" fill="#2E2E2E"/>
<path d="M564.99 35.1654C562.878 35.1654 560.976 35.1654 559.078 35.1648V41.0865H564.99V35.1654Z" fill="#2E2E2E"/>
<path d="M558.991 29.7488H553.071V35.0777H558.991V29.7488V29.7488Z" fill="#2E2E2E"/>
<path d="M458.881 323.635H453.405V311.986H453.32V311.895H447.25V300.313H441.86V294.07H453.32V293.98H453.404C453.376 292.155 453.349 290.33 453.321 288.504H447.23V270.585H447.141V270.499C445.316 270.499 443.49 270.499 441.665 270.499V270.585H441.575V288.414H435.486V288.504H435.401V293.976H429.307V294.066L429.222 294.064C429.222 296.096 429.222 298.128 429.222 300.159H429.307V300.25H435.234V311.896H429.306V311.986H429.222V317.462H423.745V317.547H423.655C423.653 319.575 423.651 321.604 423.649 323.632H423.737L423.649 323.719L423.737 323.632V323.719H429.125C429.125 325.633 429.125 327.474 429.122 329.318L429.205 329.318L429.206 329.416H441.375V335.369H429.312L429.313 335.457L429.269 335.413L429.313 335.457H429.226V340.766H423.905V335.457C425.682 335.457 427.454 335.457 429.226 335.457V335.369H429.312C429.275 333.386 429.239 331.403 429.206 329.416H429.118L429.205 329.318L429.122 329.412L429.122 329.318C427.432 329.321 425.741 329.321 423.737 329.321C423.737 327.268 423.737 325.492 423.737 323.719H423.649L423.649 323.632H417.565V317.547H417.48V317.456H412.009V300.245H411.918V300.16H405.829V288.504H405.739V288.42H400.263V282.325H400.178V282.235H393.998V276.768H382.497V282.396H388.528V288.418H394.085V293.98H400.165V311.895L400.253 311.893L400.209 311.937L400.253 311.893V311.981H405.563V317.302H400.254C400.254 315.524 400.254 313.753 400.253 311.981H400.165V311.895C398.139 311.925 396.112 311.955 394.085 311.985V317.547H388.523V335.205H382.258V317.547C380.433 317.547 378.608 317.547 376.783 317.547V323.475H364.956V317.552H353.323C353.323 321.6 353.323 325.335 353.316 329.075L353.405 329.071L353.316 329.173L353.316 329.075C351.329 329.178 349.337 329.282 347.043 329.4V335.516H341.371V341.075H335.518V347.254H341.463V352.675H341.551L341.463 352.763L341.551 352.675V352.763H353.029V358.704H341.551C341.551 356.72 341.551 354.742 341.551 352.763H341.463V352.675H329.825V358.862H335.128V365.128H329.823L329.723 370.597H329.809L329.765 370.64L329.81 370.597V370.684H335.12V376.623H329.81C329.81 374.639 329.81 372.661 329.81 370.684H329.721L329.723 370.597H317.963V376.935H311.805V382.334H311.892L311.805 382.422L311.892 382.334V382.422H317.819V388.365H311.892C311.892 386.376 311.892 384.399 311.892 382.422H311.805V382.334H305.622V394.077H305.71L305.622 394.165L305.711 394.077V394.165H311.636V400.105H305.711C305.711 398.119 305.711 396.142 305.711 394.165H305.622V394.077H299.969V400.417H294C294 406.233 294 411.831 293.994 417.436H294.083L293.994 417.538V417.436H282.098V429.214C280.223 429.313 278.541 429.403 276.692 429.501C276.692 431.576 276.692 433.471 276.685 435.368L276.774 435.364L276.685 435.465L276.685 435.368C274.699 435.465 272.708 435.563 270.419 435.675V447.358H264.843V452.778H264.93L264.843 452.866C264.898 452.806 264.946 452.745 264.93 452.866H270.238V458.809H264.93C264.93 456.821 264.93 454.843 264.93 452.866H264.843V452.778H258.56V459.131H253.069V476.476H241.283V494.332H229.605V506.009H223.382V517.793H211.708V529.582H206.109V541.247H199.887V547.465H194.577C194.483 549.361 194.398 551.057 194.298 553.059H188.426V559.168H194.217V564.763H182.036V570.986H176.687V576.294C178.521 576.384 180.212 576.468 181.859 576.549V582.683H170.473C170.382 584.592 170.301 586.282 170.206 588.291H164.702V599.958H158.561V606.023H158.648L158.561 606.11C158.616 606.05 158.664 605.99 158.648 606.11H164.57V612.055H158.648V606.11H158.561V606.023H152.945V612.406H146.814V623.948H146.902L146.814 624.035L146.902 623.948V624.035H152.91C152.91 625.948 152.91 627.789 152.907 629.633L152.99 629.632L152.99 629.731H158.458V635.494H152.986C152.986 633.651 152.986 631.693 152.99 629.731H152.903L152.99 629.632L152.906 629.727L152.907 629.633C151.011 629.636 149.115 629.636 146.902 629.636C146.902 627.583 146.902 625.807 146.902 624.035H146.814V623.948H141.154V629.675H135.053V641.457H129.453V647.558H123.631V653.154H129.359V659.367H117.709V664.864H111.5V676.642H106.006V682.853H99.7886V688.344H94.1985V700.122H88.0844V706.228H82.5962V718.004H76.2708V723.6H70.7897V735.994H64.5694V741.482H58.3642V753.261H52.8705V759.469H46.6547V764.959H41.0669V776.737H34.9537V782.955H29.3621V794.616H23.1407V800.212H17.6581V811.99H11.4386V817.912C9.5392 818.001 7.8515 818.081 5.8479 818.175V835.438H0V865.045H5.9311V864.958L6.0186 865.045L5.9311 864.957H6.0186V859.649H11.3414V864.957C9.5625 864.957 7.7906 864.957 6.0186 864.957V865.045H5.9311V876.805H11.6559V882.965H17.6719V882.878L17.7594 882.965H17.6719V888.625H29.5863V894.44H35.1857V888.647H41.2947V894.819H46.8954V900H58.5697V894.625H76.5287V888.403H82.4612C82.5661 886.503 82.6595 884.811 82.7702 882.806H88.2338V876.698H94.4533V871.1H99.9406V864.878H106.158V853.385C108.067 853.284 109.756 853.194 111.761 853.087V846.99H117.87V835.207H123.472V829.72H129.688V823.501H135.178V811.722H141.399V806.42C143.293 806.321 144.987 806.233 146.991 806.128V794.45H153.108V788.229H158.704V776.561H164.93V770.96H170.417V759.176H176.641V753.066H182.235V741.286H188.352V735.689H194.567V729.576H200.163V717.8H206.278V711.691H211.77V699.908H218.102V694.308H223.587V682.632H229.704V676.411H235.302V664.743H241.527V659.145H247.014V652.923H253.231V641.432C255.138 641.335 256.833 641.248 258.835 641.147V635.654H264.941V623.87H270.543V617.762H276.757V605.974H282.258V599.761H288.48V594.454C290.376 594.364 292.065 594.284 293.995 594.193V576.463H293.907L293.945 576.426L293.907 576.463V576.376H288.597V571.059H293.907C293.907 572.834 293.907 574.605 293.907 576.376H293.995V576.463H305.749V564.572H311.909V559.167H311.822L311.909 559.08L311.822 559.167V559.08H305.899V553.138H311.822C311.822 555.127 311.822 557.103 311.822 559.08H311.909V559.167H318.165V541.123H329.794V529.376H335.389V523.947H335.301L335.345 523.903C335.276 523.989 335.308 523.898 335.301 523.859H329.915C329.915 521.736 329.915 519.689 329.918 517.64L329.836 517.64L329.836 517.542H323.75V512.394H329.839C329.839 514.031 329.839 515.784 329.836 517.542H329.922L329.886 517.582L329.918 517.546L329.918 517.64C331.609 517.637 333.301 517.637 335.301 517.637C335.301 519.898 335.301 521.881 335.301 523.859H335.389V523.947H341.651V517.625H347.108V500.336H358.944V488.591H365.028V482.396H370.613V470.803H370.525L370.569 470.759L370.525 470.803V470.715H365.135C365.135 468.595 365.135 466.549 365.138 464.5L365.056 464.5V464.402H358.971V459.25H365.059C365.059 460.891 365.059 462.644 365.056 464.402H365.142L365.106 464.443L365.139 464.406L365.138 464.5C366.83 464.497 368.523 464.497 370.525 464.497C370.525 466.756 370.525 468.737 370.525 470.715H370.613V470.803H376.842V464.421H382.356V452.88H382.268L382.356 452.793L382.268 452.88V452.793H376.959V447.473H382.268C382.268 449.249 382.268 451.021 382.268 452.793H382.356V452.88H388.632V440.975H400.297V423.648H411.796V417.541H405.837V412.097H405.75L405.837 412.009L405.749 412.097L405.751 412.009H400.453V406.007C402.178 406.007 404.014 406.007 405.854 406.01L405.855 405.927L405.95 406.01L405.854 406.01C405.822 408.012 405.786 410.011 405.751 412.009H405.837V412.097H417.611V405.732H423.756V394.178H423.668L423.756 394.091L423.668 394.178V394.091H417.744V388.768H423.668C423.668 390.547 423.668 392.319 423.668 394.091H423.756V394.178H429.42V388.445H435.231V382.222H429.441V376.73H441.69V365.051H453.138V358.823H447.377V352.601H459.018V340.92H465.056V329.288H458.966V323.727H458.881V323.635V323.635ZM34.959 817.795H29.666V812.105H34.959V817.795ZM52.7524 846.907H47.011V841.619H52.7524V846.907ZM52.7879 806.157H46.9751V800.291H52.7879V806.157ZM64.5287 770.829H58.6181V765.068H64.5287V770.829ZM82.4435 764.645H76.6411V759.458H82.4435V764.645ZM82.7537 806.518H88.0486V811.672H82.7537V806.518ZM88.0561 859.237H82.7686V853.497H88.0561V859.237ZM94.0966 782.586H88.3606V776.684H94.0966V782.586ZM94.5968 747.643H99.6733V752.939H94.5968V747.643ZM99.695 853.064H94.4V847.312H99.695V853.064ZM99.7416 806.15H94.5604V800.299H99.7416V806.15ZM111.44 723.306H106.238V718.049H111.44V723.306ZM123.166 788.172H117.996V782.947H123.166V788.172ZM123.166 699.807H117.994V694.582H123.166V699.807ZM129.311 741.339H123.62V736.046H129.311V741.339ZM135.067 806.054H129.771V800.364H135.067V806.054ZM141.167 706.03H135.364V700.211H141.167V706.03ZM141.364 659.035V653.28H146.658V659.035H141.364ZM146.634 770.854H141.555V764.941H146.634V770.854ZM146.662 741.224H141.46V735.968H146.662V741.224ZM152.868 706.122H147.105V700.211H152.868V706.122ZM152.913 676.305H147.061V671.125H152.913V676.305ZM164.735 664.546H158.817V659.468H164.735V664.546ZM164.982 641.357H170.103V647.257H164.982V641.357ZM170.152 711.596H164.935V706.411H170.152V711.596ZM170.477 606.245H176.279V612.035H170.477V606.245ZM176.334 623.829H170.492V618.041H176.334V623.829ZM181.857 729.454H176.778V723.54H181.857V729.454ZM181.973 670.784H176.679V665.013H181.973V670.784ZM188.116 641.064H182.203V635.919H188.116V641.064ZM188.145 629.392H182.342V624.219H188.145V629.392ZM194.659 571.036H199.858V576.291H194.659V571.036ZM188.511 582.807H194.265V588.1H188.511V582.807ZM194.252 676.351H188.416V671.184H194.252V676.351ZM199.803 694.301H194.605V688.499H199.803V694.301ZM199.818 641.135H194.697V635.848H199.818V641.135ZM206.023 623.856H200.234V618.013H206.023V623.856ZM206.039 612.016H199.952C199.952 610.169 199.952 608.21 199.955 606.247H199.869L199.955 606.149L199.872 606.243L199.872 606.149C198.184 606.152 196.495 606.152 194.505 606.152V599.948H194.417L194.505 599.861L194.417 599.948V599.861H188.493V594.539H194.417C194.417 596.317 194.417 598.089 194.417 599.861H194.505V599.948H199.876C199.876 602.059 199.875 604.103 199.872 606.149L199.955 606.149L199.955 606.247H206.039V612.016V612.016ZM211.918 535.773H217.71V541.002H211.918V535.773ZM206.386 582.763H211.612V587.935H206.386V582.763ZM211.556 659.049H206.333V653.265H211.556V659.049ZM211.619 641.139H206.433V635.953H211.619V641.139ZM217.681 599.678H211.879V594.505H217.681V599.678ZM217.712 564.474H211.802V559.17H211.715L211.802 559.082C211.746 559.142 211.698 559.203 211.715 559.082H206.407V553.136H211.715V559.082H211.802V559.17H217.712V564.474ZM218.114 570.913H223.254V576.206H218.114V570.913ZM223.31 659.064H218.167V653.151H223.31V659.064ZM223.713 524.084H229.507V529.315H223.713V524.084ZM223.603 559.297H229.516V564.44H223.603V559.297ZM229.422 623.776H223.687V617.877H229.422V623.776ZM229.438 612.05H223.745V606.138H229.438V612.05ZM229.546 599.731H223.744V594.559H229.546V599.731ZM229.706 541.232H229.618V541.144H223.711V535.835H229.618V541.144H229.705L229.618 541.232L229.706 541.144V541.232H235.015V547.172H229.706C229.706 545.186 229.706 543.209 229.706 541.232ZM235.068 576.607V582.461H229.889V576.607H235.068ZM235.037 659.05H229.815V653.155H235.037V659.05ZM235.072 641.057H229.887V635.87H235.072V641.057ZM235.401 506.115H241.19V511.957H235.401V506.115ZM235.384 524.018H241.206V529.276H235.384V524.018ZM241.188 617.621H235.404V612.399H241.188V617.621ZM246.751 641.104H241.582V635.878H246.751V641.104ZM241.548 605.861V600.06H246.733V605.861H241.548ZM246.761 570.655H241.467V564.727H241.38L241.423 564.683L241.379 564.727V564.639H235.455V559.317H241.379C241.379 561.096 241.379 562.867 241.379 564.639H241.467V564.727H246.761V570.655V570.655ZM247.206 488.79H252.976V494.082H247.206V488.79ZM247.222 512.093V506.195H252.959V512.093H247.222ZM252.901 529.661V535.573H247.208V529.661H252.901ZM252.916 582.484H247.158V576.573H252.916V582.484ZM252.983 552.793H247.2V547.571H252.983V552.793ZM253.389 517.825H258.532V523.738H253.389V517.825V517.825ZM253.278 588.364H258.536V594.185H253.278V588.364ZM258.545 623.854H253.378V618.016H258.545V623.854ZM276.449 571.068V576.361H270.696V571.068H276.449ZM270.707 547.206V541.31H276.439V547.206H270.707ZM270.667 512.023V506.157H276.478V512.023H270.667ZM270.594 464.792H276.443V470.585H270.594V464.792ZM258.854 576.57H264.657V582.39H258.854V576.57ZM258.913 559.285H264.751V564.452H258.913V559.285ZM258.911 547.259V541.362H264.642V547.259H258.911ZM264.673 505.782H258.879V500.55H264.673V505.782ZM270.238 612.055H264.929C264.929 610.069 264.929 608.092 264.928 606.114H264.841V606.027H258.933V600.099H264.841V606.027H264.928L264.884 606.07L264.928 606.027V606.114H270.238V612.055V612.055ZM270.259 535.464H265.036V529.569H270.259V535.464ZM270.489 488.708H270.401V488.62H265.034C265.034 486.509 265.034 484.464 265.037 482.416L264.954 482.417V482.318H258.87V476.556H264.958C264.958 478.399 264.958 480.356 264.954 482.318H265.041L264.954 482.417L265.037 482.322V482.416C266.726 482.413 268.415 482.413 270.401 482.413V488.62H270.489L270.401 488.708L270.489 488.621V488.708H276.413V494.031H270.489C270.489 492.251 270.489 490.48 270.489 488.708V488.708ZM270.516 523.64V517.948H276.428V523.64H270.516ZM276.577 594.088H270.677V588.352H276.577V594.088ZM288.597 429.477H293.771V435.278H288.597V429.477ZM293.769 529.58V535.383H288.597V529.58H293.769ZM293.768 482.348H288.601V476.511H293.768V482.348ZM282.338 458.843V453.055H288.18V458.843H282.338ZM282.381 512.21H288.135V517.503H282.381V512.21ZM276.688 435.461L276.771 435.368L276.771 435.461C278.462 435.458 280.154 435.458 282.161 435.458C282.161 437.504 282.161 439.281 282.161 441.054H282.25V441.142H288.159V447.069H282.25V441.142H282.162L282.25 441.054L282.161 441.142V441.054H276.768C276.768 439.144 276.768 437.304 276.771 435.461L276.688 435.461V435.461ZM276.837 476.569H282.13V482.259H276.837V476.569ZM288.157 564.475H282.247V559.169H282.16L282.203 559.125L282.159 559.169V559.081H276.853V553.138H282.159C282.159 555.127 282.159 557.104 282.159 559.081H282.247V559.169H288.157V564.475V564.475ZM288.41 500.209C288.41 498.223 288.41 496.246 288.41 494.269H288.322V494.181H282.414V488.871H288.322V494.181H288.41L288.366 494.225L288.41 494.181V494.269H293.719V500.209H288.41V500.209ZM293.771 552.69H288.486V547.567H293.771V552.69ZM300.27 406.105H305.47V411.907H300.27V406.105ZM305.535 476.482V482.377H300.313V476.482H305.535ZM299.863 523.833H294.171V517.921H299.863V523.833ZM299.945 464.429H294.162V459.207H299.945V464.429ZM294.066 447.114V441.301H299.933V447.114H294.066ZM300.151 423.824H300.063V423.736H294.077C294.077 421.625 294.077 419.581 294.08 417.534L293.997 417.534C293.994 417.538 294.083 417.436 294.08 417.44L294.08 417.534C295.973 417.531 297.866 417.531 300.063 417.531V423.736H300.151L300.063 423.824L300.151 423.736V423.824H305.459V429.148H300.151C300.151 427.368 300.151 425.596 300.151 423.824V423.824ZM305.471 540.944H300.176V535.866H305.471V540.944ZM305.502 512.001H300.348V506.18H305.502V512.001ZM305.545 494.071H300.359V488.885H305.545V494.071ZM305.931 441.15H311.623V447.062H305.931V441.15ZM305.862 458.802V452.986H311.727V458.802H305.862ZM311.675 464.78V470.691H305.914V464.78H311.675ZM311.798 523.643H305.9V517.908H311.798V523.643ZM323.739 382.61H329.581V388.398H323.739V382.61ZM318.243 394.332H323.543V405.817H323.632L323.543 405.905L323.632 405.817V405.905H329.556V411.846H323.632C323.632 409.859 323.632 407.882 323.632 405.905H323.543V405.817H318.243V394.332ZM318.069 429.299V429.387H323.543V435.478H323.631L323.543 435.566L323.631 435.478V435.566H329.555V440.889H323.632C323.632 439.11 323.631 437.338 323.631 435.566H323.543V435.478H318.069C318.069 433.368 318.069 431.377 318.069 429.387H317.981V429.299H312.075V423.989H317.981V429.299H318.069L318.025 429.343L318.069 429.299V429.299ZM323.54 453.016V458.77H318.246V453.016H323.54ZM312.065 412.296H317.983V417.374H312.065V412.296ZM318.072 500.447H317.984V500.359H312.074V494.434H317.984V500.359H318.071L317.984 500.447L318.072 500.359V500.447H323.379V505.772H318.072C318.072 503.991 318.072 502.219 318.072 500.447ZM323.386 535.448H318.092V529.694H323.386V535.448ZM329.561 488.471H323.654V482.54H323.566L323.61 482.496L323.566 482.54V482.452H318.256V476.515H323.566C323.566 478.5 323.566 480.476 323.566 482.452H323.654V482.54H329.561V488.471V488.471ZM329.609 470.5H323.819V464.698H329.609V470.5ZM335.091 500.356H330.012V494.442H335.091V500.356ZM335.128 452.648H329.833V447.508H335.128V452.648ZM376.908 365.225H382.078V370.45H376.908V365.225ZM365.212 329.443H370.504V335.375H370.592L370.504 335.462L370.592 335.375V335.462H376.517V340.783H370.592C370.592 339.005 370.592 337.234 370.592 335.462H370.504V335.375H365.212V329.443ZM376.549 347.389V358.851H370.805V347.389H376.549ZM365.031 365.035L364.944 365.123L365.031 365.035V365.123H370.34V370.443H365.032C365.032 368.666 365.032 366.894 365.031 365.123H364.944V365.035H359.035V359.106H364.944V365.035H365.031ZM359.011 347.329H364.862V352.509H359.011V347.329ZM347.28 346.945V341.022C349.269 341.022 351.246 341.022 353.224 341.022V340.934H353.312C353.341 337.014 353.369 333.093 353.401 329.169H353.319L353.402 329.075L353.401 329.169C355.091 329.166 356.78 329.165 358.638 329.165V340.934H353.312L353.311 341.022L353.224 340.934C353.284 340.99 353.344 341.038 353.224 341.022V346.945H347.28V346.945ZM335.587 382.608H341.323V388.507H335.587V382.608ZM341.389 394.355V405.697H335.588V394.355H341.389ZM335.515 435.677H341.286V440.971H335.515V435.677ZM341.344 459.208V464.429H335.564V459.208H341.344ZM341.376 482.267H335.534V476.481H341.376V482.267ZM346.859 429.147H341.551C341.551 427.368 341.551 425.597 341.551 423.825H341.463V423.738H335.548V412.252H341.463V423.738H341.551L341.507 423.782L341.551 423.738V423.825H346.859V429.147ZM353.003 494.113H347.277V482.667H353.003V494.113ZM353.128 464.36H347.264V459.168H353.128V464.36ZM353.017 447.327V452.619H347.265V447.327H353.017ZM347.28 440.864V435.677H353.112V440.864H347.28ZM353.296 405.923H353.208V411.832H347.28V405.923H353.208V405.835L353.252 405.879L353.208 405.835H353.296V400.527H358.616V405.835C356.839 405.835 355.067 405.835 353.296 405.835V405.923ZM358.612 476.061H353.317V470.984H358.612V476.061ZM358.854 429.148C358.854 427.368 358.854 425.596 358.854 423.824H358.766V423.736H353.472V417.81H358.766V423.736H358.854L358.766 423.824L358.854 423.737V423.824H364.778V429.148H358.854ZM364.813 441.033H359.059V435.739H364.813V441.033ZM359.009 382.464V382.55C359.009 382.55 358.906 382.46 358.91 382.464C358.906 382.46 359.009 382.55 359.005 382.546L358.91 382.544C358.914 384.433 358.914 386.321 358.914 388.381H353.296V382.422L353.208 382.42V382.332H347.113C347.113 380.431 347.113 378.646 347.112 376.862H347.025L347.026 376.775H341.744V370.785C343.477 370.785 345.311 370.785 347.151 370.788L347.152 370.705L347.251 370.705V365.237H353.015V370.709C351.171 370.709 349.213 370.709 347.251 370.705V370.792L347.21 370.756L347.247 370.788L347.151 370.788C347.111 372.786 347.069 374.78 347.026 376.775H347.112L347.025 376.862L347.112 376.775V376.862H353.208V382.332H353.295L353.208 382.42C353.265 382.358 353.311 382.301 353.296 382.422C355.166 382.461 357.036 382.501 358.91 382.544V382.464H359.009V376.981H370.42V382.468C366.632 382.468 362.823 382.468 359.009 382.464V382.464ZM365.192 388.729H370.314V394.017H365.192V388.729ZM370.327 452.623H365.251V447.329H370.327V452.623ZM376.596 440.866H370.759V435.699H376.596V440.866ZM376.772 411.845C376.772 409.861 376.772 407.884 376.772 405.906H376.684V405.819C374.66 405.817 372.636 405.816 370.611 405.814V405.902L370.568 405.858L370.611 405.902H370.524V411.826H365.201V405.902C366.98 405.902 368.752 405.902 370.524 405.902V405.814L370.611 405.814V400.516H376.684V405.819L376.772 405.819L376.728 405.862L376.772 405.819V405.906H382.083V411.845H376.772V411.845ZM376.909 393.932V388.707H382.078V393.932H376.909ZM382.158 423.673H376.936V417.779H382.158V423.673ZM382.19 382.195H376.904V377.072H382.19V382.195ZM382.535 341.193H388.227V347.104H382.535V341.193ZM388.26 435.335H382.467V429.49H388.26V435.335ZM393.834 394.364V400.167H388.634V394.364H393.834ZM388.728 388.357V382.443H393.807V388.357H388.728ZM388.714 406.078H393.794V411.993H388.714V406.078ZM393.859 423.632H388.716V417.719H393.859V423.632ZM400.254 382.186C400.254 380.41 400.254 378.636 400.254 376.863H400.166V376.775H394.094V365.137H394.007L394.094 365.049L394.006 365.137V365.049H388.618C388.618 362.928 388.619 360.881 388.622 358.832L388.539 358.832L388.539 358.734H382.455V352.969H388.542C388.542 354.814 388.542 356.771 388.539 358.734H388.625L388.539 358.832L388.622 358.738L388.622 358.832C390.313 358.829 392.006 358.829 394.006 358.829C394.006 361.09 394.006 363.071 394.006 365.049H394.094V365.137H400.166V376.775H400.254L400.166 376.863L400.254 376.775V376.863H411.73V382.186H400.254V382.186ZM411.732 405.931C409.868 405.931 407.912 405.93 405.952 405.927L405.954 406.013L405.855 405.927H405.952C405.906 404.067 405.86 402.207 405.814 400.347H405.724V400.26H400.434V394.327H405.724V400.26H405.812L405.724 400.347L405.812 400.26L405.814 400.347H411.732V405.931ZM411.741 370.453H405.948V365.223H411.741V370.453ZM411.748 358.705H405.837V352.776H405.75L405.837 352.688L405.75 352.776V352.688H400.358C400.358 350.778 400.358 348.937 400.361 347.093L400.278 347.093L400.278 346.995H394.194V341.228H400.281C400.281 343.073 400.281 345.031 400.278 346.995H400.364L400.278 347.093L400.361 346.998V347.093C402.051 347.089 403.742 347.089 405.749 347.089C405.749 349.14 405.749 350.916 405.75 352.688H405.837V352.776H411.748V358.705V358.705ZM417.558 352.525C417.558 350.744 417.558 348.972 417.558 347.2H417.471V347.112H412.1C412.1 345.004 412.1 342.96 412.103 340.912L412.02 340.912L412.02 340.814H405.835C405.835 338.973 405.835 337.208 405.835 335.443L405.75 335.441V335.353H400.315V329.28H394.191V323.91H405.75V335.353H405.836L405.75 335.441L405.835 335.354V335.443C407.901 335.483 409.967 335.523 412.037 335.566L412.037 335.485L412.135 335.485V329.397H417.28V335.488C415.645 335.488 413.893 335.488 412.135 335.485V335.571L412.037 335.485C412.033 335.481 412.135 335.571 412.131 335.568L412.037 335.566C412.035 337.316 412.029 339.064 412.02 340.814H412.106L412.074 340.851L412.103 340.818L412.103 340.912C413.792 340.909 415.482 340.909 417.471 340.909V347.112H417.558L417.514 347.156C417.583 347.07 417.551 347.161 417.558 347.2H423.481V352.525H417.558V352.525ZM423.525 382.234H417.753V370.764H423.525V382.234ZM423.546 364.956H417.733V359.088H423.546V364.956ZM447.405 329.372H453.195V335.174H447.405V329.372ZM441.415 358.87C439.44 358.87 437.459 358.87 435.479 358.871L435.479 358.958H435.391V364.87H429.466V358.958H435.391V358.871L435.435 358.914L435.392 358.871H435.479C435.485 356.839 435.491 354.808 435.497 352.776H435.41L435.497 352.689L435.409 352.776V352.689H429.486V347.367H435.409C435.409 349.145 435.409 350.917 435.409 352.689H435.497L435.497 352.776H441.415V358.87V358.87ZM435.613 323.555V317.753H446.956V323.555H435.613ZM453.233 346.957H441.809V341.142H453.233V346.957Z" fill="#2E2E2E"/>
<path d="M400.263 282.325H405.739V282.239H405.825V276.678H400.261L400.263 276.768L400.178 276.767V282.235H400.263V282.325V282.325Z" fill="#2E2E2E"/>
<path d="M482.344 164.633H500.162V158.868C494.113 158.868 488.225 158.868 482.344 158.86V164.633Z" fill="#2E2E2E"/>
<path d="M405.739 282.325C405.739 284.357 405.739 286.388 405.739 288.42H405.829V288.504H411.919V300.16H412.009V300.245H417.48V317.456H417.565V317.547H423.655L423.655 317.462H423.745V311.986H429.222V311.896H429.307C429.307 308.014 429.307 304.132 429.307 300.25H429.222V300.159H423.66V294.066H417.48V270.588C415.654 270.558 413.828 270.529 412.002 270.5L412.004 270.588L411.919 270.588V282.239H405.825V282.325H405.739V282.325Z" fill="#2E2E2E"/>
<path d="M482.373 153.174H477.031V158.773H482.269C482.304 156.907 482.339 155.041 482.373 153.174Z" fill="#2E2E2E"/>
<path d="M447.141 265.023V270.499H447.231V270.585H453.316L453.316 270.5H453.406V265.023H453.32V264.937H447.227V265.023H447.141Z" fill="#2E2E2E"/>
<path d="M517.577 158.59H512.017V153.192C509.951 153.23 507.885 153.267 505.825 153.298V164.821C510.079 164.821 513.83 164.821 517.577 164.821V158.59Z" fill="#2E2E2E"/>
<path d="M600.657 58.5311V64.7331H605.957C605.913 62.6637 605.869 60.5943 605.831 58.5311H600.657V58.5311Z" fill="#2E2E2E"/>
<path d="M552.666 58.7006H547.523V70.1719H552.666V58.7006V58.7006Z" fill="#2E2E2E"/>
<path d="M482.449 276.679C482.449 272.794 482.449 268.908 482.449 265.023H482.363V264.937H476.887V265.023H476.801C476.801 268.908 476.801 272.794 476.801 276.679H476.892L476.891 276.764H482.358V276.679H482.449V276.679Z" fill="#2E2E2E"/>
<path d="M494.318 123.529C494.318 125.777 494.318 127.751 494.31 129.715H500.275C500.275 127.326 500.275 125.424 500.275 123.529H494.318Z" fill="#2E2E2E"/>
<path d="M488.544 258.758H482.451L482.452 258.843L482.409 258.801L482.452 258.843H482.362C482.362 260.874 482.362 262.905 482.362 264.937H482.449V265.023H488.537V264.938L488.628 264.94V258.847L488.543 258.848L488.544 258.758V258.758Z" fill="#2E2E2E"/>
<path d="M512.104 153.102H517.425V147.178H512.104V153.102Z" fill="#2E2E2E"/>
<path d="M494.221 129.791H488.819V135.179H494.113C494.149 133.383 494.185 131.587 494.221 129.791Z" fill="#2E2E2E"/>
<path d="M470.623 317.547V323.642H465.147V323.727H465.058C465.087 325.552 465.116 327.378 465.145 329.203H476.803V317.546C474.771 317.517 472.74 317.487 470.708 317.458V317.547H470.623V317.547Z" fill="#2E2E2E"/>
<path d="M500.379 141.445V153.212H505.749V141.445H500.379V141.445Z" fill="#2E2E2E"/>
<path d="M576.793 11.812H570.981V17.6789H576.793V11.812V11.812Z" fill="#2E2E2E"/>
<path d="M517.665 170.236H529.137V164.909H517.665V170.236Z" fill="#2E2E2E"/>
<path d="M582.291 76.5477H576.983V81.8705H582.291V76.5477Z" fill="#2E2E2E"/>
<path d="M494.199 141.358H500.291V135.266C498.025 135.266 496.11 135.266 494.199 135.266V141.358Z" fill="#2E2E2E"/>
<path d="M470.622 265.023V264.937H465.147V265.023H465.061C465.061 268.906 465.061 272.79 465.061 276.673H465.145V276.764H470.623V276.673H470.708V265.023H470.622Z" fill="#2E2E2E"/>
<path d="M611.951 11.7678H606.158V17.6152H611.951V11.7678V11.7678Z" fill="#2E2E2E"/>
<path d="M482.449 200.144V205.619C484.447 205.658 486.446 205.697 488.445 205.736V200.144H482.449V200.144Z" fill="#2E2E2E"/>
<path d="M482.359 205.702H476.892V217.179H482.359V205.702Z" fill="#2E2E2E"/>
<path d="M623.77 35.2776H617.928V41.0661H623.77V35.2776Z" fill="#2E2E2E"/>
<path d="M623.729 0H617.97V5.9114H623.729V0Z" fill="#2E2E2E"/>
<path d="M559.08 93.8669V99.7901H564.99V93.8675C562.879 93.8675 560.978 93.8675 559.08 93.8669V93.8669Z" fill="#2E2E2E"/>
<path d="M512.109 229.097H517.586V223.62H512.109V229.097Z" fill="#2E2E2E"/>
<path d="M493.994 205.832C492.071 205.832 490.292 205.832 488.521 205.824V211.596H493.994V205.832Z" fill="#2E2E2E"/>
<path d="M482.364 194.132H476.886V200.054C478.712 200.054 480.538 200.054 482.364 200.054V194.132Z" fill="#2E2E2E"/>
<path d="M635.467 6.27881H629.714V11.5722H635.467V6.27881Z" fill="#2E2E2E"/>
<path d="M470.631 194.121H465.322V200.061H470.631V194.121Z" fill="#2E2E2E"/>
<path d="M493.945 235.173V217.64H488.736V235.173H493.945Z" fill="#2E2E2E"/>
<path d="M529.305 241.25H535.402V223.752C533.275 223.752 531.286 223.752 529.305 223.744V241.25Z" fill="#2E2E2E"/>
<path d="M647.199 29.4896V23.5903H641.463V29.4896H647.199Z" fill="#2E2E2E"/>
<path d="M617.505 64.8212H606.048V70.1321H617.505V64.8212Z" fill="#2E2E2E"/>
<path d="M512.02 241.456H512.109V241.54C513.935 241.512 515.76 241.484 517.586 241.457C517.586 239.425 517.586 237.394 517.586 235.362H512.02V241.456Z" fill="#2E2E2E"/>
<path d="M476.801 200.145C474.774 200.146 472.747 200.147 470.719 200.148V205.617H476.801C476.801 203.793 476.801 201.969 476.801 200.145V200.145Z" fill="#2E2E2E"/>
<path d="M488.537 265.023V276.679H482.449V276.764H482.358V288.327H488.383V294.066H476.887V300.16H494.098V265.022C492.275 264.994 490.451 264.967 488.628 264.939V265.023H488.537V265.023Z" fill="#2E2E2E"/>
<path d="M605.959 47.0537H600.649V52.9915H605.959V47.0537Z" fill="#2E2E2E"/>
<path d="M417.481 235.533H412.003V241.456C413.829 241.456 415.655 241.456 417.481 241.456V235.533V235.533Z" fill="#2E2E2E"/>
<path d="M617.531 47.0723H612.208V52.9953H617.531V47.0723Z" fill="#2E2E2E"/>
<path d="M612.12 58.4548C612.12 56.4592 612.12 54.7689 612.12 53.0832C610.095 53.0817 608.071 53.0805 606.046 53.079L605.918 58.4548H612.12V58.4548Z" fill="#2E2E2E"/>
<path d="M517.671 247.02C519.67 247.059 521.669 247.098 523.668 247.137V241.547H517.671C517.671 243.371 517.671 245.196 517.671 247.02V247.02Z" fill="#2E2E2E"/>
<path d="M476.801 276.679C474.77 276.677 472.739 276.675 470.708 276.673V276.764H470.623V288.242H465.145V276.764H465.06V276.673H459.03V270.5H453.406V270.585H453.316C453.346 276.529 453.376 282.474 453.405 288.418H458.876V293.98H458.967V294.065H465.056V305.721H465.146V305.805H470.618V311.9H470.708V311.984H476.887V317.457H482.537V311.861H488.403V305.679H476.797V300.245H470.878V293.98H476.802C476.831 288.241 476.861 282.503 476.891 276.764H476.801V276.679V276.679Z" fill="#2E2E2E"/>
<path d="M505.676 253.196H500.373L500.373 253.281L500.283 253.28V258.76L500.373 258.759L500.373 258.759L500.372 258.844H505.676V253.196V253.196Z" fill="#2E2E2E"/>
<path d="M512.02 247.103C512.049 253.048 512.079 258.993 512.109 264.938H517.58V247.102C515.756 247.074 513.933 247.047 512.109 247.019V247.103H512.02V247.103Z" fill="#2E2E2E"/>
<path d="M500.283 258.76C498.251 258.788 496.22 258.815 494.189 258.843C494.19 260.874 494.19 262.906 494.19 264.938C496.221 264.938 498.252 264.938 500.284 264.938C500.313 262.907 500.342 260.875 500.372 258.844H500.283V258.76Z" fill="#2E2E2E"/>
<path d="M623.691 82.109H617.766V88.0497H623.691V82.109V82.109Z" fill="#2E2E2E"/>
<path d="M505.928 241.455C505.9 235.512 505.872 229.57 505.844 223.626H500.373V241.457C502.197 241.486 504.02 241.516 505.844 241.545V241.455H505.928V241.455Z" fill="#2E2E2E"/>
<path d="M612.005 41.1505V35.3022H606.211V41.1505H612.005Z" fill="#2E2E2E"/>
<path d="M617.678 76.7112H606.22V82.0215C610.189 82.0215 613.934 82.0215 617.678 82.0217V76.7112Z" fill="#2E2E2E"/>
<path d="M612.111 23.6221H606.199V29.3146H612.111V23.6221Z" fill="#2E2E2E"/>
<path d="M512.019 241.456C509.989 241.456 507.958 241.455 505.928 241.455L505.928 241.547L505.844 241.545V247.103H512.02L512.019 247.018L512.109 247.103C512.045 247.047 511.987 247.003 512.109 247.019V241.54L512.019 241.541V241.456V241.456Z" fill="#2E2E2E"/>
<path d="M488.544 258.758H488.628V258.847C490.453 258.818 492.278 258.788 494.103 258.759V253.282H488.627C488.599 255.107 488.572 256.932 488.544 258.758V258.758Z" fill="#2E2E2E"/>
<path d="M540.906 76.4546V70.5406H529.416V76.4546H540.906Z" fill="#2E2E2E"/>
<path d="M552.712 170.669H547.339C547.339 172.784 547.339 174.675 547.339 176.564C549.13 176.606 550.921 176.648 552.712 176.691V170.669Z" fill="#2E2E2E"/>
<path d="M570.986 76.4599C573.096 76.4599 574.997 76.4599 576.895 76.4602V70.5331H570.986V76.4599Z" fill="#2E2E2E"/>
<path d="M540.863 105.723C538.907 105.723 537.193 105.723 535.489 105.715C535.566 113.718 535.642 121.72 535.711 129.716H540.863V105.723V105.723Z" fill="#2E2E2E"/>
<path d="M570.991 41.2519H576.915V35.3125H570.991V41.2519Z" fill="#2E2E2E"/>
<path d="M535.71 153.196H540.861V135.383C538.905 135.383 537.192 135.383 535.489 135.376C535.565 141.318 535.641 147.26 535.71 153.196Z" fill="#2E2E2E"/>
<path d="M412.002 270.5C411.975 268.676 411.947 266.852 411.92 265.028H405.678V259.015H394.089V264.937H400.264V270.499C404.149 270.529 408.034 270.558 411.919 270.588V270.498L412.002 270.5V270.5Z" fill="#2E2E2E"/>
<path d="M535.622 153.272H523.941V158.662H535.513C535.549 156.865 535.586 155.068 535.622 153.272Z" fill="#2E2E2E"/>
<path d="M417.565 264.937V253.282H412.004C412.004 257.168 412.004 261.053 412.003 264.938C413.829 264.968 415.656 264.997 417.482 265.026L417.48 264.937H417.565V264.937Z" fill="#2E2E2E"/>
<path d="M600.196 41.0824V35.1699H594.503V41.0824H600.196Z" fill="#2E2E2E"/>
<path d="M400.261 276.678C400.234 274.647 400.206 272.615 400.179 270.584H394.089C394.087 272.616 394.085 274.647 394.083 276.679C396.115 276.708 398.146 276.737 400.178 276.767V276.678H400.261Z" fill="#2E2E2E"/>
<path d="M547.251 176.648C545.25 176.612 543.249 176.576 541.248 176.54V181.945H547.251V176.648Z" fill="#2E2E2E"/>
<path d="M547.12 47.0468H541.332V52.8883H547.12V47.0468V47.0468Z" fill="#2E2E2E"/>
<path d="M540.861 58.8027H535.784V64.7144H540.861V58.8027Z" fill="#2E2E2E"/>
<path d="M588.519 6.26392H582.736V11.4859H588.519V6.26392Z" fill="#2E2E2E"/>
<path d="M376.783 311.9H382.344V317.461C384.375 317.461 386.406 317.461 388.437 317.461V311.9H393.999V294.066H388.437V288.503H376.686V293.971H376.774L376.73 294.015C376.799 293.929 376.767 294.019 376.774 294.059H382.246V300.152H382.334L382.246 300.239L382.334 300.152V300.239H388.258V305.565H382.334C382.334 303.784 382.334 302.012 382.334 300.239H382.246V300.152H376.774C376.774 298.041 376.774 296.049 376.774 294.059H376.686V293.971H370.608V305.72H376.783V311.9Z" fill="#2E2E2E"/>
<path d="M517.387 88.4136H512.235C512.235 94.2551 512.235 99.9379 512.227 105.614H517.387V88.4136Z" fill="#2E2E2E"/>
<path d="M529.329 105.585H524.009V111.509H529.329V105.585Z" fill="#2E2E2E"/>
<path d="M512.141 105.69H506.044V111.559C508.175 111.559 510.157 111.559 512.131 111.567C512.134 109.607 512.138 107.649 512.141 105.69V105.69Z" fill="#2E2E2E"/>
<path d="M588.47 29.6038C586.358 29.6038 584.458 29.6038 582.561 29.6033V34.9069H588.47V29.6038V29.6038Z" fill="#2E2E2E"/>
<path d="M529.303 82.2391V88.0083H535.392V82.2468C533.261 82.2468 531.278 82.2466 529.303 82.2391Z" fill="#2E2E2E"/>
<path d="M365.04 317.461H376.696V311.986H370.517V305.805H359.014V312.056H365.04V317.461V317.461Z" fill="#2E2E2E"/>
<path d="M529.327 76.5427H523.993V82.1519H529.228C529.261 80.2821 529.294 78.4123 529.327 76.5427Z" fill="#2E2E2E"/>
<path d="M582.304 41.3397C580.403 41.3397 578.702 41.3397 577.004 41.3396V52.826H582.304V41.3397Z" fill="#2E2E2E"/>
<path d="M535.412 105.627V99.9163H529.505C529.476 101.777 529.447 103.637 529.418 105.499C531.416 105.541 533.414 105.584 535.412 105.627V105.627Z" fill="#2E2E2E"/>
<path d="M588.912 46.9771V52.7781H594.083V46.9771H588.912Z" fill="#2E2E2E"/>
<path d="M470.618 311.9H465.147V305.805H465.056V305.72H458.967V294.065H458.877V293.979H453.404L453.405 294.07H453.32V311.895H453.405V311.986H458.881V323.635H458.966V323.727C460.997 323.726 463.027 323.727 465.058 323.727L465.056 323.642H465.147V317.547H470.623V317.457L470.708 317.458V311.984H470.618V311.9V311.9Z" fill="#2E2E2E"/>
<path d="M470.612 153.339H465.308V170.385C467.207 170.385 468.911 170.385 470.612 170.385V153.339Z" fill="#2E2E2E"/>
<path d="M582.473 23.5698H577.166V29.5157H582.473V23.5698Z" fill="#2E2E2E"/>
<path d="M529.43 94.0564H523.958V99.8213C525.88 99.8213 527.659 99.8213 529.43 99.8287V94.0564Z" fill="#2E2E2E"/>
<path d="M565.048 176.787C560.854 176.787 556.818 176.787 552.788 176.779V181.938H565.048V176.787Z" fill="#2E2E2E"/>
<path d="M393.998 265.022H388.692V270.5H393.998V265.022V265.022Z" fill="#2E2E2E"/>
<path d="M558.991 147.156H547.518V153.102H558.991V147.156Z" fill="#2E2E2E"/>
<path d="M458.967 253.28C460.997 253.252 463.027 253.225 465.056 253.197V241.541H458.967C458.937 245.426 458.908 249.311 458.878 253.196H458.967V253.28Z" fill="#2E2E2E"/>
<path d="M559.079 153.19V170.232H565.001V153.19C562.893 153.19 560.984 153.19 559.079 153.19Z" fill="#2E2E2E"/>
<path d="M447.227 246.849H453.32V241.54C451.289 241.54 449.257 241.541 447.227 241.54V246.849Z" fill="#2E2E2E"/>
<path d="M329.734 358.947H323.811V365.043H329.734V358.947Z" fill="#2E2E2E"/>
<path d="M465.147 258.843C466.972 258.843 468.797 258.843 470.622 258.843V258.758H470.71C470.681 256.932 470.652 255.107 470.623 253.281C468.797 253.282 466.971 253.282 465.145 253.282C465.116 255.107 465.087 256.932 465.059 258.758H465.147V258.843V258.843Z" fill="#2E2E2E"/>
<path d="M476.887 258.843C478.713 258.843 480.538 258.843 482.363 258.843V258.758H482.451C482.422 256.932 482.393 255.107 482.364 253.281H476.886C476.857 255.107 476.828 256.932 476.799 258.758H476.887V258.843V258.843Z" fill="#2E2E2E"/>
<path d="M511.919 123.643C509.793 123.643 507.807 123.643 505.828 123.636V134.969H511.919V123.643V123.643Z" fill="#2E2E2E"/>
<path d="M411.919 241.546H405.991V253.191H411.918C411.918 249.31 411.918 245.428 411.919 241.546Z" fill="#2E2E2E"/>
<path d="M505.751 123.547V117.836H500.463C500.43 119.705 500.397 121.573 500.364 123.442C502.16 123.477 503.955 123.512 505.751 123.547V123.547Z" fill="#2E2E2E"/>
<path d="M535.622 129.793C533.514 129.804 531.406 129.815 529.305 129.819V135.289H535.415C535.484 133.457 535.553 131.625 535.622 129.793Z" fill="#2E2E2E"/>
<path d="M500.388 111.977H494.3V117.741C496.428 117.741 498.412 117.741 500.388 117.749V111.977Z" fill="#2E2E2E"/>
<path d="M552.786 158.952H547.492V164.644H552.786V158.952Z" fill="#2E2E2E"/>
<path d="M517.69 111.654H512.207V117.741C514.129 117.741 515.913 117.741 517.69 117.748V111.654V111.654Z" fill="#2E2E2E"/>
<path d="M423.656 264.937H417.565V265.027L417.481 265.026L417.564 270.498H423.662C423.689 268.673 423.717 266.847 423.744 265.022H423.656L423.656 264.937V264.937Z" fill="#2E2E2E"/>
<path d="M423.66 241.546H417.566V247.017H423.66V241.546Z" fill="#2E2E2E"/>
<path d="M529.148 141.432H523.839V146.752H529.148V141.432Z" fill="#2E2E2E"/>
<path d="M529.228 129.729V123.513H523.837C523.801 125.515 523.766 127.516 523.73 129.517C525.563 129.588 527.396 129.658 529.228 129.729Z" fill="#2E2E2E"/>
<path d="M482.174 170.472H470.7V176.414H482.174V170.472Z" fill="#2E2E2E"/>
<path d="M600.213 23.421C598.103 23.421 596.202 23.421 594.304 23.4207V29.3466H600.213V23.421V23.421Z" fill="#2E2E2E"/>
<path d="M594.216 18.0103H588.91V23.3335H594.216V18.0103Z" fill="#2E2E2E"/>
<path d="M429.31 264.937C429.28 258.994 429.25 253.051 429.221 247.108C427.396 247.108 425.57 247.108 423.745 247.108C423.715 253.051 423.685 258.994 423.656 264.937H423.745L423.744 265.022H429.22V264.937H429.31Z" fill="#2E2E2E"/>
<path d="M435.296 211.989H429.465V217.173H435.296V211.989Z" fill="#2E2E2E"/>
<path d="M523.744 252.995H529.216V247.233C527.294 247.233 525.515 247.233 523.744 247.225V252.995Z" fill="#2E2E2E"/>
<path d="M517.844 129.59V141.345H523.75C523.712 137.424 523.673 133.504 523.643 129.59H517.844V129.59Z" fill="#2E2E2E"/>
<path d="M500.373 288.22H505.988V270.474H512.019V265.023H500.373V288.22V288.22Z" fill="#2E2E2E"/>
<path d="M523.75 117.836H517.766V123.426C519.971 123.426 521.862 123.426 523.75 123.426V117.836Z" fill="#2E2E2E"/>
<path d="M435.49 247.017V235.363H429.313C429.31 239.248 429.308 243.133 429.305 247.018C431.337 247.046 433.368 247.073 435.4 247.101V247.017H435.49Z" fill="#2E2E2E"/>
<path d="M447.136 229.182H441.666V241.455H447.136V229.182Z" fill="#2E2E2E"/>
<path d="M600.274 0.0715332H594.462V5.93733H600.274V0.0715332Z" fill="#2E2E2E"/>
<path d="M535.599 176.444C537.621 176.444 539.401 176.444 541.171 176.452V158.749C539.006 158.749 537.299 158.749 535.599 158.749V176.444Z" fill="#2E2E2E"/>
<path d="M453.224 217.436H447.218V223.656H453.224V217.436Z" fill="#2E2E2E"/>
<path d="M588.721 129.73H594.112V123.514H588.721V129.73Z" fill="#2E2E2E"/>
<path d="M582.447 141.149H588.536V135.386C586.406 135.386 584.423 135.386 582.447 135.379V141.149Z" fill="#2E2E2E"/>
<path d="M600.354 129.516C602.222 129.549 604.09 129.581 605.959 129.614V123.663H600.354V129.516Z" fill="#2E2E2E"/>
<path d="M623.948 105.353H629.254V100.027H623.948V105.353Z" fill="#2E2E2E"/>
<path d="M470.676 258.808L470.712 258.843H470.622V264.937H470.708V265.023H476.801V264.937H476.888C476.887 262.905 476.887 260.874 476.887 258.843H476.798L476.799 258.758C474.77 258.758 472.74 258.758 470.711 258.758L470.712 258.843L470.676 258.808V258.808Z" fill="#2E2E2E"/>
<path d="M470.622 258.758L470.676 258.808L470.622 258.758Z" fill="#2E2E2E"/>
<path d="M588.876 76.5447V82.1471H594.116C594.148 80.2797 594.18 78.4122 594.213 76.5447H588.876Z" fill="#2E2E2E"/>
<path d="M600.664 105.693V111.694H605.962C605.997 109.693 606.033 107.693 606.068 105.693H600.664Z" fill="#2E2E2E"/>
<path d="M594.191 93.6424C596.652 93.6424 598.578 93.6424 600.492 93.6498V82.2416C598.032 82.2416 596.106 82.2416 594.191 82.2343V93.6424V93.6424Z" fill="#2E2E2E"/>
<path d="M594.197 70.2807V58.8112H582.655V64.7908H588.771V70.2807H594.197V70.2807Z" fill="#2E2E2E"/>
<path d="M482.357 235.21H476.793C476.793 233.002 476.793 231.097 476.793 229.196C474.729 229.233 472.664 229.27 470.605 229.3V241.442C474.856 241.442 478.608 241.442 482.357 241.443V235.21Z" fill="#2E2E2E"/>
<path d="M612.129 88.4622H606.039V93.8553C604.216 93.8163 602.392 93.7777 600.568 93.7388V99.9446C602.602 99.9446 604.318 99.9446 606.034 99.9448C606.077 101.838 606.119 103.73 606.155 105.617H612.129V99.9449C616.039 99.9431 619.95 99.9415 623.86 99.94V93.8608H612.129V88.4622V88.4622Z" fill="#2E2E2E"/>
<path d="M441.665 265.023H447.141V264.937H447.227V253.165H441.508V247.017H435.49V247.102L435.4 247.101V258.9H441.579V264.937H441.665V265.023Z" fill="#2E2E2E"/>
<path d="M600.214 76.4566V70.3682H594.286C594.291 72.3976 594.296 74.427 594.301 76.4566H600.214V76.4566Z" fill="#2E2E2E"/>
<path d="M577.011 105.795H565.37V111.561C569.358 111.561 573.188 111.561 577.011 111.569V105.795Z" fill="#2E2E2E"/>
<path d="M565.348 88.2138H570.737V81.9935H565.348V88.2138Z" fill="#2E2E2E"/>
<path d="M576.984 135.291H582.371V129.689H576.984V135.291Z" fill="#2E2E2E"/>
<path d="M606.047 135.015H611.954V129.703C609.845 129.703 607.945 129.703 606.047 129.703V135.015Z" fill="#2E2E2E"/>
<path d="M570.823 129.601C573.074 129.601 574.987 129.601 576.896 129.602V123.525C574.645 123.525 572.732 123.525 570.823 123.525V129.601Z" fill="#2E2E2E"/>
<path d="M458.882 182.207H453.567V188.132H458.882V182.207Z" fill="#2E2E2E"/>
<path d="M570.735 123.438V118.116H565.428V123.438H570.735Z" fill="#2E2E2E"/>
<path d="M594.188 146.803H600.259C600.259 140.966 600.259 135.277 600.267 129.594C598.238 129.67 596.21 129.746 594.188 129.814V146.803Z" fill="#2E2E2E"/>
<path d="M588.739 117.856H594.052V111.951H588.739C588.739 114.06 588.739 115.959 588.739 117.856Z" fill="#2E2E2E"/>
<path d="M482.452 253.196H488.538V241.53H482.444C482.447 245.419 482.45 249.307 482.452 253.196Z" fill="#2E2E2E"/>
<path d="M582.646 123.427H588.632C588.639 121.599 588.645 119.771 588.651 117.944C586.649 117.909 584.648 117.874 582.646 117.84V123.427V123.427Z" fill="#2E2E2E"/>
<path d="M447.13 205.704C445.096 205.704 443.386 205.704 441.681 205.704V217.348C443.714 217.348 445.425 217.348 447.13 217.348V205.704Z" fill="#2E2E2E"/>
<path d="M577.087 117.744C579.011 117.744 580.794 117.744 582.569 117.751V111.656H577.087V117.744Z" fill="#2E2E2E"/>
<path d="M476.881 223.799V229.106H482.204V223.799H476.881Z" fill="#2E2E2E"/>
<path d="M441.593 200.302H435.667V205.617H441.593V200.302Z" fill="#2E2E2E"/>
<path d="M606.049 117.712H617.507V111.781H606.049V117.712Z" fill="#2E2E2E"/>
<path d="M641.075 35.2803C639.151 35.2803 637.367 35.2801 635.591 35.2727V41.3661H641.075V35.2803V35.2803Z" fill="#2E2E2E"/>
<path d="M629.412 35.1856H635.515V29.7192C633.382 29.7192 631.393 29.7192 629.412 29.7117V35.1856Z" fill="#2E2E2E"/>
<path d="M647.255 41.4609C645.122 41.4609 643.133 41.4609 641.152 41.4534V46.9268H647.255V41.4609Z" fill="#2E2E2E"/>
<path d="M453.482 205.61H458.868V193.968H447.239V200.183H453.482V205.61Z" fill="#2E2E2E"/>
<path d="M465.047 205.698H458.956V217.35H465.047V205.698Z" fill="#2E2E2E"/>
<path d="M453.406 265.023C457.291 265.023 461.176 265.023 465.061 265.023V264.937H465.147V258.843H465.057L465.059 258.758H458.967V253.28L458.877 253.281L458.878 253.196H453.32V264.937H453.406V265.023V265.023Z" fill="#2E2E2E"/>
<path d="M629.336 23.4207C627.341 23.4207 625.651 23.4207 623.965 23.4204V29.6246H629.336V23.4207Z" fill="#2E2E2E"/>
<path d="M653.175 29.299H659.074V23.563H653.175V29.299Z" fill="#2E2E2E"/>
<path d="M617.955 23.3332H623.877V18.0093H617.955V23.3332Z" fill="#2E2E2E"/>
<path d="M629.588 93.573H635.497V82.256H629.588V93.573V93.573Z" fill="#2E2E2E"/>
<path d="M653.015 41.1083H658.926V35.345H653.015V41.1083Z" fill="#2E2E2E"/>
<path d="M635.419 58.4524V53.0814C633.304 53.0814 631.412 53.0814 629.524 53.0812C629.482 54.8715 629.44 56.662 629.397 58.4524H635.419Z" fill="#2E2E2E"/>
<path d="M476.798 253.196V247.273H470.712C470.712 249.385 470.712 251.292 470.712 253.196H476.798Z" fill="#2E2E2E"/>
<path d="M624.077 64.8485H629.334C629.323 62.7399 629.312 60.6314 629.309 58.5289H624.077V64.8485Z" fill="#2E2E2E"/>
<path d="M647.429 52.9959H652.787V47.0214C650.86 47.0214 649.093 47.0214 647.333 47.014C647.365 49.0078 647.397 51.0019 647.429 52.9959V52.9959Z" fill="#2E2E2E"/>
<path d="M635.59 76.2686H647.233V70.5041C643.245 70.5041 639.414 70.5038 635.59 70.4963V76.2686Z" fill="#2E2E2E"/>
<path d="M458.877 241.455V223.75C456.853 223.75 455.072 223.75 453.301 223.743C453.338 229.647 453.374 235.551 453.41 241.455H458.877V241.455Z" fill="#2E2E2E"/>
<path d="M494.285 181.945H500.289V176.648C498.287 176.612 496.286 176.576 494.285 176.541V181.945Z" fill="#2E2E2E"/>
<path d="M624.13 52.9939H629.439V47.0536H624.13V52.9939Z" fill="#2E2E2E"/>
<path d="M647.446 64.5695H652.739V58.6432C650.836 58.6432 649.139 58.6432 647.446 58.6431V64.5695Z" fill="#2E2E2E"/>
<path d="M447.151 188.558H441.843V193.88H447.151V188.558Z" fill="#2E2E2E"/>
<path d="M641.431 53.0841V58.5556H647.358C647.353 56.732 647.348 54.908 647.343 53.0841H641.431Z" fill="#2E2E2E"/>
<path d="M465.135 229.214H470.529V217.438H465.135V229.214Z" fill="#2E2E2E"/>
<path d="M629.523 70.2801C631.52 70.3227 633.516 70.365 635.513 70.4076V64.9434C633.382 64.9434 631.393 64.9434 629.412 64.9358C629.449 66.7171 629.486 68.4986 629.523 70.2801Z" fill="#2E2E2E"/>
<path d="M577.069 99.9421C579.064 99.9421 580.762 99.9421 582.456 99.9423V88.3013H570.825V93.9036H577.069V99.9421Z" fill="#2E2E2E"/>
<path d="M624.113 76.2894H629.437V70.3666H624.113V76.2894Z" fill="#2E2E2E"/>
<path d="M529.311 176.815H517.855V182.13C521.823 182.13 525.567 182.13 529.311 182.13V176.815Z" fill="#2E2E2E"/>
<path d="M529.333 188.392H524.008V193.699H529.333V188.392Z" fill="#2E2E2E"/>
<path d="M535.491 188.308V182.218H529.399C529.407 184.246 529.413 186.275 529.42 188.304C531.443 188.306 533.467 188.307 535.491 188.308V188.308Z" fill="#2E2E2E"/>
<path d="M571.024 164.701H576.751V153.253H571.024V164.701Z" fill="#2E2E2E"/>
<path d="M541.032 199.96C543.101 199.988 545.169 200.016 547.238 200.044C547.28 198.048 547.322 196.053 547.364 194.057C545.257 194.067 543.149 194.077 541.048 194.08C541.043 196.04 541.038 198 541.032 199.96V199.96Z" fill="#2E2E2E"/>
<path d="M529.519 200.035V205.698H535.63V217.35H541.053C541.015 211.576 540.976 205.802 540.945 200.035H529.519Z" fill="#2E2E2E"/>
<path d="M423.667 223.78H417.745V229.104H423.667V223.78Z" fill="#2E2E2E"/>
<path d="M429.221 229.182C427.399 229.185 425.578 229.189 423.756 229.192V235.276H429.22C429.22 233.245 429.22 231.213 429.221 229.182Z" fill="#2E2E2E"/>
<path d="M565.272 65.0186H559.175V81.8988C561.301 81.8988 563.291 81.899 565.272 81.9067V65.0186V65.0186Z" fill="#2E2E2E"/>
<path d="M565.245 193.884H570.568V188.576H565.245V193.884Z" fill="#2E2E2E"/>
<path d="M570.936 181.979H576.73V170.578H570.936V181.979Z" fill="#2E2E2E"/>
<path d="M488.641 182.346C480.563 182.346 472.8 182.346 465.045 182.338V188.191C473.125 188.191 480.887 188.191 488.641 188.198V182.346Z" fill="#2E2E2E"/>
<path d="M540.972 188.396H535.58V193.994H540.972V188.396Z" fill="#2E2E2E"/>
<path d="M547.453 193.979C551.334 193.903 555.214 193.826 559.089 193.757V188.524H547.461C547.461 190.421 547.461 192.203 547.453 193.979V193.979Z" fill="#2E2E2E"/>
<path d="M505.835 217.347V193.971C501.723 193.971 497.959 193.971 494.198 193.971V200.212H500.448V217.347C502.433 217.347 504.136 217.347 505.835 217.347Z" fill="#2E2E2E"/>
<path d="M488.718 193.883H494.11V188.285H488.718V193.883Z" fill="#2E2E2E"/>
<path d="M517.491 200.173V188.39H512.104V200.173H517.491Z" fill="#2E2E2E"/>
<path d="M576.81 58.7582H570.963V64.5499H576.81V58.7582V58.7582Z" fill="#2E2E2E"/>
<path d="M505.99 188.302C508.202 188.302 510.111 188.302 512.016 188.303V170.639H500.376C500.376 172.746 500.376 174.655 500.376 176.561H505.99V188.302V188.302Z" fill="#2E2E2E"/>
<path d="M517.567 217.349C519.938 217.349 521.848 217.349 523.752 217.349V200.267C521.526 200.267 519.542 200.267 517.567 200.26V217.349Z" fill="#2E2E2E"/>
<path d="M512.019 223.536V217.434H505.923C505.925 219.468 505.927 221.502 505.929 223.536C507.959 223.536 509.989 223.536 512.019 223.536Z" fill="#2E2E2E"/>
<path d="M494.208 170.681H488.737V176.445C490.659 176.445 492.437 176.445 494.208 176.452V170.681V170.681Z" fill="#2E2E2E"/>
<path d="M541.142 223.369H547.239C547.239 221.263 547.239 219.358 547.239 217.455C545.207 217.449 543.174 217.443 541.142 217.437V223.369V223.369Z" fill="#2E2E2E"/>
<path d="M523.594 235.272V229.187H517.671C517.671 231.215 517.671 233.244 517.671 235.272H523.594V235.272Z" fill="#2E2E2E"/>
<path d="M547.326 217.367H552.648V212.058H547.326V217.367Z" fill="#2E2E2E"/>
<path d="M553.072 93.7796H558.992V88.4534H553.072V93.7796Z" fill="#2E2E2E"/>
<path d="M570.591 23.5767H565.334V29.3967H570.591V23.5767Z" fill="#2E2E2E"/>
<path d="M594.019 100.03H582.544V105.353H594.019V100.03Z" fill="#2E2E2E"/>
<path d="M552.631 200.132H547.324V205.457H552.631V200.132Z" fill="#2E2E2E"/>
<path d="M523.84 223.657H529.228V217.437H523.84V223.657Z" fill="#2E2E2E"/>
<path d="M559.166 199.867H565.158C565.158 197.752 565.158 195.859 565.158 193.97C563.16 193.928 561.163 193.886 559.166 193.845V199.867V199.867Z" fill="#2E2E2E"/>
<path d="M570.604 135.384C568.57 135.384 566.854 135.384 565.149 135.376V146.801H576.765V141.292H570.604V135.384V135.384Z" fill="#2E2E2E"/>
<path d="M464.969 182.25V176.81H458.97C458.97 178.705 458.97 180.413 458.97 182.12C460.97 182.163 462.969 182.206 464.969 182.25Z" fill="#2E2E2E"/>
<path d="M565.073 129.695H559.072V135.175C561.072 135.212 563.072 135.25 565.073 135.288V129.695V129.695Z" fill="#2E2E2E"/>
<path d="M547.427 105.518H552.814V99.915H547.427V105.518Z" fill="#2E2E2E"/>
<path d="M441.574 223.785H429.311V229.097H441.574V223.785Z" fill="#2E2E2E"/>
<path d="M558.982 105.606C556.729 105.606 554.814 105.606 552.902 105.605C552.901 113.607 552.899 121.609 552.897 129.61H558.982V105.606V105.606Z" fill="#2E2E2E"/>
<path d="M647.359 6.2688H641.436V11.5917H647.359V6.2688Z" fill="#2E2E2E"/>
<path d="M552.648 76.7305H547.325V82.0381H552.648V76.7305Z" fill="#2E2E2E"/>
<path d="M652.74 11.6799C650.838 11.6799 649.141 11.6799 647.447 11.6797V17.6063H652.74V11.6799Z" fill="#2E2E2E"/>
<path d="M582.74 164.721H588.512V147.075H582.74V164.721Z" fill="#2E2E2E"/>
<path d="M541.351 99.8202C543.512 99.8202 545.436 99.8202 547.351 99.8278C547.313 93.9276 547.275 88.0272 547.238 82.1265H541.351V99.8202V99.8202Z" fill="#2E2E2E"/>
<path d="M552.806 129.695H547.5V135.173H552.806C552.806 133.347 552.806 131.521 552.806 129.695V129.695Z" fill="#2E2E2E"/>
<path d="M552.897 135.258V141.179H558.982V135.258C556.954 135.258 554.926 135.258 552.897 135.258V135.258Z" fill="#2E2E2E"/>
</g>
<defs>
<clipPath id="clip0_8_362">
<rect width="659.075" height="900" fill="white"/>
</clipPath>
</defs>
</svg>
