<?xml version="1.0" encoding="UTF-8"?> <svg xmlns="http://www.w3.org/2000/svg" width="1378" height="935" viewBox="0 0 1378 935" fill="none"><path fill-rule="evenodd" clip-rule="evenodd" d="M364.059 434.695C293.034 519.778 222.731 603.992 207.83 621.837L180.736 654.284L248.476 654.279L316.217 654.273L472.932 468.185C559.125 365.836 629.979 281.625 630.385 281.048C631.116 280.011 630.382 280 562.159 280H493.194L364.059 434.695ZM155.916 467.277L0 654.015L3.27862 654.356C5.08165 654.543 35.396 654.715 70.6433 654.736L134.729 654.775L291.175 468.987C377.22 366.803 448.065 282.6 448.607 281.868L449.595 280.539H380.713H311.831L155.916 467.277ZM514.668 507.268C500.1 507.582 498.533 507.707 495.793 508.781C487.201 512.148 480.346 519.06 477.005 527.723L475.355 532.001L475.373 576.852C475.383 601.52 475.601 623.332 475.857 625.323C477.425 637.478 489.313 648.649 502.113 649.996C504.726 650.271 533.917 650.499 567.041 650.505L627.223 650.514V635.79V621.065L617.443 620.711C612.064 620.516 587.096 620.356 561.959 620.356H516.255L513.933 618.034C512.054 616.154 511.543 615.217 511.255 613.112C511.059 611.682 510.899 595.8 510.899 577.817V545.123L512.497 542.916C513.376 541.702 514.649 540.393 515.325 540.007C516.307 539.447 527.649 539.276 571.888 539.155L627.223 539.003V522.864V506.725L578.889 506.825C552.306 506.88 523.406 507.08 514.668 507.268ZM820.02 579.908V653.207H838.599H857.179V596.391V539.576H872.026H886.874L889.277 541.229C890.599 542.138 892.261 543.774 892.971 544.864L894.262 546.846L894.647 600.027L895.031 653.207H912.995H930.959V596.391V539.576H946.179H961.401L964.14 541.421C969.317 544.907 968.904 539.986 969.082 600.296L969.24 653.207H987.797H1006.35L1006.34 597.603C1006.33 567.021 1006.1 538.316 1005.84 533.815C1005.37 525.775 1005.33 525.562 1003.31 521.717C999.938 515.301 994.719 510.814 987.614 508.221C984.565 507.108 983.956 507.098 902.281 506.855L820.02 506.609V579.908ZM1067.48 507.284C1056.08 507.489 1047.38 507.871 1046.36 508.211C1038.83 510.736 1031.03 517.688 1027.36 525.152L1025.04 529.847L1024.53 543.462C1024.25 550.951 1024.16 572.346 1024.32 591.006C1024.58 620.241 1024.74 625.344 1025.5 627.896C1027.96 636.175 1034.13 643.395 1042.08 647.317C1046.61 649.548 1047.16 649.684 1053.12 650.049C1056.58 650.26 1087.69 650.451 1122.27 650.474L1185.15 650.514V635.784V621.055L1126.04 620.662C1061.32 620.232 1064.96 620.437 1062.13 617.066C1061.28 616.065 1060.7 614.523 1060.48 612.688C1060.29 611.13 1060.21 595.15 1060.31 577.177C1060.47 545.148 1060.5 544.471 1061.59 543.014C1062.2 542.196 1063.37 541.027 1064.18 540.417C1065.66 539.313 1066.03 539.305 1125.41 539.154L1185.15 539.001V522.863V506.725L1136.01 506.83C1108.98 506.887 1078.14 507.092 1067.48 507.284ZM1202.38 524.518C1202.38 541.001 1202.46 542.461 1203.42 544.338C1205.13 547.704 1207.37 549.429 1222.55 559.082C1245.25 573.52 1251.66 577.778 1251.66 578.419C1251.66 578.745 1245.24 583.08 1237.39 588.054C1206.25 607.784 1206.05 607.926 1203.44 612.477L1201.85 615.24L1201.85 632.608L1201.84 649.976H1219.88H1237.93L1237.93 639.34L1237.93 628.704L1246.41 623.348C1251.07 620.403 1262.74 613.07 1272.34 607.053L1289.78 596.112L1292.26 597.548C1293.63 598.337 1305.22 605.519 1318.03 613.507L1341.32 628.03V638.653V649.275L1346.58 649.623C1349.46 649.814 1357.58 649.972 1364.62 649.973L1377.41 649.976V632.456C1377.41 612.918 1377.36 612.592 1373.75 608.89C1372.66 607.768 1370.3 605.919 1368.52 604.782C1366.75 603.645 1362.5 600.946 1359.1 598.783C1347.33 591.312 1329.74 579.831 1328.8 579.007C1327.66 578.01 1327.5 578.124 1349.4 564.358C1371.3 550.596 1374.19 548.438 1376.51 544.153C1377.63 542.089 1377.68 541.263 1377.84 524.362L1378 506.725H1359.93H1341.86V517.451V528.177L1324.7 538.958C1301.96 553.248 1290.55 560.212 1289.89 560.212C1289.26 560.212 1278.44 553.628 1255.29 539.158L1238.46 528.637V517.681V506.725H1220.42H1202.38V524.518ZM665.305 507.851C660.642 508.533 654.079 512.161 649.828 516.408C644.78 521.451 641.973 527.265 641.244 534.191C640.56 540.682 640.528 617.324 641.207 623.771C642.356 634.695 649.739 643.974 660.882 648.497L665.19 650.245L733.45 650.401L801.709 650.557V635.811V621.065L791.929 620.711C786.551 620.516 759.726 620.356 732.32 620.356H682.49L680.792 619.193C679.859 618.553 678.511 617.178 677.797 616.136L676.499 614.242L676.306 580.152L676.114 546.061L677.514 543.673C678.283 542.36 679.731 540.779 680.732 540.161C682.547 539.039 682.662 539.037 742.13 539.037H801.709V523.15V507.263L735.065 507.329C698.411 507.365 667.019 507.6 665.305 507.851ZM710.696 579.966V594.506H756.203H801.709V579.966V565.425H756.203H710.696V579.966ZM1094.14 579.966V594.506H1139.64H1185.15V579.966V565.425H1139.64H1094.14V579.966Z" fill="black"></path></svg> 