<svg width="32" height="44" viewBox="0 0 32 44" fill="none" xmlns="http://www.w3.org/2000/svg">
<path d="M13.4557 8.42542C11.3974 8.42542 9.71099 10.1118 9.71099 12.1701V25.0574C9.13111 23.8043 8.09084 22.4496 6.78548 22.1172C5.00962 21.6349 2.83413 23.0559 2.3388 24.7064C2.08642 25.6265 2.25097 26.6733 2.74824 27.9539C5.18009 33.8016 8.17413 39.4152 11.8173 43.6781C11.9913 43.8782 12.2542 43.9987 12.5193 44H25.1575C25.3566 43.998 25.5545 43.9301 25.7132 43.81C27.0607 42.8119 28.1466 41.1114 29.0481 39.0855C29.9495 37.0595 30.6398 34.709 30.9934 32.4152C31.3473 30.1215 31.3457 27.9737 30.8471 26.067C30.3658 24.2267 29.0676 22.6951 27.1318 22.4685C26.6757 22.4666 26.1937 22.5064 25.7862 22.6001C25.5462 22.0261 25.2096 21.5363 24.7917 21.2399C24.0917 20.7433 23.3793 20.5869 22.8023 20.5964C22.2482 20.6055 21.7431 20.8073 21.2958 21.123C21.0944 20.8158 20.8874 20.4958 20.6229 20.3038C19.9291 19.7997 19.1905 19.6603 18.6045 19.6603C18.1196 19.6603 17.6501 19.7948 17.2001 19.9822V12.1712C17.1603 9.66554 15.1843 8.42195 13.4554 8.42647L13.4557 8.42542ZM13.4557 10.2976C14.5091 10.2976 15.3279 11.1165 15.3279 12.1697V21.9994C15.3217 22.4239 15.641 22.8307 16.0547 22.9254C16.4684 23.0204 16.933 22.7935 17.1125 22.4088C17.3192 21.9788 18.0983 21.5312 18.6044 21.5312C18.8316 21.5312 19.2531 21.6255 19.5257 21.8237C19.7987 22.0219 20.0083 22.2537 20.0083 22.9355C20.0083 23.3518 20.3218 23.7472 20.7263 23.8442C21.1308 23.9412 21.5889 23.7302 21.7783 23.3596C22.159 22.5982 22.3628 22.4751 22.8317 22.4673C22.9613 22.465 23.4158 22.5515 23.7093 22.7598C24.0028 22.9681 24.2213 23.2078 24.2213 23.8716C24.2167 24.2363 24.4495 24.5922 24.7838 24.7375C25.1182 24.8831 25.5361 24.8096 25.8009 24.5589C26.1558 24.3839 26.5042 24.3306 26.9564 24.3395C28.0724 24.4815 28.6519 25.1808 29.048 26.5773C29.4479 27.9868 29.4626 30.0014 29.1358 32.121C28.809 34.241 28.1624 36.4668 27.3368 38.323C26.5623 40.0639 25.6135 41.4232 24.777 42.1262H12.973C9.68706 38.2499 6.54925 32.2973 4.50408 27.2797C4.07831 26.1836 4.03978 25.5544 4.13839 25.2024C4.48546 24.297 5.4562 23.7857 6.2888 23.9153C7.28397 24.2902 7.5308 24.9543 7.95625 25.7144L9.81411 29.4444C10.0035 29.815 10.4613 30.0259 10.8661 29.9289C11.2707 29.8319 11.5831 29.4365 11.5841 29.0203V12.1694C11.5841 11.116 12.403 10.2972 13.4563 10.2972L13.4557 10.2976Z" fill="black"/>
<path d="M5.49835 5.30229e-05C5.25184 0.00233859 5.00011 0.0927831 4.82542 0.277909L0.612862 4.48988C0.408469 4.6773 0.359497 4.91238 0.349701 5.14812C0.357537 5.40443 0.418267 5.60849 0.612862 5.80636L4.82542 10.0183C5.16923 10.3961 5.80362 10.3817 6.15661 10.033C6.50956 9.68398 6.5125 9.04796 6.15661 8.70217L3.53836 6.08426H23.3733L20.755 8.70217C20.3991 9.04794 20.4021 9.68397 20.755 10.033C21.108 10.3821 21.744 10.3778 22.0862 10.0183L26.2988 5.80636C26.4934 5.60882 26.5541 5.40443 26.5619 5.14812C26.5521 4.91271 26.5032 4.67762 26.2988 4.48988L22.0862 0.277909C21.7369 -0.0926771 21.108 -0.085823 20.755 0.263216C20.402 0.612255 20.3991 1.24827 20.755 1.59407L23.3733 4.21198H3.53836L6.15661 1.59407C6.5125 1.2483 6.50956 0.61227 6.15661 0.263216C5.98029 0.0888646 5.74488 -0.00256162 5.49837 5.46172e-05L5.49835 5.30229e-05Z" fill="black"/>
</svg>
