<svg width="2698" height="967" viewBox="0 0 2698 967" fill="none" xmlns="http://www.w3.org/2000/svg">
<path d="M501.592 936.844C484.487 936.84 467.466 939.241 451.03 943.977C434.351 948.673 416.269 953.661 396.785 958.942C373.71 964.572 350.007 967.205 326.26 966.776C260.733 966.776 203.507 945.876 154.581 904.078C105.655 862.279 67.6603 805.057 40.5962 732.411C13.5321 659.745 0 577.346 0 485.213C0 394.055 14.2432 312.133 42.7297 239.448C71.2162 166.763 110.185 109.064 159.637 66.3491C208.992 23.615 265.03 2.24788 327.751 2.24788C356.431 1.90264 385.07 4.52781 413.21 10.0815C437.897 15.3234 460.217 20.7796 480.169 26.4502C496.91 32.0694 514.813 33.2972 532.164 30.0162C549.515 26.4139 566.134 19.9117 581.324 10.783C588.884 6.04771 594.105 6.04771 596.989 10.783C599.873 15.5182 599.873 21.218 596.989 27.8825L420.4 337.193L572.818 438.358C578.508 441.203 581.362 446.425 581.382 454.025V948.244C581.382 954.879 579.453 959.644 575.537 962.508C570.773 965.431 565.57 963.94 559.871 958.241C541.906 943.976 522.48 936.844 501.592 936.844ZM198.042 227.347V587.81L391.787 250.146C408.894 218.773 417.916 189.543 418.851 162.457C419.786 135.37 412.898 113.292 398.188 96.222C383.457 79.1322 360.904 70.5777 330.527 70.5582C295.455 70.5582 264.591 84.3351 237.936 111.889C211.281 139.443 197.983 177.929 198.042 227.347ZM198.042 731.797C198.042 766.873 205.163 797.028 219.406 822.263C233.65 847.498 251.692 866.732 273.535 879.963C293.695 892.713 316.791 900.07 340.611 901.33C362.453 901.33 378.128 896.575 387.637 887.066C392.117 882.863 395.69 877.788 398.138 872.153C400.586 866.518 401.856 860.443 401.87 854.299V545.047L329.212 496.613L202.426 718.76C202.133 719.948 201.604 721.065 200.871 722.044C200.138 723.023 199.216 723.845 198.159 724.46L198.042 731.797Z" fill="black"/>
<path d="M824.822 871.306C824.822 879.861 820.545 884.138 811.991 884.138H683.802C675.229 884.138 670.952 879.861 670.971 871.306V121.91C670.971 105.775 668.36 92.4758 663.139 82.0115C658.451 72.3001 651.919 63.5934 643.907 56.3769C638.198 51.6416 635.344 46.4193 635.344 40.7097C635.344 35.9452 639.143 32.6423 646.742 30.7131L810.588 5.07843C820.058 3.17849 824.822 7.00759 824.822 16.4781V871.306Z" fill="black"/>
<path d="M1074.23 148.975C1075.35 147.85 1076.68 146.957 1078.15 146.348C1079.61 145.739 1081.19 145.426 1082.77 145.426C1084.36 145.426 1085.94 145.739 1087.4 146.348C1088.87 146.957 1090.2 147.85 1091.32 148.975C1153.05 202.174 1200.07 261.773 1232.37 327.775C1264.68 393.776 1280.82 461.979 1280.8 532.384C1280.8 598.853 1265.6 664.62 1235.21 729.686C1204.81 794.751 1157.8 853.883 1094.19 907.082C1091.71 908.916 1088.72 909.906 1085.64 909.906C1082.56 909.906 1079.56 908.916 1077.09 907.082C1015.34 853.883 968.326 794.04 936.04 727.552C903.754 661.063 887.611 593.153 887.611 523.819C887.611 456.396 902.809 390.385 933.205 325.787C963.601 261.189 1010.61 202.252 1074.23 148.975ZM1014.4 291.442C994.465 315.215 984.489 350.359 984.469 396.874C984.469 433.898 991.123 474.742 1004.43 519.406C1018.15 564.993 1037.8 608.578 1062.89 649.04C1087.48 689.653 1118.8 725.79 1155.51 755.905C1166.53 742.328 1174.51 726.537 1178.89 709.604C1184.26 689.87 1186.89 669.492 1186.72 649.04C1186.72 611.061 1180.07 570.227 1166.76 526.538C1152.82 481.476 1133.18 438.382 1108.3 398.306C1083.51 357.452 1051.72 321.279 1014.4 291.442Z" fill="black"/>
<path d="M1600.35 825.709C1596.67 821.321 1594.65 815.772 1594.66 810.042V787.33L1492.07 905.594C1487.31 912.239 1481.14 912.716 1473.54 907.026L1352.51 820.038C1349.99 818.238 1347.92 815.89 1346.44 813.171C1344.96 810.452 1344.12 807.433 1343.98 804.342V324.211L1304.08 290.012C1297.42 283.406 1296.48 277.21 1301.16 271.51L1380.92 157.513C1385.65 149.953 1391.35 148.978 1398.02 154.59C1414.15 166.964 1429.35 179.075 1443.61 190.923C1457.87 202.771 1472.59 215.359 1487.77 228.688C1490.11 230.555 1491.97 232.947 1493.21 235.669C1494.45 238.391 1495.03 241.367 1494.9 244.355V647.64C1494.9 683.729 1503.67 711.011 1521.21 729.484C1538.74 747.957 1563.21 760.068 1594.6 765.817V197.412C1594.36 194.045 1595.4 190.712 1597.5 188.075C1599.61 185.438 1602.63 183.69 1605.97 183.177L1728.49 157.513C1737.99 155.565 1742.75 159.364 1742.75 168.913V738.896L1785.48 777.363C1791.32 783.208 1791.64 789.259 1786.91 795.894L1694.47 898.403C1688.62 905.039 1683.07 905.536 1677.37 899.836C1664.99 888.436 1652.17 876.569 1638.9 864.234C1625.64 851.899 1612.79 839.057 1600.35 825.709Z" fill="black"/>
<path d="M2040.54 790.249C2045.27 796.914 2044.8 803.091 2039.11 808.781L1935.12 899.949C1929.41 905.639 1923.71 905.639 1918.02 899.949C1894.12 877.147 1872.2 852.359 1852.49 825.851C1848.75 821.484 1846.68 815.933 1846.65 810.184V291.441C1846.65 261.997 1834.77 245.375 1811.02 241.575C1802.48 239.704 1798.19 234.94 1798.19 227.34V215.94C1798.12 212.807 1798.87 209.711 1800.38 206.962C1801.88 204.212 1804.08 201.905 1806.75 200.273C1877.99 148.049 1928.79 85.3605 1959.17 12.2078C1960.37 9.09046 1962.54 6.44067 1965.36 4.64692C1968.18 2.85318 1971.5 2.00981 1974.84 2.24042H1984.83C1993.37 2.24042 1997.63 6.50799 1997.63 15.0431V171.774H2053.16C2061.74 171.774 2066.01 176.051 2065.99 184.606V230.175C2065.99 238.749 2061.72 243.027 2053.16 243.007H1997.63V738.805L2040.54 790.249Z" fill="black"/>
<path d="M2272.16 241.575C2275.83 245.971 2277.85 251.514 2277.86 257.242V871.304C2277.86 879.858 2273.58 884.136 2265.03 884.136H2135.41C2126.85 884.136 2122.58 879.858 2122.58 871.304V324.208L2082.68 290.009C2076.97 284.338 2076 278.171 2079.76 271.507L2162.47 158.884C2167.21 150.348 2172.91 149.374 2179.57 155.961C2196.15 168.682 2212.08 182.232 2227.3 196.561C2242.96 211.39 2257.92 226.395 2272.16 241.575ZM2115.33 89.1411C2109.64 82.5157 2109.64 76.3383 2115.33 70.6093L2186.58 3.64365C2194.16 -2.04643 2199.85 -1.0721 2203.65 6.56664C2210.67 20.2322 2221.96 31.2336 2235.8 37.901C2250.02 45.4172 2266.04 48.8662 2282.1 47.8685C2286.83 46.9331 2290.16 48.1315 2292.06 51.4345C2293.96 54.7374 2293 58.8004 2289.14 63.5357C2276.35 83.0695 2257.68 98.0338 2235.83 106.27C2214.83 114.66 2191.98 117.362 2169.6 114.103C2149.37 111.567 2130.42 102.85 2115.33 89.1411Z" fill="black"/>
<path d="M2601.52 395.447C2594.86 403.086 2589.16 402.112 2584.43 392.524C2567.04 361.289 2547.51 331.295 2525.97 302.759V871.31C2525.97 879.865 2521.71 884.142 2513.17 884.142H2387.79C2379.25 884.142 2374.99 879.865 2374.99 871.31V324.214L2335.09 290.015C2328.43 283.409 2327.46 277.213 2332.17 271.513L2411.96 157.516C2416.69 149.955 2422.39 148.981 2429.06 154.593C2445.19 166.967 2460.62 179.078 2475.35 190.926C2490.08 202.774 2504.57 215.362 2518.81 228.691C2521.14 230.56 2523 232.952 2524.24 235.675C2525.47 238.397 2526.05 241.372 2525.91 244.358V271.425L2602.84 154.505C2603.59 152.786 2604.77 151.291 2606.27 150.169C2607.77 149.046 2609.54 148.335 2611.4 148.104C2615.16 147.636 2618.49 149.77 2621.37 154.505C2634.66 172.57 2647.71 191.569 2660.53 211.504C2673.35 231.439 2684.99 251.383 2695.43 271.337C2699.23 277.183 2698.76 283.234 2694.03 289.84L2601.52 395.447Z" fill="black"/>
</svg>
